G04 #@! TF.GenerationSoftware,KiCad,Pcbnew,(6.0.0-rc1-dev)*
G04 #@! TF.CreationDate,2018-08-18T01:00:10+02:00*
G04 #@! TF.ProjectId,reference_board,7265666572656E63655F626F6172642E,rev?*
G04 #@! TF.SameCoordinates,Original*
G04 #@! TF.FileFunction,Soldermask,Top*
G04 #@! TF.FilePolarity,Negative*
%FSLAX46Y46*%
G04 Gerber Fmt 4.6, Leading zero omitted, Abs format (unit mm)*
G04 Created by KiCad (PCBNEW (6.0.0-rc1-dev)) date Sat Aug 18 01:00:10 2018*
%MOMM*%
%LPD*%
G01*
G04 APERTURE LIST*
%ADD10C,1.500000*%
%ADD11R,1.900000X1.900000*%
%ADD12C,1.900000*%
%ADD13C,0.100000*%
%ADD14C,1.650000*%
%ADD15C,1.275000*%
%ADD16R,1.050000X0.800000*%
%ADD17R,2.100000X2.100000*%
%ADD18O,2.100000X2.100000*%
%ADD19R,1.100000X0.650000*%
%ADD20R,2.060000X2.780000*%
G04 APERTURE END LIST*
D10*
G04 #@! TO.C,U2*
X158000000Y-96270000D03*
X158000000Y-93730000D03*
X159270000Y-95000000D03*
X156730000Y-95000000D03*
G04 #@! TD*
D11*
G04 #@! TO.C,RN1*
X174360000Y-102100000D03*
D12*
X176900000Y-102100000D03*
X179440000Y-102100000D03*
G04 #@! TD*
D13*
G04 #@! TO.C,C1*
G36*
X180177346Y-91576589D02*
X180209380Y-91581341D01*
X180240794Y-91589210D01*
X180271286Y-91600120D01*
X180300561Y-91613966D01*
X180328338Y-91630615D01*
X180354350Y-91649907D01*
X180378345Y-91671655D01*
X180400093Y-91695650D01*
X180419385Y-91721662D01*
X180436034Y-91749439D01*
X180449880Y-91778714D01*
X180460790Y-91809206D01*
X180468659Y-91840620D01*
X180473411Y-91872654D01*
X180475000Y-91905000D01*
X180475000Y-92895000D01*
X180473411Y-92927346D01*
X180468659Y-92959380D01*
X180460790Y-92990794D01*
X180449880Y-93021286D01*
X180436034Y-93050561D01*
X180419385Y-93078338D01*
X180400093Y-93104350D01*
X180378345Y-93128345D01*
X180354350Y-93150093D01*
X180328338Y-93169385D01*
X180300561Y-93186034D01*
X180271286Y-93199880D01*
X180240794Y-93210790D01*
X180209380Y-93218659D01*
X180177346Y-93223411D01*
X180145000Y-93225000D01*
X178655000Y-93225000D01*
X178622654Y-93223411D01*
X178590620Y-93218659D01*
X178559206Y-93210790D01*
X178528714Y-93199880D01*
X178499439Y-93186034D01*
X178471662Y-93169385D01*
X178445650Y-93150093D01*
X178421655Y-93128345D01*
X178399907Y-93104350D01*
X178380615Y-93078338D01*
X178363966Y-93050561D01*
X178350120Y-93021286D01*
X178339210Y-92990794D01*
X178331341Y-92959380D01*
X178326589Y-92927346D01*
X178325000Y-92895000D01*
X178325000Y-91905000D01*
X178326589Y-91872654D01*
X178331341Y-91840620D01*
X178339210Y-91809206D01*
X178350120Y-91778714D01*
X178363966Y-91749439D01*
X178380615Y-91721662D01*
X178399907Y-91695650D01*
X178421655Y-91671655D01*
X178445650Y-91649907D01*
X178471662Y-91630615D01*
X178499439Y-91613966D01*
X178528714Y-91600120D01*
X178559206Y-91589210D01*
X178590620Y-91581341D01*
X178622654Y-91576589D01*
X178655000Y-91575000D01*
X180145000Y-91575000D01*
X180177346Y-91576589D01*
X180177346Y-91576589D01*
G37*
D14*
X179400000Y-92400000D03*
D13*
G36*
X180177346Y-94376589D02*
X180209380Y-94381341D01*
X180240794Y-94389210D01*
X180271286Y-94400120D01*
X180300561Y-94413966D01*
X180328338Y-94430615D01*
X180354350Y-94449907D01*
X180378345Y-94471655D01*
X180400093Y-94495650D01*
X180419385Y-94521662D01*
X180436034Y-94549439D01*
X180449880Y-94578714D01*
X180460790Y-94609206D01*
X180468659Y-94640620D01*
X180473411Y-94672654D01*
X180475000Y-94705000D01*
X180475000Y-95695000D01*
X180473411Y-95727346D01*
X180468659Y-95759380D01*
X180460790Y-95790794D01*
X180449880Y-95821286D01*
X180436034Y-95850561D01*
X180419385Y-95878338D01*
X180400093Y-95904350D01*
X180378345Y-95928345D01*
X180354350Y-95950093D01*
X180328338Y-95969385D01*
X180300561Y-95986034D01*
X180271286Y-95999880D01*
X180240794Y-96010790D01*
X180209380Y-96018659D01*
X180177346Y-96023411D01*
X180145000Y-96025000D01*
X178655000Y-96025000D01*
X178622654Y-96023411D01*
X178590620Y-96018659D01*
X178559206Y-96010790D01*
X178528714Y-95999880D01*
X178499439Y-95986034D01*
X178471662Y-95969385D01*
X178445650Y-95950093D01*
X178421655Y-95928345D01*
X178399907Y-95904350D01*
X178380615Y-95878338D01*
X178363966Y-95850561D01*
X178350120Y-95821286D01*
X178339210Y-95790794D01*
X178331341Y-95759380D01*
X178326589Y-95727346D01*
X178325000Y-95695000D01*
X178325000Y-94705000D01*
X178326589Y-94672654D01*
X178331341Y-94640620D01*
X178339210Y-94609206D01*
X178350120Y-94578714D01*
X178363966Y-94549439D01*
X178380615Y-94521662D01*
X178399907Y-94495650D01*
X178421655Y-94471655D01*
X178445650Y-94449907D01*
X178471662Y-94430615D01*
X178499439Y-94413966D01*
X178528714Y-94400120D01*
X178559206Y-94389210D01*
X178590620Y-94381341D01*
X178622654Y-94376589D01*
X178655000Y-94375000D01*
X180145000Y-94375000D01*
X180177346Y-94376589D01*
X180177346Y-94376589D01*
G37*
D14*
X179400000Y-95200000D03*
G04 #@! TD*
D13*
G04 #@! TO.C,C2*
G36*
X174827346Y-91526589D02*
X174859380Y-91531341D01*
X174890794Y-91539210D01*
X174921286Y-91550120D01*
X174950561Y-91563966D01*
X174978338Y-91580615D01*
X175004350Y-91599907D01*
X175028345Y-91621655D01*
X175050093Y-91645650D01*
X175069385Y-91671662D01*
X175086034Y-91699439D01*
X175099880Y-91728714D01*
X175110790Y-91759206D01*
X175118659Y-91790620D01*
X175123411Y-91822654D01*
X175125000Y-91855000D01*
X175125000Y-93345000D01*
X175123411Y-93377346D01*
X175118659Y-93409380D01*
X175110790Y-93440794D01*
X175099880Y-93471286D01*
X175086034Y-93500561D01*
X175069385Y-93528338D01*
X175050093Y-93554350D01*
X175028345Y-93578345D01*
X175004350Y-93600093D01*
X174978338Y-93619385D01*
X174950561Y-93636034D01*
X174921286Y-93649880D01*
X174890794Y-93660790D01*
X174859380Y-93668659D01*
X174827346Y-93673411D01*
X174795000Y-93675000D01*
X173805000Y-93675000D01*
X173772654Y-93673411D01*
X173740620Y-93668659D01*
X173709206Y-93660790D01*
X173678714Y-93649880D01*
X173649439Y-93636034D01*
X173621662Y-93619385D01*
X173595650Y-93600093D01*
X173571655Y-93578345D01*
X173549907Y-93554350D01*
X173530615Y-93528338D01*
X173513966Y-93500561D01*
X173500120Y-93471286D01*
X173489210Y-93440794D01*
X173481341Y-93409380D01*
X173476589Y-93377346D01*
X173475000Y-93345000D01*
X173475000Y-91855000D01*
X173476589Y-91822654D01*
X173481341Y-91790620D01*
X173489210Y-91759206D01*
X173500120Y-91728714D01*
X173513966Y-91699439D01*
X173530615Y-91671662D01*
X173549907Y-91645650D01*
X173571655Y-91621655D01*
X173595650Y-91599907D01*
X173621662Y-91580615D01*
X173649439Y-91563966D01*
X173678714Y-91550120D01*
X173709206Y-91539210D01*
X173740620Y-91531341D01*
X173772654Y-91526589D01*
X173805000Y-91525000D01*
X174795000Y-91525000D01*
X174827346Y-91526589D01*
X174827346Y-91526589D01*
G37*
D14*
X174300000Y-92600000D03*
D13*
G36*
X172027346Y-91526589D02*
X172059380Y-91531341D01*
X172090794Y-91539210D01*
X172121286Y-91550120D01*
X172150561Y-91563966D01*
X172178338Y-91580615D01*
X172204350Y-91599907D01*
X172228345Y-91621655D01*
X172250093Y-91645650D01*
X172269385Y-91671662D01*
X172286034Y-91699439D01*
X172299880Y-91728714D01*
X172310790Y-91759206D01*
X172318659Y-91790620D01*
X172323411Y-91822654D01*
X172325000Y-91855000D01*
X172325000Y-93345000D01*
X172323411Y-93377346D01*
X172318659Y-93409380D01*
X172310790Y-93440794D01*
X172299880Y-93471286D01*
X172286034Y-93500561D01*
X172269385Y-93528338D01*
X172250093Y-93554350D01*
X172228345Y-93578345D01*
X172204350Y-93600093D01*
X172178338Y-93619385D01*
X172150561Y-93636034D01*
X172121286Y-93649880D01*
X172090794Y-93660790D01*
X172059380Y-93668659D01*
X172027346Y-93673411D01*
X171995000Y-93675000D01*
X171005000Y-93675000D01*
X170972654Y-93673411D01*
X170940620Y-93668659D01*
X170909206Y-93660790D01*
X170878714Y-93649880D01*
X170849439Y-93636034D01*
X170821662Y-93619385D01*
X170795650Y-93600093D01*
X170771655Y-93578345D01*
X170749907Y-93554350D01*
X170730615Y-93528338D01*
X170713966Y-93500561D01*
X170700120Y-93471286D01*
X170689210Y-93440794D01*
X170681341Y-93409380D01*
X170676589Y-93377346D01*
X170675000Y-93345000D01*
X170675000Y-91855000D01*
X170676589Y-91822654D01*
X170681341Y-91790620D01*
X170689210Y-91759206D01*
X170700120Y-91728714D01*
X170713966Y-91699439D01*
X170730615Y-91671662D01*
X170749907Y-91645650D01*
X170771655Y-91621655D01*
X170795650Y-91599907D01*
X170821662Y-91580615D01*
X170849439Y-91563966D01*
X170878714Y-91550120D01*
X170909206Y-91539210D01*
X170940620Y-91531341D01*
X170972654Y-91526589D01*
X171005000Y-91525000D01*
X171995000Y-91525000D01*
X172027346Y-91526589D01*
X172027346Y-91526589D01*
G37*
D14*
X171500000Y-92600000D03*
G04 #@! TD*
D13*
G04 #@! TO.C,C3*
G36*
X177227346Y-97826589D02*
X177259380Y-97831341D01*
X177290794Y-97839210D01*
X177321286Y-97850120D01*
X177350561Y-97863966D01*
X177378338Y-97880615D01*
X177404350Y-97899907D01*
X177428345Y-97921655D01*
X177450093Y-97945650D01*
X177469385Y-97971662D01*
X177486034Y-97999439D01*
X177499880Y-98028714D01*
X177510790Y-98059206D01*
X177518659Y-98090620D01*
X177523411Y-98122654D01*
X177525000Y-98155000D01*
X177525000Y-99645000D01*
X177523411Y-99677346D01*
X177518659Y-99709380D01*
X177510790Y-99740794D01*
X177499880Y-99771286D01*
X177486034Y-99800561D01*
X177469385Y-99828338D01*
X177450093Y-99854350D01*
X177428345Y-99878345D01*
X177404350Y-99900093D01*
X177378338Y-99919385D01*
X177350561Y-99936034D01*
X177321286Y-99949880D01*
X177290794Y-99960790D01*
X177259380Y-99968659D01*
X177227346Y-99973411D01*
X177195000Y-99975000D01*
X176205000Y-99975000D01*
X176172654Y-99973411D01*
X176140620Y-99968659D01*
X176109206Y-99960790D01*
X176078714Y-99949880D01*
X176049439Y-99936034D01*
X176021662Y-99919385D01*
X175995650Y-99900093D01*
X175971655Y-99878345D01*
X175949907Y-99854350D01*
X175930615Y-99828338D01*
X175913966Y-99800561D01*
X175900120Y-99771286D01*
X175889210Y-99740794D01*
X175881341Y-99709380D01*
X175876589Y-99677346D01*
X175875000Y-99645000D01*
X175875000Y-98155000D01*
X175876589Y-98122654D01*
X175881341Y-98090620D01*
X175889210Y-98059206D01*
X175900120Y-98028714D01*
X175913966Y-97999439D01*
X175930615Y-97971662D01*
X175949907Y-97945650D01*
X175971655Y-97921655D01*
X175995650Y-97899907D01*
X176021662Y-97880615D01*
X176049439Y-97863966D01*
X176078714Y-97850120D01*
X176109206Y-97839210D01*
X176140620Y-97831341D01*
X176172654Y-97826589D01*
X176205000Y-97825000D01*
X177195000Y-97825000D01*
X177227346Y-97826589D01*
X177227346Y-97826589D01*
G37*
D14*
X176700000Y-98900000D03*
D13*
G36*
X174427346Y-97826589D02*
X174459380Y-97831341D01*
X174490794Y-97839210D01*
X174521286Y-97850120D01*
X174550561Y-97863966D01*
X174578338Y-97880615D01*
X174604350Y-97899907D01*
X174628345Y-97921655D01*
X174650093Y-97945650D01*
X174669385Y-97971662D01*
X174686034Y-97999439D01*
X174699880Y-98028714D01*
X174710790Y-98059206D01*
X174718659Y-98090620D01*
X174723411Y-98122654D01*
X174725000Y-98155000D01*
X174725000Y-99645000D01*
X174723411Y-99677346D01*
X174718659Y-99709380D01*
X174710790Y-99740794D01*
X174699880Y-99771286D01*
X174686034Y-99800561D01*
X174669385Y-99828338D01*
X174650093Y-99854350D01*
X174628345Y-99878345D01*
X174604350Y-99900093D01*
X174578338Y-99919385D01*
X174550561Y-99936034D01*
X174521286Y-99949880D01*
X174490794Y-99960790D01*
X174459380Y-99968659D01*
X174427346Y-99973411D01*
X174395000Y-99975000D01*
X173405000Y-99975000D01*
X173372654Y-99973411D01*
X173340620Y-99968659D01*
X173309206Y-99960790D01*
X173278714Y-99949880D01*
X173249439Y-99936034D01*
X173221662Y-99919385D01*
X173195650Y-99900093D01*
X173171655Y-99878345D01*
X173149907Y-99854350D01*
X173130615Y-99828338D01*
X173113966Y-99800561D01*
X173100120Y-99771286D01*
X173089210Y-99740794D01*
X173081341Y-99709380D01*
X173076589Y-99677346D01*
X173075000Y-99645000D01*
X173075000Y-98155000D01*
X173076589Y-98122654D01*
X173081341Y-98090620D01*
X173089210Y-98059206D01*
X173100120Y-98028714D01*
X173113966Y-97999439D01*
X173130615Y-97971662D01*
X173149907Y-97945650D01*
X173171655Y-97921655D01*
X173195650Y-97899907D01*
X173221662Y-97880615D01*
X173249439Y-97863966D01*
X173278714Y-97850120D01*
X173309206Y-97839210D01*
X173340620Y-97831341D01*
X173372654Y-97826589D01*
X173405000Y-97825000D01*
X174395000Y-97825000D01*
X174427346Y-97826589D01*
X174427346Y-97826589D01*
G37*
D14*
X173900000Y-98900000D03*
G04 #@! TD*
D13*
G04 #@! TO.C,R1*
G36*
X171487493Y-104851535D02*
X171518435Y-104856125D01*
X171548778Y-104863725D01*
X171578230Y-104874263D01*
X171606508Y-104887638D01*
X171633338Y-104903719D01*
X171658463Y-104922353D01*
X171681640Y-104943360D01*
X171702647Y-104966537D01*
X171721281Y-104991662D01*
X171737362Y-105018492D01*
X171750737Y-105046770D01*
X171761275Y-105076222D01*
X171768875Y-105106565D01*
X171773465Y-105137507D01*
X171775000Y-105168750D01*
X171775000Y-105806250D01*
X171773465Y-105837493D01*
X171768875Y-105868435D01*
X171761275Y-105898778D01*
X171750737Y-105928230D01*
X171737362Y-105956508D01*
X171721281Y-105983338D01*
X171702647Y-106008463D01*
X171681640Y-106031640D01*
X171658463Y-106052647D01*
X171633338Y-106071281D01*
X171606508Y-106087362D01*
X171578230Y-106100737D01*
X171548778Y-106111275D01*
X171518435Y-106118875D01*
X171487493Y-106123465D01*
X171456250Y-106125000D01*
X170743750Y-106125000D01*
X170712507Y-106123465D01*
X170681565Y-106118875D01*
X170651222Y-106111275D01*
X170621770Y-106100737D01*
X170593492Y-106087362D01*
X170566662Y-106071281D01*
X170541537Y-106052647D01*
X170518360Y-106031640D01*
X170497353Y-106008463D01*
X170478719Y-105983338D01*
X170462638Y-105956508D01*
X170449263Y-105928230D01*
X170438725Y-105898778D01*
X170431125Y-105868435D01*
X170426535Y-105837493D01*
X170425000Y-105806250D01*
X170425000Y-105168750D01*
X170426535Y-105137507D01*
X170431125Y-105106565D01*
X170438725Y-105076222D01*
X170449263Y-105046770D01*
X170462638Y-105018492D01*
X170478719Y-104991662D01*
X170497353Y-104966537D01*
X170518360Y-104943360D01*
X170541537Y-104922353D01*
X170566662Y-104903719D01*
X170593492Y-104887638D01*
X170621770Y-104874263D01*
X170651222Y-104863725D01*
X170681565Y-104856125D01*
X170712507Y-104851535D01*
X170743750Y-104850000D01*
X171456250Y-104850000D01*
X171487493Y-104851535D01*
X171487493Y-104851535D01*
G37*
D15*
X171100000Y-105487500D03*
D13*
G36*
X171487493Y-103276535D02*
X171518435Y-103281125D01*
X171548778Y-103288725D01*
X171578230Y-103299263D01*
X171606508Y-103312638D01*
X171633338Y-103328719D01*
X171658463Y-103347353D01*
X171681640Y-103368360D01*
X171702647Y-103391537D01*
X171721281Y-103416662D01*
X171737362Y-103443492D01*
X171750737Y-103471770D01*
X171761275Y-103501222D01*
X171768875Y-103531565D01*
X171773465Y-103562507D01*
X171775000Y-103593750D01*
X171775000Y-104231250D01*
X171773465Y-104262493D01*
X171768875Y-104293435D01*
X171761275Y-104323778D01*
X171750737Y-104353230D01*
X171737362Y-104381508D01*
X171721281Y-104408338D01*
X171702647Y-104433463D01*
X171681640Y-104456640D01*
X171658463Y-104477647D01*
X171633338Y-104496281D01*
X171606508Y-104512362D01*
X171578230Y-104525737D01*
X171548778Y-104536275D01*
X171518435Y-104543875D01*
X171487493Y-104548465D01*
X171456250Y-104550000D01*
X170743750Y-104550000D01*
X170712507Y-104548465D01*
X170681565Y-104543875D01*
X170651222Y-104536275D01*
X170621770Y-104525737D01*
X170593492Y-104512362D01*
X170566662Y-104496281D01*
X170541537Y-104477647D01*
X170518360Y-104456640D01*
X170497353Y-104433463D01*
X170478719Y-104408338D01*
X170462638Y-104381508D01*
X170449263Y-104353230D01*
X170438725Y-104323778D01*
X170431125Y-104293435D01*
X170426535Y-104262493D01*
X170425000Y-104231250D01*
X170425000Y-103593750D01*
X170426535Y-103562507D01*
X170431125Y-103531565D01*
X170438725Y-103501222D01*
X170449263Y-103471770D01*
X170462638Y-103443492D01*
X170478719Y-103416662D01*
X170497353Y-103391537D01*
X170518360Y-103368360D01*
X170541537Y-103347353D01*
X170566662Y-103328719D01*
X170593492Y-103312638D01*
X170621770Y-103299263D01*
X170651222Y-103288725D01*
X170681565Y-103281125D01*
X170712507Y-103276535D01*
X170743750Y-103275000D01*
X171456250Y-103275000D01*
X171487493Y-103276535D01*
X171487493Y-103276535D01*
G37*
D15*
X171100000Y-103912500D03*
G04 #@! TD*
D13*
G04 #@! TO.C,R2*
G36*
X171487493Y-94876535D02*
X171518435Y-94881125D01*
X171548778Y-94888725D01*
X171578230Y-94899263D01*
X171606508Y-94912638D01*
X171633338Y-94928719D01*
X171658463Y-94947353D01*
X171681640Y-94968360D01*
X171702647Y-94991537D01*
X171721281Y-95016662D01*
X171737362Y-95043492D01*
X171750737Y-95071770D01*
X171761275Y-95101222D01*
X171768875Y-95131565D01*
X171773465Y-95162507D01*
X171775000Y-95193750D01*
X171775000Y-95831250D01*
X171773465Y-95862493D01*
X171768875Y-95893435D01*
X171761275Y-95923778D01*
X171750737Y-95953230D01*
X171737362Y-95981508D01*
X171721281Y-96008338D01*
X171702647Y-96033463D01*
X171681640Y-96056640D01*
X171658463Y-96077647D01*
X171633338Y-96096281D01*
X171606508Y-96112362D01*
X171578230Y-96125737D01*
X171548778Y-96136275D01*
X171518435Y-96143875D01*
X171487493Y-96148465D01*
X171456250Y-96150000D01*
X170743750Y-96150000D01*
X170712507Y-96148465D01*
X170681565Y-96143875D01*
X170651222Y-96136275D01*
X170621770Y-96125737D01*
X170593492Y-96112362D01*
X170566662Y-96096281D01*
X170541537Y-96077647D01*
X170518360Y-96056640D01*
X170497353Y-96033463D01*
X170478719Y-96008338D01*
X170462638Y-95981508D01*
X170449263Y-95953230D01*
X170438725Y-95923778D01*
X170431125Y-95893435D01*
X170426535Y-95862493D01*
X170425000Y-95831250D01*
X170425000Y-95193750D01*
X170426535Y-95162507D01*
X170431125Y-95131565D01*
X170438725Y-95101222D01*
X170449263Y-95071770D01*
X170462638Y-95043492D01*
X170478719Y-95016662D01*
X170497353Y-94991537D01*
X170518360Y-94968360D01*
X170541537Y-94947353D01*
X170566662Y-94928719D01*
X170593492Y-94912638D01*
X170621770Y-94899263D01*
X170651222Y-94888725D01*
X170681565Y-94881125D01*
X170712507Y-94876535D01*
X170743750Y-94875000D01*
X171456250Y-94875000D01*
X171487493Y-94876535D01*
X171487493Y-94876535D01*
G37*
D15*
X171100000Y-95512500D03*
D13*
G36*
X171487493Y-96451535D02*
X171518435Y-96456125D01*
X171548778Y-96463725D01*
X171578230Y-96474263D01*
X171606508Y-96487638D01*
X171633338Y-96503719D01*
X171658463Y-96522353D01*
X171681640Y-96543360D01*
X171702647Y-96566537D01*
X171721281Y-96591662D01*
X171737362Y-96618492D01*
X171750737Y-96646770D01*
X171761275Y-96676222D01*
X171768875Y-96706565D01*
X171773465Y-96737507D01*
X171775000Y-96768750D01*
X171775000Y-97406250D01*
X171773465Y-97437493D01*
X171768875Y-97468435D01*
X171761275Y-97498778D01*
X171750737Y-97528230D01*
X171737362Y-97556508D01*
X171721281Y-97583338D01*
X171702647Y-97608463D01*
X171681640Y-97631640D01*
X171658463Y-97652647D01*
X171633338Y-97671281D01*
X171606508Y-97687362D01*
X171578230Y-97700737D01*
X171548778Y-97711275D01*
X171518435Y-97718875D01*
X171487493Y-97723465D01*
X171456250Y-97725000D01*
X170743750Y-97725000D01*
X170712507Y-97723465D01*
X170681565Y-97718875D01*
X170651222Y-97711275D01*
X170621770Y-97700737D01*
X170593492Y-97687362D01*
X170566662Y-97671281D01*
X170541537Y-97652647D01*
X170518360Y-97631640D01*
X170497353Y-97608463D01*
X170478719Y-97583338D01*
X170462638Y-97556508D01*
X170449263Y-97528230D01*
X170438725Y-97498778D01*
X170431125Y-97468435D01*
X170426535Y-97437493D01*
X170425000Y-97406250D01*
X170425000Y-96768750D01*
X170426535Y-96737507D01*
X170431125Y-96706565D01*
X170438725Y-96676222D01*
X170449263Y-96646770D01*
X170462638Y-96618492D01*
X170478719Y-96591662D01*
X170497353Y-96566537D01*
X170518360Y-96543360D01*
X170541537Y-96522353D01*
X170566662Y-96503719D01*
X170593492Y-96487638D01*
X170621770Y-96474263D01*
X170651222Y-96463725D01*
X170681565Y-96456125D01*
X170712507Y-96451535D01*
X170743750Y-96450000D01*
X171456250Y-96450000D01*
X171487493Y-96451535D01*
X171487493Y-96451535D01*
G37*
D15*
X171100000Y-97087500D03*
G04 #@! TD*
D16*
G04 #@! TO.C,U1*
X163050000Y-85350000D03*
X163050000Y-86650000D03*
X163050000Y-86000000D03*
X164950000Y-86650000D03*
X164950000Y-85350000D03*
G04 #@! TD*
D17*
G04 #@! TO.C,J1*
X179000000Y-86000000D03*
D18*
X179000000Y-88540000D03*
X176460000Y-86000000D03*
X176460000Y-88540000D03*
X173920000Y-86000000D03*
X173920000Y-88540000D03*
X171380000Y-86000000D03*
X171380000Y-88540000D03*
G04 #@! TD*
D19*
G04 #@! TO.C,U3*
X173900000Y-94850000D03*
X173900000Y-95350000D03*
X173900000Y-95850000D03*
X173900000Y-96350000D03*
X176700000Y-96350000D03*
X176700000Y-95850000D03*
X176700000Y-95350000D03*
X176700000Y-94850000D03*
D20*
X175300000Y-95600000D03*
G04 #@! TD*
M02*
