G04 #@! TF.GenerationSoftware,KiCad,Pcbnew,5.1.5*
G04 #@! TF.CreationDate,2020-02-06T16:59:33+01:00*
G04 #@! TF.ProjectId,reference_board,72656665-7265-46e6-9365-5f626f617264,v3.2.1*
G04 #@! TF.SameCoordinates,Original*
G04 #@! TF.FileFunction,Copper,L1,Top*
G04 #@! TF.FilePolarity,Positive*
%FSLAX46Y46*%
G04 Gerber Fmt 4.6, Leading zero omitted, Abs format (unit mm)*
G04 Created by KiCad (PCBNEW 5.1.5) date 2020-02-06 16:59:33*
%MOMM*%
%LPD*%
G04 APERTURE LIST*
%ADD10C,0.100000*%
%ADD11R,1.200000X0.900000*%
%ADD12O,1.600000X1.200000*%
%ADD13C,1.200000*%
%ADD14C,0.250000*%
%ADD15C,4.700000*%
%ADD16C,1.500000*%
%ADD17R,1.500000X1.500000*%
%ADD18R,0.650000X0.400000*%
%ADD19O,1.700000X1.700000*%
%ADD20R,1.700000X1.700000*%
%ADD21R,1.550000X0.600000*%
%ADD22C,0.800000*%
%ADD23C,0.250000*%
%ADD24C,0.300000*%
%ADD25C,0.200000*%
%ADD26C,0.150000*%
G04 APERTURE END LIST*
D10*
G36*
X158175000Y-96700000D02*
G01*
X158425000Y-96700000D01*
X158425000Y-97200000D01*
X158175000Y-97200000D01*
X158175000Y-96700000D01*
G37*
G36*
X176334835Y-95841942D02*
G01*
X176158058Y-95665165D01*
X176511612Y-95311612D01*
X176688388Y-95488388D01*
X176334835Y-95841942D01*
G37*
G36*
X179375000Y-96400000D02*
G01*
X179625000Y-96400000D01*
X179625000Y-96900000D01*
X179375000Y-96900000D01*
X179375000Y-96400000D01*
G37*
D11*
X171400000Y-102150000D03*
X171400000Y-98850000D03*
G04 #@! TA.AperFunction,SMDPad,CuDef*
D10*
G36*
X169677691Y-100776053D02*
G01*
X169698926Y-100779203D01*
X169719750Y-100784419D01*
X169739962Y-100791651D01*
X169759368Y-100800830D01*
X169777781Y-100811866D01*
X169795024Y-100824654D01*
X169810930Y-100839070D01*
X169825346Y-100854976D01*
X169838134Y-100872219D01*
X169849170Y-100890632D01*
X169858349Y-100910038D01*
X169865581Y-100930250D01*
X169870797Y-100951074D01*
X169873947Y-100972309D01*
X169875000Y-100993750D01*
X169875000Y-101431250D01*
X169873947Y-101452691D01*
X169870797Y-101473926D01*
X169865581Y-101494750D01*
X169858349Y-101514962D01*
X169849170Y-101534368D01*
X169838134Y-101552781D01*
X169825346Y-101570024D01*
X169810930Y-101585930D01*
X169795024Y-101600346D01*
X169777781Y-101613134D01*
X169759368Y-101624170D01*
X169739962Y-101633349D01*
X169719750Y-101640581D01*
X169698926Y-101645797D01*
X169677691Y-101648947D01*
X169656250Y-101650000D01*
X169143750Y-101650000D01*
X169122309Y-101648947D01*
X169101074Y-101645797D01*
X169080250Y-101640581D01*
X169060038Y-101633349D01*
X169040632Y-101624170D01*
X169022219Y-101613134D01*
X169004976Y-101600346D01*
X168989070Y-101585930D01*
X168974654Y-101570024D01*
X168961866Y-101552781D01*
X168950830Y-101534368D01*
X168941651Y-101514962D01*
X168934419Y-101494750D01*
X168929203Y-101473926D01*
X168926053Y-101452691D01*
X168925000Y-101431250D01*
X168925000Y-100993750D01*
X168926053Y-100972309D01*
X168929203Y-100951074D01*
X168934419Y-100930250D01*
X168941651Y-100910038D01*
X168950830Y-100890632D01*
X168961866Y-100872219D01*
X168974654Y-100854976D01*
X168989070Y-100839070D01*
X169004976Y-100824654D01*
X169022219Y-100811866D01*
X169040632Y-100800830D01*
X169060038Y-100791651D01*
X169080250Y-100784419D01*
X169101074Y-100779203D01*
X169122309Y-100776053D01*
X169143750Y-100775000D01*
X169656250Y-100775000D01*
X169677691Y-100776053D01*
G37*
G04 #@! TD.AperFunction*
G04 #@! TA.AperFunction,SMDPad,CuDef*
G36*
X169677691Y-102351053D02*
G01*
X169698926Y-102354203D01*
X169719750Y-102359419D01*
X169739962Y-102366651D01*
X169759368Y-102375830D01*
X169777781Y-102386866D01*
X169795024Y-102399654D01*
X169810930Y-102414070D01*
X169825346Y-102429976D01*
X169838134Y-102447219D01*
X169849170Y-102465632D01*
X169858349Y-102485038D01*
X169865581Y-102505250D01*
X169870797Y-102526074D01*
X169873947Y-102547309D01*
X169875000Y-102568750D01*
X169875000Y-103006250D01*
X169873947Y-103027691D01*
X169870797Y-103048926D01*
X169865581Y-103069750D01*
X169858349Y-103089962D01*
X169849170Y-103109368D01*
X169838134Y-103127781D01*
X169825346Y-103145024D01*
X169810930Y-103160930D01*
X169795024Y-103175346D01*
X169777781Y-103188134D01*
X169759368Y-103199170D01*
X169739962Y-103208349D01*
X169719750Y-103215581D01*
X169698926Y-103220797D01*
X169677691Y-103223947D01*
X169656250Y-103225000D01*
X169143750Y-103225000D01*
X169122309Y-103223947D01*
X169101074Y-103220797D01*
X169080250Y-103215581D01*
X169060038Y-103208349D01*
X169040632Y-103199170D01*
X169022219Y-103188134D01*
X169004976Y-103175346D01*
X168989070Y-103160930D01*
X168974654Y-103145024D01*
X168961866Y-103127781D01*
X168950830Y-103109368D01*
X168941651Y-103089962D01*
X168934419Y-103069750D01*
X168929203Y-103048926D01*
X168926053Y-103027691D01*
X168925000Y-103006250D01*
X168925000Y-102568750D01*
X168926053Y-102547309D01*
X168929203Y-102526074D01*
X168934419Y-102505250D01*
X168941651Y-102485038D01*
X168950830Y-102465632D01*
X168961866Y-102447219D01*
X168974654Y-102429976D01*
X168989070Y-102414070D01*
X169004976Y-102399654D01*
X169022219Y-102386866D01*
X169040632Y-102375830D01*
X169060038Y-102366651D01*
X169080250Y-102359419D01*
X169101074Y-102354203D01*
X169122309Y-102351053D01*
X169143750Y-102350000D01*
X169656250Y-102350000D01*
X169677691Y-102351053D01*
G37*
G04 #@! TD.AperFunction*
D12*
X156700000Y-95000000D03*
D13*
X157970000Y-96270000D03*
X157970000Y-93730000D03*
X159240000Y-95000000D03*
G04 #@! TA.AperFunction,SMDPad,CuDef*
D10*
G36*
X169077691Y-85051053D02*
G01*
X169098926Y-85054203D01*
X169119750Y-85059419D01*
X169139962Y-85066651D01*
X169159368Y-85075830D01*
X169177781Y-85086866D01*
X169195024Y-85099654D01*
X169210930Y-85114070D01*
X169225346Y-85129976D01*
X169238134Y-85147219D01*
X169249170Y-85165632D01*
X169258349Y-85185038D01*
X169265581Y-85205250D01*
X169270797Y-85226074D01*
X169273947Y-85247309D01*
X169275000Y-85268750D01*
X169275000Y-85706250D01*
X169273947Y-85727691D01*
X169270797Y-85748926D01*
X169265581Y-85769750D01*
X169258349Y-85789962D01*
X169249170Y-85809368D01*
X169238134Y-85827781D01*
X169225346Y-85845024D01*
X169210930Y-85860930D01*
X169195024Y-85875346D01*
X169177781Y-85888134D01*
X169159368Y-85899170D01*
X169139962Y-85908349D01*
X169119750Y-85915581D01*
X169098926Y-85920797D01*
X169077691Y-85923947D01*
X169056250Y-85925000D01*
X168543750Y-85925000D01*
X168522309Y-85923947D01*
X168501074Y-85920797D01*
X168480250Y-85915581D01*
X168460038Y-85908349D01*
X168440632Y-85899170D01*
X168422219Y-85888134D01*
X168404976Y-85875346D01*
X168389070Y-85860930D01*
X168374654Y-85845024D01*
X168361866Y-85827781D01*
X168350830Y-85809368D01*
X168341651Y-85789962D01*
X168334419Y-85769750D01*
X168329203Y-85748926D01*
X168326053Y-85727691D01*
X168325000Y-85706250D01*
X168325000Y-85268750D01*
X168326053Y-85247309D01*
X168329203Y-85226074D01*
X168334419Y-85205250D01*
X168341651Y-85185038D01*
X168350830Y-85165632D01*
X168361866Y-85147219D01*
X168374654Y-85129976D01*
X168389070Y-85114070D01*
X168404976Y-85099654D01*
X168422219Y-85086866D01*
X168440632Y-85075830D01*
X168460038Y-85066651D01*
X168480250Y-85059419D01*
X168501074Y-85054203D01*
X168522309Y-85051053D01*
X168543750Y-85050000D01*
X169056250Y-85050000D01*
X169077691Y-85051053D01*
G37*
G04 #@! TD.AperFunction*
G04 #@! TA.AperFunction,SMDPad,CuDef*
G36*
X169077691Y-83476053D02*
G01*
X169098926Y-83479203D01*
X169119750Y-83484419D01*
X169139962Y-83491651D01*
X169159368Y-83500830D01*
X169177781Y-83511866D01*
X169195024Y-83524654D01*
X169210930Y-83539070D01*
X169225346Y-83554976D01*
X169238134Y-83572219D01*
X169249170Y-83590632D01*
X169258349Y-83610038D01*
X169265581Y-83630250D01*
X169270797Y-83651074D01*
X169273947Y-83672309D01*
X169275000Y-83693750D01*
X169275000Y-84131250D01*
X169273947Y-84152691D01*
X169270797Y-84173926D01*
X169265581Y-84194750D01*
X169258349Y-84214962D01*
X169249170Y-84234368D01*
X169238134Y-84252781D01*
X169225346Y-84270024D01*
X169210930Y-84285930D01*
X169195024Y-84300346D01*
X169177781Y-84313134D01*
X169159368Y-84324170D01*
X169139962Y-84333349D01*
X169119750Y-84340581D01*
X169098926Y-84345797D01*
X169077691Y-84348947D01*
X169056250Y-84350000D01*
X168543750Y-84350000D01*
X168522309Y-84348947D01*
X168501074Y-84345797D01*
X168480250Y-84340581D01*
X168460038Y-84333349D01*
X168440632Y-84324170D01*
X168422219Y-84313134D01*
X168404976Y-84300346D01*
X168389070Y-84285930D01*
X168374654Y-84270024D01*
X168361866Y-84252781D01*
X168350830Y-84234368D01*
X168341651Y-84214962D01*
X168334419Y-84194750D01*
X168329203Y-84173926D01*
X168326053Y-84152691D01*
X168325000Y-84131250D01*
X168325000Y-83693750D01*
X168326053Y-83672309D01*
X168329203Y-83651074D01*
X168334419Y-83630250D01*
X168341651Y-83610038D01*
X168350830Y-83590632D01*
X168361866Y-83572219D01*
X168374654Y-83554976D01*
X168389070Y-83539070D01*
X168404976Y-83524654D01*
X168422219Y-83511866D01*
X168440632Y-83500830D01*
X168460038Y-83491651D01*
X168480250Y-83484419D01*
X168501074Y-83479203D01*
X168522309Y-83476053D01*
X168543750Y-83475000D01*
X169056250Y-83475000D01*
X169077691Y-83476053D01*
G37*
G04 #@! TD.AperFunction*
D14*
X158300000Y-97200000D03*
X158300000Y-96700000D03*
X176600000Y-95400000D03*
X176246447Y-95753553D03*
X179500000Y-96900000D03*
X179500000Y-96400000D03*
G04 #@! TA.AperFunction,SMDPad,CuDef*
D10*
G36*
X171580142Y-103276174D02*
G01*
X171603803Y-103279684D01*
X171627007Y-103285496D01*
X171649529Y-103293554D01*
X171671153Y-103303782D01*
X171691670Y-103316079D01*
X171710883Y-103330329D01*
X171728607Y-103346393D01*
X171744671Y-103364117D01*
X171758921Y-103383330D01*
X171771218Y-103403847D01*
X171781446Y-103425471D01*
X171789504Y-103447993D01*
X171795316Y-103471197D01*
X171798826Y-103494858D01*
X171800000Y-103518750D01*
X171800000Y-104006250D01*
X171798826Y-104030142D01*
X171795316Y-104053803D01*
X171789504Y-104077007D01*
X171781446Y-104099529D01*
X171771218Y-104121153D01*
X171758921Y-104141670D01*
X171744671Y-104160883D01*
X171728607Y-104178607D01*
X171710883Y-104194671D01*
X171691670Y-104208921D01*
X171671153Y-104221218D01*
X171649529Y-104231446D01*
X171627007Y-104239504D01*
X171603803Y-104245316D01*
X171580142Y-104248826D01*
X171556250Y-104250000D01*
X170643750Y-104250000D01*
X170619858Y-104248826D01*
X170596197Y-104245316D01*
X170572993Y-104239504D01*
X170550471Y-104231446D01*
X170528847Y-104221218D01*
X170508330Y-104208921D01*
X170489117Y-104194671D01*
X170471393Y-104178607D01*
X170455329Y-104160883D01*
X170441079Y-104141670D01*
X170428782Y-104121153D01*
X170418554Y-104099529D01*
X170410496Y-104077007D01*
X170404684Y-104053803D01*
X170401174Y-104030142D01*
X170400000Y-104006250D01*
X170400000Y-103518750D01*
X170401174Y-103494858D01*
X170404684Y-103471197D01*
X170410496Y-103447993D01*
X170418554Y-103425471D01*
X170428782Y-103403847D01*
X170441079Y-103383330D01*
X170455329Y-103364117D01*
X170471393Y-103346393D01*
X170489117Y-103330329D01*
X170508330Y-103316079D01*
X170528847Y-103303782D01*
X170550471Y-103293554D01*
X170572993Y-103285496D01*
X170596197Y-103279684D01*
X170619858Y-103276174D01*
X170643750Y-103275000D01*
X171556250Y-103275000D01*
X171580142Y-103276174D01*
G37*
G04 #@! TD.AperFunction*
G04 #@! TA.AperFunction,SMDPad,CuDef*
G36*
X171580142Y-105151174D02*
G01*
X171603803Y-105154684D01*
X171627007Y-105160496D01*
X171649529Y-105168554D01*
X171671153Y-105178782D01*
X171691670Y-105191079D01*
X171710883Y-105205329D01*
X171728607Y-105221393D01*
X171744671Y-105239117D01*
X171758921Y-105258330D01*
X171771218Y-105278847D01*
X171781446Y-105300471D01*
X171789504Y-105322993D01*
X171795316Y-105346197D01*
X171798826Y-105369858D01*
X171800000Y-105393750D01*
X171800000Y-105881250D01*
X171798826Y-105905142D01*
X171795316Y-105928803D01*
X171789504Y-105952007D01*
X171781446Y-105974529D01*
X171771218Y-105996153D01*
X171758921Y-106016670D01*
X171744671Y-106035883D01*
X171728607Y-106053607D01*
X171710883Y-106069671D01*
X171691670Y-106083921D01*
X171671153Y-106096218D01*
X171649529Y-106106446D01*
X171627007Y-106114504D01*
X171603803Y-106120316D01*
X171580142Y-106123826D01*
X171556250Y-106125000D01*
X170643750Y-106125000D01*
X170619858Y-106123826D01*
X170596197Y-106120316D01*
X170572993Y-106114504D01*
X170550471Y-106106446D01*
X170528847Y-106096218D01*
X170508330Y-106083921D01*
X170489117Y-106069671D01*
X170471393Y-106053607D01*
X170455329Y-106035883D01*
X170441079Y-106016670D01*
X170428782Y-105996153D01*
X170418554Y-105974529D01*
X170410496Y-105952007D01*
X170404684Y-105928803D01*
X170401174Y-105905142D01*
X170400000Y-105881250D01*
X170400000Y-105393750D01*
X170401174Y-105369858D01*
X170404684Y-105346197D01*
X170410496Y-105322993D01*
X170418554Y-105300471D01*
X170428782Y-105278847D01*
X170441079Y-105258330D01*
X170455329Y-105239117D01*
X170471393Y-105221393D01*
X170489117Y-105205329D01*
X170508330Y-105191079D01*
X170528847Y-105178782D01*
X170550471Y-105168554D01*
X170572993Y-105160496D01*
X170596197Y-105154684D01*
X170619858Y-105151174D01*
X170643750Y-105150000D01*
X171556250Y-105150000D01*
X171580142Y-105151174D01*
G37*
G04 #@! TD.AperFunction*
D15*
X153000000Y-105000000D03*
D16*
X179440000Y-102700000D03*
X176900000Y-102700000D03*
D17*
X174360000Y-102700000D03*
G04 #@! TA.AperFunction,SMDPad,CuDef*
D10*
G36*
X181249504Y-91376204D02*
G01*
X181273773Y-91379804D01*
X181297571Y-91385765D01*
X181320671Y-91394030D01*
X181342849Y-91404520D01*
X181363893Y-91417133D01*
X181383598Y-91431747D01*
X181401777Y-91448223D01*
X181418253Y-91466402D01*
X181432867Y-91486107D01*
X181445480Y-91507151D01*
X181455970Y-91529329D01*
X181464235Y-91552429D01*
X181470196Y-91576227D01*
X181473796Y-91600496D01*
X181475000Y-91625000D01*
X181475000Y-92375000D01*
X181473796Y-92399504D01*
X181470196Y-92423773D01*
X181464235Y-92447571D01*
X181455970Y-92470671D01*
X181445480Y-92492849D01*
X181432867Y-92513893D01*
X181418253Y-92533598D01*
X181401777Y-92551777D01*
X181383598Y-92568253D01*
X181363893Y-92582867D01*
X181342849Y-92595480D01*
X181320671Y-92605970D01*
X181297571Y-92614235D01*
X181273773Y-92620196D01*
X181249504Y-92623796D01*
X181225000Y-92625000D01*
X179975000Y-92625000D01*
X179950496Y-92623796D01*
X179926227Y-92620196D01*
X179902429Y-92614235D01*
X179879329Y-92605970D01*
X179857151Y-92595480D01*
X179836107Y-92582867D01*
X179816402Y-92568253D01*
X179798223Y-92551777D01*
X179781747Y-92533598D01*
X179767133Y-92513893D01*
X179754520Y-92492849D01*
X179744030Y-92470671D01*
X179735765Y-92447571D01*
X179729804Y-92423773D01*
X179726204Y-92399504D01*
X179725000Y-92375000D01*
X179725000Y-91625000D01*
X179726204Y-91600496D01*
X179729804Y-91576227D01*
X179735765Y-91552429D01*
X179744030Y-91529329D01*
X179754520Y-91507151D01*
X179767133Y-91486107D01*
X179781747Y-91466402D01*
X179798223Y-91448223D01*
X179816402Y-91431747D01*
X179836107Y-91417133D01*
X179857151Y-91404520D01*
X179879329Y-91394030D01*
X179902429Y-91385765D01*
X179926227Y-91379804D01*
X179950496Y-91376204D01*
X179975000Y-91375000D01*
X181225000Y-91375000D01*
X181249504Y-91376204D01*
G37*
G04 #@! TD.AperFunction*
G04 #@! TA.AperFunction,SMDPad,CuDef*
G36*
X181249504Y-94176204D02*
G01*
X181273773Y-94179804D01*
X181297571Y-94185765D01*
X181320671Y-94194030D01*
X181342849Y-94204520D01*
X181363893Y-94217133D01*
X181383598Y-94231747D01*
X181401777Y-94248223D01*
X181418253Y-94266402D01*
X181432867Y-94286107D01*
X181445480Y-94307151D01*
X181455970Y-94329329D01*
X181464235Y-94352429D01*
X181470196Y-94376227D01*
X181473796Y-94400496D01*
X181475000Y-94425000D01*
X181475000Y-95175000D01*
X181473796Y-95199504D01*
X181470196Y-95223773D01*
X181464235Y-95247571D01*
X181455970Y-95270671D01*
X181445480Y-95292849D01*
X181432867Y-95313893D01*
X181418253Y-95333598D01*
X181401777Y-95351777D01*
X181383598Y-95368253D01*
X181363893Y-95382867D01*
X181342849Y-95395480D01*
X181320671Y-95405970D01*
X181297571Y-95414235D01*
X181273773Y-95420196D01*
X181249504Y-95423796D01*
X181225000Y-95425000D01*
X179975000Y-95425000D01*
X179950496Y-95423796D01*
X179926227Y-95420196D01*
X179902429Y-95414235D01*
X179879329Y-95405970D01*
X179857151Y-95395480D01*
X179836107Y-95382867D01*
X179816402Y-95368253D01*
X179798223Y-95351777D01*
X179781747Y-95333598D01*
X179767133Y-95313893D01*
X179754520Y-95292849D01*
X179744030Y-95270671D01*
X179735765Y-95247571D01*
X179729804Y-95223773D01*
X179726204Y-95199504D01*
X179725000Y-95175000D01*
X179725000Y-94425000D01*
X179726204Y-94400496D01*
X179729804Y-94376227D01*
X179735765Y-94352429D01*
X179744030Y-94329329D01*
X179754520Y-94307151D01*
X179767133Y-94286107D01*
X179781747Y-94266402D01*
X179798223Y-94248223D01*
X179816402Y-94231747D01*
X179836107Y-94217133D01*
X179857151Y-94204520D01*
X179879329Y-94194030D01*
X179902429Y-94185765D01*
X179926227Y-94179804D01*
X179950496Y-94176204D01*
X179975000Y-94175000D01*
X181225000Y-94175000D01*
X181249504Y-94176204D01*
G37*
G04 #@! TD.AperFunction*
G04 #@! TA.AperFunction,SMDPad,CuDef*
G36*
X170349504Y-92576204D02*
G01*
X170373773Y-92579804D01*
X170397571Y-92585765D01*
X170420671Y-92594030D01*
X170442849Y-92604520D01*
X170463893Y-92617133D01*
X170483598Y-92631747D01*
X170501777Y-92648223D01*
X170518253Y-92666402D01*
X170532867Y-92686107D01*
X170545480Y-92707151D01*
X170555970Y-92729329D01*
X170564235Y-92752429D01*
X170570196Y-92776227D01*
X170573796Y-92800496D01*
X170575000Y-92825000D01*
X170575000Y-93575000D01*
X170573796Y-93599504D01*
X170570196Y-93623773D01*
X170564235Y-93647571D01*
X170555970Y-93670671D01*
X170545480Y-93692849D01*
X170532867Y-93713893D01*
X170518253Y-93733598D01*
X170501777Y-93751777D01*
X170483598Y-93768253D01*
X170463893Y-93782867D01*
X170442849Y-93795480D01*
X170420671Y-93805970D01*
X170397571Y-93814235D01*
X170373773Y-93820196D01*
X170349504Y-93823796D01*
X170325000Y-93825000D01*
X169075000Y-93825000D01*
X169050496Y-93823796D01*
X169026227Y-93820196D01*
X169002429Y-93814235D01*
X168979329Y-93805970D01*
X168957151Y-93795480D01*
X168936107Y-93782867D01*
X168916402Y-93768253D01*
X168898223Y-93751777D01*
X168881747Y-93733598D01*
X168867133Y-93713893D01*
X168854520Y-93692849D01*
X168844030Y-93670671D01*
X168835765Y-93647571D01*
X168829804Y-93623773D01*
X168826204Y-93599504D01*
X168825000Y-93575000D01*
X168825000Y-92825000D01*
X168826204Y-92800496D01*
X168829804Y-92776227D01*
X168835765Y-92752429D01*
X168844030Y-92729329D01*
X168854520Y-92707151D01*
X168867133Y-92686107D01*
X168881747Y-92666402D01*
X168898223Y-92648223D01*
X168916402Y-92631747D01*
X168936107Y-92617133D01*
X168957151Y-92604520D01*
X168979329Y-92594030D01*
X169002429Y-92585765D01*
X169026227Y-92579804D01*
X169050496Y-92576204D01*
X169075000Y-92575000D01*
X170325000Y-92575000D01*
X170349504Y-92576204D01*
G37*
G04 #@! TD.AperFunction*
G04 #@! TA.AperFunction,SMDPad,CuDef*
G36*
X170349504Y-95376204D02*
G01*
X170373773Y-95379804D01*
X170397571Y-95385765D01*
X170420671Y-95394030D01*
X170442849Y-95404520D01*
X170463893Y-95417133D01*
X170483598Y-95431747D01*
X170501777Y-95448223D01*
X170518253Y-95466402D01*
X170532867Y-95486107D01*
X170545480Y-95507151D01*
X170555970Y-95529329D01*
X170564235Y-95552429D01*
X170570196Y-95576227D01*
X170573796Y-95600496D01*
X170575000Y-95625000D01*
X170575000Y-96375000D01*
X170573796Y-96399504D01*
X170570196Y-96423773D01*
X170564235Y-96447571D01*
X170555970Y-96470671D01*
X170545480Y-96492849D01*
X170532867Y-96513893D01*
X170518253Y-96533598D01*
X170501777Y-96551777D01*
X170483598Y-96568253D01*
X170463893Y-96582867D01*
X170442849Y-96595480D01*
X170420671Y-96605970D01*
X170397571Y-96614235D01*
X170373773Y-96620196D01*
X170349504Y-96623796D01*
X170325000Y-96625000D01*
X169075000Y-96625000D01*
X169050496Y-96623796D01*
X169026227Y-96620196D01*
X169002429Y-96614235D01*
X168979329Y-96605970D01*
X168957151Y-96595480D01*
X168936107Y-96582867D01*
X168916402Y-96568253D01*
X168898223Y-96551777D01*
X168881747Y-96533598D01*
X168867133Y-96513893D01*
X168854520Y-96492849D01*
X168844030Y-96470671D01*
X168835765Y-96447571D01*
X168829804Y-96423773D01*
X168826204Y-96399504D01*
X168825000Y-96375000D01*
X168825000Y-95625000D01*
X168826204Y-95600496D01*
X168829804Y-95576227D01*
X168835765Y-95552429D01*
X168844030Y-95529329D01*
X168854520Y-95507151D01*
X168867133Y-95486107D01*
X168881747Y-95466402D01*
X168898223Y-95448223D01*
X168916402Y-95431747D01*
X168936107Y-95417133D01*
X168957151Y-95404520D01*
X168979329Y-95394030D01*
X169002429Y-95385765D01*
X169026227Y-95379804D01*
X169050496Y-95376204D01*
X169075000Y-95375000D01*
X170325000Y-95375000D01*
X170349504Y-95376204D01*
G37*
G04 #@! TD.AperFunction*
G04 #@! TA.AperFunction,SMDPad,CuDef*
G36*
X174999504Y-98726204D02*
G01*
X175023773Y-98729804D01*
X175047571Y-98735765D01*
X175070671Y-98744030D01*
X175092849Y-98754520D01*
X175113893Y-98767133D01*
X175133598Y-98781747D01*
X175151777Y-98798223D01*
X175168253Y-98816402D01*
X175182867Y-98836107D01*
X175195480Y-98857151D01*
X175205970Y-98879329D01*
X175214235Y-98902429D01*
X175220196Y-98926227D01*
X175223796Y-98950496D01*
X175225000Y-98975000D01*
X175225000Y-100225000D01*
X175223796Y-100249504D01*
X175220196Y-100273773D01*
X175214235Y-100297571D01*
X175205970Y-100320671D01*
X175195480Y-100342849D01*
X175182867Y-100363893D01*
X175168253Y-100383598D01*
X175151777Y-100401777D01*
X175133598Y-100418253D01*
X175113893Y-100432867D01*
X175092849Y-100445480D01*
X175070671Y-100455970D01*
X175047571Y-100464235D01*
X175023773Y-100470196D01*
X174999504Y-100473796D01*
X174975000Y-100475000D01*
X174225000Y-100475000D01*
X174200496Y-100473796D01*
X174176227Y-100470196D01*
X174152429Y-100464235D01*
X174129329Y-100455970D01*
X174107151Y-100445480D01*
X174086107Y-100432867D01*
X174066402Y-100418253D01*
X174048223Y-100401777D01*
X174031747Y-100383598D01*
X174017133Y-100363893D01*
X174004520Y-100342849D01*
X173994030Y-100320671D01*
X173985765Y-100297571D01*
X173979804Y-100273773D01*
X173976204Y-100249504D01*
X173975000Y-100225000D01*
X173975000Y-98975000D01*
X173976204Y-98950496D01*
X173979804Y-98926227D01*
X173985765Y-98902429D01*
X173994030Y-98879329D01*
X174004520Y-98857151D01*
X174017133Y-98836107D01*
X174031747Y-98816402D01*
X174048223Y-98798223D01*
X174066402Y-98781747D01*
X174086107Y-98767133D01*
X174107151Y-98754520D01*
X174129329Y-98744030D01*
X174152429Y-98735765D01*
X174176227Y-98729804D01*
X174200496Y-98726204D01*
X174225000Y-98725000D01*
X174975000Y-98725000D01*
X174999504Y-98726204D01*
G37*
G04 #@! TD.AperFunction*
G04 #@! TA.AperFunction,SMDPad,CuDef*
G36*
X177799504Y-98726204D02*
G01*
X177823773Y-98729804D01*
X177847571Y-98735765D01*
X177870671Y-98744030D01*
X177892849Y-98754520D01*
X177913893Y-98767133D01*
X177933598Y-98781747D01*
X177951777Y-98798223D01*
X177968253Y-98816402D01*
X177982867Y-98836107D01*
X177995480Y-98857151D01*
X178005970Y-98879329D01*
X178014235Y-98902429D01*
X178020196Y-98926227D01*
X178023796Y-98950496D01*
X178025000Y-98975000D01*
X178025000Y-100225000D01*
X178023796Y-100249504D01*
X178020196Y-100273773D01*
X178014235Y-100297571D01*
X178005970Y-100320671D01*
X177995480Y-100342849D01*
X177982867Y-100363893D01*
X177968253Y-100383598D01*
X177951777Y-100401777D01*
X177933598Y-100418253D01*
X177913893Y-100432867D01*
X177892849Y-100445480D01*
X177870671Y-100455970D01*
X177847571Y-100464235D01*
X177823773Y-100470196D01*
X177799504Y-100473796D01*
X177775000Y-100475000D01*
X177025000Y-100475000D01*
X177000496Y-100473796D01*
X176976227Y-100470196D01*
X176952429Y-100464235D01*
X176929329Y-100455970D01*
X176907151Y-100445480D01*
X176886107Y-100432867D01*
X176866402Y-100418253D01*
X176848223Y-100401777D01*
X176831747Y-100383598D01*
X176817133Y-100363893D01*
X176804520Y-100342849D01*
X176794030Y-100320671D01*
X176785765Y-100297571D01*
X176779804Y-100273773D01*
X176776204Y-100249504D01*
X176775000Y-100225000D01*
X176775000Y-98975000D01*
X176776204Y-98950496D01*
X176779804Y-98926227D01*
X176785765Y-98902429D01*
X176794030Y-98879329D01*
X176804520Y-98857151D01*
X176817133Y-98836107D01*
X176831747Y-98816402D01*
X176848223Y-98798223D01*
X176866402Y-98781747D01*
X176886107Y-98767133D01*
X176907151Y-98754520D01*
X176929329Y-98744030D01*
X176952429Y-98735765D01*
X176976227Y-98729804D01*
X177000496Y-98726204D01*
X177025000Y-98725000D01*
X177775000Y-98725000D01*
X177799504Y-98726204D01*
G37*
G04 #@! TD.AperFunction*
G04 #@! TA.AperFunction,SMDPad,CuDef*
G36*
X169677691Y-97776053D02*
G01*
X169698926Y-97779203D01*
X169719750Y-97784419D01*
X169739962Y-97791651D01*
X169759368Y-97800830D01*
X169777781Y-97811866D01*
X169795024Y-97824654D01*
X169810930Y-97839070D01*
X169825346Y-97854976D01*
X169838134Y-97872219D01*
X169849170Y-97890632D01*
X169858349Y-97910038D01*
X169865581Y-97930250D01*
X169870797Y-97951074D01*
X169873947Y-97972309D01*
X169875000Y-97993750D01*
X169875000Y-98431250D01*
X169873947Y-98452691D01*
X169870797Y-98473926D01*
X169865581Y-98494750D01*
X169858349Y-98514962D01*
X169849170Y-98534368D01*
X169838134Y-98552781D01*
X169825346Y-98570024D01*
X169810930Y-98585930D01*
X169795024Y-98600346D01*
X169777781Y-98613134D01*
X169759368Y-98624170D01*
X169739962Y-98633349D01*
X169719750Y-98640581D01*
X169698926Y-98645797D01*
X169677691Y-98648947D01*
X169656250Y-98650000D01*
X169143750Y-98650000D01*
X169122309Y-98648947D01*
X169101074Y-98645797D01*
X169080250Y-98640581D01*
X169060038Y-98633349D01*
X169040632Y-98624170D01*
X169022219Y-98613134D01*
X169004976Y-98600346D01*
X168989070Y-98585930D01*
X168974654Y-98570024D01*
X168961866Y-98552781D01*
X168950830Y-98534368D01*
X168941651Y-98514962D01*
X168934419Y-98494750D01*
X168929203Y-98473926D01*
X168926053Y-98452691D01*
X168925000Y-98431250D01*
X168925000Y-97993750D01*
X168926053Y-97972309D01*
X168929203Y-97951074D01*
X168934419Y-97930250D01*
X168941651Y-97910038D01*
X168950830Y-97890632D01*
X168961866Y-97872219D01*
X168974654Y-97854976D01*
X168989070Y-97839070D01*
X169004976Y-97824654D01*
X169022219Y-97811866D01*
X169040632Y-97800830D01*
X169060038Y-97791651D01*
X169080250Y-97784419D01*
X169101074Y-97779203D01*
X169122309Y-97776053D01*
X169143750Y-97775000D01*
X169656250Y-97775000D01*
X169677691Y-97776053D01*
G37*
G04 #@! TD.AperFunction*
G04 #@! TA.AperFunction,SMDPad,CuDef*
G36*
X169677691Y-99351053D02*
G01*
X169698926Y-99354203D01*
X169719750Y-99359419D01*
X169739962Y-99366651D01*
X169759368Y-99375830D01*
X169777781Y-99386866D01*
X169795024Y-99399654D01*
X169810930Y-99414070D01*
X169825346Y-99429976D01*
X169838134Y-99447219D01*
X169849170Y-99465632D01*
X169858349Y-99485038D01*
X169865581Y-99505250D01*
X169870797Y-99526074D01*
X169873947Y-99547309D01*
X169875000Y-99568750D01*
X169875000Y-100006250D01*
X169873947Y-100027691D01*
X169870797Y-100048926D01*
X169865581Y-100069750D01*
X169858349Y-100089962D01*
X169849170Y-100109368D01*
X169838134Y-100127781D01*
X169825346Y-100145024D01*
X169810930Y-100160930D01*
X169795024Y-100175346D01*
X169777781Y-100188134D01*
X169759368Y-100199170D01*
X169739962Y-100208349D01*
X169719750Y-100215581D01*
X169698926Y-100220797D01*
X169677691Y-100223947D01*
X169656250Y-100225000D01*
X169143750Y-100225000D01*
X169122309Y-100223947D01*
X169101074Y-100220797D01*
X169080250Y-100215581D01*
X169060038Y-100208349D01*
X169040632Y-100199170D01*
X169022219Y-100188134D01*
X169004976Y-100175346D01*
X168989070Y-100160930D01*
X168974654Y-100145024D01*
X168961866Y-100127781D01*
X168950830Y-100109368D01*
X168941651Y-100089962D01*
X168934419Y-100069750D01*
X168929203Y-100048926D01*
X168926053Y-100027691D01*
X168925000Y-100006250D01*
X168925000Y-99568750D01*
X168926053Y-99547309D01*
X168929203Y-99526074D01*
X168934419Y-99505250D01*
X168941651Y-99485038D01*
X168950830Y-99465632D01*
X168961866Y-99447219D01*
X168974654Y-99429976D01*
X168989070Y-99414070D01*
X169004976Y-99399654D01*
X169022219Y-99386866D01*
X169040632Y-99375830D01*
X169060038Y-99366651D01*
X169080250Y-99359419D01*
X169101074Y-99354203D01*
X169122309Y-99351053D01*
X169143750Y-99350000D01*
X169656250Y-99350000D01*
X169677691Y-99351053D01*
G37*
G04 #@! TD.AperFunction*
D18*
X164950000Y-85350000D03*
X164950000Y-86650000D03*
X163050000Y-86000000D03*
X163050000Y-86650000D03*
X163050000Y-85350000D03*
D19*
X171380000Y-88540000D03*
X171380000Y-86000000D03*
X173920000Y-88540000D03*
X173920000Y-86000000D03*
X176460000Y-88540000D03*
X176460000Y-86000000D03*
X179000000Y-88540000D03*
D20*
X179000000Y-86000000D03*
D21*
X178000000Y-92795000D03*
X178000000Y-94065000D03*
X178000000Y-95335000D03*
X178000000Y-96605000D03*
X172600000Y-96605000D03*
X172600000Y-95335000D03*
X172600000Y-94065000D03*
X172600000Y-92795000D03*
D22*
X180600000Y-93200000D03*
X169800000Y-83900000D03*
X170200000Y-94500000D03*
X170200000Y-97700000D03*
X168900000Y-102200000D03*
D23*
X163050000Y-86000000D02*
X163500000Y-86000000D01*
X164150000Y-85350000D02*
X164950000Y-85350000D01*
X163500000Y-86000000D02*
X164150000Y-85350000D01*
D24*
X180600000Y-92200000D02*
X180600000Y-93200000D01*
D23*
X164950000Y-84750000D02*
X164950000Y-85350000D01*
X168787500Y-83900000D02*
X165800000Y-83900000D01*
X165800000Y-83900000D02*
X164950000Y-84750000D01*
X168800000Y-83912500D02*
X168787500Y-83900000D01*
X168800000Y-83912500D02*
X169787500Y-83912500D01*
X169787500Y-83912500D02*
X169800000Y-83900000D01*
D24*
X170200000Y-93700000D02*
X169700000Y-93200000D01*
X170200000Y-94500000D02*
X170200000Y-93700000D01*
D23*
X169400000Y-98212500D02*
X169687500Y-98212500D01*
X169687500Y-98212500D02*
X170200000Y-97700000D01*
D24*
X179265000Y-94065000D02*
X178000000Y-94065000D01*
X179250000Y-94050000D02*
X179265000Y-94065000D01*
X173920000Y-89320000D02*
X175500000Y-90900000D01*
X173920000Y-88540000D02*
X173920000Y-89320000D01*
X175500000Y-90900000D02*
X178200000Y-90900000D01*
X179250000Y-91950000D02*
X179250000Y-94050000D01*
X178200000Y-90900000D02*
X179250000Y-91950000D01*
X180000000Y-94800000D02*
X179250000Y-94050000D01*
X180600000Y-94800000D02*
X180000000Y-94800000D01*
X172600000Y-96605000D02*
X171705000Y-96605000D01*
X171100000Y-96000000D02*
X169700000Y-96000000D01*
X171705000Y-96605000D02*
X171100000Y-96000000D01*
X171100000Y-94800000D02*
X169900000Y-96000000D01*
X169900000Y-96000000D02*
X169700000Y-96000000D01*
X173920000Y-86000000D02*
X173920000Y-86280000D01*
X173920000Y-86280000D02*
X172650000Y-87550000D01*
X172650000Y-87550000D02*
X172650000Y-89850000D01*
X172650000Y-89850000D02*
X171100000Y-91400000D01*
X171100000Y-91400000D02*
X171100000Y-94800000D01*
D23*
X163500000Y-87700000D02*
X163050000Y-87250000D01*
X166000000Y-87700000D02*
X163500000Y-87700000D01*
X170340000Y-88540000D02*
X167900000Y-86100000D01*
X167900000Y-86100000D02*
X167100000Y-86100000D01*
X163050000Y-87250000D02*
X163050000Y-86650000D01*
X166500000Y-86700000D02*
X166500000Y-87200000D01*
X171380000Y-88540000D02*
X170340000Y-88540000D01*
X167100000Y-86100000D02*
X166500000Y-86700000D01*
X166500000Y-87200000D02*
X166000000Y-87700000D01*
D24*
X176460000Y-84640000D02*
X177200000Y-83900000D01*
X177200000Y-83900000D02*
X180400000Y-83900000D01*
X176460000Y-86000000D02*
X176460000Y-84640000D01*
X180400000Y-83900000D02*
X182300000Y-85800000D01*
X182300000Y-85800000D02*
X182300000Y-95700000D01*
X182300000Y-95700000D02*
X181765000Y-96235000D01*
D23*
X179500000Y-96435000D02*
X179700000Y-96235000D01*
D24*
X179700000Y-96235000D02*
X179500000Y-96235000D01*
X181765000Y-96235000D02*
X179700000Y-96235000D01*
D25*
X179500000Y-96500000D02*
X179500000Y-96435000D01*
D23*
X176665000Y-95335000D02*
X176600000Y-95400000D01*
X178000000Y-95335000D02*
X176665000Y-95335000D01*
D24*
X178000000Y-95335000D02*
X179035000Y-95335000D01*
X179035000Y-95335000D02*
X179500000Y-95800000D01*
X179500000Y-96400000D02*
X179500000Y-96235000D01*
X179700000Y-96200000D02*
X179500000Y-96000000D01*
X179700000Y-96235000D02*
X179700000Y-96200000D01*
X179500000Y-95800000D02*
X179500000Y-96000000D01*
X179500000Y-96000000D02*
X179500000Y-96235000D01*
D23*
X168900000Y-102200000D02*
X168887500Y-102212500D01*
X168900000Y-102287500D02*
X169400000Y-102787500D01*
X168900000Y-102200000D02*
X168900000Y-102287500D01*
X174600000Y-99600000D02*
X174600000Y-100900000D01*
X174900000Y-101200000D02*
X175400000Y-101200000D01*
X174600000Y-100900000D02*
X174900000Y-101200000D01*
X175400000Y-101200000D02*
X176900000Y-102700000D01*
X172600000Y-94065000D02*
X174165000Y-94065000D01*
X174165000Y-94065000D02*
X174600000Y-94500000D01*
X174600000Y-94500000D02*
X174600000Y-99600000D01*
D25*
X158000000Y-96270000D02*
X158000000Y-96500000D01*
X158000000Y-96500000D02*
X158300000Y-96800000D01*
D26*
X172000000Y-104700000D02*
X170100000Y-104700000D01*
D23*
X157700000Y-103100000D02*
X160300000Y-105700000D01*
X157700000Y-96900000D02*
X157700000Y-103100000D01*
X169100000Y-105700000D02*
X170100000Y-104700000D01*
X160300000Y-105700000D02*
X169100000Y-105700000D01*
X158000000Y-96600000D02*
X157700000Y-96900000D01*
X158000000Y-96270000D02*
X158000000Y-96600000D01*
X172000000Y-104700000D02*
X173000000Y-103700000D01*
X173000000Y-99000000D02*
X173900000Y-98100000D01*
X173000000Y-103700000D02*
X173000000Y-99000000D01*
X173900000Y-95700000D02*
X173900000Y-98100000D01*
X172600000Y-95335000D02*
X173535000Y-95335000D01*
X173535000Y-95335000D02*
X173900000Y-95700000D01*
X177400000Y-100660000D02*
X179440000Y-102700000D01*
X177400000Y-99600000D02*
X177400000Y-100660000D01*
X176246447Y-98446447D02*
X177400000Y-99600000D01*
X176246447Y-95753553D02*
X176246447Y-98446447D01*
X180362500Y-105637500D02*
X171100000Y-105637500D01*
X181600000Y-104400000D02*
X180362500Y-105637500D01*
X181600000Y-104400000D02*
X181600000Y-99000000D01*
X181600000Y-99000000D02*
X179500000Y-96900000D01*
D25*
X169112500Y-103912500D02*
X169100000Y-103900000D01*
D23*
X169237500Y-103762500D02*
X169100000Y-103900000D01*
X171100000Y-103762500D02*
X169237500Y-103762500D01*
X169100000Y-103900000D02*
X167800000Y-105200000D01*
X160500000Y-105200000D02*
X158300000Y-103000000D01*
X167800000Y-105200000D02*
X160500000Y-105200000D01*
X158300000Y-103000000D02*
X158300000Y-97200000D01*
X171100000Y-103762500D02*
X171100000Y-103100000D01*
X171400000Y-102800000D02*
X171400000Y-101850000D01*
X171100000Y-103100000D02*
X171400000Y-102800000D01*
X169400000Y-101212500D02*
X169400000Y-99787500D01*
X169400000Y-99787500D02*
X171112500Y-99787500D01*
X171400000Y-99500000D02*
X171400000Y-98850000D01*
X171112500Y-99787500D02*
X171400000Y-99500000D01*
X165650000Y-86650000D02*
X164950000Y-86650000D01*
X166000000Y-86300000D02*
X165650000Y-86650000D01*
X166000000Y-85500000D02*
X166000000Y-86300000D01*
X167000000Y-84500000D02*
X166000000Y-85500000D01*
X171380000Y-86000000D02*
X170600000Y-86000000D01*
X170087500Y-85487500D02*
X168800000Y-85487500D01*
X170600000Y-86000000D02*
X170087500Y-85487500D01*
X167812500Y-84500000D02*
X168800000Y-85487500D01*
X167000000Y-84500000D02*
X167812500Y-84500000D01*
M02*
