G04 #@! TF.GenerationSoftware,KiCad,Pcbnew,5.1.6*
G04 #@! TF.CreationDate,2020-09-28T13:12:07+02:00*
G04 #@! TF.ProjectId,reference_board,72656665-7265-46e6-9365-5f626f617264,v3.2.1*
G04 #@! TF.SameCoordinates,Original*
G04 #@! TF.FileFunction,Profile,NP*
%FSLAX46Y46*%
G04 Gerber Fmt 4.6, Leading zero omitted, Abs format (unit mm)*
G04 Created by KiCad (PCBNEW 5.1.6) date 2020-09-28 13:12:07*
%MOMM*%
%LPD*%
G01*
G04 APERTURE LIST*
G04 #@! TA.AperFunction,Profile*
%ADD10C,0.150000*%
G04 #@! TD*
G04 APERTURE END LIST*
D10*
X100000000Y-50000000D02*
X100000000Y-75000000D01*
X134000000Y-75000000D02*
X100000000Y-75000000D01*
X134000000Y-50000000D02*
X134000000Y-75000000D01*
X100000000Y-50000000D02*
X134000000Y-50000000D01*
X119000000Y-54000000D02*
G75*
G03*
X118000000Y-54000000I-500000J0D01*
G01*
X118000000Y-70000000D02*
G75*
G03*
X119000000Y-70000000I500000J0D01*
G01*
X118000000Y-54000000D02*
X118000000Y-70000000D01*
X119000000Y-54000000D02*
X119000000Y-70000000D01*
X107317664Y-68278491D02*
G75*
G02*
X102721500Y-63682300I1682336J6278491D01*
G01*
X106929492Y-69727425D02*
G75*
G02*
X101272600Y-64070600I2070508J7727425D01*
G01*
X101272500Y-64070500D02*
G75*
G02*
X102721500Y-63682300I724500J194100D01*
G01*
X107317800Y-68278600D02*
G75*
G02*
X106929400Y-69727400I-194200J-724400D01*
G01*
X115278491Y-63682336D02*
G75*
G02*
X110682300Y-68278500I-6278491J1682336D01*
G01*
X116727425Y-64070508D02*
G75*
G02*
X111070600Y-69727400I-7727425J2070508D01*
G01*
X111070500Y-69727500D02*
G75*
G02*
X110682300Y-68278500I-194100J724500D01*
G01*
X115278600Y-63682200D02*
G75*
G02*
X116727400Y-64070600I724400J-194200D01*
G01*
X110682336Y-55721509D02*
G75*
G02*
X115278500Y-60317700I-1682336J-6278491D01*
G01*
X111070508Y-54272575D02*
G75*
G02*
X116727400Y-59929400I-2070508J-7727425D01*
G01*
X116727500Y-59929500D02*
G75*
G02*
X115278500Y-60317700I-724500J-194100D01*
G01*
X110682200Y-55721400D02*
G75*
G02*
X111070600Y-54272600I194200J724400D01*
G01*
X102721509Y-60317664D02*
G75*
G02*
X107317700Y-55721500I6278491J-1682336D01*
G01*
X101272575Y-59929492D02*
G75*
G02*
X106929400Y-54272600I7727425J-2070508D01*
G01*
X106929500Y-54272500D02*
G75*
G02*
X107317700Y-55721500I194100J-724500D01*
G01*
X102721400Y-60317800D02*
G75*
G02*
X101272600Y-59929400I-724400J194200D01*
G01*
M02*
