M48
; DRILL file {KiCad 5.1.4} date 2019-11-21T15:25:37 CET
; FORMAT={-:-/ absolute / metric / decimal}
; #@! TF.CreationDate,2019-11-21T15:25:37+01:00
; #@! TF.GenerationSoftware,Kicad,Pcbnew,5.1.4
; #@! TF.FileFunction,Plated,1,2,PTH
FMAT,2
METRIC
T1C0.400
T2C0.700
T3C0.800
T4C1.000
T5C2.700
%
G90
G05
T1
X168.9Y-103.0
X169.8Y-83.9
X170.2Y-94.5
X171.7Y-98.2
X180.6Y-93.2
T2
X156.7Y-95.0
X157.97Y-93.73
X157.97Y-96.27
X159.24Y-95.0
T3
X174.36Y-102.7
X176.9Y-102.7
X179.44Y-102.7
T4
X171.38Y-86.0
X171.38Y-88.54
X173.92Y-86.0
X173.92Y-88.54
X176.46Y-86.0
X176.46Y-88.54
X179.0Y-86.0
X179.0Y-88.54
T5
X153.0Y-105.0
T0
M30
