M48
; DRILL file {KiCad 5.1.10} date Thu May 20 12:45:13 2021
; FORMAT={-:-/ absolute / metric / decimal}
; #@! TF.CreationDate,2021-05-20T12:45:13+02:00
; #@! TF.GenerationSoftware,Kicad,Pcbnew,5.1.10
; #@! TF.FileFunction,Plated,1,2,PTH
FMAT,2
METRIC
T1C0.300
T2C0.400
T3C0.700
T4C0.800
T5C1.000
T6C2.700
%
G90
G05
T1
X119.9Y-68.0
T2
X120.8Y-50.9
X121.2Y-61.5
X131.6Y-60.2
T3
X107.7Y-62.0
X108.97Y-60.73
X108.97Y-63.27
X110.24Y-62.0
T4
X125.36Y-69.7
X127.9Y-69.7
X130.44Y-69.7
T5
X122.38Y-53.0
X122.38Y-55.54
X124.92Y-53.0
X124.92Y-55.54
X127.46Y-53.0
X127.46Y-55.54
X130.0Y-53.0
X130.0Y-55.54
T6
X104.0Y-72.0
T0
M30
