G04 #@! TF.GenerationSoftware,KiCad,Pcbnew,5.1.2*
G04 #@! TF.CreationDate,2019-06-28T19:50:37+02:00*
G04 #@! TF.ProjectId,reference_board,72656665-7265-46e6-9365-5f626f617264,v3.1.1*
G04 #@! TF.SameCoordinates,Original*
G04 #@! TF.FileFunction,Soldermask,Bot*
G04 #@! TF.FilePolarity,Negative*
%FSLAX46Y46*%
G04 Gerber Fmt 4.6, Leading zero omitted, Abs format (unit mm)*
G04 Created by KiCad (PCBNEW 5.1.2) date 2019-06-28 19:50:37*
%MOMM*%
%LPD*%
G04 APERTURE LIST*
%ADD10C,0.100000*%
G04 APERTURE END LIST*
D10*
G36*
X154050000Y-106050000D02*
G01*
X151950000Y-106050000D01*
X151950000Y-103950000D01*
X154050000Y-103950000D01*
X154050000Y-106050000D01*
X154050000Y-106050000D01*
G37*
G36*
X155668707Y-103957597D02*
G01*
X155745836Y-103965193D01*
X155943762Y-104025233D01*
X155943765Y-104025234D01*
X156126170Y-104122732D01*
X156286055Y-104253945D01*
X156417268Y-104413830D01*
X156514766Y-104596235D01*
X156514767Y-104596238D01*
X156574807Y-104794164D01*
X156595080Y-105000000D01*
X156574807Y-105205836D01*
X156514767Y-105403762D01*
X156514766Y-105403765D01*
X156417268Y-105586170D01*
X156286055Y-105746055D01*
X156126170Y-105877268D01*
X155943765Y-105974766D01*
X155943762Y-105974767D01*
X155745836Y-106034807D01*
X155668707Y-106042404D01*
X155591580Y-106050000D01*
X155488420Y-106050000D01*
X155411293Y-106042404D01*
X155334164Y-106034807D01*
X155136238Y-105974767D01*
X155136235Y-105974766D01*
X154953830Y-105877268D01*
X154793945Y-105746055D01*
X154662732Y-105586170D01*
X154565234Y-105403765D01*
X154565233Y-105403762D01*
X154505193Y-105205836D01*
X154484920Y-105000000D01*
X154505193Y-104794164D01*
X154565233Y-104596238D01*
X154565234Y-104596235D01*
X154662732Y-104413830D01*
X154793945Y-104253945D01*
X154953830Y-104122732D01*
X155136235Y-104025234D01*
X155136238Y-104025233D01*
X155334164Y-103965193D01*
X155411293Y-103957597D01*
X155488420Y-103950000D01*
X155591580Y-103950000D01*
X155668707Y-103957597D01*
X155668707Y-103957597D01*
G37*
G36*
X160748707Y-103957597D02*
G01*
X160825836Y-103965193D01*
X161023762Y-104025233D01*
X161023765Y-104025234D01*
X161206170Y-104122732D01*
X161366055Y-104253945D01*
X161497268Y-104413830D01*
X161594766Y-104596235D01*
X161594767Y-104596238D01*
X161654807Y-104794164D01*
X161675080Y-105000000D01*
X161654807Y-105205836D01*
X161594767Y-105403762D01*
X161594766Y-105403765D01*
X161497268Y-105586170D01*
X161366055Y-105746055D01*
X161206170Y-105877268D01*
X161023765Y-105974766D01*
X161023762Y-105974767D01*
X160825836Y-106034807D01*
X160748707Y-106042404D01*
X160671580Y-106050000D01*
X160568420Y-106050000D01*
X160491293Y-106042404D01*
X160414164Y-106034807D01*
X160216238Y-105974767D01*
X160216235Y-105974766D01*
X160033830Y-105877268D01*
X159873945Y-105746055D01*
X159742732Y-105586170D01*
X159645234Y-105403765D01*
X159645233Y-105403762D01*
X159585193Y-105205836D01*
X159564920Y-105000000D01*
X159585193Y-104794164D01*
X159645233Y-104596238D01*
X159645234Y-104596235D01*
X159742732Y-104413830D01*
X159873945Y-104253945D01*
X160033830Y-104122732D01*
X160216235Y-104025234D01*
X160216238Y-104025233D01*
X160414164Y-103965193D01*
X160491293Y-103957597D01*
X160568420Y-103950000D01*
X160671580Y-103950000D01*
X160748707Y-103957597D01*
X160748707Y-103957597D01*
G37*
G36*
X158208707Y-103957597D02*
G01*
X158285836Y-103965193D01*
X158483762Y-104025233D01*
X158483765Y-104025234D01*
X158666170Y-104122732D01*
X158826055Y-104253945D01*
X158957268Y-104413830D01*
X159054766Y-104596235D01*
X159054767Y-104596238D01*
X159114807Y-104794164D01*
X159135080Y-105000000D01*
X159114807Y-105205836D01*
X159054767Y-105403762D01*
X159054766Y-105403765D01*
X158957268Y-105586170D01*
X158826055Y-105746055D01*
X158666170Y-105877268D01*
X158483765Y-105974766D01*
X158483762Y-105974767D01*
X158285836Y-106034807D01*
X158208707Y-106042404D01*
X158131580Y-106050000D01*
X158028420Y-106050000D01*
X157951293Y-106042404D01*
X157874164Y-106034807D01*
X157676238Y-105974767D01*
X157676235Y-105974766D01*
X157493830Y-105877268D01*
X157333945Y-105746055D01*
X157202732Y-105586170D01*
X157105234Y-105403765D01*
X157105233Y-105403762D01*
X157045193Y-105205836D01*
X157024920Y-105000000D01*
X157045193Y-104794164D01*
X157105233Y-104596238D01*
X157105234Y-104596235D01*
X157202732Y-104413830D01*
X157333945Y-104253945D01*
X157493830Y-104122732D01*
X157676235Y-104025234D01*
X157676238Y-104025233D01*
X157874164Y-103965193D01*
X157951293Y-103957597D01*
X158028420Y-103950000D01*
X158131580Y-103950000D01*
X158208707Y-103957597D01*
X158208707Y-103957597D01*
G37*
G36*
X155668707Y-101417597D02*
G01*
X155745836Y-101425193D01*
X155943762Y-101485233D01*
X155943765Y-101485234D01*
X156126170Y-101582732D01*
X156286055Y-101713945D01*
X156417268Y-101873830D01*
X156514766Y-102056235D01*
X156514767Y-102056238D01*
X156574807Y-102254164D01*
X156595080Y-102460000D01*
X156574807Y-102665836D01*
X156514767Y-102863762D01*
X156514766Y-102863765D01*
X156417268Y-103046170D01*
X156286055Y-103206055D01*
X156126170Y-103337268D01*
X155943765Y-103434766D01*
X155943762Y-103434767D01*
X155745836Y-103494807D01*
X155668707Y-103502404D01*
X155591580Y-103510000D01*
X155488420Y-103510000D01*
X155411293Y-103502404D01*
X155334164Y-103494807D01*
X155136238Y-103434767D01*
X155136235Y-103434766D01*
X154953830Y-103337268D01*
X154793945Y-103206055D01*
X154662732Y-103046170D01*
X154565234Y-102863765D01*
X154565233Y-102863762D01*
X154505193Y-102665836D01*
X154484920Y-102460000D01*
X154505193Y-102254164D01*
X154565233Y-102056238D01*
X154565234Y-102056235D01*
X154662732Y-101873830D01*
X154793945Y-101713945D01*
X154953830Y-101582732D01*
X155136235Y-101485234D01*
X155136238Y-101485233D01*
X155334164Y-101425193D01*
X155411293Y-101417597D01*
X155488420Y-101410000D01*
X155591580Y-101410000D01*
X155668707Y-101417597D01*
X155668707Y-101417597D01*
G37*
G36*
X153128707Y-101417597D02*
G01*
X153205836Y-101425193D01*
X153403762Y-101485233D01*
X153403765Y-101485234D01*
X153586170Y-101582732D01*
X153746055Y-101713945D01*
X153877268Y-101873830D01*
X153974766Y-102056235D01*
X153974767Y-102056238D01*
X154034807Y-102254164D01*
X154055080Y-102460000D01*
X154034807Y-102665836D01*
X153974767Y-102863762D01*
X153974766Y-102863765D01*
X153877268Y-103046170D01*
X153746055Y-103206055D01*
X153586170Y-103337268D01*
X153403765Y-103434766D01*
X153403762Y-103434767D01*
X153205836Y-103494807D01*
X153128707Y-103502404D01*
X153051580Y-103510000D01*
X152948420Y-103510000D01*
X152871293Y-103502404D01*
X152794164Y-103494807D01*
X152596238Y-103434767D01*
X152596235Y-103434766D01*
X152413830Y-103337268D01*
X152253945Y-103206055D01*
X152122732Y-103046170D01*
X152025234Y-102863765D01*
X152025233Y-102863762D01*
X151965193Y-102665836D01*
X151944920Y-102460000D01*
X151965193Y-102254164D01*
X152025233Y-102056238D01*
X152025234Y-102056235D01*
X152122732Y-101873830D01*
X152253945Y-101713945D01*
X152413830Y-101582732D01*
X152596235Y-101485234D01*
X152596238Y-101485233D01*
X152794164Y-101425193D01*
X152871293Y-101417597D01*
X152948420Y-101410000D01*
X153051580Y-101410000D01*
X153128707Y-101417597D01*
X153128707Y-101417597D01*
G37*
G36*
X158208707Y-101417597D02*
G01*
X158285836Y-101425193D01*
X158483762Y-101485233D01*
X158483765Y-101485234D01*
X158666170Y-101582732D01*
X158826055Y-101713945D01*
X158957268Y-101873830D01*
X159054766Y-102056235D01*
X159054767Y-102056238D01*
X159114807Y-102254164D01*
X159135080Y-102460000D01*
X159114807Y-102665836D01*
X159054767Y-102863762D01*
X159054766Y-102863765D01*
X158957268Y-103046170D01*
X158826055Y-103206055D01*
X158666170Y-103337268D01*
X158483765Y-103434766D01*
X158483762Y-103434767D01*
X158285836Y-103494807D01*
X158208707Y-103502404D01*
X158131580Y-103510000D01*
X158028420Y-103510000D01*
X157951293Y-103502404D01*
X157874164Y-103494807D01*
X157676238Y-103434767D01*
X157676235Y-103434766D01*
X157493830Y-103337268D01*
X157333945Y-103206055D01*
X157202732Y-103046170D01*
X157105234Y-102863765D01*
X157105233Y-102863762D01*
X157045193Y-102665836D01*
X157024920Y-102460000D01*
X157045193Y-102254164D01*
X157105233Y-102056238D01*
X157105234Y-102056235D01*
X157202732Y-101873830D01*
X157333945Y-101713945D01*
X157493830Y-101582732D01*
X157676235Y-101485234D01*
X157676238Y-101485233D01*
X157874164Y-101425193D01*
X157951293Y-101417597D01*
X158028420Y-101410000D01*
X158131580Y-101410000D01*
X158208707Y-101417597D01*
X158208707Y-101417597D01*
G37*
G36*
X160748707Y-101417597D02*
G01*
X160825836Y-101425193D01*
X161023762Y-101485233D01*
X161023765Y-101485234D01*
X161206170Y-101582732D01*
X161366055Y-101713945D01*
X161497268Y-101873830D01*
X161594766Y-102056235D01*
X161594767Y-102056238D01*
X161654807Y-102254164D01*
X161675080Y-102460000D01*
X161654807Y-102665836D01*
X161594767Y-102863762D01*
X161594766Y-102863765D01*
X161497268Y-103046170D01*
X161366055Y-103206055D01*
X161206170Y-103337268D01*
X161023765Y-103434766D01*
X161023762Y-103434767D01*
X160825836Y-103494807D01*
X160748707Y-103502404D01*
X160671580Y-103510000D01*
X160568420Y-103510000D01*
X160491293Y-103502404D01*
X160414164Y-103494807D01*
X160216238Y-103434767D01*
X160216235Y-103434766D01*
X160033830Y-103337268D01*
X159873945Y-103206055D01*
X159742732Y-103046170D01*
X159645234Y-102863765D01*
X159645233Y-102863762D01*
X159585193Y-102665836D01*
X159564920Y-102460000D01*
X159585193Y-102254164D01*
X159645233Y-102056238D01*
X159645234Y-102056235D01*
X159742732Y-101873830D01*
X159873945Y-101713945D01*
X160033830Y-101582732D01*
X160216235Y-101485234D01*
X160216238Y-101485233D01*
X160414164Y-101425193D01*
X160491293Y-101417597D01*
X160568420Y-101410000D01*
X160671580Y-101410000D01*
X160748707Y-101417597D01*
X160748707Y-101417597D01*
G37*
G36*
X174263351Y-93960743D02*
G01*
X174408941Y-94021048D01*
X174539970Y-94108599D01*
X174651401Y-94220030D01*
X174738952Y-94351059D01*
X174799257Y-94496649D01*
X174830000Y-94651206D01*
X174830000Y-94808794D01*
X174799257Y-94963351D01*
X174762120Y-95053008D01*
X174755007Y-95076457D01*
X174752605Y-95100843D01*
X174755007Y-95125230D01*
X174762120Y-95148678D01*
X174773671Y-95170289D01*
X174789217Y-95189231D01*
X174808159Y-95204776D01*
X174829769Y-95216327D01*
X174853218Y-95223440D01*
X174877604Y-95225842D01*
X174913884Y-95220461D01*
X174943173Y-95211576D01*
X175021529Y-95203859D01*
X175060706Y-95200000D01*
X175539294Y-95200000D01*
X175578471Y-95203859D01*
X175656827Y-95211576D01*
X175807628Y-95257321D01*
X175807630Y-95257322D01*
X175946605Y-95331606D01*
X176068422Y-95431578D01*
X176168394Y-95553395D01*
X176204560Y-95621057D01*
X176242679Y-95692372D01*
X176288424Y-95843173D01*
X176303870Y-96000000D01*
X176288424Y-96156827D01*
X176242679Y-96307628D01*
X176242678Y-96307630D01*
X176168394Y-96446605D01*
X176068422Y-96568422D01*
X175946605Y-96668394D01*
X175807630Y-96742678D01*
X175807628Y-96742679D01*
X175656827Y-96788424D01*
X175586932Y-96795308D01*
X175539294Y-96800000D01*
X175060706Y-96800000D01*
X175013068Y-96795308D01*
X174943173Y-96788424D01*
X174913881Y-96779538D01*
X174889856Y-96774760D01*
X174865352Y-96774760D01*
X174841319Y-96779540D01*
X174818680Y-96788918D01*
X174798306Y-96802531D01*
X174780979Y-96819858D01*
X174767365Y-96840233D01*
X174757987Y-96862872D01*
X174753207Y-96886905D01*
X174753207Y-96911409D01*
X174762120Y-96946992D01*
X174799257Y-97036649D01*
X174830000Y-97191206D01*
X174830000Y-97348794D01*
X174799257Y-97503351D01*
X174738952Y-97648941D01*
X174651401Y-97779970D01*
X174539970Y-97891401D01*
X174408941Y-97978952D01*
X174263351Y-98039257D01*
X174108794Y-98070000D01*
X173951206Y-98070000D01*
X173796649Y-98039257D01*
X173651059Y-97978952D01*
X173520030Y-97891401D01*
X173408599Y-97779970D01*
X173321048Y-97648941D01*
X173260743Y-97503351D01*
X173230000Y-97348794D01*
X173230000Y-97191206D01*
X173260743Y-97036649D01*
X173321049Y-96891057D01*
X173338624Y-96864754D01*
X173350175Y-96843144D01*
X173357288Y-96819695D01*
X173359690Y-96795308D01*
X173357288Y-96770922D01*
X173350175Y-96747473D01*
X173338624Y-96725863D01*
X173323078Y-96706921D01*
X173304136Y-96691376D01*
X173282526Y-96679825D01*
X173259077Y-96672712D01*
X173234690Y-96670310D01*
X173210304Y-96672712D01*
X173186855Y-96679825D01*
X173165246Y-96691376D01*
X173138943Y-96708951D01*
X172993351Y-96769257D01*
X172838794Y-96800000D01*
X172681206Y-96800000D01*
X172526649Y-96769257D01*
X172381059Y-96708952D01*
X172250030Y-96621401D01*
X172138599Y-96509970D01*
X172051048Y-96378941D01*
X171990743Y-96233351D01*
X171960000Y-96078794D01*
X171960000Y-95921206D01*
X171990743Y-95766649D01*
X172051048Y-95621059D01*
X172115025Y-95525310D01*
X173430310Y-95525310D01*
X173432712Y-95549696D01*
X173439825Y-95573145D01*
X173451376Y-95594754D01*
X173468951Y-95621057D01*
X173529257Y-95766649D01*
X173560000Y-95921206D01*
X173560000Y-96078794D01*
X173529257Y-96233351D01*
X173468951Y-96378943D01*
X173451376Y-96405246D01*
X173439825Y-96426856D01*
X173432712Y-96450305D01*
X173430310Y-96474692D01*
X173432712Y-96499078D01*
X173439825Y-96522527D01*
X173451376Y-96544137D01*
X173466922Y-96563079D01*
X173485864Y-96578624D01*
X173507474Y-96590175D01*
X173530923Y-96597288D01*
X173555310Y-96599690D01*
X173579696Y-96597288D01*
X173603145Y-96590175D01*
X173624754Y-96578624D01*
X173651057Y-96561049D01*
X173796649Y-96500743D01*
X173951206Y-96470000D01*
X174108794Y-96470000D01*
X174130964Y-96474410D01*
X174224797Y-96493074D01*
X174249180Y-96495476D01*
X174273566Y-96493074D01*
X174297015Y-96485961D01*
X174318626Y-96474410D01*
X174337568Y-96458865D01*
X174353113Y-96439923D01*
X174364664Y-96418312D01*
X174371777Y-96394863D01*
X174374179Y-96370477D01*
X174371777Y-96346091D01*
X174364664Y-96322642D01*
X174359418Y-96311551D01*
X174357321Y-96307628D01*
X174311576Y-96156827D01*
X174296130Y-96000000D01*
X174311576Y-95843173D01*
X174357321Y-95692372D01*
X174359418Y-95688448D01*
X174368796Y-95665810D01*
X174373577Y-95641777D01*
X174373577Y-95617273D01*
X174368797Y-95593240D01*
X174359420Y-95570601D01*
X174345807Y-95550226D01*
X174328480Y-95532899D01*
X174308106Y-95519285D01*
X174285467Y-95509907D01*
X174261434Y-95505126D01*
X174236930Y-95505126D01*
X174224801Y-95506925D01*
X174162662Y-95519285D01*
X174108794Y-95530000D01*
X173951206Y-95530000D01*
X173796649Y-95499257D01*
X173651057Y-95438951D01*
X173624754Y-95421376D01*
X173603144Y-95409825D01*
X173579695Y-95402712D01*
X173555308Y-95400310D01*
X173530922Y-95402712D01*
X173507473Y-95409825D01*
X173485863Y-95421376D01*
X173466921Y-95436922D01*
X173451376Y-95455864D01*
X173439825Y-95477474D01*
X173432712Y-95500923D01*
X173430310Y-95525310D01*
X172115025Y-95525310D01*
X172138599Y-95490030D01*
X172250030Y-95378599D01*
X172381059Y-95291048D01*
X172526649Y-95230743D01*
X172681206Y-95200000D01*
X172838794Y-95200000D01*
X172993351Y-95230743D01*
X173138943Y-95291049D01*
X173165246Y-95308624D01*
X173186856Y-95320175D01*
X173210305Y-95327288D01*
X173234692Y-95329690D01*
X173259078Y-95327288D01*
X173282527Y-95320175D01*
X173304137Y-95308624D01*
X173323079Y-95293078D01*
X173338624Y-95274136D01*
X173350175Y-95252526D01*
X173357288Y-95229077D01*
X173359690Y-95204690D01*
X173357288Y-95180304D01*
X173350175Y-95156855D01*
X173338624Y-95135246D01*
X173321049Y-95108943D01*
X173260743Y-94963351D01*
X173230000Y-94808794D01*
X173230000Y-94651206D01*
X173260743Y-94496649D01*
X173321048Y-94351059D01*
X173408599Y-94220030D01*
X173520030Y-94108599D01*
X173651059Y-94021048D01*
X173796649Y-93960743D01*
X173951206Y-93930000D01*
X174108794Y-93930000D01*
X174263351Y-93960743D01*
X174263351Y-93960743D01*
G37*
G36*
X152745336Y-87368254D02*
G01*
X152837105Y-87386508D01*
X153009994Y-87458121D01*
X153165590Y-87562087D01*
X153297913Y-87694410D01*
X153401879Y-87850006D01*
X153473492Y-88022895D01*
X153510000Y-88206433D01*
X153510000Y-88393567D01*
X153473492Y-88577105D01*
X153401879Y-88749994D01*
X153297913Y-88905590D01*
X153165590Y-89037913D01*
X153009994Y-89141879D01*
X152837105Y-89213492D01*
X152745336Y-89231746D01*
X152653568Y-89250000D01*
X152466432Y-89250000D01*
X152374664Y-89231746D01*
X152282895Y-89213492D01*
X152110006Y-89141879D01*
X151954410Y-89037913D01*
X151822087Y-88905590D01*
X151718121Y-88749994D01*
X151646508Y-88577105D01*
X151610000Y-88393567D01*
X151610000Y-88206433D01*
X151646508Y-88022895D01*
X151718121Y-87850006D01*
X151822087Y-87694410D01*
X151954410Y-87562087D01*
X152110006Y-87458121D01*
X152282895Y-87386508D01*
X152374664Y-87368254D01*
X152466432Y-87350000D01*
X152653568Y-87350000D01*
X152745336Y-87368254D01*
X152745336Y-87368254D01*
G37*
G36*
X155285336Y-87368254D02*
G01*
X155377105Y-87386508D01*
X155549994Y-87458121D01*
X155705590Y-87562087D01*
X155837913Y-87694410D01*
X155941879Y-87850006D01*
X156013492Y-88022895D01*
X156050000Y-88206433D01*
X156050000Y-88393567D01*
X156013492Y-88577105D01*
X155941879Y-88749994D01*
X155837913Y-88905590D01*
X155705590Y-89037913D01*
X155549994Y-89141879D01*
X155377105Y-89213492D01*
X155285336Y-89231746D01*
X155193568Y-89250000D01*
X155006432Y-89250000D01*
X154914664Y-89231746D01*
X154822895Y-89213492D01*
X154650006Y-89141879D01*
X154494410Y-89037913D01*
X154362087Y-88905590D01*
X154258121Y-88749994D01*
X154186508Y-88577105D01*
X154150000Y-88393567D01*
X154150000Y-88206433D01*
X154186508Y-88022895D01*
X154258121Y-87850006D01*
X154362087Y-87694410D01*
X154494410Y-87562087D01*
X154650006Y-87458121D01*
X154822895Y-87386508D01*
X154914664Y-87368254D01*
X155006432Y-87350000D01*
X155193568Y-87350000D01*
X155285336Y-87368254D01*
X155285336Y-87368254D01*
G37*
G36*
X158590000Y-89250000D02*
G01*
X156690000Y-89250000D01*
X156690000Y-87350000D01*
X158590000Y-87350000D01*
X158590000Y-89250000D01*
X158590000Y-89250000D01*
G37*
G36*
X179497480Y-83498998D02*
G01*
X179743807Y-83547995D01*
X180207878Y-83740220D01*
X180625530Y-84019286D01*
X180980714Y-84374470D01*
X181259780Y-84792122D01*
X181452005Y-85256193D01*
X181550000Y-85748847D01*
X181550000Y-86251153D01*
X181452005Y-86743807D01*
X181259780Y-87207878D01*
X180980714Y-87625530D01*
X180625530Y-87980714D01*
X180207878Y-88259780D01*
X179743807Y-88452005D01*
X179497480Y-88501002D01*
X179251154Y-88550000D01*
X178748846Y-88550000D01*
X178502520Y-88501003D01*
X178256193Y-88452005D01*
X177792122Y-88259780D01*
X177374470Y-87980714D01*
X177019286Y-87625530D01*
X176740220Y-87207878D01*
X176547995Y-86743807D01*
X176450000Y-86251153D01*
X176450000Y-85748847D01*
X176547995Y-85256193D01*
X176740220Y-84792122D01*
X177019286Y-84374470D01*
X177374470Y-84019286D01*
X177792122Y-83740220D01*
X178256193Y-83547995D01*
X178502520Y-83498998D01*
X178748846Y-83450000D01*
X179251154Y-83450000D01*
X179497480Y-83498998D01*
X179497480Y-83498998D01*
G37*
M02*
