G04 #@! TF.GenerationSoftware,KiCad,Pcbnew,(2017-06-16 revision 2018d4894)-master*
G04 #@! TF.CreationDate,2018-01-06T04:43:58+01:00*
G04 #@! TF.ProjectId,reference_board,7265666572656E63655F626F6172642E,rev?*
G04 #@! TF.SameCoordinates,Original
G04 #@! TF.FileFunction,Legend,Bot*
G04 #@! TF.FilePolarity,Positive*
%FSLAX46Y46*%
G04 Gerber Fmt 4.6, Leading zero omitted, Abs format (unit mm)*
G04 Created by KiCad (PCBNEW (2017-06-16 revision 2018d4894)-master) date Sat Jan  6 04:43:58 2018*
%MOMM*%
%LPD*%
G01*
G04 APERTURE LIST*
%ADD10C,0.100000*%
%ADD11C,0.150000*%
%ADD12C,0.120000*%
G04 APERTURE END LIST*
D10*
D11*
X164931071Y-84636904D02*
X165312023Y-84636904D01*
X165312023Y-83836904D01*
X164664404Y-84636904D02*
X164664404Y-83836904D01*
X164397738Y-84408333D01*
X164131071Y-83836904D01*
X164131071Y-84636904D01*
X163826309Y-83836904D02*
X163331071Y-83836904D01*
X163597738Y-84141666D01*
X163483452Y-84141666D01*
X163407261Y-84179761D01*
X163369166Y-84217857D01*
X163331071Y-84294047D01*
X163331071Y-84484523D01*
X163369166Y-84560714D01*
X163407261Y-84598809D01*
X163483452Y-84636904D01*
X163712023Y-84636904D01*
X163788214Y-84598809D01*
X163826309Y-84560714D01*
X162950119Y-84636904D02*
X162797738Y-84636904D01*
X162721547Y-84598809D01*
X162683452Y-84560714D01*
X162607261Y-84446428D01*
X162569166Y-84294047D01*
X162569166Y-83989285D01*
X162607261Y-83913095D01*
X162645357Y-83875000D01*
X162721547Y-83836904D01*
X162873928Y-83836904D01*
X162950119Y-83875000D01*
X162988214Y-83913095D01*
X163026309Y-83989285D01*
X163026309Y-84179761D01*
X162988214Y-84255952D01*
X162950119Y-84294047D01*
X162873928Y-84332142D01*
X162721547Y-84332142D01*
X162645357Y-84294047D01*
X162607261Y-84255952D01*
X162569166Y-84179761D01*
X162188214Y-84636904D02*
X162035833Y-84636904D01*
X161959642Y-84598809D01*
X161921547Y-84560714D01*
X161845357Y-84446428D01*
X161807261Y-84294047D01*
X161807261Y-83989285D01*
X161845357Y-83913095D01*
X161883452Y-83875000D01*
X161959642Y-83836904D01*
X162112023Y-83836904D01*
X162188214Y-83875000D01*
X162226309Y-83913095D01*
X162264404Y-83989285D01*
X162264404Y-84179761D01*
X162226309Y-84255952D01*
X162188214Y-84294047D01*
X162112023Y-84332142D01*
X161959642Y-84332142D01*
X161883452Y-84294047D01*
X161845357Y-84255952D01*
X161807261Y-84179761D01*
X160969166Y-83836904D02*
X160702500Y-84636904D01*
X160435833Y-83836904D01*
X160054880Y-84636904D02*
X160131071Y-84598809D01*
X160169166Y-84560714D01*
X160207261Y-84484523D01*
X160207261Y-84255952D01*
X160169166Y-84179761D01*
X160131071Y-84141666D01*
X160054880Y-84103571D01*
X159940595Y-84103571D01*
X159864404Y-84141666D01*
X159826309Y-84179761D01*
X159788214Y-84255952D01*
X159788214Y-84484523D01*
X159826309Y-84560714D01*
X159864404Y-84598809D01*
X159940595Y-84636904D01*
X160054880Y-84636904D01*
X159331071Y-84636904D02*
X159407261Y-84598809D01*
X159445357Y-84522619D01*
X159445357Y-83836904D01*
X159140595Y-84103571D02*
X158835833Y-84103571D01*
X159026309Y-83836904D02*
X159026309Y-84522619D01*
X158988214Y-84598809D01*
X158912023Y-84636904D01*
X158835833Y-84636904D01*
X158226309Y-84636904D02*
X158226309Y-84217857D01*
X158264404Y-84141666D01*
X158340595Y-84103571D01*
X158492976Y-84103571D01*
X158569166Y-84141666D01*
X158226309Y-84598809D02*
X158302500Y-84636904D01*
X158492976Y-84636904D01*
X158569166Y-84598809D01*
X158607261Y-84522619D01*
X158607261Y-84446428D01*
X158569166Y-84370238D01*
X158492976Y-84332142D01*
X158302500Y-84332142D01*
X158226309Y-84294047D01*
X157502500Y-84103571D02*
X157502500Y-84751190D01*
X157540595Y-84827380D01*
X157578690Y-84865476D01*
X157654880Y-84903571D01*
X157769166Y-84903571D01*
X157845357Y-84865476D01*
X157502500Y-84598809D02*
X157578690Y-84636904D01*
X157731071Y-84636904D01*
X157807261Y-84598809D01*
X157845357Y-84560714D01*
X157883452Y-84484523D01*
X157883452Y-84255952D01*
X157845357Y-84179761D01*
X157807261Y-84141666D01*
X157731071Y-84103571D01*
X157578690Y-84103571D01*
X157502500Y-84141666D01*
X156816785Y-84598809D02*
X156892976Y-84636904D01*
X157045357Y-84636904D01*
X157121547Y-84598809D01*
X157159642Y-84522619D01*
X157159642Y-84217857D01*
X157121547Y-84141666D01*
X157045357Y-84103571D01*
X156892976Y-84103571D01*
X156816785Y-84141666D01*
X156778690Y-84217857D01*
X156778690Y-84294047D01*
X157159642Y-84370238D01*
X155369166Y-84636904D02*
X155635833Y-84255952D01*
X155826309Y-84636904D02*
X155826309Y-83836904D01*
X155521547Y-83836904D01*
X155445357Y-83875000D01*
X155407261Y-83913095D01*
X155369166Y-83989285D01*
X155369166Y-84103571D01*
X155407261Y-84179761D01*
X155445357Y-84217857D01*
X155521547Y-84255952D01*
X155826309Y-84255952D01*
X154721547Y-84598809D02*
X154797738Y-84636904D01*
X154950119Y-84636904D01*
X155026309Y-84598809D01*
X155064404Y-84522619D01*
X155064404Y-84217857D01*
X155026309Y-84141666D01*
X154950119Y-84103571D01*
X154797738Y-84103571D01*
X154721547Y-84141666D01*
X154683452Y-84217857D01*
X154683452Y-84294047D01*
X155064404Y-84370238D01*
X154454880Y-84103571D02*
X154150119Y-84103571D01*
X154340595Y-84636904D02*
X154340595Y-83951190D01*
X154302500Y-83875000D01*
X154226309Y-83836904D01*
X154150119Y-83836904D01*
X153578690Y-84598809D02*
X153654880Y-84636904D01*
X153807261Y-84636904D01*
X153883452Y-84598809D01*
X153921547Y-84522619D01*
X153921547Y-84217857D01*
X153883452Y-84141666D01*
X153807261Y-84103571D01*
X153654880Y-84103571D01*
X153578690Y-84141666D01*
X153540595Y-84217857D01*
X153540595Y-84294047D01*
X153921547Y-84370238D01*
X153197738Y-84636904D02*
X153197738Y-84103571D01*
X153197738Y-84255952D02*
X153159642Y-84179761D01*
X153121547Y-84141666D01*
X153045357Y-84103571D01*
X152969166Y-84103571D01*
X152397738Y-84598809D02*
X152473928Y-84636904D01*
X152626309Y-84636904D01*
X152702500Y-84598809D01*
X152740595Y-84522619D01*
X152740595Y-84217857D01*
X152702500Y-84141666D01*
X152626309Y-84103571D01*
X152473928Y-84103571D01*
X152397738Y-84141666D01*
X152359642Y-84217857D01*
X152359642Y-84294047D01*
X152740595Y-84370238D01*
X152016785Y-84103571D02*
X152016785Y-84636904D01*
X152016785Y-84179761D02*
X151978690Y-84141666D01*
X151902500Y-84103571D01*
X151788214Y-84103571D01*
X151712023Y-84141666D01*
X151673928Y-84217857D01*
X151673928Y-84636904D01*
X150950119Y-84598809D02*
X151026309Y-84636904D01*
X151178690Y-84636904D01*
X151254880Y-84598809D01*
X151292976Y-84560714D01*
X151331071Y-84484523D01*
X151331071Y-84255952D01*
X151292976Y-84179761D01*
X151254880Y-84141666D01*
X151178690Y-84103571D01*
X151026309Y-84103571D01*
X150950119Y-84141666D01*
X150302500Y-84598809D02*
X150378690Y-84636904D01*
X150531071Y-84636904D01*
X150607261Y-84598809D01*
X150645357Y-84522619D01*
X150645357Y-84217857D01*
X150607261Y-84141666D01*
X150531071Y-84103571D01*
X150378690Y-84103571D01*
X150302500Y-84141666D01*
X150264404Y-84217857D01*
X150264404Y-84294047D01*
X150645357Y-84370238D01*
X165312023Y-85986904D02*
X165312023Y-85186904D01*
X165121547Y-85186904D01*
X165007261Y-85225000D01*
X164931071Y-85301190D01*
X164892976Y-85377380D01*
X164854880Y-85529761D01*
X164854880Y-85644047D01*
X164892976Y-85796428D01*
X164931071Y-85872619D01*
X165007261Y-85948809D01*
X165121547Y-85986904D01*
X165312023Y-85986904D01*
X164207261Y-85948809D02*
X164283452Y-85986904D01*
X164435833Y-85986904D01*
X164512023Y-85948809D01*
X164550119Y-85872619D01*
X164550119Y-85567857D01*
X164512023Y-85491666D01*
X164435833Y-85453571D01*
X164283452Y-85453571D01*
X164207261Y-85491666D01*
X164169166Y-85567857D01*
X164169166Y-85644047D01*
X164550119Y-85720238D01*
X163864404Y-85948809D02*
X163788214Y-85986904D01*
X163635833Y-85986904D01*
X163559642Y-85948809D01*
X163521547Y-85872619D01*
X163521547Y-85834523D01*
X163559642Y-85758333D01*
X163635833Y-85720238D01*
X163750119Y-85720238D01*
X163826309Y-85682142D01*
X163864404Y-85605952D01*
X163864404Y-85567857D01*
X163826309Y-85491666D01*
X163750119Y-85453571D01*
X163635833Y-85453571D01*
X163559642Y-85491666D01*
X163178690Y-85986904D02*
X163178690Y-85453571D01*
X163178690Y-85186904D02*
X163216785Y-85225000D01*
X163178690Y-85263095D01*
X163140595Y-85225000D01*
X163178690Y-85186904D01*
X163178690Y-85263095D01*
X162454880Y-85453571D02*
X162454880Y-86101190D01*
X162492976Y-86177380D01*
X162531071Y-86215476D01*
X162607261Y-86253571D01*
X162721547Y-86253571D01*
X162797738Y-86215476D01*
X162454880Y-85948809D02*
X162531071Y-85986904D01*
X162683452Y-85986904D01*
X162759642Y-85948809D01*
X162797738Y-85910714D01*
X162835833Y-85834523D01*
X162835833Y-85605952D01*
X162797738Y-85529761D01*
X162759642Y-85491666D01*
X162683452Y-85453571D01*
X162531071Y-85453571D01*
X162454880Y-85491666D01*
X162073928Y-85453571D02*
X162073928Y-85986904D01*
X162073928Y-85529761D02*
X162035833Y-85491666D01*
X161959642Y-85453571D01*
X161845357Y-85453571D01*
X161769166Y-85491666D01*
X161731071Y-85567857D01*
X161731071Y-85986904D01*
X161350119Y-85910714D02*
X161312023Y-85948809D01*
X161350119Y-85986904D01*
X161388214Y-85948809D01*
X161350119Y-85910714D01*
X161350119Y-85986904D01*
X161350119Y-85491666D02*
X161312023Y-85529761D01*
X161350119Y-85567857D01*
X161388214Y-85529761D01*
X161350119Y-85491666D01*
X161350119Y-85567857D01*
X160359642Y-85986904D02*
X160359642Y-85186904D01*
X160054880Y-85186904D01*
X159978690Y-85225000D01*
X159940595Y-85263095D01*
X159902500Y-85339285D01*
X159902500Y-85453571D01*
X159940595Y-85529761D01*
X159978690Y-85567857D01*
X160054880Y-85605952D01*
X160359642Y-85605952D01*
X159216785Y-85986904D02*
X159216785Y-85567857D01*
X159254880Y-85491666D01*
X159331071Y-85453571D01*
X159483452Y-85453571D01*
X159559642Y-85491666D01*
X159216785Y-85948809D02*
X159292976Y-85986904D01*
X159483452Y-85986904D01*
X159559642Y-85948809D01*
X159597738Y-85872619D01*
X159597738Y-85796428D01*
X159559642Y-85720238D01*
X159483452Y-85682142D01*
X159292976Y-85682142D01*
X159216785Y-85644047D01*
X158950119Y-85453571D02*
X158645357Y-85453571D01*
X158835833Y-85186904D02*
X158835833Y-85872619D01*
X158797738Y-85948809D01*
X158721547Y-85986904D01*
X158645357Y-85986904D01*
X158378690Y-85986904D02*
X158378690Y-85453571D01*
X158378690Y-85605952D02*
X158340595Y-85529761D01*
X158302500Y-85491666D01*
X158226309Y-85453571D01*
X158150119Y-85453571D01*
X157883452Y-85986904D02*
X157883452Y-85453571D01*
X157883452Y-85186904D02*
X157921547Y-85225000D01*
X157883452Y-85263095D01*
X157845357Y-85225000D01*
X157883452Y-85186904D01*
X157883452Y-85263095D01*
X157159642Y-85948809D02*
X157235833Y-85986904D01*
X157388214Y-85986904D01*
X157464404Y-85948809D01*
X157502500Y-85910714D01*
X157540595Y-85834523D01*
X157540595Y-85605952D01*
X157502500Y-85529761D01*
X157464404Y-85491666D01*
X157388214Y-85453571D01*
X157235833Y-85453571D01*
X157159642Y-85491666D01*
X156816785Y-85986904D02*
X156816785Y-85186904D01*
X156740595Y-85682142D02*
X156512023Y-85986904D01*
X156512023Y-85453571D02*
X156816785Y-85758333D01*
X155292976Y-85567857D02*
X155178690Y-85605952D01*
X155140595Y-85644047D01*
X155102500Y-85720238D01*
X155102500Y-85834523D01*
X155140595Y-85910714D01*
X155178690Y-85948809D01*
X155254880Y-85986904D01*
X155559642Y-85986904D01*
X155559642Y-85186904D01*
X155292976Y-85186904D01*
X155216785Y-85225000D01*
X155178690Y-85263095D01*
X155140595Y-85339285D01*
X155140595Y-85415476D01*
X155178690Y-85491666D01*
X155216785Y-85529761D01*
X155292976Y-85567857D01*
X155559642Y-85567857D01*
X154416785Y-85986904D02*
X154416785Y-85567857D01*
X154454880Y-85491666D01*
X154531071Y-85453571D01*
X154683452Y-85453571D01*
X154759642Y-85491666D01*
X154416785Y-85948809D02*
X154492976Y-85986904D01*
X154683452Y-85986904D01*
X154759642Y-85948809D01*
X154797738Y-85872619D01*
X154797738Y-85796428D01*
X154759642Y-85720238D01*
X154683452Y-85682142D01*
X154492976Y-85682142D01*
X154416785Y-85644047D01*
X153692976Y-85453571D02*
X153692976Y-85986904D01*
X154035833Y-85453571D02*
X154035833Y-85872619D01*
X153997738Y-85948809D01*
X153921547Y-85986904D01*
X153807261Y-85986904D01*
X153731071Y-85948809D01*
X153692976Y-85910714D01*
X153350119Y-85948809D02*
X153273928Y-85986904D01*
X153121547Y-85986904D01*
X153045357Y-85948809D01*
X153007261Y-85872619D01*
X153007261Y-85834523D01*
X153045357Y-85758333D01*
X153121547Y-85720238D01*
X153235833Y-85720238D01*
X153312023Y-85682142D01*
X153350119Y-85605952D01*
X153350119Y-85567857D01*
X153312023Y-85491666D01*
X153235833Y-85453571D01*
X153121547Y-85453571D01*
X153045357Y-85491666D01*
X165312023Y-87336904D02*
X165312023Y-86536904D01*
X165121547Y-86536904D01*
X165007261Y-86575000D01*
X164931071Y-86651190D01*
X164892976Y-86727380D01*
X164854880Y-86879761D01*
X164854880Y-86994047D01*
X164892976Y-87146428D01*
X164931071Y-87222619D01*
X165007261Y-87298809D01*
X165121547Y-87336904D01*
X165312023Y-87336904D01*
X164169166Y-87336904D02*
X164169166Y-86917857D01*
X164207261Y-86841666D01*
X164283452Y-86803571D01*
X164435833Y-86803571D01*
X164512023Y-86841666D01*
X164169166Y-87298809D02*
X164245357Y-87336904D01*
X164435833Y-87336904D01*
X164512023Y-87298809D01*
X164550119Y-87222619D01*
X164550119Y-87146428D01*
X164512023Y-87070238D01*
X164435833Y-87032142D01*
X164245357Y-87032142D01*
X164169166Y-86994047D01*
X163902500Y-86803571D02*
X163597738Y-86803571D01*
X163788214Y-86536904D02*
X163788214Y-87222619D01*
X163750119Y-87298809D01*
X163673928Y-87336904D01*
X163597738Y-87336904D01*
X163026309Y-87298809D02*
X163102500Y-87336904D01*
X163254880Y-87336904D01*
X163331071Y-87298809D01*
X163369166Y-87222619D01*
X163369166Y-86917857D01*
X163331071Y-86841666D01*
X163254880Y-86803571D01*
X163102500Y-86803571D01*
X163026309Y-86841666D01*
X162988214Y-86917857D01*
X162988214Y-86994047D01*
X163369166Y-87070238D01*
X162645357Y-87260714D02*
X162607261Y-87298809D01*
X162645357Y-87336904D01*
X162683452Y-87298809D01*
X162645357Y-87260714D01*
X162645357Y-87336904D01*
X162645357Y-86841666D02*
X162607261Y-86879761D01*
X162645357Y-86917857D01*
X162683452Y-86879761D01*
X162645357Y-86841666D01*
X162645357Y-86917857D01*
X161692976Y-86613095D02*
X161654880Y-86575000D01*
X161578690Y-86536904D01*
X161388214Y-86536904D01*
X161312023Y-86575000D01*
X161273928Y-86613095D01*
X161235833Y-86689285D01*
X161235833Y-86765476D01*
X161273928Y-86879761D01*
X161731071Y-87336904D01*
X161235833Y-87336904D01*
X160740595Y-86536904D02*
X160664404Y-86536904D01*
X160588214Y-86575000D01*
X160550119Y-86613095D01*
X160512023Y-86689285D01*
X160473928Y-86841666D01*
X160473928Y-87032142D01*
X160512023Y-87184523D01*
X160550119Y-87260714D01*
X160588214Y-87298809D01*
X160664404Y-87336904D01*
X160740595Y-87336904D01*
X160816785Y-87298809D01*
X160854880Y-87260714D01*
X160892976Y-87184523D01*
X160931071Y-87032142D01*
X160931071Y-86841666D01*
X160892976Y-86689285D01*
X160854880Y-86613095D01*
X160816785Y-86575000D01*
X160740595Y-86536904D01*
X159712023Y-87336904D02*
X160169166Y-87336904D01*
X159940595Y-87336904D02*
X159940595Y-86536904D01*
X160016785Y-86651190D01*
X160092976Y-86727380D01*
X160169166Y-86765476D01*
X159254880Y-86879761D02*
X159331071Y-86841666D01*
X159369166Y-86803571D01*
X159407261Y-86727380D01*
X159407261Y-86689285D01*
X159369166Y-86613095D01*
X159331071Y-86575000D01*
X159254880Y-86536904D01*
X159102500Y-86536904D01*
X159026309Y-86575000D01*
X158988214Y-86613095D01*
X158950119Y-86689285D01*
X158950119Y-86727380D01*
X158988214Y-86803571D01*
X159026309Y-86841666D01*
X159102500Y-86879761D01*
X159254880Y-86879761D01*
X159331071Y-86917857D01*
X159369166Y-86955952D01*
X159407261Y-87032142D01*
X159407261Y-87184523D01*
X159369166Y-87260714D01*
X159331071Y-87298809D01*
X159254880Y-87336904D01*
X159102500Y-87336904D01*
X159026309Y-87298809D01*
X158988214Y-87260714D01*
X158950119Y-87184523D01*
X158950119Y-87032142D01*
X158988214Y-86955952D01*
X159026309Y-86917857D01*
X159102500Y-86879761D01*
X158607261Y-87032142D02*
X157997738Y-87032142D01*
X157464404Y-86536904D02*
X157388214Y-86536904D01*
X157312023Y-86575000D01*
X157273928Y-86613095D01*
X157235833Y-86689285D01*
X157197738Y-86841666D01*
X157197738Y-87032142D01*
X157235833Y-87184523D01*
X157273928Y-87260714D01*
X157312023Y-87298809D01*
X157388214Y-87336904D01*
X157464404Y-87336904D01*
X157540595Y-87298809D01*
X157578690Y-87260714D01*
X157616785Y-87184523D01*
X157654880Y-87032142D01*
X157654880Y-86841666D01*
X157616785Y-86689285D01*
X157578690Y-86613095D01*
X157540595Y-86575000D01*
X157464404Y-86536904D01*
X156435833Y-87336904D02*
X156892976Y-87336904D01*
X156664404Y-87336904D02*
X156664404Y-86536904D01*
X156740595Y-86651190D01*
X156816785Y-86727380D01*
X156892976Y-86765476D01*
X165426309Y-87886904D02*
X165159642Y-88686904D01*
X164892976Y-87886904D01*
X164321547Y-88648809D02*
X164397738Y-88686904D01*
X164550119Y-88686904D01*
X164626309Y-88648809D01*
X164664404Y-88572619D01*
X164664404Y-88267857D01*
X164626309Y-88191666D01*
X164550119Y-88153571D01*
X164397738Y-88153571D01*
X164321547Y-88191666D01*
X164283452Y-88267857D01*
X164283452Y-88344047D01*
X164664404Y-88420238D01*
X163940595Y-88686904D02*
X163940595Y-88153571D01*
X163940595Y-88305952D02*
X163902500Y-88229761D01*
X163864404Y-88191666D01*
X163788214Y-88153571D01*
X163712023Y-88153571D01*
X163483452Y-88648809D02*
X163407261Y-88686904D01*
X163254880Y-88686904D01*
X163178690Y-88648809D01*
X163140595Y-88572619D01*
X163140595Y-88534523D01*
X163178690Y-88458333D01*
X163254880Y-88420238D01*
X163369166Y-88420238D01*
X163445357Y-88382142D01*
X163483452Y-88305952D01*
X163483452Y-88267857D01*
X163445357Y-88191666D01*
X163369166Y-88153571D01*
X163254880Y-88153571D01*
X163178690Y-88191666D01*
X162797738Y-88686904D02*
X162797738Y-88153571D01*
X162797738Y-87886904D02*
X162835833Y-87925000D01*
X162797738Y-87963095D01*
X162759642Y-87925000D01*
X162797738Y-87886904D01*
X162797738Y-87963095D01*
X162302500Y-88686904D02*
X162378690Y-88648809D01*
X162416785Y-88610714D01*
X162454880Y-88534523D01*
X162454880Y-88305952D01*
X162416785Y-88229761D01*
X162378690Y-88191666D01*
X162302500Y-88153571D01*
X162188214Y-88153571D01*
X162112023Y-88191666D01*
X162073928Y-88229761D01*
X162035833Y-88305952D01*
X162035833Y-88534523D01*
X162073928Y-88610714D01*
X162112023Y-88648809D01*
X162188214Y-88686904D01*
X162302500Y-88686904D01*
X161692976Y-88153571D02*
X161692976Y-88686904D01*
X161692976Y-88229761D02*
X161654880Y-88191666D01*
X161578690Y-88153571D01*
X161464404Y-88153571D01*
X161388214Y-88191666D01*
X161350119Y-88267857D01*
X161350119Y-88686904D01*
X160969166Y-88610714D02*
X160931071Y-88648809D01*
X160969166Y-88686904D01*
X161007261Y-88648809D01*
X160969166Y-88610714D01*
X160969166Y-88686904D01*
X160969166Y-88191666D02*
X160931071Y-88229761D01*
X160969166Y-88267857D01*
X161007261Y-88229761D01*
X160969166Y-88191666D01*
X160969166Y-88267857D01*
X160016785Y-87963095D02*
X159978690Y-87925000D01*
X159902500Y-87886904D01*
X159712023Y-87886904D01*
X159635833Y-87925000D01*
X159597738Y-87963095D01*
X159559642Y-88039285D01*
X159559642Y-88115476D01*
X159597738Y-88229761D01*
X160054880Y-88686904D01*
X159559642Y-88686904D01*
X159216785Y-88610714D02*
X159178690Y-88648809D01*
X159216785Y-88686904D01*
X159254880Y-88648809D01*
X159216785Y-88610714D01*
X159216785Y-88686904D01*
X158416785Y-88686904D02*
X158873928Y-88686904D01*
X158645357Y-88686904D02*
X158645357Y-87886904D01*
X158721547Y-88001190D01*
X158797738Y-88077380D01*
X158873928Y-88115476D01*
X158073928Y-88610714D02*
X158035833Y-88648809D01*
X158073928Y-88686904D01*
X158112023Y-88648809D01*
X158073928Y-88610714D01*
X158073928Y-88686904D01*
X157540595Y-87886904D02*
X157464404Y-87886904D01*
X157388214Y-87925000D01*
X157350119Y-87963095D01*
X157312023Y-88039285D01*
X157273928Y-88191666D01*
X157273928Y-88382142D01*
X157312023Y-88534523D01*
X157350119Y-88610714D01*
X157388214Y-88648809D01*
X157464404Y-88686904D01*
X157540595Y-88686904D01*
X157616785Y-88648809D01*
X157654880Y-88610714D01*
X157692976Y-88534523D01*
X157731071Y-88382142D01*
X157731071Y-88191666D01*
X157692976Y-88039285D01*
X157654880Y-87963095D01*
X157616785Y-87925000D01*
X157540595Y-87886904D01*
D12*
X177730000Y-84670000D02*
X170050000Y-84670000D01*
X170050000Y-84670000D02*
X170050000Y-89870000D01*
X170050000Y-89870000D02*
X180330000Y-89870000D01*
X180330000Y-89870000D02*
X180330000Y-87270000D01*
X180330000Y-87270000D02*
X177730000Y-87270000D01*
X177730000Y-87270000D02*
X177730000Y-84670000D01*
X179000000Y-84670000D02*
X180330000Y-84670000D01*
X180330000Y-84670000D02*
X180330000Y-85940000D01*
D11*
X175333333Y-90452380D02*
X175333333Y-91166666D01*
X175380952Y-91309523D01*
X175476190Y-91404761D01*
X175619047Y-91452380D01*
X175714285Y-91452380D01*
X174333333Y-91452380D02*
X174904761Y-91452380D01*
X174619047Y-91452380D02*
X174619047Y-90452380D01*
X174714285Y-90595238D01*
X174809523Y-90690476D01*
X174904761Y-90738095D01*
M02*
