G04 #@! TF.GenerationSoftware,KiCad,Pcbnew,5.1.4*
G04 #@! TF.CreationDate,2019-11-17T23:03:42+01:00*
G04 #@! TF.ProjectId,reference_board,72656665-7265-46e6-9365-5f626f617264,v3.1.1*
G04 #@! TF.SameCoordinates,Original*
G04 #@! TF.FileFunction,Profile,NP*
%FSLAX46Y46*%
G04 Gerber Fmt 4.6, Leading zero omitted, Abs format (unit mm)*
G04 Created by KiCad (PCBNEW 5.1.4) date 2019-11-17 23:03:42*
%MOMM*%
%LPD*%
G04 APERTURE LIST*
%ADD10C,0.150000*%
G04 APERTURE END LIST*
D10*
X183000000Y-108000000D02*
X183000000Y-83000000D01*
X149000000Y-83000000D02*
X183000000Y-83000000D01*
X149000000Y-108000000D02*
X149000000Y-83000000D01*
X183000000Y-108000000D02*
X149000000Y-108000000D01*
X164000000Y-104000000D02*
G75*
G03X165000000Y-104000000I500000J0D01*
G01*
X165000000Y-88000000D02*
G75*
G03X164000000Y-88000000I-500000J0D01*
G01*
X165000000Y-104000000D02*
X165000000Y-88000000D01*
X164000000Y-104000000D02*
X164000000Y-88000000D01*
X175682336Y-89721509D02*
G75*
G02X180278500Y-94317700I-1682336J-6278491D01*
G01*
X176070508Y-88272575D02*
G75*
G02X181727400Y-93929400I-2070508J-7727425D01*
G01*
X181727500Y-93929500D02*
G75*
G02X180278500Y-94317700I-724500J-194100D01*
G01*
X175682200Y-89721400D02*
G75*
G02X176070600Y-88272600I194200J724400D01*
G01*
X167721509Y-94317664D02*
G75*
G02X172317700Y-89721500I6278491J-1682336D01*
G01*
X166272575Y-93929492D02*
G75*
G02X171929400Y-88272600I7727425J-2070508D01*
G01*
X171929500Y-88272500D02*
G75*
G02X172317700Y-89721500I194100J-724500D01*
G01*
X167721400Y-94317800D02*
G75*
G02X166272600Y-93929400I-724400J194200D01*
G01*
X172317664Y-102278491D02*
G75*
G02X167721500Y-97682300I1682336J6278491D01*
G01*
X171929492Y-103727425D02*
G75*
G02X166272600Y-98070600I2070508J7727425D01*
G01*
X166272500Y-98070500D02*
G75*
G02X167721500Y-97682300I724500J194100D01*
G01*
X172317800Y-102278600D02*
G75*
G02X171929400Y-103727400I-194200J-724400D01*
G01*
X180278491Y-97682336D02*
G75*
G02X175682300Y-102278500I-6278491J1682336D01*
G01*
X181727425Y-98070508D02*
G75*
G02X176070600Y-103727400I-7727425J2070508D01*
G01*
X176070500Y-103727500D02*
G75*
G02X175682300Y-102278500I-194100J724500D01*
G01*
X180278600Y-97682200D02*
G75*
G02X181727400Y-98070600I724400J-194200D01*
G01*
M02*
