G04 #@! TF.GenerationSoftware,KiCad,Pcbnew,(6.0.0-rc1-dev-696-g8c56f5b03)*
G04 #@! TF.CreationDate,2019-01-11T00:26:40+01:00*
G04 #@! TF.ProjectId,reference_board,7265666572656E63655F626F6172642E,v3.1.0*
G04 #@! TF.SameCoordinates,Original*
G04 #@! TF.FileFunction,Legend,Top*
G04 #@! TF.FilePolarity,Positive*
%FSLAX46Y46*%
G04 Gerber Fmt 4.6, Leading zero omitted, Abs format (unit mm)*
G04 Created by KiCad (PCBNEW (6.0.0-rc1-dev-696-g8c56f5b03)) date Fri Jan 11 00:26:40 2019*
%MOMM*%
%LPD*%
G01*
G04 APERTURE LIST*
%ADD10C,0.150000*%
%ADD11C,0.010000*%
%ADD12C,0.120000*%
G04 APERTURE END LIST*
D10*
X177590476Y-90161904D02*
X177857142Y-90961904D01*
X178123809Y-90161904D01*
X178314285Y-90428571D02*
X178733333Y-90428571D01*
X178314285Y-90961904D01*
X178733333Y-90961904D01*
X179038095Y-90657142D02*
X179647619Y-90657142D01*
X179342857Y-90961904D02*
X179342857Y-90352380D01*
X179990476Y-90923809D02*
X180066666Y-90961904D01*
X180219047Y-90961904D01*
X180295238Y-90923809D01*
X180333333Y-90847619D01*
X180333333Y-90809523D01*
X180295238Y-90733333D01*
X180219047Y-90695238D01*
X180104761Y-90695238D01*
X180028571Y-90657142D01*
X179990476Y-90580952D01*
X179990476Y-90542857D01*
X180028571Y-90466666D01*
X180104761Y-90428571D01*
X180219047Y-90428571D01*
X180295238Y-90466666D01*
X158345119Y-106061904D02*
X158078452Y-105680952D01*
X157887976Y-106061904D02*
X157887976Y-105261904D01*
X158192738Y-105261904D01*
X158268928Y-105300000D01*
X158307023Y-105338095D01*
X158345119Y-105414285D01*
X158345119Y-105528571D01*
X158307023Y-105604761D01*
X158268928Y-105642857D01*
X158192738Y-105680952D01*
X157887976Y-105680952D01*
X159107023Y-106061904D02*
X158649880Y-106061904D01*
X158878452Y-106061904D02*
X158878452Y-105261904D01*
X158802261Y-105376190D01*
X158726071Y-105452380D01*
X158649880Y-105490476D01*
X159449880Y-105985714D02*
X159487976Y-106023809D01*
X159449880Y-106061904D01*
X159411785Y-106023809D01*
X159449880Y-105985714D01*
X159449880Y-106061904D01*
X159449880Y-105566666D02*
X159487976Y-105604761D01*
X159449880Y-105642857D01*
X159411785Y-105604761D01*
X159449880Y-105566666D01*
X159449880Y-105642857D01*
X160821309Y-105261904D02*
X160440357Y-105261904D01*
X160402261Y-105642857D01*
X160440357Y-105604761D01*
X160516547Y-105566666D01*
X160707023Y-105566666D01*
X160783214Y-105604761D01*
X160821309Y-105642857D01*
X160859404Y-105719047D01*
X160859404Y-105909523D01*
X160821309Y-105985714D01*
X160783214Y-106023809D01*
X160707023Y-106061904D01*
X160516547Y-106061904D01*
X160440357Y-106023809D01*
X160402261Y-105985714D01*
X161202261Y-105528571D02*
X161202261Y-106328571D01*
X161202261Y-105566666D02*
X161278452Y-105528571D01*
X161430833Y-105528571D01*
X161507023Y-105566666D01*
X161545119Y-105604761D01*
X161583214Y-105680952D01*
X161583214Y-105909523D01*
X161545119Y-105985714D01*
X161507023Y-106023809D01*
X161430833Y-106061904D01*
X161278452Y-106061904D01*
X161202261Y-106023809D01*
X161926071Y-105528571D02*
X161926071Y-106328571D01*
X161926071Y-105566666D02*
X162002261Y-105528571D01*
X162154642Y-105528571D01*
X162230833Y-105566666D01*
X162268928Y-105604761D01*
X162307023Y-105680952D01*
X162307023Y-105909523D01*
X162268928Y-105985714D01*
X162230833Y-106023809D01*
X162154642Y-106061904D01*
X162002261Y-106061904D01*
X161926071Y-106023809D01*
X162649880Y-106061904D02*
X162649880Y-105528571D01*
X162649880Y-105604761D02*
X162687976Y-105566666D01*
X162764166Y-105528571D01*
X162878452Y-105528571D01*
X162954642Y-105566666D01*
X162992738Y-105642857D01*
X162992738Y-106061904D01*
X162992738Y-105642857D02*
X163030833Y-105566666D01*
X163107023Y-105528571D01*
X163221309Y-105528571D01*
X163297500Y-105566666D01*
X163335595Y-105642857D01*
X163335595Y-106061904D01*
X164287976Y-105223809D02*
X163602261Y-106252380D01*
X164554642Y-106061904D02*
X164554642Y-105261904D01*
X165011785Y-106061904D02*
X164668928Y-105604761D01*
X165011785Y-105261904D02*
X164554642Y-105719047D01*
X165964166Y-106061904D02*
X165964166Y-105528571D01*
X165964166Y-105604761D02*
X166002261Y-105566666D01*
X166078452Y-105528571D01*
X166192738Y-105528571D01*
X166268928Y-105566666D01*
X166307023Y-105642857D01*
X166307023Y-106061904D01*
X166307023Y-105642857D02*
X166345119Y-105566666D01*
X166421309Y-105528571D01*
X166535595Y-105528571D01*
X166611785Y-105566666D01*
X166649880Y-105642857D01*
X166649880Y-106061904D01*
X167373690Y-106061904D02*
X167373690Y-105642857D01*
X167335595Y-105566666D01*
X167259404Y-105528571D01*
X167107023Y-105528571D01*
X167030833Y-105566666D01*
X167373690Y-106023809D02*
X167297500Y-106061904D01*
X167107023Y-106061904D01*
X167030833Y-106023809D01*
X166992738Y-105947619D01*
X166992738Y-105871428D01*
X167030833Y-105795238D01*
X167107023Y-105757142D01*
X167297500Y-105757142D01*
X167373690Y-105719047D01*
X167678452Y-106061904D02*
X168097500Y-105528571D01*
X167678452Y-105528571D02*
X168097500Y-106061904D01*
X168402261Y-105985714D02*
X168440357Y-106023809D01*
X168402261Y-106061904D01*
X168364166Y-106023809D01*
X168402261Y-105985714D01*
X168402261Y-106061904D01*
X170180952Y-90161904D02*
X170447619Y-90961904D01*
X170714285Y-90161904D01*
X170904761Y-90161904D02*
X171400000Y-90161904D01*
X171133333Y-90466666D01*
X171247619Y-90466666D01*
X171323809Y-90504761D01*
X171361904Y-90542857D01*
X171400000Y-90619047D01*
X171400000Y-90809523D01*
X171361904Y-90885714D01*
X171323809Y-90923809D01*
X171247619Y-90961904D01*
X171019047Y-90961904D01*
X170942857Y-90923809D01*
X170904761Y-90885714D01*
X171742857Y-90885714D02*
X171780952Y-90923809D01*
X171742857Y-90961904D01*
X171704761Y-90923809D01*
X171742857Y-90885714D01*
X171742857Y-90961904D01*
X172047619Y-90161904D02*
X172542857Y-90161904D01*
X172276190Y-90466666D01*
X172390476Y-90466666D01*
X172466666Y-90504761D01*
X172504761Y-90542857D01*
X172542857Y-90619047D01*
X172542857Y-90809523D01*
X172504761Y-90885714D01*
X172466666Y-90923809D01*
X172390476Y-90961904D01*
X172161904Y-90961904D01*
X172085714Y-90923809D01*
X172047619Y-90885714D01*
X170542857Y-83461904D02*
X170809523Y-84261904D01*
X171076190Y-83461904D01*
X171228571Y-83728571D02*
X171533333Y-83728571D01*
X171342857Y-83461904D02*
X171342857Y-84147619D01*
X171380952Y-84223809D01*
X171457142Y-84261904D01*
X171533333Y-84261904D01*
X171800000Y-84261904D02*
X171800000Y-83461904D01*
X172142857Y-84261904D02*
X172142857Y-83842857D01*
X172104761Y-83766666D01*
X172028571Y-83728571D01*
X171914285Y-83728571D01*
X171838095Y-83766666D01*
X171800000Y-83804761D01*
X178390476Y-83600000D02*
X178314285Y-83561904D01*
X178200000Y-83561904D01*
X178085714Y-83600000D01*
X178009523Y-83676190D01*
X177971428Y-83752380D01*
X177933333Y-83904761D01*
X177933333Y-84019047D01*
X177971428Y-84171428D01*
X178009523Y-84247619D01*
X178085714Y-84323809D01*
X178200000Y-84361904D01*
X178276190Y-84361904D01*
X178390476Y-84323809D01*
X178428571Y-84285714D01*
X178428571Y-84019047D01*
X178276190Y-84019047D01*
X178771428Y-84361904D02*
X178771428Y-83561904D01*
X179228571Y-84361904D01*
X179228571Y-83561904D01*
X179609523Y-84361904D02*
X179609523Y-83561904D01*
X179800000Y-83561904D01*
X179914285Y-83600000D01*
X179990476Y-83676190D01*
X180028571Y-83752380D01*
X180066666Y-83904761D01*
X180066666Y-84019047D01*
X180028571Y-84171428D01*
X179990476Y-84247619D01*
X179914285Y-84323809D01*
X179800000Y-84361904D01*
X179609523Y-84361904D01*
X175214285Y-90161904D02*
X175480952Y-90961904D01*
X175747619Y-90161904D01*
X175938095Y-90428571D02*
X176357142Y-90428571D01*
X175938095Y-90961904D01*
X176357142Y-90961904D01*
X176661904Y-90657142D02*
X177271428Y-90657142D01*
X176966666Y-90961904D02*
X176966666Y-90352380D01*
X175514285Y-83461904D02*
X175780952Y-84261904D01*
X176047619Y-83461904D01*
X176238095Y-83728571D02*
X176657142Y-83728571D01*
X176238095Y-84261904D01*
X176657142Y-84261904D01*
X176961904Y-83957142D02*
X177571428Y-83957142D01*
X173238095Y-90161904D02*
X173504761Y-90961904D01*
X173771428Y-90161904D01*
X174038095Y-90657142D02*
X174647619Y-90657142D01*
X174342857Y-90961904D02*
X174342857Y-90352380D01*
X173488095Y-83461904D02*
X173754761Y-84261904D01*
X174021428Y-83461904D01*
X174288095Y-83957142D02*
X174897619Y-83957142D01*
D11*
G04 #@! TO.C,LOGO1*
G36*
X152103910Y-83242348D02*
X152182454Y-83242778D01*
X152239298Y-83243942D01*
X152278105Y-83246207D01*
X152302538Y-83249940D01*
X152316262Y-83255506D01*
X152322940Y-83263273D01*
X152326236Y-83273605D01*
X152326556Y-83274943D01*
X152331562Y-83299079D01*
X152340829Y-83346701D01*
X152353392Y-83412741D01*
X152368287Y-83492128D01*
X152384551Y-83579796D01*
X152385119Y-83582875D01*
X152401410Y-83668789D01*
X152416652Y-83744696D01*
X152429861Y-83806045D01*
X152440054Y-83848282D01*
X152446248Y-83866855D01*
X152446543Y-83867184D01*
X152464788Y-83876253D01*
X152502405Y-83891367D01*
X152551271Y-83909262D01*
X152551543Y-83909358D01*
X152613093Y-83932493D01*
X152685657Y-83961965D01*
X152754057Y-83991597D01*
X152757294Y-83993062D01*
X152868702Y-84043626D01*
X153115399Y-83875160D01*
X153191077Y-83823803D01*
X153259631Y-83777889D01*
X153317088Y-83740030D01*
X153359476Y-83712837D01*
X153382825Y-83698921D01*
X153385042Y-83697889D01*
X153402010Y-83702484D01*
X153433701Y-83724655D01*
X153481352Y-83765447D01*
X153546198Y-83825905D01*
X153612397Y-83890227D01*
X153676214Y-83953612D01*
X153733329Y-84011451D01*
X153780305Y-84060175D01*
X153813703Y-84096210D01*
X153830085Y-84115984D01*
X153830694Y-84117002D01*
X153832505Y-84130572D01*
X153825683Y-84152733D01*
X153808540Y-84186478D01*
X153779393Y-84234800D01*
X153736555Y-84300692D01*
X153679448Y-84385517D01*
X153628766Y-84460177D01*
X153583461Y-84527140D01*
X153546150Y-84582516D01*
X153519452Y-84622420D01*
X153505985Y-84642962D01*
X153505137Y-84644356D01*
X153506781Y-84664038D01*
X153519245Y-84702293D01*
X153540048Y-84751889D01*
X153547462Y-84767728D01*
X153579814Y-84838290D01*
X153614328Y-84918353D01*
X153642365Y-84987629D01*
X153662568Y-85039045D01*
X153678615Y-85078119D01*
X153687888Y-85098541D01*
X153689041Y-85100114D01*
X153706096Y-85102721D01*
X153746298Y-85109863D01*
X153804302Y-85120523D01*
X153874763Y-85133685D01*
X153952335Y-85148333D01*
X154031672Y-85163449D01*
X154107431Y-85178018D01*
X154174264Y-85191022D01*
X154226828Y-85201445D01*
X154259776Y-85208270D01*
X154267857Y-85210199D01*
X154276205Y-85214962D01*
X154282506Y-85225718D01*
X154287045Y-85246098D01*
X154290104Y-85279734D01*
X154291967Y-85330255D01*
X154292918Y-85401292D01*
X154293240Y-85496476D01*
X154293257Y-85535492D01*
X154293257Y-85852799D01*
X154217057Y-85867839D01*
X154174663Y-85875995D01*
X154111400Y-85887899D01*
X154034962Y-85902116D01*
X153953043Y-85917210D01*
X153930400Y-85921355D01*
X153854806Y-85936053D01*
X153788953Y-85950505D01*
X153738366Y-85963375D01*
X153708574Y-85973322D01*
X153703612Y-85976287D01*
X153691426Y-85997283D01*
X153673953Y-86037967D01*
X153654577Y-86090322D01*
X153650734Y-86101600D01*
X153625339Y-86171523D01*
X153593817Y-86250418D01*
X153562969Y-86321266D01*
X153562817Y-86321595D01*
X153511447Y-86432733D01*
X153680399Y-86681253D01*
X153849352Y-86929772D01*
X153632429Y-87147058D01*
X153566819Y-87211726D01*
X153506979Y-87268733D01*
X153456267Y-87315033D01*
X153418046Y-87347584D01*
X153395675Y-87363343D01*
X153392466Y-87364343D01*
X153373626Y-87356469D01*
X153335180Y-87334578D01*
X153281330Y-87301267D01*
X153216276Y-87259131D01*
X153145940Y-87211943D01*
X153074555Y-87163810D01*
X153010908Y-87121928D01*
X152959041Y-87088871D01*
X152922995Y-87067218D01*
X152906867Y-87059543D01*
X152887189Y-87066037D01*
X152849875Y-87083150D01*
X152802621Y-87107326D01*
X152797612Y-87110013D01*
X152733977Y-87141927D01*
X152690341Y-87157579D01*
X152663202Y-87157745D01*
X152649057Y-87143204D01*
X152648975Y-87143000D01*
X152641905Y-87125779D01*
X152625042Y-87084899D01*
X152599695Y-87023525D01*
X152567171Y-86944819D01*
X152528778Y-86851947D01*
X152485822Y-86748072D01*
X152444222Y-86647502D01*
X152398504Y-86536516D01*
X152356526Y-86433703D01*
X152319548Y-86342215D01*
X152288827Y-86265201D01*
X152265622Y-86205815D01*
X152251190Y-86167209D01*
X152246743Y-86152800D01*
X152257896Y-86136272D01*
X152287069Y-86109930D01*
X152325971Y-86080887D01*
X152436757Y-85989039D01*
X152523351Y-85883759D01*
X152584716Y-85767266D01*
X152619815Y-85641776D01*
X152627608Y-85509507D01*
X152621943Y-85448457D01*
X152591078Y-85321795D01*
X152537920Y-85209941D01*
X152465767Y-85114001D01*
X152377917Y-85035076D01*
X152277665Y-84974270D01*
X152168310Y-84932687D01*
X152053147Y-84911428D01*
X151935475Y-84911599D01*
X151818590Y-84934301D01*
X151705789Y-84980638D01*
X151600369Y-85051713D01*
X151556368Y-85091911D01*
X151471979Y-85195129D01*
X151413222Y-85307925D01*
X151379704Y-85427010D01*
X151371035Y-85549095D01*
X151386823Y-85670893D01*
X151426678Y-85789116D01*
X151490207Y-85900475D01*
X151577021Y-86001684D01*
X151674029Y-86080887D01*
X151714437Y-86111162D01*
X151742982Y-86137219D01*
X151753257Y-86152825D01*
X151747877Y-86169843D01*
X151732575Y-86210500D01*
X151708612Y-86271642D01*
X151677244Y-86350119D01*
X151639732Y-86442780D01*
X151597333Y-86546472D01*
X151555663Y-86647526D01*
X151509690Y-86758607D01*
X151467107Y-86861541D01*
X151429221Y-86953165D01*
X151397340Y-87030316D01*
X151372771Y-87089831D01*
X151356820Y-87128544D01*
X151350910Y-87143000D01*
X151336948Y-87157685D01*
X151309940Y-87157642D01*
X151266413Y-87142099D01*
X151202890Y-87110284D01*
X151202388Y-87110013D01*
X151154560Y-87085323D01*
X151115897Y-87067338D01*
X151094095Y-87059614D01*
X151093133Y-87059543D01*
X151076721Y-87067378D01*
X151040487Y-87089165D01*
X150988474Y-87122328D01*
X150924725Y-87164291D01*
X150854060Y-87211943D01*
X150782116Y-87260191D01*
X150717274Y-87302151D01*
X150663735Y-87335227D01*
X150625697Y-87356821D01*
X150607533Y-87364343D01*
X150590808Y-87354457D01*
X150557180Y-87326826D01*
X150510010Y-87284495D01*
X150452658Y-87230505D01*
X150388484Y-87167899D01*
X150367497Y-87146983D01*
X150150499Y-86929623D01*
X150315668Y-86687220D01*
X150365864Y-86612781D01*
X150409919Y-86545972D01*
X150445362Y-86490665D01*
X150469719Y-86450729D01*
X150480522Y-86430036D01*
X150480838Y-86428563D01*
X150475143Y-86409058D01*
X150459826Y-86369822D01*
X150437537Y-86317430D01*
X150421893Y-86282355D01*
X150392641Y-86215201D01*
X150365094Y-86147358D01*
X150343737Y-86090034D01*
X150337935Y-86072572D01*
X150321452Y-86025938D01*
X150305340Y-85989905D01*
X150296490Y-85976287D01*
X150276960Y-85967952D01*
X150234334Y-85956137D01*
X150174145Y-85942181D01*
X150101922Y-85927422D01*
X150069600Y-85921355D01*
X149987522Y-85906273D01*
X149908795Y-85891669D01*
X149841109Y-85878980D01*
X149792160Y-85869642D01*
X149782943Y-85867839D01*
X149706743Y-85852799D01*
X149706743Y-85535492D01*
X149706914Y-85431154D01*
X149707616Y-85352213D01*
X149709134Y-85295038D01*
X149711749Y-85255999D01*
X149715746Y-85231465D01*
X149721409Y-85217805D01*
X149729020Y-85211389D01*
X149732143Y-85210199D01*
X149750978Y-85205980D01*
X149792588Y-85197562D01*
X149851630Y-85185961D01*
X149922757Y-85172195D01*
X150000625Y-85157280D01*
X150079887Y-85142232D01*
X150155198Y-85128069D01*
X150221213Y-85115806D01*
X150272587Y-85106461D01*
X150303975Y-85101050D01*
X150310959Y-85100114D01*
X150317285Y-85087596D01*
X150331290Y-85054246D01*
X150350355Y-85006377D01*
X150357634Y-84987629D01*
X150386996Y-84915195D01*
X150421571Y-84835170D01*
X150452537Y-84767728D01*
X150475323Y-84716159D01*
X150490482Y-84673785D01*
X150495542Y-84647834D01*
X150494736Y-84644356D01*
X150484041Y-84627936D01*
X150459620Y-84591417D01*
X150424095Y-84538687D01*
X150380087Y-84473635D01*
X150330217Y-84400151D01*
X150320356Y-84385645D01*
X150262492Y-84299704D01*
X150219956Y-84234261D01*
X150191054Y-84186304D01*
X150174090Y-84152820D01*
X150167367Y-84130795D01*
X150169190Y-84117217D01*
X150169236Y-84117131D01*
X150183586Y-84099297D01*
X150215323Y-84064817D01*
X150261010Y-84017268D01*
X150317204Y-83960222D01*
X150380468Y-83897255D01*
X150387602Y-83890227D01*
X150467330Y-83813020D01*
X150528857Y-83756330D01*
X150573421Y-83719110D01*
X150602257Y-83700315D01*
X150614958Y-83697889D01*
X150633494Y-83708471D01*
X150671961Y-83732916D01*
X150726386Y-83768612D01*
X150792798Y-83812947D01*
X150867225Y-83863311D01*
X150884601Y-83875160D01*
X151131297Y-84043626D01*
X151242706Y-83993062D01*
X151310457Y-83963595D01*
X151383183Y-83933959D01*
X151445703Y-83910330D01*
X151448457Y-83909358D01*
X151497360Y-83891457D01*
X151535057Y-83876320D01*
X151553425Y-83867210D01*
X151553456Y-83867184D01*
X151559285Y-83850717D01*
X151569192Y-83810219D01*
X151582195Y-83750242D01*
X151597309Y-83675340D01*
X151613552Y-83590064D01*
X151614881Y-83582875D01*
X151631175Y-83495014D01*
X151646133Y-83415260D01*
X151658791Y-83348681D01*
X151668186Y-83300347D01*
X151673354Y-83275325D01*
X151673444Y-83274943D01*
X151676589Y-83264299D01*
X151682704Y-83256262D01*
X151695453Y-83250467D01*
X151718500Y-83246547D01*
X151755509Y-83244135D01*
X151810144Y-83242865D01*
X151886067Y-83242371D01*
X151986944Y-83242286D01*
X152000000Y-83242286D01*
X152103910Y-83242348D01*
X152103910Y-83242348D01*
G37*
X152103910Y-83242348D02*
X152182454Y-83242778D01*
X152239298Y-83243942D01*
X152278105Y-83246207D01*
X152302538Y-83249940D01*
X152316262Y-83255506D01*
X152322940Y-83263273D01*
X152326236Y-83273605D01*
X152326556Y-83274943D01*
X152331562Y-83299079D01*
X152340829Y-83346701D01*
X152353392Y-83412741D01*
X152368287Y-83492128D01*
X152384551Y-83579796D01*
X152385119Y-83582875D01*
X152401410Y-83668789D01*
X152416652Y-83744696D01*
X152429861Y-83806045D01*
X152440054Y-83848282D01*
X152446248Y-83866855D01*
X152446543Y-83867184D01*
X152464788Y-83876253D01*
X152502405Y-83891367D01*
X152551271Y-83909262D01*
X152551543Y-83909358D01*
X152613093Y-83932493D01*
X152685657Y-83961965D01*
X152754057Y-83991597D01*
X152757294Y-83993062D01*
X152868702Y-84043626D01*
X153115399Y-83875160D01*
X153191077Y-83823803D01*
X153259631Y-83777889D01*
X153317088Y-83740030D01*
X153359476Y-83712837D01*
X153382825Y-83698921D01*
X153385042Y-83697889D01*
X153402010Y-83702484D01*
X153433701Y-83724655D01*
X153481352Y-83765447D01*
X153546198Y-83825905D01*
X153612397Y-83890227D01*
X153676214Y-83953612D01*
X153733329Y-84011451D01*
X153780305Y-84060175D01*
X153813703Y-84096210D01*
X153830085Y-84115984D01*
X153830694Y-84117002D01*
X153832505Y-84130572D01*
X153825683Y-84152733D01*
X153808540Y-84186478D01*
X153779393Y-84234800D01*
X153736555Y-84300692D01*
X153679448Y-84385517D01*
X153628766Y-84460177D01*
X153583461Y-84527140D01*
X153546150Y-84582516D01*
X153519452Y-84622420D01*
X153505985Y-84642962D01*
X153505137Y-84644356D01*
X153506781Y-84664038D01*
X153519245Y-84702293D01*
X153540048Y-84751889D01*
X153547462Y-84767728D01*
X153579814Y-84838290D01*
X153614328Y-84918353D01*
X153642365Y-84987629D01*
X153662568Y-85039045D01*
X153678615Y-85078119D01*
X153687888Y-85098541D01*
X153689041Y-85100114D01*
X153706096Y-85102721D01*
X153746298Y-85109863D01*
X153804302Y-85120523D01*
X153874763Y-85133685D01*
X153952335Y-85148333D01*
X154031672Y-85163449D01*
X154107431Y-85178018D01*
X154174264Y-85191022D01*
X154226828Y-85201445D01*
X154259776Y-85208270D01*
X154267857Y-85210199D01*
X154276205Y-85214962D01*
X154282506Y-85225718D01*
X154287045Y-85246098D01*
X154290104Y-85279734D01*
X154291967Y-85330255D01*
X154292918Y-85401292D01*
X154293240Y-85496476D01*
X154293257Y-85535492D01*
X154293257Y-85852799D01*
X154217057Y-85867839D01*
X154174663Y-85875995D01*
X154111400Y-85887899D01*
X154034962Y-85902116D01*
X153953043Y-85917210D01*
X153930400Y-85921355D01*
X153854806Y-85936053D01*
X153788953Y-85950505D01*
X153738366Y-85963375D01*
X153708574Y-85973322D01*
X153703612Y-85976287D01*
X153691426Y-85997283D01*
X153673953Y-86037967D01*
X153654577Y-86090322D01*
X153650734Y-86101600D01*
X153625339Y-86171523D01*
X153593817Y-86250418D01*
X153562969Y-86321266D01*
X153562817Y-86321595D01*
X153511447Y-86432733D01*
X153680399Y-86681253D01*
X153849352Y-86929772D01*
X153632429Y-87147058D01*
X153566819Y-87211726D01*
X153506979Y-87268733D01*
X153456267Y-87315033D01*
X153418046Y-87347584D01*
X153395675Y-87363343D01*
X153392466Y-87364343D01*
X153373626Y-87356469D01*
X153335180Y-87334578D01*
X153281330Y-87301267D01*
X153216276Y-87259131D01*
X153145940Y-87211943D01*
X153074555Y-87163810D01*
X153010908Y-87121928D01*
X152959041Y-87088871D01*
X152922995Y-87067218D01*
X152906867Y-87059543D01*
X152887189Y-87066037D01*
X152849875Y-87083150D01*
X152802621Y-87107326D01*
X152797612Y-87110013D01*
X152733977Y-87141927D01*
X152690341Y-87157579D01*
X152663202Y-87157745D01*
X152649057Y-87143204D01*
X152648975Y-87143000D01*
X152641905Y-87125779D01*
X152625042Y-87084899D01*
X152599695Y-87023525D01*
X152567171Y-86944819D01*
X152528778Y-86851947D01*
X152485822Y-86748072D01*
X152444222Y-86647502D01*
X152398504Y-86536516D01*
X152356526Y-86433703D01*
X152319548Y-86342215D01*
X152288827Y-86265201D01*
X152265622Y-86205815D01*
X152251190Y-86167209D01*
X152246743Y-86152800D01*
X152257896Y-86136272D01*
X152287069Y-86109930D01*
X152325971Y-86080887D01*
X152436757Y-85989039D01*
X152523351Y-85883759D01*
X152584716Y-85767266D01*
X152619815Y-85641776D01*
X152627608Y-85509507D01*
X152621943Y-85448457D01*
X152591078Y-85321795D01*
X152537920Y-85209941D01*
X152465767Y-85114001D01*
X152377917Y-85035076D01*
X152277665Y-84974270D01*
X152168310Y-84932687D01*
X152053147Y-84911428D01*
X151935475Y-84911599D01*
X151818590Y-84934301D01*
X151705789Y-84980638D01*
X151600369Y-85051713D01*
X151556368Y-85091911D01*
X151471979Y-85195129D01*
X151413222Y-85307925D01*
X151379704Y-85427010D01*
X151371035Y-85549095D01*
X151386823Y-85670893D01*
X151426678Y-85789116D01*
X151490207Y-85900475D01*
X151577021Y-86001684D01*
X151674029Y-86080887D01*
X151714437Y-86111162D01*
X151742982Y-86137219D01*
X151753257Y-86152825D01*
X151747877Y-86169843D01*
X151732575Y-86210500D01*
X151708612Y-86271642D01*
X151677244Y-86350119D01*
X151639732Y-86442780D01*
X151597333Y-86546472D01*
X151555663Y-86647526D01*
X151509690Y-86758607D01*
X151467107Y-86861541D01*
X151429221Y-86953165D01*
X151397340Y-87030316D01*
X151372771Y-87089831D01*
X151356820Y-87128544D01*
X151350910Y-87143000D01*
X151336948Y-87157685D01*
X151309940Y-87157642D01*
X151266413Y-87142099D01*
X151202890Y-87110284D01*
X151202388Y-87110013D01*
X151154560Y-87085323D01*
X151115897Y-87067338D01*
X151094095Y-87059614D01*
X151093133Y-87059543D01*
X151076721Y-87067378D01*
X151040487Y-87089165D01*
X150988474Y-87122328D01*
X150924725Y-87164291D01*
X150854060Y-87211943D01*
X150782116Y-87260191D01*
X150717274Y-87302151D01*
X150663735Y-87335227D01*
X150625697Y-87356821D01*
X150607533Y-87364343D01*
X150590808Y-87354457D01*
X150557180Y-87326826D01*
X150510010Y-87284495D01*
X150452658Y-87230505D01*
X150388484Y-87167899D01*
X150367497Y-87146983D01*
X150150499Y-86929623D01*
X150315668Y-86687220D01*
X150365864Y-86612781D01*
X150409919Y-86545972D01*
X150445362Y-86490665D01*
X150469719Y-86450729D01*
X150480522Y-86430036D01*
X150480838Y-86428563D01*
X150475143Y-86409058D01*
X150459826Y-86369822D01*
X150437537Y-86317430D01*
X150421893Y-86282355D01*
X150392641Y-86215201D01*
X150365094Y-86147358D01*
X150343737Y-86090034D01*
X150337935Y-86072572D01*
X150321452Y-86025938D01*
X150305340Y-85989905D01*
X150296490Y-85976287D01*
X150276960Y-85967952D01*
X150234334Y-85956137D01*
X150174145Y-85942181D01*
X150101922Y-85927422D01*
X150069600Y-85921355D01*
X149987522Y-85906273D01*
X149908795Y-85891669D01*
X149841109Y-85878980D01*
X149792160Y-85869642D01*
X149782943Y-85867839D01*
X149706743Y-85852799D01*
X149706743Y-85535492D01*
X149706914Y-85431154D01*
X149707616Y-85352213D01*
X149709134Y-85295038D01*
X149711749Y-85255999D01*
X149715746Y-85231465D01*
X149721409Y-85217805D01*
X149729020Y-85211389D01*
X149732143Y-85210199D01*
X149750978Y-85205980D01*
X149792588Y-85197562D01*
X149851630Y-85185961D01*
X149922757Y-85172195D01*
X150000625Y-85157280D01*
X150079887Y-85142232D01*
X150155198Y-85128069D01*
X150221213Y-85115806D01*
X150272587Y-85106461D01*
X150303975Y-85101050D01*
X150310959Y-85100114D01*
X150317285Y-85087596D01*
X150331290Y-85054246D01*
X150350355Y-85006377D01*
X150357634Y-84987629D01*
X150386996Y-84915195D01*
X150421571Y-84835170D01*
X150452537Y-84767728D01*
X150475323Y-84716159D01*
X150490482Y-84673785D01*
X150495542Y-84647834D01*
X150494736Y-84644356D01*
X150484041Y-84627936D01*
X150459620Y-84591417D01*
X150424095Y-84538687D01*
X150380087Y-84473635D01*
X150330217Y-84400151D01*
X150320356Y-84385645D01*
X150262492Y-84299704D01*
X150219956Y-84234261D01*
X150191054Y-84186304D01*
X150174090Y-84152820D01*
X150167367Y-84130795D01*
X150169190Y-84117217D01*
X150169236Y-84117131D01*
X150183586Y-84099297D01*
X150215323Y-84064817D01*
X150261010Y-84017268D01*
X150317204Y-83960222D01*
X150380468Y-83897255D01*
X150387602Y-83890227D01*
X150467330Y-83813020D01*
X150528857Y-83756330D01*
X150573421Y-83719110D01*
X150602257Y-83700315D01*
X150614958Y-83697889D01*
X150633494Y-83708471D01*
X150671961Y-83732916D01*
X150726386Y-83768612D01*
X150792798Y-83812947D01*
X150867225Y-83863311D01*
X150884601Y-83875160D01*
X151131297Y-84043626D01*
X151242706Y-83993062D01*
X151310457Y-83963595D01*
X151383183Y-83933959D01*
X151445703Y-83910330D01*
X151448457Y-83909358D01*
X151497360Y-83891457D01*
X151535057Y-83876320D01*
X151553425Y-83867210D01*
X151553456Y-83867184D01*
X151559285Y-83850717D01*
X151569192Y-83810219D01*
X151582195Y-83750242D01*
X151597309Y-83675340D01*
X151613552Y-83590064D01*
X151614881Y-83582875D01*
X151631175Y-83495014D01*
X151646133Y-83415260D01*
X151658791Y-83348681D01*
X151668186Y-83300347D01*
X151673354Y-83275325D01*
X151673444Y-83274943D01*
X151676589Y-83264299D01*
X151682704Y-83256262D01*
X151695453Y-83250467D01*
X151718500Y-83246547D01*
X151755509Y-83244135D01*
X151810144Y-83242865D01*
X151886067Y-83242371D01*
X151986944Y-83242286D01*
X152000000Y-83242286D01*
X152103910Y-83242348D01*
D12*
G04 #@! TO.C,U2*
X159974600Y-95000000D02*
G75*
G03X159974600Y-95000000I-1974600J0D01*
G01*
X156277000Y-92330000D02*
X155427000Y-93180000D01*
X157127000Y-93180000D02*
X156277000Y-92330000D01*
X156277000Y-94030000D02*
X155427000Y-93180000D01*
X163207000Y-95000000D02*
G75*
G03X163207000Y-95000000I-5207000J0D01*
G01*
G04 #@! TO.C,RN1*
X173000000Y-104100000D02*
X180800000Y-104100000D01*
X180800000Y-104100000D02*
X180800000Y-101300000D01*
X180800000Y-101300000D02*
X173000000Y-101300000D01*
X173000000Y-101300000D02*
X173000000Y-104100000D01*
G04 #@! TO.C,C1*
X181510000Y-94002064D02*
X181510000Y-92797936D01*
X179690000Y-94002064D02*
X179690000Y-92797936D01*
G04 #@! TO.C,C2*
X168790000Y-96402064D02*
X168790000Y-95197936D01*
X170610000Y-96402064D02*
X170610000Y-95197936D01*
G04 #@! TO.C,C3*
X176602064Y-100510000D02*
X175397936Y-100510000D01*
X176602064Y-98690000D02*
X175397936Y-98690000D01*
G04 #@! TO.C,R1*
X170590000Y-104862779D02*
X170590000Y-104537221D01*
X171610000Y-104862779D02*
X171610000Y-104537221D01*
G04 #@! TO.C,R2*
X171610000Y-101162779D02*
X171610000Y-100837221D01*
X170590000Y-101162779D02*
X170590000Y-100837221D01*
G04 #@! TO.C,U1*
X164700000Y-84840000D02*
X162800000Y-84840000D01*
X163300000Y-87160000D02*
X164700000Y-87160000D01*
D10*
G04 #@! TO.C,U3*
X173225000Y-93025000D02*
X173225000Y-93075000D01*
X177375000Y-93025000D02*
X177375000Y-93170000D01*
X177375000Y-98175000D02*
X177375000Y-98030000D01*
X173225000Y-98175000D02*
X173225000Y-98030000D01*
X173225000Y-93025000D02*
X177375000Y-93025000D01*
X173225000Y-98175000D02*
X177375000Y-98175000D01*
X173225000Y-93075000D02*
X171825000Y-93075000D01*
G04 #@! TO.C,U2*
X157238095Y-85552380D02*
X157238095Y-86361904D01*
X157285714Y-86457142D01*
X157333333Y-86504761D01*
X157428571Y-86552380D01*
X157619047Y-86552380D01*
X157714285Y-86504761D01*
X157761904Y-86457142D01*
X157809523Y-86361904D01*
X157809523Y-85552380D01*
X158238095Y-85647619D02*
X158285714Y-85600000D01*
X158380952Y-85552380D01*
X158619047Y-85552380D01*
X158714285Y-85600000D01*
X158761904Y-85647619D01*
X158809523Y-85742857D01*
X158809523Y-85838095D01*
X158761904Y-85980952D01*
X158190476Y-86552380D01*
X158809523Y-86552380D01*
G04 #@! TO.C,RN1*
X178009523Y-106352380D02*
X177676190Y-105876190D01*
X177438095Y-106352380D02*
X177438095Y-105352380D01*
X177819047Y-105352380D01*
X177914285Y-105400000D01*
X177961904Y-105447619D01*
X178009523Y-105542857D01*
X178009523Y-105685714D01*
X177961904Y-105780952D01*
X177914285Y-105828571D01*
X177819047Y-105876190D01*
X177438095Y-105876190D01*
X178438095Y-106352380D02*
X178438095Y-105352380D01*
X179009523Y-106352380D01*
X179009523Y-105352380D01*
X180009523Y-106352380D02*
X179438095Y-106352380D01*
X179723809Y-106352380D02*
X179723809Y-105352380D01*
X179628571Y-105495238D01*
X179533333Y-105590476D01*
X179438095Y-105638095D01*
G04 #@! TO.C,C1*
X180433333Y-97257142D02*
X180385714Y-97304761D01*
X180242857Y-97352380D01*
X180147619Y-97352380D01*
X180004761Y-97304761D01*
X179909523Y-97209523D01*
X179861904Y-97114285D01*
X179814285Y-96923809D01*
X179814285Y-96780952D01*
X179861904Y-96590476D01*
X179909523Y-96495238D01*
X180004761Y-96400000D01*
X180147619Y-96352380D01*
X180242857Y-96352380D01*
X180385714Y-96400000D01*
X180433333Y-96447619D01*
X181385714Y-97352380D02*
X180814285Y-97352380D01*
X181100000Y-97352380D02*
X181100000Y-96352380D01*
X181004761Y-96495238D01*
X180909523Y-96590476D01*
X180814285Y-96638095D01*
G04 #@! TO.C,C2*
X169533333Y-92557142D02*
X169485714Y-92604761D01*
X169342857Y-92652380D01*
X169247619Y-92652380D01*
X169104761Y-92604761D01*
X169009523Y-92509523D01*
X168961904Y-92414285D01*
X168914285Y-92223809D01*
X168914285Y-92080952D01*
X168961904Y-91890476D01*
X169009523Y-91795238D01*
X169104761Y-91700000D01*
X169247619Y-91652380D01*
X169342857Y-91652380D01*
X169485714Y-91700000D01*
X169533333Y-91747619D01*
X169914285Y-91747619D02*
X169961904Y-91700000D01*
X170057142Y-91652380D01*
X170295238Y-91652380D01*
X170390476Y-91700000D01*
X170438095Y-91747619D01*
X170485714Y-91842857D01*
X170485714Y-91938095D01*
X170438095Y-92080952D01*
X169866666Y-92652380D01*
X170485714Y-92652380D01*
G04 #@! TO.C,C3*
X179933333Y-99957142D02*
X179885714Y-100004761D01*
X179742857Y-100052380D01*
X179647619Y-100052380D01*
X179504761Y-100004761D01*
X179409523Y-99909523D01*
X179361904Y-99814285D01*
X179314285Y-99623809D01*
X179314285Y-99480952D01*
X179361904Y-99290476D01*
X179409523Y-99195238D01*
X179504761Y-99100000D01*
X179647619Y-99052380D01*
X179742857Y-99052380D01*
X179885714Y-99100000D01*
X179933333Y-99147619D01*
X180266666Y-99052380D02*
X180885714Y-99052380D01*
X180552380Y-99433333D01*
X180695238Y-99433333D01*
X180790476Y-99480952D01*
X180838095Y-99528571D01*
X180885714Y-99623809D01*
X180885714Y-99861904D01*
X180838095Y-99957142D01*
X180790476Y-100004761D01*
X180695238Y-100052380D01*
X180409523Y-100052380D01*
X180314285Y-100004761D01*
X180266666Y-99957142D01*
G04 #@! TO.C,R1*
X169033333Y-105152380D02*
X168700000Y-104676190D01*
X168461904Y-105152380D02*
X168461904Y-104152380D01*
X168842857Y-104152380D01*
X168938095Y-104200000D01*
X168985714Y-104247619D01*
X169033333Y-104342857D01*
X169033333Y-104485714D01*
X168985714Y-104580952D01*
X168938095Y-104628571D01*
X168842857Y-104676190D01*
X168461904Y-104676190D01*
X169985714Y-105152380D02*
X169414285Y-105152380D01*
X169700000Y-105152380D02*
X169700000Y-104152380D01*
X169604761Y-104295238D01*
X169509523Y-104390476D01*
X169414285Y-104438095D01*
G04 #@! TO.C,R2*
X169033333Y-101452380D02*
X168700000Y-100976190D01*
X168461904Y-101452380D02*
X168461904Y-100452380D01*
X168842857Y-100452380D01*
X168938095Y-100500000D01*
X168985714Y-100547619D01*
X169033333Y-100642857D01*
X169033333Y-100785714D01*
X168985714Y-100880952D01*
X168938095Y-100928571D01*
X168842857Y-100976190D01*
X168461904Y-100976190D01*
X169414285Y-100547619D02*
X169461904Y-100500000D01*
X169557142Y-100452380D01*
X169795238Y-100452380D01*
X169890476Y-100500000D01*
X169938095Y-100547619D01*
X169985714Y-100642857D01*
X169985714Y-100738095D01*
X169938095Y-100880952D01*
X169366666Y-101452380D01*
X169985714Y-101452380D01*
G04 #@! TO.C,U1*
X163238095Y-83452380D02*
X163238095Y-84261904D01*
X163285714Y-84357142D01*
X163333333Y-84404761D01*
X163428571Y-84452380D01*
X163619047Y-84452380D01*
X163714285Y-84404761D01*
X163761904Y-84357142D01*
X163809523Y-84261904D01*
X163809523Y-83452380D01*
X164809523Y-84452380D02*
X164238095Y-84452380D01*
X164523809Y-84452380D02*
X164523809Y-83452380D01*
X164428571Y-83595238D01*
X164333333Y-83690476D01*
X164238095Y-83738095D01*
G04 #@! TO.C,U3*
X174538095Y-91552380D02*
X174538095Y-92361904D01*
X174585714Y-92457142D01*
X174633333Y-92504761D01*
X174728571Y-92552380D01*
X174919047Y-92552380D01*
X175014285Y-92504761D01*
X175061904Y-92457142D01*
X175109523Y-92361904D01*
X175109523Y-91552380D01*
X175490476Y-91552380D02*
X176109523Y-91552380D01*
X175776190Y-91933333D01*
X175919047Y-91933333D01*
X176014285Y-91980952D01*
X176061904Y-92028571D01*
X176109523Y-92123809D01*
X176109523Y-92361904D01*
X176061904Y-92457142D01*
X176014285Y-92504761D01*
X175919047Y-92552380D01*
X175633333Y-92552380D01*
X175538095Y-92504761D01*
X175490476Y-92457142D01*
G04 #@! TD*
M02*
