G04 #@! TF.GenerationSoftware,KiCad,Pcbnew,(2017-06-16 revision 2018d4894)-master*
G04 #@! TF.CreationDate,2017-08-18T11:46:34+02:00*
G04 #@! TF.ProjectId,reference_board,7265666572656E63655F626F6172642E,rev?*
G04 #@! TF.SameCoordinates,Original
G04 #@! TF.FileFunction,Soldermask,Top*
G04 #@! TF.FilePolarity,Negative*
%FSLAX46Y46*%
G04 Gerber Fmt 4.6, Leading zero omitted, Abs format (unit mm)*
G04 Created by KiCad (PCBNEW (2017-06-16 revision 2018d4894)-master) date Fri Aug 18 11:46:34 2017*
%MOMM*%
%LPD*%
G01*
G04 APERTURE LIST*
%ADD10C,0.100000*%
%ADD11C,1.900000*%
%ADD12R,1.650000X1.400000*%
%ADD13C,1.500000*%
%ADD14R,1.400000X2.000000*%
%ADD15R,1.000000X1.950000*%
%ADD16R,1.800000X0.700000*%
%ADD17R,2.100000X2.100000*%
%ADD18O,2.100000X2.100000*%
%ADD19C,0.254000*%
G04 APERTURE END LIST*
D10*
D11*
X186055000Y-101346000D03*
X189865000Y-101346000D03*
D12*
X191000000Y-95000000D03*
X191000000Y-93000000D03*
D13*
X150000000Y-96270000D03*
X150000000Y-93730000D03*
X151270000Y-95000000D03*
X148730000Y-95000000D03*
D14*
X189500000Y-104140000D03*
X186500000Y-104140000D03*
D11*
X181310000Y-97500000D03*
X181310000Y-93690000D03*
X173000000Y-95885000D03*
X176810000Y-95885000D03*
D15*
X160147000Y-93505000D03*
X161417000Y-93505000D03*
X162687000Y-93505000D03*
X163957000Y-93505000D03*
X163957000Y-88105000D03*
X162687000Y-88105000D03*
X161417000Y-88105000D03*
X160147000Y-88105000D03*
D16*
X184446000Y-95419000D03*
X184446000Y-95919000D03*
X184446000Y-96419000D03*
X184446000Y-96919000D03*
X184446000Y-97419000D03*
X188846000Y-97419000D03*
X188846000Y-96919000D03*
X188846000Y-96419000D03*
X188846000Y-95919000D03*
X188846000Y-95419000D03*
D17*
X179040000Y-86960000D03*
D18*
X179040000Y-89500000D03*
X176500000Y-86960000D03*
X176500000Y-89500000D03*
X173960000Y-86960000D03*
X173960000Y-89500000D03*
X171420000Y-86960000D03*
X171420000Y-89500000D03*
D12*
X182500000Y-101250000D03*
X182500000Y-103250000D03*
D19*
G36*
X183123000Y-97397394D02*
X183060197Y-97460197D01*
X183032667Y-97501399D01*
X183023000Y-97550000D01*
X183023000Y-99497394D01*
X182747394Y-99773000D01*
X180800000Y-99773000D01*
X180751399Y-99782667D01*
X180710197Y-99810197D01*
X174497394Y-106023000D01*
X152252606Y-106023000D01*
X149477000Y-103247394D01*
X149477000Y-97641537D01*
X149523000Y-97626203D01*
X149523000Y-103200000D01*
X149532667Y-103248601D01*
X149560197Y-103289803D01*
X152210197Y-105939803D01*
X152251399Y-105967333D01*
X152300000Y-105977000D01*
X174450000Y-105977000D01*
X174498601Y-105967333D01*
X174539803Y-105939803D01*
X180752606Y-99727000D01*
X182700000Y-99727000D01*
X182748601Y-99717333D01*
X182789803Y-99689803D01*
X182939803Y-99539803D01*
X182967333Y-99498601D01*
X182977000Y-99450000D01*
X182977000Y-97502606D01*
X183123000Y-97356606D01*
X183123000Y-97397394D01*
X183123000Y-97397394D01*
G37*
X183123000Y-97397394D02*
X183060197Y-97460197D01*
X183032667Y-97501399D01*
X183023000Y-97550000D01*
X183023000Y-99497394D01*
X182747394Y-99773000D01*
X180800000Y-99773000D01*
X180751399Y-99782667D01*
X180710197Y-99810197D01*
X174497394Y-106023000D01*
X152252606Y-106023000D01*
X149477000Y-103247394D01*
X149477000Y-97641537D01*
X149523000Y-97626203D01*
X149523000Y-103200000D01*
X149532667Y-103248601D01*
X149560197Y-103289803D01*
X152210197Y-105939803D01*
X152251399Y-105967333D01*
X152300000Y-105977000D01*
X174450000Y-105977000D01*
X174498601Y-105967333D01*
X174539803Y-105939803D01*
X180752606Y-99727000D01*
X182700000Y-99727000D01*
X182748601Y-99717333D01*
X182789803Y-99689803D01*
X182939803Y-99539803D01*
X182967333Y-99498601D01*
X182977000Y-99450000D01*
X182977000Y-97502606D01*
X183123000Y-97356606D01*
X183123000Y-97397394D01*
G36*
X183123000Y-95973000D02*
X179900000Y-95973000D01*
X179851399Y-95982667D01*
X179810197Y-96010197D01*
X179782667Y-96051399D01*
X179773000Y-96100000D01*
X179773000Y-99297076D01*
X173997714Y-105023000D01*
X152752606Y-105023000D01*
X150477000Y-102747394D01*
X150477000Y-97552606D01*
X150541648Y-97487958D01*
X150532667Y-97501399D01*
X150523000Y-97550000D01*
X150523000Y-102700000D01*
X150532667Y-102748601D01*
X150560197Y-102789803D01*
X152710197Y-104939803D01*
X152751399Y-104967333D01*
X152800000Y-104977000D01*
X173950000Y-104977000D01*
X173998601Y-104967333D01*
X174040204Y-104939399D01*
X179590204Y-99339399D01*
X179617549Y-99298074D01*
X179627000Y-99250000D01*
X179627000Y-95877000D01*
X183123000Y-95877000D01*
X183123000Y-95973000D01*
X183123000Y-95973000D01*
G37*
X183123000Y-95973000D02*
X179900000Y-95973000D01*
X179851399Y-95982667D01*
X179810197Y-96010197D01*
X179782667Y-96051399D01*
X179773000Y-96100000D01*
X179773000Y-99297076D01*
X173997714Y-105023000D01*
X152752606Y-105023000D01*
X150477000Y-102747394D01*
X150477000Y-97552606D01*
X150541648Y-97487958D01*
X150532667Y-97501399D01*
X150523000Y-97550000D01*
X150523000Y-102700000D01*
X150532667Y-102748601D01*
X150560197Y-102789803D01*
X152710197Y-104939803D01*
X152751399Y-104967333D01*
X152800000Y-104977000D01*
X173950000Y-104977000D01*
X173998601Y-104967333D01*
X174040204Y-104939399D01*
X179590204Y-99339399D01*
X179617549Y-99298074D01*
X179627000Y-99250000D01*
X179627000Y-95877000D01*
X183123000Y-95877000D01*
X183123000Y-95973000D01*
G36*
X148982667Y-96948601D02*
X149010197Y-96989803D01*
X149414893Y-97394499D01*
X149384302Y-97404696D01*
X148977000Y-96997394D01*
X148977000Y-96920110D01*
X148982667Y-96948601D01*
X148982667Y-96948601D01*
G37*
X148982667Y-96948601D02*
X149010197Y-96989803D01*
X149414893Y-97394499D01*
X149384302Y-97404696D01*
X148977000Y-96997394D01*
X148977000Y-96920110D01*
X148982667Y-96948601D01*
G36*
X151023000Y-96997394D02*
X151008352Y-97012042D01*
X151017333Y-96998601D01*
X151023000Y-96970110D01*
X151023000Y-96997394D01*
X151023000Y-96997394D01*
G37*
X151023000Y-96997394D02*
X151008352Y-97012042D01*
X151017333Y-96998601D01*
X151023000Y-96970110D01*
X151023000Y-96997394D01*
M02*
