G04 #@! TF.GenerationSoftware,KiCad,Pcbnew,(6.0.4)*
G04 #@! TF.CreationDate,2022-04-17T03:50:03+02:00*
G04 #@! TF.ProjectId,reference_board,72656665-7265-46e6-9365-5f626f617264,v3.4.0*
G04 #@! TF.SameCoordinates,Original*
G04 #@! TF.FileFunction,Legend,Top*
G04 #@! TF.FilePolarity,Positive*
%FSLAX46Y46*%
G04 Gerber Fmt 4.6, Leading zero omitted, Abs format (unit mm)*
G04 Created by KiCad (PCBNEW (6.0.4)) date 2022-04-17 03:50:03*
%MOMM*%
%LPD*%
G01*
G04 APERTURE LIST*
%ADD10C,0.150000*%
%ADD11C,0.120000*%
%ADD12C,0.010000*%
G04 APERTURE END LIST*
D10*
X126214285Y-57161904D02*
X126480952Y-57961904D01*
X126747619Y-57161904D01*
X126938095Y-57428571D02*
X127357142Y-57428571D01*
X126938095Y-57961904D01*
X127357142Y-57961904D01*
X127661904Y-57657142D02*
X128271428Y-57657142D01*
X127966666Y-57961904D02*
X127966666Y-57352380D01*
X129390476Y-50600000D02*
X129314285Y-50561904D01*
X129200000Y-50561904D01*
X129085714Y-50600000D01*
X129009523Y-50676190D01*
X128971428Y-50752380D01*
X128933333Y-50904761D01*
X128933333Y-51019047D01*
X128971428Y-51171428D01*
X129009523Y-51247619D01*
X129085714Y-51323809D01*
X129200000Y-51361904D01*
X129276190Y-51361904D01*
X129390476Y-51323809D01*
X129428571Y-51285714D01*
X129428571Y-51019047D01*
X129276190Y-51019047D01*
X129771428Y-51361904D02*
X129771428Y-50561904D01*
X130228571Y-51361904D01*
X130228571Y-50561904D01*
X130609523Y-51361904D02*
X130609523Y-50561904D01*
X130800000Y-50561904D01*
X130914285Y-50600000D01*
X130990476Y-50676190D01*
X131028571Y-50752380D01*
X131066666Y-50904761D01*
X131066666Y-51019047D01*
X131028571Y-51171428D01*
X130990476Y-51247619D01*
X130914285Y-51323809D01*
X130800000Y-51361904D01*
X130609523Y-51361904D01*
X121180952Y-50461904D02*
X121447619Y-51261904D01*
X121714285Y-50461904D01*
X121904761Y-50461904D02*
X122400000Y-50461904D01*
X122133333Y-50766666D01*
X122247619Y-50766666D01*
X122323809Y-50804761D01*
X122361904Y-50842857D01*
X122400000Y-50919047D01*
X122400000Y-51109523D01*
X122361904Y-51185714D01*
X122323809Y-51223809D01*
X122247619Y-51261904D01*
X122019047Y-51261904D01*
X121942857Y-51223809D01*
X121904761Y-51185714D01*
X122742857Y-51185714D02*
X122780952Y-51223809D01*
X122742857Y-51261904D01*
X122704761Y-51223809D01*
X122742857Y-51185714D01*
X122742857Y-51261904D01*
X123047619Y-50461904D02*
X123542857Y-50461904D01*
X123276190Y-50766666D01*
X123390476Y-50766666D01*
X123466666Y-50804761D01*
X123504761Y-50842857D01*
X123542857Y-50919047D01*
X123542857Y-51109523D01*
X123504761Y-51185714D01*
X123466666Y-51223809D01*
X123390476Y-51261904D01*
X123161904Y-51261904D01*
X123085714Y-51223809D01*
X123047619Y-51185714D01*
X128590476Y-57161904D02*
X128857142Y-57961904D01*
X129123809Y-57161904D01*
X129314285Y-57428571D02*
X129733333Y-57428571D01*
X129314285Y-57961904D01*
X129733333Y-57961904D01*
X130038095Y-57657142D02*
X130647619Y-57657142D01*
X130342857Y-57961904D02*
X130342857Y-57352380D01*
X130990476Y-57923809D02*
X131066666Y-57961904D01*
X131219047Y-57961904D01*
X131295238Y-57923809D01*
X131333333Y-57847619D01*
X131333333Y-57809523D01*
X131295238Y-57733333D01*
X131219047Y-57695238D01*
X131104761Y-57695238D01*
X131028571Y-57657142D01*
X130990476Y-57580952D01*
X130990476Y-57542857D01*
X131028571Y-57466666D01*
X131104761Y-57428571D01*
X131219047Y-57428571D01*
X131295238Y-57466666D01*
X124238095Y-57161904D02*
X124504761Y-57961904D01*
X124771428Y-57161904D01*
X125038095Y-57657142D02*
X125647619Y-57657142D01*
X125342857Y-57961904D02*
X125342857Y-57352380D01*
X121542857Y-57161904D02*
X121809523Y-57961904D01*
X122076190Y-57161904D01*
X122228571Y-57428571D02*
X122533333Y-57428571D01*
X122342857Y-57161904D02*
X122342857Y-57847619D01*
X122380952Y-57923809D01*
X122457142Y-57961904D01*
X122533333Y-57961904D01*
X122800000Y-57961904D02*
X122800000Y-57161904D01*
X123142857Y-57961904D02*
X123142857Y-57542857D01*
X123104761Y-57466666D01*
X123028571Y-57428571D01*
X122914285Y-57428571D01*
X122838095Y-57466666D01*
X122800000Y-57504761D01*
X108283452Y-73861904D02*
X108016785Y-73480952D01*
X107826309Y-73861904D02*
X107826309Y-73061904D01*
X108131071Y-73061904D01*
X108207261Y-73100000D01*
X108245357Y-73138095D01*
X108283452Y-73214285D01*
X108283452Y-73328571D01*
X108245357Y-73404761D01*
X108207261Y-73442857D01*
X108131071Y-73480952D01*
X107826309Y-73480952D01*
X109045357Y-73861904D02*
X108588214Y-73861904D01*
X108816785Y-73861904D02*
X108816785Y-73061904D01*
X108740595Y-73176190D01*
X108664404Y-73252380D01*
X108588214Y-73290476D01*
X109388214Y-73785714D02*
X109426309Y-73823809D01*
X109388214Y-73861904D01*
X109350119Y-73823809D01*
X109388214Y-73785714D01*
X109388214Y-73861904D01*
X109388214Y-73366666D02*
X109426309Y-73404761D01*
X109388214Y-73442857D01*
X109350119Y-73404761D01*
X109388214Y-73366666D01*
X109388214Y-73442857D01*
X110797738Y-73861904D02*
X110340595Y-73861904D01*
X110569166Y-73861904D02*
X110569166Y-73061904D01*
X110492976Y-73176190D01*
X110416785Y-73252380D01*
X110340595Y-73290476D01*
X111292976Y-73061904D02*
X111369166Y-73061904D01*
X111445357Y-73100000D01*
X111483452Y-73138095D01*
X111521547Y-73214285D01*
X111559642Y-73366666D01*
X111559642Y-73557142D01*
X111521547Y-73709523D01*
X111483452Y-73785714D01*
X111445357Y-73823809D01*
X111369166Y-73861904D01*
X111292976Y-73861904D01*
X111216785Y-73823809D01*
X111178690Y-73785714D01*
X111140595Y-73709523D01*
X111102500Y-73557142D01*
X111102500Y-73366666D01*
X111140595Y-73214285D01*
X111178690Y-73138095D01*
X111216785Y-73100000D01*
X111292976Y-73061904D01*
X112512023Y-73328571D02*
X112512023Y-74128571D01*
X112512023Y-73366666D02*
X112588214Y-73328571D01*
X112740595Y-73328571D01*
X112816785Y-73366666D01*
X112854880Y-73404761D01*
X112892976Y-73480952D01*
X112892976Y-73709523D01*
X112854880Y-73785714D01*
X112816785Y-73823809D01*
X112740595Y-73861904D01*
X112588214Y-73861904D01*
X112512023Y-73823809D01*
X113235833Y-73328571D02*
X113235833Y-74128571D01*
X113235833Y-73366666D02*
X113312023Y-73328571D01*
X113464404Y-73328571D01*
X113540595Y-73366666D01*
X113578690Y-73404761D01*
X113616785Y-73480952D01*
X113616785Y-73709523D01*
X113578690Y-73785714D01*
X113540595Y-73823809D01*
X113464404Y-73861904D01*
X113312023Y-73861904D01*
X113235833Y-73823809D01*
X113959642Y-73861904D02*
X113959642Y-73328571D01*
X113959642Y-73404761D02*
X113997738Y-73366666D01*
X114073928Y-73328571D01*
X114188214Y-73328571D01*
X114264404Y-73366666D01*
X114302500Y-73442857D01*
X114302500Y-73861904D01*
X114302500Y-73442857D02*
X114340595Y-73366666D01*
X114416785Y-73328571D01*
X114531071Y-73328571D01*
X114607261Y-73366666D01*
X114645357Y-73442857D01*
X114645357Y-73861904D01*
X115597738Y-73023809D02*
X114912023Y-74052380D01*
X115864404Y-73861904D02*
X115864404Y-73061904D01*
X116321547Y-73861904D02*
X115978690Y-73404761D01*
X116321547Y-73061904D02*
X115864404Y-73519047D01*
X117273928Y-73861904D02*
X117273928Y-73328571D01*
X117273928Y-73404761D02*
X117312023Y-73366666D01*
X117388214Y-73328571D01*
X117502500Y-73328571D01*
X117578690Y-73366666D01*
X117616785Y-73442857D01*
X117616785Y-73861904D01*
X117616785Y-73442857D02*
X117654880Y-73366666D01*
X117731071Y-73328571D01*
X117845357Y-73328571D01*
X117921547Y-73366666D01*
X117959642Y-73442857D01*
X117959642Y-73861904D01*
X118683452Y-73861904D02*
X118683452Y-73442857D01*
X118645357Y-73366666D01*
X118569166Y-73328571D01*
X118416785Y-73328571D01*
X118340595Y-73366666D01*
X118683452Y-73823809D02*
X118607261Y-73861904D01*
X118416785Y-73861904D01*
X118340595Y-73823809D01*
X118302500Y-73747619D01*
X118302500Y-73671428D01*
X118340595Y-73595238D01*
X118416785Y-73557142D01*
X118607261Y-73557142D01*
X118683452Y-73519047D01*
X118988214Y-73861904D02*
X119407261Y-73328571D01*
X118988214Y-73328571D02*
X119407261Y-73861904D01*
X119712023Y-73785714D02*
X119750119Y-73823809D01*
X119712023Y-73861904D01*
X119673928Y-73823809D01*
X119712023Y-73785714D01*
X119712023Y-73861904D01*
X126414285Y-50461904D02*
X126680952Y-51261904D01*
X126947619Y-50461904D01*
X127138095Y-50728571D02*
X127557142Y-50728571D01*
X127138095Y-51261904D01*
X127557142Y-51261904D01*
X127861904Y-50957142D02*
X128471428Y-50957142D01*
X124238095Y-50461904D02*
X124504761Y-51261904D01*
X124771428Y-50461904D01*
X125038095Y-50957142D02*
X125647619Y-50957142D01*
X120177142Y-60666666D02*
X120224761Y-60714285D01*
X120272380Y-60857142D01*
X120272380Y-60952380D01*
X120224761Y-61095238D01*
X120129523Y-61190476D01*
X120034285Y-61238095D01*
X119843809Y-61285714D01*
X119700952Y-61285714D01*
X119510476Y-61238095D01*
X119415238Y-61190476D01*
X119320000Y-61095238D01*
X119272380Y-60952380D01*
X119272380Y-60857142D01*
X119320000Y-60714285D01*
X119367619Y-60666666D01*
X119272380Y-59761904D02*
X119272380Y-60238095D01*
X119748571Y-60285714D01*
X119700952Y-60238095D01*
X119653333Y-60142857D01*
X119653333Y-59904761D01*
X119700952Y-59809523D01*
X119748571Y-59761904D01*
X119843809Y-59714285D01*
X120081904Y-59714285D01*
X120177142Y-59761904D01*
X120224761Y-59809523D01*
X120272380Y-59904761D01*
X120272380Y-60142857D01*
X120224761Y-60238095D01*
X120177142Y-60285714D01*
X126333333Y-66857142D02*
X126285714Y-66904761D01*
X126142857Y-66952380D01*
X126047619Y-66952380D01*
X125904761Y-66904761D01*
X125809523Y-66809523D01*
X125761904Y-66714285D01*
X125714285Y-66523809D01*
X125714285Y-66380952D01*
X125761904Y-66190476D01*
X125809523Y-66095238D01*
X125904761Y-66000000D01*
X126047619Y-65952380D01*
X126142857Y-65952380D01*
X126285714Y-66000000D01*
X126333333Y-66047619D01*
X127190476Y-65952380D02*
X127000000Y-65952380D01*
X126904761Y-66000000D01*
X126857142Y-66047619D01*
X126761904Y-66190476D01*
X126714285Y-66380952D01*
X126714285Y-66761904D01*
X126761904Y-66857142D01*
X126809523Y-66904761D01*
X126904761Y-66952380D01*
X127095238Y-66952380D01*
X127190476Y-66904761D01*
X127238095Y-66857142D01*
X127285714Y-66761904D01*
X127285714Y-66523809D01*
X127238095Y-66428571D01*
X127190476Y-66380952D01*
X127095238Y-66333333D01*
X126904761Y-66333333D01*
X126809523Y-66380952D01*
X126761904Y-66428571D01*
X126714285Y-66523809D01*
X111238095Y-52452380D02*
X111238095Y-53261904D01*
X111285714Y-53357142D01*
X111333333Y-53404761D01*
X111428571Y-53452380D01*
X111619047Y-53452380D01*
X111714285Y-53404761D01*
X111761904Y-53357142D01*
X111809523Y-53261904D01*
X111809523Y-52452380D01*
X112809523Y-53452380D02*
X112238095Y-53452380D01*
X112523809Y-53452380D02*
X112523809Y-52452380D01*
X112428571Y-52595238D01*
X112333333Y-52690476D01*
X112238095Y-52738095D01*
X127309523Y-72952380D02*
X126976190Y-72476190D01*
X126738095Y-72952380D02*
X126738095Y-71952380D01*
X127119047Y-71952380D01*
X127214285Y-72000000D01*
X127261904Y-72047619D01*
X127309523Y-72142857D01*
X127309523Y-72285714D01*
X127261904Y-72380952D01*
X127214285Y-72428571D01*
X127119047Y-72476190D01*
X126738095Y-72476190D01*
X127738095Y-72952380D02*
X127738095Y-71952380D01*
X128309523Y-72952380D01*
X128309523Y-71952380D01*
X129309523Y-72952380D02*
X128738095Y-72952380D01*
X129023809Y-72952380D02*
X129023809Y-71952380D01*
X128928571Y-72095238D01*
X128833333Y-72190476D01*
X128738095Y-72238095D01*
X118457142Y-51866666D02*
X118504761Y-51914285D01*
X118552380Y-52057142D01*
X118552380Y-52152380D01*
X118504761Y-52295238D01*
X118409523Y-52390476D01*
X118314285Y-52438095D01*
X118123809Y-52485714D01*
X117980952Y-52485714D01*
X117790476Y-52438095D01*
X117695238Y-52390476D01*
X117600000Y-52295238D01*
X117552380Y-52152380D01*
X117552380Y-52057142D01*
X117600000Y-51914285D01*
X117647619Y-51866666D01*
X118552380Y-50914285D02*
X118552380Y-51485714D01*
X118552380Y-51200000D02*
X117552380Y-51200000D01*
X117695238Y-51295238D01*
X117790476Y-51390476D01*
X117838095Y-51485714D01*
X133452380Y-68238095D02*
X132452380Y-68238095D01*
X132452380Y-68000000D01*
X132500000Y-67857142D01*
X132595238Y-67761904D01*
X132690476Y-67714285D01*
X132880952Y-67666666D01*
X133023809Y-67666666D01*
X133214285Y-67714285D01*
X133309523Y-67761904D01*
X133404761Y-67857142D01*
X133452380Y-68000000D01*
X133452380Y-68238095D01*
X133452380Y-66714285D02*
X133452380Y-67285714D01*
X133452380Y-67000000D02*
X132452380Y-67000000D01*
X132595238Y-67095238D01*
X132690476Y-67190476D01*
X132738095Y-67285714D01*
X133507142Y-59666666D02*
X133554761Y-59714285D01*
X133602380Y-59857142D01*
X133602380Y-59952380D01*
X133554761Y-60095238D01*
X133459523Y-60190476D01*
X133364285Y-60238095D01*
X133173809Y-60285714D01*
X133030952Y-60285714D01*
X132840476Y-60238095D01*
X132745238Y-60190476D01*
X132650000Y-60095238D01*
X132602380Y-59952380D01*
X132602380Y-59857142D01*
X132650000Y-59714285D01*
X132697619Y-59666666D01*
X132935714Y-58809523D02*
X133602380Y-58809523D01*
X132554761Y-59047619D02*
X133269047Y-59285714D01*
X133269047Y-58666666D01*
X108238095Y-70452380D02*
X108238095Y-71261904D01*
X108285714Y-71357142D01*
X108333333Y-71404761D01*
X108428571Y-71452380D01*
X108619047Y-71452380D01*
X108714285Y-71404761D01*
X108761904Y-71357142D01*
X108809523Y-71261904D01*
X108809523Y-70452380D01*
X109238095Y-70547619D02*
X109285714Y-70500000D01*
X109380952Y-70452380D01*
X109619047Y-70452380D01*
X109714285Y-70500000D01*
X109761904Y-70547619D01*
X109809523Y-70642857D01*
X109809523Y-70738095D01*
X109761904Y-70880952D01*
X109190476Y-71452380D01*
X109809523Y-71452380D01*
X123452380Y-68666666D02*
X122976190Y-69000000D01*
X123452380Y-69238095D02*
X122452380Y-69238095D01*
X122452380Y-68857142D01*
X122500000Y-68761904D01*
X122547619Y-68714285D01*
X122642857Y-68666666D01*
X122785714Y-68666666D01*
X122880952Y-68714285D01*
X122928571Y-68761904D01*
X122976190Y-68857142D01*
X122976190Y-69238095D01*
X123452380Y-67714285D02*
X123452380Y-68285714D01*
X123452380Y-68000000D02*
X122452380Y-68000000D01*
X122595238Y-68095238D01*
X122690476Y-68190476D01*
X122738095Y-68285714D01*
X121333333Y-65857142D02*
X121285714Y-65904761D01*
X121142857Y-65952380D01*
X121047619Y-65952380D01*
X120904761Y-65904761D01*
X120809523Y-65809523D01*
X120761904Y-65714285D01*
X120714285Y-65523809D01*
X120714285Y-65380952D01*
X120761904Y-65190476D01*
X120809523Y-65095238D01*
X120904761Y-65000000D01*
X121047619Y-64952380D01*
X121142857Y-64952380D01*
X121285714Y-65000000D01*
X121333333Y-65047619D01*
X121666666Y-64952380D02*
X122285714Y-64952380D01*
X121952380Y-65333333D01*
X122095238Y-65333333D01*
X122190476Y-65380952D01*
X122238095Y-65428571D01*
X122285714Y-65523809D01*
X122285714Y-65761904D01*
X122238095Y-65857142D01*
X122190476Y-65904761D01*
X122095238Y-65952380D01*
X121809523Y-65952380D01*
X121714285Y-65904761D01*
X121666666Y-65857142D01*
X120238095Y-62952380D02*
X120238095Y-63761904D01*
X120285714Y-63857142D01*
X120333333Y-63904761D01*
X120428571Y-63952380D01*
X120619047Y-63952380D01*
X120714285Y-63904761D01*
X120761904Y-63857142D01*
X120809523Y-63761904D01*
X120809523Y-62952380D01*
X121190476Y-62952380D02*
X121809523Y-62952380D01*
X121476190Y-63333333D01*
X121619047Y-63333333D01*
X121714285Y-63380952D01*
X121761904Y-63428571D01*
X121809523Y-63523809D01*
X121809523Y-63761904D01*
X121761904Y-63857142D01*
X121714285Y-63904761D01*
X121619047Y-63952380D01*
X121333333Y-63952380D01*
X121238095Y-63904761D01*
X121190476Y-63857142D01*
X120902380Y-71866666D02*
X120426190Y-72200000D01*
X120902380Y-72438095D02*
X119902380Y-72438095D01*
X119902380Y-72057142D01*
X119950000Y-71961904D01*
X119997619Y-71914285D01*
X120092857Y-71866666D01*
X120235714Y-71866666D01*
X120330952Y-71914285D01*
X120378571Y-71961904D01*
X120426190Y-72057142D01*
X120426190Y-72438095D01*
X119997619Y-71485714D02*
X119950000Y-71438095D01*
X119902380Y-71342857D01*
X119902380Y-71104761D01*
X119950000Y-71009523D01*
X119997619Y-70961904D01*
X120092857Y-70914285D01*
X120188095Y-70914285D01*
X120330952Y-70961904D01*
X120902380Y-71533333D01*
X120902380Y-70914285D01*
D11*
X121760000Y-60640580D02*
X121760000Y-60359420D01*
X120740000Y-60640580D02*
X120740000Y-60359420D01*
X129140580Y-65990000D02*
X128859420Y-65990000D01*
X129140580Y-67010000D02*
X128859420Y-67010000D01*
X115700000Y-51840000D02*
X113800000Y-51840000D01*
X114300000Y-54160000D02*
X115700000Y-54160000D01*
G36*
X103500611Y-54874464D02*
G01*
X103538122Y-54920620D01*
X103562176Y-54946454D01*
X103576468Y-54955062D01*
X103584695Y-54949539D01*
X103586282Y-54946206D01*
X103613725Y-54910901D01*
X103659697Y-54879650D01*
X103713758Y-54858335D01*
X103752765Y-54852420D01*
X103798510Y-54854571D01*
X103838387Y-54865333D01*
X103876378Y-54887884D01*
X103916472Y-54925403D01*
X103962650Y-54981065D01*
X104018900Y-55058049D01*
X104029416Y-55073009D01*
X104147253Y-55241257D01*
X104118950Y-55280527D01*
X104098574Y-55308027D01*
X104086879Y-55322379D01*
X104086476Y-55322717D01*
X104077189Y-55312512D01*
X104054313Y-55282444D01*
X104020788Y-55236514D01*
X103979554Y-55178724D01*
X103954719Y-55143424D01*
X103905742Y-55073830D01*
X103869906Y-55024465D01*
X103843859Y-54991670D01*
X103824242Y-54971792D01*
X103807703Y-54961172D01*
X103790886Y-54956152D01*
X103781513Y-54954627D01*
X103727916Y-54959564D01*
X103684992Y-54987178D01*
X103660041Y-55032214D01*
X103657707Y-55043800D01*
X103656218Y-55063556D01*
X103659516Y-55083443D01*
X103670044Y-55108166D01*
X103690245Y-55142429D01*
X103722561Y-55190935D01*
X103768405Y-55256913D01*
X103885686Y-55424408D01*
X103857383Y-55463678D01*
X103837007Y-55491178D01*
X103825312Y-55505530D01*
X103824909Y-55505868D01*
X103815844Y-55495257D01*
X103792379Y-55463853D01*
X103756699Y-55414688D01*
X103710985Y-55350794D01*
X103657420Y-55275205D01*
X103598188Y-55190953D01*
X103370383Y-54865613D01*
X103397610Y-54822257D01*
X103424839Y-54778901D01*
X103500611Y-54874464D01*
G37*
D12*
X103500611Y-54874464D02*
X103538122Y-54920620D01*
X103562176Y-54946454D01*
X103576468Y-54955062D01*
X103584695Y-54949539D01*
X103586282Y-54946206D01*
X103613725Y-54910901D01*
X103659697Y-54879650D01*
X103713758Y-54858335D01*
X103752765Y-54852420D01*
X103798510Y-54854571D01*
X103838387Y-54865333D01*
X103876378Y-54887884D01*
X103916472Y-54925403D01*
X103962650Y-54981065D01*
X104018900Y-55058049D01*
X104029416Y-55073009D01*
X104147253Y-55241257D01*
X104118950Y-55280527D01*
X104098574Y-55308027D01*
X104086879Y-55322379D01*
X104086476Y-55322717D01*
X104077189Y-55312512D01*
X104054313Y-55282444D01*
X104020788Y-55236514D01*
X103979554Y-55178724D01*
X103954719Y-55143424D01*
X103905742Y-55073830D01*
X103869906Y-55024465D01*
X103843859Y-54991670D01*
X103824242Y-54971792D01*
X103807703Y-54961172D01*
X103790886Y-54956152D01*
X103781513Y-54954627D01*
X103727916Y-54959564D01*
X103684992Y-54987178D01*
X103660041Y-55032214D01*
X103657707Y-55043800D01*
X103656218Y-55063556D01*
X103659516Y-55083443D01*
X103670044Y-55108166D01*
X103690245Y-55142429D01*
X103722561Y-55190935D01*
X103768405Y-55256913D01*
X103885686Y-55424408D01*
X103857383Y-55463678D01*
X103837007Y-55491178D01*
X103825312Y-55505530D01*
X103824909Y-55505868D01*
X103815844Y-55495257D01*
X103792379Y-55463853D01*
X103756699Y-55414688D01*
X103710985Y-55350794D01*
X103657420Y-55275205D01*
X103598188Y-55190953D01*
X103370383Y-54865613D01*
X103397610Y-54822257D01*
X103424839Y-54778901D01*
X103500611Y-54874464D01*
G36*
X103099491Y-55314249D02*
G01*
X103134963Y-55323615D01*
X103167982Y-55342323D01*
X103202488Y-55373681D01*
X103242425Y-55420996D01*
X103291732Y-55487575D01*
X103326088Y-55536197D01*
X103451785Y-55715710D01*
X103417117Y-55773743D01*
X103382447Y-55831776D01*
X103238829Y-55639320D01*
X103184956Y-55567610D01*
X103145058Y-55516115D01*
X103116092Y-55481541D01*
X103095008Y-55460590D01*
X103078760Y-55449966D01*
X103064302Y-55446371D01*
X103060337Y-55446179D01*
X103010490Y-55457892D01*
X102975429Y-55491618D01*
X102963432Y-55524365D01*
X102962003Y-55542617D01*
X102966041Y-55562429D01*
X102977973Y-55588396D01*
X103000226Y-55625111D01*
X103035231Y-55677169D01*
X103072560Y-55730828D01*
X103119566Y-55798026D01*
X103151711Y-55846382D01*
X103170315Y-55881147D01*
X103176704Y-55907577D01*
X103172198Y-55930928D01*
X103158121Y-55956451D01*
X103137134Y-55987425D01*
X103114186Y-56021214D01*
X102970145Y-55807579D01*
X102918376Y-55730455D01*
X102880766Y-55673008D01*
X102855072Y-55630964D01*
X102839055Y-55600046D01*
X102830474Y-55575980D01*
X102827086Y-55554491D01*
X102826627Y-55533759D01*
X102840537Y-55456766D01*
X102877795Y-55391787D01*
X102933816Y-55343245D01*
X103004014Y-55315564D01*
X103057623Y-55310918D01*
X103099491Y-55314249D01*
G37*
X103099491Y-55314249D02*
X103134963Y-55323615D01*
X103167982Y-55342323D01*
X103202488Y-55373681D01*
X103242425Y-55420996D01*
X103291732Y-55487575D01*
X103326088Y-55536197D01*
X103451785Y-55715710D01*
X103417117Y-55773743D01*
X103382447Y-55831776D01*
X103238829Y-55639320D01*
X103184956Y-55567610D01*
X103145058Y-55516115D01*
X103116092Y-55481541D01*
X103095008Y-55460590D01*
X103078760Y-55449966D01*
X103064302Y-55446371D01*
X103060337Y-55446179D01*
X103010490Y-55457892D01*
X102975429Y-55491618D01*
X102963432Y-55524365D01*
X102962003Y-55542617D01*
X102966041Y-55562429D01*
X102977973Y-55588396D01*
X103000226Y-55625111D01*
X103035231Y-55677169D01*
X103072560Y-55730828D01*
X103119566Y-55798026D01*
X103151711Y-55846382D01*
X103170315Y-55881147D01*
X103176704Y-55907577D01*
X103172198Y-55930928D01*
X103158121Y-55956451D01*
X103137134Y-55987425D01*
X103114186Y-56021214D01*
X102970145Y-55807579D01*
X102918376Y-55730455D01*
X102880766Y-55673008D01*
X102855072Y-55630964D01*
X102839055Y-55600046D01*
X102830474Y-55575980D01*
X102827086Y-55554491D01*
X102826627Y-55533759D01*
X102840537Y-55456766D01*
X102877795Y-55391787D01*
X102933816Y-55343245D01*
X103004014Y-55315564D01*
X103057623Y-55310918D01*
X103099491Y-55314249D01*
G36*
X104638824Y-54279918D02*
G01*
X104673312Y-54292749D01*
X104723850Y-54325218D01*
X104746516Y-54358413D01*
X104742439Y-54394266D01*
X104737830Y-54403104D01*
X104714769Y-54436747D01*
X104696688Y-54444925D01*
X104677473Y-54429001D01*
X104669573Y-54418305D01*
X104631616Y-54385182D01*
X104586173Y-54375237D01*
X104540807Y-54386832D01*
X104503083Y-54418323D01*
X104482866Y-54458840D01*
X104478918Y-54476640D01*
X104479683Y-54494346D01*
X104487367Y-54516541D01*
X104504173Y-54547809D01*
X104532309Y-54592734D01*
X104573979Y-54655897D01*
X104587272Y-54675826D01*
X104632645Y-54744077D01*
X104663878Y-54792604D01*
X104682997Y-54825792D01*
X104692034Y-54848026D01*
X104693014Y-54863691D01*
X104687967Y-54877170D01*
X104683809Y-54884476D01*
X104664442Y-54913061D01*
X104651216Y-54927282D01*
X104638294Y-54919768D01*
X104611632Y-54888368D01*
X104570941Y-54832707D01*
X104515933Y-54752406D01*
X104507576Y-54739931D01*
X104458440Y-54665934D01*
X104423372Y-54611334D01*
X104400037Y-54571576D01*
X104386098Y-54542111D01*
X104379216Y-54518385D01*
X104377056Y-54495847D01*
X104376995Y-54485584D01*
X104382984Y-54435791D01*
X104396981Y-54390522D01*
X104399280Y-54385816D01*
X104442774Y-54330917D01*
X104502423Y-54293193D01*
X104570386Y-54275305D01*
X104638824Y-54279918D01*
G37*
X104638824Y-54279918D02*
X104673312Y-54292749D01*
X104723850Y-54325218D01*
X104746516Y-54358413D01*
X104742439Y-54394266D01*
X104737830Y-54403104D01*
X104714769Y-54436747D01*
X104696688Y-54444925D01*
X104677473Y-54429001D01*
X104669573Y-54418305D01*
X104631616Y-54385182D01*
X104586173Y-54375237D01*
X104540807Y-54386832D01*
X104503083Y-54418323D01*
X104482866Y-54458840D01*
X104478918Y-54476640D01*
X104479683Y-54494346D01*
X104487367Y-54516541D01*
X104504173Y-54547809D01*
X104532309Y-54592734D01*
X104573979Y-54655897D01*
X104587272Y-54675826D01*
X104632645Y-54744077D01*
X104663878Y-54792604D01*
X104682997Y-54825792D01*
X104692034Y-54848026D01*
X104693014Y-54863691D01*
X104687967Y-54877170D01*
X104683809Y-54884476D01*
X104664442Y-54913061D01*
X104651216Y-54927282D01*
X104638294Y-54919768D01*
X104611632Y-54888368D01*
X104570941Y-54832707D01*
X104515933Y-54752406D01*
X104507576Y-54739931D01*
X104458440Y-54665934D01*
X104423372Y-54611334D01*
X104400037Y-54571576D01*
X104386098Y-54542111D01*
X104379216Y-54518385D01*
X104377056Y-54495847D01*
X104376995Y-54485584D01*
X104382984Y-54435791D01*
X104396981Y-54390522D01*
X104399280Y-54385816D01*
X104442774Y-54330917D01*
X104502423Y-54293193D01*
X104570386Y-54275305D01*
X104638824Y-54279918D01*
G36*
X102374399Y-55888796D02*
G01*
X102374337Y-55875476D01*
X102509715Y-55875476D01*
X102526402Y-55912419D01*
X102546242Y-55937598D01*
X102559707Y-55939571D01*
X102575912Y-55919693D01*
X102598301Y-55883852D01*
X102622041Y-55841952D01*
X102622612Y-55840883D01*
X102641682Y-55803866D01*
X102646378Y-55784786D01*
X102635612Y-55775769D01*
X102612811Y-55769981D01*
X102566014Y-55771268D01*
X102530460Y-55793851D01*
X102510307Y-55830872D01*
X102509715Y-55875476D01*
X102374337Y-55875476D01*
X102374120Y-55829284D01*
X102395901Y-55753697D01*
X102437056Y-55694947D01*
X102492532Y-55654196D01*
X102557275Y-55632597D01*
X102626230Y-55631308D01*
X102694346Y-55651489D01*
X102756567Y-55694292D01*
X102790814Y-55733885D01*
X102802781Y-55752034D01*
X102808162Y-55768578D01*
X102805270Y-55788799D01*
X102792420Y-55817984D01*
X102767923Y-55861414D01*
X102730094Y-55924374D01*
X102729901Y-55924692D01*
X102695533Y-55983292D01*
X102668453Y-56032919D01*
X102651350Y-56068390D01*
X102646914Y-56084520D01*
X102646960Y-56084593D01*
X102669589Y-56097109D01*
X102706033Y-56102852D01*
X102741591Y-56100474D01*
X102756347Y-56094616D01*
X102783601Y-56060060D01*
X102795124Y-56013243D01*
X102789613Y-55974498D01*
X102788811Y-55943653D01*
X102799341Y-55900512D01*
X102816956Y-55857279D01*
X102837410Y-55826154D01*
X102842904Y-55821383D01*
X102856715Y-55826906D01*
X102875364Y-55852683D01*
X102895063Y-55891254D01*
X102912026Y-55935156D01*
X102922465Y-55976926D01*
X102922722Y-55978651D01*
X102921874Y-56058278D01*
X102897906Y-56128817D01*
X102854399Y-56185667D01*
X102794932Y-56224222D01*
X102723087Y-56239882D01*
X102719472Y-56239977D01*
X102648023Y-56230969D01*
X102583091Y-56199409D01*
X102519598Y-56142586D01*
X102504094Y-56124987D01*
X102437207Y-56037508D01*
X102412310Y-55992307D01*
X102394492Y-55959955D01*
X102374399Y-55888796D01*
G37*
X102374399Y-55888796D02*
X102374337Y-55875476D01*
X102509715Y-55875476D01*
X102526402Y-55912419D01*
X102546242Y-55937598D01*
X102559707Y-55939571D01*
X102575912Y-55919693D01*
X102598301Y-55883852D01*
X102622041Y-55841952D01*
X102622612Y-55840883D01*
X102641682Y-55803866D01*
X102646378Y-55784786D01*
X102635612Y-55775769D01*
X102612811Y-55769981D01*
X102566014Y-55771268D01*
X102530460Y-55793851D01*
X102510307Y-55830872D01*
X102509715Y-55875476D01*
X102374337Y-55875476D01*
X102374120Y-55829284D01*
X102395901Y-55753697D01*
X102437056Y-55694947D01*
X102492532Y-55654196D01*
X102557275Y-55632597D01*
X102626230Y-55631308D01*
X102694346Y-55651489D01*
X102756567Y-55694292D01*
X102790814Y-55733885D01*
X102802781Y-55752034D01*
X102808162Y-55768578D01*
X102805270Y-55788799D01*
X102792420Y-55817984D01*
X102767923Y-55861414D01*
X102730094Y-55924374D01*
X102729901Y-55924692D01*
X102695533Y-55983292D01*
X102668453Y-56032919D01*
X102651350Y-56068390D01*
X102646914Y-56084520D01*
X102646960Y-56084593D01*
X102669589Y-56097109D01*
X102706033Y-56102852D01*
X102741591Y-56100474D01*
X102756347Y-56094616D01*
X102783601Y-56060060D01*
X102795124Y-56013243D01*
X102789613Y-55974498D01*
X102788811Y-55943653D01*
X102799341Y-55900512D01*
X102816956Y-55857279D01*
X102837410Y-55826154D01*
X102842904Y-55821383D01*
X102856715Y-55826906D01*
X102875364Y-55852683D01*
X102895063Y-55891254D01*
X102912026Y-55935156D01*
X102922465Y-55976926D01*
X102922722Y-55978651D01*
X102921874Y-56058278D01*
X102897906Y-56128817D01*
X102854399Y-56185667D01*
X102794932Y-56224222D01*
X102723087Y-56239882D01*
X102719472Y-56239977D01*
X102648023Y-56230969D01*
X102583091Y-56199409D01*
X102519598Y-56142586D01*
X102504094Y-56124987D01*
X102437207Y-56037508D01*
X102412310Y-55992307D01*
X102394492Y-55959955D01*
X102374399Y-55888796D01*
G36*
X101486376Y-56598428D02*
G01*
X101469679Y-56565914D01*
X101461475Y-56539125D01*
X101458840Y-56512188D01*
X101458732Y-56506912D01*
X101461594Y-56473395D01*
X101601351Y-56473395D01*
X101610572Y-56512543D01*
X101638562Y-56565101D01*
X101672963Y-56616752D01*
X101711647Y-56670527D01*
X101739582Y-56704628D01*
X101761591Y-56723878D01*
X101782495Y-56733102D01*
X101791190Y-56734988D01*
X101833876Y-56735402D01*
X101860846Y-56715136D01*
X101876422Y-56677943D01*
X101879894Y-56647450D01*
X101870514Y-56613060D01*
X101845707Y-56565840D01*
X101842548Y-56560520D01*
X101788495Y-56481313D01*
X101737766Y-56429898D01*
X101690746Y-56406538D01*
X101647818Y-56411498D01*
X101636061Y-56418362D01*
X101610110Y-56443416D01*
X101601351Y-56473395D01*
X101461594Y-56473395D01*
X101465282Y-56430192D01*
X101489674Y-56371237D01*
X101535513Y-56322518D01*
X101553349Y-56309216D01*
X101628615Y-56271526D01*
X101704860Y-56261807D01*
X101779006Y-56280167D01*
X101814843Y-56300256D01*
X101858085Y-56337816D01*
X101904177Y-56391257D01*
X101948682Y-56453644D01*
X101987166Y-56518041D01*
X102015189Y-56577514D01*
X102028316Y-56625126D01*
X102028745Y-56634609D01*
X102013685Y-56718181D01*
X101975595Y-56788589D01*
X101917980Y-56841732D01*
X101844343Y-56873504D01*
X101820863Y-56878081D01*
X101768816Y-56877964D01*
X101715437Y-56866864D01*
X101709656Y-56864764D01*
X101683978Y-56853112D01*
X101661324Y-56837300D01*
X101637143Y-56812535D01*
X101606878Y-56774027D01*
X101565978Y-56716987D01*
X101556942Y-56704105D01*
X101554099Y-56699982D01*
X101514488Y-56642534D01*
X101486376Y-56598428D01*
G37*
X101486376Y-56598428D02*
X101469679Y-56565914D01*
X101461475Y-56539125D01*
X101458840Y-56512188D01*
X101458732Y-56506912D01*
X101461594Y-56473395D01*
X101601351Y-56473395D01*
X101610572Y-56512543D01*
X101638562Y-56565101D01*
X101672963Y-56616752D01*
X101711647Y-56670527D01*
X101739582Y-56704628D01*
X101761591Y-56723878D01*
X101782495Y-56733102D01*
X101791190Y-56734988D01*
X101833876Y-56735402D01*
X101860846Y-56715136D01*
X101876422Y-56677943D01*
X101879894Y-56647450D01*
X101870514Y-56613060D01*
X101845707Y-56565840D01*
X101842548Y-56560520D01*
X101788495Y-56481313D01*
X101737766Y-56429898D01*
X101690746Y-56406538D01*
X101647818Y-56411498D01*
X101636061Y-56418362D01*
X101610110Y-56443416D01*
X101601351Y-56473395D01*
X101461594Y-56473395D01*
X101465282Y-56430192D01*
X101489674Y-56371237D01*
X101535513Y-56322518D01*
X101553349Y-56309216D01*
X101628615Y-56271526D01*
X101704860Y-56261807D01*
X101779006Y-56280167D01*
X101814843Y-56300256D01*
X101858085Y-56337816D01*
X101904177Y-56391257D01*
X101948682Y-56453644D01*
X101987166Y-56518041D01*
X102015189Y-56577514D01*
X102028316Y-56625126D01*
X102028745Y-56634609D01*
X102013685Y-56718181D01*
X101975595Y-56788589D01*
X101917980Y-56841732D01*
X101844343Y-56873504D01*
X101820863Y-56878081D01*
X101768816Y-56877964D01*
X101715437Y-56866864D01*
X101709656Y-56864764D01*
X101683978Y-56853112D01*
X101661324Y-56837300D01*
X101637143Y-56812535D01*
X101606878Y-56774027D01*
X101565978Y-56716987D01*
X101556942Y-56704105D01*
X101554099Y-56699982D01*
X101514488Y-56642534D01*
X101486376Y-56598428D01*
G36*
X106501352Y-53071308D02*
G01*
X106484637Y-53023574D01*
X106482614Y-52987553D01*
X106590457Y-52987553D01*
X106595395Y-53044240D01*
X106610349Y-53081508D01*
X106630317Y-53116344D01*
X106645420Y-53136141D01*
X106649831Y-53138026D01*
X106660351Y-53123903D01*
X106681418Y-53091269D01*
X106708859Y-53046630D01*
X106714528Y-53037196D01*
X106746581Y-52977031D01*
X106758430Y-52935581D01*
X106749867Y-52910524D01*
X106720687Y-52899535D01*
X106702258Y-52898556D01*
X106646251Y-52910006D01*
X106608196Y-52941240D01*
X106590457Y-52987553D01*
X106482614Y-52987553D01*
X106482272Y-52981470D01*
X106492623Y-52939630D01*
X106498969Y-52924007D01*
X106537978Y-52867579D01*
X106594802Y-52825958D01*
X106661479Y-52802416D01*
X106730047Y-52800222D01*
X106772007Y-52811858D01*
X106824952Y-52849214D01*
X106854051Y-52887733D01*
X106887817Y-52942839D01*
X106803301Y-53081513D01*
X106763128Y-53150255D01*
X106739761Y-53199287D01*
X106732924Y-53232372D01*
X106742345Y-53253271D01*
X106767746Y-53265745D01*
X106789502Y-53270570D01*
X106840496Y-53267030D01*
X106880582Y-53241215D01*
X106904646Y-53199296D01*
X106907579Y-53147443D01*
X106904026Y-53132345D01*
X106900778Y-53079696D01*
X106915732Y-53045817D01*
X106941921Y-53007455D01*
X106977590Y-53058396D01*
X106998715Y-53095264D01*
X107006856Y-53133128D01*
X107004519Y-53184784D01*
X107003733Y-53191834D01*
X106995901Y-53241819D01*
X106982417Y-53275143D01*
X106956671Y-53304157D01*
X106932738Y-53324513D01*
X106887328Y-53357207D01*
X106849364Y-53372430D01*
X106821087Y-53375366D01*
X106771673Y-53372880D01*
X106730686Y-53361472D01*
X106692973Y-53337438D01*
X106653382Y-53297074D01*
X106606762Y-53236675D01*
X106584342Y-53205150D01*
X106558531Y-53166610D01*
X106534043Y-53130045D01*
X106501352Y-53071308D01*
G37*
X106501352Y-53071308D02*
X106484637Y-53023574D01*
X106482614Y-52987553D01*
X106590457Y-52987553D01*
X106595395Y-53044240D01*
X106610349Y-53081508D01*
X106630317Y-53116344D01*
X106645420Y-53136141D01*
X106649831Y-53138026D01*
X106660351Y-53123903D01*
X106681418Y-53091269D01*
X106708859Y-53046630D01*
X106714528Y-53037196D01*
X106746581Y-52977031D01*
X106758430Y-52935581D01*
X106749867Y-52910524D01*
X106720687Y-52899535D01*
X106702258Y-52898556D01*
X106646251Y-52910006D01*
X106608196Y-52941240D01*
X106590457Y-52987553D01*
X106482614Y-52987553D01*
X106482272Y-52981470D01*
X106492623Y-52939630D01*
X106498969Y-52924007D01*
X106537978Y-52867579D01*
X106594802Y-52825958D01*
X106661479Y-52802416D01*
X106730047Y-52800222D01*
X106772007Y-52811858D01*
X106824952Y-52849214D01*
X106854051Y-52887733D01*
X106887817Y-52942839D01*
X106803301Y-53081513D01*
X106763128Y-53150255D01*
X106739761Y-53199287D01*
X106732924Y-53232372D01*
X106742345Y-53253271D01*
X106767746Y-53265745D01*
X106789502Y-53270570D01*
X106840496Y-53267030D01*
X106880582Y-53241215D01*
X106904646Y-53199296D01*
X106907579Y-53147443D01*
X106904026Y-53132345D01*
X106900778Y-53079696D01*
X106915732Y-53045817D01*
X106941921Y-53007455D01*
X106977590Y-53058396D01*
X106998715Y-53095264D01*
X107006856Y-53133128D01*
X107004519Y-53184784D01*
X107003733Y-53191834D01*
X106995901Y-53241819D01*
X106982417Y-53275143D01*
X106956671Y-53304157D01*
X106932738Y-53324513D01*
X106887328Y-53357207D01*
X106849364Y-53372430D01*
X106821087Y-53375366D01*
X106771673Y-53372880D01*
X106730686Y-53361472D01*
X106692973Y-53337438D01*
X106653382Y-53297074D01*
X106606762Y-53236675D01*
X106584342Y-53205150D01*
X106558531Y-53166610D01*
X106534043Y-53130045D01*
X106501352Y-53071308D01*
G36*
X105531397Y-53583573D02*
G01*
X105555114Y-53613583D01*
X105589824Y-53660128D01*
X105632778Y-53719527D01*
X105677165Y-53782294D01*
X105826375Y-53995389D01*
X105815096Y-54059358D01*
X105805402Y-54100696D01*
X105789217Y-54126024D01*
X105757694Y-54147212D01*
X105744286Y-54154345D01*
X105702611Y-54176967D01*
X105668922Y-54196798D01*
X105660978Y-54202013D01*
X105635813Y-54221905D01*
X105600973Y-54252000D01*
X105587692Y-54263994D01*
X105553921Y-54291808D01*
X105525657Y-54302547D01*
X105488718Y-54300465D01*
X105474215Y-54298045D01*
X105410246Y-54286766D01*
X105131147Y-53888171D01*
X105151769Y-53853169D01*
X105170689Y-53824691D01*
X105183440Y-53810430D01*
X105195269Y-53818999D01*
X105221046Y-53848032D01*
X105258085Y-53894209D01*
X105303693Y-53954206D01*
X105341350Y-54005508D01*
X105488209Y-54208323D01*
X105519399Y-54192464D01*
X105543245Y-54171586D01*
X105549532Y-54153645D01*
X105541174Y-54134187D01*
X105518862Y-54095897D01*
X105485563Y-54043527D01*
X105444246Y-53981830D01*
X105422516Y-53950408D01*
X105296556Y-53770131D01*
X105324859Y-53730861D01*
X105345146Y-53703430D01*
X105356662Y-53689197D01*
X105357051Y-53688866D01*
X105366374Y-53699104D01*
X105389807Y-53729186D01*
X105424532Y-53775373D01*
X105467733Y-53833929D01*
X105507801Y-53888958D01*
X105654661Y-54091772D01*
X105725998Y-54041821D01*
X105598256Y-53852421D01*
X105470515Y-53663020D01*
X105492699Y-53620685D01*
X105509729Y-53590358D01*
X105521002Y-53574112D01*
X105521419Y-53573775D01*
X105531397Y-53583573D01*
G37*
X105531397Y-53583573D02*
X105555114Y-53613583D01*
X105589824Y-53660128D01*
X105632778Y-53719527D01*
X105677165Y-53782294D01*
X105826375Y-53995389D01*
X105815096Y-54059358D01*
X105805402Y-54100696D01*
X105789217Y-54126024D01*
X105757694Y-54147212D01*
X105744286Y-54154345D01*
X105702611Y-54176967D01*
X105668922Y-54196798D01*
X105660978Y-54202013D01*
X105635813Y-54221905D01*
X105600973Y-54252000D01*
X105587692Y-54263994D01*
X105553921Y-54291808D01*
X105525657Y-54302547D01*
X105488718Y-54300465D01*
X105474215Y-54298045D01*
X105410246Y-54286766D01*
X105131147Y-53888171D01*
X105151769Y-53853169D01*
X105170689Y-53824691D01*
X105183440Y-53810430D01*
X105195269Y-53818999D01*
X105221046Y-53848032D01*
X105258085Y-53894209D01*
X105303693Y-53954206D01*
X105341350Y-54005508D01*
X105488209Y-54208323D01*
X105519399Y-54192464D01*
X105543245Y-54171586D01*
X105549532Y-54153645D01*
X105541174Y-54134187D01*
X105518862Y-54095897D01*
X105485563Y-54043527D01*
X105444246Y-53981830D01*
X105422516Y-53950408D01*
X105296556Y-53770131D01*
X105324859Y-53730861D01*
X105345146Y-53703430D01*
X105356662Y-53689197D01*
X105357051Y-53688866D01*
X105366374Y-53699104D01*
X105389807Y-53729186D01*
X105424532Y-53775373D01*
X105467733Y-53833929D01*
X105507801Y-53888958D01*
X105654661Y-54091772D01*
X105725998Y-54041821D01*
X105598256Y-53852421D01*
X105470515Y-53663020D01*
X105492699Y-53620685D01*
X105509729Y-53590358D01*
X105521002Y-53574112D01*
X105521419Y-53573775D01*
X105531397Y-53583573D01*
G36*
X105914305Y-53363940D02*
G01*
X105948765Y-53371252D01*
X105981415Y-53388951D01*
X106016064Y-53420163D01*
X106056524Y-53468018D01*
X106106605Y-53535643D01*
X106138571Y-53580884D01*
X106262523Y-53757906D01*
X106241901Y-53792909D01*
X106225111Y-53819695D01*
X106215894Y-53831682D01*
X106205897Y-53822215D01*
X106183241Y-53793677D01*
X106151680Y-53750939D01*
X106127259Y-53716559D01*
X106091312Y-53667354D01*
X106060889Y-53629654D01*
X106039968Y-53608172D01*
X106033228Y-53605214D01*
X106015849Y-53625224D01*
X105992233Y-53661870D01*
X105966756Y-53706972D01*
X105943795Y-53752347D01*
X105927726Y-53789812D01*
X105922927Y-53811186D01*
X105922966Y-53811353D01*
X105939769Y-53832924D01*
X105964950Y-53847114D01*
X105995054Y-53851882D01*
X106025329Y-53839329D01*
X106047259Y-53822966D01*
X106078640Y-53800252D01*
X106100499Y-53796023D01*
X106124254Y-53808659D01*
X106128109Y-53811479D01*
X106152058Y-53836452D01*
X106152370Y-53861579D01*
X106127819Y-53890848D01*
X106096218Y-53915209D01*
X106029683Y-53945238D01*
X105988156Y-53950666D01*
X105924490Y-53939689D01*
X105872527Y-53907879D01*
X105836883Y-53860779D01*
X105822172Y-53803932D01*
X105827731Y-53757964D01*
X105841951Y-53724450D01*
X105867685Y-53676607D01*
X105899792Y-53623881D01*
X105905341Y-53615374D01*
X105940498Y-53557298D01*
X105955970Y-53516974D01*
X105951628Y-53490698D01*
X105927339Y-53474764D01*
X105900115Y-53468078D01*
X105849466Y-53471837D01*
X105809011Y-53497786D01*
X105784414Y-53539440D01*
X105781343Y-53590317D01*
X105783842Y-53601138D01*
X105785725Y-53646057D01*
X105772886Y-53689373D01*
X105749569Y-53733869D01*
X105712039Y-53680270D01*
X105691259Y-53646015D01*
X105682411Y-53613745D01*
X105683581Y-53571884D01*
X105688364Y-53536925D01*
X105697864Y-53485511D01*
X105710289Y-53452766D01*
X105731237Y-53428453D01*
X105759328Y-53407189D01*
X105829087Y-53372285D01*
X105874224Y-53363886D01*
X105914305Y-53363940D01*
G37*
X105914305Y-53363940D02*
X105948765Y-53371252D01*
X105981415Y-53388951D01*
X106016064Y-53420163D01*
X106056524Y-53468018D01*
X106106605Y-53535643D01*
X106138571Y-53580884D01*
X106262523Y-53757906D01*
X106241901Y-53792909D01*
X106225111Y-53819695D01*
X106215894Y-53831682D01*
X106205897Y-53822215D01*
X106183241Y-53793677D01*
X106151680Y-53750939D01*
X106127259Y-53716559D01*
X106091312Y-53667354D01*
X106060889Y-53629654D01*
X106039968Y-53608172D01*
X106033228Y-53605214D01*
X106015849Y-53625224D01*
X105992233Y-53661870D01*
X105966756Y-53706972D01*
X105943795Y-53752347D01*
X105927726Y-53789812D01*
X105922927Y-53811186D01*
X105922966Y-53811353D01*
X105939769Y-53832924D01*
X105964950Y-53847114D01*
X105995054Y-53851882D01*
X106025329Y-53839329D01*
X106047259Y-53822966D01*
X106078640Y-53800252D01*
X106100499Y-53796023D01*
X106124254Y-53808659D01*
X106128109Y-53811479D01*
X106152058Y-53836452D01*
X106152370Y-53861579D01*
X106127819Y-53890848D01*
X106096218Y-53915209D01*
X106029683Y-53945238D01*
X105988156Y-53950666D01*
X105924490Y-53939689D01*
X105872527Y-53907879D01*
X105836883Y-53860779D01*
X105822172Y-53803932D01*
X105827731Y-53757964D01*
X105841951Y-53724450D01*
X105867685Y-53676607D01*
X105899792Y-53623881D01*
X105905341Y-53615374D01*
X105940498Y-53557298D01*
X105955970Y-53516974D01*
X105951628Y-53490698D01*
X105927339Y-53474764D01*
X105900115Y-53468078D01*
X105849466Y-53471837D01*
X105809011Y-53497786D01*
X105784414Y-53539440D01*
X105781343Y-53590317D01*
X105783842Y-53601138D01*
X105785725Y-53646057D01*
X105772886Y-53689373D01*
X105749569Y-53733869D01*
X105712039Y-53680270D01*
X105691259Y-53646015D01*
X105682411Y-53613745D01*
X105683581Y-53571884D01*
X105688364Y-53536925D01*
X105697864Y-53485511D01*
X105710289Y-53452766D01*
X105731237Y-53428453D01*
X105759328Y-53407189D01*
X105829087Y-53372285D01*
X105874224Y-53363886D01*
X105914305Y-53363940D01*
G36*
X106317666Y-53082420D02*
G01*
X106373869Y-53100953D01*
X106420833Y-53129845D01*
X106438062Y-53148236D01*
X106448251Y-53183620D01*
X106437350Y-53213752D01*
X106420730Y-53239012D01*
X106411368Y-53248077D01*
X106397675Y-53239447D01*
X106368914Y-53219943D01*
X106356051Y-53211037D01*
X106302004Y-53186917D01*
X106251383Y-53191456D01*
X106205540Y-53224507D01*
X106202683Y-53227724D01*
X106186174Y-53256746D01*
X106184001Y-53292310D01*
X106197341Y-53337774D01*
X106227377Y-53396494D01*
X106275286Y-53471827D01*
X106302202Y-53510915D01*
X106344960Y-53572301D01*
X106373222Y-53614769D01*
X106389175Y-53643154D01*
X106395008Y-53662294D01*
X106392908Y-53677024D01*
X106385062Y-53692181D01*
X106384575Y-53693008D01*
X106367784Y-53719794D01*
X106358568Y-53731781D01*
X106348891Y-53721826D01*
X106325608Y-53691881D01*
X106291612Y-53645845D01*
X106249798Y-53587608D01*
X106219569Y-53544731D01*
X106162047Y-53461077D01*
X106120640Y-53396053D01*
X106093734Y-53345297D01*
X106079718Y-53304453D01*
X106076980Y-53269157D01*
X106083909Y-53235053D01*
X106094729Y-53207059D01*
X106131049Y-53154455D01*
X106185297Y-53110341D01*
X106246377Y-53083047D01*
X106264936Y-53079307D01*
X106317666Y-53082420D01*
G37*
X106317666Y-53082420D02*
X106373869Y-53100953D01*
X106420833Y-53129845D01*
X106438062Y-53148236D01*
X106448251Y-53183620D01*
X106437350Y-53213752D01*
X106420730Y-53239012D01*
X106411368Y-53248077D01*
X106397675Y-53239447D01*
X106368914Y-53219943D01*
X106356051Y-53211037D01*
X106302004Y-53186917D01*
X106251383Y-53191456D01*
X106205540Y-53224507D01*
X106202683Y-53227724D01*
X106186174Y-53256746D01*
X106184001Y-53292310D01*
X106197341Y-53337774D01*
X106227377Y-53396494D01*
X106275286Y-53471827D01*
X106302202Y-53510915D01*
X106344960Y-53572301D01*
X106373222Y-53614769D01*
X106389175Y-53643154D01*
X106395008Y-53662294D01*
X106392908Y-53677024D01*
X106385062Y-53692181D01*
X106384575Y-53693008D01*
X106367784Y-53719794D01*
X106358568Y-53731781D01*
X106348891Y-53721826D01*
X106325608Y-53691881D01*
X106291612Y-53645845D01*
X106249798Y-53587608D01*
X106219569Y-53544731D01*
X106162047Y-53461077D01*
X106120640Y-53396053D01*
X106093734Y-53345297D01*
X106079718Y-53304453D01*
X106076980Y-53269157D01*
X106083909Y-53235053D01*
X106094729Y-53207059D01*
X106131049Y-53154455D01*
X106185297Y-53110341D01*
X106246377Y-53083047D01*
X106264936Y-53079307D01*
X106317666Y-53082420D01*
G36*
X102881766Y-50319893D02*
G01*
X102969562Y-50332223D01*
X103060682Y-50346942D01*
X103149314Y-50362260D01*
X103229275Y-50376879D01*
X103295703Y-50389847D01*
X103343729Y-50400209D01*
X103368491Y-50407011D01*
X103369573Y-50407495D01*
X103378840Y-50417573D01*
X103385963Y-50439639D01*
X103391276Y-50477114D01*
X103395116Y-50533415D01*
X103397820Y-50611961D01*
X103399694Y-50714201D01*
X103401001Y-50804429D01*
X103402298Y-50885268D01*
X103403497Y-50952030D01*
X103404515Y-51000031D01*
X103405266Y-51024582D01*
X103405371Y-51026210D01*
X103418006Y-51041390D01*
X103450158Y-51065578D01*
X103495646Y-51094272D01*
X103510804Y-51102994D01*
X103577778Y-51142239D01*
X103651973Y-51188026D01*
X103714674Y-51228692D01*
X103760715Y-51259222D01*
X103796272Y-51282025D01*
X103815581Y-51293435D01*
X103817428Y-51294062D01*
X103832894Y-51286416D01*
X103869922Y-51269207D01*
X103923550Y-51244670D01*
X103988818Y-51215036D01*
X104060763Y-51182542D01*
X104134422Y-51149418D01*
X104204837Y-51117899D01*
X104267042Y-51090217D01*
X104316078Y-51068606D01*
X104346982Y-51055298D01*
X104354708Y-51052244D01*
X104364279Y-51051357D01*
X104375610Y-51056554D01*
X104391017Y-51070645D01*
X104412816Y-51096443D01*
X104443320Y-51136759D01*
X104484844Y-51194403D01*
X104539703Y-51272189D01*
X104562095Y-51304139D01*
X104744095Y-51564062D01*
X104690302Y-51620088D01*
X104660253Y-51651086D01*
X104615259Y-51697123D01*
X104560799Y-51752612D01*
X104502353Y-51811963D01*
X104486182Y-51828346D01*
X104432690Y-51883745D01*
X104387035Y-51933355D01*
X104352979Y-51972913D01*
X104334280Y-51998149D01*
X104331916Y-52003424D01*
X104333977Y-52027612D01*
X104342999Y-52070961D01*
X104357157Y-52124961D01*
X104360477Y-52136404D01*
X104379781Y-52208247D01*
X104399212Y-52290955D01*
X104414580Y-52366684D01*
X104414644Y-52367040D01*
X104436310Y-52487544D01*
X104717253Y-52594213D01*
X104998196Y-52700880D01*
X104945133Y-53003292D01*
X104928480Y-53093897D01*
X104912160Y-53174918D01*
X104897176Y-53241932D01*
X104884538Y-53290518D01*
X104875251Y-53316259D01*
X104873196Y-53318919D01*
X104853247Y-53323275D01*
X104809198Y-53327395D01*
X104745980Y-53330995D01*
X104668523Y-53333792D01*
X104583841Y-53335481D01*
X104497758Y-53336998D01*
X104421599Y-53339197D01*
X104360151Y-53341868D01*
X104318204Y-53344806D01*
X104300591Y-53347769D01*
X104288196Y-53364376D01*
X104267446Y-53399796D01*
X104242605Y-53446704D01*
X104240043Y-53451778D01*
X104206221Y-53514420D01*
X104179454Y-53552270D01*
X104157319Y-53567972D01*
X104137391Y-53564174D01*
X104137207Y-53564054D01*
X104121538Y-53554003D01*
X104084277Y-53530188D01*
X104028311Y-53494452D01*
X103956525Y-53448634D01*
X103871806Y-53394580D01*
X103777039Y-53334129D01*
X103685277Y-53275607D01*
X103584168Y-53210916D01*
X103490811Y-53150774D01*
X103408045Y-53097041D01*
X103338706Y-53051576D01*
X103285635Y-53016239D01*
X103251670Y-52992893D01*
X103239763Y-52983640D01*
X103239418Y-52963704D01*
X103248206Y-52925393D01*
X103263415Y-52879289D01*
X103301483Y-52740508D01*
X103312031Y-52604599D01*
X103295481Y-52473976D01*
X103252254Y-52351049D01*
X103182771Y-52238230D01*
X103143114Y-52191471D01*
X103045180Y-52105419D01*
X102937479Y-52044283D01*
X102823346Y-52007079D01*
X102706114Y-51992816D01*
X102589115Y-52000509D01*
X102475686Y-52029170D01*
X102369156Y-52077810D01*
X102272863Y-52145444D01*
X102190138Y-52231083D01*
X102124314Y-52333740D01*
X102078726Y-52452428D01*
X102065739Y-52510594D01*
X102055815Y-52643549D01*
X102072382Y-52769647D01*
X102113230Y-52886421D01*
X102176154Y-52991400D01*
X102258947Y-53082115D01*
X102359404Y-53156098D01*
X102475317Y-53210879D01*
X102604482Y-53243990D01*
X102729375Y-53253228D01*
X102779840Y-53254851D01*
X102818169Y-53259823D01*
X102835537Y-53266713D01*
X102840891Y-53283739D01*
X102851676Y-53325820D01*
X102867116Y-53389649D01*
X102886434Y-53471926D01*
X102908854Y-53569345D01*
X102933598Y-53678604D01*
X102957426Y-53785283D01*
X102983481Y-53902645D01*
X103007639Y-54011388D01*
X103029158Y-54108172D01*
X103047295Y-54189657D01*
X103061305Y-54252501D01*
X103070444Y-54293362D01*
X103073894Y-54308594D01*
X103070880Y-54328631D01*
X103048732Y-54344087D01*
X103004162Y-54356321D01*
X102933878Y-54366695D01*
X102933312Y-54366761D01*
X102879972Y-54373969D01*
X102837985Y-54381413D01*
X102815696Y-54387591D01*
X102814867Y-54388084D01*
X102805917Y-54403916D01*
X102788732Y-54442546D01*
X102765147Y-54499545D01*
X102736996Y-54570484D01*
X102706443Y-54650050D01*
X102675184Y-54730838D01*
X102646136Y-54802401D01*
X102621251Y-54860204D01*
X102602477Y-54899711D01*
X102591913Y-54916291D01*
X102572542Y-54917786D01*
X102529147Y-54914440D01*
X102466228Y-54906820D01*
X102388280Y-54895490D01*
X102299803Y-54881014D01*
X102270614Y-54875919D01*
X101968187Y-54822333D01*
X101964449Y-54529031D01*
X101962871Y-54439263D01*
X101960639Y-54359267D01*
X101957949Y-54293633D01*
X101954995Y-54246949D01*
X101951975Y-54223802D01*
X101951389Y-54222414D01*
X101935536Y-54209703D01*
X101900485Y-54186348D01*
X101852176Y-54156215D01*
X101819243Y-54136457D01*
X101756763Y-54098226D01*
X101695284Y-54058452D01*
X101644910Y-54023745D01*
X101630142Y-54012769D01*
X101589891Y-53984023D01*
X101556026Y-53963748D01*
X101540965Y-53957669D01*
X101520186Y-53962043D01*
X101478492Y-53976814D01*
X101421184Y-53999905D01*
X101353556Y-54029240D01*
X101323600Y-54042810D01*
X101247715Y-54077533D01*
X101174849Y-54110726D01*
X101112126Y-54139155D01*
X101066673Y-54159582D01*
X101058089Y-54163392D01*
X100987043Y-54194778D01*
X100805043Y-53934855D01*
X100745337Y-53849289D01*
X100700634Y-53784221D01*
X100669083Y-53736516D01*
X100648833Y-53703037D01*
X100638035Y-53680647D01*
X100634839Y-53666209D01*
X100637393Y-53656588D01*
X100639269Y-53653822D01*
X100652278Y-53639563D01*
X100681534Y-53608801D01*
X100723245Y-53565433D01*
X100773613Y-53513359D01*
X100828844Y-53456479D01*
X100885140Y-53398689D01*
X100938708Y-53343891D01*
X100985750Y-53295981D01*
X101022473Y-53258859D01*
X101045081Y-53236423D01*
X101050265Y-53231651D01*
X101048267Y-53217768D01*
X101040611Y-53182416D01*
X101028771Y-53132269D01*
X101023980Y-53112737D01*
X101006486Y-53036561D01*
X100988908Y-52951177D01*
X100975590Y-52878170D01*
X100964677Y-52822858D01*
X100952790Y-52779452D01*
X100942050Y-52755292D01*
X100939394Y-52752905D01*
X100921216Y-52745589D01*
X100880265Y-52729682D01*
X100820919Y-52706864D01*
X100747558Y-52678819D01*
X100664558Y-52647229D01*
X100648160Y-52641002D01*
X100551467Y-52603793D01*
X100479087Y-52574583D01*
X100427905Y-52551876D01*
X100394803Y-52534178D01*
X100376663Y-52519992D01*
X100370368Y-52507824D01*
X100370357Y-52507727D01*
X100371882Y-52484888D01*
X100378103Y-52438440D01*
X100388254Y-52373285D01*
X100401566Y-52294324D01*
X100417272Y-52206458D01*
X100419085Y-52196609D01*
X100440110Y-52087634D01*
X100457994Y-52005906D01*
X100473150Y-51949856D01*
X100485991Y-51917921D01*
X100495003Y-51908649D01*
X100516257Y-51906685D01*
X100561788Y-51904645D01*
X100626845Y-51902669D01*
X100706676Y-51900894D01*
X100796531Y-51899460D01*
X100817560Y-51899200D01*
X101116270Y-51895700D01*
X101178529Y-51790379D01*
X101217126Y-51727380D01*
X101259701Y-51661390D01*
X101297361Y-51606174D01*
X101299059Y-51603798D01*
X101328851Y-51561085D01*
X101351048Y-51527064D01*
X101360869Y-51509066D01*
X101360880Y-51509027D01*
X101356209Y-51492194D01*
X101341096Y-51453338D01*
X101317346Y-51396749D01*
X101286765Y-51326724D01*
X101251158Y-51247553D01*
X101248123Y-51240902D01*
X101211075Y-51159585D01*
X101177583Y-51085675D01*
X101149764Y-51023876D01*
X101129737Y-50978894D01*
X101119618Y-50955433D01*
X101119473Y-50955069D01*
X101115944Y-50944546D01*
X101116343Y-50934455D01*
X101123462Y-50922395D01*
X101140093Y-50905965D01*
X101169025Y-50882762D01*
X101213051Y-50850384D01*
X101274961Y-50806432D01*
X101357545Y-50748502D01*
X101368240Y-50741013D01*
X101453394Y-50681463D01*
X101517980Y-50636765D01*
X101565212Y-50605114D01*
X101598300Y-50584710D01*
X101620455Y-50573754D01*
X101634890Y-50570442D01*
X101644815Y-50572974D01*
X101653441Y-50579547D01*
X101654471Y-50580459D01*
X101672415Y-50597359D01*
X101707321Y-50631053D01*
X101755491Y-50677944D01*
X101813227Y-50734431D01*
X101876834Y-50796916D01*
X101879065Y-50799112D01*
X101941688Y-50860144D01*
X101997712Y-50913581D01*
X102043721Y-50956259D01*
X102076296Y-50985011D01*
X102092023Y-50996673D01*
X102092454Y-50996773D01*
X102112601Y-50993737D01*
X102152084Y-50984541D01*
X102202377Y-50971172D01*
X102202655Y-50971094D01*
X102266343Y-50954742D01*
X102342688Y-50937263D01*
X102415715Y-50922303D01*
X102419207Y-50921647D01*
X102539469Y-50899165D01*
X102644923Y-50619666D01*
X102677458Y-50534190D01*
X102707279Y-50457259D01*
X102732630Y-50393290D01*
X102751755Y-50346702D01*
X102762899Y-50321911D01*
X102764123Y-50319794D01*
X102780658Y-50313825D01*
X102819335Y-50313809D01*
X102881766Y-50319893D01*
G37*
X102881766Y-50319893D02*
X102969562Y-50332223D01*
X103060682Y-50346942D01*
X103149314Y-50362260D01*
X103229275Y-50376879D01*
X103295703Y-50389847D01*
X103343729Y-50400209D01*
X103368491Y-50407011D01*
X103369573Y-50407495D01*
X103378840Y-50417573D01*
X103385963Y-50439639D01*
X103391276Y-50477114D01*
X103395116Y-50533415D01*
X103397820Y-50611961D01*
X103399694Y-50714201D01*
X103401001Y-50804429D01*
X103402298Y-50885268D01*
X103403497Y-50952030D01*
X103404515Y-51000031D01*
X103405266Y-51024582D01*
X103405371Y-51026210D01*
X103418006Y-51041390D01*
X103450158Y-51065578D01*
X103495646Y-51094272D01*
X103510804Y-51102994D01*
X103577778Y-51142239D01*
X103651973Y-51188026D01*
X103714674Y-51228692D01*
X103760715Y-51259222D01*
X103796272Y-51282025D01*
X103815581Y-51293435D01*
X103817428Y-51294062D01*
X103832894Y-51286416D01*
X103869922Y-51269207D01*
X103923550Y-51244670D01*
X103988818Y-51215036D01*
X104060763Y-51182542D01*
X104134422Y-51149418D01*
X104204837Y-51117899D01*
X104267042Y-51090217D01*
X104316078Y-51068606D01*
X104346982Y-51055298D01*
X104354708Y-51052244D01*
X104364279Y-51051357D01*
X104375610Y-51056554D01*
X104391017Y-51070645D01*
X104412816Y-51096443D01*
X104443320Y-51136759D01*
X104484844Y-51194403D01*
X104539703Y-51272189D01*
X104562095Y-51304139D01*
X104744095Y-51564062D01*
X104690302Y-51620088D01*
X104660253Y-51651086D01*
X104615259Y-51697123D01*
X104560799Y-51752612D01*
X104502353Y-51811963D01*
X104486182Y-51828346D01*
X104432690Y-51883745D01*
X104387035Y-51933355D01*
X104352979Y-51972913D01*
X104334280Y-51998149D01*
X104331916Y-52003424D01*
X104333977Y-52027612D01*
X104342999Y-52070961D01*
X104357157Y-52124961D01*
X104360477Y-52136404D01*
X104379781Y-52208247D01*
X104399212Y-52290955D01*
X104414580Y-52366684D01*
X104414644Y-52367040D01*
X104436310Y-52487544D01*
X104717253Y-52594213D01*
X104998196Y-52700880D01*
X104945133Y-53003292D01*
X104928480Y-53093897D01*
X104912160Y-53174918D01*
X104897176Y-53241932D01*
X104884538Y-53290518D01*
X104875251Y-53316259D01*
X104873196Y-53318919D01*
X104853247Y-53323275D01*
X104809198Y-53327395D01*
X104745980Y-53330995D01*
X104668523Y-53333792D01*
X104583841Y-53335481D01*
X104497758Y-53336998D01*
X104421599Y-53339197D01*
X104360151Y-53341868D01*
X104318204Y-53344806D01*
X104300591Y-53347769D01*
X104288196Y-53364376D01*
X104267446Y-53399796D01*
X104242605Y-53446704D01*
X104240043Y-53451778D01*
X104206221Y-53514420D01*
X104179454Y-53552270D01*
X104157319Y-53567972D01*
X104137391Y-53564174D01*
X104137207Y-53564054D01*
X104121538Y-53554003D01*
X104084277Y-53530188D01*
X104028311Y-53494452D01*
X103956525Y-53448634D01*
X103871806Y-53394580D01*
X103777039Y-53334129D01*
X103685277Y-53275607D01*
X103584168Y-53210916D01*
X103490811Y-53150774D01*
X103408045Y-53097041D01*
X103338706Y-53051576D01*
X103285635Y-53016239D01*
X103251670Y-52992893D01*
X103239763Y-52983640D01*
X103239418Y-52963704D01*
X103248206Y-52925393D01*
X103263415Y-52879289D01*
X103301483Y-52740508D01*
X103312031Y-52604599D01*
X103295481Y-52473976D01*
X103252254Y-52351049D01*
X103182771Y-52238230D01*
X103143114Y-52191471D01*
X103045180Y-52105419D01*
X102937479Y-52044283D01*
X102823346Y-52007079D01*
X102706114Y-51992816D01*
X102589115Y-52000509D01*
X102475686Y-52029170D01*
X102369156Y-52077810D01*
X102272863Y-52145444D01*
X102190138Y-52231083D01*
X102124314Y-52333740D01*
X102078726Y-52452428D01*
X102065739Y-52510594D01*
X102055815Y-52643549D01*
X102072382Y-52769647D01*
X102113230Y-52886421D01*
X102176154Y-52991400D01*
X102258947Y-53082115D01*
X102359404Y-53156098D01*
X102475317Y-53210879D01*
X102604482Y-53243990D01*
X102729375Y-53253228D01*
X102779840Y-53254851D01*
X102818169Y-53259823D01*
X102835537Y-53266713D01*
X102840891Y-53283739D01*
X102851676Y-53325820D01*
X102867116Y-53389649D01*
X102886434Y-53471926D01*
X102908854Y-53569345D01*
X102933598Y-53678604D01*
X102957426Y-53785283D01*
X102983481Y-53902645D01*
X103007639Y-54011388D01*
X103029158Y-54108172D01*
X103047295Y-54189657D01*
X103061305Y-54252501D01*
X103070444Y-54293362D01*
X103073894Y-54308594D01*
X103070880Y-54328631D01*
X103048732Y-54344087D01*
X103004162Y-54356321D01*
X102933878Y-54366695D01*
X102933312Y-54366761D01*
X102879972Y-54373969D01*
X102837985Y-54381413D01*
X102815696Y-54387591D01*
X102814867Y-54388084D01*
X102805917Y-54403916D01*
X102788732Y-54442546D01*
X102765147Y-54499545D01*
X102736996Y-54570484D01*
X102706443Y-54650050D01*
X102675184Y-54730838D01*
X102646136Y-54802401D01*
X102621251Y-54860204D01*
X102602477Y-54899711D01*
X102591913Y-54916291D01*
X102572542Y-54917786D01*
X102529147Y-54914440D01*
X102466228Y-54906820D01*
X102388280Y-54895490D01*
X102299803Y-54881014D01*
X102270614Y-54875919D01*
X101968187Y-54822333D01*
X101964449Y-54529031D01*
X101962871Y-54439263D01*
X101960639Y-54359267D01*
X101957949Y-54293633D01*
X101954995Y-54246949D01*
X101951975Y-54223802D01*
X101951389Y-54222414D01*
X101935536Y-54209703D01*
X101900485Y-54186348D01*
X101852176Y-54156215D01*
X101819243Y-54136457D01*
X101756763Y-54098226D01*
X101695284Y-54058452D01*
X101644910Y-54023745D01*
X101630142Y-54012769D01*
X101589891Y-53984023D01*
X101556026Y-53963748D01*
X101540965Y-53957669D01*
X101520186Y-53962043D01*
X101478492Y-53976814D01*
X101421184Y-53999905D01*
X101353556Y-54029240D01*
X101323600Y-54042810D01*
X101247715Y-54077533D01*
X101174849Y-54110726D01*
X101112126Y-54139155D01*
X101066673Y-54159582D01*
X101058089Y-54163392D01*
X100987043Y-54194778D01*
X100805043Y-53934855D01*
X100745337Y-53849289D01*
X100700634Y-53784221D01*
X100669083Y-53736516D01*
X100648833Y-53703037D01*
X100638035Y-53680647D01*
X100634839Y-53666209D01*
X100637393Y-53656588D01*
X100639269Y-53653822D01*
X100652278Y-53639563D01*
X100681534Y-53608801D01*
X100723245Y-53565433D01*
X100773613Y-53513359D01*
X100828844Y-53456479D01*
X100885140Y-53398689D01*
X100938708Y-53343891D01*
X100985750Y-53295981D01*
X101022473Y-53258859D01*
X101045081Y-53236423D01*
X101050265Y-53231651D01*
X101048267Y-53217768D01*
X101040611Y-53182416D01*
X101028771Y-53132269D01*
X101023980Y-53112737D01*
X101006486Y-53036561D01*
X100988908Y-52951177D01*
X100975590Y-52878170D01*
X100964677Y-52822858D01*
X100952790Y-52779452D01*
X100942050Y-52755292D01*
X100939394Y-52752905D01*
X100921216Y-52745589D01*
X100880265Y-52729682D01*
X100820919Y-52706864D01*
X100747558Y-52678819D01*
X100664558Y-52647229D01*
X100648160Y-52641002D01*
X100551467Y-52603793D01*
X100479087Y-52574583D01*
X100427905Y-52551876D01*
X100394803Y-52534178D01*
X100376663Y-52519992D01*
X100370368Y-52507824D01*
X100370357Y-52507727D01*
X100371882Y-52484888D01*
X100378103Y-52438440D01*
X100388254Y-52373285D01*
X100401566Y-52294324D01*
X100417272Y-52206458D01*
X100419085Y-52196609D01*
X100440110Y-52087634D01*
X100457994Y-52005906D01*
X100473150Y-51949856D01*
X100485991Y-51917921D01*
X100495003Y-51908649D01*
X100516257Y-51906685D01*
X100561788Y-51904645D01*
X100626845Y-51902669D01*
X100706676Y-51900894D01*
X100796531Y-51899460D01*
X100817560Y-51899200D01*
X101116270Y-51895700D01*
X101178529Y-51790379D01*
X101217126Y-51727380D01*
X101259701Y-51661390D01*
X101297361Y-51606174D01*
X101299059Y-51603798D01*
X101328851Y-51561085D01*
X101351048Y-51527064D01*
X101360869Y-51509066D01*
X101360880Y-51509027D01*
X101356209Y-51492194D01*
X101341096Y-51453338D01*
X101317346Y-51396749D01*
X101286765Y-51326724D01*
X101251158Y-51247553D01*
X101248123Y-51240902D01*
X101211075Y-51159585D01*
X101177583Y-51085675D01*
X101149764Y-51023876D01*
X101129737Y-50978894D01*
X101119618Y-50955433D01*
X101119473Y-50955069D01*
X101115944Y-50944546D01*
X101116343Y-50934455D01*
X101123462Y-50922395D01*
X101140093Y-50905965D01*
X101169025Y-50882762D01*
X101213051Y-50850384D01*
X101274961Y-50806432D01*
X101357545Y-50748502D01*
X101368240Y-50741013D01*
X101453394Y-50681463D01*
X101517980Y-50636765D01*
X101565212Y-50605114D01*
X101598300Y-50584710D01*
X101620455Y-50573754D01*
X101634890Y-50570442D01*
X101644815Y-50572974D01*
X101653441Y-50579547D01*
X101654471Y-50580459D01*
X101672415Y-50597359D01*
X101707321Y-50631053D01*
X101755491Y-50677944D01*
X101813227Y-50734431D01*
X101876834Y-50796916D01*
X101879065Y-50799112D01*
X101941688Y-50860144D01*
X101997712Y-50913581D01*
X102043721Y-50956259D01*
X102076296Y-50985011D01*
X102092023Y-50996673D01*
X102092454Y-50996773D01*
X102112601Y-50993737D01*
X102152084Y-50984541D01*
X102202377Y-50971172D01*
X102202655Y-50971094D01*
X102266343Y-50954742D01*
X102342688Y-50937263D01*
X102415715Y-50922303D01*
X102419207Y-50921647D01*
X102539469Y-50899165D01*
X102644923Y-50619666D01*
X102677458Y-50534190D01*
X102707279Y-50457259D01*
X102732630Y-50393290D01*
X102751755Y-50346702D01*
X102762899Y-50321911D01*
X102764123Y-50319794D01*
X102780658Y-50313825D01*
X102819335Y-50313809D01*
X102881766Y-50319893D01*
G36*
X101966490Y-56313733D02*
G01*
X101941589Y-56273335D01*
X101925503Y-56243497D01*
X101916330Y-56220875D01*
X101912167Y-56202128D01*
X101911112Y-56183909D01*
X101911127Y-56176766D01*
X101913680Y-56161743D01*
X102058021Y-56161743D01*
X102069857Y-56207963D01*
X102102911Y-56268014D01*
X102123849Y-56299099D01*
X102159993Y-56349352D01*
X102186077Y-56380527D01*
X102207856Y-56397885D01*
X102231087Y-56406688D01*
X102244607Y-56409448D01*
X102293206Y-56411196D01*
X102322719Y-56393443D01*
X102337879Y-56353282D01*
X102338102Y-56352036D01*
X102339190Y-56328441D01*
X102331797Y-56302584D01*
X102312968Y-56267978D01*
X102279748Y-56218130D01*
X102272159Y-56207248D01*
X102222093Y-56141555D01*
X102180397Y-56100910D01*
X102144286Y-56083560D01*
X102110976Y-56087752D01*
X102096014Y-56096300D01*
X102066905Y-56125730D01*
X102058021Y-56161743D01*
X101913680Y-56161743D01*
X101924126Y-56100282D01*
X101962641Y-56035109D01*
X102022953Y-55982227D01*
X102085045Y-55949435D01*
X102146332Y-55940276D01*
X102215629Y-55953906D01*
X102237489Y-55961621D01*
X102263672Y-55973412D01*
X102286849Y-55989901D01*
X102311832Y-56016076D01*
X102343428Y-56056922D01*
X102382929Y-56112396D01*
X102434462Y-56190236D01*
X102467724Y-56252484D01*
X102484420Y-56304608D01*
X102486259Y-56352076D01*
X102474948Y-56400355D01*
X102473847Y-56403515D01*
X102455496Y-56440807D01*
X102425252Y-56474078D01*
X102380962Y-56508071D01*
X102306684Y-56560081D01*
X102357143Y-56632210D01*
X102384571Y-56672853D01*
X102396853Y-56699358D01*
X102395738Y-56721193D01*
X102382977Y-56747825D01*
X102379614Y-56753795D01*
X102363889Y-56781749D01*
X102350578Y-56801771D01*
X102337376Y-56811939D01*
X102321977Y-56810333D01*
X102302075Y-56795031D01*
X102275366Y-56764112D01*
X102239543Y-56715656D01*
X102192300Y-56647740D01*
X102131334Y-56558444D01*
X102113112Y-56531724D01*
X102050349Y-56439584D01*
X102009578Y-56379113D01*
X102002109Y-56368035D01*
X101966490Y-56313733D01*
G37*
X101966490Y-56313733D02*
X101941589Y-56273335D01*
X101925503Y-56243497D01*
X101916330Y-56220875D01*
X101912167Y-56202128D01*
X101911112Y-56183909D01*
X101911127Y-56176766D01*
X101913680Y-56161743D01*
X102058021Y-56161743D01*
X102069857Y-56207963D01*
X102102911Y-56268014D01*
X102123849Y-56299099D01*
X102159993Y-56349352D01*
X102186077Y-56380527D01*
X102207856Y-56397885D01*
X102231087Y-56406688D01*
X102244607Y-56409448D01*
X102293206Y-56411196D01*
X102322719Y-56393443D01*
X102337879Y-56353282D01*
X102338102Y-56352036D01*
X102339190Y-56328441D01*
X102331797Y-56302584D01*
X102312968Y-56267978D01*
X102279748Y-56218130D01*
X102272159Y-56207248D01*
X102222093Y-56141555D01*
X102180397Y-56100910D01*
X102144286Y-56083560D01*
X102110976Y-56087752D01*
X102096014Y-56096300D01*
X102066905Y-56125730D01*
X102058021Y-56161743D01*
X101913680Y-56161743D01*
X101924126Y-56100282D01*
X101962641Y-56035109D01*
X102022953Y-55982227D01*
X102085045Y-55949435D01*
X102146332Y-55940276D01*
X102215629Y-55953906D01*
X102237489Y-55961621D01*
X102263672Y-55973412D01*
X102286849Y-55989901D01*
X102311832Y-56016076D01*
X102343428Y-56056922D01*
X102382929Y-56112396D01*
X102434462Y-56190236D01*
X102467724Y-56252484D01*
X102484420Y-56304608D01*
X102486259Y-56352076D01*
X102474948Y-56400355D01*
X102473847Y-56403515D01*
X102455496Y-56440807D01*
X102425252Y-56474078D01*
X102380962Y-56508071D01*
X102306684Y-56560081D01*
X102357143Y-56632210D01*
X102384571Y-56672853D01*
X102396853Y-56699358D01*
X102395738Y-56721193D01*
X102382977Y-56747825D01*
X102379614Y-56753795D01*
X102363889Y-56781749D01*
X102350578Y-56801771D01*
X102337376Y-56811939D01*
X102321977Y-56810333D01*
X102302075Y-56795031D01*
X102275366Y-56764112D01*
X102239543Y-56715656D01*
X102192300Y-56647740D01*
X102131334Y-56558444D01*
X102113112Y-56531724D01*
X102050349Y-56439584D01*
X102009578Y-56379113D01*
X102002109Y-56368035D01*
X101966490Y-56313733D01*
G36*
X104204712Y-54561013D02*
G01*
X104243336Y-54570900D01*
X104280909Y-54592720D01*
X104321421Y-54629548D01*
X104368859Y-54684458D01*
X104427211Y-54760526D01*
X104435337Y-54771495D01*
X104557656Y-54937037D01*
X104534581Y-54981073D01*
X104517258Y-55012041D01*
X104505649Y-55029098D01*
X104504970Y-55029684D01*
X104494496Y-55020547D01*
X104471448Y-54992254D01*
X104439613Y-54949632D01*
X104414623Y-54914565D01*
X104374609Y-54857432D01*
X104346871Y-54823379D01*
X104325783Y-54812640D01*
X104305713Y-54825448D01*
X104281032Y-54862038D01*
X104246748Y-54921537D01*
X104223127Y-54967556D01*
X104215870Y-54998212D01*
X104223301Y-55020884D01*
X104223941Y-55021815D01*
X104255852Y-55047491D01*
X104295722Y-55045515D01*
X104339851Y-55018372D01*
X104370060Y-54996568D01*
X104392304Y-54994091D01*
X104417119Y-55008174D01*
X104441726Y-55031025D01*
X104444088Y-55052113D01*
X104442484Y-55056490D01*
X104419123Y-55085920D01*
X104378679Y-55116090D01*
X104332062Y-55140068D01*
X104294474Y-55150553D01*
X104228012Y-55144349D01*
X104169824Y-55111676D01*
X104138183Y-55076474D01*
X104117456Y-55039251D01*
X104110571Y-55001841D01*
X104118605Y-54958707D01*
X104142634Y-54904315D01*
X104183734Y-54833129D01*
X104186325Y-54828917D01*
X104223514Y-54765032D01*
X104242853Y-54720452D01*
X104244287Y-54691556D01*
X104227767Y-54674717D01*
X104193238Y-54666313D01*
X104183968Y-54665306D01*
X104131811Y-54672755D01*
X104092496Y-54701508D01*
X104071147Y-54744960D01*
X104072890Y-54796506D01*
X104075615Y-54804957D01*
X104078360Y-54853267D01*
X104063264Y-54888033D01*
X104036263Y-54930917D01*
X104007114Y-54889288D01*
X103976385Y-54820629D01*
X103972074Y-54740934D01*
X103977053Y-54709778D01*
X104001236Y-54657329D01*
X104045658Y-54610149D01*
X104101586Y-54575343D01*
X104160286Y-54560022D01*
X104161052Y-54559982D01*
X104204712Y-54561013D01*
G37*
X104204712Y-54561013D02*
X104243336Y-54570900D01*
X104280909Y-54592720D01*
X104321421Y-54629548D01*
X104368859Y-54684458D01*
X104427211Y-54760526D01*
X104435337Y-54771495D01*
X104557656Y-54937037D01*
X104534581Y-54981073D01*
X104517258Y-55012041D01*
X104505649Y-55029098D01*
X104504970Y-55029684D01*
X104494496Y-55020547D01*
X104471448Y-54992254D01*
X104439613Y-54949632D01*
X104414623Y-54914565D01*
X104374609Y-54857432D01*
X104346871Y-54823379D01*
X104325783Y-54812640D01*
X104305713Y-54825448D01*
X104281032Y-54862038D01*
X104246748Y-54921537D01*
X104223127Y-54967556D01*
X104215870Y-54998212D01*
X104223301Y-55020884D01*
X104223941Y-55021815D01*
X104255852Y-55047491D01*
X104295722Y-55045515D01*
X104339851Y-55018372D01*
X104370060Y-54996568D01*
X104392304Y-54994091D01*
X104417119Y-55008174D01*
X104441726Y-55031025D01*
X104444088Y-55052113D01*
X104442484Y-55056490D01*
X104419123Y-55085920D01*
X104378679Y-55116090D01*
X104332062Y-55140068D01*
X104294474Y-55150553D01*
X104228012Y-55144349D01*
X104169824Y-55111676D01*
X104138183Y-55076474D01*
X104117456Y-55039251D01*
X104110571Y-55001841D01*
X104118605Y-54958707D01*
X104142634Y-54904315D01*
X104183734Y-54833129D01*
X104186325Y-54828917D01*
X104223514Y-54765032D01*
X104242853Y-54720452D01*
X104244287Y-54691556D01*
X104227767Y-54674717D01*
X104193238Y-54666313D01*
X104183968Y-54665306D01*
X104131811Y-54672755D01*
X104092496Y-54701508D01*
X104071147Y-54744960D01*
X104072890Y-54796506D01*
X104075615Y-54804957D01*
X104078360Y-54853267D01*
X104063264Y-54888033D01*
X104036263Y-54930917D01*
X104007114Y-54889288D01*
X103976385Y-54820629D01*
X103972074Y-54740934D01*
X103977053Y-54709778D01*
X104001236Y-54657329D01*
X104045658Y-54610149D01*
X104101586Y-54575343D01*
X104160286Y-54560022D01*
X104161052Y-54559982D01*
X104204712Y-54561013D01*
G36*
X104791634Y-54261998D02*
G01*
X104780467Y-54207008D01*
X104879863Y-54207008D01*
X104883740Y-54229857D01*
X104897265Y-54258468D01*
X104923259Y-54299279D01*
X104951414Y-54340023D01*
X104989148Y-54392834D01*
X105016116Y-54426400D01*
X105037584Y-54445681D01*
X105058816Y-54455635D01*
X105079047Y-54460189D01*
X105134429Y-54457547D01*
X105177113Y-54430747D01*
X105201909Y-54383215D01*
X105203021Y-54378348D01*
X105205975Y-54355012D01*
X105202204Y-54332350D01*
X105188906Y-54304005D01*
X105163275Y-54263617D01*
X105133255Y-54220145D01*
X105094579Y-54166207D01*
X105066661Y-54131705D01*
X105044494Y-54111706D01*
X105023070Y-54101272D01*
X105008955Y-54097646D01*
X104956861Y-54100052D01*
X104913376Y-54126405D01*
X104885932Y-54171643D01*
X104882816Y-54183487D01*
X104879863Y-54207008D01*
X104780467Y-54207008D01*
X104780459Y-54206970D01*
X104786087Y-54154006D01*
X104796605Y-54121516D01*
X104824425Y-54074891D01*
X104865532Y-54033508D01*
X104910831Y-54005162D01*
X104941685Y-53997164D01*
X104953102Y-53993040D01*
X104952689Y-53978893D01*
X104938958Y-53949819D01*
X104914633Y-53907921D01*
X104887478Y-53861302D01*
X104874041Y-53831222D01*
X104872740Y-53809553D01*
X104881995Y-53788160D01*
X104889110Y-53776576D01*
X104916416Y-53733333D01*
X105109527Y-54009219D01*
X105171598Y-54098185D01*
X105218878Y-54166953D01*
X105253414Y-54218968D01*
X105277253Y-54257676D01*
X105292441Y-54286526D01*
X105301024Y-54308965D01*
X105305050Y-54328440D01*
X105306145Y-54340397D01*
X105298129Y-54415016D01*
X105267181Y-54479941D01*
X105217745Y-54530076D01*
X105154272Y-54560326D01*
X105108462Y-54566895D01*
X105052220Y-54562150D01*
X105002697Y-54542933D01*
X104954934Y-54505800D01*
X104903973Y-54447302D01*
X104870558Y-54401604D01*
X104868353Y-54398183D01*
X104821153Y-54324930D01*
X104791634Y-54261998D01*
G37*
X104791634Y-54261998D02*
X104780467Y-54207008D01*
X104879863Y-54207008D01*
X104883740Y-54229857D01*
X104897265Y-54258468D01*
X104923259Y-54299279D01*
X104951414Y-54340023D01*
X104989148Y-54392834D01*
X105016116Y-54426400D01*
X105037584Y-54445681D01*
X105058816Y-54455635D01*
X105079047Y-54460189D01*
X105134429Y-54457547D01*
X105177113Y-54430747D01*
X105201909Y-54383215D01*
X105203021Y-54378348D01*
X105205975Y-54355012D01*
X105202204Y-54332350D01*
X105188906Y-54304005D01*
X105163275Y-54263617D01*
X105133255Y-54220145D01*
X105094579Y-54166207D01*
X105066661Y-54131705D01*
X105044494Y-54111706D01*
X105023070Y-54101272D01*
X105008955Y-54097646D01*
X104956861Y-54100052D01*
X104913376Y-54126405D01*
X104885932Y-54171643D01*
X104882816Y-54183487D01*
X104879863Y-54207008D01*
X104780467Y-54207008D01*
X104780459Y-54206970D01*
X104786087Y-54154006D01*
X104796605Y-54121516D01*
X104824425Y-54074891D01*
X104865532Y-54033508D01*
X104910831Y-54005162D01*
X104941685Y-53997164D01*
X104953102Y-53993040D01*
X104952689Y-53978893D01*
X104938958Y-53949819D01*
X104914633Y-53907921D01*
X104887478Y-53861302D01*
X104874041Y-53831222D01*
X104872740Y-53809553D01*
X104881995Y-53788160D01*
X104889110Y-53776576D01*
X104916416Y-53733333D01*
X105109527Y-54009219D01*
X105171598Y-54098185D01*
X105218878Y-54166953D01*
X105253414Y-54218968D01*
X105277253Y-54257676D01*
X105292441Y-54286526D01*
X105301024Y-54308965D01*
X105305050Y-54328440D01*
X105306145Y-54340397D01*
X105298129Y-54415016D01*
X105267181Y-54479941D01*
X105217745Y-54530076D01*
X105154272Y-54560326D01*
X105108462Y-54566895D01*
X105052220Y-54562150D01*
X105002697Y-54542933D01*
X104954934Y-54505800D01*
X104903973Y-54447302D01*
X104870558Y-54401604D01*
X104868353Y-54398183D01*
X104821153Y-54324930D01*
X104791634Y-54261998D01*
D11*
X131800000Y-68300000D02*
X124000000Y-68300000D01*
X131800000Y-71100000D02*
X131800000Y-68300000D01*
X124000000Y-68300000D02*
X124000000Y-71100000D01*
X124000000Y-71100000D02*
X131800000Y-71100000D01*
X119290000Y-51840580D02*
X119290000Y-51559420D01*
X120310000Y-51840580D02*
X120310000Y-51559420D01*
X131000000Y-66250000D02*
X133000000Y-66250000D01*
X131000000Y-66250000D02*
X131000000Y-62350000D01*
X133000000Y-66250000D02*
X133000000Y-62350000D01*
X131760000Y-59640580D02*
X131760000Y-59359420D01*
X130740000Y-59640580D02*
X130740000Y-59359420D01*
X107387669Y-59427719D02*
X106475501Y-58515552D01*
X105485552Y-59505501D02*
X106397719Y-60417669D01*
X106475501Y-58515552D02*
X105485552Y-59505501D01*
X106397850Y-60417456D02*
G75*
G03*
X107387669Y-59427719I2572150J-1582544D01*
G01*
X114370000Y-62000000D02*
G75*
G03*
X114370000Y-62000000I-5400000J0D01*
G01*
X122022500Y-68237258D02*
X122022500Y-67762742D01*
X120977500Y-68237258D02*
X120977500Y-67762742D01*
X123859420Y-67010000D02*
X124140580Y-67010000D01*
X123859420Y-65990000D02*
X124140580Y-65990000D01*
X126300000Y-64260000D02*
X128250000Y-64260000D01*
X126300000Y-64260000D02*
X124350000Y-64260000D01*
X126300000Y-59140000D02*
X128250000Y-59140000D01*
X126300000Y-59140000D02*
X122850000Y-59140000D01*
X121365000Y-71927064D02*
X121365000Y-71472936D01*
X122835000Y-71927064D02*
X122835000Y-71472936D01*
M02*
