G04 #@! TF.GenerationSoftware,KiCad,Pcbnew,(6.0.0-rc1-dev-696-g8c56f5b03)*
G04 #@! TF.CreationDate,2019-01-11T00:51:06+01:00*
G04 #@! TF.ProjectId,reference_board,7265666572656E63655F626F6172642E,v3.1.0*
G04 #@! TF.SameCoordinates,Original*
G04 #@! TF.FileFunction,Copper,L1,Top,Signal*
G04 #@! TF.FilePolarity,Positive*
%FSLAX46Y46*%
G04 Gerber Fmt 4.6, Leading zero omitted, Abs format (unit mm)*
G04 Created by KiCad (PCBNEW (6.0.0-rc1-dev-696-g8c56f5b03)) date Fri Jan 11 00:51:06 2019*
%MOMM*%
%LPD*%
G01*
G04 APERTURE LIST*
G04 #@! TA.AperFunction,EtchedComponent*
%ADD10C,0.100000*%
G04 #@! TD*
G04 #@! TA.AperFunction,Conductor*
%ADD11C,0.250000*%
G04 #@! TD*
G04 #@! TA.AperFunction,Conductor*
%ADD12C,0.100000*%
G04 #@! TD*
G04 #@! TA.AperFunction,SMDPad,CuDef*
%ADD13C,0.975000*%
G04 #@! TD*
G04 #@! TA.AperFunction,ComponentPad*
%ADD14C,4.700000*%
G04 #@! TD*
G04 #@! TA.AperFunction,ComponentPad*
%ADD15C,1.100000*%
G04 #@! TD*
G04 #@! TA.AperFunction,ComponentPad*
%ADD16C,1.500000*%
G04 #@! TD*
G04 #@! TA.AperFunction,ComponentPad*
%ADD17R,1.500000X1.500000*%
G04 #@! TD*
G04 #@! TA.AperFunction,SMDPad,CuDef*
%ADD18C,1.250000*%
G04 #@! TD*
G04 #@! TA.AperFunction,SMDPad,CuDef*
%ADD19C,0.875000*%
G04 #@! TD*
G04 #@! TA.AperFunction,SMDPad,CuDef*
%ADD20R,0.650000X0.400000*%
G04 #@! TD*
G04 #@! TA.AperFunction,ComponentPad*
%ADD21O,1.700000X1.700000*%
G04 #@! TD*
G04 #@! TA.AperFunction,ComponentPad*
%ADD22R,1.700000X1.700000*%
G04 #@! TD*
G04 #@! TA.AperFunction,SMDPad,CuDef*
%ADD23R,1.550000X0.600000*%
G04 #@! TD*
G04 #@! TA.AperFunction,ViaPad*
%ADD24C,0.800000*%
G04 #@! TD*
G04 #@! TA.AperFunction,Conductor*
%ADD25C,0.250000*%
G04 #@! TD*
G04 #@! TA.AperFunction,Conductor*
%ADD26C,0.300000*%
G04 #@! TD*
G04 #@! TA.AperFunction,Conductor*
%ADD27C,0.200000*%
G04 #@! TD*
G04 #@! TA.AperFunction,Conductor*
%ADD28C,0.150000*%
G04 #@! TD*
G04 APERTURE END LIST*
D10*
G04 #@! TO.C,NT2*
G36*
X158175000Y-96700000D02*
X158425000Y-96700000D01*
X158425000Y-97200000D01*
X158175000Y-97200000D01*
X158175000Y-96700000D01*
G37*
G04 #@! TO.C,NT5*
G36*
X176317678Y-96859099D02*
X176140901Y-96682322D01*
X176494455Y-96328769D01*
X176671231Y-96505545D01*
X176317678Y-96859099D01*
G37*
G04 #@! TO.C,NT4*
G36*
X179375000Y-96400000D02*
X179625000Y-96400000D01*
X179625000Y-96900000D01*
X179375000Y-96900000D01*
X179375000Y-96400000D01*
G37*
G04 #@! TD*
D11*
G04 #@! TO.N,Net-(NT2-Pad1)*
G04 #@! TO.C,NT2*
X158300000Y-97200000D03*
G04 #@! TO.N,Net-(NT2-Pad2)*
X158300000Y-96700000D03*
G04 #@! TD*
G04 #@! TO.N,/Vout*
G04 #@! TO.C,NT5*
X176582843Y-96417157D03*
G04 #@! TO.N,Net-(C3-Pad1)*
X176229290Y-96770710D03*
G04 #@! TD*
G04 #@! TO.N,Net-(NT4-Pad1)*
G04 #@! TO.C,NT4*
X179500000Y-96900000D03*
G04 #@! TO.N,/Vout*
X179500000Y-96400000D03*
G04 #@! TD*
D12*
G04 #@! TO.N,Net-(NT2-Pad1)*
G04 #@! TO.C,R1*
G36*
X171580142Y-103276174D02*
X171603803Y-103279684D01*
X171627007Y-103285496D01*
X171649529Y-103293554D01*
X171671153Y-103303782D01*
X171691670Y-103316079D01*
X171710883Y-103330329D01*
X171728607Y-103346393D01*
X171744671Y-103364117D01*
X171758921Y-103383330D01*
X171771218Y-103403847D01*
X171781446Y-103425471D01*
X171789504Y-103447993D01*
X171795316Y-103471197D01*
X171798826Y-103494858D01*
X171800000Y-103518750D01*
X171800000Y-104006250D01*
X171798826Y-104030142D01*
X171795316Y-104053803D01*
X171789504Y-104077007D01*
X171781446Y-104099529D01*
X171771218Y-104121153D01*
X171758921Y-104141670D01*
X171744671Y-104160883D01*
X171728607Y-104178607D01*
X171710883Y-104194671D01*
X171691670Y-104208921D01*
X171671153Y-104221218D01*
X171649529Y-104231446D01*
X171627007Y-104239504D01*
X171603803Y-104245316D01*
X171580142Y-104248826D01*
X171556250Y-104250000D01*
X170643750Y-104250000D01*
X170619858Y-104248826D01*
X170596197Y-104245316D01*
X170572993Y-104239504D01*
X170550471Y-104231446D01*
X170528847Y-104221218D01*
X170508330Y-104208921D01*
X170489117Y-104194671D01*
X170471393Y-104178607D01*
X170455329Y-104160883D01*
X170441079Y-104141670D01*
X170428782Y-104121153D01*
X170418554Y-104099529D01*
X170410496Y-104077007D01*
X170404684Y-104053803D01*
X170401174Y-104030142D01*
X170400000Y-104006250D01*
X170400000Y-103518750D01*
X170401174Y-103494858D01*
X170404684Y-103471197D01*
X170410496Y-103447993D01*
X170418554Y-103425471D01*
X170428782Y-103403847D01*
X170441079Y-103383330D01*
X170455329Y-103364117D01*
X170471393Y-103346393D01*
X170489117Y-103330329D01*
X170508330Y-103316079D01*
X170528847Y-103303782D01*
X170550471Y-103293554D01*
X170572993Y-103285496D01*
X170596197Y-103279684D01*
X170619858Y-103276174D01*
X170643750Y-103275000D01*
X171556250Y-103275000D01*
X171580142Y-103276174D01*
X171580142Y-103276174D01*
G37*
D13*
G04 #@! TD*
G04 #@! TO.P,R1,2*
G04 #@! TO.N,Net-(NT2-Pad1)*
X171100000Y-103762500D03*
D12*
G04 #@! TO.N,Net-(NT4-Pad1)*
G04 #@! TO.C,R1*
G36*
X171580142Y-105151174D02*
X171603803Y-105154684D01*
X171627007Y-105160496D01*
X171649529Y-105168554D01*
X171671153Y-105178782D01*
X171691670Y-105191079D01*
X171710883Y-105205329D01*
X171728607Y-105221393D01*
X171744671Y-105239117D01*
X171758921Y-105258330D01*
X171771218Y-105278847D01*
X171781446Y-105300471D01*
X171789504Y-105322993D01*
X171795316Y-105346197D01*
X171798826Y-105369858D01*
X171800000Y-105393750D01*
X171800000Y-105881250D01*
X171798826Y-105905142D01*
X171795316Y-105928803D01*
X171789504Y-105952007D01*
X171781446Y-105974529D01*
X171771218Y-105996153D01*
X171758921Y-106016670D01*
X171744671Y-106035883D01*
X171728607Y-106053607D01*
X171710883Y-106069671D01*
X171691670Y-106083921D01*
X171671153Y-106096218D01*
X171649529Y-106106446D01*
X171627007Y-106114504D01*
X171603803Y-106120316D01*
X171580142Y-106123826D01*
X171556250Y-106125000D01*
X170643750Y-106125000D01*
X170619858Y-106123826D01*
X170596197Y-106120316D01*
X170572993Y-106114504D01*
X170550471Y-106106446D01*
X170528847Y-106096218D01*
X170508330Y-106083921D01*
X170489117Y-106069671D01*
X170471393Y-106053607D01*
X170455329Y-106035883D01*
X170441079Y-106016670D01*
X170428782Y-105996153D01*
X170418554Y-105974529D01*
X170410496Y-105952007D01*
X170404684Y-105928803D01*
X170401174Y-105905142D01*
X170400000Y-105881250D01*
X170400000Y-105393750D01*
X170401174Y-105369858D01*
X170404684Y-105346197D01*
X170410496Y-105322993D01*
X170418554Y-105300471D01*
X170428782Y-105278847D01*
X170441079Y-105258330D01*
X170455329Y-105239117D01*
X170471393Y-105221393D01*
X170489117Y-105205329D01*
X170508330Y-105191079D01*
X170528847Y-105178782D01*
X170550471Y-105168554D01*
X170572993Y-105160496D01*
X170596197Y-105154684D01*
X170619858Y-105151174D01*
X170643750Y-105150000D01*
X171556250Y-105150000D01*
X171580142Y-105151174D01*
X171580142Y-105151174D01*
G37*
D13*
G04 #@! TD*
G04 #@! TO.P,R1,1*
G04 #@! TO.N,Net-(NT4-Pad1)*
X171100000Y-105637500D03*
D14*
G04 #@! TO.P,H1,1*
G04 #@! TO.N,N/C*
X153000000Y-105000000D03*
G04 #@! TD*
D15*
G04 #@! TO.P,U2,2*
G04 #@! TO.N,Net-(NT2-Pad2)*
X158000000Y-96270000D03*
G04 #@! TO.P,U2,4*
G04 #@! TO.N,/Voltage Reference/V-*
X158000000Y-93730000D03*
G04 #@! TO.P,U2,3*
G04 #@! TO.N,/Voltage Reference/V+*
X159270000Y-95000000D03*
G04 #@! TO.P,U2,1*
G04 #@! TO.N,/Zener+_force*
X156730000Y-95000000D03*
G04 #@! TD*
D16*
G04 #@! TO.P,RN1,3*
G04 #@! TO.N,Net-(C3-Pad1)*
X179440000Y-102700000D03*
G04 #@! TO.P,RN1,2*
G04 #@! TO.N,Net-(C3-Pad2)*
X176900000Y-102700000D03*
D17*
G04 #@! TO.P,RN1,1*
G04 #@! TO.N,Net-(NT3-Pad1)*
X174360000Y-102700000D03*
G04 #@! TD*
D12*
G04 #@! TO.N,GND*
G04 #@! TO.C,C1*
G36*
X181249504Y-91376204D02*
X181273773Y-91379804D01*
X181297571Y-91385765D01*
X181320671Y-91394030D01*
X181342849Y-91404520D01*
X181363893Y-91417133D01*
X181383598Y-91431747D01*
X181401777Y-91448223D01*
X181418253Y-91466402D01*
X181432867Y-91486107D01*
X181445480Y-91507151D01*
X181455970Y-91529329D01*
X181464235Y-91552429D01*
X181470196Y-91576227D01*
X181473796Y-91600496D01*
X181475000Y-91625000D01*
X181475000Y-92375000D01*
X181473796Y-92399504D01*
X181470196Y-92423773D01*
X181464235Y-92447571D01*
X181455970Y-92470671D01*
X181445480Y-92492849D01*
X181432867Y-92513893D01*
X181418253Y-92533598D01*
X181401777Y-92551777D01*
X181383598Y-92568253D01*
X181363893Y-92582867D01*
X181342849Y-92595480D01*
X181320671Y-92605970D01*
X181297571Y-92614235D01*
X181273773Y-92620196D01*
X181249504Y-92623796D01*
X181225000Y-92625000D01*
X179975000Y-92625000D01*
X179950496Y-92623796D01*
X179926227Y-92620196D01*
X179902429Y-92614235D01*
X179879329Y-92605970D01*
X179857151Y-92595480D01*
X179836107Y-92582867D01*
X179816402Y-92568253D01*
X179798223Y-92551777D01*
X179781747Y-92533598D01*
X179767133Y-92513893D01*
X179754520Y-92492849D01*
X179744030Y-92470671D01*
X179735765Y-92447571D01*
X179729804Y-92423773D01*
X179726204Y-92399504D01*
X179725000Y-92375000D01*
X179725000Y-91625000D01*
X179726204Y-91600496D01*
X179729804Y-91576227D01*
X179735765Y-91552429D01*
X179744030Y-91529329D01*
X179754520Y-91507151D01*
X179767133Y-91486107D01*
X179781747Y-91466402D01*
X179798223Y-91448223D01*
X179816402Y-91431747D01*
X179836107Y-91417133D01*
X179857151Y-91404520D01*
X179879329Y-91394030D01*
X179902429Y-91385765D01*
X179926227Y-91379804D01*
X179950496Y-91376204D01*
X179975000Y-91375000D01*
X181225000Y-91375000D01*
X181249504Y-91376204D01*
X181249504Y-91376204D01*
G37*
D18*
G04 #@! TD*
G04 #@! TO.P,C1,2*
G04 #@! TO.N,GND*
X180600000Y-92000000D03*
D12*
G04 #@! TO.N,/Voltage Reference/V+*
G04 #@! TO.C,C1*
G36*
X181249504Y-94176204D02*
X181273773Y-94179804D01*
X181297571Y-94185765D01*
X181320671Y-94194030D01*
X181342849Y-94204520D01*
X181363893Y-94217133D01*
X181383598Y-94231747D01*
X181401777Y-94248223D01*
X181418253Y-94266402D01*
X181432867Y-94286107D01*
X181445480Y-94307151D01*
X181455970Y-94329329D01*
X181464235Y-94352429D01*
X181470196Y-94376227D01*
X181473796Y-94400496D01*
X181475000Y-94425000D01*
X181475000Y-95175000D01*
X181473796Y-95199504D01*
X181470196Y-95223773D01*
X181464235Y-95247571D01*
X181455970Y-95270671D01*
X181445480Y-95292849D01*
X181432867Y-95313893D01*
X181418253Y-95333598D01*
X181401777Y-95351777D01*
X181383598Y-95368253D01*
X181363893Y-95382867D01*
X181342849Y-95395480D01*
X181320671Y-95405970D01*
X181297571Y-95414235D01*
X181273773Y-95420196D01*
X181249504Y-95423796D01*
X181225000Y-95425000D01*
X179975000Y-95425000D01*
X179950496Y-95423796D01*
X179926227Y-95420196D01*
X179902429Y-95414235D01*
X179879329Y-95405970D01*
X179857151Y-95395480D01*
X179836107Y-95382867D01*
X179816402Y-95368253D01*
X179798223Y-95351777D01*
X179781747Y-95333598D01*
X179767133Y-95313893D01*
X179754520Y-95292849D01*
X179744030Y-95270671D01*
X179735765Y-95247571D01*
X179729804Y-95223773D01*
X179726204Y-95199504D01*
X179725000Y-95175000D01*
X179725000Y-94425000D01*
X179726204Y-94400496D01*
X179729804Y-94376227D01*
X179735765Y-94352429D01*
X179744030Y-94329329D01*
X179754520Y-94307151D01*
X179767133Y-94286107D01*
X179781747Y-94266402D01*
X179798223Y-94248223D01*
X179816402Y-94231747D01*
X179836107Y-94217133D01*
X179857151Y-94204520D01*
X179879329Y-94194030D01*
X179902429Y-94185765D01*
X179926227Y-94179804D01*
X179950496Y-94176204D01*
X179975000Y-94175000D01*
X181225000Y-94175000D01*
X181249504Y-94176204D01*
X181249504Y-94176204D01*
G37*
D18*
G04 #@! TD*
G04 #@! TO.P,C1,1*
G04 #@! TO.N,/Voltage Reference/V+*
X180600000Y-94800000D03*
D12*
G04 #@! TO.N,GND*
G04 #@! TO.C,C2*
G36*
X170349504Y-93776204D02*
X170373773Y-93779804D01*
X170397571Y-93785765D01*
X170420671Y-93794030D01*
X170442849Y-93804520D01*
X170463893Y-93817133D01*
X170483598Y-93831747D01*
X170501777Y-93848223D01*
X170518253Y-93866402D01*
X170532867Y-93886107D01*
X170545480Y-93907151D01*
X170555970Y-93929329D01*
X170564235Y-93952429D01*
X170570196Y-93976227D01*
X170573796Y-94000496D01*
X170575000Y-94025000D01*
X170575000Y-94775000D01*
X170573796Y-94799504D01*
X170570196Y-94823773D01*
X170564235Y-94847571D01*
X170555970Y-94870671D01*
X170545480Y-94892849D01*
X170532867Y-94913893D01*
X170518253Y-94933598D01*
X170501777Y-94951777D01*
X170483598Y-94968253D01*
X170463893Y-94982867D01*
X170442849Y-94995480D01*
X170420671Y-95005970D01*
X170397571Y-95014235D01*
X170373773Y-95020196D01*
X170349504Y-95023796D01*
X170325000Y-95025000D01*
X169075000Y-95025000D01*
X169050496Y-95023796D01*
X169026227Y-95020196D01*
X169002429Y-95014235D01*
X168979329Y-95005970D01*
X168957151Y-94995480D01*
X168936107Y-94982867D01*
X168916402Y-94968253D01*
X168898223Y-94951777D01*
X168881747Y-94933598D01*
X168867133Y-94913893D01*
X168854520Y-94892849D01*
X168844030Y-94870671D01*
X168835765Y-94847571D01*
X168829804Y-94823773D01*
X168826204Y-94799504D01*
X168825000Y-94775000D01*
X168825000Y-94025000D01*
X168826204Y-94000496D01*
X168829804Y-93976227D01*
X168835765Y-93952429D01*
X168844030Y-93929329D01*
X168854520Y-93907151D01*
X168867133Y-93886107D01*
X168881747Y-93866402D01*
X168898223Y-93848223D01*
X168916402Y-93831747D01*
X168936107Y-93817133D01*
X168957151Y-93804520D01*
X168979329Y-93794030D01*
X169002429Y-93785765D01*
X169026227Y-93779804D01*
X169050496Y-93776204D01*
X169075000Y-93775000D01*
X170325000Y-93775000D01*
X170349504Y-93776204D01*
X170349504Y-93776204D01*
G37*
D18*
G04 #@! TD*
G04 #@! TO.P,C2,2*
G04 #@! TO.N,GND*
X169700000Y-94400000D03*
D12*
G04 #@! TO.N,/Voltage Reference/V-*
G04 #@! TO.C,C2*
G36*
X170349504Y-96576204D02*
X170373773Y-96579804D01*
X170397571Y-96585765D01*
X170420671Y-96594030D01*
X170442849Y-96604520D01*
X170463893Y-96617133D01*
X170483598Y-96631747D01*
X170501777Y-96648223D01*
X170518253Y-96666402D01*
X170532867Y-96686107D01*
X170545480Y-96707151D01*
X170555970Y-96729329D01*
X170564235Y-96752429D01*
X170570196Y-96776227D01*
X170573796Y-96800496D01*
X170575000Y-96825000D01*
X170575000Y-97575000D01*
X170573796Y-97599504D01*
X170570196Y-97623773D01*
X170564235Y-97647571D01*
X170555970Y-97670671D01*
X170545480Y-97692849D01*
X170532867Y-97713893D01*
X170518253Y-97733598D01*
X170501777Y-97751777D01*
X170483598Y-97768253D01*
X170463893Y-97782867D01*
X170442849Y-97795480D01*
X170420671Y-97805970D01*
X170397571Y-97814235D01*
X170373773Y-97820196D01*
X170349504Y-97823796D01*
X170325000Y-97825000D01*
X169075000Y-97825000D01*
X169050496Y-97823796D01*
X169026227Y-97820196D01*
X169002429Y-97814235D01*
X168979329Y-97805970D01*
X168957151Y-97795480D01*
X168936107Y-97782867D01*
X168916402Y-97768253D01*
X168898223Y-97751777D01*
X168881747Y-97733598D01*
X168867133Y-97713893D01*
X168854520Y-97692849D01*
X168844030Y-97670671D01*
X168835765Y-97647571D01*
X168829804Y-97623773D01*
X168826204Y-97599504D01*
X168825000Y-97575000D01*
X168825000Y-96825000D01*
X168826204Y-96800496D01*
X168829804Y-96776227D01*
X168835765Y-96752429D01*
X168844030Y-96729329D01*
X168854520Y-96707151D01*
X168867133Y-96686107D01*
X168881747Y-96666402D01*
X168898223Y-96648223D01*
X168916402Y-96631747D01*
X168936107Y-96617133D01*
X168957151Y-96604520D01*
X168979329Y-96594030D01*
X169002429Y-96585765D01*
X169026227Y-96579804D01*
X169050496Y-96576204D01*
X169075000Y-96575000D01*
X170325000Y-96575000D01*
X170349504Y-96576204D01*
X170349504Y-96576204D01*
G37*
D18*
G04 #@! TD*
G04 #@! TO.P,C2,1*
G04 #@! TO.N,/Voltage Reference/V-*
X169700000Y-97200000D03*
D12*
G04 #@! TO.N,Net-(C3-Pad2)*
G04 #@! TO.C,C3*
G36*
X174999504Y-98726204D02*
X175023773Y-98729804D01*
X175047571Y-98735765D01*
X175070671Y-98744030D01*
X175092849Y-98754520D01*
X175113893Y-98767133D01*
X175133598Y-98781747D01*
X175151777Y-98798223D01*
X175168253Y-98816402D01*
X175182867Y-98836107D01*
X175195480Y-98857151D01*
X175205970Y-98879329D01*
X175214235Y-98902429D01*
X175220196Y-98926227D01*
X175223796Y-98950496D01*
X175225000Y-98975000D01*
X175225000Y-100225000D01*
X175223796Y-100249504D01*
X175220196Y-100273773D01*
X175214235Y-100297571D01*
X175205970Y-100320671D01*
X175195480Y-100342849D01*
X175182867Y-100363893D01*
X175168253Y-100383598D01*
X175151777Y-100401777D01*
X175133598Y-100418253D01*
X175113893Y-100432867D01*
X175092849Y-100445480D01*
X175070671Y-100455970D01*
X175047571Y-100464235D01*
X175023773Y-100470196D01*
X174999504Y-100473796D01*
X174975000Y-100475000D01*
X174225000Y-100475000D01*
X174200496Y-100473796D01*
X174176227Y-100470196D01*
X174152429Y-100464235D01*
X174129329Y-100455970D01*
X174107151Y-100445480D01*
X174086107Y-100432867D01*
X174066402Y-100418253D01*
X174048223Y-100401777D01*
X174031747Y-100383598D01*
X174017133Y-100363893D01*
X174004520Y-100342849D01*
X173994030Y-100320671D01*
X173985765Y-100297571D01*
X173979804Y-100273773D01*
X173976204Y-100249504D01*
X173975000Y-100225000D01*
X173975000Y-98975000D01*
X173976204Y-98950496D01*
X173979804Y-98926227D01*
X173985765Y-98902429D01*
X173994030Y-98879329D01*
X174004520Y-98857151D01*
X174017133Y-98836107D01*
X174031747Y-98816402D01*
X174048223Y-98798223D01*
X174066402Y-98781747D01*
X174086107Y-98767133D01*
X174107151Y-98754520D01*
X174129329Y-98744030D01*
X174152429Y-98735765D01*
X174176227Y-98729804D01*
X174200496Y-98726204D01*
X174225000Y-98725000D01*
X174975000Y-98725000D01*
X174999504Y-98726204D01*
X174999504Y-98726204D01*
G37*
D18*
G04 #@! TD*
G04 #@! TO.P,C3,2*
G04 #@! TO.N,Net-(C3-Pad2)*
X174600000Y-99600000D03*
D12*
G04 #@! TO.N,Net-(C3-Pad1)*
G04 #@! TO.C,C3*
G36*
X177799504Y-98726204D02*
X177823773Y-98729804D01*
X177847571Y-98735765D01*
X177870671Y-98744030D01*
X177892849Y-98754520D01*
X177913893Y-98767133D01*
X177933598Y-98781747D01*
X177951777Y-98798223D01*
X177968253Y-98816402D01*
X177982867Y-98836107D01*
X177995480Y-98857151D01*
X178005970Y-98879329D01*
X178014235Y-98902429D01*
X178020196Y-98926227D01*
X178023796Y-98950496D01*
X178025000Y-98975000D01*
X178025000Y-100225000D01*
X178023796Y-100249504D01*
X178020196Y-100273773D01*
X178014235Y-100297571D01*
X178005970Y-100320671D01*
X177995480Y-100342849D01*
X177982867Y-100363893D01*
X177968253Y-100383598D01*
X177951777Y-100401777D01*
X177933598Y-100418253D01*
X177913893Y-100432867D01*
X177892849Y-100445480D01*
X177870671Y-100455970D01*
X177847571Y-100464235D01*
X177823773Y-100470196D01*
X177799504Y-100473796D01*
X177775000Y-100475000D01*
X177025000Y-100475000D01*
X177000496Y-100473796D01*
X176976227Y-100470196D01*
X176952429Y-100464235D01*
X176929329Y-100455970D01*
X176907151Y-100445480D01*
X176886107Y-100432867D01*
X176866402Y-100418253D01*
X176848223Y-100401777D01*
X176831747Y-100383598D01*
X176817133Y-100363893D01*
X176804520Y-100342849D01*
X176794030Y-100320671D01*
X176785765Y-100297571D01*
X176779804Y-100273773D01*
X176776204Y-100249504D01*
X176775000Y-100225000D01*
X176775000Y-98975000D01*
X176776204Y-98950496D01*
X176779804Y-98926227D01*
X176785765Y-98902429D01*
X176794030Y-98879329D01*
X176804520Y-98857151D01*
X176817133Y-98836107D01*
X176831747Y-98816402D01*
X176848223Y-98798223D01*
X176866402Y-98781747D01*
X176886107Y-98767133D01*
X176907151Y-98754520D01*
X176929329Y-98744030D01*
X176952429Y-98735765D01*
X176976227Y-98729804D01*
X177000496Y-98726204D01*
X177025000Y-98725000D01*
X177775000Y-98725000D01*
X177799504Y-98726204D01*
X177799504Y-98726204D01*
G37*
D18*
G04 #@! TD*
G04 #@! TO.P,C3,1*
G04 #@! TO.N,Net-(C3-Pad1)*
X177400000Y-99600000D03*
D12*
G04 #@! TO.N,/Voltage Reference/V-*
G04 #@! TO.C,R2*
G36*
X171377691Y-99776053D02*
X171398926Y-99779203D01*
X171419750Y-99784419D01*
X171439962Y-99791651D01*
X171459368Y-99800830D01*
X171477781Y-99811866D01*
X171495024Y-99824654D01*
X171510930Y-99839070D01*
X171525346Y-99854976D01*
X171538134Y-99872219D01*
X171549170Y-99890632D01*
X171558349Y-99910038D01*
X171565581Y-99930250D01*
X171570797Y-99951074D01*
X171573947Y-99972309D01*
X171575000Y-99993750D01*
X171575000Y-100431250D01*
X171573947Y-100452691D01*
X171570797Y-100473926D01*
X171565581Y-100494750D01*
X171558349Y-100514962D01*
X171549170Y-100534368D01*
X171538134Y-100552781D01*
X171525346Y-100570024D01*
X171510930Y-100585930D01*
X171495024Y-100600346D01*
X171477781Y-100613134D01*
X171459368Y-100624170D01*
X171439962Y-100633349D01*
X171419750Y-100640581D01*
X171398926Y-100645797D01*
X171377691Y-100648947D01*
X171356250Y-100650000D01*
X170843750Y-100650000D01*
X170822309Y-100648947D01*
X170801074Y-100645797D01*
X170780250Y-100640581D01*
X170760038Y-100633349D01*
X170740632Y-100624170D01*
X170722219Y-100613134D01*
X170704976Y-100600346D01*
X170689070Y-100585930D01*
X170674654Y-100570024D01*
X170661866Y-100552781D01*
X170650830Y-100534368D01*
X170641651Y-100514962D01*
X170634419Y-100494750D01*
X170629203Y-100473926D01*
X170626053Y-100452691D01*
X170625000Y-100431250D01*
X170625000Y-99993750D01*
X170626053Y-99972309D01*
X170629203Y-99951074D01*
X170634419Y-99930250D01*
X170641651Y-99910038D01*
X170650830Y-99890632D01*
X170661866Y-99872219D01*
X170674654Y-99854976D01*
X170689070Y-99839070D01*
X170704976Y-99824654D01*
X170722219Y-99811866D01*
X170740632Y-99800830D01*
X170760038Y-99791651D01*
X170780250Y-99784419D01*
X170801074Y-99779203D01*
X170822309Y-99776053D01*
X170843750Y-99775000D01*
X171356250Y-99775000D01*
X171377691Y-99776053D01*
X171377691Y-99776053D01*
G37*
D19*
G04 #@! TD*
G04 #@! TO.P,R2,2*
G04 #@! TO.N,/Voltage Reference/V-*
X171100000Y-100212500D03*
D12*
G04 #@! TO.N,Net-(NT2-Pad1)*
G04 #@! TO.C,R2*
G36*
X171377691Y-101351053D02*
X171398926Y-101354203D01*
X171419750Y-101359419D01*
X171439962Y-101366651D01*
X171459368Y-101375830D01*
X171477781Y-101386866D01*
X171495024Y-101399654D01*
X171510930Y-101414070D01*
X171525346Y-101429976D01*
X171538134Y-101447219D01*
X171549170Y-101465632D01*
X171558349Y-101485038D01*
X171565581Y-101505250D01*
X171570797Y-101526074D01*
X171573947Y-101547309D01*
X171575000Y-101568750D01*
X171575000Y-102006250D01*
X171573947Y-102027691D01*
X171570797Y-102048926D01*
X171565581Y-102069750D01*
X171558349Y-102089962D01*
X171549170Y-102109368D01*
X171538134Y-102127781D01*
X171525346Y-102145024D01*
X171510930Y-102160930D01*
X171495024Y-102175346D01*
X171477781Y-102188134D01*
X171459368Y-102199170D01*
X171439962Y-102208349D01*
X171419750Y-102215581D01*
X171398926Y-102220797D01*
X171377691Y-102223947D01*
X171356250Y-102225000D01*
X170843750Y-102225000D01*
X170822309Y-102223947D01*
X170801074Y-102220797D01*
X170780250Y-102215581D01*
X170760038Y-102208349D01*
X170740632Y-102199170D01*
X170722219Y-102188134D01*
X170704976Y-102175346D01*
X170689070Y-102160930D01*
X170674654Y-102145024D01*
X170661866Y-102127781D01*
X170650830Y-102109368D01*
X170641651Y-102089962D01*
X170634419Y-102069750D01*
X170629203Y-102048926D01*
X170626053Y-102027691D01*
X170625000Y-102006250D01*
X170625000Y-101568750D01*
X170626053Y-101547309D01*
X170629203Y-101526074D01*
X170634419Y-101505250D01*
X170641651Y-101485038D01*
X170650830Y-101465632D01*
X170661866Y-101447219D01*
X170674654Y-101429976D01*
X170689070Y-101414070D01*
X170704976Y-101399654D01*
X170722219Y-101386866D01*
X170740632Y-101375830D01*
X170760038Y-101366651D01*
X170780250Y-101359419D01*
X170801074Y-101354203D01*
X170822309Y-101351053D01*
X170843750Y-101350000D01*
X171356250Y-101350000D01*
X171377691Y-101351053D01*
X171377691Y-101351053D01*
G37*
D19*
G04 #@! TD*
G04 #@! TO.P,R2,1*
G04 #@! TO.N,Net-(NT2-Pad1)*
X171100000Y-101787500D03*
D20*
G04 #@! TO.P,U1,5*
G04 #@! TO.N,GND*
X164950000Y-85350000D03*
G04 #@! TO.P,U1,4*
G04 #@! TO.N,Net-(J1-Pad7)*
X164950000Y-86650000D03*
G04 #@! TO.P,U1,2*
G04 #@! TO.N,GND*
X163050000Y-86000000D03*
G04 #@! TO.P,U1,3*
G04 #@! TO.N,Net-(J1-Pad8)*
X163050000Y-86650000D03*
G04 #@! TO.P,U1,1*
G04 #@! TO.N,Net-(U1-Pad1)*
X163050000Y-85350000D03*
G04 #@! TD*
D21*
G04 #@! TO.P,J1,8*
G04 #@! TO.N,Net-(J1-Pad8)*
X171380000Y-88540000D03*
G04 #@! TO.P,J1,7*
G04 #@! TO.N,Net-(J1-Pad7)*
X171380000Y-86000000D03*
G04 #@! TO.P,J1,6*
G04 #@! TO.N,/Voltage Reference/V+*
X173920000Y-88540000D03*
G04 #@! TO.P,J1,5*
G04 #@! TO.N,/Voltage Reference/V-*
X173920000Y-86000000D03*
G04 #@! TO.P,J1,4*
G04 #@! TO.N,/Zener+_force*
X176460000Y-88540000D03*
G04 #@! TO.P,J1,3*
G04 #@! TO.N,/Vout*
X176460000Y-86000000D03*
G04 #@! TO.P,J1,2*
G04 #@! TO.N,/Zener+_sense*
X179000000Y-88540000D03*
D22*
G04 #@! TO.P,J1,1*
G04 #@! TO.N,GND*
X179000000Y-86000000D03*
G04 #@! TD*
D23*
G04 #@! TO.P,U3,8*
G04 #@! TO.N,Net-(U3-Pad8)*
X178000000Y-93695000D03*
G04 #@! TO.P,U3,7*
G04 #@! TO.N,/Voltage Reference/V+*
X178000000Y-94965000D03*
G04 #@! TO.P,U3,6*
G04 #@! TO.N,/Vout*
X178000000Y-96235000D03*
G04 #@! TO.P,U3,5*
G04 #@! TO.N,Net-(U3-Pad5)*
X178000000Y-97505000D03*
G04 #@! TO.P,U3,4*
G04 #@! TO.N,/Voltage Reference/V-*
X172600000Y-97505000D03*
G04 #@! TO.P,U3,3*
G04 #@! TO.N,Net-(NT2-Pad2)*
X172600000Y-96235000D03*
G04 #@! TO.P,U3,2*
G04 #@! TO.N,Net-(C3-Pad2)*
X172600000Y-94965000D03*
G04 #@! TO.P,U3,1*
G04 #@! TO.N,Net-(U3-Pad1)*
X172600000Y-93695000D03*
G04 #@! TD*
D24*
G04 #@! TO.N,GND*
X169200000Y-83900000D03*
X180600000Y-93200000D03*
X169300000Y-90600000D03*
G04 #@! TD*
D25*
G04 #@! TO.N,GND*
X163050000Y-86000000D02*
X163500000Y-86000000D01*
X164150000Y-85350000D02*
X164950000Y-85350000D01*
X163500000Y-86000000D02*
X164150000Y-85350000D01*
X164950000Y-84750000D02*
X165800000Y-83900000D01*
X164950000Y-85350000D02*
X164950000Y-84750000D01*
X165800000Y-83900000D02*
X169200000Y-83900000D01*
D26*
X180600000Y-92200000D02*
X180600000Y-93200000D01*
X169700000Y-94400000D02*
X169700000Y-91000000D01*
X169700000Y-91000000D02*
X169300000Y-90600000D01*
G04 #@! TO.N,/Voltage Reference/V+*
X178000000Y-94965000D02*
X179135000Y-94965000D01*
X179300000Y-94800000D02*
X180600000Y-94800000D01*
X179135000Y-94965000D02*
X179300000Y-94800000D01*
X173920000Y-88540000D02*
X173920000Y-89320000D01*
X173920000Y-89320000D02*
X176800000Y-92200000D01*
X176800000Y-92200000D02*
X178600000Y-92200000D01*
X178600000Y-92200000D02*
X179400000Y-93000000D01*
X179400000Y-93600000D02*
X180600000Y-94800000D01*
X179400000Y-93000000D02*
X179400000Y-93600000D01*
G04 #@! TO.N,/Voltage Reference/V-*
X172650000Y-91550000D02*
X172600000Y-91600000D01*
X173920000Y-86000000D02*
X173920000Y-86280000D01*
X173920000Y-86280000D02*
X172650000Y-87550000D01*
X172600000Y-91600000D02*
X172000000Y-91600000D01*
X172650000Y-87550000D02*
X172650000Y-91550000D01*
X172000000Y-91600000D02*
X171000000Y-92600000D01*
X171000000Y-92600000D02*
X171000000Y-95700000D01*
X169700000Y-97000000D02*
X169700000Y-97200000D01*
X171000000Y-95700000D02*
X169700000Y-97000000D01*
X169700000Y-97200000D02*
X170700000Y-97200000D01*
X171005000Y-97505000D02*
X172600000Y-97505000D01*
X170700000Y-97200000D02*
X171005000Y-97505000D01*
D25*
X172600000Y-97505000D02*
X172600000Y-98300000D01*
X171100000Y-100212500D02*
X171100000Y-99500000D01*
X171900000Y-98700000D02*
X172200000Y-98700000D01*
X171100000Y-99500000D02*
X171900000Y-98700000D01*
X172600000Y-98300000D02*
X172200000Y-98700000D01*
G04 #@! TO.N,Net-(J1-Pad7)*
X165650000Y-86650000D02*
X164950000Y-86650000D01*
X170000000Y-86000000D02*
X168500000Y-84500000D01*
X166000000Y-86300000D02*
X165650000Y-86650000D01*
X171380000Y-86000000D02*
X170000000Y-86000000D01*
X168500000Y-84500000D02*
X167000000Y-84500000D01*
X166000000Y-85500000D02*
X166000000Y-86300000D01*
X167000000Y-84500000D02*
X166000000Y-85500000D01*
G04 #@! TO.N,Net-(J1-Pad8)*
X163050000Y-87250000D02*
X163050000Y-86650000D01*
X163500000Y-87700000D02*
X163050000Y-87250000D01*
X166500000Y-87200000D02*
X166000000Y-87700000D01*
X166000000Y-87700000D02*
X163500000Y-87700000D01*
X166500000Y-85700000D02*
X166500000Y-87200000D01*
X170140000Y-88540000D02*
X169300000Y-87700000D01*
X171380000Y-88540000D02*
X170140000Y-88540000D01*
X169300000Y-87700000D02*
X169300000Y-85900000D01*
X169300000Y-85900000D02*
X168300000Y-84900000D01*
X168300000Y-84900000D02*
X167300000Y-84900000D01*
X167300000Y-84900000D02*
X166500000Y-85700000D01*
D26*
G04 #@! TO.N,/Vout*
X176460000Y-84640000D02*
X177200000Y-83900000D01*
X177200000Y-83900000D02*
X180400000Y-83900000D01*
X176460000Y-86000000D02*
X176460000Y-84640000D01*
X180400000Y-83900000D02*
X182300000Y-85800000D01*
X182300000Y-85800000D02*
X182300000Y-95700000D01*
X182300000Y-95700000D02*
X181765000Y-96235000D01*
D25*
X179500000Y-96435000D02*
X179700000Y-96235000D01*
D26*
X179700000Y-96235000D02*
X179500000Y-96235000D01*
X181765000Y-96235000D02*
X179700000Y-96235000D01*
D25*
X179500000Y-96500000D02*
X179500000Y-96235000D01*
X179500000Y-96435000D02*
X179300000Y-96235000D01*
D27*
X179500000Y-96500000D02*
X179500000Y-96435000D01*
D26*
X179500000Y-96235000D02*
X179300000Y-96235000D01*
X179300000Y-96235000D02*
X178000000Y-96235000D01*
D25*
X176765000Y-96235000D02*
X176582843Y-96417157D01*
X178000000Y-96235000D02*
X176765000Y-96235000D01*
G04 #@! TO.N,Net-(C3-Pad2)*
X174600000Y-99600000D02*
X174600000Y-100900000D01*
X174900000Y-101200000D02*
X175400000Y-101200000D01*
X174600000Y-100900000D02*
X174900000Y-101200000D01*
X175400000Y-101200000D02*
X176900000Y-102700000D01*
X172600000Y-94965000D02*
X174065000Y-94965000D01*
X174600000Y-95500000D02*
X174600000Y-99600000D01*
X174065000Y-94965000D02*
X174600000Y-95500000D01*
D27*
G04 #@! TO.N,Net-(NT2-Pad1)*
X169112500Y-103912500D02*
X169100000Y-103900000D01*
D25*
X171100000Y-101787500D02*
X171100000Y-103762500D01*
X169237500Y-103762500D02*
X169100000Y-103900000D01*
X171100000Y-103762500D02*
X169237500Y-103762500D01*
X169100000Y-103900000D02*
X167800000Y-105200000D01*
X160500000Y-105200000D02*
X158300000Y-103000000D01*
X167800000Y-105200000D02*
X160500000Y-105200000D01*
X158300000Y-103000000D02*
X158300000Y-97200000D01*
D27*
G04 #@! TO.N,Net-(NT2-Pad2)*
X158000000Y-96270000D02*
X158000000Y-96500000D01*
X158000000Y-96500000D02*
X158300000Y-96800000D01*
D28*
X172000000Y-104700000D02*
X170100000Y-104700000D01*
D25*
X157700000Y-103100000D02*
X160300000Y-105700000D01*
X157700000Y-96900000D02*
X157700000Y-103100000D01*
X169100000Y-105700000D02*
X170100000Y-104700000D01*
X160300000Y-105700000D02*
X169100000Y-105700000D01*
X173900000Y-98100000D02*
X173900000Y-96500000D01*
X172500000Y-99500000D02*
X173900000Y-98100000D01*
X172000000Y-104700000D02*
X172500000Y-104200000D01*
X173635000Y-96235000D02*
X172600000Y-96235000D01*
X173900000Y-96500000D02*
X173635000Y-96235000D01*
X172500000Y-104200000D02*
X172500000Y-99500000D01*
X158000000Y-96600000D02*
X157700000Y-96900000D01*
X158000000Y-96270000D02*
X158000000Y-96600000D01*
G04 #@! TO.N,Net-(C3-Pad1)*
X177400000Y-100660000D02*
X179440000Y-102700000D01*
X177400000Y-99600000D02*
X177400000Y-100660000D01*
X176300000Y-98500000D02*
X177400000Y-99600000D01*
X176229290Y-98429290D02*
X176300000Y-98500000D01*
X176229290Y-96770710D02*
X176229290Y-98429290D01*
G04 #@! TO.N,Net-(NT4-Pad1)*
X180362500Y-105637500D02*
X171100000Y-105637500D01*
X181600000Y-104400000D02*
X180362500Y-105637500D01*
X181600000Y-104400000D02*
X181600000Y-99000000D01*
X181600000Y-99000000D02*
X179500000Y-96900000D01*
G04 #@! TD*
M02*
