M48
; DRILL file {KiCad (6.0.4)} date 2022-04-17T03:50:05 CEST
; FORMAT={-:-/ absolute / metric / decimal}
; #@! TF.CreationDate,2022-04-17T03:50:05+02:00
; #@! TF.GenerationSoftware,Kicad,Pcbnew,(6.0.4)
; #@! TF.FileFunction,Plated,1,2,PTH
FMAT,2
METRIC
; #@! TA.AperFunction,Plated,PTH,ViaDrill
T1C0.300
; #@! TA.AperFunction,Plated,PTH,ViaDrill
T2C0.400
; #@! TA.AperFunction,Plated,PTH,ComponentDrill
T3C0.700
; #@! TA.AperFunction,Plated,PTH,ComponentDrill
T4C0.800
; #@! TA.AperFunction,Plated,PTH,ComponentDrill
T5C1.000
; #@! TA.AperFunction,Plated,PTH,ComponentDrill
T6C2.700
%
G90
G05
T1
X119.9Y-69.2
X121.6Y-59.0
X130.5Y-58.5
X132.0Y-64.5
T2
X120.8Y-50.9
T3
X107.7Y-62.0
X108.97Y-60.73
X108.97Y-63.27
X110.24Y-62.0
T4
X125.36Y-69.7
X127.9Y-69.7
X130.44Y-69.7
T5
X122.38Y-53.0
X122.38Y-55.54
X124.92Y-53.0
X124.92Y-55.54
X127.46Y-53.0
X127.46Y-55.54
X130.0Y-53.0
X130.0Y-55.54
T6
X104.0Y-72.0
T0
M30
