G04 #@! TF.GenerationSoftware,KiCad,Pcbnew,(2017-06-16 revision 2018d4894)-master*
G04 #@! TF.CreationDate,2018-01-06T05:14:09+01:00*
G04 #@! TF.ProjectId,reference_board,7265666572656E63655F626F6172642E,rev?*
G04 #@! TF.SameCoordinates,Original
G04 #@! TF.FileFunction,Copper,L1,Top,Signal*
G04 #@! TF.FilePolarity,Positive*
%FSLAX46Y46*%
G04 Gerber Fmt 4.6, Leading zero omitted, Abs format (unit mm)*
G04 Created by KiCad (PCBNEW (2017-06-16 revision 2018d4894)-master) date Sat Jan  6 05:14:09 2018*
%MOMM*%
%LPD*%
G01*
G04 APERTURE LIST*
%ADD10C,0.100000*%
%ADD11C,0.200000*%
%ADD12C,0.200000*%
%ADD13C,1.100000*%
%ADD14R,1.000000X1.600000*%
%ADD15R,0.600000X1.550000*%
%ADD16R,1.700000X1.700000*%
%ADD17O,1.700000X1.700000*%
%ADD18R,1.300000X0.700000*%
%ADD19R,0.900000X0.500000*%
%ADD20R,1.500000X1.500000*%
%ADD21C,1.500000*%
%ADD22R,1.600000X1.000000*%
%ADD23R,0.830000X1.190000*%
%ADD24R,0.700000X0.250000*%
%ADD25C,0.800000*%
%ADD26C,0.250000*%
%ADD27C,0.300000*%
%ADD28C,0.150000*%
G04 APERTURE END LIST*
D10*
D11*
X150300000Y-97200000D02*
X150300000Y-96800000D01*
D12*
X150300000Y-96800000D03*
X150300000Y-97200000D03*
D13*
X150000000Y-96270000D03*
X150000000Y-93730000D03*
X151270000Y-95000000D03*
X148730000Y-95000000D03*
D14*
X176800000Y-98900000D03*
X173800000Y-98900000D03*
D15*
X160147000Y-93505000D03*
X161417000Y-93505000D03*
X162687000Y-93505000D03*
X163957000Y-93505000D03*
X163957000Y-88105000D03*
X162687000Y-88105000D03*
X161417000Y-88105000D03*
X160147000Y-88105000D03*
D16*
X179000000Y-86000000D03*
D17*
X179000000Y-88540000D03*
X176460000Y-86000000D03*
X176460000Y-88540000D03*
X173920000Y-86000000D03*
X173920000Y-88540000D03*
X171380000Y-86000000D03*
X171380000Y-88540000D03*
D18*
X171100000Y-103750000D03*
X171100000Y-105650000D03*
D19*
X171100000Y-95550000D03*
X171100000Y-97050000D03*
D20*
X174360000Y-102100000D03*
D21*
X176900000Y-102100000D03*
X179440000Y-102100000D03*
D22*
X179400000Y-92300000D03*
X179400000Y-95300000D03*
D14*
X174400000Y-92700000D03*
X171400000Y-92700000D03*
D23*
X174885000Y-95005000D03*
X174885000Y-96195000D03*
X175715000Y-95005000D03*
X175715000Y-96195000D03*
D24*
X176700000Y-94850000D03*
X176700000Y-95350000D03*
X176700000Y-95850000D03*
X176700000Y-96350000D03*
X173900000Y-96350000D03*
X173900000Y-95850000D03*
X173900000Y-95350000D03*
X173900000Y-94850000D03*
D25*
X172600000Y-93200000D03*
X179400000Y-93400000D03*
D11*
X150300000Y-97200000D02*
X150300000Y-103000000D01*
X150300000Y-103000000D02*
X152500000Y-105200000D01*
X152500000Y-105200000D02*
X167800000Y-105200000D01*
X167800000Y-105200000D02*
X169250000Y-103750000D01*
X169250000Y-103750000D02*
X171100000Y-103750000D01*
X171100000Y-97050000D02*
X171100000Y-103700000D01*
D26*
X171400000Y-92700000D02*
X172100000Y-92700000D01*
X172100000Y-92700000D02*
X172600000Y-93200000D01*
D27*
X179400000Y-92300000D02*
X179400000Y-93400000D01*
X173920000Y-88540000D02*
X173920000Y-90220000D01*
X173920000Y-90220000D02*
X177900000Y-94200000D01*
X177900000Y-94200000D02*
X177900000Y-95100000D01*
X177900000Y-95350000D02*
X178200000Y-95350000D01*
X178200000Y-95350000D02*
X179350000Y-95350000D01*
X177950000Y-95100000D02*
X178200000Y-95350000D01*
X177900000Y-95100000D02*
X177950000Y-95100000D01*
D26*
X179350000Y-95350000D02*
X179400000Y-95300000D01*
D27*
X177900000Y-95350000D02*
X178000000Y-95350000D01*
X177900000Y-95250000D02*
X178000000Y-95350000D01*
X177900000Y-95100000D02*
X177900000Y-95350000D01*
D11*
X176700000Y-95350000D02*
X177800000Y-95350000D01*
D27*
X177800000Y-95350000D02*
X177900000Y-95350000D01*
X177900000Y-95100000D02*
X177900000Y-95250000D01*
X177900000Y-95250000D02*
X177800000Y-95350000D01*
X173920000Y-86000000D02*
X173920000Y-86280000D01*
X173920000Y-86280000D02*
X172650000Y-87550000D01*
X172650000Y-87550000D02*
X172650000Y-89950000D01*
X172650000Y-89950000D02*
X174400000Y-91700000D01*
X174400000Y-91700000D02*
X174400000Y-92700000D01*
X174885000Y-95005000D02*
X174885000Y-94085000D01*
X174885000Y-94085000D02*
X174400000Y-93600000D01*
X174400000Y-93600000D02*
X174400000Y-92700000D01*
D11*
X175715000Y-96195000D02*
X174885000Y-96195000D01*
X175715000Y-95005000D02*
X175715000Y-96195000D01*
X174885000Y-95005000D02*
X175715000Y-95005000D01*
X173900000Y-96350000D02*
X174730000Y-96350000D01*
X174730000Y-96350000D02*
X174885000Y-96195000D01*
D27*
X174400000Y-92700000D02*
X174400000Y-93300000D01*
D28*
X171100000Y-95200000D02*
X171100000Y-95550000D01*
X172000000Y-94300000D02*
X171100000Y-95200000D01*
X173000000Y-94300000D02*
X172000000Y-94300000D01*
X174400000Y-92900000D02*
X173000000Y-94300000D01*
X174400000Y-92700000D02*
X174400000Y-92900000D01*
D26*
X171380000Y-86000000D02*
X170000000Y-86000000D01*
X170000000Y-86000000D02*
X169800000Y-85800000D01*
X162687000Y-93505000D02*
X162687000Y-94787000D01*
X168500000Y-84500000D02*
X169800000Y-85800000D01*
X162687000Y-94787000D02*
X163200000Y-95300000D01*
X163200000Y-95300000D02*
X164500000Y-95300000D01*
X165500000Y-85300000D02*
X166300000Y-84500000D01*
X164500000Y-95300000D02*
X165500000Y-94300000D01*
X166300000Y-84500000D02*
X168500000Y-84500000D01*
X165500000Y-94300000D02*
X165500000Y-85300000D01*
X169300000Y-85900000D02*
X169300000Y-88200000D01*
X171380000Y-88540000D02*
X169640000Y-88540000D01*
X169640000Y-88540000D02*
X169300000Y-88200000D01*
X168300000Y-84900000D02*
X169300000Y-85900000D01*
X166500000Y-84900000D02*
X168300000Y-84900000D01*
X161417000Y-93505000D02*
X161417000Y-94883000D01*
X161400000Y-94900000D02*
X162200000Y-95700000D01*
X161417000Y-94883000D02*
X161400000Y-94900000D01*
X162200000Y-95700000D02*
X164700000Y-95700000D01*
X164700000Y-95700000D02*
X165900000Y-94500000D01*
X165900000Y-94500000D02*
X165900000Y-85500000D01*
X165900000Y-85500000D02*
X166500000Y-84900000D01*
D27*
X177800000Y-97900000D02*
X176800000Y-98900000D01*
X178000000Y-97700000D02*
X177800000Y-97900000D01*
X179440000Y-99140000D02*
X178200000Y-97900000D01*
X178200000Y-97900000D02*
X178000000Y-97700000D01*
X177800000Y-97900000D02*
X178200000Y-97900000D01*
X179600000Y-97900000D02*
X179800000Y-98100000D01*
X179800000Y-98100000D02*
X181300000Y-99600000D01*
X179800000Y-97700000D02*
X179800000Y-98100000D01*
X179400000Y-97700000D02*
X179600000Y-97900000D01*
X178400000Y-96700000D02*
X179400000Y-97700000D01*
X181700000Y-95800000D02*
X179800000Y-97700000D01*
X179800000Y-97700000D02*
X179600000Y-97900000D01*
X179400000Y-97700000D02*
X179800000Y-97700000D01*
X176460000Y-84640000D02*
X177200000Y-83900000D01*
X176460000Y-86000000D02*
X176460000Y-84640000D01*
X177200000Y-83900000D02*
X180400000Y-83900000D01*
X180400000Y-83900000D02*
X181700000Y-85200000D01*
X181700000Y-85200000D02*
X181700000Y-95800000D01*
X181300000Y-99600000D02*
X181300000Y-103700000D01*
X181300000Y-103700000D02*
X179350000Y-105650000D01*
X179350000Y-105650000D02*
X171100000Y-105650000D01*
X178000000Y-97100000D02*
X178000000Y-97700000D01*
X178000000Y-96900000D02*
X178200000Y-96700000D01*
X178000000Y-96700000D02*
X178000000Y-97100000D01*
X178000000Y-97100000D02*
X178000000Y-96900000D01*
X178000000Y-96700000D02*
X178200000Y-96700000D01*
X178200000Y-96700000D02*
X178400000Y-96700000D01*
X178000000Y-96500000D02*
X178000000Y-96700000D01*
X178000000Y-96300000D02*
X178400000Y-96700000D01*
X178000000Y-96300000D02*
X178000000Y-96500000D01*
X178000000Y-96500000D02*
X178000000Y-96400000D01*
X179440000Y-102100000D02*
X179440000Y-99140000D01*
X177800000Y-96100000D02*
X178000000Y-96300000D01*
D11*
X177550000Y-95850000D02*
X177800000Y-96100000D01*
X176700000Y-95850000D02*
X177550000Y-95850000D01*
D28*
X174500000Y-100700000D02*
X175500000Y-100700000D01*
X175500000Y-100700000D02*
X176900000Y-102100000D01*
X173800000Y-100000000D02*
X174500000Y-100700000D01*
X173800000Y-98900000D02*
X173800000Y-100000000D01*
X172500000Y-98500000D02*
X172900000Y-98900000D01*
X172900000Y-98900000D02*
X173800000Y-98900000D01*
X172500000Y-95900000D02*
X172500000Y-98500000D01*
X173050000Y-95350000D02*
X172500000Y-95900000D01*
X173900000Y-95350000D02*
X173050000Y-95350000D01*
D27*
X173800000Y-98900000D02*
X173800000Y-99000000D01*
D28*
X172900000Y-96100000D02*
X172900000Y-97000000D01*
X173900000Y-95850000D02*
X173150000Y-95850000D01*
X173150000Y-95850000D02*
X172900000Y-96100000D01*
X178200000Y-101100000D02*
X178200000Y-103200000D01*
X172900000Y-97000000D02*
X173400000Y-97500000D01*
X173400000Y-97500000D02*
X174900000Y-97500000D01*
X177700000Y-100600000D02*
X178200000Y-101100000D01*
X174900000Y-97500000D02*
X175300000Y-97900000D01*
X175300000Y-97900000D02*
X175300000Y-100000000D01*
X169100000Y-105700000D02*
X152300000Y-105700000D01*
X170100000Y-104700000D02*
X169100000Y-105700000D01*
X175300000Y-100000000D02*
X175900000Y-100600000D01*
X152300000Y-105700000D02*
X149700000Y-103100000D01*
X175900000Y-100600000D02*
X177700000Y-100600000D01*
X178200000Y-103200000D02*
X176700000Y-104700000D01*
X176700000Y-104700000D02*
X170100000Y-104700000D01*
X149700000Y-103100000D02*
X149700000Y-96900000D01*
X149700000Y-96900000D02*
X150000000Y-96600000D01*
X150000000Y-96600000D02*
X150000000Y-96270000D01*
D11*
X150000000Y-96270000D02*
X150000000Y-96500000D01*
X150000000Y-96500000D02*
X150300000Y-96800000D01*
M02*
