G04 #@! TF.GenerationSoftware,KiCad,Pcbnew,(2017-06-16 revision 2018d4894)-master*
G04 #@! TF.CreationDate,2018-01-06T05:14:09+01:00*
G04 #@! TF.ProjectId,reference_board,7265666572656E63655F626F6172642E,rev?*
G04 #@! TF.SameCoordinates,Original
G04 #@! TF.FileFunction,Copper,L2,Bot,Signal*
G04 #@! TF.FilePolarity,Positive*
%FSLAX46Y46*%
G04 Gerber Fmt 4.6, Leading zero omitted, Abs format (unit mm)*
G04 Created by KiCad (PCBNEW (2017-06-16 revision 2018d4894)-master) date Sat Jan  6 05:14:09 2018*
%MOMM*%
%LPD*%
G01*
G04 APERTURE LIST*
%ADD10C,0.100000*%
%ADD11C,0.150000*%
%ADD12C,1.100000*%
%ADD13R,1.700000X1.700000*%
%ADD14O,1.700000X1.700000*%
%ADD15C,0.150000*%
%ADD16R,1.500000X1.500000*%
%ADD17C,1.500000*%
%ADD18C,0.800000*%
%ADD19C,0.300000*%
%ADD20C,0.250000*%
G04 APERTURE END LIST*
D10*
D11*
X148300000Y-96000000D02*
X148300000Y-95600000D01*
X148000000Y-96000000D02*
X148000000Y-95600000D01*
D12*
X150000000Y-96270000D03*
X150000000Y-93730000D03*
X151270000Y-95000000D03*
X148730000Y-95000000D03*
D13*
X179000000Y-86000000D03*
D14*
X179000000Y-88540000D03*
X176460000Y-86000000D03*
X176460000Y-88540000D03*
X173920000Y-86000000D03*
X173920000Y-88540000D03*
X171380000Y-86000000D03*
X171380000Y-88540000D03*
D15*
X148300000Y-95600000D03*
X148300000Y-96000000D03*
X148000000Y-95600000D03*
X148000000Y-96000000D03*
D16*
X174360000Y-102100000D03*
D17*
X176900000Y-102100000D03*
X179440000Y-102100000D03*
D18*
X172600000Y-93200000D03*
X179400000Y-93400000D03*
D19*
X173920000Y-91080000D02*
X173500000Y-91500000D01*
X173920000Y-88540000D02*
X173920000Y-91080000D01*
X173500000Y-91500000D02*
X170500000Y-91500000D01*
X170500000Y-91500000D02*
X169000000Y-93000000D01*
X151270000Y-95000000D02*
X157250000Y-95000000D01*
X157250000Y-95000000D02*
X157750000Y-95500000D01*
X157750000Y-95500000D02*
X162750000Y-95500000D01*
X162750000Y-95500000D02*
X164000000Y-96750000D01*
X164000000Y-96750000D02*
X164000000Y-101750000D01*
X169000000Y-103750000D02*
X169000000Y-93000000D01*
X164000000Y-101750000D02*
X166750000Y-104500000D01*
X168250000Y-104500000D02*
X169000000Y-103750000D01*
X166750000Y-104500000D02*
X168250000Y-104500000D01*
X173920000Y-86380000D02*
X173820000Y-86380000D01*
X164500000Y-96500000D02*
X163000000Y-95000000D01*
X164500000Y-101500000D02*
X164500000Y-96500000D01*
X173820000Y-86380000D02*
X172650000Y-87550000D01*
X172650000Y-87550000D02*
X172650000Y-90350000D01*
X172100000Y-90900000D02*
X170200000Y-90900000D01*
X172650000Y-90350000D02*
X172100000Y-90900000D01*
X168500000Y-92600000D02*
X168500000Y-103500000D01*
X170200000Y-90900000D02*
X168500000Y-92600000D01*
X168500000Y-103500000D02*
X168000000Y-104000000D01*
X168000000Y-104000000D02*
X167000000Y-104000000D01*
X167000000Y-104000000D02*
X164500000Y-101500000D01*
X163000000Y-95000000D02*
X158000000Y-95000000D01*
X158000000Y-95000000D02*
X157500000Y-94500000D01*
X157500000Y-94500000D02*
X155000000Y-94500000D01*
X155000000Y-94500000D02*
X154230000Y-93730000D01*
X154230000Y-93730000D02*
X150000000Y-93730000D01*
D20*
X173920000Y-86000000D02*
X173920000Y-86380000D01*
D11*
X178200000Y-90800000D02*
X175800000Y-90800000D01*
X175800000Y-90800000D02*
X174100000Y-92500000D01*
X149600000Y-99100000D02*
X148300000Y-97800000D01*
X174100000Y-92500000D02*
X171000000Y-92500000D01*
X171000000Y-92500000D02*
X170100000Y-93400000D01*
X170100000Y-93400000D02*
X170100000Y-104200000D01*
X170100000Y-104200000D02*
X168400000Y-105900000D01*
X168400000Y-105900000D02*
X152400000Y-105900000D01*
X152400000Y-105900000D02*
X149600000Y-103100000D01*
X149600000Y-103100000D02*
X149600000Y-99100000D01*
X148300000Y-97800000D02*
X148300000Y-96000000D01*
X178200000Y-90800000D02*
X179000000Y-90000000D01*
X179000000Y-90000000D02*
X179000000Y-88540000D01*
X148000000Y-95500000D02*
X148500000Y-95000000D01*
X148500000Y-95000000D02*
X148730000Y-95000000D01*
X148000000Y-95600000D02*
X148000000Y-95500000D01*
D20*
X176460000Y-89540000D02*
X173900000Y-92100000D01*
X169600000Y-93200000D02*
X170700000Y-92100000D01*
X150000000Y-103000000D02*
X152500000Y-105500000D01*
X170700000Y-92100000D02*
X173900000Y-92100000D01*
X168200000Y-105500000D02*
X169600000Y-104100000D01*
X152500000Y-105500000D02*
X168200000Y-105500000D01*
X150000000Y-99000000D02*
X150000000Y-103000000D01*
X148730000Y-97730000D02*
X150000000Y-99000000D01*
X169600000Y-104100000D02*
X169600000Y-93200000D01*
X148730000Y-95000000D02*
X148730000Y-97730000D01*
X176460000Y-88540000D02*
X176460000Y-89540000D01*
D11*
X148730000Y-95000000D02*
X148730000Y-95170000D01*
X148730000Y-95170000D02*
X148300000Y-95600000D01*
X148730000Y-95000000D02*
X148730000Y-95230000D01*
X174360000Y-102100000D02*
X174360000Y-103140000D01*
X174360000Y-103140000D02*
X171300000Y-106200000D01*
X148000000Y-98000000D02*
X148000000Y-96000000D01*
X171300000Y-106200000D02*
X152200000Y-106200000D01*
X152200000Y-106200000D02*
X149300000Y-103300000D01*
X149300000Y-103300000D02*
X149300000Y-99300000D01*
X149300000Y-99300000D02*
X148000000Y-98000000D01*
G36*
X182700000Y-106700000D02*
X171375000Y-106700000D01*
X171375000Y-106500000D01*
X171372145Y-106485649D01*
X171414805Y-106477164D01*
X171512132Y-106412132D01*
X174572132Y-103352132D01*
X174637164Y-103254805D01*
X174660000Y-103140000D01*
X174660000Y-103079408D01*
X175110000Y-103079408D01*
X175197791Y-103061945D01*
X175272216Y-103012216D01*
X175321945Y-102937791D01*
X175339408Y-102850000D01*
X175339408Y-102293089D01*
X175924831Y-102293089D01*
X176072954Y-102651571D01*
X176346986Y-102926082D01*
X176705210Y-103074830D01*
X177093089Y-103075169D01*
X177451571Y-102927046D01*
X177726082Y-102653014D01*
X177874830Y-102294790D01*
X177874831Y-102293089D01*
X178464831Y-102293089D01*
X178612954Y-102651571D01*
X178886986Y-102926082D01*
X179245210Y-103074830D01*
X179633089Y-103075169D01*
X179991571Y-102927046D01*
X180266082Y-102653014D01*
X180414830Y-102294790D01*
X180415169Y-101906911D01*
X180267046Y-101548429D01*
X179993014Y-101273918D01*
X179634790Y-101125170D01*
X179246911Y-101124831D01*
X178888429Y-101272954D01*
X178613918Y-101546986D01*
X178465170Y-101905210D01*
X178464831Y-102293089D01*
X177874831Y-102293089D01*
X177875169Y-101906911D01*
X177727046Y-101548429D01*
X177453014Y-101273918D01*
X177094790Y-101125170D01*
X176706911Y-101124831D01*
X176348429Y-101272954D01*
X176073918Y-101546986D01*
X175925170Y-101905210D01*
X175924831Y-102293089D01*
X175339408Y-102293089D01*
X175339408Y-101350000D01*
X175321945Y-101262209D01*
X175272216Y-101187784D01*
X175197791Y-101138055D01*
X175110000Y-101120592D01*
X173610000Y-101120592D01*
X173522209Y-101138055D01*
X173447784Y-101187784D01*
X173398055Y-101262209D01*
X173380592Y-101350000D01*
X173380592Y-102850000D01*
X173398055Y-102937791D01*
X173447784Y-103012216D01*
X173522209Y-103061945D01*
X173610000Y-103079408D01*
X173996328Y-103079408D01*
X171175736Y-105900000D01*
X168824264Y-105900000D01*
X170312132Y-104412132D01*
X170377164Y-104314805D01*
X170400000Y-104200000D01*
X170400000Y-93524264D01*
X171124264Y-92800000D01*
X174100000Y-92800000D01*
X174214805Y-92777164D01*
X174312132Y-92712132D01*
X175924264Y-91100000D01*
X178200000Y-91100000D01*
X178314805Y-91077164D01*
X178412132Y-91012132D01*
X179212132Y-90212132D01*
X179277164Y-90114805D01*
X179300000Y-90000000D01*
X179300000Y-89576386D01*
X179411385Y-89554230D01*
X179760140Y-89321200D01*
X179993170Y-88972445D01*
X180075000Y-88561060D01*
X180075000Y-88518940D01*
X179993170Y-88107555D01*
X179760140Y-87758800D01*
X179411385Y-87525770D01*
X179000000Y-87443940D01*
X178588615Y-87525770D01*
X178239860Y-87758800D01*
X178006830Y-88107555D01*
X177925000Y-88518940D01*
X177925000Y-88561060D01*
X178006830Y-88972445D01*
X178239860Y-89321200D01*
X178588615Y-89554230D01*
X178700000Y-89576386D01*
X178700000Y-89875736D01*
X178075736Y-90500000D01*
X175994975Y-90500000D01*
X176707488Y-89787487D01*
X176783358Y-89673939D01*
X176804524Y-89567530D01*
X176871385Y-89554230D01*
X177220140Y-89321200D01*
X177453170Y-88972445D01*
X177535000Y-88561060D01*
X177535000Y-88518940D01*
X177453170Y-88107555D01*
X177220140Y-87758800D01*
X176871385Y-87525770D01*
X176460000Y-87443940D01*
X176048615Y-87525770D01*
X175699860Y-87758800D01*
X175466830Y-88107555D01*
X175385000Y-88518940D01*
X175385000Y-88561060D01*
X175466830Y-88972445D01*
X175699860Y-89321200D01*
X175989976Y-89515049D01*
X174236119Y-91268906D01*
X174266455Y-91223506D01*
X174295000Y-91080000D01*
X174295000Y-89561467D01*
X174331385Y-89554230D01*
X174680140Y-89321200D01*
X174913170Y-88972445D01*
X174995000Y-88561060D01*
X174995000Y-88518940D01*
X174913170Y-88107555D01*
X174680140Y-87758800D01*
X174331385Y-87525770D01*
X173920000Y-87443940D01*
X173508615Y-87525770D01*
X173159860Y-87758800D01*
X173025000Y-87960633D01*
X173025000Y-87705330D01*
X173681676Y-87048654D01*
X173920000Y-87096060D01*
X174331385Y-87014230D01*
X174680140Y-86781200D01*
X174913170Y-86432445D01*
X174995000Y-86021060D01*
X174995000Y-85978940D01*
X175385000Y-85978940D01*
X175385000Y-86021060D01*
X175466830Y-86432445D01*
X175699860Y-86781200D01*
X176048615Y-87014230D01*
X176460000Y-87096060D01*
X176871385Y-87014230D01*
X177220140Y-86781200D01*
X177453170Y-86432445D01*
X177492394Y-86235250D01*
X177925000Y-86235250D01*
X177925000Y-86894755D01*
X177959254Y-86977452D01*
X178022548Y-87040746D01*
X178105244Y-87075000D01*
X178764750Y-87075000D01*
X178821000Y-87018750D01*
X178821000Y-86179000D01*
X179179000Y-86179000D01*
X179179000Y-87018750D01*
X179235250Y-87075000D01*
X179894756Y-87075000D01*
X179977452Y-87040746D01*
X180040746Y-86977452D01*
X180075000Y-86894755D01*
X180075000Y-86235250D01*
X180018750Y-86179000D01*
X179179000Y-86179000D01*
X178821000Y-86179000D01*
X177981250Y-86179000D01*
X177925000Y-86235250D01*
X177492394Y-86235250D01*
X177535000Y-86021060D01*
X177535000Y-85978940D01*
X177453170Y-85567555D01*
X177220140Y-85218800D01*
X177050193Y-85105245D01*
X177925000Y-85105245D01*
X177925000Y-85764750D01*
X177981250Y-85821000D01*
X178821000Y-85821000D01*
X178821000Y-84981250D01*
X179179000Y-84981250D01*
X179179000Y-85821000D01*
X180018750Y-85821000D01*
X180075000Y-85764750D01*
X180075000Y-85105245D01*
X180040746Y-85022548D01*
X179977452Y-84959254D01*
X179894756Y-84925000D01*
X179235250Y-84925000D01*
X179179000Y-84981250D01*
X178821000Y-84981250D01*
X178764750Y-84925000D01*
X178105244Y-84925000D01*
X178022548Y-84959254D01*
X177959254Y-85022548D01*
X177925000Y-85105245D01*
X177050193Y-85105245D01*
X176871385Y-84985770D01*
X176460000Y-84903940D01*
X176048615Y-84985770D01*
X175699860Y-85218800D01*
X175466830Y-85567555D01*
X175385000Y-85978940D01*
X174995000Y-85978940D01*
X174913170Y-85567555D01*
X174680140Y-85218800D01*
X174331385Y-84985770D01*
X173920000Y-84903940D01*
X173508615Y-84985770D01*
X173159860Y-85218800D01*
X172926830Y-85567555D01*
X172845000Y-85978940D01*
X172845000Y-86021060D01*
X172926830Y-86432445D01*
X173051157Y-86618513D01*
X172384835Y-87284835D01*
X172303545Y-87406493D01*
X172276349Y-87543219D01*
X172275000Y-87550000D01*
X172275000Y-87960633D01*
X172140140Y-87758800D01*
X171791385Y-87525770D01*
X171380000Y-87443940D01*
X170968615Y-87525770D01*
X170619860Y-87758800D01*
X170386830Y-88107555D01*
X170305000Y-88518940D01*
X170305000Y-88561060D01*
X170386830Y-88972445D01*
X170619860Y-89321200D01*
X170968615Y-89554230D01*
X171380000Y-89636060D01*
X171791385Y-89554230D01*
X172140140Y-89321200D01*
X172275000Y-89119367D01*
X172275000Y-90194670D01*
X171944670Y-90525000D01*
X170200000Y-90525000D01*
X170056493Y-90553545D01*
X169934835Y-90634835D01*
X168575000Y-91994670D01*
X168575000Y-85978940D01*
X170305000Y-85978940D01*
X170305000Y-86021060D01*
X170386830Y-86432445D01*
X170619860Y-86781200D01*
X170968615Y-87014230D01*
X171380000Y-87096060D01*
X171791385Y-87014230D01*
X172140140Y-86781200D01*
X172373170Y-86432445D01*
X172455000Y-86021060D01*
X172455000Y-85978940D01*
X172373170Y-85567555D01*
X172140140Y-85218800D01*
X171791385Y-84985770D01*
X171380000Y-84903940D01*
X170968615Y-84985770D01*
X170619860Y-85218800D01*
X170386830Y-85567555D01*
X170305000Y-85978940D01*
X168575000Y-85978940D01*
X168575000Y-83300000D01*
X182700000Y-83300000D01*
X182700000Y-106700000D01*
X182700000Y-106700000D01*
G37*
X182700000Y-106700000D02*
X171375000Y-106700000D01*
X171375000Y-106500000D01*
X171372145Y-106485649D01*
X171414805Y-106477164D01*
X171512132Y-106412132D01*
X174572132Y-103352132D01*
X174637164Y-103254805D01*
X174660000Y-103140000D01*
X174660000Y-103079408D01*
X175110000Y-103079408D01*
X175197791Y-103061945D01*
X175272216Y-103012216D01*
X175321945Y-102937791D01*
X175339408Y-102850000D01*
X175339408Y-102293089D01*
X175924831Y-102293089D01*
X176072954Y-102651571D01*
X176346986Y-102926082D01*
X176705210Y-103074830D01*
X177093089Y-103075169D01*
X177451571Y-102927046D01*
X177726082Y-102653014D01*
X177874830Y-102294790D01*
X177874831Y-102293089D01*
X178464831Y-102293089D01*
X178612954Y-102651571D01*
X178886986Y-102926082D01*
X179245210Y-103074830D01*
X179633089Y-103075169D01*
X179991571Y-102927046D01*
X180266082Y-102653014D01*
X180414830Y-102294790D01*
X180415169Y-101906911D01*
X180267046Y-101548429D01*
X179993014Y-101273918D01*
X179634790Y-101125170D01*
X179246911Y-101124831D01*
X178888429Y-101272954D01*
X178613918Y-101546986D01*
X178465170Y-101905210D01*
X178464831Y-102293089D01*
X177874831Y-102293089D01*
X177875169Y-101906911D01*
X177727046Y-101548429D01*
X177453014Y-101273918D01*
X177094790Y-101125170D01*
X176706911Y-101124831D01*
X176348429Y-101272954D01*
X176073918Y-101546986D01*
X175925170Y-101905210D01*
X175924831Y-102293089D01*
X175339408Y-102293089D01*
X175339408Y-101350000D01*
X175321945Y-101262209D01*
X175272216Y-101187784D01*
X175197791Y-101138055D01*
X175110000Y-101120592D01*
X173610000Y-101120592D01*
X173522209Y-101138055D01*
X173447784Y-101187784D01*
X173398055Y-101262209D01*
X173380592Y-101350000D01*
X173380592Y-102850000D01*
X173398055Y-102937791D01*
X173447784Y-103012216D01*
X173522209Y-103061945D01*
X173610000Y-103079408D01*
X173996328Y-103079408D01*
X171175736Y-105900000D01*
X168824264Y-105900000D01*
X170312132Y-104412132D01*
X170377164Y-104314805D01*
X170400000Y-104200000D01*
X170400000Y-93524264D01*
X171124264Y-92800000D01*
X174100000Y-92800000D01*
X174214805Y-92777164D01*
X174312132Y-92712132D01*
X175924264Y-91100000D01*
X178200000Y-91100000D01*
X178314805Y-91077164D01*
X178412132Y-91012132D01*
X179212132Y-90212132D01*
X179277164Y-90114805D01*
X179300000Y-90000000D01*
X179300000Y-89576386D01*
X179411385Y-89554230D01*
X179760140Y-89321200D01*
X179993170Y-88972445D01*
X180075000Y-88561060D01*
X180075000Y-88518940D01*
X179993170Y-88107555D01*
X179760140Y-87758800D01*
X179411385Y-87525770D01*
X179000000Y-87443940D01*
X178588615Y-87525770D01*
X178239860Y-87758800D01*
X178006830Y-88107555D01*
X177925000Y-88518940D01*
X177925000Y-88561060D01*
X178006830Y-88972445D01*
X178239860Y-89321200D01*
X178588615Y-89554230D01*
X178700000Y-89576386D01*
X178700000Y-89875736D01*
X178075736Y-90500000D01*
X175994975Y-90500000D01*
X176707488Y-89787487D01*
X176783358Y-89673939D01*
X176804524Y-89567530D01*
X176871385Y-89554230D01*
X177220140Y-89321200D01*
X177453170Y-88972445D01*
X177535000Y-88561060D01*
X177535000Y-88518940D01*
X177453170Y-88107555D01*
X177220140Y-87758800D01*
X176871385Y-87525770D01*
X176460000Y-87443940D01*
X176048615Y-87525770D01*
X175699860Y-87758800D01*
X175466830Y-88107555D01*
X175385000Y-88518940D01*
X175385000Y-88561060D01*
X175466830Y-88972445D01*
X175699860Y-89321200D01*
X175989976Y-89515049D01*
X174236119Y-91268906D01*
X174266455Y-91223506D01*
X174295000Y-91080000D01*
X174295000Y-89561467D01*
X174331385Y-89554230D01*
X174680140Y-89321200D01*
X174913170Y-88972445D01*
X174995000Y-88561060D01*
X174995000Y-88518940D01*
X174913170Y-88107555D01*
X174680140Y-87758800D01*
X174331385Y-87525770D01*
X173920000Y-87443940D01*
X173508615Y-87525770D01*
X173159860Y-87758800D01*
X173025000Y-87960633D01*
X173025000Y-87705330D01*
X173681676Y-87048654D01*
X173920000Y-87096060D01*
X174331385Y-87014230D01*
X174680140Y-86781200D01*
X174913170Y-86432445D01*
X174995000Y-86021060D01*
X174995000Y-85978940D01*
X175385000Y-85978940D01*
X175385000Y-86021060D01*
X175466830Y-86432445D01*
X175699860Y-86781200D01*
X176048615Y-87014230D01*
X176460000Y-87096060D01*
X176871385Y-87014230D01*
X177220140Y-86781200D01*
X177453170Y-86432445D01*
X177492394Y-86235250D01*
X177925000Y-86235250D01*
X177925000Y-86894755D01*
X177959254Y-86977452D01*
X178022548Y-87040746D01*
X178105244Y-87075000D01*
X178764750Y-87075000D01*
X178821000Y-87018750D01*
X178821000Y-86179000D01*
X179179000Y-86179000D01*
X179179000Y-87018750D01*
X179235250Y-87075000D01*
X179894756Y-87075000D01*
X179977452Y-87040746D01*
X180040746Y-86977452D01*
X180075000Y-86894755D01*
X180075000Y-86235250D01*
X180018750Y-86179000D01*
X179179000Y-86179000D01*
X178821000Y-86179000D01*
X177981250Y-86179000D01*
X177925000Y-86235250D01*
X177492394Y-86235250D01*
X177535000Y-86021060D01*
X177535000Y-85978940D01*
X177453170Y-85567555D01*
X177220140Y-85218800D01*
X177050193Y-85105245D01*
X177925000Y-85105245D01*
X177925000Y-85764750D01*
X177981250Y-85821000D01*
X178821000Y-85821000D01*
X178821000Y-84981250D01*
X179179000Y-84981250D01*
X179179000Y-85821000D01*
X180018750Y-85821000D01*
X180075000Y-85764750D01*
X180075000Y-85105245D01*
X180040746Y-85022548D01*
X179977452Y-84959254D01*
X179894756Y-84925000D01*
X179235250Y-84925000D01*
X179179000Y-84981250D01*
X178821000Y-84981250D01*
X178764750Y-84925000D01*
X178105244Y-84925000D01*
X178022548Y-84959254D01*
X177959254Y-85022548D01*
X177925000Y-85105245D01*
X177050193Y-85105245D01*
X176871385Y-84985770D01*
X176460000Y-84903940D01*
X176048615Y-84985770D01*
X175699860Y-85218800D01*
X175466830Y-85567555D01*
X175385000Y-85978940D01*
X174995000Y-85978940D01*
X174913170Y-85567555D01*
X174680140Y-85218800D01*
X174331385Y-84985770D01*
X173920000Y-84903940D01*
X173508615Y-84985770D01*
X173159860Y-85218800D01*
X172926830Y-85567555D01*
X172845000Y-85978940D01*
X172845000Y-86021060D01*
X172926830Y-86432445D01*
X173051157Y-86618513D01*
X172384835Y-87284835D01*
X172303545Y-87406493D01*
X172276349Y-87543219D01*
X172275000Y-87550000D01*
X172275000Y-87960633D01*
X172140140Y-87758800D01*
X171791385Y-87525770D01*
X171380000Y-87443940D01*
X170968615Y-87525770D01*
X170619860Y-87758800D01*
X170386830Y-88107555D01*
X170305000Y-88518940D01*
X170305000Y-88561060D01*
X170386830Y-88972445D01*
X170619860Y-89321200D01*
X170968615Y-89554230D01*
X171380000Y-89636060D01*
X171791385Y-89554230D01*
X172140140Y-89321200D01*
X172275000Y-89119367D01*
X172275000Y-90194670D01*
X171944670Y-90525000D01*
X170200000Y-90525000D01*
X170056493Y-90553545D01*
X169934835Y-90634835D01*
X168575000Y-91994670D01*
X168575000Y-85978940D01*
X170305000Y-85978940D01*
X170305000Y-86021060D01*
X170386830Y-86432445D01*
X170619860Y-86781200D01*
X170968615Y-87014230D01*
X171380000Y-87096060D01*
X171791385Y-87014230D01*
X172140140Y-86781200D01*
X172373170Y-86432445D01*
X172455000Y-86021060D01*
X172455000Y-85978940D01*
X172373170Y-85567555D01*
X172140140Y-85218800D01*
X171791385Y-84985770D01*
X171380000Y-84903940D01*
X170968615Y-84985770D01*
X170619860Y-85218800D01*
X170386830Y-85567555D01*
X170305000Y-85978940D01*
X168575000Y-85978940D01*
X168575000Y-83300000D01*
X182700000Y-83300000D01*
X182700000Y-106700000D01*
M02*
