G04 #@! TF.GenerationSoftware,KiCad,Pcbnew,(6.0.0-rc1-dev)*
G04 #@! TF.CreationDate,2018-08-18T01:00:10+02:00*
G04 #@! TF.ProjectId,reference_board,7265666572656E63655F626F6172642E,rev?*
G04 #@! TF.SameCoordinates,Original*
G04 #@! TF.FileFunction,Copper,L1,Top,Signal*
G04 #@! TF.FilePolarity,Positive*
%FSLAX46Y46*%
G04 Gerber Fmt 4.6, Leading zero omitted, Abs format (unit mm)*
G04 Created by KiCad (PCBNEW (6.0.0-rc1-dev)) date Sat Aug 18 01:00:10 2018*
%MOMM*%
%LPD*%
G01*
G04 APERTURE LIST*
G04 #@! TA.AperFunction,EtchedComponent*
%ADD10C,0.200000*%
G04 #@! TD*
G04 #@! TA.AperFunction,Conductor*
%ADD11C,0.200000*%
G04 #@! TD*
G04 #@! TA.AperFunction,ComponentPad*
%ADD12C,1.100000*%
G04 #@! TD*
G04 #@! TA.AperFunction,ComponentPad*
%ADD13R,1.500000X1.500000*%
G04 #@! TD*
G04 #@! TA.AperFunction,ComponentPad*
%ADD14C,1.500000*%
G04 #@! TD*
G04 #@! TA.AperFunction,Conductor*
%ADD15C,0.100000*%
G04 #@! TD*
G04 #@! TA.AperFunction,SMDPad,CuDef*
%ADD16C,1.250000*%
G04 #@! TD*
G04 #@! TA.AperFunction,SMDPad,CuDef*
%ADD17C,0.875000*%
G04 #@! TD*
G04 #@! TA.AperFunction,SMDPad,CuDef*
%ADD18R,0.650000X0.400000*%
G04 #@! TD*
G04 #@! TA.AperFunction,ComponentPad*
%ADD19R,1.700000X1.700000*%
G04 #@! TD*
G04 #@! TA.AperFunction,ComponentPad*
%ADD20O,1.700000X1.700000*%
G04 #@! TD*
G04 #@! TA.AperFunction,SMDPad,CuDef*
%ADD21R,0.700000X0.250000*%
G04 #@! TD*
G04 #@! TA.AperFunction,SMDPad,CuDef*
%ADD22R,1.660000X2.380000*%
G04 #@! TD*
G04 #@! TA.AperFunction,ViaPad*
%ADD23C,0.800000*%
G04 #@! TD*
G04 #@! TA.AperFunction,Conductor*
%ADD24C,0.200000*%
G04 #@! TD*
G04 #@! TA.AperFunction,Conductor*
%ADD25C,0.300000*%
G04 #@! TD*
G04 #@! TA.AperFunction,Conductor*
%ADD26C,0.250000*%
G04 #@! TD*
G04 #@! TA.AperFunction,Conductor*
%ADD27C,0.150000*%
G04 #@! TD*
G04 APERTURE END LIST*
D10*
G04 #@! TO.C,NT2*
X158300000Y-97200000D02*
X158300000Y-96800000D01*
G04 #@! TD*
D11*
G04 #@! TO.N,Net-(NT2-Pad2)*
G04 #@! TO.C,NT2*
X158300000Y-96800000D03*
G04 #@! TO.N,Net-(NT2-Pad1)*
X158300000Y-97200000D03*
G04 #@! TD*
D12*
G04 #@! TO.P,U2,2*
G04 #@! TO.N,Net-(NT2-Pad2)*
X158000000Y-96270000D03*
G04 #@! TO.P,U2,4*
G04 #@! TO.N,/Voltage Reference/V-*
X158000000Y-93730000D03*
G04 #@! TO.P,U2,3*
G04 #@! TO.N,/Voltage Reference/V+*
X159270000Y-95000000D03*
G04 #@! TO.P,U2,1*
G04 #@! TO.N,/Zener+_force*
X156730000Y-95000000D03*
G04 #@! TD*
D13*
G04 #@! TO.P,RN1,1*
G04 #@! TO.N,Net-(NT3-Pad1)*
X174360000Y-102100000D03*
D14*
G04 #@! TO.P,RN1,2*
G04 #@! TO.N,Net-(C3-Pad2)*
X176900000Y-102100000D03*
G04 #@! TO.P,RN1,3*
G04 #@! TO.N,/Vout*
X179440000Y-102100000D03*
G04 #@! TD*
D15*
G04 #@! TO.N,GND*
G04 #@! TO.C,C1*
G36*
X180049504Y-91776204D02*
X180073773Y-91779804D01*
X180097571Y-91785765D01*
X180120671Y-91794030D01*
X180142849Y-91804520D01*
X180163893Y-91817133D01*
X180183598Y-91831747D01*
X180201777Y-91848223D01*
X180218253Y-91866402D01*
X180232867Y-91886107D01*
X180245480Y-91907151D01*
X180255970Y-91929329D01*
X180264235Y-91952429D01*
X180270196Y-91976227D01*
X180273796Y-92000496D01*
X180275000Y-92025000D01*
X180275000Y-92775000D01*
X180273796Y-92799504D01*
X180270196Y-92823773D01*
X180264235Y-92847571D01*
X180255970Y-92870671D01*
X180245480Y-92892849D01*
X180232867Y-92913893D01*
X180218253Y-92933598D01*
X180201777Y-92951777D01*
X180183598Y-92968253D01*
X180163893Y-92982867D01*
X180142849Y-92995480D01*
X180120671Y-93005970D01*
X180097571Y-93014235D01*
X180073773Y-93020196D01*
X180049504Y-93023796D01*
X180025000Y-93025000D01*
X178775000Y-93025000D01*
X178750496Y-93023796D01*
X178726227Y-93020196D01*
X178702429Y-93014235D01*
X178679329Y-93005970D01*
X178657151Y-92995480D01*
X178636107Y-92982867D01*
X178616402Y-92968253D01*
X178598223Y-92951777D01*
X178581747Y-92933598D01*
X178567133Y-92913893D01*
X178554520Y-92892849D01*
X178544030Y-92870671D01*
X178535765Y-92847571D01*
X178529804Y-92823773D01*
X178526204Y-92799504D01*
X178525000Y-92775000D01*
X178525000Y-92025000D01*
X178526204Y-92000496D01*
X178529804Y-91976227D01*
X178535765Y-91952429D01*
X178544030Y-91929329D01*
X178554520Y-91907151D01*
X178567133Y-91886107D01*
X178581747Y-91866402D01*
X178598223Y-91848223D01*
X178616402Y-91831747D01*
X178636107Y-91817133D01*
X178657151Y-91804520D01*
X178679329Y-91794030D01*
X178702429Y-91785765D01*
X178726227Y-91779804D01*
X178750496Y-91776204D01*
X178775000Y-91775000D01*
X180025000Y-91775000D01*
X180049504Y-91776204D01*
X180049504Y-91776204D01*
G37*
D16*
G04 #@! TD*
G04 #@! TO.P,C1,2*
G04 #@! TO.N,GND*
X179400000Y-92400000D03*
D15*
G04 #@! TO.N,/Voltage Reference/V+*
G04 #@! TO.C,C1*
G36*
X180049504Y-94576204D02*
X180073773Y-94579804D01*
X180097571Y-94585765D01*
X180120671Y-94594030D01*
X180142849Y-94604520D01*
X180163893Y-94617133D01*
X180183598Y-94631747D01*
X180201777Y-94648223D01*
X180218253Y-94666402D01*
X180232867Y-94686107D01*
X180245480Y-94707151D01*
X180255970Y-94729329D01*
X180264235Y-94752429D01*
X180270196Y-94776227D01*
X180273796Y-94800496D01*
X180275000Y-94825000D01*
X180275000Y-95575000D01*
X180273796Y-95599504D01*
X180270196Y-95623773D01*
X180264235Y-95647571D01*
X180255970Y-95670671D01*
X180245480Y-95692849D01*
X180232867Y-95713893D01*
X180218253Y-95733598D01*
X180201777Y-95751777D01*
X180183598Y-95768253D01*
X180163893Y-95782867D01*
X180142849Y-95795480D01*
X180120671Y-95805970D01*
X180097571Y-95814235D01*
X180073773Y-95820196D01*
X180049504Y-95823796D01*
X180025000Y-95825000D01*
X178775000Y-95825000D01*
X178750496Y-95823796D01*
X178726227Y-95820196D01*
X178702429Y-95814235D01*
X178679329Y-95805970D01*
X178657151Y-95795480D01*
X178636107Y-95782867D01*
X178616402Y-95768253D01*
X178598223Y-95751777D01*
X178581747Y-95733598D01*
X178567133Y-95713893D01*
X178554520Y-95692849D01*
X178544030Y-95670671D01*
X178535765Y-95647571D01*
X178529804Y-95623773D01*
X178526204Y-95599504D01*
X178525000Y-95575000D01*
X178525000Y-94825000D01*
X178526204Y-94800496D01*
X178529804Y-94776227D01*
X178535765Y-94752429D01*
X178544030Y-94729329D01*
X178554520Y-94707151D01*
X178567133Y-94686107D01*
X178581747Y-94666402D01*
X178598223Y-94648223D01*
X178616402Y-94631747D01*
X178636107Y-94617133D01*
X178657151Y-94604520D01*
X178679329Y-94594030D01*
X178702429Y-94585765D01*
X178726227Y-94579804D01*
X178750496Y-94576204D01*
X178775000Y-94575000D01*
X180025000Y-94575000D01*
X180049504Y-94576204D01*
X180049504Y-94576204D01*
G37*
D16*
G04 #@! TD*
G04 #@! TO.P,C1,1*
G04 #@! TO.N,/Voltage Reference/V+*
X179400000Y-95200000D03*
D15*
G04 #@! TO.N,/Voltage Reference/V-*
G04 #@! TO.C,C2*
G36*
X174699504Y-91726204D02*
X174723773Y-91729804D01*
X174747571Y-91735765D01*
X174770671Y-91744030D01*
X174792849Y-91754520D01*
X174813893Y-91767133D01*
X174833598Y-91781747D01*
X174851777Y-91798223D01*
X174868253Y-91816402D01*
X174882867Y-91836107D01*
X174895480Y-91857151D01*
X174905970Y-91879329D01*
X174914235Y-91902429D01*
X174920196Y-91926227D01*
X174923796Y-91950496D01*
X174925000Y-91975000D01*
X174925000Y-93225000D01*
X174923796Y-93249504D01*
X174920196Y-93273773D01*
X174914235Y-93297571D01*
X174905970Y-93320671D01*
X174895480Y-93342849D01*
X174882867Y-93363893D01*
X174868253Y-93383598D01*
X174851777Y-93401777D01*
X174833598Y-93418253D01*
X174813893Y-93432867D01*
X174792849Y-93445480D01*
X174770671Y-93455970D01*
X174747571Y-93464235D01*
X174723773Y-93470196D01*
X174699504Y-93473796D01*
X174675000Y-93475000D01*
X173925000Y-93475000D01*
X173900496Y-93473796D01*
X173876227Y-93470196D01*
X173852429Y-93464235D01*
X173829329Y-93455970D01*
X173807151Y-93445480D01*
X173786107Y-93432867D01*
X173766402Y-93418253D01*
X173748223Y-93401777D01*
X173731747Y-93383598D01*
X173717133Y-93363893D01*
X173704520Y-93342849D01*
X173694030Y-93320671D01*
X173685765Y-93297571D01*
X173679804Y-93273773D01*
X173676204Y-93249504D01*
X173675000Y-93225000D01*
X173675000Y-91975000D01*
X173676204Y-91950496D01*
X173679804Y-91926227D01*
X173685765Y-91902429D01*
X173694030Y-91879329D01*
X173704520Y-91857151D01*
X173717133Y-91836107D01*
X173731747Y-91816402D01*
X173748223Y-91798223D01*
X173766402Y-91781747D01*
X173786107Y-91767133D01*
X173807151Y-91754520D01*
X173829329Y-91744030D01*
X173852429Y-91735765D01*
X173876227Y-91729804D01*
X173900496Y-91726204D01*
X173925000Y-91725000D01*
X174675000Y-91725000D01*
X174699504Y-91726204D01*
X174699504Y-91726204D01*
G37*
D16*
G04 #@! TD*
G04 #@! TO.P,C2,1*
G04 #@! TO.N,/Voltage Reference/V-*
X174300000Y-92600000D03*
D15*
G04 #@! TO.N,GND*
G04 #@! TO.C,C2*
G36*
X171899504Y-91726204D02*
X171923773Y-91729804D01*
X171947571Y-91735765D01*
X171970671Y-91744030D01*
X171992849Y-91754520D01*
X172013893Y-91767133D01*
X172033598Y-91781747D01*
X172051777Y-91798223D01*
X172068253Y-91816402D01*
X172082867Y-91836107D01*
X172095480Y-91857151D01*
X172105970Y-91879329D01*
X172114235Y-91902429D01*
X172120196Y-91926227D01*
X172123796Y-91950496D01*
X172125000Y-91975000D01*
X172125000Y-93225000D01*
X172123796Y-93249504D01*
X172120196Y-93273773D01*
X172114235Y-93297571D01*
X172105970Y-93320671D01*
X172095480Y-93342849D01*
X172082867Y-93363893D01*
X172068253Y-93383598D01*
X172051777Y-93401777D01*
X172033598Y-93418253D01*
X172013893Y-93432867D01*
X171992849Y-93445480D01*
X171970671Y-93455970D01*
X171947571Y-93464235D01*
X171923773Y-93470196D01*
X171899504Y-93473796D01*
X171875000Y-93475000D01*
X171125000Y-93475000D01*
X171100496Y-93473796D01*
X171076227Y-93470196D01*
X171052429Y-93464235D01*
X171029329Y-93455970D01*
X171007151Y-93445480D01*
X170986107Y-93432867D01*
X170966402Y-93418253D01*
X170948223Y-93401777D01*
X170931747Y-93383598D01*
X170917133Y-93363893D01*
X170904520Y-93342849D01*
X170894030Y-93320671D01*
X170885765Y-93297571D01*
X170879804Y-93273773D01*
X170876204Y-93249504D01*
X170875000Y-93225000D01*
X170875000Y-91975000D01*
X170876204Y-91950496D01*
X170879804Y-91926227D01*
X170885765Y-91902429D01*
X170894030Y-91879329D01*
X170904520Y-91857151D01*
X170917133Y-91836107D01*
X170931747Y-91816402D01*
X170948223Y-91798223D01*
X170966402Y-91781747D01*
X170986107Y-91767133D01*
X171007151Y-91754520D01*
X171029329Y-91744030D01*
X171052429Y-91735765D01*
X171076227Y-91729804D01*
X171100496Y-91726204D01*
X171125000Y-91725000D01*
X171875000Y-91725000D01*
X171899504Y-91726204D01*
X171899504Y-91726204D01*
G37*
D16*
G04 #@! TD*
G04 #@! TO.P,C2,2*
G04 #@! TO.N,GND*
X171500000Y-92600000D03*
D15*
G04 #@! TO.N,/Vout*
G04 #@! TO.C,C3*
G36*
X177099504Y-98026204D02*
X177123773Y-98029804D01*
X177147571Y-98035765D01*
X177170671Y-98044030D01*
X177192849Y-98054520D01*
X177213893Y-98067133D01*
X177233598Y-98081747D01*
X177251777Y-98098223D01*
X177268253Y-98116402D01*
X177282867Y-98136107D01*
X177295480Y-98157151D01*
X177305970Y-98179329D01*
X177314235Y-98202429D01*
X177320196Y-98226227D01*
X177323796Y-98250496D01*
X177325000Y-98275000D01*
X177325000Y-99525000D01*
X177323796Y-99549504D01*
X177320196Y-99573773D01*
X177314235Y-99597571D01*
X177305970Y-99620671D01*
X177295480Y-99642849D01*
X177282867Y-99663893D01*
X177268253Y-99683598D01*
X177251777Y-99701777D01*
X177233598Y-99718253D01*
X177213893Y-99732867D01*
X177192849Y-99745480D01*
X177170671Y-99755970D01*
X177147571Y-99764235D01*
X177123773Y-99770196D01*
X177099504Y-99773796D01*
X177075000Y-99775000D01*
X176325000Y-99775000D01*
X176300496Y-99773796D01*
X176276227Y-99770196D01*
X176252429Y-99764235D01*
X176229329Y-99755970D01*
X176207151Y-99745480D01*
X176186107Y-99732867D01*
X176166402Y-99718253D01*
X176148223Y-99701777D01*
X176131747Y-99683598D01*
X176117133Y-99663893D01*
X176104520Y-99642849D01*
X176094030Y-99620671D01*
X176085765Y-99597571D01*
X176079804Y-99573773D01*
X176076204Y-99549504D01*
X176075000Y-99525000D01*
X176075000Y-98275000D01*
X176076204Y-98250496D01*
X176079804Y-98226227D01*
X176085765Y-98202429D01*
X176094030Y-98179329D01*
X176104520Y-98157151D01*
X176117133Y-98136107D01*
X176131747Y-98116402D01*
X176148223Y-98098223D01*
X176166402Y-98081747D01*
X176186107Y-98067133D01*
X176207151Y-98054520D01*
X176229329Y-98044030D01*
X176252429Y-98035765D01*
X176276227Y-98029804D01*
X176300496Y-98026204D01*
X176325000Y-98025000D01*
X177075000Y-98025000D01*
X177099504Y-98026204D01*
X177099504Y-98026204D01*
G37*
D16*
G04 #@! TD*
G04 #@! TO.P,C3,1*
G04 #@! TO.N,/Vout*
X176700000Y-98900000D03*
D15*
G04 #@! TO.N,Net-(C3-Pad2)*
G04 #@! TO.C,C3*
G36*
X174299504Y-98026204D02*
X174323773Y-98029804D01*
X174347571Y-98035765D01*
X174370671Y-98044030D01*
X174392849Y-98054520D01*
X174413893Y-98067133D01*
X174433598Y-98081747D01*
X174451777Y-98098223D01*
X174468253Y-98116402D01*
X174482867Y-98136107D01*
X174495480Y-98157151D01*
X174505970Y-98179329D01*
X174514235Y-98202429D01*
X174520196Y-98226227D01*
X174523796Y-98250496D01*
X174525000Y-98275000D01*
X174525000Y-99525000D01*
X174523796Y-99549504D01*
X174520196Y-99573773D01*
X174514235Y-99597571D01*
X174505970Y-99620671D01*
X174495480Y-99642849D01*
X174482867Y-99663893D01*
X174468253Y-99683598D01*
X174451777Y-99701777D01*
X174433598Y-99718253D01*
X174413893Y-99732867D01*
X174392849Y-99745480D01*
X174370671Y-99755970D01*
X174347571Y-99764235D01*
X174323773Y-99770196D01*
X174299504Y-99773796D01*
X174275000Y-99775000D01*
X173525000Y-99775000D01*
X173500496Y-99773796D01*
X173476227Y-99770196D01*
X173452429Y-99764235D01*
X173429329Y-99755970D01*
X173407151Y-99745480D01*
X173386107Y-99732867D01*
X173366402Y-99718253D01*
X173348223Y-99701777D01*
X173331747Y-99683598D01*
X173317133Y-99663893D01*
X173304520Y-99642849D01*
X173294030Y-99620671D01*
X173285765Y-99597571D01*
X173279804Y-99573773D01*
X173276204Y-99549504D01*
X173275000Y-99525000D01*
X173275000Y-98275000D01*
X173276204Y-98250496D01*
X173279804Y-98226227D01*
X173285765Y-98202429D01*
X173294030Y-98179329D01*
X173304520Y-98157151D01*
X173317133Y-98136107D01*
X173331747Y-98116402D01*
X173348223Y-98098223D01*
X173366402Y-98081747D01*
X173386107Y-98067133D01*
X173407151Y-98054520D01*
X173429329Y-98044030D01*
X173452429Y-98035765D01*
X173476227Y-98029804D01*
X173500496Y-98026204D01*
X173525000Y-98025000D01*
X174275000Y-98025000D01*
X174299504Y-98026204D01*
X174299504Y-98026204D01*
G37*
D16*
G04 #@! TD*
G04 #@! TO.P,C3,2*
G04 #@! TO.N,Net-(C3-Pad2)*
X173900000Y-98900000D03*
D15*
G04 #@! TO.N,/Vout*
G04 #@! TO.C,R1*
G36*
X171377691Y-105051053D02*
X171398926Y-105054203D01*
X171419750Y-105059419D01*
X171439962Y-105066651D01*
X171459368Y-105075830D01*
X171477781Y-105086866D01*
X171495024Y-105099654D01*
X171510930Y-105114070D01*
X171525346Y-105129976D01*
X171538134Y-105147219D01*
X171549170Y-105165632D01*
X171558349Y-105185038D01*
X171565581Y-105205250D01*
X171570797Y-105226074D01*
X171573947Y-105247309D01*
X171575000Y-105268750D01*
X171575000Y-105706250D01*
X171573947Y-105727691D01*
X171570797Y-105748926D01*
X171565581Y-105769750D01*
X171558349Y-105789962D01*
X171549170Y-105809368D01*
X171538134Y-105827781D01*
X171525346Y-105845024D01*
X171510930Y-105860930D01*
X171495024Y-105875346D01*
X171477781Y-105888134D01*
X171459368Y-105899170D01*
X171439962Y-105908349D01*
X171419750Y-105915581D01*
X171398926Y-105920797D01*
X171377691Y-105923947D01*
X171356250Y-105925000D01*
X170843750Y-105925000D01*
X170822309Y-105923947D01*
X170801074Y-105920797D01*
X170780250Y-105915581D01*
X170760038Y-105908349D01*
X170740632Y-105899170D01*
X170722219Y-105888134D01*
X170704976Y-105875346D01*
X170689070Y-105860930D01*
X170674654Y-105845024D01*
X170661866Y-105827781D01*
X170650830Y-105809368D01*
X170641651Y-105789962D01*
X170634419Y-105769750D01*
X170629203Y-105748926D01*
X170626053Y-105727691D01*
X170625000Y-105706250D01*
X170625000Y-105268750D01*
X170626053Y-105247309D01*
X170629203Y-105226074D01*
X170634419Y-105205250D01*
X170641651Y-105185038D01*
X170650830Y-105165632D01*
X170661866Y-105147219D01*
X170674654Y-105129976D01*
X170689070Y-105114070D01*
X170704976Y-105099654D01*
X170722219Y-105086866D01*
X170740632Y-105075830D01*
X170760038Y-105066651D01*
X170780250Y-105059419D01*
X170801074Y-105054203D01*
X170822309Y-105051053D01*
X170843750Y-105050000D01*
X171356250Y-105050000D01*
X171377691Y-105051053D01*
X171377691Y-105051053D01*
G37*
D17*
G04 #@! TD*
G04 #@! TO.P,R1,1*
G04 #@! TO.N,/Vout*
X171100000Y-105487500D03*
D15*
G04 #@! TO.N,Net-(NT2-Pad1)*
G04 #@! TO.C,R1*
G36*
X171377691Y-103476053D02*
X171398926Y-103479203D01*
X171419750Y-103484419D01*
X171439962Y-103491651D01*
X171459368Y-103500830D01*
X171477781Y-103511866D01*
X171495024Y-103524654D01*
X171510930Y-103539070D01*
X171525346Y-103554976D01*
X171538134Y-103572219D01*
X171549170Y-103590632D01*
X171558349Y-103610038D01*
X171565581Y-103630250D01*
X171570797Y-103651074D01*
X171573947Y-103672309D01*
X171575000Y-103693750D01*
X171575000Y-104131250D01*
X171573947Y-104152691D01*
X171570797Y-104173926D01*
X171565581Y-104194750D01*
X171558349Y-104214962D01*
X171549170Y-104234368D01*
X171538134Y-104252781D01*
X171525346Y-104270024D01*
X171510930Y-104285930D01*
X171495024Y-104300346D01*
X171477781Y-104313134D01*
X171459368Y-104324170D01*
X171439962Y-104333349D01*
X171419750Y-104340581D01*
X171398926Y-104345797D01*
X171377691Y-104348947D01*
X171356250Y-104350000D01*
X170843750Y-104350000D01*
X170822309Y-104348947D01*
X170801074Y-104345797D01*
X170780250Y-104340581D01*
X170760038Y-104333349D01*
X170740632Y-104324170D01*
X170722219Y-104313134D01*
X170704976Y-104300346D01*
X170689070Y-104285930D01*
X170674654Y-104270024D01*
X170661866Y-104252781D01*
X170650830Y-104234368D01*
X170641651Y-104214962D01*
X170634419Y-104194750D01*
X170629203Y-104173926D01*
X170626053Y-104152691D01*
X170625000Y-104131250D01*
X170625000Y-103693750D01*
X170626053Y-103672309D01*
X170629203Y-103651074D01*
X170634419Y-103630250D01*
X170641651Y-103610038D01*
X170650830Y-103590632D01*
X170661866Y-103572219D01*
X170674654Y-103554976D01*
X170689070Y-103539070D01*
X170704976Y-103524654D01*
X170722219Y-103511866D01*
X170740632Y-103500830D01*
X170760038Y-103491651D01*
X170780250Y-103484419D01*
X170801074Y-103479203D01*
X170822309Y-103476053D01*
X170843750Y-103475000D01*
X171356250Y-103475000D01*
X171377691Y-103476053D01*
X171377691Y-103476053D01*
G37*
D17*
G04 #@! TD*
G04 #@! TO.P,R1,2*
G04 #@! TO.N,Net-(NT2-Pad1)*
X171100000Y-103912500D03*
D15*
G04 #@! TO.N,/Voltage Reference/V-*
G04 #@! TO.C,R2*
G36*
X171377691Y-95076053D02*
X171398926Y-95079203D01*
X171419750Y-95084419D01*
X171439962Y-95091651D01*
X171459368Y-95100830D01*
X171477781Y-95111866D01*
X171495024Y-95124654D01*
X171510930Y-95139070D01*
X171525346Y-95154976D01*
X171538134Y-95172219D01*
X171549170Y-95190632D01*
X171558349Y-95210038D01*
X171565581Y-95230250D01*
X171570797Y-95251074D01*
X171573947Y-95272309D01*
X171575000Y-95293750D01*
X171575000Y-95731250D01*
X171573947Y-95752691D01*
X171570797Y-95773926D01*
X171565581Y-95794750D01*
X171558349Y-95814962D01*
X171549170Y-95834368D01*
X171538134Y-95852781D01*
X171525346Y-95870024D01*
X171510930Y-95885930D01*
X171495024Y-95900346D01*
X171477781Y-95913134D01*
X171459368Y-95924170D01*
X171439962Y-95933349D01*
X171419750Y-95940581D01*
X171398926Y-95945797D01*
X171377691Y-95948947D01*
X171356250Y-95950000D01*
X170843750Y-95950000D01*
X170822309Y-95948947D01*
X170801074Y-95945797D01*
X170780250Y-95940581D01*
X170760038Y-95933349D01*
X170740632Y-95924170D01*
X170722219Y-95913134D01*
X170704976Y-95900346D01*
X170689070Y-95885930D01*
X170674654Y-95870024D01*
X170661866Y-95852781D01*
X170650830Y-95834368D01*
X170641651Y-95814962D01*
X170634419Y-95794750D01*
X170629203Y-95773926D01*
X170626053Y-95752691D01*
X170625000Y-95731250D01*
X170625000Y-95293750D01*
X170626053Y-95272309D01*
X170629203Y-95251074D01*
X170634419Y-95230250D01*
X170641651Y-95210038D01*
X170650830Y-95190632D01*
X170661866Y-95172219D01*
X170674654Y-95154976D01*
X170689070Y-95139070D01*
X170704976Y-95124654D01*
X170722219Y-95111866D01*
X170740632Y-95100830D01*
X170760038Y-95091651D01*
X170780250Y-95084419D01*
X170801074Y-95079203D01*
X170822309Y-95076053D01*
X170843750Y-95075000D01*
X171356250Y-95075000D01*
X171377691Y-95076053D01*
X171377691Y-95076053D01*
G37*
D17*
G04 #@! TD*
G04 #@! TO.P,R2,2*
G04 #@! TO.N,/Voltage Reference/V-*
X171100000Y-95512500D03*
D15*
G04 #@! TO.N,Net-(NT2-Pad1)*
G04 #@! TO.C,R2*
G36*
X171377691Y-96651053D02*
X171398926Y-96654203D01*
X171419750Y-96659419D01*
X171439962Y-96666651D01*
X171459368Y-96675830D01*
X171477781Y-96686866D01*
X171495024Y-96699654D01*
X171510930Y-96714070D01*
X171525346Y-96729976D01*
X171538134Y-96747219D01*
X171549170Y-96765632D01*
X171558349Y-96785038D01*
X171565581Y-96805250D01*
X171570797Y-96826074D01*
X171573947Y-96847309D01*
X171575000Y-96868750D01*
X171575000Y-97306250D01*
X171573947Y-97327691D01*
X171570797Y-97348926D01*
X171565581Y-97369750D01*
X171558349Y-97389962D01*
X171549170Y-97409368D01*
X171538134Y-97427781D01*
X171525346Y-97445024D01*
X171510930Y-97460930D01*
X171495024Y-97475346D01*
X171477781Y-97488134D01*
X171459368Y-97499170D01*
X171439962Y-97508349D01*
X171419750Y-97515581D01*
X171398926Y-97520797D01*
X171377691Y-97523947D01*
X171356250Y-97525000D01*
X170843750Y-97525000D01*
X170822309Y-97523947D01*
X170801074Y-97520797D01*
X170780250Y-97515581D01*
X170760038Y-97508349D01*
X170740632Y-97499170D01*
X170722219Y-97488134D01*
X170704976Y-97475346D01*
X170689070Y-97460930D01*
X170674654Y-97445024D01*
X170661866Y-97427781D01*
X170650830Y-97409368D01*
X170641651Y-97389962D01*
X170634419Y-97369750D01*
X170629203Y-97348926D01*
X170626053Y-97327691D01*
X170625000Y-97306250D01*
X170625000Y-96868750D01*
X170626053Y-96847309D01*
X170629203Y-96826074D01*
X170634419Y-96805250D01*
X170641651Y-96785038D01*
X170650830Y-96765632D01*
X170661866Y-96747219D01*
X170674654Y-96729976D01*
X170689070Y-96714070D01*
X170704976Y-96699654D01*
X170722219Y-96686866D01*
X170740632Y-96675830D01*
X170760038Y-96666651D01*
X170780250Y-96659419D01*
X170801074Y-96654203D01*
X170822309Y-96651053D01*
X170843750Y-96650000D01*
X171356250Y-96650000D01*
X171377691Y-96651053D01*
X171377691Y-96651053D01*
G37*
D17*
G04 #@! TD*
G04 #@! TO.P,R2,1*
G04 #@! TO.N,Net-(NT2-Pad1)*
X171100000Y-97087500D03*
D18*
G04 #@! TO.P,U1,1*
G04 #@! TO.N,Net-(U1-Pad1)*
X163050000Y-85350000D03*
G04 #@! TO.P,U1,3*
G04 #@! TO.N,Net-(J1-Pad8)*
X163050000Y-86650000D03*
G04 #@! TO.P,U1,2*
G04 #@! TO.N,GND*
X163050000Y-86000000D03*
G04 #@! TO.P,U1,4*
G04 #@! TO.N,Net-(J1-Pad7)*
X164950000Y-86650000D03*
G04 #@! TO.P,U1,5*
G04 #@! TO.N,GND*
X164950000Y-85350000D03*
G04 #@! TD*
D19*
G04 #@! TO.P,J1,1*
G04 #@! TO.N,GND*
X179000000Y-86000000D03*
D20*
G04 #@! TO.P,J1,2*
G04 #@! TO.N,/Zener+_sense*
X179000000Y-88540000D03*
G04 #@! TO.P,J1,3*
G04 #@! TO.N,/Vout*
X176460000Y-86000000D03*
G04 #@! TO.P,J1,4*
G04 #@! TO.N,/Zener+_force*
X176460000Y-88540000D03*
G04 #@! TO.P,J1,5*
G04 #@! TO.N,/Voltage Reference/V-*
X173920000Y-86000000D03*
G04 #@! TO.P,J1,6*
G04 #@! TO.N,/Voltage Reference/V+*
X173920000Y-88540000D03*
G04 #@! TO.P,J1,7*
G04 #@! TO.N,Net-(J1-Pad7)*
X171380000Y-86000000D03*
G04 #@! TO.P,J1,8*
G04 #@! TO.N,Net-(J1-Pad8)*
X171380000Y-88540000D03*
G04 #@! TD*
D21*
G04 #@! TO.P,U3,1*
G04 #@! TO.N,Net-(U3-Pad1)*
X173900000Y-94850000D03*
G04 #@! TO.P,U3,2*
G04 #@! TO.N,Net-(C3-Pad2)*
X173900000Y-95350000D03*
G04 #@! TO.P,U3,3*
G04 #@! TO.N,Net-(NT2-Pad2)*
X173900000Y-95850000D03*
G04 #@! TO.P,U3,4*
G04 #@! TO.N,/Voltage Reference/V-*
X173900000Y-96350000D03*
G04 #@! TO.P,U3,5*
G04 #@! TO.N,N/C*
X176700000Y-96350000D03*
G04 #@! TO.P,U3,6*
G04 #@! TO.N,/Vout*
X176700000Y-95850000D03*
G04 #@! TO.P,U3,7*
G04 #@! TO.N,/Voltage Reference/V+*
X176700000Y-95350000D03*
G04 #@! TO.P,U3,8*
G04 #@! TO.N,Net-(U3-Pad8)*
X176700000Y-94850000D03*
D22*
G04 #@! TO.P,U3,9*
G04 #@! TO.N,/Voltage Reference/V-*
X175300000Y-95600000D03*
G04 #@! TD*
D23*
G04 #@! TO.N,GND*
X179400000Y-93400000D03*
X169200000Y-83900000D03*
X172800000Y-93300000D03*
G04 #@! TD*
D24*
G04 #@! TO.N,Net-(NT2-Pad1)*
X158300000Y-97200000D02*
X158300000Y-103000000D01*
X158300000Y-103000000D02*
X160500000Y-105200000D01*
X171100000Y-97050000D02*
X171100000Y-103700000D01*
D25*
G04 #@! TO.N,GND*
X179400000Y-92300000D02*
X179400000Y-93400000D01*
D26*
X163050000Y-86000000D02*
X163500000Y-86000000D01*
X164150000Y-85350000D02*
X164950000Y-85350000D01*
X163500000Y-86000000D02*
X164150000Y-85350000D01*
X164950000Y-84750000D02*
X165800000Y-83900000D01*
X164950000Y-85350000D02*
X164950000Y-84750000D01*
X165800000Y-83900000D02*
X169200000Y-83900000D01*
X172100000Y-92600000D02*
X171400000Y-92600000D01*
X172800000Y-93300000D02*
X172100000Y-92600000D01*
D25*
G04 #@! TO.N,/Voltage Reference/V+*
X173920000Y-88540000D02*
X173920000Y-90220000D01*
X173920000Y-90220000D02*
X177900000Y-94200000D01*
X177900000Y-94200000D02*
X177900000Y-95100000D01*
X177900000Y-95350000D02*
X178200000Y-95350000D01*
X178200000Y-95350000D02*
X179350000Y-95350000D01*
X177950000Y-95100000D02*
X178200000Y-95350000D01*
X177900000Y-95100000D02*
X177950000Y-95100000D01*
D26*
X179350000Y-95350000D02*
X179400000Y-95300000D01*
D25*
X177900000Y-95350000D02*
X178000000Y-95350000D01*
X177900000Y-95250000D02*
X178000000Y-95350000D01*
X177900000Y-95100000D02*
X177900000Y-95350000D01*
D24*
X176700000Y-95350000D02*
X177800000Y-95350000D01*
D25*
X177800000Y-95350000D02*
X177900000Y-95350000D01*
X177900000Y-95100000D02*
X177900000Y-95250000D01*
X177900000Y-95250000D02*
X177800000Y-95350000D01*
G04 #@! TO.N,/Voltage Reference/V-*
X173920000Y-86000000D02*
X173920000Y-86280000D01*
X173920000Y-86280000D02*
X172650000Y-87550000D01*
X172650000Y-87550000D02*
X172650000Y-89950000D01*
D24*
X175715000Y-96195000D02*
X174885000Y-96195000D01*
X175715000Y-95005000D02*
X175715000Y-96195000D01*
X174885000Y-95005000D02*
X175715000Y-95005000D01*
X173900000Y-96350000D02*
X174730000Y-96350000D01*
X174730000Y-96350000D02*
X174885000Y-96195000D01*
D27*
X171100000Y-95200000D02*
X171100000Y-95550000D01*
X172000000Y-94300000D02*
X171100000Y-95200000D01*
D25*
X172650000Y-89950000D02*
X174300000Y-91600000D01*
X174300000Y-91600000D02*
X174300000Y-92600000D01*
X174300000Y-92600000D02*
X174300000Y-93500000D01*
X174885000Y-94085000D02*
X174885000Y-95005000D01*
X174300000Y-93500000D02*
X174885000Y-94085000D01*
D27*
X174300000Y-92800000D02*
X172800000Y-94300000D01*
X174300000Y-92600000D02*
X174300000Y-92800000D01*
X172800000Y-94300000D02*
X172000000Y-94300000D01*
D26*
G04 #@! TO.N,Net-(J1-Pad7)*
X165650000Y-86650000D02*
X164950000Y-86650000D01*
X170000000Y-86000000D02*
X168500000Y-84500000D01*
X166000000Y-86300000D02*
X165650000Y-86650000D01*
X171380000Y-86000000D02*
X170000000Y-86000000D01*
X168500000Y-84500000D02*
X167000000Y-84500000D01*
X166000000Y-85500000D02*
X166000000Y-86300000D01*
X167000000Y-84500000D02*
X166000000Y-85500000D01*
G04 #@! TO.N,Net-(J1-Pad8)*
X163050000Y-87250000D02*
X163050000Y-86650000D01*
X163500000Y-87700000D02*
X163050000Y-87250000D01*
X166500000Y-87200000D02*
X166000000Y-87700000D01*
X166000000Y-87700000D02*
X163500000Y-87700000D01*
X166500000Y-85700000D02*
X166500000Y-87200000D01*
X170140000Y-88540000D02*
X169300000Y-87700000D01*
X171380000Y-88540000D02*
X170140000Y-88540000D01*
X169300000Y-87700000D02*
X169300000Y-85900000D01*
X169300000Y-85900000D02*
X168300000Y-84900000D01*
X168300000Y-84900000D02*
X167300000Y-84900000D01*
X167300000Y-84900000D02*
X166500000Y-85700000D01*
D25*
G04 #@! TO.N,/Vout*
X177800000Y-97900000D02*
X176800000Y-98900000D01*
X178000000Y-97700000D02*
X177800000Y-97900000D01*
X179440000Y-99140000D02*
X178200000Y-97900000D01*
X178200000Y-97900000D02*
X178000000Y-97700000D01*
X177800000Y-97900000D02*
X178200000Y-97900000D01*
X179600000Y-97900000D02*
X179800000Y-98100000D01*
X179800000Y-98100000D02*
X181300000Y-99600000D01*
X179800000Y-97700000D02*
X179800000Y-98100000D01*
X179400000Y-97700000D02*
X179600000Y-97900000D01*
X178400000Y-96700000D02*
X179400000Y-97700000D01*
X181700000Y-95800000D02*
X179800000Y-97700000D01*
X179800000Y-97700000D02*
X179600000Y-97900000D01*
X179400000Y-97700000D02*
X179800000Y-97700000D01*
X176460000Y-84640000D02*
X177200000Y-83900000D01*
X176460000Y-86000000D02*
X176460000Y-84640000D01*
X177200000Y-83900000D02*
X180400000Y-83900000D01*
X180400000Y-83900000D02*
X181700000Y-85200000D01*
X181700000Y-85200000D02*
X181700000Y-95800000D01*
X181300000Y-99600000D02*
X181300000Y-103700000D01*
X181300000Y-103700000D02*
X179350000Y-105650000D01*
X179350000Y-105650000D02*
X171100000Y-105650000D01*
X178000000Y-97100000D02*
X178000000Y-97700000D01*
X178000000Y-96900000D02*
X178200000Y-96700000D01*
X178000000Y-96700000D02*
X178000000Y-97100000D01*
X178000000Y-97100000D02*
X178000000Y-96900000D01*
X178000000Y-96700000D02*
X178200000Y-96700000D01*
X178200000Y-96700000D02*
X178400000Y-96700000D01*
X178000000Y-96500000D02*
X178000000Y-96700000D01*
X178000000Y-96300000D02*
X178400000Y-96700000D01*
X178000000Y-96300000D02*
X178000000Y-96500000D01*
X178000000Y-96500000D02*
X178000000Y-96400000D01*
X179440000Y-102100000D02*
X179440000Y-99140000D01*
X177800000Y-96100000D02*
X178000000Y-96300000D01*
D24*
X177550000Y-95850000D02*
X177800000Y-96100000D01*
X176700000Y-95850000D02*
X177550000Y-95850000D01*
D27*
G04 #@! TO.N,Net-(C3-Pad2)*
X174500000Y-100700000D02*
X175500000Y-100700000D01*
X175500000Y-100700000D02*
X176900000Y-102100000D01*
X173800000Y-100000000D02*
X174500000Y-100700000D01*
X173800000Y-98900000D02*
X173800000Y-100000000D01*
X172500000Y-98500000D02*
X172900000Y-98900000D01*
X172900000Y-98900000D02*
X173800000Y-98900000D01*
X172500000Y-95900000D02*
X172500000Y-98500000D01*
X173050000Y-95350000D02*
X172500000Y-95900000D01*
X173900000Y-95350000D02*
X173050000Y-95350000D01*
D25*
X173800000Y-98900000D02*
X173800000Y-99000000D01*
D24*
G04 #@! TO.N,Net-(NT2-Pad1)*
X169250000Y-103750000D02*
X171100000Y-103750000D01*
X160500000Y-105200000D02*
X167800000Y-105200000D01*
X167800000Y-105200000D02*
X169250000Y-103750000D01*
D27*
G04 #@! TO.N,Net-(NT2-Pad2)*
X160300000Y-105700000D02*
X157700000Y-103100000D01*
X157700000Y-103100000D02*
X157700000Y-96900000D01*
X157700000Y-96900000D02*
X158000000Y-96600000D01*
X158000000Y-96600000D02*
X158000000Y-96270000D01*
D24*
X158000000Y-96270000D02*
X158000000Y-96500000D01*
X158000000Y-96500000D02*
X158300000Y-96800000D01*
D27*
X176700000Y-104700000D02*
X170100000Y-104700000D01*
X178200000Y-103200000D02*
X176700000Y-104700000D01*
X178200000Y-101100000D02*
X178200000Y-103200000D01*
X177700000Y-100600000D02*
X178200000Y-101100000D01*
X175900000Y-100600000D02*
X177700000Y-100600000D01*
X175300000Y-97900000D02*
X175300000Y-100000000D01*
X173150000Y-95850000D02*
X172900000Y-96100000D01*
X173900000Y-95850000D02*
X173150000Y-95850000D01*
X172900000Y-96100000D02*
X172900000Y-97000000D01*
X174900000Y-97500000D02*
X175300000Y-97900000D01*
X172900000Y-97000000D02*
X173400000Y-97500000D01*
X169100000Y-105700000D02*
X160300000Y-105700000D01*
X170100000Y-104700000D02*
X169100000Y-105700000D01*
X175300000Y-100000000D02*
X175900000Y-100600000D01*
X173400000Y-97500000D02*
X174900000Y-97500000D01*
G04 #@! TD*
M02*
