G04 #@! TF.GenerationSoftware,KiCad,Pcbnew,(6.0.0-rc1-dev)*
G04 #@! TF.CreationDate,2018-08-18T01:00:10+02:00*
G04 #@! TF.ProjectId,reference_board,7265666572656E63655F626F6172642E,rev?*
G04 #@! TF.SameCoordinates,Original*
G04 #@! TF.FileFunction,Legend,Top*
G04 #@! TF.FilePolarity,Positive*
%FSLAX46Y46*%
G04 Gerber Fmt 4.6, Leading zero omitted, Abs format (unit mm)*
G04 Created by KiCad (PCBNEW (6.0.0-rc1-dev)) date Sat Aug 18 01:00:10 2018*
%MOMM*%
%LPD*%
G01*
G04 APERTURE LIST*
%ADD10C,0.150000*%
%ADD11C,0.010000*%
%ADD12C,0.120000*%
G04 APERTURE END LIST*
D10*
X177590476Y-90261904D02*
X177857142Y-91061904D01*
X178123809Y-90261904D01*
X178314285Y-90528571D02*
X178733333Y-90528571D01*
X178314285Y-91061904D01*
X178733333Y-91061904D01*
X179038095Y-90757142D02*
X179647619Y-90757142D01*
X179342857Y-91061904D02*
X179342857Y-90452380D01*
X179990476Y-91023809D02*
X180066666Y-91061904D01*
X180219047Y-91061904D01*
X180295238Y-91023809D01*
X180333333Y-90947619D01*
X180333333Y-90909523D01*
X180295238Y-90833333D01*
X180219047Y-90795238D01*
X180104761Y-90795238D01*
X180028571Y-90757142D01*
X179990476Y-90680952D01*
X179990476Y-90642857D01*
X180028571Y-90566666D01*
X180104761Y-90528571D01*
X180219047Y-90528571D01*
X180295238Y-90566666D01*
X158345119Y-106061904D02*
X158078452Y-105680952D01*
X157887976Y-106061904D02*
X157887976Y-105261904D01*
X158192738Y-105261904D01*
X158268928Y-105300000D01*
X158307023Y-105338095D01*
X158345119Y-105414285D01*
X158345119Y-105528571D01*
X158307023Y-105604761D01*
X158268928Y-105642857D01*
X158192738Y-105680952D01*
X157887976Y-105680952D01*
X159107023Y-106061904D02*
X158649880Y-106061904D01*
X158878452Y-106061904D02*
X158878452Y-105261904D01*
X158802261Y-105376190D01*
X158726071Y-105452380D01*
X158649880Y-105490476D01*
X159449880Y-105985714D02*
X159487976Y-106023809D01*
X159449880Y-106061904D01*
X159411785Y-106023809D01*
X159449880Y-105985714D01*
X159449880Y-106061904D01*
X159449880Y-105566666D02*
X159487976Y-105604761D01*
X159449880Y-105642857D01*
X159411785Y-105604761D01*
X159449880Y-105566666D01*
X159449880Y-105642857D01*
X160821309Y-105261904D02*
X160440357Y-105261904D01*
X160402261Y-105642857D01*
X160440357Y-105604761D01*
X160516547Y-105566666D01*
X160707023Y-105566666D01*
X160783214Y-105604761D01*
X160821309Y-105642857D01*
X160859404Y-105719047D01*
X160859404Y-105909523D01*
X160821309Y-105985714D01*
X160783214Y-106023809D01*
X160707023Y-106061904D01*
X160516547Y-106061904D01*
X160440357Y-106023809D01*
X160402261Y-105985714D01*
X161202261Y-105528571D02*
X161202261Y-106328571D01*
X161202261Y-105566666D02*
X161278452Y-105528571D01*
X161430833Y-105528571D01*
X161507023Y-105566666D01*
X161545119Y-105604761D01*
X161583214Y-105680952D01*
X161583214Y-105909523D01*
X161545119Y-105985714D01*
X161507023Y-106023809D01*
X161430833Y-106061904D01*
X161278452Y-106061904D01*
X161202261Y-106023809D01*
X161926071Y-105528571D02*
X161926071Y-106328571D01*
X161926071Y-105566666D02*
X162002261Y-105528571D01*
X162154642Y-105528571D01*
X162230833Y-105566666D01*
X162268928Y-105604761D01*
X162307023Y-105680952D01*
X162307023Y-105909523D01*
X162268928Y-105985714D01*
X162230833Y-106023809D01*
X162154642Y-106061904D01*
X162002261Y-106061904D01*
X161926071Y-106023809D01*
X162649880Y-106061904D02*
X162649880Y-105528571D01*
X162649880Y-105604761D02*
X162687976Y-105566666D01*
X162764166Y-105528571D01*
X162878452Y-105528571D01*
X162954642Y-105566666D01*
X162992738Y-105642857D01*
X162992738Y-106061904D01*
X162992738Y-105642857D02*
X163030833Y-105566666D01*
X163107023Y-105528571D01*
X163221309Y-105528571D01*
X163297500Y-105566666D01*
X163335595Y-105642857D01*
X163335595Y-106061904D01*
X164287976Y-105223809D02*
X163602261Y-106252380D01*
X164554642Y-106061904D02*
X164554642Y-105261904D01*
X165011785Y-106061904D02*
X164668928Y-105604761D01*
X165011785Y-105261904D02*
X164554642Y-105719047D01*
X165964166Y-106061904D02*
X165964166Y-105528571D01*
X165964166Y-105604761D02*
X166002261Y-105566666D01*
X166078452Y-105528571D01*
X166192738Y-105528571D01*
X166268928Y-105566666D01*
X166307023Y-105642857D01*
X166307023Y-106061904D01*
X166307023Y-105642857D02*
X166345119Y-105566666D01*
X166421309Y-105528571D01*
X166535595Y-105528571D01*
X166611785Y-105566666D01*
X166649880Y-105642857D01*
X166649880Y-106061904D01*
X167373690Y-106061904D02*
X167373690Y-105642857D01*
X167335595Y-105566666D01*
X167259404Y-105528571D01*
X167107023Y-105528571D01*
X167030833Y-105566666D01*
X167373690Y-106023809D02*
X167297500Y-106061904D01*
X167107023Y-106061904D01*
X167030833Y-106023809D01*
X166992738Y-105947619D01*
X166992738Y-105871428D01*
X167030833Y-105795238D01*
X167107023Y-105757142D01*
X167297500Y-105757142D01*
X167373690Y-105719047D01*
X167678452Y-106061904D02*
X168097500Y-105528571D01*
X167678452Y-105528571D02*
X168097500Y-106061904D01*
X168402261Y-105985714D02*
X168440357Y-106023809D01*
X168402261Y-106061904D01*
X168364166Y-106023809D01*
X168402261Y-105985714D01*
X168402261Y-106061904D01*
X170676190Y-90961904D02*
X170676190Y-90161904D01*
X170942857Y-90428571D02*
X171247619Y-90428571D01*
X171057142Y-90161904D02*
X171057142Y-90847619D01*
X171095238Y-90923809D01*
X171171428Y-90961904D01*
X171247619Y-90961904D01*
X171514285Y-90657142D02*
X172123809Y-90657142D01*
X171819047Y-90961904D02*
X171819047Y-90352380D01*
X170776190Y-84261904D02*
X170776190Y-83461904D01*
X171042857Y-83728571D02*
X171347619Y-83728571D01*
X171157142Y-83461904D02*
X171157142Y-84147619D01*
X171195238Y-84223809D01*
X171271428Y-84261904D01*
X171347619Y-84261904D01*
X171614285Y-83957142D02*
X172223809Y-83957142D01*
X178390476Y-83600000D02*
X178314285Y-83561904D01*
X178200000Y-83561904D01*
X178085714Y-83600000D01*
X178009523Y-83676190D01*
X177971428Y-83752380D01*
X177933333Y-83904761D01*
X177933333Y-84019047D01*
X177971428Y-84171428D01*
X178009523Y-84247619D01*
X178085714Y-84323809D01*
X178200000Y-84361904D01*
X178276190Y-84361904D01*
X178390476Y-84323809D01*
X178428571Y-84285714D01*
X178428571Y-84019047D01*
X178276190Y-84019047D01*
X178771428Y-84361904D02*
X178771428Y-83561904D01*
X179228571Y-84361904D01*
X179228571Y-83561904D01*
X179609523Y-84361904D02*
X179609523Y-83561904D01*
X179800000Y-83561904D01*
X179914285Y-83600000D01*
X179990476Y-83676190D01*
X180028571Y-83752380D01*
X180066666Y-83904761D01*
X180066666Y-84019047D01*
X180028571Y-84171428D01*
X179990476Y-84247619D01*
X179914285Y-84323809D01*
X179800000Y-84361904D01*
X179609523Y-84361904D01*
X175214285Y-90161904D02*
X175480952Y-90961904D01*
X175747619Y-90161904D01*
X175938095Y-90428571D02*
X176357142Y-90428571D01*
X175938095Y-90961904D01*
X176357142Y-90961904D01*
X176661904Y-90657142D02*
X177271428Y-90657142D01*
X176966666Y-90961904D02*
X176966666Y-90352380D01*
X175514285Y-83461904D02*
X175780952Y-84261904D01*
X176047619Y-83461904D01*
X176238095Y-83728571D02*
X176657142Y-83728571D01*
X176238095Y-84261904D01*
X176657142Y-84261904D01*
X176961904Y-83957142D02*
X177571428Y-83957142D01*
X173238095Y-90161904D02*
X173504761Y-90961904D01*
X173771428Y-90161904D01*
X174038095Y-90657142D02*
X174647619Y-90657142D01*
X174342857Y-90961904D02*
X174342857Y-90352380D01*
X173488095Y-83461904D02*
X173754761Y-84261904D01*
X174021428Y-83461904D01*
X174288095Y-83957142D02*
X174897619Y-83957142D01*
D11*
G04 #@! TO.C,LOGO1*
G36*
X152203910Y-102542348D02*
X152282454Y-102542778D01*
X152339298Y-102543942D01*
X152378105Y-102546207D01*
X152402538Y-102549940D01*
X152416262Y-102555506D01*
X152422940Y-102563273D01*
X152426236Y-102573605D01*
X152426556Y-102574943D01*
X152431562Y-102599079D01*
X152440829Y-102646701D01*
X152453392Y-102712741D01*
X152468287Y-102792128D01*
X152484551Y-102879796D01*
X152485119Y-102882875D01*
X152501410Y-102968789D01*
X152516652Y-103044696D01*
X152529861Y-103106045D01*
X152540054Y-103148282D01*
X152546248Y-103166855D01*
X152546543Y-103167184D01*
X152564788Y-103176253D01*
X152602405Y-103191367D01*
X152651271Y-103209262D01*
X152651543Y-103209358D01*
X152713093Y-103232493D01*
X152785657Y-103261965D01*
X152854057Y-103291597D01*
X152857294Y-103293062D01*
X152968702Y-103343626D01*
X153215399Y-103175160D01*
X153291077Y-103123803D01*
X153359631Y-103077889D01*
X153417088Y-103040030D01*
X153459476Y-103012837D01*
X153482825Y-102998921D01*
X153485042Y-102997889D01*
X153502010Y-103002484D01*
X153533701Y-103024655D01*
X153581352Y-103065447D01*
X153646198Y-103125905D01*
X153712397Y-103190227D01*
X153776214Y-103253612D01*
X153833329Y-103311451D01*
X153880305Y-103360175D01*
X153913703Y-103396210D01*
X153930085Y-103415984D01*
X153930694Y-103417002D01*
X153932505Y-103430572D01*
X153925683Y-103452733D01*
X153908540Y-103486478D01*
X153879393Y-103534800D01*
X153836555Y-103600692D01*
X153779448Y-103685517D01*
X153728766Y-103760177D01*
X153683461Y-103827140D01*
X153646150Y-103882516D01*
X153619452Y-103922420D01*
X153605985Y-103942962D01*
X153605137Y-103944356D01*
X153606781Y-103964038D01*
X153619245Y-104002293D01*
X153640048Y-104051889D01*
X153647462Y-104067728D01*
X153679814Y-104138290D01*
X153714328Y-104218353D01*
X153742365Y-104287629D01*
X153762568Y-104339045D01*
X153778615Y-104378119D01*
X153787888Y-104398541D01*
X153789041Y-104400114D01*
X153806096Y-104402721D01*
X153846298Y-104409863D01*
X153904302Y-104420523D01*
X153974763Y-104433685D01*
X154052335Y-104448333D01*
X154131672Y-104463449D01*
X154207431Y-104478018D01*
X154274264Y-104491022D01*
X154326828Y-104501445D01*
X154359776Y-104508270D01*
X154367857Y-104510199D01*
X154376205Y-104514962D01*
X154382506Y-104525718D01*
X154387045Y-104546098D01*
X154390104Y-104579734D01*
X154391967Y-104630255D01*
X154392918Y-104701292D01*
X154393240Y-104796476D01*
X154393257Y-104835492D01*
X154393257Y-105152799D01*
X154317057Y-105167839D01*
X154274663Y-105175995D01*
X154211400Y-105187899D01*
X154134962Y-105202116D01*
X154053043Y-105217210D01*
X154030400Y-105221355D01*
X153954806Y-105236053D01*
X153888953Y-105250505D01*
X153838366Y-105263375D01*
X153808574Y-105273322D01*
X153803612Y-105276287D01*
X153791426Y-105297283D01*
X153773953Y-105337967D01*
X153754577Y-105390322D01*
X153750734Y-105401600D01*
X153725339Y-105471523D01*
X153693817Y-105550418D01*
X153662969Y-105621266D01*
X153662817Y-105621595D01*
X153611447Y-105732733D01*
X153780399Y-105981253D01*
X153949352Y-106229772D01*
X153732429Y-106447058D01*
X153666819Y-106511726D01*
X153606979Y-106568733D01*
X153556267Y-106615033D01*
X153518046Y-106647584D01*
X153495675Y-106663343D01*
X153492466Y-106664343D01*
X153473626Y-106656469D01*
X153435180Y-106634578D01*
X153381330Y-106601267D01*
X153316276Y-106559131D01*
X153245940Y-106511943D01*
X153174555Y-106463810D01*
X153110908Y-106421928D01*
X153059041Y-106388871D01*
X153022995Y-106367218D01*
X153006867Y-106359543D01*
X152987189Y-106366037D01*
X152949875Y-106383150D01*
X152902621Y-106407326D01*
X152897612Y-106410013D01*
X152833977Y-106441927D01*
X152790341Y-106457579D01*
X152763202Y-106457745D01*
X152749057Y-106443204D01*
X152748975Y-106443000D01*
X152741905Y-106425779D01*
X152725042Y-106384899D01*
X152699695Y-106323525D01*
X152667171Y-106244819D01*
X152628778Y-106151947D01*
X152585822Y-106048072D01*
X152544222Y-105947502D01*
X152498504Y-105836516D01*
X152456526Y-105733703D01*
X152419548Y-105642215D01*
X152388827Y-105565201D01*
X152365622Y-105505815D01*
X152351190Y-105467209D01*
X152346743Y-105452800D01*
X152357896Y-105436272D01*
X152387069Y-105409930D01*
X152425971Y-105380887D01*
X152536757Y-105289039D01*
X152623351Y-105183759D01*
X152684716Y-105067266D01*
X152719815Y-104941776D01*
X152727608Y-104809507D01*
X152721943Y-104748457D01*
X152691078Y-104621795D01*
X152637920Y-104509941D01*
X152565767Y-104414001D01*
X152477917Y-104335076D01*
X152377665Y-104274270D01*
X152268310Y-104232687D01*
X152153147Y-104211428D01*
X152035475Y-104211599D01*
X151918590Y-104234301D01*
X151805789Y-104280638D01*
X151700369Y-104351713D01*
X151656368Y-104391911D01*
X151571979Y-104495129D01*
X151513222Y-104607925D01*
X151479704Y-104727010D01*
X151471035Y-104849095D01*
X151486823Y-104970893D01*
X151526678Y-105089116D01*
X151590207Y-105200475D01*
X151677021Y-105301684D01*
X151774029Y-105380887D01*
X151814437Y-105411162D01*
X151842982Y-105437219D01*
X151853257Y-105452825D01*
X151847877Y-105469843D01*
X151832575Y-105510500D01*
X151808612Y-105571642D01*
X151777244Y-105650119D01*
X151739732Y-105742780D01*
X151697333Y-105846472D01*
X151655663Y-105947526D01*
X151609690Y-106058607D01*
X151567107Y-106161541D01*
X151529221Y-106253165D01*
X151497340Y-106330316D01*
X151472771Y-106389831D01*
X151456820Y-106428544D01*
X151450910Y-106443000D01*
X151436948Y-106457685D01*
X151409940Y-106457642D01*
X151366413Y-106442099D01*
X151302890Y-106410284D01*
X151302388Y-106410013D01*
X151254560Y-106385323D01*
X151215897Y-106367338D01*
X151194095Y-106359614D01*
X151193133Y-106359543D01*
X151176721Y-106367378D01*
X151140487Y-106389165D01*
X151088474Y-106422328D01*
X151024725Y-106464291D01*
X150954060Y-106511943D01*
X150882116Y-106560191D01*
X150817274Y-106602151D01*
X150763735Y-106635227D01*
X150725697Y-106656821D01*
X150707533Y-106664343D01*
X150690808Y-106654457D01*
X150657180Y-106626826D01*
X150610010Y-106584495D01*
X150552658Y-106530505D01*
X150488484Y-106467899D01*
X150467497Y-106446983D01*
X150250499Y-106229623D01*
X150415668Y-105987220D01*
X150465864Y-105912781D01*
X150509919Y-105845972D01*
X150545362Y-105790665D01*
X150569719Y-105750729D01*
X150580522Y-105730036D01*
X150580838Y-105728563D01*
X150575143Y-105709058D01*
X150559826Y-105669822D01*
X150537537Y-105617430D01*
X150521893Y-105582355D01*
X150492641Y-105515201D01*
X150465094Y-105447358D01*
X150443737Y-105390034D01*
X150437935Y-105372572D01*
X150421452Y-105325938D01*
X150405340Y-105289905D01*
X150396490Y-105276287D01*
X150376960Y-105267952D01*
X150334334Y-105256137D01*
X150274145Y-105242181D01*
X150201922Y-105227422D01*
X150169600Y-105221355D01*
X150087522Y-105206273D01*
X150008795Y-105191669D01*
X149941109Y-105178980D01*
X149892160Y-105169642D01*
X149882943Y-105167839D01*
X149806743Y-105152799D01*
X149806743Y-104835492D01*
X149806914Y-104731154D01*
X149807616Y-104652213D01*
X149809134Y-104595038D01*
X149811749Y-104555999D01*
X149815746Y-104531465D01*
X149821409Y-104517805D01*
X149829020Y-104511389D01*
X149832143Y-104510199D01*
X149850978Y-104505980D01*
X149892588Y-104497562D01*
X149951630Y-104485961D01*
X150022757Y-104472195D01*
X150100625Y-104457280D01*
X150179887Y-104442232D01*
X150255198Y-104428069D01*
X150321213Y-104415806D01*
X150372587Y-104406461D01*
X150403975Y-104401050D01*
X150410959Y-104400114D01*
X150417285Y-104387596D01*
X150431290Y-104354246D01*
X150450355Y-104306377D01*
X150457634Y-104287629D01*
X150486996Y-104215195D01*
X150521571Y-104135170D01*
X150552537Y-104067728D01*
X150575323Y-104016159D01*
X150590482Y-103973785D01*
X150595542Y-103947834D01*
X150594736Y-103944356D01*
X150584041Y-103927936D01*
X150559620Y-103891417D01*
X150524095Y-103838687D01*
X150480087Y-103773635D01*
X150430217Y-103700151D01*
X150420356Y-103685645D01*
X150362492Y-103599704D01*
X150319956Y-103534261D01*
X150291054Y-103486304D01*
X150274090Y-103452820D01*
X150267367Y-103430795D01*
X150269190Y-103417217D01*
X150269236Y-103417131D01*
X150283586Y-103399297D01*
X150315323Y-103364817D01*
X150361010Y-103317268D01*
X150417204Y-103260222D01*
X150480468Y-103197255D01*
X150487602Y-103190227D01*
X150567330Y-103113020D01*
X150628857Y-103056330D01*
X150673421Y-103019110D01*
X150702257Y-103000315D01*
X150714958Y-102997889D01*
X150733494Y-103008471D01*
X150771961Y-103032916D01*
X150826386Y-103068612D01*
X150892798Y-103112947D01*
X150967225Y-103163311D01*
X150984601Y-103175160D01*
X151231297Y-103343626D01*
X151342706Y-103293062D01*
X151410457Y-103263595D01*
X151483183Y-103233959D01*
X151545703Y-103210330D01*
X151548457Y-103209358D01*
X151597360Y-103191457D01*
X151635057Y-103176320D01*
X151653425Y-103167210D01*
X151653456Y-103167184D01*
X151659285Y-103150717D01*
X151669192Y-103110219D01*
X151682195Y-103050242D01*
X151697309Y-102975340D01*
X151713552Y-102890064D01*
X151714881Y-102882875D01*
X151731175Y-102795014D01*
X151746133Y-102715260D01*
X151758791Y-102648681D01*
X151768186Y-102600347D01*
X151773354Y-102575325D01*
X151773444Y-102574943D01*
X151776589Y-102564299D01*
X151782704Y-102556262D01*
X151795453Y-102550467D01*
X151818500Y-102546547D01*
X151855509Y-102544135D01*
X151910144Y-102542865D01*
X151986067Y-102542371D01*
X152086944Y-102542286D01*
X152100000Y-102542286D01*
X152203910Y-102542348D01*
X152203910Y-102542348D01*
G37*
X152203910Y-102542348D02*
X152282454Y-102542778D01*
X152339298Y-102543942D01*
X152378105Y-102546207D01*
X152402538Y-102549940D01*
X152416262Y-102555506D01*
X152422940Y-102563273D01*
X152426236Y-102573605D01*
X152426556Y-102574943D01*
X152431562Y-102599079D01*
X152440829Y-102646701D01*
X152453392Y-102712741D01*
X152468287Y-102792128D01*
X152484551Y-102879796D01*
X152485119Y-102882875D01*
X152501410Y-102968789D01*
X152516652Y-103044696D01*
X152529861Y-103106045D01*
X152540054Y-103148282D01*
X152546248Y-103166855D01*
X152546543Y-103167184D01*
X152564788Y-103176253D01*
X152602405Y-103191367D01*
X152651271Y-103209262D01*
X152651543Y-103209358D01*
X152713093Y-103232493D01*
X152785657Y-103261965D01*
X152854057Y-103291597D01*
X152857294Y-103293062D01*
X152968702Y-103343626D01*
X153215399Y-103175160D01*
X153291077Y-103123803D01*
X153359631Y-103077889D01*
X153417088Y-103040030D01*
X153459476Y-103012837D01*
X153482825Y-102998921D01*
X153485042Y-102997889D01*
X153502010Y-103002484D01*
X153533701Y-103024655D01*
X153581352Y-103065447D01*
X153646198Y-103125905D01*
X153712397Y-103190227D01*
X153776214Y-103253612D01*
X153833329Y-103311451D01*
X153880305Y-103360175D01*
X153913703Y-103396210D01*
X153930085Y-103415984D01*
X153930694Y-103417002D01*
X153932505Y-103430572D01*
X153925683Y-103452733D01*
X153908540Y-103486478D01*
X153879393Y-103534800D01*
X153836555Y-103600692D01*
X153779448Y-103685517D01*
X153728766Y-103760177D01*
X153683461Y-103827140D01*
X153646150Y-103882516D01*
X153619452Y-103922420D01*
X153605985Y-103942962D01*
X153605137Y-103944356D01*
X153606781Y-103964038D01*
X153619245Y-104002293D01*
X153640048Y-104051889D01*
X153647462Y-104067728D01*
X153679814Y-104138290D01*
X153714328Y-104218353D01*
X153742365Y-104287629D01*
X153762568Y-104339045D01*
X153778615Y-104378119D01*
X153787888Y-104398541D01*
X153789041Y-104400114D01*
X153806096Y-104402721D01*
X153846298Y-104409863D01*
X153904302Y-104420523D01*
X153974763Y-104433685D01*
X154052335Y-104448333D01*
X154131672Y-104463449D01*
X154207431Y-104478018D01*
X154274264Y-104491022D01*
X154326828Y-104501445D01*
X154359776Y-104508270D01*
X154367857Y-104510199D01*
X154376205Y-104514962D01*
X154382506Y-104525718D01*
X154387045Y-104546098D01*
X154390104Y-104579734D01*
X154391967Y-104630255D01*
X154392918Y-104701292D01*
X154393240Y-104796476D01*
X154393257Y-104835492D01*
X154393257Y-105152799D01*
X154317057Y-105167839D01*
X154274663Y-105175995D01*
X154211400Y-105187899D01*
X154134962Y-105202116D01*
X154053043Y-105217210D01*
X154030400Y-105221355D01*
X153954806Y-105236053D01*
X153888953Y-105250505D01*
X153838366Y-105263375D01*
X153808574Y-105273322D01*
X153803612Y-105276287D01*
X153791426Y-105297283D01*
X153773953Y-105337967D01*
X153754577Y-105390322D01*
X153750734Y-105401600D01*
X153725339Y-105471523D01*
X153693817Y-105550418D01*
X153662969Y-105621266D01*
X153662817Y-105621595D01*
X153611447Y-105732733D01*
X153780399Y-105981253D01*
X153949352Y-106229772D01*
X153732429Y-106447058D01*
X153666819Y-106511726D01*
X153606979Y-106568733D01*
X153556267Y-106615033D01*
X153518046Y-106647584D01*
X153495675Y-106663343D01*
X153492466Y-106664343D01*
X153473626Y-106656469D01*
X153435180Y-106634578D01*
X153381330Y-106601267D01*
X153316276Y-106559131D01*
X153245940Y-106511943D01*
X153174555Y-106463810D01*
X153110908Y-106421928D01*
X153059041Y-106388871D01*
X153022995Y-106367218D01*
X153006867Y-106359543D01*
X152987189Y-106366037D01*
X152949875Y-106383150D01*
X152902621Y-106407326D01*
X152897612Y-106410013D01*
X152833977Y-106441927D01*
X152790341Y-106457579D01*
X152763202Y-106457745D01*
X152749057Y-106443204D01*
X152748975Y-106443000D01*
X152741905Y-106425779D01*
X152725042Y-106384899D01*
X152699695Y-106323525D01*
X152667171Y-106244819D01*
X152628778Y-106151947D01*
X152585822Y-106048072D01*
X152544222Y-105947502D01*
X152498504Y-105836516D01*
X152456526Y-105733703D01*
X152419548Y-105642215D01*
X152388827Y-105565201D01*
X152365622Y-105505815D01*
X152351190Y-105467209D01*
X152346743Y-105452800D01*
X152357896Y-105436272D01*
X152387069Y-105409930D01*
X152425971Y-105380887D01*
X152536757Y-105289039D01*
X152623351Y-105183759D01*
X152684716Y-105067266D01*
X152719815Y-104941776D01*
X152727608Y-104809507D01*
X152721943Y-104748457D01*
X152691078Y-104621795D01*
X152637920Y-104509941D01*
X152565767Y-104414001D01*
X152477917Y-104335076D01*
X152377665Y-104274270D01*
X152268310Y-104232687D01*
X152153147Y-104211428D01*
X152035475Y-104211599D01*
X151918590Y-104234301D01*
X151805789Y-104280638D01*
X151700369Y-104351713D01*
X151656368Y-104391911D01*
X151571979Y-104495129D01*
X151513222Y-104607925D01*
X151479704Y-104727010D01*
X151471035Y-104849095D01*
X151486823Y-104970893D01*
X151526678Y-105089116D01*
X151590207Y-105200475D01*
X151677021Y-105301684D01*
X151774029Y-105380887D01*
X151814437Y-105411162D01*
X151842982Y-105437219D01*
X151853257Y-105452825D01*
X151847877Y-105469843D01*
X151832575Y-105510500D01*
X151808612Y-105571642D01*
X151777244Y-105650119D01*
X151739732Y-105742780D01*
X151697333Y-105846472D01*
X151655663Y-105947526D01*
X151609690Y-106058607D01*
X151567107Y-106161541D01*
X151529221Y-106253165D01*
X151497340Y-106330316D01*
X151472771Y-106389831D01*
X151456820Y-106428544D01*
X151450910Y-106443000D01*
X151436948Y-106457685D01*
X151409940Y-106457642D01*
X151366413Y-106442099D01*
X151302890Y-106410284D01*
X151302388Y-106410013D01*
X151254560Y-106385323D01*
X151215897Y-106367338D01*
X151194095Y-106359614D01*
X151193133Y-106359543D01*
X151176721Y-106367378D01*
X151140487Y-106389165D01*
X151088474Y-106422328D01*
X151024725Y-106464291D01*
X150954060Y-106511943D01*
X150882116Y-106560191D01*
X150817274Y-106602151D01*
X150763735Y-106635227D01*
X150725697Y-106656821D01*
X150707533Y-106664343D01*
X150690808Y-106654457D01*
X150657180Y-106626826D01*
X150610010Y-106584495D01*
X150552658Y-106530505D01*
X150488484Y-106467899D01*
X150467497Y-106446983D01*
X150250499Y-106229623D01*
X150415668Y-105987220D01*
X150465864Y-105912781D01*
X150509919Y-105845972D01*
X150545362Y-105790665D01*
X150569719Y-105750729D01*
X150580522Y-105730036D01*
X150580838Y-105728563D01*
X150575143Y-105709058D01*
X150559826Y-105669822D01*
X150537537Y-105617430D01*
X150521893Y-105582355D01*
X150492641Y-105515201D01*
X150465094Y-105447358D01*
X150443737Y-105390034D01*
X150437935Y-105372572D01*
X150421452Y-105325938D01*
X150405340Y-105289905D01*
X150396490Y-105276287D01*
X150376960Y-105267952D01*
X150334334Y-105256137D01*
X150274145Y-105242181D01*
X150201922Y-105227422D01*
X150169600Y-105221355D01*
X150087522Y-105206273D01*
X150008795Y-105191669D01*
X149941109Y-105178980D01*
X149892160Y-105169642D01*
X149882943Y-105167839D01*
X149806743Y-105152799D01*
X149806743Y-104835492D01*
X149806914Y-104731154D01*
X149807616Y-104652213D01*
X149809134Y-104595038D01*
X149811749Y-104555999D01*
X149815746Y-104531465D01*
X149821409Y-104517805D01*
X149829020Y-104511389D01*
X149832143Y-104510199D01*
X149850978Y-104505980D01*
X149892588Y-104497562D01*
X149951630Y-104485961D01*
X150022757Y-104472195D01*
X150100625Y-104457280D01*
X150179887Y-104442232D01*
X150255198Y-104428069D01*
X150321213Y-104415806D01*
X150372587Y-104406461D01*
X150403975Y-104401050D01*
X150410959Y-104400114D01*
X150417285Y-104387596D01*
X150431290Y-104354246D01*
X150450355Y-104306377D01*
X150457634Y-104287629D01*
X150486996Y-104215195D01*
X150521571Y-104135170D01*
X150552537Y-104067728D01*
X150575323Y-104016159D01*
X150590482Y-103973785D01*
X150595542Y-103947834D01*
X150594736Y-103944356D01*
X150584041Y-103927936D01*
X150559620Y-103891417D01*
X150524095Y-103838687D01*
X150480087Y-103773635D01*
X150430217Y-103700151D01*
X150420356Y-103685645D01*
X150362492Y-103599704D01*
X150319956Y-103534261D01*
X150291054Y-103486304D01*
X150274090Y-103452820D01*
X150267367Y-103430795D01*
X150269190Y-103417217D01*
X150269236Y-103417131D01*
X150283586Y-103399297D01*
X150315323Y-103364817D01*
X150361010Y-103317268D01*
X150417204Y-103260222D01*
X150480468Y-103197255D01*
X150487602Y-103190227D01*
X150567330Y-103113020D01*
X150628857Y-103056330D01*
X150673421Y-103019110D01*
X150702257Y-103000315D01*
X150714958Y-102997889D01*
X150733494Y-103008471D01*
X150771961Y-103032916D01*
X150826386Y-103068612D01*
X150892798Y-103112947D01*
X150967225Y-103163311D01*
X150984601Y-103175160D01*
X151231297Y-103343626D01*
X151342706Y-103293062D01*
X151410457Y-103263595D01*
X151483183Y-103233959D01*
X151545703Y-103210330D01*
X151548457Y-103209358D01*
X151597360Y-103191457D01*
X151635057Y-103176320D01*
X151653425Y-103167210D01*
X151653456Y-103167184D01*
X151659285Y-103150717D01*
X151669192Y-103110219D01*
X151682195Y-103050242D01*
X151697309Y-102975340D01*
X151713552Y-102890064D01*
X151714881Y-102882875D01*
X151731175Y-102795014D01*
X151746133Y-102715260D01*
X151758791Y-102648681D01*
X151768186Y-102600347D01*
X151773354Y-102575325D01*
X151773444Y-102574943D01*
X151776589Y-102564299D01*
X151782704Y-102556262D01*
X151795453Y-102550467D01*
X151818500Y-102546547D01*
X151855509Y-102544135D01*
X151910144Y-102542865D01*
X151986067Y-102542371D01*
X152086944Y-102542286D01*
X152100000Y-102542286D01*
X152203910Y-102542348D01*
G36*
X155253595Y-107266966D02*
X155311021Y-107304497D01*
X155338719Y-107338096D01*
X155360662Y-107399064D01*
X155362405Y-107447308D01*
X155358457Y-107511816D01*
X155209686Y-107576934D01*
X155137349Y-107610202D01*
X155090084Y-107636964D01*
X155065507Y-107660144D01*
X155061237Y-107682667D01*
X155074889Y-107707455D01*
X155089943Y-107723886D01*
X155133746Y-107750235D01*
X155181389Y-107752081D01*
X155225145Y-107731546D01*
X155257289Y-107690752D01*
X155263038Y-107676347D01*
X155290576Y-107631356D01*
X155322258Y-107612182D01*
X155365714Y-107595779D01*
X155365714Y-107657966D01*
X155361872Y-107700283D01*
X155346823Y-107735969D01*
X155315280Y-107776943D01*
X155310592Y-107782267D01*
X155275506Y-107818720D01*
X155245347Y-107838283D01*
X155207615Y-107847283D01*
X155176335Y-107850230D01*
X155120385Y-107850965D01*
X155080555Y-107841660D01*
X155055708Y-107827846D01*
X155016656Y-107797467D01*
X154989625Y-107764613D01*
X154972517Y-107723294D01*
X154963238Y-107667521D01*
X154959693Y-107591305D01*
X154959410Y-107552622D01*
X154960372Y-107506247D01*
X155048007Y-107506247D01*
X155049023Y-107531126D01*
X155051556Y-107535200D01*
X155068274Y-107529665D01*
X155104249Y-107515017D01*
X155152331Y-107494190D01*
X155162386Y-107489714D01*
X155223152Y-107458814D01*
X155256632Y-107431657D01*
X155263990Y-107406220D01*
X155246391Y-107380481D01*
X155231856Y-107369109D01*
X155179410Y-107346364D01*
X155130322Y-107350122D01*
X155089227Y-107377884D01*
X155060758Y-107427152D01*
X155051631Y-107466257D01*
X155048007Y-107506247D01*
X154960372Y-107506247D01*
X154961285Y-107462249D01*
X154968196Y-107395384D01*
X154981884Y-107346695D01*
X155004096Y-107310849D01*
X155036574Y-107282513D01*
X155050733Y-107273355D01*
X155115053Y-107249507D01*
X155185473Y-107248006D01*
X155253595Y-107266966D01*
X155253595Y-107266966D01*
G37*
X155253595Y-107266966D02*
X155311021Y-107304497D01*
X155338719Y-107338096D01*
X155360662Y-107399064D01*
X155362405Y-107447308D01*
X155358457Y-107511816D01*
X155209686Y-107576934D01*
X155137349Y-107610202D01*
X155090084Y-107636964D01*
X155065507Y-107660144D01*
X155061237Y-107682667D01*
X155074889Y-107707455D01*
X155089943Y-107723886D01*
X155133746Y-107750235D01*
X155181389Y-107752081D01*
X155225145Y-107731546D01*
X155257289Y-107690752D01*
X155263038Y-107676347D01*
X155290576Y-107631356D01*
X155322258Y-107612182D01*
X155365714Y-107595779D01*
X155365714Y-107657966D01*
X155361872Y-107700283D01*
X155346823Y-107735969D01*
X155315280Y-107776943D01*
X155310592Y-107782267D01*
X155275506Y-107818720D01*
X155245347Y-107838283D01*
X155207615Y-107847283D01*
X155176335Y-107850230D01*
X155120385Y-107850965D01*
X155080555Y-107841660D01*
X155055708Y-107827846D01*
X155016656Y-107797467D01*
X154989625Y-107764613D01*
X154972517Y-107723294D01*
X154963238Y-107667521D01*
X154959693Y-107591305D01*
X154959410Y-107552622D01*
X154960372Y-107506247D01*
X155048007Y-107506247D01*
X155049023Y-107531126D01*
X155051556Y-107535200D01*
X155068274Y-107529665D01*
X155104249Y-107515017D01*
X155152331Y-107494190D01*
X155162386Y-107489714D01*
X155223152Y-107458814D01*
X155256632Y-107431657D01*
X155263990Y-107406220D01*
X155246391Y-107380481D01*
X155231856Y-107369109D01*
X155179410Y-107346364D01*
X155130322Y-107350122D01*
X155089227Y-107377884D01*
X155060758Y-107427152D01*
X155051631Y-107466257D01*
X155048007Y-107506247D01*
X154960372Y-107506247D01*
X154961285Y-107462249D01*
X154968196Y-107395384D01*
X154981884Y-107346695D01*
X155004096Y-107310849D01*
X155036574Y-107282513D01*
X155050733Y-107273355D01*
X155115053Y-107249507D01*
X155185473Y-107248006D01*
X155253595Y-107266966D01*
G36*
X154752600Y-107258752D02*
X154769948Y-107266334D01*
X154811356Y-107299128D01*
X154846765Y-107346547D01*
X154868664Y-107397151D01*
X154872229Y-107422098D01*
X154860279Y-107456927D01*
X154834067Y-107475357D01*
X154805964Y-107486516D01*
X154793095Y-107488572D01*
X154786829Y-107473649D01*
X154774456Y-107441175D01*
X154769028Y-107426502D01*
X154738590Y-107375744D01*
X154694520Y-107350427D01*
X154638010Y-107351206D01*
X154633825Y-107352203D01*
X154603655Y-107366507D01*
X154581476Y-107394393D01*
X154566327Y-107439287D01*
X154557250Y-107504615D01*
X154553286Y-107593804D01*
X154552914Y-107641261D01*
X154552730Y-107716071D01*
X154551522Y-107767069D01*
X154548309Y-107799471D01*
X154542109Y-107818495D01*
X154531940Y-107829356D01*
X154516819Y-107837272D01*
X154515946Y-107837670D01*
X154486828Y-107849981D01*
X154472403Y-107854514D01*
X154470186Y-107840809D01*
X154468289Y-107802925D01*
X154466847Y-107745715D01*
X154465998Y-107674027D01*
X154465829Y-107621565D01*
X154466692Y-107520047D01*
X154470070Y-107443032D01*
X154477142Y-107386023D01*
X154489088Y-107344526D01*
X154507090Y-107314043D01*
X154532327Y-107290080D01*
X154557247Y-107273355D01*
X154617171Y-107251097D01*
X154686911Y-107246076D01*
X154752600Y-107258752D01*
X154752600Y-107258752D01*
G37*
X154752600Y-107258752D02*
X154769948Y-107266334D01*
X154811356Y-107299128D01*
X154846765Y-107346547D01*
X154868664Y-107397151D01*
X154872229Y-107422098D01*
X154860279Y-107456927D01*
X154834067Y-107475357D01*
X154805964Y-107486516D01*
X154793095Y-107488572D01*
X154786829Y-107473649D01*
X154774456Y-107441175D01*
X154769028Y-107426502D01*
X154738590Y-107375744D01*
X154694520Y-107350427D01*
X154638010Y-107351206D01*
X154633825Y-107352203D01*
X154603655Y-107366507D01*
X154581476Y-107394393D01*
X154566327Y-107439287D01*
X154557250Y-107504615D01*
X154553286Y-107593804D01*
X154552914Y-107641261D01*
X154552730Y-107716071D01*
X154551522Y-107767069D01*
X154548309Y-107799471D01*
X154542109Y-107818495D01*
X154531940Y-107829356D01*
X154516819Y-107837272D01*
X154515946Y-107837670D01*
X154486828Y-107849981D01*
X154472403Y-107854514D01*
X154470186Y-107840809D01*
X154468289Y-107802925D01*
X154466847Y-107745715D01*
X154465998Y-107674027D01*
X154465829Y-107621565D01*
X154466692Y-107520047D01*
X154470070Y-107443032D01*
X154477142Y-107386023D01*
X154489088Y-107344526D01*
X154507090Y-107314043D01*
X154532327Y-107290080D01*
X154557247Y-107273355D01*
X154617171Y-107251097D01*
X154686911Y-107246076D01*
X154752600Y-107258752D01*
G36*
X154244876Y-107256335D02*
X154286667Y-107275344D01*
X154319469Y-107298378D01*
X154343503Y-107324133D01*
X154360097Y-107357358D01*
X154370577Y-107402800D01*
X154376271Y-107465207D01*
X154378507Y-107549327D01*
X154378743Y-107604721D01*
X154378743Y-107820826D01*
X154341774Y-107837670D01*
X154312656Y-107849981D01*
X154298231Y-107854514D01*
X154295472Y-107841025D01*
X154293282Y-107804653D01*
X154291942Y-107751542D01*
X154291657Y-107709372D01*
X154290434Y-107648447D01*
X154287136Y-107600115D01*
X154282321Y-107570518D01*
X154278496Y-107564229D01*
X154252783Y-107570652D01*
X154212418Y-107587125D01*
X154165679Y-107609458D01*
X154120845Y-107633457D01*
X154086193Y-107654930D01*
X154070002Y-107669685D01*
X154069938Y-107669845D01*
X154071330Y-107697152D01*
X154083818Y-107723219D01*
X154105743Y-107744392D01*
X154137743Y-107751474D01*
X154165092Y-107750649D01*
X154203826Y-107750042D01*
X154224158Y-107759116D01*
X154236369Y-107783092D01*
X154237909Y-107787613D01*
X154243203Y-107821806D01*
X154229047Y-107842568D01*
X154192148Y-107852462D01*
X154152289Y-107854292D01*
X154080562Y-107840727D01*
X154043432Y-107821355D01*
X153997576Y-107775845D01*
X153973256Y-107719983D01*
X153971073Y-107660957D01*
X153991629Y-107605953D01*
X154022549Y-107571486D01*
X154053420Y-107552189D01*
X154101942Y-107527759D01*
X154158485Y-107502985D01*
X154167910Y-107499199D01*
X154230019Y-107471791D01*
X154265822Y-107447634D01*
X154277337Y-107423619D01*
X154266580Y-107396635D01*
X154248114Y-107375543D01*
X154204469Y-107349572D01*
X154156446Y-107347624D01*
X154112406Y-107367637D01*
X154080709Y-107407551D01*
X154076549Y-107417848D01*
X154052327Y-107455724D01*
X154016965Y-107483842D01*
X153972343Y-107506917D01*
X153972343Y-107441485D01*
X153974969Y-107401506D01*
X153986230Y-107369997D01*
X154011199Y-107336378D01*
X154035169Y-107310484D01*
X154072441Y-107273817D01*
X154101401Y-107254121D01*
X154132505Y-107246220D01*
X154167713Y-107244914D01*
X154244876Y-107256335D01*
X154244876Y-107256335D01*
G37*
X154244876Y-107256335D02*
X154286667Y-107275344D01*
X154319469Y-107298378D01*
X154343503Y-107324133D01*
X154360097Y-107357358D01*
X154370577Y-107402800D01*
X154376271Y-107465207D01*
X154378507Y-107549327D01*
X154378743Y-107604721D01*
X154378743Y-107820826D01*
X154341774Y-107837670D01*
X154312656Y-107849981D01*
X154298231Y-107854514D01*
X154295472Y-107841025D01*
X154293282Y-107804653D01*
X154291942Y-107751542D01*
X154291657Y-107709372D01*
X154290434Y-107648447D01*
X154287136Y-107600115D01*
X154282321Y-107570518D01*
X154278496Y-107564229D01*
X154252783Y-107570652D01*
X154212418Y-107587125D01*
X154165679Y-107609458D01*
X154120845Y-107633457D01*
X154086193Y-107654930D01*
X154070002Y-107669685D01*
X154069938Y-107669845D01*
X154071330Y-107697152D01*
X154083818Y-107723219D01*
X154105743Y-107744392D01*
X154137743Y-107751474D01*
X154165092Y-107750649D01*
X154203826Y-107750042D01*
X154224158Y-107759116D01*
X154236369Y-107783092D01*
X154237909Y-107787613D01*
X154243203Y-107821806D01*
X154229047Y-107842568D01*
X154192148Y-107852462D01*
X154152289Y-107854292D01*
X154080562Y-107840727D01*
X154043432Y-107821355D01*
X153997576Y-107775845D01*
X153973256Y-107719983D01*
X153971073Y-107660957D01*
X153991629Y-107605953D01*
X154022549Y-107571486D01*
X154053420Y-107552189D01*
X154101942Y-107527759D01*
X154158485Y-107502985D01*
X154167910Y-107499199D01*
X154230019Y-107471791D01*
X154265822Y-107447634D01*
X154277337Y-107423619D01*
X154266580Y-107396635D01*
X154248114Y-107375543D01*
X154204469Y-107349572D01*
X154156446Y-107347624D01*
X154112406Y-107367637D01*
X154080709Y-107407551D01*
X154076549Y-107417848D01*
X154052327Y-107455724D01*
X154016965Y-107483842D01*
X153972343Y-107506917D01*
X153972343Y-107441485D01*
X153974969Y-107401506D01*
X153986230Y-107369997D01*
X154011199Y-107336378D01*
X154035169Y-107310484D01*
X154072441Y-107273817D01*
X154101401Y-107254121D01*
X154132505Y-107246220D01*
X154167713Y-107244914D01*
X154244876Y-107256335D01*
G36*
X153879833Y-107258663D02*
X153882048Y-107296850D01*
X153883784Y-107354886D01*
X153884899Y-107428180D01*
X153885257Y-107505055D01*
X153885257Y-107765196D01*
X153839326Y-107811127D01*
X153807675Y-107839429D01*
X153779890Y-107850893D01*
X153741915Y-107850168D01*
X153726840Y-107848321D01*
X153679726Y-107842948D01*
X153640756Y-107839869D01*
X153631257Y-107839585D01*
X153599233Y-107841445D01*
X153553432Y-107846114D01*
X153535674Y-107848321D01*
X153492057Y-107851735D01*
X153462745Y-107844320D01*
X153433680Y-107821427D01*
X153423188Y-107811127D01*
X153377257Y-107765196D01*
X153377257Y-107278602D01*
X153414226Y-107261758D01*
X153446059Y-107249282D01*
X153464683Y-107244914D01*
X153469458Y-107258718D01*
X153473921Y-107297286D01*
X153477775Y-107356356D01*
X153480722Y-107431663D01*
X153482143Y-107495286D01*
X153486114Y-107745657D01*
X153520759Y-107750556D01*
X153552268Y-107747131D01*
X153567708Y-107736041D01*
X153572023Y-107715308D01*
X153575708Y-107671145D01*
X153578469Y-107609146D01*
X153580012Y-107534909D01*
X153580235Y-107496706D01*
X153580457Y-107276783D01*
X153626166Y-107260849D01*
X153658518Y-107250015D01*
X153676115Y-107244962D01*
X153676623Y-107244914D01*
X153678388Y-107258648D01*
X153680329Y-107296730D01*
X153682282Y-107354482D01*
X153684084Y-107427227D01*
X153685343Y-107495286D01*
X153689314Y-107745657D01*
X153776400Y-107745657D01*
X153780396Y-107517240D01*
X153784392Y-107288822D01*
X153826847Y-107266868D01*
X153858192Y-107251793D01*
X153876744Y-107244951D01*
X153877279Y-107244914D01*
X153879833Y-107258663D01*
X153879833Y-107258663D01*
G37*
X153879833Y-107258663D02*
X153882048Y-107296850D01*
X153883784Y-107354886D01*
X153884899Y-107428180D01*
X153885257Y-107505055D01*
X153885257Y-107765196D01*
X153839326Y-107811127D01*
X153807675Y-107839429D01*
X153779890Y-107850893D01*
X153741915Y-107850168D01*
X153726840Y-107848321D01*
X153679726Y-107842948D01*
X153640756Y-107839869D01*
X153631257Y-107839585D01*
X153599233Y-107841445D01*
X153553432Y-107846114D01*
X153535674Y-107848321D01*
X153492057Y-107851735D01*
X153462745Y-107844320D01*
X153433680Y-107821427D01*
X153423188Y-107811127D01*
X153377257Y-107765196D01*
X153377257Y-107278602D01*
X153414226Y-107261758D01*
X153446059Y-107249282D01*
X153464683Y-107244914D01*
X153469458Y-107258718D01*
X153473921Y-107297286D01*
X153477775Y-107356356D01*
X153480722Y-107431663D01*
X153482143Y-107495286D01*
X153486114Y-107745657D01*
X153520759Y-107750556D01*
X153552268Y-107747131D01*
X153567708Y-107736041D01*
X153572023Y-107715308D01*
X153575708Y-107671145D01*
X153578469Y-107609146D01*
X153580012Y-107534909D01*
X153580235Y-107496706D01*
X153580457Y-107276783D01*
X153626166Y-107260849D01*
X153658518Y-107250015D01*
X153676115Y-107244962D01*
X153676623Y-107244914D01*
X153678388Y-107258648D01*
X153680329Y-107296730D01*
X153682282Y-107354482D01*
X153684084Y-107427227D01*
X153685343Y-107495286D01*
X153689314Y-107745657D01*
X153776400Y-107745657D01*
X153780396Y-107517240D01*
X153784392Y-107288822D01*
X153826847Y-107266868D01*
X153858192Y-107251793D01*
X153876744Y-107244951D01*
X153877279Y-107244914D01*
X153879833Y-107258663D01*
G36*
X153290117Y-107365358D02*
X153289933Y-107473837D01*
X153289219Y-107557287D01*
X153287675Y-107619704D01*
X153285001Y-107665085D01*
X153280894Y-107697429D01*
X153275055Y-107720733D01*
X153267182Y-107738995D01*
X153261221Y-107749418D01*
X153211855Y-107805945D01*
X153149264Y-107841377D01*
X153080013Y-107854090D01*
X153010668Y-107842463D01*
X152969375Y-107821568D01*
X152926025Y-107785422D01*
X152896481Y-107741276D01*
X152878655Y-107683462D01*
X152870463Y-107606313D01*
X152869302Y-107549714D01*
X152869458Y-107545647D01*
X152970857Y-107545647D01*
X152971476Y-107610550D01*
X152974314Y-107653514D01*
X152980840Y-107681622D01*
X152992523Y-107701953D01*
X153006483Y-107717288D01*
X153053365Y-107746890D01*
X153103701Y-107749419D01*
X153151276Y-107724705D01*
X153154979Y-107721356D01*
X153170783Y-107703935D01*
X153180693Y-107683209D01*
X153186058Y-107652362D01*
X153188228Y-107604577D01*
X153188571Y-107551748D01*
X153187827Y-107485381D01*
X153184748Y-107441106D01*
X153178061Y-107412009D01*
X153166496Y-107391173D01*
X153157013Y-107380107D01*
X153112960Y-107352198D01*
X153062224Y-107348843D01*
X153013796Y-107370159D01*
X153004450Y-107378073D01*
X152988540Y-107395647D01*
X152978610Y-107416587D01*
X152973278Y-107447782D01*
X152971163Y-107496122D01*
X152970857Y-107545647D01*
X152869458Y-107545647D01*
X152872810Y-107458568D01*
X152884726Y-107390086D01*
X152907135Y-107338600D01*
X152942124Y-107298443D01*
X152969375Y-107277861D01*
X153018907Y-107255625D01*
X153076316Y-107245304D01*
X153129682Y-107248067D01*
X153159543Y-107259212D01*
X153171261Y-107262383D01*
X153179037Y-107250557D01*
X153184465Y-107218866D01*
X153188571Y-107170593D01*
X153193067Y-107116829D01*
X153199313Y-107084482D01*
X153210676Y-107065985D01*
X153230528Y-107053770D01*
X153243000Y-107048362D01*
X153290171Y-107028601D01*
X153290117Y-107365358D01*
X153290117Y-107365358D01*
G37*
X153290117Y-107365358D02*
X153289933Y-107473837D01*
X153289219Y-107557287D01*
X153287675Y-107619704D01*
X153285001Y-107665085D01*
X153280894Y-107697429D01*
X153275055Y-107720733D01*
X153267182Y-107738995D01*
X153261221Y-107749418D01*
X153211855Y-107805945D01*
X153149264Y-107841377D01*
X153080013Y-107854090D01*
X153010668Y-107842463D01*
X152969375Y-107821568D01*
X152926025Y-107785422D01*
X152896481Y-107741276D01*
X152878655Y-107683462D01*
X152870463Y-107606313D01*
X152869302Y-107549714D01*
X152869458Y-107545647D01*
X152970857Y-107545647D01*
X152971476Y-107610550D01*
X152974314Y-107653514D01*
X152980840Y-107681622D01*
X152992523Y-107701953D01*
X153006483Y-107717288D01*
X153053365Y-107746890D01*
X153103701Y-107749419D01*
X153151276Y-107724705D01*
X153154979Y-107721356D01*
X153170783Y-107703935D01*
X153180693Y-107683209D01*
X153186058Y-107652362D01*
X153188228Y-107604577D01*
X153188571Y-107551748D01*
X153187827Y-107485381D01*
X153184748Y-107441106D01*
X153178061Y-107412009D01*
X153166496Y-107391173D01*
X153157013Y-107380107D01*
X153112960Y-107352198D01*
X153062224Y-107348843D01*
X153013796Y-107370159D01*
X153004450Y-107378073D01*
X152988540Y-107395647D01*
X152978610Y-107416587D01*
X152973278Y-107447782D01*
X152971163Y-107496122D01*
X152970857Y-107545647D01*
X152869458Y-107545647D01*
X152872810Y-107458568D01*
X152884726Y-107390086D01*
X152907135Y-107338600D01*
X152942124Y-107298443D01*
X152969375Y-107277861D01*
X153018907Y-107255625D01*
X153076316Y-107245304D01*
X153129682Y-107248067D01*
X153159543Y-107259212D01*
X153171261Y-107262383D01*
X153179037Y-107250557D01*
X153184465Y-107218866D01*
X153188571Y-107170593D01*
X153193067Y-107116829D01*
X153199313Y-107084482D01*
X153210676Y-107065985D01*
X153230528Y-107053770D01*
X153243000Y-107048362D01*
X153290171Y-107028601D01*
X153290117Y-107365358D01*
G36*
X152629926Y-107249755D02*
X152695858Y-107274084D01*
X152749273Y-107317117D01*
X152770164Y-107347409D01*
X152792939Y-107402994D01*
X152792466Y-107443186D01*
X152768562Y-107470217D01*
X152759717Y-107474813D01*
X152721530Y-107489144D01*
X152702028Y-107485472D01*
X152695422Y-107461407D01*
X152695086Y-107448114D01*
X152682992Y-107399210D01*
X152651471Y-107364999D01*
X152607659Y-107348476D01*
X152558695Y-107352634D01*
X152518894Y-107374227D01*
X152505450Y-107386544D01*
X152495921Y-107401487D01*
X152489485Y-107424075D01*
X152485317Y-107459328D01*
X152482597Y-107512266D01*
X152480502Y-107587907D01*
X152479960Y-107611857D01*
X152477981Y-107693790D01*
X152475731Y-107751455D01*
X152472357Y-107789608D01*
X152467006Y-107813004D01*
X152458824Y-107826398D01*
X152446959Y-107834545D01*
X152439362Y-107838144D01*
X152407102Y-107850452D01*
X152388111Y-107854514D01*
X152381836Y-107840948D01*
X152378006Y-107799934D01*
X152376600Y-107730999D01*
X152377598Y-107633669D01*
X152377908Y-107618657D01*
X152380101Y-107529859D01*
X152382693Y-107465019D01*
X152386382Y-107419067D01*
X152391864Y-107386935D01*
X152399835Y-107363553D01*
X152410993Y-107343852D01*
X152416830Y-107335410D01*
X152450296Y-107298057D01*
X152487727Y-107269003D01*
X152492309Y-107266467D01*
X152559426Y-107246443D01*
X152629926Y-107249755D01*
X152629926Y-107249755D01*
G37*
X152629926Y-107249755D02*
X152695858Y-107274084D01*
X152749273Y-107317117D01*
X152770164Y-107347409D01*
X152792939Y-107402994D01*
X152792466Y-107443186D01*
X152768562Y-107470217D01*
X152759717Y-107474813D01*
X152721530Y-107489144D01*
X152702028Y-107485472D01*
X152695422Y-107461407D01*
X152695086Y-107448114D01*
X152682992Y-107399210D01*
X152651471Y-107364999D01*
X152607659Y-107348476D01*
X152558695Y-107352634D01*
X152518894Y-107374227D01*
X152505450Y-107386544D01*
X152495921Y-107401487D01*
X152489485Y-107424075D01*
X152485317Y-107459328D01*
X152482597Y-107512266D01*
X152480502Y-107587907D01*
X152479960Y-107611857D01*
X152477981Y-107693790D01*
X152475731Y-107751455D01*
X152472357Y-107789608D01*
X152467006Y-107813004D01*
X152458824Y-107826398D01*
X152446959Y-107834545D01*
X152439362Y-107838144D01*
X152407102Y-107850452D01*
X152388111Y-107854514D01*
X152381836Y-107840948D01*
X152378006Y-107799934D01*
X152376600Y-107730999D01*
X152377598Y-107633669D01*
X152377908Y-107618657D01*
X152380101Y-107529859D01*
X152382693Y-107465019D01*
X152386382Y-107419067D01*
X152391864Y-107386935D01*
X152399835Y-107363553D01*
X152410993Y-107343852D01*
X152416830Y-107335410D01*
X152450296Y-107298057D01*
X152487727Y-107269003D01*
X152492309Y-107266467D01*
X152559426Y-107246443D01*
X152629926Y-107249755D01*
G36*
X152139744Y-107250968D02*
X152196616Y-107272087D01*
X152197267Y-107272493D01*
X152232440Y-107298380D01*
X152258407Y-107328633D01*
X152276670Y-107368058D01*
X152288732Y-107421462D01*
X152296096Y-107493651D01*
X152300264Y-107589432D01*
X152300629Y-107603078D01*
X152305876Y-107808842D01*
X152261716Y-107831678D01*
X152229763Y-107847110D01*
X152210470Y-107854423D01*
X152209578Y-107854514D01*
X152206239Y-107841022D01*
X152203587Y-107804626D01*
X152201956Y-107751452D01*
X152201600Y-107708393D01*
X152201592Y-107638641D01*
X152198403Y-107594837D01*
X152187288Y-107573944D01*
X152163501Y-107572925D01*
X152122296Y-107588741D01*
X152060086Y-107617815D01*
X152014341Y-107641963D01*
X151990813Y-107662913D01*
X151983896Y-107685747D01*
X151983886Y-107686877D01*
X151995299Y-107726212D01*
X152029092Y-107747462D01*
X152080809Y-107750539D01*
X152118061Y-107750006D01*
X152137703Y-107760735D01*
X152149952Y-107786505D01*
X152157002Y-107819337D01*
X152146842Y-107837966D01*
X152143017Y-107840632D01*
X152107001Y-107851340D01*
X152056566Y-107852856D01*
X152004626Y-107845759D01*
X151967822Y-107832788D01*
X151916938Y-107789585D01*
X151888014Y-107729446D01*
X151882286Y-107682462D01*
X151886657Y-107640082D01*
X151902475Y-107605488D01*
X151933797Y-107574763D01*
X151984678Y-107543990D01*
X152059176Y-107509252D01*
X152063714Y-107507288D01*
X152130821Y-107476287D01*
X152172232Y-107450862D01*
X152189981Y-107428014D01*
X152186107Y-107404745D01*
X152162643Y-107378056D01*
X152155627Y-107371914D01*
X152108630Y-107348100D01*
X152059933Y-107349103D01*
X152017522Y-107372451D01*
X151989384Y-107415675D01*
X151986769Y-107424160D01*
X151961308Y-107465308D01*
X151929001Y-107485128D01*
X151882286Y-107504770D01*
X151882286Y-107453950D01*
X151896496Y-107380082D01*
X151938675Y-107312327D01*
X151960624Y-107289661D01*
X152010517Y-107260569D01*
X152073967Y-107247400D01*
X152139744Y-107250968D01*
X152139744Y-107250968D01*
G37*
X152139744Y-107250968D02*
X152196616Y-107272087D01*
X152197267Y-107272493D01*
X152232440Y-107298380D01*
X152258407Y-107328633D01*
X152276670Y-107368058D01*
X152288732Y-107421462D01*
X152296096Y-107493651D01*
X152300264Y-107589432D01*
X152300629Y-107603078D01*
X152305876Y-107808842D01*
X152261716Y-107831678D01*
X152229763Y-107847110D01*
X152210470Y-107854423D01*
X152209578Y-107854514D01*
X152206239Y-107841022D01*
X152203587Y-107804626D01*
X152201956Y-107751452D01*
X152201600Y-107708393D01*
X152201592Y-107638641D01*
X152198403Y-107594837D01*
X152187288Y-107573944D01*
X152163501Y-107572925D01*
X152122296Y-107588741D01*
X152060086Y-107617815D01*
X152014341Y-107641963D01*
X151990813Y-107662913D01*
X151983896Y-107685747D01*
X151983886Y-107686877D01*
X151995299Y-107726212D01*
X152029092Y-107747462D01*
X152080809Y-107750539D01*
X152118061Y-107750006D01*
X152137703Y-107760735D01*
X152149952Y-107786505D01*
X152157002Y-107819337D01*
X152146842Y-107837966D01*
X152143017Y-107840632D01*
X152107001Y-107851340D01*
X152056566Y-107852856D01*
X152004626Y-107845759D01*
X151967822Y-107832788D01*
X151916938Y-107789585D01*
X151888014Y-107729446D01*
X151882286Y-107682462D01*
X151886657Y-107640082D01*
X151902475Y-107605488D01*
X151933797Y-107574763D01*
X151984678Y-107543990D01*
X152059176Y-107509252D01*
X152063714Y-107507288D01*
X152130821Y-107476287D01*
X152172232Y-107450862D01*
X152189981Y-107428014D01*
X152186107Y-107404745D01*
X152162643Y-107378056D01*
X152155627Y-107371914D01*
X152108630Y-107348100D01*
X152059933Y-107349103D01*
X152017522Y-107372451D01*
X151989384Y-107415675D01*
X151986769Y-107424160D01*
X151961308Y-107465308D01*
X151929001Y-107485128D01*
X151882286Y-107504770D01*
X151882286Y-107453950D01*
X151896496Y-107380082D01*
X151938675Y-107312327D01*
X151960624Y-107289661D01*
X152010517Y-107260569D01*
X152073967Y-107247400D01*
X152139744Y-107250968D01*
G36*
X151475886Y-107151289D02*
X151480139Y-107210613D01*
X151485025Y-107245572D01*
X151491795Y-107260820D01*
X151501702Y-107261015D01*
X151504914Y-107259195D01*
X151547644Y-107246015D01*
X151603227Y-107246785D01*
X151659737Y-107260333D01*
X151695082Y-107277861D01*
X151731321Y-107305861D01*
X151757813Y-107337549D01*
X151775999Y-107377813D01*
X151787322Y-107431543D01*
X151793222Y-107503626D01*
X151795143Y-107598951D01*
X151795177Y-107617237D01*
X151795200Y-107822646D01*
X151749491Y-107838580D01*
X151717027Y-107849420D01*
X151699215Y-107854468D01*
X151698691Y-107854514D01*
X151696937Y-107840828D01*
X151695444Y-107803076D01*
X151694326Y-107746224D01*
X151693697Y-107675234D01*
X151693600Y-107632073D01*
X151693398Y-107546973D01*
X151692358Y-107485981D01*
X151689831Y-107444177D01*
X151685164Y-107416642D01*
X151677707Y-107398456D01*
X151666811Y-107384698D01*
X151660007Y-107378073D01*
X151613272Y-107351375D01*
X151562272Y-107349375D01*
X151516001Y-107371955D01*
X151507444Y-107380107D01*
X151494893Y-107395436D01*
X151486188Y-107413618D01*
X151480631Y-107439909D01*
X151477526Y-107479562D01*
X151476176Y-107537832D01*
X151475886Y-107618173D01*
X151475886Y-107822646D01*
X151430177Y-107838580D01*
X151397713Y-107849420D01*
X151379901Y-107854468D01*
X151379377Y-107854514D01*
X151378037Y-107840623D01*
X151376828Y-107801439D01*
X151375801Y-107740700D01*
X151375002Y-107662141D01*
X151374481Y-107569498D01*
X151374286Y-107466509D01*
X151374286Y-107069342D01*
X151421457Y-107049444D01*
X151468629Y-107029547D01*
X151475886Y-107151289D01*
X151475886Y-107151289D01*
G37*
X151475886Y-107151289D02*
X151480139Y-107210613D01*
X151485025Y-107245572D01*
X151491795Y-107260820D01*
X151501702Y-107261015D01*
X151504914Y-107259195D01*
X151547644Y-107246015D01*
X151603227Y-107246785D01*
X151659737Y-107260333D01*
X151695082Y-107277861D01*
X151731321Y-107305861D01*
X151757813Y-107337549D01*
X151775999Y-107377813D01*
X151787322Y-107431543D01*
X151793222Y-107503626D01*
X151795143Y-107598951D01*
X151795177Y-107617237D01*
X151795200Y-107822646D01*
X151749491Y-107838580D01*
X151717027Y-107849420D01*
X151699215Y-107854468D01*
X151698691Y-107854514D01*
X151696937Y-107840828D01*
X151695444Y-107803076D01*
X151694326Y-107746224D01*
X151693697Y-107675234D01*
X151693600Y-107632073D01*
X151693398Y-107546973D01*
X151692358Y-107485981D01*
X151689831Y-107444177D01*
X151685164Y-107416642D01*
X151677707Y-107398456D01*
X151666811Y-107384698D01*
X151660007Y-107378073D01*
X151613272Y-107351375D01*
X151562272Y-107349375D01*
X151516001Y-107371955D01*
X151507444Y-107380107D01*
X151494893Y-107395436D01*
X151486188Y-107413618D01*
X151480631Y-107439909D01*
X151477526Y-107479562D01*
X151476176Y-107537832D01*
X151475886Y-107618173D01*
X151475886Y-107822646D01*
X151430177Y-107838580D01*
X151397713Y-107849420D01*
X151379901Y-107854468D01*
X151379377Y-107854514D01*
X151378037Y-107840623D01*
X151376828Y-107801439D01*
X151375801Y-107740700D01*
X151375002Y-107662141D01*
X151374481Y-107569498D01*
X151374286Y-107466509D01*
X151374286Y-107069342D01*
X151421457Y-107049444D01*
X151468629Y-107029547D01*
X151475886Y-107151289D01*
G36*
X150268303Y-107231239D02*
X150325527Y-107269735D01*
X150369749Y-107325335D01*
X150396167Y-107396086D01*
X150401510Y-107448162D01*
X150400903Y-107469893D01*
X150395822Y-107486531D01*
X150381855Y-107501437D01*
X150354589Y-107517973D01*
X150309612Y-107539498D01*
X150242511Y-107569374D01*
X150242171Y-107569524D01*
X150180407Y-107597813D01*
X150129759Y-107622933D01*
X150095404Y-107642179D01*
X150082518Y-107652848D01*
X150082514Y-107652934D01*
X150093872Y-107676166D01*
X150120431Y-107701774D01*
X150150923Y-107720221D01*
X150166370Y-107723886D01*
X150208515Y-107711212D01*
X150244808Y-107679471D01*
X150262517Y-107644572D01*
X150279552Y-107618845D01*
X150312922Y-107589546D01*
X150352149Y-107564235D01*
X150386756Y-107550471D01*
X150393993Y-107549714D01*
X150402139Y-107562160D01*
X150402630Y-107593972D01*
X150396643Y-107636866D01*
X150385357Y-107682558D01*
X150369950Y-107722761D01*
X150369171Y-107724322D01*
X150322804Y-107789062D01*
X150262711Y-107833097D01*
X150194465Y-107854711D01*
X150123638Y-107852185D01*
X150055804Y-107823804D01*
X150052788Y-107821808D01*
X149999427Y-107773448D01*
X149964340Y-107710352D01*
X149944922Y-107627387D01*
X149942316Y-107604078D01*
X149937701Y-107494055D01*
X149943233Y-107442748D01*
X150082514Y-107442748D01*
X150084324Y-107474753D01*
X150094222Y-107484093D01*
X150118898Y-107477105D01*
X150157795Y-107460587D01*
X150201275Y-107439881D01*
X150202356Y-107439333D01*
X150239209Y-107419949D01*
X150254000Y-107407013D01*
X150250353Y-107393451D01*
X150234995Y-107375632D01*
X150195923Y-107349845D01*
X150153846Y-107347950D01*
X150116103Y-107366717D01*
X150090034Y-107402915D01*
X150082514Y-107442748D01*
X149943233Y-107442748D01*
X149947194Y-107406027D01*
X149971550Y-107336212D01*
X150005456Y-107287302D01*
X150066653Y-107237878D01*
X150134063Y-107213359D01*
X150202880Y-107211797D01*
X150268303Y-107231239D01*
X150268303Y-107231239D01*
G37*
X150268303Y-107231239D02*
X150325527Y-107269735D01*
X150369749Y-107325335D01*
X150396167Y-107396086D01*
X150401510Y-107448162D01*
X150400903Y-107469893D01*
X150395822Y-107486531D01*
X150381855Y-107501437D01*
X150354589Y-107517973D01*
X150309612Y-107539498D01*
X150242511Y-107569374D01*
X150242171Y-107569524D01*
X150180407Y-107597813D01*
X150129759Y-107622933D01*
X150095404Y-107642179D01*
X150082518Y-107652848D01*
X150082514Y-107652934D01*
X150093872Y-107676166D01*
X150120431Y-107701774D01*
X150150923Y-107720221D01*
X150166370Y-107723886D01*
X150208515Y-107711212D01*
X150244808Y-107679471D01*
X150262517Y-107644572D01*
X150279552Y-107618845D01*
X150312922Y-107589546D01*
X150352149Y-107564235D01*
X150386756Y-107550471D01*
X150393993Y-107549714D01*
X150402139Y-107562160D01*
X150402630Y-107593972D01*
X150396643Y-107636866D01*
X150385357Y-107682558D01*
X150369950Y-107722761D01*
X150369171Y-107724322D01*
X150322804Y-107789062D01*
X150262711Y-107833097D01*
X150194465Y-107854711D01*
X150123638Y-107852185D01*
X150055804Y-107823804D01*
X150052788Y-107821808D01*
X149999427Y-107773448D01*
X149964340Y-107710352D01*
X149944922Y-107627387D01*
X149942316Y-107604078D01*
X149937701Y-107494055D01*
X149943233Y-107442748D01*
X150082514Y-107442748D01*
X150084324Y-107474753D01*
X150094222Y-107484093D01*
X150118898Y-107477105D01*
X150157795Y-107460587D01*
X150201275Y-107439881D01*
X150202356Y-107439333D01*
X150239209Y-107419949D01*
X150254000Y-107407013D01*
X150250353Y-107393451D01*
X150234995Y-107375632D01*
X150195923Y-107349845D01*
X150153846Y-107347950D01*
X150116103Y-107366717D01*
X150090034Y-107402915D01*
X150082514Y-107442748D01*
X149943233Y-107442748D01*
X149947194Y-107406027D01*
X149971550Y-107336212D01*
X150005456Y-107287302D01*
X150066653Y-107237878D01*
X150134063Y-107213359D01*
X150202880Y-107211797D01*
X150268303Y-107231239D01*
G36*
X149141115Y-107221962D02*
X149209145Y-107257733D01*
X149259351Y-107315301D01*
X149277185Y-107352312D01*
X149291063Y-107407882D01*
X149298167Y-107478096D01*
X149298840Y-107554727D01*
X149293427Y-107629552D01*
X149282270Y-107694342D01*
X149265714Y-107740873D01*
X149260626Y-107748887D01*
X149200355Y-107808707D01*
X149128769Y-107844535D01*
X149051092Y-107855020D01*
X148972548Y-107838810D01*
X148950689Y-107829092D01*
X148908122Y-107799143D01*
X148870763Y-107759433D01*
X148867232Y-107754397D01*
X148852881Y-107730124D01*
X148843394Y-107704178D01*
X148837790Y-107670022D01*
X148835086Y-107621119D01*
X148834299Y-107550935D01*
X148834286Y-107535200D01*
X148834322Y-107530192D01*
X148979429Y-107530192D01*
X148980273Y-107596430D01*
X148983596Y-107640386D01*
X148990583Y-107668779D01*
X149002416Y-107688325D01*
X149008457Y-107694857D01*
X149043186Y-107719680D01*
X149076903Y-107718548D01*
X149110995Y-107697016D01*
X149131329Y-107674029D01*
X149143371Y-107640478D01*
X149150134Y-107587569D01*
X149150598Y-107581399D01*
X149151752Y-107485513D01*
X149139688Y-107414299D01*
X149114570Y-107368194D01*
X149076560Y-107347635D01*
X149062992Y-107346514D01*
X149027364Y-107352152D01*
X149002994Y-107371686D01*
X148988093Y-107409042D01*
X148980875Y-107468150D01*
X148979429Y-107530192D01*
X148834322Y-107530192D01*
X148834826Y-107460413D01*
X148837096Y-107408159D01*
X148842068Y-107371949D01*
X148850713Y-107345299D01*
X148864005Y-107321722D01*
X148866943Y-107317338D01*
X148916313Y-107258249D01*
X148970109Y-107223947D01*
X149035602Y-107210331D01*
X149057842Y-107209665D01*
X149141115Y-107221962D01*
X149141115Y-107221962D01*
G37*
X149141115Y-107221962D02*
X149209145Y-107257733D01*
X149259351Y-107315301D01*
X149277185Y-107352312D01*
X149291063Y-107407882D01*
X149298167Y-107478096D01*
X149298840Y-107554727D01*
X149293427Y-107629552D01*
X149282270Y-107694342D01*
X149265714Y-107740873D01*
X149260626Y-107748887D01*
X149200355Y-107808707D01*
X149128769Y-107844535D01*
X149051092Y-107855020D01*
X148972548Y-107838810D01*
X148950689Y-107829092D01*
X148908122Y-107799143D01*
X148870763Y-107759433D01*
X148867232Y-107754397D01*
X148852881Y-107730124D01*
X148843394Y-107704178D01*
X148837790Y-107670022D01*
X148835086Y-107621119D01*
X148834299Y-107550935D01*
X148834286Y-107535200D01*
X148834322Y-107530192D01*
X148979429Y-107530192D01*
X148980273Y-107596430D01*
X148983596Y-107640386D01*
X148990583Y-107668779D01*
X149002416Y-107688325D01*
X149008457Y-107694857D01*
X149043186Y-107719680D01*
X149076903Y-107718548D01*
X149110995Y-107697016D01*
X149131329Y-107674029D01*
X149143371Y-107640478D01*
X149150134Y-107587569D01*
X149150598Y-107581399D01*
X149151752Y-107485513D01*
X149139688Y-107414299D01*
X149114570Y-107368194D01*
X149076560Y-107347635D01*
X149062992Y-107346514D01*
X149027364Y-107352152D01*
X149002994Y-107371686D01*
X148988093Y-107409042D01*
X148980875Y-107468150D01*
X148979429Y-107530192D01*
X148834322Y-107530192D01*
X148834826Y-107460413D01*
X148837096Y-107408159D01*
X148842068Y-107371949D01*
X148850713Y-107345299D01*
X148864005Y-107321722D01*
X148866943Y-107317338D01*
X148916313Y-107258249D01*
X148970109Y-107223947D01*
X149035602Y-107210331D01*
X149057842Y-107209665D01*
X149141115Y-107221962D01*
G36*
X150816093Y-107227780D02*
X150862672Y-107254723D01*
X150895057Y-107281466D01*
X150918742Y-107309484D01*
X150935059Y-107343748D01*
X150945339Y-107389227D01*
X150950914Y-107450892D01*
X150953116Y-107533711D01*
X150953371Y-107593246D01*
X150953371Y-107812391D01*
X150891686Y-107840044D01*
X150830000Y-107867697D01*
X150822743Y-107627670D01*
X150819744Y-107538028D01*
X150816598Y-107472962D01*
X150812701Y-107428026D01*
X150807447Y-107398770D01*
X150800231Y-107380748D01*
X150790450Y-107369511D01*
X150787312Y-107367079D01*
X150739761Y-107348083D01*
X150691697Y-107355600D01*
X150663086Y-107375543D01*
X150651447Y-107389675D01*
X150643391Y-107408220D01*
X150638271Y-107436334D01*
X150635441Y-107479173D01*
X150634256Y-107541895D01*
X150634057Y-107607261D01*
X150634018Y-107689268D01*
X150632614Y-107747316D01*
X150627914Y-107786465D01*
X150617987Y-107811780D01*
X150600903Y-107828323D01*
X150574732Y-107841156D01*
X150539775Y-107854491D01*
X150501596Y-107869007D01*
X150506141Y-107611389D01*
X150507971Y-107518519D01*
X150510112Y-107449889D01*
X150513181Y-107400711D01*
X150517794Y-107366198D01*
X150524568Y-107341562D01*
X150534119Y-107322016D01*
X150545634Y-107304770D01*
X150601190Y-107249680D01*
X150668980Y-107217822D01*
X150742713Y-107210191D01*
X150816093Y-107227780D01*
X150816093Y-107227780D01*
G37*
X150816093Y-107227780D02*
X150862672Y-107254723D01*
X150895057Y-107281466D01*
X150918742Y-107309484D01*
X150935059Y-107343748D01*
X150945339Y-107389227D01*
X150950914Y-107450892D01*
X150953116Y-107533711D01*
X150953371Y-107593246D01*
X150953371Y-107812391D01*
X150891686Y-107840044D01*
X150830000Y-107867697D01*
X150822743Y-107627670D01*
X150819744Y-107538028D01*
X150816598Y-107472962D01*
X150812701Y-107428026D01*
X150807447Y-107398770D01*
X150800231Y-107380748D01*
X150790450Y-107369511D01*
X150787312Y-107367079D01*
X150739761Y-107348083D01*
X150691697Y-107355600D01*
X150663086Y-107375543D01*
X150651447Y-107389675D01*
X150643391Y-107408220D01*
X150638271Y-107436334D01*
X150635441Y-107479173D01*
X150634256Y-107541895D01*
X150634057Y-107607261D01*
X150634018Y-107689268D01*
X150632614Y-107747316D01*
X150627914Y-107786465D01*
X150617987Y-107811780D01*
X150600903Y-107828323D01*
X150574732Y-107841156D01*
X150539775Y-107854491D01*
X150501596Y-107869007D01*
X150506141Y-107611389D01*
X150507971Y-107518519D01*
X150510112Y-107449889D01*
X150513181Y-107400711D01*
X150517794Y-107366198D01*
X150524568Y-107341562D01*
X150534119Y-107322016D01*
X150545634Y-107304770D01*
X150601190Y-107249680D01*
X150668980Y-107217822D01*
X150742713Y-107210191D01*
X150816093Y-107227780D01*
G36*
X149699744Y-107219918D02*
X149755201Y-107247568D01*
X149804148Y-107298480D01*
X149817629Y-107317338D01*
X149832314Y-107342015D01*
X149841842Y-107368816D01*
X149847293Y-107404587D01*
X149849747Y-107456169D01*
X149850286Y-107524267D01*
X149847852Y-107617588D01*
X149839394Y-107687657D01*
X149823174Y-107739931D01*
X149797454Y-107779869D01*
X149760497Y-107812929D01*
X149757782Y-107814886D01*
X149721360Y-107834908D01*
X149677502Y-107844815D01*
X149621724Y-107847257D01*
X149531048Y-107847257D01*
X149531010Y-107935283D01*
X149530166Y-107984308D01*
X149525024Y-108013065D01*
X149511587Y-108030311D01*
X149485858Y-108044808D01*
X149479679Y-108047769D01*
X149450764Y-108061648D01*
X149428376Y-108070414D01*
X149411729Y-108071171D01*
X149400036Y-108061023D01*
X149392510Y-108037073D01*
X149388366Y-107996426D01*
X149386815Y-107936186D01*
X149387071Y-107853455D01*
X149388349Y-107745339D01*
X149388748Y-107713000D01*
X149390185Y-107601524D01*
X149391472Y-107528603D01*
X149530971Y-107528603D01*
X149531755Y-107590499D01*
X149535240Y-107630997D01*
X149543124Y-107657708D01*
X149557105Y-107678244D01*
X149566597Y-107688260D01*
X149605404Y-107717567D01*
X149639763Y-107719952D01*
X149675216Y-107695750D01*
X149676114Y-107694857D01*
X149690539Y-107676153D01*
X149699313Y-107650732D01*
X149703739Y-107611584D01*
X149705118Y-107551697D01*
X149705143Y-107538430D01*
X149701812Y-107455901D01*
X149690969Y-107398691D01*
X149671340Y-107363766D01*
X149641650Y-107348094D01*
X149624491Y-107346514D01*
X149583766Y-107353926D01*
X149555832Y-107378330D01*
X149539017Y-107422980D01*
X149531650Y-107491130D01*
X149530971Y-107528603D01*
X149391472Y-107528603D01*
X149391708Y-107515245D01*
X149393677Y-107450333D01*
X149396450Y-107402958D01*
X149400388Y-107369290D01*
X149405849Y-107345498D01*
X149413192Y-107327753D01*
X149422777Y-107312224D01*
X149426887Y-107306381D01*
X149481405Y-107251185D01*
X149550336Y-107219890D01*
X149630072Y-107211165D01*
X149699744Y-107219918D01*
X149699744Y-107219918D01*
G37*
X149699744Y-107219918D02*
X149755201Y-107247568D01*
X149804148Y-107298480D01*
X149817629Y-107317338D01*
X149832314Y-107342015D01*
X149841842Y-107368816D01*
X149847293Y-107404587D01*
X149849747Y-107456169D01*
X149850286Y-107524267D01*
X149847852Y-107617588D01*
X149839394Y-107687657D01*
X149823174Y-107739931D01*
X149797454Y-107779869D01*
X149760497Y-107812929D01*
X149757782Y-107814886D01*
X149721360Y-107834908D01*
X149677502Y-107844815D01*
X149621724Y-107847257D01*
X149531048Y-107847257D01*
X149531010Y-107935283D01*
X149530166Y-107984308D01*
X149525024Y-108013065D01*
X149511587Y-108030311D01*
X149485858Y-108044808D01*
X149479679Y-108047769D01*
X149450764Y-108061648D01*
X149428376Y-108070414D01*
X149411729Y-108071171D01*
X149400036Y-108061023D01*
X149392510Y-108037073D01*
X149388366Y-107996426D01*
X149386815Y-107936186D01*
X149387071Y-107853455D01*
X149388349Y-107745339D01*
X149388748Y-107713000D01*
X149390185Y-107601524D01*
X149391472Y-107528603D01*
X149530971Y-107528603D01*
X149531755Y-107590499D01*
X149535240Y-107630997D01*
X149543124Y-107657708D01*
X149557105Y-107678244D01*
X149566597Y-107688260D01*
X149605404Y-107717567D01*
X149639763Y-107719952D01*
X149675216Y-107695750D01*
X149676114Y-107694857D01*
X149690539Y-107676153D01*
X149699313Y-107650732D01*
X149703739Y-107611584D01*
X149705118Y-107551697D01*
X149705143Y-107538430D01*
X149701812Y-107455901D01*
X149690969Y-107398691D01*
X149671340Y-107363766D01*
X149641650Y-107348094D01*
X149624491Y-107346514D01*
X149583766Y-107353926D01*
X149555832Y-107378330D01*
X149539017Y-107422980D01*
X149531650Y-107491130D01*
X149530971Y-107528603D01*
X149391472Y-107528603D01*
X149391708Y-107515245D01*
X149393677Y-107450333D01*
X149396450Y-107402958D01*
X149400388Y-107369290D01*
X149405849Y-107345498D01*
X149413192Y-107327753D01*
X149422777Y-107312224D01*
X149426887Y-107306381D01*
X149481405Y-107251185D01*
X149550336Y-107219890D01*
X149630072Y-107211165D01*
X149699744Y-107219918D01*
D12*
G04 #@! TO.C,U2*
X159974600Y-95000000D02*
G75*
G03X159974600Y-95000000I-1974600J0D01*
G01*
X156277000Y-92330000D02*
X155427000Y-93180000D01*
X157127000Y-93180000D02*
X156277000Y-92330000D01*
X156277000Y-94030000D02*
X155427000Y-93180000D01*
X163207000Y-95000000D02*
G75*
G03X163207000Y-95000000I-5207000J0D01*
G01*
G04 #@! TO.C,RN1*
X173000000Y-103500000D02*
X180800000Y-103500000D01*
X180800000Y-103500000D02*
X180800000Y-100700000D01*
X180800000Y-100700000D02*
X173000000Y-100700000D01*
X173000000Y-100700000D02*
X173000000Y-103500000D01*
G04 #@! TO.C,C1*
X180310000Y-94402064D02*
X180310000Y-93197936D01*
X178490000Y-94402064D02*
X178490000Y-93197936D01*
G04 #@! TO.C,C2*
X173502064Y-93510000D02*
X172297936Y-93510000D01*
X173502064Y-91690000D02*
X172297936Y-91690000D01*
G04 #@! TO.C,C3*
X175902064Y-99810000D02*
X174697936Y-99810000D01*
X175902064Y-97990000D02*
X174697936Y-97990000D01*
G04 #@! TO.C,R1*
X170590000Y-104862779D02*
X170590000Y-104537221D01*
X171610000Y-104862779D02*
X171610000Y-104537221D01*
G04 #@! TO.C,R2*
X171610000Y-96462779D02*
X171610000Y-96137221D01*
X170590000Y-96462779D02*
X170590000Y-96137221D01*
G04 #@! TO.C,U1*
X164700000Y-84840000D02*
X162800000Y-84840000D01*
X163300000Y-87160000D02*
X164700000Y-87160000D01*
D10*
G04 #@! TO.C,U3*
X174250000Y-97225000D02*
X176350000Y-97225000D01*
X173475000Y-93975000D02*
X176350000Y-93975000D01*
G04 #@! TO.C,U2*
X157238095Y-85552380D02*
X157238095Y-86361904D01*
X157285714Y-86457142D01*
X157333333Y-86504761D01*
X157428571Y-86552380D01*
X157619047Y-86552380D01*
X157714285Y-86504761D01*
X157761904Y-86457142D01*
X157809523Y-86361904D01*
X157809523Y-85552380D01*
X158238095Y-85647619D02*
X158285714Y-85600000D01*
X158380952Y-85552380D01*
X158619047Y-85552380D01*
X158714285Y-85600000D01*
X158761904Y-85647619D01*
X158809523Y-85742857D01*
X158809523Y-85838095D01*
X158761904Y-85980952D01*
X158190476Y-86552380D01*
X158809523Y-86552380D01*
G04 #@! TO.C,RN1*
X178009523Y-105752380D02*
X177676190Y-105276190D01*
X177438095Y-105752380D02*
X177438095Y-104752380D01*
X177819047Y-104752380D01*
X177914285Y-104800000D01*
X177961904Y-104847619D01*
X178009523Y-104942857D01*
X178009523Y-105085714D01*
X177961904Y-105180952D01*
X177914285Y-105228571D01*
X177819047Y-105276190D01*
X177438095Y-105276190D01*
X178438095Y-105752380D02*
X178438095Y-104752380D01*
X179009523Y-105752380D01*
X179009523Y-104752380D01*
X180009523Y-105752380D02*
X179438095Y-105752380D01*
X179723809Y-105752380D02*
X179723809Y-104752380D01*
X179628571Y-104895238D01*
X179533333Y-104990476D01*
X179438095Y-105038095D01*
G04 #@! TO.C,C1*
X181533333Y-94157142D02*
X181485714Y-94204761D01*
X181342857Y-94252380D01*
X181247619Y-94252380D01*
X181104761Y-94204761D01*
X181009523Y-94109523D01*
X180961904Y-94014285D01*
X180914285Y-93823809D01*
X180914285Y-93680952D01*
X180961904Y-93490476D01*
X181009523Y-93395238D01*
X181104761Y-93300000D01*
X181247619Y-93252380D01*
X181342857Y-93252380D01*
X181485714Y-93300000D01*
X181533333Y-93347619D01*
X182485714Y-94252380D02*
X181914285Y-94252380D01*
X182200000Y-94252380D02*
X182200000Y-93252380D01*
X182104761Y-93395238D01*
X182009523Y-93490476D01*
X181914285Y-93538095D01*
G04 #@! TO.C,C2*
X169133333Y-92957142D02*
X169085714Y-93004761D01*
X168942857Y-93052380D01*
X168847619Y-93052380D01*
X168704761Y-93004761D01*
X168609523Y-92909523D01*
X168561904Y-92814285D01*
X168514285Y-92623809D01*
X168514285Y-92480952D01*
X168561904Y-92290476D01*
X168609523Y-92195238D01*
X168704761Y-92100000D01*
X168847619Y-92052380D01*
X168942857Y-92052380D01*
X169085714Y-92100000D01*
X169133333Y-92147619D01*
X169514285Y-92147619D02*
X169561904Y-92100000D01*
X169657142Y-92052380D01*
X169895238Y-92052380D01*
X169990476Y-92100000D01*
X170038095Y-92147619D01*
X170085714Y-92242857D01*
X170085714Y-92338095D01*
X170038095Y-92480952D01*
X169466666Y-93052380D01*
X170085714Y-93052380D01*
G04 #@! TO.C,C3*
X171233333Y-99257142D02*
X171185714Y-99304761D01*
X171042857Y-99352380D01*
X170947619Y-99352380D01*
X170804761Y-99304761D01*
X170709523Y-99209523D01*
X170661904Y-99114285D01*
X170614285Y-98923809D01*
X170614285Y-98780952D01*
X170661904Y-98590476D01*
X170709523Y-98495238D01*
X170804761Y-98400000D01*
X170947619Y-98352380D01*
X171042857Y-98352380D01*
X171185714Y-98400000D01*
X171233333Y-98447619D01*
X171566666Y-98352380D02*
X172185714Y-98352380D01*
X171852380Y-98733333D01*
X171995238Y-98733333D01*
X172090476Y-98780952D01*
X172138095Y-98828571D01*
X172185714Y-98923809D01*
X172185714Y-99161904D01*
X172138095Y-99257142D01*
X172090476Y-99304761D01*
X171995238Y-99352380D01*
X171709523Y-99352380D01*
X171614285Y-99304761D01*
X171566666Y-99257142D01*
G04 #@! TO.C,R1*
X169033333Y-105152380D02*
X168700000Y-104676190D01*
X168461904Y-105152380D02*
X168461904Y-104152380D01*
X168842857Y-104152380D01*
X168938095Y-104200000D01*
X168985714Y-104247619D01*
X169033333Y-104342857D01*
X169033333Y-104485714D01*
X168985714Y-104580952D01*
X168938095Y-104628571D01*
X168842857Y-104676190D01*
X168461904Y-104676190D01*
X169985714Y-105152380D02*
X169414285Y-105152380D01*
X169700000Y-105152380D02*
X169700000Y-104152380D01*
X169604761Y-104295238D01*
X169509523Y-104390476D01*
X169414285Y-104438095D01*
G04 #@! TO.C,R2*
X169033333Y-96752380D02*
X168700000Y-96276190D01*
X168461904Y-96752380D02*
X168461904Y-95752380D01*
X168842857Y-95752380D01*
X168938095Y-95800000D01*
X168985714Y-95847619D01*
X169033333Y-95942857D01*
X169033333Y-96085714D01*
X168985714Y-96180952D01*
X168938095Y-96228571D01*
X168842857Y-96276190D01*
X168461904Y-96276190D01*
X169414285Y-95847619D02*
X169461904Y-95800000D01*
X169557142Y-95752380D01*
X169795238Y-95752380D01*
X169890476Y-95800000D01*
X169938095Y-95847619D01*
X169985714Y-95942857D01*
X169985714Y-96038095D01*
X169938095Y-96180952D01*
X169366666Y-96752380D01*
X169985714Y-96752380D01*
G04 #@! TO.C,U1*
X163238095Y-83452380D02*
X163238095Y-84261904D01*
X163285714Y-84357142D01*
X163333333Y-84404761D01*
X163428571Y-84452380D01*
X163619047Y-84452380D01*
X163714285Y-84404761D01*
X163761904Y-84357142D01*
X163809523Y-84261904D01*
X163809523Y-83452380D01*
X164809523Y-84452380D02*
X164238095Y-84452380D01*
X164523809Y-84452380D02*
X164523809Y-83452380D01*
X164428571Y-83595238D01*
X164333333Y-83690476D01*
X164238095Y-83738095D01*
G04 #@! TO.C,U3*
X174538095Y-92502380D02*
X174538095Y-93311904D01*
X174585714Y-93407142D01*
X174633333Y-93454761D01*
X174728571Y-93502380D01*
X174919047Y-93502380D01*
X175014285Y-93454761D01*
X175061904Y-93407142D01*
X175109523Y-93311904D01*
X175109523Y-92502380D01*
X175490476Y-92502380D02*
X176109523Y-92502380D01*
X175776190Y-92883333D01*
X175919047Y-92883333D01*
X176014285Y-92930952D01*
X176061904Y-92978571D01*
X176109523Y-93073809D01*
X176109523Y-93311904D01*
X176061904Y-93407142D01*
X176014285Y-93454761D01*
X175919047Y-93502380D01*
X175633333Y-93502380D01*
X175538095Y-93454761D01*
X175490476Y-93407142D01*
G04 #@! TD*
M02*
