G04 #@! TF.GenerationSoftware,KiCad,Pcbnew,(6.0.0-rc1-dev-1561-g9cac0a38c)*
G04 #@! TF.CreationDate,2019-02-19T10:43:41+01:00
G04 #@! TF.ProjectId,reference_board,72656665-7265-46e6-9365-5f626f617264,v3.1.0*
G04 #@! TF.SameCoordinates,Original*
G04 #@! TF.FileFunction,Soldermask,Bot*
G04 #@! TF.FilePolarity,Negative*
%FSLAX46Y46*%
G04 Gerber Fmt 4.6, Leading zero omitted, Abs format (unit mm)*
G04 Created by KiCad (PCBNEW (6.0.0-rc1-dev-1561-g9cac0a38c)) date 2019-02-19T10:43:41 CET*
%MOMM*%
%LPD*%
G04 APERTURE LIST*
%ADD10C,0.100000*%
G04 APERTURE END LIST*
D10*
G36*
X153743807Y-102547995D02*
G01*
X154207877Y-102740219D01*
X154625533Y-103019288D01*
X154980712Y-103374467D01*
X155259781Y-103792123D01*
X155452005Y-104256193D01*
X155550000Y-104748846D01*
X155550000Y-105251154D01*
X155452005Y-105743807D01*
X155259781Y-106207877D01*
X154980712Y-106625533D01*
X154625533Y-106980712D01*
X154207877Y-107259781D01*
X153743807Y-107452005D01*
X153251154Y-107550000D01*
X152748846Y-107550000D01*
X152256193Y-107452005D01*
X151792123Y-107259781D01*
X151374467Y-106980712D01*
X151019288Y-106625533D01*
X150740219Y-106207877D01*
X150547995Y-105743807D01*
X150450000Y-105251154D01*
X150450000Y-104748846D01*
X150547995Y-104256193D01*
X150740219Y-103792123D01*
X151019288Y-103374467D01*
X151374467Y-103019288D01*
X151792123Y-102740219D01*
X152256193Y-102547995D01*
X152748846Y-102450000D01*
X153251154Y-102450000D01*
X153743807Y-102547995D01*
X153743807Y-102547995D01*
G37*
G36*
X179579451Y-101759127D02*
G01*
X179717105Y-101786508D01*
X179889994Y-101858121D01*
X180045590Y-101962087D01*
X180177913Y-102094410D01*
X180281879Y-102250006D01*
X180353492Y-102422895D01*
X180390000Y-102606433D01*
X180390000Y-102793567D01*
X180353492Y-102977105D01*
X180281879Y-103149994D01*
X180177913Y-103305590D01*
X180045590Y-103437913D01*
X179889994Y-103541879D01*
X179717105Y-103613492D01*
X179579451Y-103640873D01*
X179533568Y-103650000D01*
X179346432Y-103650000D01*
X179300548Y-103640873D01*
X179162895Y-103613492D01*
X178990006Y-103541879D01*
X178834410Y-103437913D01*
X178702087Y-103305590D01*
X178598121Y-103149994D01*
X178526508Y-102977105D01*
X178490000Y-102793567D01*
X178490000Y-102606433D01*
X178526508Y-102422895D01*
X178598121Y-102250006D01*
X178702087Y-102094410D01*
X178834410Y-101962087D01*
X178990006Y-101858121D01*
X179162895Y-101786508D01*
X179300549Y-101759127D01*
X179346432Y-101750000D01*
X179533568Y-101750000D01*
X179579451Y-101759127D01*
X179579451Y-101759127D01*
G37*
G36*
X177039451Y-101759127D02*
G01*
X177177105Y-101786508D01*
X177349994Y-101858121D01*
X177505590Y-101962087D01*
X177637913Y-102094410D01*
X177741879Y-102250006D01*
X177813492Y-102422895D01*
X177850000Y-102606433D01*
X177850000Y-102793567D01*
X177813492Y-102977105D01*
X177741879Y-103149994D01*
X177637913Y-103305590D01*
X177505590Y-103437913D01*
X177349994Y-103541879D01*
X177177105Y-103613492D01*
X177039451Y-103640873D01*
X176993568Y-103650000D01*
X176806432Y-103650000D01*
X176760548Y-103640873D01*
X176622895Y-103613492D01*
X176450006Y-103541879D01*
X176294410Y-103437913D01*
X176162087Y-103305590D01*
X176058121Y-103149994D01*
X175986508Y-102977105D01*
X175950000Y-102793567D01*
X175950000Y-102606433D01*
X175986508Y-102422895D01*
X176058121Y-102250006D01*
X176162087Y-102094410D01*
X176294410Y-101962087D01*
X176450006Y-101858121D01*
X176622895Y-101786508D01*
X176760549Y-101759127D01*
X176806432Y-101750000D01*
X176993568Y-101750000D01*
X177039451Y-101759127D01*
X177039451Y-101759127D01*
G37*
G36*
X175310000Y-103650000D02*
G01*
X173410000Y-103650000D01*
X173410000Y-101750000D01*
X175310000Y-101750000D01*
X175310000Y-103650000D01*
X175310000Y-103650000D01*
G37*
G36*
X158203352Y-92960743D02*
G01*
X158348941Y-93021048D01*
X158479973Y-93108601D01*
X158591399Y-93220027D01*
X158678952Y-93351059D01*
X158739257Y-93496648D01*
X158770000Y-93651205D01*
X158770000Y-93808795D01*
X158739257Y-93963352D01*
X158678952Y-94108941D01*
X158661379Y-94135241D01*
X158649828Y-94156851D01*
X158642715Y-94180300D01*
X158640313Y-94204687D01*
X158642715Y-94229073D01*
X158649828Y-94252522D01*
X158661379Y-94274133D01*
X158676924Y-94293075D01*
X158695867Y-94308621D01*
X158717477Y-94320172D01*
X158740926Y-94327285D01*
X158765313Y-94329687D01*
X158789699Y-94327285D01*
X158813148Y-94320172D01*
X158834759Y-94308621D01*
X158861059Y-94291048D01*
X159006648Y-94230743D01*
X159161205Y-94200000D01*
X159318795Y-94200000D01*
X159473352Y-94230743D01*
X159618941Y-94291048D01*
X159749973Y-94378601D01*
X159861399Y-94490027D01*
X159948952Y-94621059D01*
X160009257Y-94766648D01*
X160040000Y-94921205D01*
X160040000Y-95078795D01*
X160009257Y-95233352D01*
X159948952Y-95378941D01*
X159861399Y-95509973D01*
X159749973Y-95621399D01*
X159618941Y-95708952D01*
X159473352Y-95769257D01*
X159318795Y-95800000D01*
X159161205Y-95800000D01*
X159006648Y-95769257D01*
X158861059Y-95708952D01*
X158834759Y-95691379D01*
X158813149Y-95679828D01*
X158789700Y-95672715D01*
X158765313Y-95670313D01*
X158740927Y-95672715D01*
X158717478Y-95679828D01*
X158695867Y-95691379D01*
X158676925Y-95706924D01*
X158661379Y-95725867D01*
X158649828Y-95747477D01*
X158642715Y-95770926D01*
X158640313Y-95795313D01*
X158642715Y-95819699D01*
X158649828Y-95843148D01*
X158661379Y-95864759D01*
X158678952Y-95891059D01*
X158739257Y-96036648D01*
X158770000Y-96191205D01*
X158770000Y-96348795D01*
X158739257Y-96503352D01*
X158678952Y-96648941D01*
X158591399Y-96779973D01*
X158479973Y-96891399D01*
X158348941Y-96978952D01*
X158203352Y-97039257D01*
X158048795Y-97070000D01*
X157891205Y-97070000D01*
X157736648Y-97039257D01*
X157591059Y-96978952D01*
X157460027Y-96891399D01*
X157348601Y-96779973D01*
X157261048Y-96648941D01*
X157200743Y-96503352D01*
X157170000Y-96348795D01*
X157170000Y-96191205D01*
X157200743Y-96036648D01*
X157237879Y-95946994D01*
X157244992Y-95923545D01*
X157247394Y-95899159D01*
X157244992Y-95874773D01*
X157237879Y-95851323D01*
X157226328Y-95829713D01*
X157210782Y-95810771D01*
X157191840Y-95795225D01*
X157170229Y-95783674D01*
X157146780Y-95776561D01*
X157122394Y-95774159D01*
X157086113Y-95779540D01*
X157056827Y-95788424D01*
X156987775Y-95795225D01*
X156939295Y-95800000D01*
X156460705Y-95800000D01*
X156382351Y-95792283D01*
X156343173Y-95788424D01*
X156267773Y-95765552D01*
X156192371Y-95742679D01*
X156053392Y-95668392D01*
X155931578Y-95568422D01*
X155831608Y-95446608D01*
X155757321Y-95307629D01*
X155711576Y-95156826D01*
X155696130Y-95000000D01*
X155711576Y-94843174D01*
X155757321Y-94692371D01*
X155790913Y-94629525D01*
X157625823Y-94629525D01*
X157628225Y-94653911D01*
X157640583Y-94688449D01*
X157642678Y-94692368D01*
X157688424Y-94843174D01*
X157703870Y-95000000D01*
X157688424Y-95156826D01*
X157642678Y-95307632D01*
X157640583Y-95311551D01*
X157631205Y-95334190D01*
X157626425Y-95358223D01*
X157626425Y-95382728D01*
X157631206Y-95406761D01*
X157640583Y-95429400D01*
X157654197Y-95449775D01*
X157671524Y-95467102D01*
X157691899Y-95480715D01*
X157714538Y-95490093D01*
X157738571Y-95494873D01*
X157775209Y-95493073D01*
X157891205Y-95470000D01*
X158048795Y-95470000D01*
X158203352Y-95500743D01*
X158348941Y-95561048D01*
X158375241Y-95578621D01*
X158396851Y-95590172D01*
X158420300Y-95597285D01*
X158444687Y-95599687D01*
X158469073Y-95597285D01*
X158492522Y-95590172D01*
X158514133Y-95578621D01*
X158533075Y-95563076D01*
X158548621Y-95544133D01*
X158560172Y-95522523D01*
X158567285Y-95499074D01*
X158569687Y-95474687D01*
X158567285Y-95450301D01*
X158560172Y-95426852D01*
X158548621Y-95405241D01*
X158531048Y-95378941D01*
X158470743Y-95233352D01*
X158440000Y-95078795D01*
X158440000Y-94921205D01*
X158470743Y-94766648D01*
X158531048Y-94621059D01*
X158548621Y-94594759D01*
X158560172Y-94573149D01*
X158567285Y-94549700D01*
X158569687Y-94525313D01*
X158567285Y-94500927D01*
X158560172Y-94477478D01*
X158548621Y-94455867D01*
X158533076Y-94436925D01*
X158514133Y-94421379D01*
X158492523Y-94409828D01*
X158469074Y-94402715D01*
X158444687Y-94400313D01*
X158420301Y-94402715D01*
X158396852Y-94409828D01*
X158375241Y-94421379D01*
X158348941Y-94438952D01*
X158203352Y-94499257D01*
X158048795Y-94530000D01*
X157891205Y-94530000D01*
X157775209Y-94506927D01*
X157750823Y-94504525D01*
X157726437Y-94506927D01*
X157702987Y-94514040D01*
X157681377Y-94525591D01*
X157662435Y-94541137D01*
X157646889Y-94560079D01*
X157635338Y-94581690D01*
X157628225Y-94605139D01*
X157625823Y-94629525D01*
X155790913Y-94629525D01*
X155831608Y-94553392D01*
X155931578Y-94431578D01*
X156053392Y-94331608D01*
X156192371Y-94257321D01*
X156285493Y-94229073D01*
X156343173Y-94211576D01*
X156382351Y-94207717D01*
X156460705Y-94200000D01*
X156939295Y-94200000D01*
X156986307Y-94204630D01*
X157056827Y-94211576D01*
X157086115Y-94220460D01*
X157110142Y-94225239D01*
X157134646Y-94225239D01*
X157158680Y-94220459D01*
X157181319Y-94211081D01*
X157201693Y-94197467D01*
X157219020Y-94180140D01*
X157232634Y-94159766D01*
X157242012Y-94137127D01*
X157246792Y-94113093D01*
X157246792Y-94088589D01*
X157237879Y-94053006D01*
X157200743Y-93963352D01*
X157170000Y-93808795D01*
X157170000Y-93651205D01*
X157200743Y-93496648D01*
X157261048Y-93351059D01*
X157348601Y-93220027D01*
X157460027Y-93108601D01*
X157591059Y-93021048D01*
X157736648Y-92960743D01*
X157891205Y-92930000D01*
X158048795Y-92930000D01*
X158203352Y-92960743D01*
X158203352Y-92960743D01*
G37*
G36*
X171508707Y-87497597D02*
G01*
X171585836Y-87505193D01*
X171717787Y-87545220D01*
X171783763Y-87565233D01*
X171966172Y-87662733D01*
X172126054Y-87793946D01*
X172257267Y-87953828D01*
X172354767Y-88136237D01*
X172354767Y-88136238D01*
X172414807Y-88334164D01*
X172435080Y-88540000D01*
X172414807Y-88745836D01*
X172374780Y-88877787D01*
X172354767Y-88943763D01*
X172257267Y-89126172D01*
X172126054Y-89286054D01*
X171966172Y-89417267D01*
X171783763Y-89514767D01*
X171717787Y-89534780D01*
X171585836Y-89574807D01*
X171508707Y-89582403D01*
X171431580Y-89590000D01*
X171328420Y-89590000D01*
X171251293Y-89582403D01*
X171174164Y-89574807D01*
X171042213Y-89534780D01*
X170976237Y-89514767D01*
X170793828Y-89417267D01*
X170633946Y-89286054D01*
X170502733Y-89126172D01*
X170405233Y-88943763D01*
X170385220Y-88877787D01*
X170345193Y-88745836D01*
X170324920Y-88540000D01*
X170345193Y-88334164D01*
X170405233Y-88136238D01*
X170405233Y-88136237D01*
X170502733Y-87953828D01*
X170633946Y-87793946D01*
X170793828Y-87662733D01*
X170976237Y-87565233D01*
X171042213Y-87545220D01*
X171174164Y-87505193D01*
X171251293Y-87497597D01*
X171328420Y-87490000D01*
X171431580Y-87490000D01*
X171508707Y-87497597D01*
X171508707Y-87497597D01*
G37*
G36*
X174048707Y-87497597D02*
G01*
X174125836Y-87505193D01*
X174257787Y-87545220D01*
X174323763Y-87565233D01*
X174506172Y-87662733D01*
X174666054Y-87793946D01*
X174797267Y-87953828D01*
X174894767Y-88136237D01*
X174894767Y-88136238D01*
X174954807Y-88334164D01*
X174975080Y-88540000D01*
X174954807Y-88745836D01*
X174914780Y-88877787D01*
X174894767Y-88943763D01*
X174797267Y-89126172D01*
X174666054Y-89286054D01*
X174506172Y-89417267D01*
X174323763Y-89514767D01*
X174257787Y-89534780D01*
X174125836Y-89574807D01*
X174048707Y-89582403D01*
X173971580Y-89590000D01*
X173868420Y-89590000D01*
X173791293Y-89582403D01*
X173714164Y-89574807D01*
X173582213Y-89534780D01*
X173516237Y-89514767D01*
X173333828Y-89417267D01*
X173173946Y-89286054D01*
X173042733Y-89126172D01*
X172945233Y-88943763D01*
X172925220Y-88877787D01*
X172885193Y-88745836D01*
X172864920Y-88540000D01*
X172885193Y-88334164D01*
X172945233Y-88136238D01*
X172945233Y-88136237D01*
X173042733Y-87953828D01*
X173173946Y-87793946D01*
X173333828Y-87662733D01*
X173516237Y-87565233D01*
X173582213Y-87545220D01*
X173714164Y-87505193D01*
X173791293Y-87497597D01*
X173868420Y-87490000D01*
X173971580Y-87490000D01*
X174048707Y-87497597D01*
X174048707Y-87497597D01*
G37*
G36*
X176588707Y-87497597D02*
G01*
X176665836Y-87505193D01*
X176797787Y-87545220D01*
X176863763Y-87565233D01*
X177046172Y-87662733D01*
X177206054Y-87793946D01*
X177337267Y-87953828D01*
X177434767Y-88136237D01*
X177434767Y-88136238D01*
X177494807Y-88334164D01*
X177515080Y-88540000D01*
X177494807Y-88745836D01*
X177454780Y-88877787D01*
X177434767Y-88943763D01*
X177337267Y-89126172D01*
X177206054Y-89286054D01*
X177046172Y-89417267D01*
X176863763Y-89514767D01*
X176797787Y-89534780D01*
X176665836Y-89574807D01*
X176588707Y-89582403D01*
X176511580Y-89590000D01*
X176408420Y-89590000D01*
X176331293Y-89582403D01*
X176254164Y-89574807D01*
X176122213Y-89534780D01*
X176056237Y-89514767D01*
X175873828Y-89417267D01*
X175713946Y-89286054D01*
X175582733Y-89126172D01*
X175485233Y-88943763D01*
X175465220Y-88877787D01*
X175425193Y-88745836D01*
X175404920Y-88540000D01*
X175425193Y-88334164D01*
X175485233Y-88136238D01*
X175485233Y-88136237D01*
X175582733Y-87953828D01*
X175713946Y-87793946D01*
X175873828Y-87662733D01*
X176056237Y-87565233D01*
X176122213Y-87545220D01*
X176254164Y-87505193D01*
X176331293Y-87497597D01*
X176408420Y-87490000D01*
X176511580Y-87490000D01*
X176588707Y-87497597D01*
X176588707Y-87497597D01*
G37*
G36*
X179128707Y-87497597D02*
G01*
X179205836Y-87505193D01*
X179337787Y-87545220D01*
X179403763Y-87565233D01*
X179586172Y-87662733D01*
X179746054Y-87793946D01*
X179877267Y-87953828D01*
X179974767Y-88136237D01*
X179974767Y-88136238D01*
X180034807Y-88334164D01*
X180055080Y-88540000D01*
X180034807Y-88745836D01*
X179994780Y-88877787D01*
X179974767Y-88943763D01*
X179877267Y-89126172D01*
X179746054Y-89286054D01*
X179586172Y-89417267D01*
X179403763Y-89514767D01*
X179337787Y-89534780D01*
X179205836Y-89574807D01*
X179128707Y-89582403D01*
X179051580Y-89590000D01*
X178948420Y-89590000D01*
X178871293Y-89582403D01*
X178794164Y-89574807D01*
X178662213Y-89534780D01*
X178596237Y-89514767D01*
X178413828Y-89417267D01*
X178253946Y-89286054D01*
X178122733Y-89126172D01*
X178025233Y-88943763D01*
X178005220Y-88877787D01*
X177965193Y-88745836D01*
X177944920Y-88540000D01*
X177965193Y-88334164D01*
X178025233Y-88136238D01*
X178025233Y-88136237D01*
X178122733Y-87953828D01*
X178253946Y-87793946D01*
X178413828Y-87662733D01*
X178596237Y-87565233D01*
X178662213Y-87545220D01*
X178794164Y-87505193D01*
X178871293Y-87497597D01*
X178948420Y-87490000D01*
X179051580Y-87490000D01*
X179128707Y-87497597D01*
X179128707Y-87497597D01*
G37*
G36*
X176588707Y-84957597D02*
G01*
X176665836Y-84965193D01*
X176797787Y-85005220D01*
X176863763Y-85025233D01*
X177046172Y-85122733D01*
X177206054Y-85253946D01*
X177337267Y-85413828D01*
X177434767Y-85596237D01*
X177434767Y-85596238D01*
X177494807Y-85794164D01*
X177515080Y-86000000D01*
X177494807Y-86205836D01*
X177454780Y-86337787D01*
X177434767Y-86403763D01*
X177337267Y-86586172D01*
X177206054Y-86746054D01*
X177046172Y-86877267D01*
X176863763Y-86974767D01*
X176797787Y-86994780D01*
X176665836Y-87034807D01*
X176588707Y-87042404D01*
X176511580Y-87050000D01*
X176408420Y-87050000D01*
X176331293Y-87042404D01*
X176254164Y-87034807D01*
X176122213Y-86994780D01*
X176056237Y-86974767D01*
X175873828Y-86877267D01*
X175713946Y-86746054D01*
X175582733Y-86586172D01*
X175485233Y-86403763D01*
X175465220Y-86337787D01*
X175425193Y-86205836D01*
X175404920Y-86000000D01*
X175425193Y-85794164D01*
X175485233Y-85596238D01*
X175485233Y-85596237D01*
X175582733Y-85413828D01*
X175713946Y-85253946D01*
X175873828Y-85122733D01*
X176056237Y-85025233D01*
X176122213Y-85005220D01*
X176254164Y-84965193D01*
X176331293Y-84957597D01*
X176408420Y-84950000D01*
X176511580Y-84950000D01*
X176588707Y-84957597D01*
X176588707Y-84957597D01*
G37*
G36*
X174048707Y-84957597D02*
G01*
X174125836Y-84965193D01*
X174257787Y-85005220D01*
X174323763Y-85025233D01*
X174506172Y-85122733D01*
X174666054Y-85253946D01*
X174797267Y-85413828D01*
X174894767Y-85596237D01*
X174894767Y-85596238D01*
X174954807Y-85794164D01*
X174975080Y-86000000D01*
X174954807Y-86205836D01*
X174914780Y-86337787D01*
X174894767Y-86403763D01*
X174797267Y-86586172D01*
X174666054Y-86746054D01*
X174506172Y-86877267D01*
X174323763Y-86974767D01*
X174257787Y-86994780D01*
X174125836Y-87034807D01*
X174048707Y-87042404D01*
X173971580Y-87050000D01*
X173868420Y-87050000D01*
X173791293Y-87042404D01*
X173714164Y-87034807D01*
X173582213Y-86994780D01*
X173516237Y-86974767D01*
X173333828Y-86877267D01*
X173173946Y-86746054D01*
X173042733Y-86586172D01*
X172945233Y-86403763D01*
X172925220Y-86337787D01*
X172885193Y-86205836D01*
X172864920Y-86000000D01*
X172885193Y-85794164D01*
X172945233Y-85596238D01*
X172945233Y-85596237D01*
X173042733Y-85413828D01*
X173173946Y-85253946D01*
X173333828Y-85122733D01*
X173516237Y-85025233D01*
X173582213Y-85005220D01*
X173714164Y-84965193D01*
X173791293Y-84957597D01*
X173868420Y-84950000D01*
X173971580Y-84950000D01*
X174048707Y-84957597D01*
X174048707Y-84957597D01*
G37*
G36*
X180050000Y-87050000D02*
G01*
X177950000Y-87050000D01*
X177950000Y-84950000D01*
X180050000Y-84950000D01*
X180050000Y-87050000D01*
X180050000Y-87050000D01*
G37*
G36*
X171508707Y-84957597D02*
G01*
X171585836Y-84965193D01*
X171717787Y-85005220D01*
X171783763Y-85025233D01*
X171966172Y-85122733D01*
X172126054Y-85253946D01*
X172257267Y-85413828D01*
X172354767Y-85596237D01*
X172354767Y-85596238D01*
X172414807Y-85794164D01*
X172435080Y-86000000D01*
X172414807Y-86205836D01*
X172374780Y-86337787D01*
X172354767Y-86403763D01*
X172257267Y-86586172D01*
X172126054Y-86746054D01*
X171966172Y-86877267D01*
X171783763Y-86974767D01*
X171717787Y-86994780D01*
X171585836Y-87034807D01*
X171508707Y-87042404D01*
X171431580Y-87050000D01*
X171328420Y-87050000D01*
X171251293Y-87042404D01*
X171174164Y-87034807D01*
X171042213Y-86994780D01*
X170976237Y-86974767D01*
X170793828Y-86877267D01*
X170633946Y-86746054D01*
X170502733Y-86586172D01*
X170405233Y-86403763D01*
X170385220Y-86337787D01*
X170345193Y-86205836D01*
X170324920Y-86000000D01*
X170345193Y-85794164D01*
X170405233Y-85596238D01*
X170405233Y-85596237D01*
X170502733Y-85413828D01*
X170633946Y-85253946D01*
X170793828Y-85122733D01*
X170976237Y-85025233D01*
X171042213Y-85005220D01*
X171174164Y-84965193D01*
X171251293Y-84957597D01*
X171328420Y-84950000D01*
X171431580Y-84950000D01*
X171508707Y-84957597D01*
X171508707Y-84957597D01*
G37*
M02*
