M48
;DRILL file {KiCad (2017-06-16 revision 2018d4894)-master} date Fri Aug 18 11:46:37 2017
;FORMAT={-:-/ absolute / metric / decimal}
FMAT,2
METRIC,TZ
T1C0.400
T2C0.700
T3C0.800
T4C1.000
%
G90
G05
M71
T1
X181.Y-102.5
X184.5Y-99.
X191.Y-91.5
T2
X148.73Y-95.
X150.Y-93.73
X150.Y-96.27
X151.27Y-95.
T3
X173.Y-95.885
X176.81Y-95.885
X186.055Y-101.346
X189.865Y-101.346
X181.31Y-93.69
X181.31Y-97.5
T4
X171.42Y-86.96
X171.42Y-89.5
X173.96Y-86.96
X173.96Y-89.5
X176.5Y-86.96
X176.5Y-89.5
X179.04Y-86.96
X179.04Y-89.5
T0
M30
