G04 #@! TF.GenerationSoftware,KiCad,Pcbnew,(6.0.0-rc1-dev-1561-g9cac0a38c)*
G04 #@! TF.CreationDate,2019-02-19T10:43:41+01:00
G04 #@! TF.ProjectId,reference_board,72656665-7265-46e6-9365-5f626f617264,v3.1.0*
G04 #@! TF.SameCoordinates,Original*
G04 #@! TF.FileFunction,Profile,NP*
%FSLAX46Y46*%
G04 Gerber Fmt 4.6, Leading zero omitted, Abs format (unit mm)*
G04 Created by KiCad (PCBNEW (6.0.0-rc1-dev-1561-g9cac0a38c)) date 2019-02-19T10:43:41 CET*
%MOMM*%
%LPD*%
G04 APERTURE LIST*
%ADD10C,0.150000*%
G04 APERTURE END LIST*
D10*
X149000000Y-83000000D02*
X149000000Y-108000000D01*
X183000000Y-108000000D02*
X149000000Y-108000000D01*
X183000000Y-83000000D02*
X183000000Y-108000000D01*
X149000000Y-83000000D02*
X183000000Y-83000000D01*
X168000000Y-87000000D02*
G75*
G03X167000000Y-87000000I-500000J0D01*
G01*
X167000000Y-103000000D02*
G75*
G03X168000000Y-103000000I500000J0D01*
G01*
X167000000Y-87000000D02*
X167000000Y-103000000D01*
X168000000Y-87000000D02*
X168000000Y-103000000D01*
X159685077Y-88721360D02*
G75*
G02X164280000Y-93320000I-1685077J-6278640D01*
G01*
X160072327Y-87270624D02*
G75*
G02X165730000Y-92930000I-2072327J-7729376D01*
G01*
X165720000Y-92920000D02*
G75*
G02X164280000Y-93320000I-720000J-200000D01*
G01*
X159690000Y-88730000D02*
G75*
G02X160070000Y-87270000I190000J730000D01*
G01*
X151721360Y-93314923D02*
G75*
G02X156320000Y-88720000I6278640J-1685077D01*
G01*
X150270624Y-92927673D02*
G75*
G02X155930000Y-87270000I7729376J-2072327D01*
G01*
X155920000Y-87280000D02*
G75*
G02X156320000Y-88720000I200000J-720000D01*
G01*
X151730000Y-93310000D02*
G75*
G02X150270000Y-92930000I-730000J190000D01*
G01*
X156314923Y-101278640D02*
G75*
G02X151720000Y-96680000I1685077J6278640D01*
G01*
X155927673Y-102729376D02*
G75*
G02X150270000Y-97070000I2072327J7729376D01*
G01*
X150280000Y-97080000D02*
G75*
G02X151720000Y-96680000I720000J200000D01*
G01*
X156310000Y-101270000D02*
G75*
G02X155930000Y-102730000I-190000J-730000D01*
G01*
X164278640Y-96685077D02*
G75*
G02X159680000Y-101280000I-6278640J1685077D01*
G01*
X165729376Y-97072327D02*
G75*
G02X160070000Y-102730000I-7729376J2072327D01*
G01*
X160080000Y-102720000D02*
G75*
G02X159680000Y-101280000I-200000J720000D01*
G01*
X164270000Y-96690000D02*
G75*
G02X165730000Y-97070000I730000J-190000D01*
G01*
M02*
