G04 #@! TF.GenerationSoftware,KiCad,Pcbnew,(6.0.0-rc1-dev-696-g8c56f5b03)*
G04 #@! TF.CreationDate,2019-01-11T00:51:06+01:00*
G04 #@! TF.ProjectId,reference_board,7265666572656E63655F626F6172642E,v3.1.0*
G04 #@! TF.SameCoordinates,Original*
G04 #@! TF.FileFunction,Soldermask,Top*
G04 #@! TF.FilePolarity,Negative*
%FSLAX46Y46*%
G04 Gerber Fmt 4.6, Leading zero omitted, Abs format (unit mm)*
G04 Created by KiCad (PCBNEW (6.0.0-rc1-dev-696-g8c56f5b03)) date Fri Jan 11 00:51:06 2019*
%MOMM*%
%LPD*%
G01*
G04 APERTURE LIST*
%ADD10C,0.100000*%
G04 APERTURE END LIST*
D10*
G36*
X153743807Y-102547995D02*
X154207877Y-102740219D01*
X154625533Y-103019288D01*
X154980712Y-103374467D01*
X155259781Y-103792123D01*
X155452005Y-104256193D01*
X155550000Y-104748846D01*
X155550000Y-105251154D01*
X155452005Y-105743807D01*
X155259781Y-106207877D01*
X154980712Y-106625533D01*
X154625533Y-106980712D01*
X154207877Y-107259781D01*
X153743807Y-107452005D01*
X153251154Y-107550000D01*
X152748846Y-107550000D01*
X152256193Y-107452005D01*
X151792123Y-107259781D01*
X151374467Y-106980712D01*
X151019288Y-106625533D01*
X150740219Y-106207877D01*
X150547995Y-105743807D01*
X150450000Y-105251154D01*
X150450000Y-104748846D01*
X150547995Y-104256193D01*
X150740219Y-103792123D01*
X151019288Y-103374467D01*
X151374467Y-103019288D01*
X151792123Y-102740219D01*
X152256193Y-102547995D01*
X152748846Y-102450000D01*
X153251154Y-102450000D01*
X153743807Y-102547995D01*
X153743807Y-102547995D01*
G37*
G36*
X171773497Y-104955997D02*
X171826153Y-104971970D01*
X171874665Y-104997900D01*
X171917196Y-105032804D01*
X171952100Y-105075335D01*
X171978030Y-105123847D01*
X171994003Y-105176503D01*
X172000000Y-105237390D01*
X172000000Y-106037610D01*
X171994003Y-106098497D01*
X171978030Y-106151153D01*
X171952100Y-106199665D01*
X171917196Y-106242196D01*
X171874665Y-106277100D01*
X171826153Y-106303030D01*
X171773497Y-106319003D01*
X171712610Y-106325000D01*
X170487390Y-106325000D01*
X170426503Y-106319003D01*
X170373847Y-106303030D01*
X170325335Y-106277100D01*
X170282804Y-106242196D01*
X170247900Y-106199665D01*
X170221970Y-106151153D01*
X170205997Y-106098497D01*
X170200000Y-106037610D01*
X170200000Y-105237390D01*
X170205997Y-105176503D01*
X170221970Y-105123847D01*
X170247900Y-105075335D01*
X170282804Y-105032804D01*
X170325335Y-104997900D01*
X170373847Y-104971970D01*
X170426503Y-104955997D01*
X170487390Y-104950000D01*
X171712610Y-104950000D01*
X171773497Y-104955997D01*
X171773497Y-104955997D01*
G37*
G36*
X171773497Y-103080997D02*
X171826153Y-103096970D01*
X171874665Y-103122900D01*
X171917196Y-103157804D01*
X171952100Y-103200335D01*
X171978030Y-103248847D01*
X171994003Y-103301503D01*
X172000000Y-103362390D01*
X172000000Y-104162610D01*
X171994003Y-104223497D01*
X171978030Y-104276153D01*
X171952100Y-104324665D01*
X171917196Y-104367196D01*
X171874665Y-104402100D01*
X171826153Y-104428030D01*
X171773497Y-104444003D01*
X171712610Y-104450000D01*
X170487390Y-104450000D01*
X170426503Y-104444003D01*
X170373847Y-104428030D01*
X170325335Y-104402100D01*
X170282804Y-104367196D01*
X170247900Y-104324665D01*
X170221970Y-104276153D01*
X170205997Y-104223497D01*
X170200000Y-104162610D01*
X170200000Y-103362390D01*
X170205997Y-103301503D01*
X170221970Y-103248847D01*
X170247900Y-103200335D01*
X170282804Y-103157804D01*
X170325335Y-103122900D01*
X170373847Y-103096970D01*
X170426503Y-103080997D01*
X170487390Y-103075000D01*
X171712610Y-103075000D01*
X171773497Y-103080997D01*
X171773497Y-103080997D01*
G37*
G36*
X175310000Y-103650000D02*
X173410000Y-103650000D01*
X173410000Y-101750000D01*
X175310000Y-101750000D01*
X175310000Y-103650000D01*
X175310000Y-103650000D01*
G37*
G36*
X179579451Y-101759127D02*
X179717105Y-101786508D01*
X179889994Y-101858121D01*
X180045590Y-101962087D01*
X180177913Y-102094410D01*
X180281879Y-102250006D01*
X180353492Y-102422895D01*
X180390000Y-102606433D01*
X180390000Y-102793567D01*
X180353492Y-102977105D01*
X180281879Y-103149994D01*
X180177913Y-103305590D01*
X180045590Y-103437913D01*
X179889994Y-103541879D01*
X179717105Y-103613492D01*
X179579451Y-103640873D01*
X179533568Y-103650000D01*
X179346432Y-103650000D01*
X179300548Y-103640873D01*
X179162895Y-103613492D01*
X178990006Y-103541879D01*
X178834410Y-103437913D01*
X178702087Y-103305590D01*
X178598121Y-103149994D01*
X178526508Y-102977105D01*
X178490000Y-102793567D01*
X178490000Y-102606433D01*
X178526508Y-102422895D01*
X178598121Y-102250006D01*
X178702087Y-102094410D01*
X178834410Y-101962087D01*
X178990006Y-101858121D01*
X179162895Y-101786508D01*
X179300549Y-101759127D01*
X179346432Y-101750000D01*
X179533568Y-101750000D01*
X179579451Y-101759127D01*
X179579451Y-101759127D01*
G37*
G36*
X177039451Y-101759127D02*
X177177105Y-101786508D01*
X177349994Y-101858121D01*
X177505590Y-101962087D01*
X177637913Y-102094410D01*
X177741879Y-102250006D01*
X177813492Y-102422895D01*
X177850000Y-102606433D01*
X177850000Y-102793567D01*
X177813492Y-102977105D01*
X177741879Y-103149994D01*
X177637913Y-103305590D01*
X177505590Y-103437913D01*
X177349994Y-103541879D01*
X177177105Y-103613492D01*
X177039451Y-103640873D01*
X176993568Y-103650000D01*
X176806432Y-103650000D01*
X176760548Y-103640873D01*
X176622895Y-103613492D01*
X176450006Y-103541879D01*
X176294410Y-103437913D01*
X176162087Y-103305590D01*
X176058121Y-103149994D01*
X175986508Y-102977105D01*
X175950000Y-102793567D01*
X175950000Y-102606433D01*
X175986508Y-102422895D01*
X176058121Y-102250006D01*
X176162087Y-102094410D01*
X176294410Y-101962087D01*
X176450006Y-101858121D01*
X176622895Y-101786508D01*
X176760549Y-101759127D01*
X176806432Y-101750000D01*
X176993568Y-101750000D01*
X177039451Y-101759127D01*
X177039451Y-101759127D01*
G37*
G36*
X171568622Y-101155517D02*
X171616585Y-101170066D01*
X171660775Y-101193686D01*
X171699518Y-101225482D01*
X171731314Y-101264225D01*
X171754934Y-101308415D01*
X171769483Y-101356378D01*
X171775000Y-101412391D01*
X171775000Y-102162609D01*
X171769483Y-102218622D01*
X171754934Y-102266585D01*
X171731314Y-102310775D01*
X171699518Y-102349518D01*
X171660775Y-102381314D01*
X171616585Y-102404934D01*
X171568622Y-102419483D01*
X171512609Y-102425000D01*
X170687391Y-102425000D01*
X170631378Y-102419483D01*
X170583415Y-102404934D01*
X170539225Y-102381314D01*
X170500482Y-102349518D01*
X170468686Y-102310775D01*
X170445066Y-102266585D01*
X170430517Y-102218622D01*
X170425000Y-102162609D01*
X170425000Y-101412391D01*
X170430517Y-101356378D01*
X170445066Y-101308415D01*
X170468686Y-101264225D01*
X170500482Y-101225482D01*
X170539225Y-101193686D01*
X170583415Y-101170066D01*
X170631378Y-101155517D01*
X170687391Y-101150000D01*
X171512609Y-101150000D01*
X171568622Y-101155517D01*
X171568622Y-101155517D01*
G37*
G36*
X171568622Y-99580517D02*
X171616585Y-99595066D01*
X171660775Y-99618686D01*
X171699518Y-99650482D01*
X171731314Y-99689225D01*
X171754934Y-99733415D01*
X171769483Y-99781378D01*
X171775000Y-99837391D01*
X171775000Y-100587609D01*
X171769483Y-100643622D01*
X171754934Y-100691585D01*
X171731314Y-100735775D01*
X171699518Y-100774518D01*
X171660775Y-100806314D01*
X171616585Y-100829934D01*
X171568622Y-100844483D01*
X171512609Y-100850000D01*
X170687391Y-100850000D01*
X170631378Y-100844483D01*
X170583415Y-100829934D01*
X170539225Y-100806314D01*
X170500482Y-100774518D01*
X170468686Y-100735775D01*
X170445066Y-100691585D01*
X170430517Y-100643622D01*
X170425000Y-100587609D01*
X170425000Y-99837391D01*
X170430517Y-99781378D01*
X170445066Y-99733415D01*
X170468686Y-99689225D01*
X170500482Y-99650482D01*
X170539225Y-99618686D01*
X170583415Y-99595066D01*
X170631378Y-99580517D01*
X170687391Y-99575000D01*
X171512609Y-99575000D01*
X171568622Y-99580517D01*
X171568622Y-99580517D01*
G37*
G36*
X178019628Y-98530493D02*
X178067354Y-98544970D01*
X178111336Y-98568479D01*
X178149885Y-98600115D01*
X178181521Y-98638664D01*
X178205030Y-98682646D01*
X178219507Y-98730372D01*
X178225000Y-98786141D01*
X178225000Y-100413859D01*
X178219507Y-100469628D01*
X178205030Y-100517354D01*
X178181521Y-100561336D01*
X178149885Y-100599885D01*
X178111336Y-100631521D01*
X178067354Y-100655030D01*
X178019628Y-100669507D01*
X177963859Y-100675000D01*
X176836141Y-100675000D01*
X176780372Y-100669507D01*
X176732646Y-100655030D01*
X176688664Y-100631521D01*
X176650115Y-100599885D01*
X176618479Y-100561336D01*
X176594970Y-100517354D01*
X176580493Y-100469628D01*
X176575000Y-100413859D01*
X176575000Y-98786141D01*
X176580493Y-98730372D01*
X176594970Y-98682646D01*
X176618479Y-98638664D01*
X176650115Y-98600115D01*
X176688664Y-98568479D01*
X176732646Y-98544970D01*
X176780372Y-98530493D01*
X176836141Y-98525000D01*
X177963859Y-98525000D01*
X178019628Y-98530493D01*
X178019628Y-98530493D01*
G37*
G36*
X175219628Y-98530493D02*
X175267354Y-98544970D01*
X175311336Y-98568479D01*
X175349885Y-98600115D01*
X175381521Y-98638664D01*
X175405030Y-98682646D01*
X175419507Y-98730372D01*
X175425000Y-98786141D01*
X175425000Y-100413859D01*
X175419507Y-100469628D01*
X175405030Y-100517354D01*
X175381521Y-100561336D01*
X175349885Y-100599885D01*
X175311336Y-100631521D01*
X175267354Y-100655030D01*
X175219628Y-100669507D01*
X175163859Y-100675000D01*
X174036141Y-100675000D01*
X173980372Y-100669507D01*
X173932646Y-100655030D01*
X173888664Y-100631521D01*
X173850115Y-100599885D01*
X173818479Y-100561336D01*
X173794970Y-100517354D01*
X173780493Y-100469628D01*
X173775000Y-100413859D01*
X173775000Y-98786141D01*
X173780493Y-98730372D01*
X173794970Y-98682646D01*
X173818479Y-98638664D01*
X173850115Y-98600115D01*
X173888664Y-98568479D01*
X173932646Y-98544970D01*
X173980372Y-98530493D01*
X174036141Y-98525000D01*
X175163859Y-98525000D01*
X175219628Y-98530493D01*
X175219628Y-98530493D01*
G37*
G36*
X170569628Y-96380493D02*
X170617354Y-96394970D01*
X170661336Y-96418479D01*
X170699885Y-96450115D01*
X170731521Y-96488664D01*
X170755030Y-96532646D01*
X170769507Y-96580372D01*
X170775000Y-96636141D01*
X170775000Y-97763859D01*
X170769507Y-97819628D01*
X170755030Y-97867354D01*
X170731521Y-97911336D01*
X170699885Y-97949885D01*
X170661336Y-97981521D01*
X170617354Y-98005030D01*
X170569628Y-98019507D01*
X170513859Y-98025000D01*
X168886141Y-98025000D01*
X168830372Y-98019507D01*
X168782646Y-98005030D01*
X168738664Y-97981521D01*
X168700115Y-97949885D01*
X168668479Y-97911336D01*
X168644970Y-97867354D01*
X168630493Y-97819628D01*
X168625000Y-97763859D01*
X168625000Y-96636141D01*
X168630493Y-96580372D01*
X168644970Y-96532646D01*
X168668479Y-96488664D01*
X168700115Y-96450115D01*
X168738664Y-96418479D01*
X168782646Y-96394970D01*
X168830372Y-96380493D01*
X168886141Y-96375000D01*
X170513859Y-96375000D01*
X170569628Y-96380493D01*
X170569628Y-96380493D01*
G37*
G36*
X173575000Y-98005000D02*
X171625000Y-98005000D01*
X171625000Y-97005000D01*
X173575000Y-97005000D01*
X173575000Y-98005000D01*
X173575000Y-98005000D01*
G37*
G36*
X178975000Y-98005000D02*
X177025000Y-98005000D01*
X177025000Y-97005000D01*
X178975000Y-97005000D01*
X178975000Y-98005000D01*
X178975000Y-98005000D01*
G37*
G36*
X158146318Y-95534411D02*
X158218767Y-95548822D01*
X158268410Y-95569385D01*
X158355257Y-95605358D01*
X158478100Y-95687439D01*
X158582561Y-95791900D01*
X158664642Y-95914743D01*
X158697760Y-95994697D01*
X158721178Y-96051233D01*
X158750000Y-96196131D01*
X158750000Y-96343869D01*
X158721178Y-96488767D01*
X158697760Y-96545303D01*
X158664642Y-96625257D01*
X158582561Y-96748100D01*
X158478100Y-96852561D01*
X158355257Y-96934642D01*
X158275303Y-96967760D01*
X158218767Y-96991178D01*
X158149279Y-97005000D01*
X158073870Y-97020000D01*
X157926130Y-97020000D01*
X157850721Y-97005000D01*
X157781233Y-96991178D01*
X157724697Y-96967760D01*
X157644743Y-96934642D01*
X157521900Y-96852561D01*
X157417439Y-96748100D01*
X157335358Y-96625257D01*
X157302240Y-96545303D01*
X157278822Y-96488767D01*
X157250000Y-96343869D01*
X157250000Y-96196131D01*
X157278822Y-96051233D01*
X157302240Y-95994697D01*
X157335358Y-95914743D01*
X157417439Y-95791900D01*
X157521900Y-95687439D01*
X157644743Y-95605358D01*
X157731590Y-95569385D01*
X157781233Y-95548822D01*
X157853682Y-95534411D01*
X157926130Y-95520000D01*
X158073870Y-95520000D01*
X158146318Y-95534411D01*
X158146318Y-95534411D01*
G37*
G36*
X173575000Y-96735000D02*
X171625000Y-96735000D01*
X171625000Y-95735000D01*
X173575000Y-95735000D01*
X173575000Y-96735000D01*
X173575000Y-96735000D01*
G37*
G36*
X178975000Y-96735000D02*
X177025000Y-96735000D01*
X177025000Y-95735000D01*
X178975000Y-95735000D01*
X178975000Y-96735000D01*
X178975000Y-96735000D01*
G37*
G36*
X156876318Y-94264411D02*
X156948767Y-94278822D01*
X157005303Y-94302240D01*
X157085257Y-94335358D01*
X157208100Y-94417439D01*
X157312561Y-94521900D01*
X157394642Y-94644743D01*
X157451178Y-94781234D01*
X157480000Y-94926130D01*
X157480000Y-95073870D01*
X157451178Y-95218766D01*
X157394642Y-95355257D01*
X157312561Y-95478100D01*
X157208100Y-95582561D01*
X157085257Y-95664642D01*
X157005303Y-95697760D01*
X156948767Y-95721178D01*
X156879279Y-95735000D01*
X156803870Y-95750000D01*
X156656130Y-95750000D01*
X156580721Y-95735000D01*
X156511233Y-95721178D01*
X156454697Y-95697760D01*
X156374743Y-95664642D01*
X156251900Y-95582561D01*
X156147439Y-95478100D01*
X156065358Y-95355257D01*
X156008822Y-95218766D01*
X155980000Y-95073870D01*
X155980000Y-94926130D01*
X156008822Y-94781234D01*
X156065358Y-94644743D01*
X156147439Y-94521900D01*
X156251900Y-94417439D01*
X156374743Y-94335358D01*
X156454697Y-94302240D01*
X156511233Y-94278822D01*
X156583682Y-94264411D01*
X156656130Y-94250000D01*
X156803870Y-94250000D01*
X156876318Y-94264411D01*
X156876318Y-94264411D01*
G37*
G36*
X159416318Y-94264411D02*
X159488767Y-94278822D01*
X159545303Y-94302240D01*
X159625257Y-94335358D01*
X159748100Y-94417439D01*
X159852561Y-94521900D01*
X159934642Y-94644743D01*
X159991178Y-94781234D01*
X160020000Y-94926130D01*
X160020000Y-95073870D01*
X159991178Y-95218766D01*
X159934642Y-95355257D01*
X159852561Y-95478100D01*
X159748100Y-95582561D01*
X159625257Y-95664642D01*
X159545303Y-95697760D01*
X159488767Y-95721178D01*
X159419279Y-95735000D01*
X159343870Y-95750000D01*
X159196130Y-95750000D01*
X159120721Y-95735000D01*
X159051233Y-95721178D01*
X158994697Y-95697760D01*
X158914743Y-95664642D01*
X158791900Y-95582561D01*
X158687439Y-95478100D01*
X158605358Y-95355257D01*
X158548822Y-95218766D01*
X158520000Y-95073870D01*
X158520000Y-94926130D01*
X158548822Y-94781234D01*
X158605358Y-94644743D01*
X158687439Y-94521900D01*
X158791900Y-94417439D01*
X158914743Y-94335358D01*
X158994697Y-94302240D01*
X159051233Y-94278822D01*
X159123682Y-94264411D01*
X159196130Y-94250000D01*
X159343870Y-94250000D01*
X159416318Y-94264411D01*
X159416318Y-94264411D01*
G37*
G36*
X181469628Y-93980493D02*
X181517354Y-93994970D01*
X181561336Y-94018479D01*
X181599885Y-94050115D01*
X181631521Y-94088664D01*
X181655030Y-94132646D01*
X181669507Y-94180372D01*
X181675000Y-94236141D01*
X181675000Y-95363859D01*
X181669507Y-95419628D01*
X181655030Y-95467354D01*
X181631521Y-95511336D01*
X181599885Y-95549885D01*
X181561336Y-95581521D01*
X181517354Y-95605030D01*
X181469628Y-95619507D01*
X181413859Y-95625000D01*
X179786141Y-95625000D01*
X179730372Y-95619507D01*
X179682646Y-95605030D01*
X179638664Y-95581521D01*
X179600115Y-95549885D01*
X179568479Y-95511336D01*
X179544970Y-95467354D01*
X179530493Y-95419628D01*
X179525000Y-95363859D01*
X179525000Y-94236141D01*
X179530493Y-94180372D01*
X179544970Y-94132646D01*
X179568479Y-94088664D01*
X179600115Y-94050115D01*
X179638664Y-94018479D01*
X179682646Y-93994970D01*
X179730372Y-93980493D01*
X179786141Y-93975000D01*
X181413859Y-93975000D01*
X181469628Y-93980493D01*
X181469628Y-93980493D01*
G37*
G36*
X173575000Y-95465000D02*
X171625000Y-95465000D01*
X171625000Y-94465000D01*
X173575000Y-94465000D01*
X173575000Y-95465000D01*
X173575000Y-95465000D01*
G37*
G36*
X178975000Y-95465000D02*
X177025000Y-95465000D01*
X177025000Y-94465000D01*
X178975000Y-94465000D01*
X178975000Y-95465000D01*
X178975000Y-95465000D01*
G37*
G36*
X170569628Y-93580493D02*
X170617354Y-93594970D01*
X170661336Y-93618479D01*
X170699885Y-93650115D01*
X170731521Y-93688664D01*
X170755030Y-93732646D01*
X170769507Y-93780372D01*
X170775000Y-93836141D01*
X170775000Y-94963859D01*
X170769507Y-95019628D01*
X170755030Y-95067354D01*
X170731521Y-95111336D01*
X170699885Y-95149885D01*
X170661336Y-95181521D01*
X170617354Y-95205030D01*
X170569628Y-95219507D01*
X170513859Y-95225000D01*
X168886141Y-95225000D01*
X168830372Y-95219507D01*
X168782646Y-95205030D01*
X168738664Y-95181521D01*
X168700115Y-95149885D01*
X168668479Y-95111336D01*
X168644970Y-95067354D01*
X168630493Y-95019628D01*
X168625000Y-94963859D01*
X168625000Y-93836141D01*
X168630493Y-93780372D01*
X168644970Y-93732646D01*
X168668479Y-93688664D01*
X168700115Y-93650115D01*
X168738664Y-93618479D01*
X168782646Y-93594970D01*
X168830372Y-93580493D01*
X168886141Y-93575000D01*
X170513859Y-93575000D01*
X170569628Y-93580493D01*
X170569628Y-93580493D01*
G37*
G36*
X158146318Y-92994411D02*
X158218767Y-93008822D01*
X158275303Y-93032240D01*
X158355257Y-93065358D01*
X158478100Y-93147439D01*
X158582561Y-93251900D01*
X158664642Y-93374743D01*
X158721178Y-93511234D01*
X158748804Y-93650115D01*
X158750000Y-93656131D01*
X158750000Y-93803869D01*
X158721178Y-93948767D01*
X158707685Y-93981341D01*
X158664642Y-94085257D01*
X158582561Y-94208100D01*
X158478100Y-94312561D01*
X158355257Y-94394642D01*
X158275303Y-94427760D01*
X158218767Y-94451178D01*
X158149279Y-94465000D01*
X158073870Y-94480000D01*
X157926130Y-94480000D01*
X157850721Y-94465000D01*
X157781233Y-94451178D01*
X157724697Y-94427760D01*
X157644743Y-94394642D01*
X157521900Y-94312561D01*
X157417439Y-94208100D01*
X157335358Y-94085257D01*
X157292315Y-93981341D01*
X157278822Y-93948767D01*
X157250000Y-93803869D01*
X157250000Y-93656131D01*
X157251197Y-93650115D01*
X157278822Y-93511234D01*
X157335358Y-93374743D01*
X157417439Y-93251900D01*
X157521900Y-93147439D01*
X157644743Y-93065358D01*
X157724697Y-93032240D01*
X157781233Y-93008822D01*
X157853682Y-92994411D01*
X157926130Y-92980000D01*
X158073870Y-92980000D01*
X158146318Y-92994411D01*
X158146318Y-92994411D01*
G37*
G36*
X178975000Y-94195000D02*
X177025000Y-94195000D01*
X177025000Y-93195000D01*
X178975000Y-93195000D01*
X178975000Y-94195000D01*
X178975000Y-94195000D01*
G37*
G36*
X173575000Y-94195000D02*
X171625000Y-94195000D01*
X171625000Y-93195000D01*
X173575000Y-93195000D01*
X173575000Y-94195000D01*
X173575000Y-94195000D01*
G37*
G36*
X181469628Y-91180493D02*
X181517354Y-91194970D01*
X181561336Y-91218479D01*
X181599885Y-91250115D01*
X181631521Y-91288664D01*
X181655030Y-91332646D01*
X181669507Y-91380372D01*
X181675000Y-91436141D01*
X181675000Y-92563859D01*
X181669507Y-92619628D01*
X181655030Y-92667354D01*
X181631521Y-92711336D01*
X181599885Y-92749885D01*
X181561336Y-92781521D01*
X181517354Y-92805030D01*
X181469628Y-92819507D01*
X181413859Y-92825000D01*
X179786141Y-92825000D01*
X179730372Y-92819507D01*
X179682646Y-92805030D01*
X179638664Y-92781521D01*
X179600115Y-92749885D01*
X179568479Y-92711336D01*
X179544970Y-92667354D01*
X179530493Y-92619628D01*
X179525000Y-92563859D01*
X179525000Y-91436141D01*
X179530493Y-91380372D01*
X179544970Y-91332646D01*
X179568479Y-91288664D01*
X179600115Y-91250115D01*
X179638664Y-91218479D01*
X179682646Y-91194970D01*
X179730372Y-91180493D01*
X179786141Y-91175000D01*
X181413859Y-91175000D01*
X181469628Y-91180493D01*
X181469628Y-91180493D01*
G37*
G36*
X171508707Y-87497597D02*
X171585836Y-87505193D01*
X171717787Y-87545220D01*
X171783763Y-87565233D01*
X171966172Y-87662733D01*
X172126054Y-87793946D01*
X172257267Y-87953828D01*
X172354767Y-88136237D01*
X172354767Y-88136238D01*
X172414807Y-88334164D01*
X172435080Y-88540000D01*
X172414807Y-88745836D01*
X172374780Y-88877787D01*
X172354767Y-88943763D01*
X172257267Y-89126172D01*
X172126054Y-89286054D01*
X171966172Y-89417267D01*
X171783763Y-89514767D01*
X171717787Y-89534780D01*
X171585836Y-89574807D01*
X171508707Y-89582403D01*
X171431580Y-89590000D01*
X171328420Y-89590000D01*
X171251293Y-89582403D01*
X171174164Y-89574807D01*
X171042213Y-89534780D01*
X170976237Y-89514767D01*
X170793828Y-89417267D01*
X170633946Y-89286054D01*
X170502733Y-89126172D01*
X170405233Y-88943763D01*
X170385220Y-88877787D01*
X170345193Y-88745836D01*
X170324920Y-88540000D01*
X170345193Y-88334164D01*
X170405233Y-88136238D01*
X170405233Y-88136237D01*
X170502733Y-87953828D01*
X170633946Y-87793946D01*
X170793828Y-87662733D01*
X170976237Y-87565233D01*
X171042213Y-87545220D01*
X171174164Y-87505193D01*
X171251293Y-87497597D01*
X171328420Y-87490000D01*
X171431580Y-87490000D01*
X171508707Y-87497597D01*
X171508707Y-87497597D01*
G37*
G36*
X179128707Y-87497597D02*
X179205836Y-87505193D01*
X179337787Y-87545220D01*
X179403763Y-87565233D01*
X179586172Y-87662733D01*
X179746054Y-87793946D01*
X179877267Y-87953828D01*
X179974767Y-88136237D01*
X179974767Y-88136238D01*
X180034807Y-88334164D01*
X180055080Y-88540000D01*
X180034807Y-88745836D01*
X179994780Y-88877787D01*
X179974767Y-88943763D01*
X179877267Y-89126172D01*
X179746054Y-89286054D01*
X179586172Y-89417267D01*
X179403763Y-89514767D01*
X179337787Y-89534780D01*
X179205836Y-89574807D01*
X179128707Y-89582403D01*
X179051580Y-89590000D01*
X178948420Y-89590000D01*
X178871293Y-89582403D01*
X178794164Y-89574807D01*
X178662213Y-89534780D01*
X178596237Y-89514767D01*
X178413828Y-89417267D01*
X178253946Y-89286054D01*
X178122733Y-89126172D01*
X178025233Y-88943763D01*
X178005220Y-88877787D01*
X177965193Y-88745836D01*
X177944920Y-88540000D01*
X177965193Y-88334164D01*
X178025233Y-88136238D01*
X178025233Y-88136237D01*
X178122733Y-87953828D01*
X178253946Y-87793946D01*
X178413828Y-87662733D01*
X178596237Y-87565233D01*
X178662213Y-87545220D01*
X178794164Y-87505193D01*
X178871293Y-87497597D01*
X178948420Y-87490000D01*
X179051580Y-87490000D01*
X179128707Y-87497597D01*
X179128707Y-87497597D01*
G37*
G36*
X174048707Y-87497597D02*
X174125836Y-87505193D01*
X174257787Y-87545220D01*
X174323763Y-87565233D01*
X174506172Y-87662733D01*
X174666054Y-87793946D01*
X174797267Y-87953828D01*
X174894767Y-88136237D01*
X174894767Y-88136238D01*
X174954807Y-88334164D01*
X174975080Y-88540000D01*
X174954807Y-88745836D01*
X174914780Y-88877787D01*
X174894767Y-88943763D01*
X174797267Y-89126172D01*
X174666054Y-89286054D01*
X174506172Y-89417267D01*
X174323763Y-89514767D01*
X174257787Y-89534780D01*
X174125836Y-89574807D01*
X174048707Y-89582403D01*
X173971580Y-89590000D01*
X173868420Y-89590000D01*
X173791293Y-89582403D01*
X173714164Y-89574807D01*
X173582213Y-89534780D01*
X173516237Y-89514767D01*
X173333828Y-89417267D01*
X173173946Y-89286054D01*
X173042733Y-89126172D01*
X172945233Y-88943763D01*
X172925220Y-88877787D01*
X172885193Y-88745836D01*
X172864920Y-88540000D01*
X172885193Y-88334164D01*
X172945233Y-88136238D01*
X172945233Y-88136237D01*
X173042733Y-87953828D01*
X173173946Y-87793946D01*
X173333828Y-87662733D01*
X173516237Y-87565233D01*
X173582213Y-87545220D01*
X173714164Y-87505193D01*
X173791293Y-87497597D01*
X173868420Y-87490000D01*
X173971580Y-87490000D01*
X174048707Y-87497597D01*
X174048707Y-87497597D01*
G37*
G36*
X176588707Y-87497597D02*
X176665836Y-87505193D01*
X176797787Y-87545220D01*
X176863763Y-87565233D01*
X177046172Y-87662733D01*
X177206054Y-87793946D01*
X177337267Y-87953828D01*
X177434767Y-88136237D01*
X177434767Y-88136238D01*
X177494807Y-88334164D01*
X177515080Y-88540000D01*
X177494807Y-88745836D01*
X177454780Y-88877787D01*
X177434767Y-88943763D01*
X177337267Y-89126172D01*
X177206054Y-89286054D01*
X177046172Y-89417267D01*
X176863763Y-89514767D01*
X176797787Y-89534780D01*
X176665836Y-89574807D01*
X176588707Y-89582403D01*
X176511580Y-89590000D01*
X176408420Y-89590000D01*
X176331293Y-89582403D01*
X176254164Y-89574807D01*
X176122213Y-89534780D01*
X176056237Y-89514767D01*
X175873828Y-89417267D01*
X175713946Y-89286054D01*
X175582733Y-89126172D01*
X175485233Y-88943763D01*
X175465220Y-88877787D01*
X175425193Y-88745836D01*
X175404920Y-88540000D01*
X175425193Y-88334164D01*
X175485233Y-88136238D01*
X175485233Y-88136237D01*
X175582733Y-87953828D01*
X175713946Y-87793946D01*
X175873828Y-87662733D01*
X176056237Y-87565233D01*
X176122213Y-87545220D01*
X176254164Y-87505193D01*
X176331293Y-87497597D01*
X176408420Y-87490000D01*
X176511580Y-87490000D01*
X176588707Y-87497597D01*
X176588707Y-87497597D01*
G37*
G36*
X180050000Y-87050000D02*
X177950000Y-87050000D01*
X177950000Y-84950000D01*
X180050000Y-84950000D01*
X180050000Y-87050000D01*
X180050000Y-87050000D01*
G37*
G36*
X163575000Y-87050000D02*
X162525000Y-87050000D01*
X162525000Y-84950000D01*
X163575000Y-84950000D01*
X163575000Y-87050000D01*
X163575000Y-87050000D01*
G37*
G36*
X176588707Y-84957597D02*
X176665836Y-84965193D01*
X176797787Y-85005220D01*
X176863763Y-85025233D01*
X177046172Y-85122733D01*
X177206054Y-85253946D01*
X177337267Y-85413828D01*
X177434767Y-85596237D01*
X177434767Y-85596238D01*
X177494807Y-85794164D01*
X177515080Y-86000000D01*
X177494807Y-86205836D01*
X177481410Y-86250000D01*
X177434767Y-86403763D01*
X177337267Y-86586172D01*
X177206054Y-86746054D01*
X177046172Y-86877267D01*
X176863763Y-86974767D01*
X176797787Y-86994780D01*
X176665836Y-87034807D01*
X176588707Y-87042404D01*
X176511580Y-87050000D01*
X176408420Y-87050000D01*
X176331293Y-87042404D01*
X176254164Y-87034807D01*
X176122213Y-86994780D01*
X176056237Y-86974767D01*
X175873828Y-86877267D01*
X175713946Y-86746054D01*
X175582733Y-86586172D01*
X175485233Y-86403763D01*
X175438590Y-86250000D01*
X175425193Y-86205836D01*
X175404920Y-86000000D01*
X175425193Y-85794164D01*
X175485233Y-85596238D01*
X175485233Y-85596237D01*
X175582733Y-85413828D01*
X175713946Y-85253946D01*
X175873828Y-85122733D01*
X176056237Y-85025233D01*
X176122213Y-85005220D01*
X176254164Y-84965193D01*
X176331293Y-84957597D01*
X176408420Y-84950000D01*
X176511580Y-84950000D01*
X176588707Y-84957597D01*
X176588707Y-84957597D01*
G37*
G36*
X174048707Y-84957597D02*
X174125836Y-84965193D01*
X174257787Y-85005220D01*
X174323763Y-85025233D01*
X174506172Y-85122733D01*
X174666054Y-85253946D01*
X174797267Y-85413828D01*
X174894767Y-85596237D01*
X174894767Y-85596238D01*
X174954807Y-85794164D01*
X174975080Y-86000000D01*
X174954807Y-86205836D01*
X174941410Y-86250000D01*
X174894767Y-86403763D01*
X174797267Y-86586172D01*
X174666054Y-86746054D01*
X174506172Y-86877267D01*
X174323763Y-86974767D01*
X174257787Y-86994780D01*
X174125836Y-87034807D01*
X174048707Y-87042404D01*
X173971580Y-87050000D01*
X173868420Y-87050000D01*
X173791293Y-87042404D01*
X173714164Y-87034807D01*
X173582213Y-86994780D01*
X173516237Y-86974767D01*
X173333828Y-86877267D01*
X173173946Y-86746054D01*
X173042733Y-86586172D01*
X172945233Y-86403763D01*
X172898590Y-86250000D01*
X172885193Y-86205836D01*
X172864920Y-86000000D01*
X172885193Y-85794164D01*
X172945233Y-85596238D01*
X172945233Y-85596237D01*
X173042733Y-85413828D01*
X173173946Y-85253946D01*
X173333828Y-85122733D01*
X173516237Y-85025233D01*
X173582213Y-85005220D01*
X173714164Y-84965193D01*
X173791293Y-84957597D01*
X173868420Y-84950000D01*
X173971580Y-84950000D01*
X174048707Y-84957597D01*
X174048707Y-84957597D01*
G37*
G36*
X171508707Y-84957597D02*
X171585836Y-84965193D01*
X171717787Y-85005220D01*
X171783763Y-85025233D01*
X171966172Y-85122733D01*
X172126054Y-85253946D01*
X172257267Y-85413828D01*
X172354767Y-85596237D01*
X172354767Y-85596238D01*
X172414807Y-85794164D01*
X172435080Y-86000000D01*
X172414807Y-86205836D01*
X172401410Y-86250000D01*
X172354767Y-86403763D01*
X172257267Y-86586172D01*
X172126054Y-86746054D01*
X171966172Y-86877267D01*
X171783763Y-86974767D01*
X171717787Y-86994780D01*
X171585836Y-87034807D01*
X171508707Y-87042404D01*
X171431580Y-87050000D01*
X171328420Y-87050000D01*
X171251293Y-87042404D01*
X171174164Y-87034807D01*
X171042213Y-86994780D01*
X170976237Y-86974767D01*
X170793828Y-86877267D01*
X170633946Y-86746054D01*
X170502733Y-86586172D01*
X170405233Y-86403763D01*
X170358590Y-86250000D01*
X170345193Y-86205836D01*
X170324920Y-86000000D01*
X170345193Y-85794164D01*
X170405233Y-85596238D01*
X170405233Y-85596237D01*
X170502733Y-85413828D01*
X170633946Y-85253946D01*
X170793828Y-85122733D01*
X170976237Y-85025233D01*
X171042213Y-85005220D01*
X171174164Y-84965193D01*
X171251293Y-84957597D01*
X171328420Y-84950000D01*
X171431580Y-84950000D01*
X171508707Y-84957597D01*
X171508707Y-84957597D01*
G37*
G36*
X165475000Y-87050000D02*
X164425000Y-87050000D01*
X164425000Y-86250000D01*
X165475000Y-86250000D01*
X165475000Y-87050000D01*
X165475000Y-87050000D01*
G37*
G36*
X165475000Y-85750000D02*
X164425000Y-85750000D01*
X164425000Y-84950000D01*
X165475000Y-84950000D01*
X165475000Y-85750000D01*
X165475000Y-85750000D01*
G37*
M02*
