G04 #@! TF.GenerationSoftware,KiCad,Pcbnew,5.1.6*
G04 #@! TF.CreationDate,2020-09-28T13:12:07+02:00*
G04 #@! TF.ProjectId,reference_board,72656665-7265-46e6-9365-5f626f617264,v3.2.1*
G04 #@! TF.SameCoordinates,Original*
G04 #@! TF.FileFunction,Legend,Bot*
G04 #@! TF.FilePolarity,Positive*
%FSLAX46Y46*%
G04 Gerber Fmt 4.6, Leading zero omitted, Abs format (unit mm)*
G04 Created by KiCad (PCBNEW 5.1.6) date 2020-09-28 13:12:07*
%MOMM*%
%LPD*%
G01*
G04 APERTURE LIST*
%ADD10C,0.200000*%
%ADD11C,0.300000*%
%ADD12C,0.150000*%
%ADD13C,0.120000*%
G04 APERTURE END LIST*
D10*
X131000000Y-68000000D02*
X120500000Y-68000000D01*
D11*
X133357142Y-66178571D02*
X132857142Y-67678571D01*
X132357142Y-66178571D01*
X131857142Y-67535714D02*
X131785714Y-67607142D01*
X131857142Y-67678571D01*
X131928571Y-67607142D01*
X131857142Y-67535714D01*
X131857142Y-67678571D01*
X131857142Y-66750000D02*
X131785714Y-66821428D01*
X131857142Y-66892857D01*
X131928571Y-66821428D01*
X131857142Y-66750000D01*
X131857142Y-66892857D01*
D12*
X119831071Y-72186904D02*
X120212023Y-72186904D01*
X120212023Y-71386904D01*
X119564404Y-72186904D02*
X119564404Y-71386904D01*
X119297738Y-71958333D01*
X119031071Y-71386904D01*
X119031071Y-72186904D01*
X118726309Y-71386904D02*
X118231071Y-71386904D01*
X118497738Y-71691666D01*
X118383452Y-71691666D01*
X118307261Y-71729761D01*
X118269166Y-71767857D01*
X118231071Y-71844047D01*
X118231071Y-72034523D01*
X118269166Y-72110714D01*
X118307261Y-72148809D01*
X118383452Y-72186904D01*
X118612023Y-72186904D01*
X118688214Y-72148809D01*
X118726309Y-72110714D01*
X117850119Y-72186904D02*
X117697738Y-72186904D01*
X117621547Y-72148809D01*
X117583452Y-72110714D01*
X117507261Y-71996428D01*
X117469166Y-71844047D01*
X117469166Y-71539285D01*
X117507261Y-71463095D01*
X117545357Y-71425000D01*
X117621547Y-71386904D01*
X117773928Y-71386904D01*
X117850119Y-71425000D01*
X117888214Y-71463095D01*
X117926309Y-71539285D01*
X117926309Y-71729761D01*
X117888214Y-71805952D01*
X117850119Y-71844047D01*
X117773928Y-71882142D01*
X117621547Y-71882142D01*
X117545357Y-71844047D01*
X117507261Y-71805952D01*
X117469166Y-71729761D01*
X117088214Y-72186904D02*
X116935833Y-72186904D01*
X116859642Y-72148809D01*
X116821547Y-72110714D01*
X116745357Y-71996428D01*
X116707261Y-71844047D01*
X116707261Y-71539285D01*
X116745357Y-71463095D01*
X116783452Y-71425000D01*
X116859642Y-71386904D01*
X117012023Y-71386904D01*
X117088214Y-71425000D01*
X117126309Y-71463095D01*
X117164404Y-71539285D01*
X117164404Y-71729761D01*
X117126309Y-71805952D01*
X117088214Y-71844047D01*
X117012023Y-71882142D01*
X116859642Y-71882142D01*
X116783452Y-71844047D01*
X116745357Y-71805952D01*
X116707261Y-71729761D01*
X115754880Y-72186904D02*
X115754880Y-71386904D01*
X115297738Y-72186904D01*
X115297738Y-71386904D01*
X114612023Y-72148809D02*
X114688214Y-72186904D01*
X114840595Y-72186904D01*
X114916785Y-72148809D01*
X114954880Y-72072619D01*
X114954880Y-71767857D01*
X114916785Y-71691666D01*
X114840595Y-71653571D01*
X114688214Y-71653571D01*
X114612023Y-71691666D01*
X114573928Y-71767857D01*
X114573928Y-71844047D01*
X114954880Y-71920238D01*
X113888214Y-71653571D02*
X113888214Y-72301190D01*
X113926309Y-72377380D01*
X113964404Y-72415476D01*
X114040595Y-72453571D01*
X114154880Y-72453571D01*
X114231071Y-72415476D01*
X113888214Y-72148809D02*
X113964404Y-72186904D01*
X114116785Y-72186904D01*
X114192976Y-72148809D01*
X114231071Y-72110714D01*
X114269166Y-72034523D01*
X114269166Y-71805952D01*
X114231071Y-71729761D01*
X114192976Y-71691666D01*
X114116785Y-71653571D01*
X113964404Y-71653571D01*
X113888214Y-71691666D01*
X113164404Y-72186904D02*
X113164404Y-71767857D01*
X113202500Y-71691666D01*
X113278690Y-71653571D01*
X113431071Y-71653571D01*
X113507261Y-71691666D01*
X113164404Y-72148809D02*
X113240595Y-72186904D01*
X113431071Y-72186904D01*
X113507261Y-72148809D01*
X113545357Y-72072619D01*
X113545357Y-71996428D01*
X113507261Y-71920238D01*
X113431071Y-71882142D01*
X113240595Y-71882142D01*
X113164404Y-71844047D01*
X112897738Y-71653571D02*
X112592976Y-71653571D01*
X112783452Y-71386904D02*
X112783452Y-72072619D01*
X112745357Y-72148809D01*
X112669166Y-72186904D01*
X112592976Y-72186904D01*
X112326309Y-72186904D02*
X112326309Y-71653571D01*
X112326309Y-71386904D02*
X112364404Y-71425000D01*
X112326309Y-71463095D01*
X112288214Y-71425000D01*
X112326309Y-71386904D01*
X112326309Y-71463095D01*
X112021547Y-71653571D02*
X111831071Y-72186904D01*
X111640595Y-71653571D01*
X111031071Y-72148809D02*
X111107261Y-72186904D01*
X111259642Y-72186904D01*
X111335833Y-72148809D01*
X111373928Y-72072619D01*
X111373928Y-71767857D01*
X111335833Y-71691666D01*
X111259642Y-71653571D01*
X111107261Y-71653571D01*
X111031071Y-71691666D01*
X110992976Y-71767857D01*
X110992976Y-71844047D01*
X111373928Y-71920238D01*
X120326309Y-72736904D02*
X120059642Y-73536904D01*
X119792976Y-72736904D01*
X119412023Y-73536904D02*
X119488214Y-73498809D01*
X119526309Y-73460714D01*
X119564404Y-73384523D01*
X119564404Y-73155952D01*
X119526309Y-73079761D01*
X119488214Y-73041666D01*
X119412023Y-73003571D01*
X119297738Y-73003571D01*
X119221547Y-73041666D01*
X119183452Y-73079761D01*
X119145357Y-73155952D01*
X119145357Y-73384523D01*
X119183452Y-73460714D01*
X119221547Y-73498809D01*
X119297738Y-73536904D01*
X119412023Y-73536904D01*
X118688214Y-73536904D02*
X118764404Y-73498809D01*
X118802500Y-73422619D01*
X118802500Y-72736904D01*
X118497738Y-73003571D02*
X118192976Y-73003571D01*
X118383452Y-72736904D02*
X118383452Y-73422619D01*
X118345357Y-73498809D01*
X118269166Y-73536904D01*
X118192976Y-73536904D01*
X117583452Y-73536904D02*
X117583452Y-73117857D01*
X117621547Y-73041666D01*
X117697738Y-73003571D01*
X117850119Y-73003571D01*
X117926309Y-73041666D01*
X117583452Y-73498809D02*
X117659642Y-73536904D01*
X117850119Y-73536904D01*
X117926309Y-73498809D01*
X117964404Y-73422619D01*
X117964404Y-73346428D01*
X117926309Y-73270238D01*
X117850119Y-73232142D01*
X117659642Y-73232142D01*
X117583452Y-73194047D01*
X116859642Y-73003571D02*
X116859642Y-73651190D01*
X116897738Y-73727380D01*
X116935833Y-73765476D01*
X117012023Y-73803571D01*
X117126309Y-73803571D01*
X117202500Y-73765476D01*
X116859642Y-73498809D02*
X116935833Y-73536904D01*
X117088214Y-73536904D01*
X117164404Y-73498809D01*
X117202500Y-73460714D01*
X117240595Y-73384523D01*
X117240595Y-73155952D01*
X117202500Y-73079761D01*
X117164404Y-73041666D01*
X117088214Y-73003571D01*
X116935833Y-73003571D01*
X116859642Y-73041666D01*
X116173928Y-73498809D02*
X116250119Y-73536904D01*
X116402500Y-73536904D01*
X116478690Y-73498809D01*
X116516785Y-73422619D01*
X116516785Y-73117857D01*
X116478690Y-73041666D01*
X116402500Y-73003571D01*
X116250119Y-73003571D01*
X116173928Y-73041666D01*
X116135833Y-73117857D01*
X116135833Y-73194047D01*
X116516785Y-73270238D01*
X114726309Y-73536904D02*
X114992976Y-73155952D01*
X115183452Y-73536904D02*
X115183452Y-72736904D01*
X114878690Y-72736904D01*
X114802500Y-72775000D01*
X114764404Y-72813095D01*
X114726309Y-72889285D01*
X114726309Y-73003571D01*
X114764404Y-73079761D01*
X114802500Y-73117857D01*
X114878690Y-73155952D01*
X115183452Y-73155952D01*
X114078690Y-73498809D02*
X114154880Y-73536904D01*
X114307261Y-73536904D01*
X114383452Y-73498809D01*
X114421547Y-73422619D01*
X114421547Y-73117857D01*
X114383452Y-73041666D01*
X114307261Y-73003571D01*
X114154880Y-73003571D01*
X114078690Y-73041666D01*
X114040595Y-73117857D01*
X114040595Y-73194047D01*
X114421547Y-73270238D01*
X113812023Y-73003571D02*
X113507261Y-73003571D01*
X113697738Y-73536904D02*
X113697738Y-72851190D01*
X113659642Y-72775000D01*
X113583452Y-72736904D01*
X113507261Y-72736904D01*
X112935833Y-73498809D02*
X113012023Y-73536904D01*
X113164404Y-73536904D01*
X113240595Y-73498809D01*
X113278690Y-73422619D01*
X113278690Y-73117857D01*
X113240595Y-73041666D01*
X113164404Y-73003571D01*
X113012023Y-73003571D01*
X112935833Y-73041666D01*
X112897738Y-73117857D01*
X112897738Y-73194047D01*
X113278690Y-73270238D01*
X112554880Y-73536904D02*
X112554880Y-73003571D01*
X112554880Y-73155952D02*
X112516785Y-73079761D01*
X112478690Y-73041666D01*
X112402500Y-73003571D01*
X112326309Y-73003571D01*
X111754880Y-73498809D02*
X111831071Y-73536904D01*
X111983452Y-73536904D01*
X112059642Y-73498809D01*
X112097738Y-73422619D01*
X112097738Y-73117857D01*
X112059642Y-73041666D01*
X111983452Y-73003571D01*
X111831071Y-73003571D01*
X111754880Y-73041666D01*
X111716785Y-73117857D01*
X111716785Y-73194047D01*
X112097738Y-73270238D01*
X111373928Y-73003571D02*
X111373928Y-73536904D01*
X111373928Y-73079761D02*
X111335833Y-73041666D01*
X111259642Y-73003571D01*
X111145357Y-73003571D01*
X111069166Y-73041666D01*
X111031071Y-73117857D01*
X111031071Y-73536904D01*
X110307261Y-73498809D02*
X110383452Y-73536904D01*
X110535833Y-73536904D01*
X110612023Y-73498809D01*
X110650119Y-73460714D01*
X110688214Y-73384523D01*
X110688214Y-73155952D01*
X110650119Y-73079761D01*
X110612023Y-73041666D01*
X110535833Y-73003571D01*
X110383452Y-73003571D01*
X110307261Y-73041666D01*
X109659642Y-73498809D02*
X109735833Y-73536904D01*
X109888214Y-73536904D01*
X109964404Y-73498809D01*
X110002500Y-73422619D01*
X110002500Y-73117857D01*
X109964404Y-73041666D01*
X109888214Y-73003571D01*
X109735833Y-73003571D01*
X109659642Y-73041666D01*
X109621547Y-73117857D01*
X109621547Y-73194047D01*
X110002500Y-73270238D01*
D10*
X131000000Y-62500000D02*
X121000000Y-62500000D01*
D11*
X133321428Y-61178571D02*
X132250000Y-61178571D01*
X132892857Y-60535714D02*
X133321428Y-62464285D01*
X132392857Y-61821428D02*
X133464285Y-61821428D01*
X132821428Y-62464285D02*
X132392857Y-60535714D01*
X131750000Y-62035714D02*
X131678571Y-62107142D01*
X131750000Y-62178571D01*
X131821428Y-62107142D01*
X131750000Y-62035714D01*
X131750000Y-62178571D01*
X131750000Y-61250000D02*
X131678571Y-61321428D01*
X131750000Y-61392857D01*
X131821428Y-61321428D01*
X131750000Y-61250000D01*
X131750000Y-61392857D01*
D12*
X117212023Y-51211904D02*
X117212023Y-50411904D01*
X117021547Y-50411904D01*
X116907261Y-50450000D01*
X116831071Y-50526190D01*
X116792976Y-50602380D01*
X116754880Y-50754761D01*
X116754880Y-50869047D01*
X116792976Y-51021428D01*
X116831071Y-51097619D01*
X116907261Y-51173809D01*
X117021547Y-51211904D01*
X117212023Y-51211904D01*
X116107261Y-51173809D02*
X116183452Y-51211904D01*
X116335833Y-51211904D01*
X116412023Y-51173809D01*
X116450119Y-51097619D01*
X116450119Y-50792857D01*
X116412023Y-50716666D01*
X116335833Y-50678571D01*
X116183452Y-50678571D01*
X116107261Y-50716666D01*
X116069166Y-50792857D01*
X116069166Y-50869047D01*
X116450119Y-50945238D01*
X115764404Y-51173809D02*
X115688214Y-51211904D01*
X115535833Y-51211904D01*
X115459642Y-51173809D01*
X115421547Y-51097619D01*
X115421547Y-51059523D01*
X115459642Y-50983333D01*
X115535833Y-50945238D01*
X115650119Y-50945238D01*
X115726309Y-50907142D01*
X115764404Y-50830952D01*
X115764404Y-50792857D01*
X115726309Y-50716666D01*
X115650119Y-50678571D01*
X115535833Y-50678571D01*
X115459642Y-50716666D01*
X115078690Y-51211904D02*
X115078690Y-50678571D01*
X115078690Y-50411904D02*
X115116785Y-50450000D01*
X115078690Y-50488095D01*
X115040595Y-50450000D01*
X115078690Y-50411904D01*
X115078690Y-50488095D01*
X114354880Y-50678571D02*
X114354880Y-51326190D01*
X114392976Y-51402380D01*
X114431071Y-51440476D01*
X114507261Y-51478571D01*
X114621547Y-51478571D01*
X114697738Y-51440476D01*
X114354880Y-51173809D02*
X114431071Y-51211904D01*
X114583452Y-51211904D01*
X114659642Y-51173809D01*
X114697738Y-51135714D01*
X114735833Y-51059523D01*
X114735833Y-50830952D01*
X114697738Y-50754761D01*
X114659642Y-50716666D01*
X114583452Y-50678571D01*
X114431071Y-50678571D01*
X114354880Y-50716666D01*
X113973928Y-50678571D02*
X113973928Y-51211904D01*
X113973928Y-50754761D02*
X113935833Y-50716666D01*
X113859642Y-50678571D01*
X113745357Y-50678571D01*
X113669166Y-50716666D01*
X113631071Y-50792857D01*
X113631071Y-51211904D01*
X113250119Y-51135714D02*
X113212023Y-51173809D01*
X113250119Y-51211904D01*
X113288214Y-51173809D01*
X113250119Y-51135714D01*
X113250119Y-51211904D01*
X113250119Y-50716666D02*
X113212023Y-50754761D01*
X113250119Y-50792857D01*
X113288214Y-50754761D01*
X113250119Y-50716666D01*
X113250119Y-50792857D01*
X112259642Y-51211904D02*
X112259642Y-50411904D01*
X111954880Y-50411904D01*
X111878690Y-50450000D01*
X111840595Y-50488095D01*
X111802500Y-50564285D01*
X111802500Y-50678571D01*
X111840595Y-50754761D01*
X111878690Y-50792857D01*
X111954880Y-50830952D01*
X112259642Y-50830952D01*
X111116785Y-51211904D02*
X111116785Y-50792857D01*
X111154880Y-50716666D01*
X111231071Y-50678571D01*
X111383452Y-50678571D01*
X111459642Y-50716666D01*
X111116785Y-51173809D02*
X111192976Y-51211904D01*
X111383452Y-51211904D01*
X111459642Y-51173809D01*
X111497738Y-51097619D01*
X111497738Y-51021428D01*
X111459642Y-50945238D01*
X111383452Y-50907142D01*
X111192976Y-50907142D01*
X111116785Y-50869047D01*
X110850119Y-50678571D02*
X110545357Y-50678571D01*
X110735833Y-50411904D02*
X110735833Y-51097619D01*
X110697738Y-51173809D01*
X110621547Y-51211904D01*
X110545357Y-51211904D01*
X110278690Y-51211904D02*
X110278690Y-50678571D01*
X110278690Y-50830952D02*
X110240595Y-50754761D01*
X110202500Y-50716666D01*
X110126309Y-50678571D01*
X110050119Y-50678571D01*
X109783452Y-51211904D02*
X109783452Y-50678571D01*
X109783452Y-50411904D02*
X109821547Y-50450000D01*
X109783452Y-50488095D01*
X109745357Y-50450000D01*
X109783452Y-50411904D01*
X109783452Y-50488095D01*
X109059642Y-51173809D02*
X109135833Y-51211904D01*
X109288214Y-51211904D01*
X109364404Y-51173809D01*
X109402500Y-51135714D01*
X109440595Y-51059523D01*
X109440595Y-50830952D01*
X109402500Y-50754761D01*
X109364404Y-50716666D01*
X109288214Y-50678571D01*
X109135833Y-50678571D01*
X109059642Y-50716666D01*
X108716785Y-51211904D02*
X108716785Y-50411904D01*
X108640595Y-50907142D02*
X108412023Y-51211904D01*
X108412023Y-50678571D02*
X108716785Y-50983333D01*
X107192976Y-50792857D02*
X107078690Y-50830952D01*
X107040595Y-50869047D01*
X107002500Y-50945238D01*
X107002500Y-51059523D01*
X107040595Y-51135714D01*
X107078690Y-51173809D01*
X107154880Y-51211904D01*
X107459642Y-51211904D01*
X107459642Y-50411904D01*
X107192976Y-50411904D01*
X107116785Y-50450000D01*
X107078690Y-50488095D01*
X107040595Y-50564285D01*
X107040595Y-50640476D01*
X107078690Y-50716666D01*
X107116785Y-50754761D01*
X107192976Y-50792857D01*
X107459642Y-50792857D01*
X106316785Y-51211904D02*
X106316785Y-50792857D01*
X106354880Y-50716666D01*
X106431071Y-50678571D01*
X106583452Y-50678571D01*
X106659642Y-50716666D01*
X106316785Y-51173809D02*
X106392976Y-51211904D01*
X106583452Y-51211904D01*
X106659642Y-51173809D01*
X106697738Y-51097619D01*
X106697738Y-51021428D01*
X106659642Y-50945238D01*
X106583452Y-50907142D01*
X106392976Y-50907142D01*
X106316785Y-50869047D01*
X105592976Y-50678571D02*
X105592976Y-51211904D01*
X105935833Y-50678571D02*
X105935833Y-51097619D01*
X105897738Y-51173809D01*
X105821547Y-51211904D01*
X105707261Y-51211904D01*
X105631071Y-51173809D01*
X105592976Y-51135714D01*
X105250119Y-51173809D02*
X105173928Y-51211904D01*
X105021547Y-51211904D01*
X104945357Y-51173809D01*
X104907261Y-51097619D01*
X104907261Y-51059523D01*
X104945357Y-50983333D01*
X105021547Y-50945238D01*
X105135833Y-50945238D01*
X105212023Y-50907142D01*
X105250119Y-50830952D01*
X105250119Y-50792857D01*
X105212023Y-50716666D01*
X105135833Y-50678571D01*
X105021547Y-50678571D01*
X104945357Y-50716666D01*
X117212023Y-52561904D02*
X117212023Y-51761904D01*
X117021547Y-51761904D01*
X116907261Y-51800000D01*
X116831071Y-51876190D01*
X116792976Y-51952380D01*
X116754880Y-52104761D01*
X116754880Y-52219047D01*
X116792976Y-52371428D01*
X116831071Y-52447619D01*
X116907261Y-52523809D01*
X117021547Y-52561904D01*
X117212023Y-52561904D01*
X116069166Y-52561904D02*
X116069166Y-52142857D01*
X116107261Y-52066666D01*
X116183452Y-52028571D01*
X116335833Y-52028571D01*
X116412023Y-52066666D01*
X116069166Y-52523809D02*
X116145357Y-52561904D01*
X116335833Y-52561904D01*
X116412023Y-52523809D01*
X116450119Y-52447619D01*
X116450119Y-52371428D01*
X116412023Y-52295238D01*
X116335833Y-52257142D01*
X116145357Y-52257142D01*
X116069166Y-52219047D01*
X115802500Y-52028571D02*
X115497738Y-52028571D01*
X115688214Y-51761904D02*
X115688214Y-52447619D01*
X115650119Y-52523809D01*
X115573928Y-52561904D01*
X115497738Y-52561904D01*
X114926309Y-52523809D02*
X115002500Y-52561904D01*
X115154880Y-52561904D01*
X115231071Y-52523809D01*
X115269166Y-52447619D01*
X115269166Y-52142857D01*
X115231071Y-52066666D01*
X115154880Y-52028571D01*
X115002500Y-52028571D01*
X114926309Y-52066666D01*
X114888214Y-52142857D01*
X114888214Y-52219047D01*
X115269166Y-52295238D01*
X114545357Y-52485714D02*
X114507261Y-52523809D01*
X114545357Y-52561904D01*
X114583452Y-52523809D01*
X114545357Y-52485714D01*
X114545357Y-52561904D01*
X114545357Y-52066666D02*
X114507261Y-52104761D01*
X114545357Y-52142857D01*
X114583452Y-52104761D01*
X114545357Y-52066666D01*
X114545357Y-52142857D01*
X113592976Y-51838095D02*
X113554880Y-51800000D01*
X113478690Y-51761904D01*
X113288214Y-51761904D01*
X113212023Y-51800000D01*
X113173928Y-51838095D01*
X113135833Y-51914285D01*
X113135833Y-51990476D01*
X113173928Y-52104761D01*
X113631071Y-52561904D01*
X113135833Y-52561904D01*
X112640595Y-51761904D02*
X112564404Y-51761904D01*
X112488214Y-51800000D01*
X112450119Y-51838095D01*
X112412023Y-51914285D01*
X112373928Y-52066666D01*
X112373928Y-52257142D01*
X112412023Y-52409523D01*
X112450119Y-52485714D01*
X112488214Y-52523809D01*
X112564404Y-52561904D01*
X112640595Y-52561904D01*
X112716785Y-52523809D01*
X112754880Y-52485714D01*
X112792976Y-52409523D01*
X112831071Y-52257142D01*
X112831071Y-52066666D01*
X112792976Y-51914285D01*
X112754880Y-51838095D01*
X112716785Y-51800000D01*
X112640595Y-51761904D01*
X112069166Y-51838095D02*
X112031071Y-51800000D01*
X111954880Y-51761904D01*
X111764404Y-51761904D01*
X111688214Y-51800000D01*
X111650119Y-51838095D01*
X111612023Y-51914285D01*
X111612023Y-51990476D01*
X111650119Y-52104761D01*
X112107261Y-52561904D01*
X111612023Y-52561904D01*
X111116785Y-51761904D02*
X111040595Y-51761904D01*
X110964404Y-51800000D01*
X110926309Y-51838095D01*
X110888214Y-51914285D01*
X110850119Y-52066666D01*
X110850119Y-52257142D01*
X110888214Y-52409523D01*
X110926309Y-52485714D01*
X110964404Y-52523809D01*
X111040595Y-52561904D01*
X111116785Y-52561904D01*
X111192976Y-52523809D01*
X111231071Y-52485714D01*
X111269166Y-52409523D01*
X111307261Y-52257142D01*
X111307261Y-52066666D01*
X111269166Y-51914285D01*
X111231071Y-51838095D01*
X111192976Y-51800000D01*
X111116785Y-51761904D01*
X110507261Y-52257142D02*
X109897738Y-52257142D01*
X109364404Y-51761904D02*
X109288214Y-51761904D01*
X109212023Y-51800000D01*
X109173928Y-51838095D01*
X109135833Y-51914285D01*
X109097738Y-52066666D01*
X109097738Y-52257142D01*
X109135833Y-52409523D01*
X109173928Y-52485714D01*
X109212023Y-52523809D01*
X109288214Y-52561904D01*
X109364404Y-52561904D01*
X109440595Y-52523809D01*
X109478690Y-52485714D01*
X109516785Y-52409523D01*
X109554880Y-52257142D01*
X109554880Y-52066666D01*
X109516785Y-51914285D01*
X109478690Y-51838095D01*
X109440595Y-51800000D01*
X109364404Y-51761904D01*
X108716785Y-52561904D02*
X108564404Y-52561904D01*
X108488214Y-52523809D01*
X108450119Y-52485714D01*
X108373928Y-52371428D01*
X108335833Y-52219047D01*
X108335833Y-51914285D01*
X108373928Y-51838095D01*
X108412023Y-51800000D01*
X108488214Y-51761904D01*
X108640595Y-51761904D01*
X108716785Y-51800000D01*
X108754880Y-51838095D01*
X108792976Y-51914285D01*
X108792976Y-52104761D01*
X108754880Y-52180952D01*
X108716785Y-52219047D01*
X108640595Y-52257142D01*
X108488214Y-52257142D01*
X108412023Y-52219047D01*
X108373928Y-52180952D01*
X108335833Y-52104761D01*
X117326309Y-53111904D02*
X117059642Y-53911904D01*
X116792976Y-53111904D01*
X116221547Y-53873809D02*
X116297738Y-53911904D01*
X116450119Y-53911904D01*
X116526309Y-53873809D01*
X116564404Y-53797619D01*
X116564404Y-53492857D01*
X116526309Y-53416666D01*
X116450119Y-53378571D01*
X116297738Y-53378571D01*
X116221547Y-53416666D01*
X116183452Y-53492857D01*
X116183452Y-53569047D01*
X116564404Y-53645238D01*
X115840595Y-53911904D02*
X115840595Y-53378571D01*
X115840595Y-53530952D02*
X115802500Y-53454761D01*
X115764404Y-53416666D01*
X115688214Y-53378571D01*
X115612023Y-53378571D01*
X115383452Y-53873809D02*
X115307261Y-53911904D01*
X115154880Y-53911904D01*
X115078690Y-53873809D01*
X115040595Y-53797619D01*
X115040595Y-53759523D01*
X115078690Y-53683333D01*
X115154880Y-53645238D01*
X115269166Y-53645238D01*
X115345357Y-53607142D01*
X115383452Y-53530952D01*
X115383452Y-53492857D01*
X115345357Y-53416666D01*
X115269166Y-53378571D01*
X115154880Y-53378571D01*
X115078690Y-53416666D01*
X114697738Y-53911904D02*
X114697738Y-53378571D01*
X114697738Y-53111904D02*
X114735833Y-53150000D01*
X114697738Y-53188095D01*
X114659642Y-53150000D01*
X114697738Y-53111904D01*
X114697738Y-53188095D01*
X114202500Y-53911904D02*
X114278690Y-53873809D01*
X114316785Y-53835714D01*
X114354880Y-53759523D01*
X114354880Y-53530952D01*
X114316785Y-53454761D01*
X114278690Y-53416666D01*
X114202500Y-53378571D01*
X114088214Y-53378571D01*
X114012023Y-53416666D01*
X113973928Y-53454761D01*
X113935833Y-53530952D01*
X113935833Y-53759523D01*
X113973928Y-53835714D01*
X114012023Y-53873809D01*
X114088214Y-53911904D01*
X114202500Y-53911904D01*
X113592976Y-53378571D02*
X113592976Y-53911904D01*
X113592976Y-53454761D02*
X113554880Y-53416666D01*
X113478690Y-53378571D01*
X113364404Y-53378571D01*
X113288214Y-53416666D01*
X113250119Y-53492857D01*
X113250119Y-53911904D01*
X112869166Y-53835714D02*
X112831071Y-53873809D01*
X112869166Y-53911904D01*
X112907261Y-53873809D01*
X112869166Y-53835714D01*
X112869166Y-53911904D01*
X112869166Y-53416666D02*
X112831071Y-53454761D01*
X112869166Y-53492857D01*
X112907261Y-53454761D01*
X112869166Y-53416666D01*
X112869166Y-53492857D01*
X111954880Y-53111904D02*
X111459642Y-53111904D01*
X111726309Y-53416666D01*
X111612023Y-53416666D01*
X111535833Y-53454761D01*
X111497738Y-53492857D01*
X111459642Y-53569047D01*
X111459642Y-53759523D01*
X111497738Y-53835714D01*
X111535833Y-53873809D01*
X111612023Y-53911904D01*
X111840595Y-53911904D01*
X111916785Y-53873809D01*
X111954880Y-53835714D01*
X111116785Y-53835714D02*
X111078690Y-53873809D01*
X111116785Y-53911904D01*
X111154880Y-53873809D01*
X111116785Y-53835714D01*
X111116785Y-53911904D01*
X110773928Y-53188095D02*
X110735833Y-53150000D01*
X110659642Y-53111904D01*
X110469166Y-53111904D01*
X110392976Y-53150000D01*
X110354880Y-53188095D01*
X110316785Y-53264285D01*
X110316785Y-53340476D01*
X110354880Y-53454761D01*
X110812023Y-53911904D01*
X110316785Y-53911904D01*
X109973928Y-53835714D02*
X109935833Y-53873809D01*
X109973928Y-53911904D01*
X110012023Y-53873809D01*
X109973928Y-53835714D01*
X109973928Y-53911904D01*
X109631071Y-53188095D02*
X109592976Y-53150000D01*
X109516785Y-53111904D01*
X109326309Y-53111904D01*
X109250119Y-53150000D01*
X109212023Y-53188095D01*
X109173928Y-53264285D01*
X109173928Y-53340476D01*
X109212023Y-53454761D01*
X109669166Y-53911904D01*
X109173928Y-53911904D01*
D13*
X131330000Y-56870000D02*
X131330000Y-54270000D01*
X131330000Y-56870000D02*
X121050000Y-56870000D01*
X121050000Y-56870000D02*
X121050000Y-51670000D01*
X128730000Y-51670000D02*
X121050000Y-51670000D01*
X128730000Y-54270000D02*
X128730000Y-51670000D01*
X131330000Y-54270000D02*
X128730000Y-54270000D01*
X131330000Y-51670000D02*
X130000000Y-51670000D01*
X131330000Y-53000000D02*
X131330000Y-51670000D01*
D12*
X133103333Y-53722380D02*
X133103333Y-54436666D01*
X133150952Y-54579523D01*
X133246190Y-54674761D01*
X133389047Y-54722380D01*
X133484285Y-54722380D01*
X132103333Y-54722380D02*
X132674761Y-54722380D01*
X132389047Y-54722380D02*
X132389047Y-53722380D01*
X132484285Y-53865238D01*
X132579523Y-53960476D01*
X132674761Y-54008095D01*
M02*
