G04 #@! TF.GenerationSoftware,KiCad,Pcbnew,5.1.5*
G04 #@! TF.CreationDate,2020-02-06T16:59:33+01:00*
G04 #@! TF.ProjectId,reference_board,72656665-7265-46e6-9365-5f626f617264,v3.2.1*
G04 #@! TF.SameCoordinates,Original*
G04 #@! TF.FileFunction,Profile,NP*
%FSLAX46Y46*%
G04 Gerber Fmt 4.6, Leading zero omitted, Abs format (unit mm)*
G04 Created by KiCad (PCBNEW 5.1.5) date 2020-02-06 16:59:33*
%MOMM*%
%LPD*%
G04 APERTURE LIST*
%ADD10C,0.150000*%
G04 APERTURE END LIST*
D10*
X149000000Y-83000000D02*
X149000000Y-108000000D01*
X183000000Y-108000000D02*
X149000000Y-108000000D01*
X183000000Y-83000000D02*
X183000000Y-108000000D01*
X149000000Y-83000000D02*
X183000000Y-83000000D01*
X168000000Y-87000000D02*
G75*
G03X167000000Y-87000000I-500000J0D01*
G01*
X167000000Y-103000000D02*
G75*
G03X168000000Y-103000000I500000J0D01*
G01*
X167000000Y-87000000D02*
X167000000Y-103000000D01*
X168000000Y-87000000D02*
X168000000Y-103000000D01*
X156317664Y-101278491D02*
G75*
G02X151721500Y-96682300I1682336J6278491D01*
G01*
X155929492Y-102727425D02*
G75*
G02X150272600Y-97070600I2070508J7727425D01*
G01*
X150272500Y-97070500D02*
G75*
G02X151721500Y-96682300I724500J194100D01*
G01*
X156317800Y-101278600D02*
G75*
G02X155929400Y-102727400I-194200J-724400D01*
G01*
X164278491Y-96682336D02*
G75*
G02X159682300Y-101278500I-6278491J1682336D01*
G01*
X165727425Y-97070508D02*
G75*
G02X160070600Y-102727400I-7727425J2070508D01*
G01*
X160070500Y-102727500D02*
G75*
G02X159682300Y-101278500I-194100J724500D01*
G01*
X164278600Y-96682200D02*
G75*
G02X165727400Y-97070600I724400J-194200D01*
G01*
X159682336Y-88721509D02*
G75*
G02X164278500Y-93317700I-1682336J-6278491D01*
G01*
X160070508Y-87272575D02*
G75*
G02X165727400Y-92929400I-2070508J-7727425D01*
G01*
X165727500Y-92929500D02*
G75*
G02X164278500Y-93317700I-724500J-194100D01*
G01*
X159682200Y-88721400D02*
G75*
G02X160070600Y-87272600I194200J724400D01*
G01*
X151721509Y-93317664D02*
G75*
G02X156317700Y-88721500I6278491J-1682336D01*
G01*
X150272575Y-92929492D02*
G75*
G02X155929400Y-87272600I7727425J-2070508D01*
G01*
X155929500Y-87272500D02*
G75*
G02X156317700Y-88721500I194100J-724500D01*
G01*
X151721400Y-93317800D02*
G75*
G02X150272600Y-92929400I-724400J194200D01*
G01*
M02*
