G04 #@! TF.GenerationSoftware,KiCad,Pcbnew,(2017-06-16 revision 2018d4894)-master*
G04 #@! TF.CreationDate,2018-01-06T04:43:58+01:00*
G04 #@! TF.ProjectId,reference_board,7265666572656E63655F626F6172642E,rev?*
G04 #@! TF.SameCoordinates,Original
G04 #@! TF.FileFunction,Legend,Top*
G04 #@! TF.FilePolarity,Positive*
%FSLAX46Y46*%
G04 Gerber Fmt 4.6, Leading zero omitted, Abs format (unit mm)*
G04 Created by KiCad (PCBNEW (2017-06-16 revision 2018d4894)-master) date Sat Jan  6 04:43:58 2018*
%MOMM*%
%LPD*%
G01*
G04 APERTURE LIST*
%ADD10C,0.100000*%
%ADD11C,0.150000*%
%ADD12C,0.010000*%
%ADD13C,0.120000*%
G04 APERTURE END LIST*
D10*
D11*
X177590476Y-90261904D02*
X177857142Y-91061904D01*
X178123809Y-90261904D01*
X178314285Y-90528571D02*
X178733333Y-90528571D01*
X178314285Y-91061904D01*
X178733333Y-91061904D01*
X179038095Y-90757142D02*
X179647619Y-90757142D01*
X179342857Y-91061904D02*
X179342857Y-90452380D01*
X179990476Y-91023809D02*
X180066666Y-91061904D01*
X180219047Y-91061904D01*
X180295238Y-91023809D01*
X180333333Y-90947619D01*
X180333333Y-90909523D01*
X180295238Y-90833333D01*
X180219047Y-90795238D01*
X180104761Y-90795238D01*
X180028571Y-90757142D01*
X179990476Y-90680952D01*
X179990476Y-90642857D01*
X180028571Y-90566666D01*
X180104761Y-90528571D01*
X180219047Y-90528571D01*
X180295238Y-90566666D01*
X158345119Y-106061904D02*
X158078452Y-105680952D01*
X157887976Y-106061904D02*
X157887976Y-105261904D01*
X158192738Y-105261904D01*
X158268928Y-105300000D01*
X158307023Y-105338095D01*
X158345119Y-105414285D01*
X158345119Y-105528571D01*
X158307023Y-105604761D01*
X158268928Y-105642857D01*
X158192738Y-105680952D01*
X157887976Y-105680952D01*
X159107023Y-106061904D02*
X158649880Y-106061904D01*
X158878452Y-106061904D02*
X158878452Y-105261904D01*
X158802261Y-105376190D01*
X158726071Y-105452380D01*
X158649880Y-105490476D01*
X159449880Y-105985714D02*
X159487976Y-106023809D01*
X159449880Y-106061904D01*
X159411785Y-106023809D01*
X159449880Y-105985714D01*
X159449880Y-106061904D01*
X159449880Y-105566666D02*
X159487976Y-105604761D01*
X159449880Y-105642857D01*
X159411785Y-105604761D01*
X159449880Y-105566666D01*
X159449880Y-105642857D01*
X160821309Y-105261904D02*
X160440357Y-105261904D01*
X160402261Y-105642857D01*
X160440357Y-105604761D01*
X160516547Y-105566666D01*
X160707023Y-105566666D01*
X160783214Y-105604761D01*
X160821309Y-105642857D01*
X160859404Y-105719047D01*
X160859404Y-105909523D01*
X160821309Y-105985714D01*
X160783214Y-106023809D01*
X160707023Y-106061904D01*
X160516547Y-106061904D01*
X160440357Y-106023809D01*
X160402261Y-105985714D01*
X161202261Y-105528571D02*
X161202261Y-106328571D01*
X161202261Y-105566666D02*
X161278452Y-105528571D01*
X161430833Y-105528571D01*
X161507023Y-105566666D01*
X161545119Y-105604761D01*
X161583214Y-105680952D01*
X161583214Y-105909523D01*
X161545119Y-105985714D01*
X161507023Y-106023809D01*
X161430833Y-106061904D01*
X161278452Y-106061904D01*
X161202261Y-106023809D01*
X161926071Y-105528571D02*
X161926071Y-106328571D01*
X161926071Y-105566666D02*
X162002261Y-105528571D01*
X162154642Y-105528571D01*
X162230833Y-105566666D01*
X162268928Y-105604761D01*
X162307023Y-105680952D01*
X162307023Y-105909523D01*
X162268928Y-105985714D01*
X162230833Y-106023809D01*
X162154642Y-106061904D01*
X162002261Y-106061904D01*
X161926071Y-106023809D01*
X162649880Y-106061904D02*
X162649880Y-105528571D01*
X162649880Y-105604761D02*
X162687976Y-105566666D01*
X162764166Y-105528571D01*
X162878452Y-105528571D01*
X162954642Y-105566666D01*
X162992738Y-105642857D01*
X162992738Y-106061904D01*
X162992738Y-105642857D02*
X163030833Y-105566666D01*
X163107023Y-105528571D01*
X163221309Y-105528571D01*
X163297500Y-105566666D01*
X163335595Y-105642857D01*
X163335595Y-106061904D01*
X164287976Y-105223809D02*
X163602261Y-106252380D01*
X164554642Y-106061904D02*
X164554642Y-105261904D01*
X165011785Y-106061904D02*
X164668928Y-105604761D01*
X165011785Y-105261904D02*
X164554642Y-105719047D01*
X165964166Y-106061904D02*
X165964166Y-105528571D01*
X165964166Y-105604761D02*
X166002261Y-105566666D01*
X166078452Y-105528571D01*
X166192738Y-105528571D01*
X166268928Y-105566666D01*
X166307023Y-105642857D01*
X166307023Y-106061904D01*
X166307023Y-105642857D02*
X166345119Y-105566666D01*
X166421309Y-105528571D01*
X166535595Y-105528571D01*
X166611785Y-105566666D01*
X166649880Y-105642857D01*
X166649880Y-106061904D01*
X167373690Y-106061904D02*
X167373690Y-105642857D01*
X167335595Y-105566666D01*
X167259404Y-105528571D01*
X167107023Y-105528571D01*
X167030833Y-105566666D01*
X167373690Y-106023809D02*
X167297500Y-106061904D01*
X167107023Y-106061904D01*
X167030833Y-106023809D01*
X166992738Y-105947619D01*
X166992738Y-105871428D01*
X167030833Y-105795238D01*
X167107023Y-105757142D01*
X167297500Y-105757142D01*
X167373690Y-105719047D01*
X167678452Y-106061904D02*
X168097500Y-105528571D01*
X167678452Y-105528571D02*
X168097500Y-106061904D01*
X168402261Y-105985714D02*
X168440357Y-106023809D01*
X168402261Y-106061904D01*
X168364166Y-106023809D01*
X168402261Y-105985714D01*
X168402261Y-106061904D01*
X170676190Y-90961904D02*
X170676190Y-90161904D01*
X170942857Y-90428571D02*
X171247619Y-90428571D01*
X171057142Y-90161904D02*
X171057142Y-90847619D01*
X171095238Y-90923809D01*
X171171428Y-90961904D01*
X171247619Y-90961904D01*
X171514285Y-90657142D02*
X172123809Y-90657142D01*
X171819047Y-90961904D02*
X171819047Y-90352380D01*
X170776190Y-84261904D02*
X170776190Y-83461904D01*
X171042857Y-83728571D02*
X171347619Y-83728571D01*
X171157142Y-83461904D02*
X171157142Y-84147619D01*
X171195238Y-84223809D01*
X171271428Y-84261904D01*
X171347619Y-84261904D01*
X171614285Y-83957142D02*
X172223809Y-83957142D01*
X178390476Y-83600000D02*
X178314285Y-83561904D01*
X178200000Y-83561904D01*
X178085714Y-83600000D01*
X178009523Y-83676190D01*
X177971428Y-83752380D01*
X177933333Y-83904761D01*
X177933333Y-84019047D01*
X177971428Y-84171428D01*
X178009523Y-84247619D01*
X178085714Y-84323809D01*
X178200000Y-84361904D01*
X178276190Y-84361904D01*
X178390476Y-84323809D01*
X178428571Y-84285714D01*
X178428571Y-84019047D01*
X178276190Y-84019047D01*
X178771428Y-84361904D02*
X178771428Y-83561904D01*
X179228571Y-84361904D01*
X179228571Y-83561904D01*
X179609523Y-84361904D02*
X179609523Y-83561904D01*
X179800000Y-83561904D01*
X179914285Y-83600000D01*
X179990476Y-83676190D01*
X180028571Y-83752380D01*
X180066666Y-83904761D01*
X180066666Y-84019047D01*
X180028571Y-84171428D01*
X179990476Y-84247619D01*
X179914285Y-84323809D01*
X179800000Y-84361904D01*
X179609523Y-84361904D01*
X175214285Y-90161904D02*
X175480952Y-90961904D01*
X175747619Y-90161904D01*
X175938095Y-90428571D02*
X176357142Y-90428571D01*
X175938095Y-90961904D01*
X176357142Y-90961904D01*
X176661904Y-90657142D02*
X177271428Y-90657142D01*
X176966666Y-90961904D02*
X176966666Y-90352380D01*
X175514285Y-83461904D02*
X175780952Y-84261904D01*
X176047619Y-83461904D01*
X176238095Y-83728571D02*
X176657142Y-83728571D01*
X176238095Y-84261904D01*
X176657142Y-84261904D01*
X176961904Y-83957142D02*
X177571428Y-83957142D01*
X173238095Y-90161904D02*
X173504761Y-90961904D01*
X173771428Y-90161904D01*
X174038095Y-90657142D02*
X174647619Y-90657142D01*
X174342857Y-90961904D02*
X174342857Y-90352380D01*
X173488095Y-83461904D02*
X173754761Y-84261904D01*
X174021428Y-83461904D01*
X174288095Y-83957142D02*
X174897619Y-83957142D01*
D12*
G36*
X159513360Y-102252468D02*
X159548592Y-102269874D01*
X159592040Y-102300206D01*
X159623706Y-102333283D01*
X159645394Y-102374817D01*
X159658903Y-102430522D01*
X159666038Y-102506111D01*
X159668600Y-102607296D01*
X159668750Y-102650797D01*
X159668312Y-102746135D01*
X159666496Y-102814271D01*
X159662545Y-102861418D01*
X159655702Y-102893790D01*
X159645211Y-102917600D01*
X159634296Y-102933843D01*
X159564619Y-103002952D01*
X159482566Y-103044521D01*
X159394050Y-103057023D01*
X159304981Y-103038934D01*
X159276763Y-103026142D01*
X159209210Y-102990931D01*
X159209210Y-103542700D01*
X159258512Y-103517205D01*
X159323473Y-103497480D01*
X159403320Y-103492427D01*
X159483052Y-103501756D01*
X159543265Y-103522714D01*
X159593208Y-103562627D01*
X159635881Y-103619741D01*
X159639090Y-103625605D01*
X159652622Y-103653227D01*
X159662505Y-103681068D01*
X159669309Y-103714794D01*
X159673601Y-103760071D01*
X159675951Y-103822562D01*
X159676928Y-103907935D01*
X159677105Y-104004010D01*
X159677105Y-104310526D01*
X159493289Y-104310526D01*
X159493289Y-103745339D01*
X159441875Y-103702077D01*
X159388466Y-103667472D01*
X159337888Y-103661180D01*
X159287030Y-103677372D01*
X159259925Y-103693227D01*
X159239751Y-103715810D01*
X159225403Y-103749940D01*
X159215776Y-103800434D01*
X159209763Y-103872111D01*
X159206260Y-103969788D01*
X159205026Y-104034802D01*
X159200855Y-104302171D01*
X159113125Y-104307222D01*
X159025394Y-104312273D01*
X159025394Y-102653101D01*
X159209210Y-102653101D01*
X159213896Y-102745600D01*
X159229688Y-102809809D01*
X159259183Y-102849759D01*
X159304980Y-102869480D01*
X159351250Y-102873421D01*
X159403628Y-102868892D01*
X159438390Y-102851069D01*
X159460128Y-102827519D01*
X159477240Y-102802189D01*
X159487427Y-102773969D01*
X159491960Y-102734431D01*
X159492109Y-102675142D01*
X159490584Y-102625498D01*
X159487081Y-102550710D01*
X159481867Y-102501611D01*
X159473087Y-102470467D01*
X159458886Y-102449545D01*
X159445484Y-102437452D01*
X159389487Y-102411081D01*
X159323211Y-102406822D01*
X159285156Y-102415906D01*
X159247477Y-102448196D01*
X159222519Y-102511006D01*
X159210422Y-102603894D01*
X159209210Y-102653101D01*
X159025394Y-102653101D01*
X159025394Y-102238421D01*
X159117302Y-102238421D01*
X159172483Y-102240603D01*
X159200952Y-102248351D01*
X159209206Y-102263468D01*
X159209210Y-102263916D01*
X159213040Y-102278720D01*
X159229933Y-102277039D01*
X159263519Y-102260772D01*
X159341778Y-102235887D01*
X159429827Y-102233271D01*
X159513360Y-102252468D01*
X159513360Y-102252468D01*
G37*
X159513360Y-102252468D02*
X159548592Y-102269874D01*
X159592040Y-102300206D01*
X159623706Y-102333283D01*
X159645394Y-102374817D01*
X159658903Y-102430522D01*
X159666038Y-102506111D01*
X159668600Y-102607296D01*
X159668750Y-102650797D01*
X159668312Y-102746135D01*
X159666496Y-102814271D01*
X159662545Y-102861418D01*
X159655702Y-102893790D01*
X159645211Y-102917600D01*
X159634296Y-102933843D01*
X159564619Y-103002952D01*
X159482566Y-103044521D01*
X159394050Y-103057023D01*
X159304981Y-103038934D01*
X159276763Y-103026142D01*
X159209210Y-102990931D01*
X159209210Y-103542700D01*
X159258512Y-103517205D01*
X159323473Y-103497480D01*
X159403320Y-103492427D01*
X159483052Y-103501756D01*
X159543265Y-103522714D01*
X159593208Y-103562627D01*
X159635881Y-103619741D01*
X159639090Y-103625605D01*
X159652622Y-103653227D01*
X159662505Y-103681068D01*
X159669309Y-103714794D01*
X159673601Y-103760071D01*
X159675951Y-103822562D01*
X159676928Y-103907935D01*
X159677105Y-104004010D01*
X159677105Y-104310526D01*
X159493289Y-104310526D01*
X159493289Y-103745339D01*
X159441875Y-103702077D01*
X159388466Y-103667472D01*
X159337888Y-103661180D01*
X159287030Y-103677372D01*
X159259925Y-103693227D01*
X159239751Y-103715810D01*
X159225403Y-103749940D01*
X159215776Y-103800434D01*
X159209763Y-103872111D01*
X159206260Y-103969788D01*
X159205026Y-104034802D01*
X159200855Y-104302171D01*
X159113125Y-104307222D01*
X159025394Y-104312273D01*
X159025394Y-102653101D01*
X159209210Y-102653101D01*
X159213896Y-102745600D01*
X159229688Y-102809809D01*
X159259183Y-102849759D01*
X159304980Y-102869480D01*
X159351250Y-102873421D01*
X159403628Y-102868892D01*
X159438390Y-102851069D01*
X159460128Y-102827519D01*
X159477240Y-102802189D01*
X159487427Y-102773969D01*
X159491960Y-102734431D01*
X159492109Y-102675142D01*
X159490584Y-102625498D01*
X159487081Y-102550710D01*
X159481867Y-102501611D01*
X159473087Y-102470467D01*
X159458886Y-102449545D01*
X159445484Y-102437452D01*
X159389487Y-102411081D01*
X159323211Y-102406822D01*
X159285156Y-102415906D01*
X159247477Y-102448196D01*
X159222519Y-102511006D01*
X159210422Y-102603894D01*
X159209210Y-102653101D01*
X159025394Y-102653101D01*
X159025394Y-102238421D01*
X159117302Y-102238421D01*
X159172483Y-102240603D01*
X159200952Y-102248351D01*
X159209206Y-102263468D01*
X159209210Y-102263916D01*
X159213040Y-102278720D01*
X159229933Y-102277039D01*
X159263519Y-102260772D01*
X159341778Y-102235887D01*
X159429827Y-102233271D01*
X159513360Y-102252468D01*
G36*
X160210457Y-103498184D02*
X160289070Y-103519160D01*
X160348916Y-103557180D01*
X160391147Y-103606978D01*
X160404275Y-103628230D01*
X160413968Y-103650492D01*
X160420744Y-103678970D01*
X160425123Y-103718871D01*
X160427624Y-103775401D01*
X160428768Y-103853767D01*
X160429072Y-103959176D01*
X160429078Y-103987142D01*
X160429078Y-104310526D01*
X160348868Y-104310526D01*
X160297706Y-104306943D01*
X160259877Y-104297866D01*
X160250399Y-104292268D01*
X160224488Y-104282606D01*
X160198024Y-104292268D01*
X160154452Y-104304330D01*
X160091160Y-104309185D01*
X160021010Y-104307078D01*
X159956860Y-104298256D01*
X159919407Y-104286937D01*
X159846933Y-104240412D01*
X159801640Y-104175846D01*
X159781278Y-104090000D01*
X159781088Y-104087796D01*
X159782875Y-104049713D01*
X159944473Y-104049713D01*
X159958601Y-104093030D01*
X159981612Y-104117408D01*
X160027804Y-104135845D01*
X160088775Y-104143205D01*
X160150949Y-104139583D01*
X160200751Y-104125074D01*
X160214703Y-104115765D01*
X160239085Y-104072753D01*
X160245263Y-104023857D01*
X160245263Y-103959605D01*
X160152818Y-103959605D01*
X160064995Y-103966366D01*
X159998418Y-103985520D01*
X159957002Y-104015376D01*
X159944473Y-104049713D01*
X159782875Y-104049713D01*
X159785490Y-103994004D01*
X159816424Y-103919847D01*
X159874581Y-103863767D01*
X159882620Y-103858665D01*
X159917163Y-103842055D01*
X159959918Y-103831996D01*
X160019686Y-103827107D01*
X160090690Y-103825983D01*
X160245263Y-103825921D01*
X160245263Y-103761125D01*
X160238706Y-103710850D01*
X160221975Y-103677169D01*
X160220016Y-103675376D01*
X160182783Y-103660642D01*
X160126580Y-103654931D01*
X160064467Y-103657737D01*
X160009510Y-103668556D01*
X159976899Y-103684782D01*
X159959228Y-103697780D01*
X159940569Y-103700262D01*
X159914819Y-103689613D01*
X159875873Y-103663218D01*
X159817630Y-103618465D01*
X159812284Y-103614273D01*
X159815023Y-103598760D01*
X159837876Y-103572960D01*
X159872609Y-103544289D01*
X159910990Y-103520166D01*
X159923048Y-103514470D01*
X159967034Y-103503103D01*
X160031487Y-103494995D01*
X160103497Y-103491743D01*
X160106864Y-103491736D01*
X160210457Y-103498184D01*
X160210457Y-103498184D01*
G37*
X160210457Y-103498184D02*
X160289070Y-103519160D01*
X160348916Y-103557180D01*
X160391147Y-103606978D01*
X160404275Y-103628230D01*
X160413968Y-103650492D01*
X160420744Y-103678970D01*
X160425123Y-103718871D01*
X160427624Y-103775401D01*
X160428768Y-103853767D01*
X160429072Y-103959176D01*
X160429078Y-103987142D01*
X160429078Y-104310526D01*
X160348868Y-104310526D01*
X160297706Y-104306943D01*
X160259877Y-104297866D01*
X160250399Y-104292268D01*
X160224488Y-104282606D01*
X160198024Y-104292268D01*
X160154452Y-104304330D01*
X160091160Y-104309185D01*
X160021010Y-104307078D01*
X159956860Y-104298256D01*
X159919407Y-104286937D01*
X159846933Y-104240412D01*
X159801640Y-104175846D01*
X159781278Y-104090000D01*
X159781088Y-104087796D01*
X159782875Y-104049713D01*
X159944473Y-104049713D01*
X159958601Y-104093030D01*
X159981612Y-104117408D01*
X160027804Y-104135845D01*
X160088775Y-104143205D01*
X160150949Y-104139583D01*
X160200751Y-104125074D01*
X160214703Y-104115765D01*
X160239085Y-104072753D01*
X160245263Y-104023857D01*
X160245263Y-103959605D01*
X160152818Y-103959605D01*
X160064995Y-103966366D01*
X159998418Y-103985520D01*
X159957002Y-104015376D01*
X159944473Y-104049713D01*
X159782875Y-104049713D01*
X159785490Y-103994004D01*
X159816424Y-103919847D01*
X159874581Y-103863767D01*
X159882620Y-103858665D01*
X159917163Y-103842055D01*
X159959918Y-103831996D01*
X160019686Y-103827107D01*
X160090690Y-103825983D01*
X160245263Y-103825921D01*
X160245263Y-103761125D01*
X160238706Y-103710850D01*
X160221975Y-103677169D01*
X160220016Y-103675376D01*
X160182783Y-103660642D01*
X160126580Y-103654931D01*
X160064467Y-103657737D01*
X160009510Y-103668556D01*
X159976899Y-103684782D01*
X159959228Y-103697780D01*
X159940569Y-103700262D01*
X159914819Y-103689613D01*
X159875873Y-103663218D01*
X159817630Y-103618465D01*
X159812284Y-103614273D01*
X159815023Y-103598760D01*
X159837876Y-103572960D01*
X159872609Y-103544289D01*
X159910990Y-103520166D01*
X159923048Y-103514470D01*
X159967034Y-103503103D01*
X160031487Y-103494995D01*
X160103497Y-103491743D01*
X160106864Y-103491736D01*
X160210457Y-103498184D01*
G36*
X160729881Y-103493486D02*
X160754888Y-103500982D01*
X160762950Y-103517451D01*
X160763289Y-103524886D01*
X160764736Y-103545594D01*
X160774698Y-103548845D01*
X160801612Y-103534648D01*
X160817598Y-103524948D01*
X160868033Y-103504175D01*
X160928272Y-103493904D01*
X160991434Y-103493114D01*
X161050637Y-103500786D01*
X161099002Y-103515898D01*
X161129646Y-103537432D01*
X161135689Y-103564366D01*
X161132639Y-103571660D01*
X161110406Y-103601937D01*
X161075930Y-103639175D01*
X161069694Y-103645195D01*
X161036833Y-103672875D01*
X161008480Y-103681818D01*
X160968827Y-103675576D01*
X160952942Y-103671429D01*
X160903509Y-103661467D01*
X160868752Y-103665947D01*
X160839400Y-103681746D01*
X160812513Y-103702949D01*
X160792710Y-103729614D01*
X160778948Y-103766827D01*
X160770184Y-103819673D01*
X160765374Y-103893237D01*
X160763474Y-103992605D01*
X160763289Y-104052601D01*
X160763289Y-104310526D01*
X160596184Y-104310526D01*
X160596184Y-103491710D01*
X160679736Y-103491710D01*
X160729881Y-103493486D01*
X160729881Y-103493486D01*
G37*
X160729881Y-103493486D02*
X160754888Y-103500982D01*
X160762950Y-103517451D01*
X160763289Y-103524886D01*
X160764736Y-103545594D01*
X160774698Y-103548845D01*
X160801612Y-103534648D01*
X160817598Y-103524948D01*
X160868033Y-103504175D01*
X160928272Y-103493904D01*
X160991434Y-103493114D01*
X161050637Y-103500786D01*
X161099002Y-103515898D01*
X161129646Y-103537432D01*
X161135689Y-103564366D01*
X161132639Y-103571660D01*
X161110406Y-103601937D01*
X161075930Y-103639175D01*
X161069694Y-103645195D01*
X161036833Y-103672875D01*
X161008480Y-103681818D01*
X160968827Y-103675576D01*
X160952942Y-103671429D01*
X160903509Y-103661467D01*
X160868752Y-103665947D01*
X160839400Y-103681746D01*
X160812513Y-103702949D01*
X160792710Y-103729614D01*
X160778948Y-103766827D01*
X160770184Y-103819673D01*
X160765374Y-103893237D01*
X160763474Y-103992605D01*
X160763289Y-104052601D01*
X160763289Y-104310526D01*
X160596184Y-104310526D01*
X160596184Y-103491710D01*
X160679736Y-103491710D01*
X160729881Y-103493486D01*
G36*
X161782631Y-104310526D02*
X161690723Y-104310526D01*
X161637377Y-104308962D01*
X161609593Y-104302485D01*
X161599590Y-104288418D01*
X161598815Y-104278906D01*
X161597128Y-104259832D01*
X161586490Y-104256174D01*
X161558535Y-104267932D01*
X161536795Y-104278906D01*
X161453332Y-104304911D01*
X161362604Y-104306416D01*
X161288842Y-104287021D01*
X161220154Y-104240165D01*
X161167794Y-104171004D01*
X161139122Y-104089427D01*
X161138392Y-104084866D01*
X161134132Y-104035101D01*
X161132014Y-103963659D01*
X161132184Y-103909626D01*
X161314720Y-103909626D01*
X161318949Y-103981441D01*
X161328568Y-104040634D01*
X161341590Y-104074060D01*
X161390856Y-104119740D01*
X161449350Y-104136115D01*
X161509671Y-104122873D01*
X161561217Y-104083373D01*
X161580738Y-104056807D01*
X161592152Y-104025106D01*
X161597498Y-103978832D01*
X161598815Y-103909328D01*
X161596458Y-103840499D01*
X161590233Y-103780026D01*
X161581408Y-103739556D01*
X161579937Y-103735929D01*
X161544347Y-103692802D01*
X161492400Y-103669124D01*
X161434278Y-103665301D01*
X161380160Y-103681738D01*
X161340226Y-103718840D01*
X161336083Y-103726222D01*
X161323116Y-103771239D01*
X161316052Y-103835967D01*
X161314720Y-103909626D01*
X161132184Y-103909626D01*
X161132271Y-103882230D01*
X161133472Y-103838405D01*
X161141645Y-103729988D01*
X161158630Y-103648588D01*
X161186887Y-103588412D01*
X161228872Y-103543666D01*
X161269632Y-103517400D01*
X161326581Y-103498935D01*
X161397411Y-103492602D01*
X161469941Y-103497760D01*
X161531986Y-103513769D01*
X161564768Y-103532920D01*
X161598815Y-103563732D01*
X161598815Y-103174210D01*
X161782631Y-103174210D01*
X161782631Y-104310526D01*
X161782631Y-104310526D01*
G37*
X161782631Y-104310526D02*
X161690723Y-104310526D01*
X161637377Y-104308962D01*
X161609593Y-104302485D01*
X161599590Y-104288418D01*
X161598815Y-104278906D01*
X161597128Y-104259832D01*
X161586490Y-104256174D01*
X161558535Y-104267932D01*
X161536795Y-104278906D01*
X161453332Y-104304911D01*
X161362604Y-104306416D01*
X161288842Y-104287021D01*
X161220154Y-104240165D01*
X161167794Y-104171004D01*
X161139122Y-104089427D01*
X161138392Y-104084866D01*
X161134132Y-104035101D01*
X161132014Y-103963659D01*
X161132184Y-103909626D01*
X161314720Y-103909626D01*
X161318949Y-103981441D01*
X161328568Y-104040634D01*
X161341590Y-104074060D01*
X161390856Y-104119740D01*
X161449350Y-104136115D01*
X161509671Y-104122873D01*
X161561217Y-104083373D01*
X161580738Y-104056807D01*
X161592152Y-104025106D01*
X161597498Y-103978832D01*
X161598815Y-103909328D01*
X161596458Y-103840499D01*
X161590233Y-103780026D01*
X161581408Y-103739556D01*
X161579937Y-103735929D01*
X161544347Y-103692802D01*
X161492400Y-103669124D01*
X161434278Y-103665301D01*
X161380160Y-103681738D01*
X161340226Y-103718840D01*
X161336083Y-103726222D01*
X161323116Y-103771239D01*
X161316052Y-103835967D01*
X161314720Y-103909626D01*
X161132184Y-103909626D01*
X161132271Y-103882230D01*
X161133472Y-103838405D01*
X161141645Y-103729988D01*
X161158630Y-103648588D01*
X161186887Y-103588412D01*
X161228872Y-103543666D01*
X161269632Y-103517400D01*
X161326581Y-103498935D01*
X161397411Y-103492602D01*
X161469941Y-103497760D01*
X161531986Y-103513769D01*
X161564768Y-103532920D01*
X161598815Y-103563732D01*
X161598815Y-103174210D01*
X161782631Y-103174210D01*
X161782631Y-104310526D01*
G36*
X162424130Y-103495104D02*
X162490220Y-103500066D01*
X162576626Y-103759079D01*
X162663031Y-104018092D01*
X162690124Y-103926184D01*
X162706428Y-103869384D01*
X162727875Y-103792625D01*
X162751035Y-103708251D01*
X162763280Y-103662993D01*
X162809344Y-103491710D01*
X162999387Y-103491710D01*
X162942582Y-103671349D01*
X162914607Y-103759704D01*
X162880813Y-103866281D01*
X162845520Y-103977454D01*
X162814013Y-104076579D01*
X162742250Y-104302171D01*
X162587286Y-104312253D01*
X162545270Y-104173528D01*
X162519359Y-104087351D01*
X162491083Y-103992347D01*
X162466369Y-103908441D01*
X162465394Y-103905102D01*
X162446935Y-103848248D01*
X162430649Y-103809456D01*
X162419242Y-103794787D01*
X162416898Y-103796483D01*
X162408671Y-103819225D01*
X162393038Y-103867940D01*
X162371904Y-103936502D01*
X162347170Y-104018785D01*
X162333787Y-104064046D01*
X162261311Y-104310526D01*
X162107495Y-104310526D01*
X161984531Y-103922006D01*
X161949988Y-103813022D01*
X161918521Y-103714048D01*
X161891616Y-103629736D01*
X161870759Y-103564734D01*
X161857438Y-103523692D01*
X161853388Y-103511701D01*
X161856594Y-103499423D01*
X161881765Y-103494046D01*
X161934146Y-103494584D01*
X161942345Y-103494990D01*
X162039482Y-103500066D01*
X162103100Y-103734013D01*
X162126484Y-103819333D01*
X162147381Y-103894335D01*
X162163951Y-103952507D01*
X162174354Y-103987337D01*
X162176276Y-103993016D01*
X162184241Y-103986486D01*
X162200304Y-103952654D01*
X162222621Y-103896127D01*
X162249345Y-103821510D01*
X162271937Y-103754107D01*
X162358041Y-103490143D01*
X162424130Y-103495104D01*
X162424130Y-103495104D01*
G37*
X162424130Y-103495104D02*
X162490220Y-103500066D01*
X162576626Y-103759079D01*
X162663031Y-104018092D01*
X162690124Y-103926184D01*
X162706428Y-103869384D01*
X162727875Y-103792625D01*
X162751035Y-103708251D01*
X162763280Y-103662993D01*
X162809344Y-103491710D01*
X162999387Y-103491710D01*
X162942582Y-103671349D01*
X162914607Y-103759704D01*
X162880813Y-103866281D01*
X162845520Y-103977454D01*
X162814013Y-104076579D01*
X162742250Y-104302171D01*
X162587286Y-104312253D01*
X162545270Y-104173528D01*
X162519359Y-104087351D01*
X162491083Y-103992347D01*
X162466369Y-103908441D01*
X162465394Y-103905102D01*
X162446935Y-103848248D01*
X162430649Y-103809456D01*
X162419242Y-103794787D01*
X162416898Y-103796483D01*
X162408671Y-103819225D01*
X162393038Y-103867940D01*
X162371904Y-103936502D01*
X162347170Y-104018785D01*
X162333787Y-104064046D01*
X162261311Y-104310526D01*
X162107495Y-104310526D01*
X161984531Y-103922006D01*
X161949988Y-103813022D01*
X161918521Y-103714048D01*
X161891616Y-103629736D01*
X161870759Y-103564734D01*
X161857438Y-103523692D01*
X161853388Y-103511701D01*
X161856594Y-103499423D01*
X161881765Y-103494046D01*
X161934146Y-103494584D01*
X161942345Y-103494990D01*
X162039482Y-103500066D01*
X162103100Y-103734013D01*
X162126484Y-103819333D01*
X162147381Y-103894335D01*
X162163951Y-103952507D01*
X162174354Y-103987337D01*
X162176276Y-103993016D01*
X162184241Y-103986486D01*
X162200304Y-103952654D01*
X162222621Y-103896127D01*
X162249345Y-103821510D01*
X162271937Y-103754107D01*
X162358041Y-103490143D01*
X162424130Y-103495104D01*
G36*
X163429992Y-103496673D02*
X163500427Y-103513780D01*
X163520787Y-103522844D01*
X163560253Y-103546583D01*
X163590541Y-103573321D01*
X163612952Y-103607699D01*
X163628786Y-103654360D01*
X163639343Y-103717946D01*
X163645924Y-103803099D01*
X163649828Y-103914462D01*
X163651310Y-103988849D01*
X163656765Y-104310526D01*
X163563580Y-104310526D01*
X163507047Y-104308156D01*
X163477922Y-104300055D01*
X163470394Y-104286451D01*
X163466420Y-104271741D01*
X163448652Y-104274554D01*
X163424440Y-104286348D01*
X163363828Y-104304427D01*
X163285929Y-104309299D01*
X163203995Y-104301330D01*
X163131281Y-104280889D01*
X163124759Y-104278051D01*
X163058302Y-104231365D01*
X163014491Y-104166464D01*
X162994332Y-104090600D01*
X162995872Y-104063344D01*
X163160345Y-104063344D01*
X163174837Y-104100024D01*
X163217805Y-104126309D01*
X163287129Y-104140417D01*
X163324177Y-104142290D01*
X163385919Y-104137494D01*
X163426960Y-104118858D01*
X163436973Y-104110000D01*
X163464100Y-104061806D01*
X163470394Y-104018092D01*
X163470394Y-103959605D01*
X163388930Y-103959605D01*
X163294234Y-103964432D01*
X163227813Y-103979613D01*
X163185846Y-104006200D01*
X163176449Y-104018052D01*
X163160345Y-104063344D01*
X162995872Y-104063344D01*
X162998829Y-104011026D01*
X163028985Y-103934995D01*
X163070131Y-103883612D01*
X163095052Y-103861397D01*
X163119448Y-103846798D01*
X163151191Y-103837897D01*
X163198152Y-103832775D01*
X163268204Y-103829515D01*
X163295990Y-103828577D01*
X163470394Y-103822879D01*
X163470138Y-103770091D01*
X163463384Y-103714603D01*
X163438964Y-103681052D01*
X163389630Y-103659618D01*
X163388306Y-103659236D01*
X163318360Y-103650808D01*
X163249914Y-103661816D01*
X163199047Y-103688585D01*
X163178637Y-103701803D01*
X163156654Y-103699974D01*
X163122826Y-103680824D01*
X163102961Y-103667308D01*
X163064106Y-103638432D01*
X163040038Y-103616786D01*
X163036176Y-103610589D01*
X163052079Y-103578519D01*
X163099065Y-103540219D01*
X163119473Y-103527297D01*
X163178143Y-103505041D01*
X163257212Y-103492432D01*
X163345041Y-103489600D01*
X163429992Y-103496673D01*
X163429992Y-103496673D01*
G37*
X163429992Y-103496673D02*
X163500427Y-103513780D01*
X163520787Y-103522844D01*
X163560253Y-103546583D01*
X163590541Y-103573321D01*
X163612952Y-103607699D01*
X163628786Y-103654360D01*
X163639343Y-103717946D01*
X163645924Y-103803099D01*
X163649828Y-103914462D01*
X163651310Y-103988849D01*
X163656765Y-104310526D01*
X163563580Y-104310526D01*
X163507047Y-104308156D01*
X163477922Y-104300055D01*
X163470394Y-104286451D01*
X163466420Y-104271741D01*
X163448652Y-104274554D01*
X163424440Y-104286348D01*
X163363828Y-104304427D01*
X163285929Y-104309299D01*
X163203995Y-104301330D01*
X163131281Y-104280889D01*
X163124759Y-104278051D01*
X163058302Y-104231365D01*
X163014491Y-104166464D01*
X162994332Y-104090600D01*
X162995872Y-104063344D01*
X163160345Y-104063344D01*
X163174837Y-104100024D01*
X163217805Y-104126309D01*
X163287129Y-104140417D01*
X163324177Y-104142290D01*
X163385919Y-104137494D01*
X163426960Y-104118858D01*
X163436973Y-104110000D01*
X163464100Y-104061806D01*
X163470394Y-104018092D01*
X163470394Y-103959605D01*
X163388930Y-103959605D01*
X163294234Y-103964432D01*
X163227813Y-103979613D01*
X163185846Y-104006200D01*
X163176449Y-104018052D01*
X163160345Y-104063344D01*
X162995872Y-104063344D01*
X162998829Y-104011026D01*
X163028985Y-103934995D01*
X163070131Y-103883612D01*
X163095052Y-103861397D01*
X163119448Y-103846798D01*
X163151191Y-103837897D01*
X163198152Y-103832775D01*
X163268204Y-103829515D01*
X163295990Y-103828577D01*
X163470394Y-103822879D01*
X163470138Y-103770091D01*
X163463384Y-103714603D01*
X163438964Y-103681052D01*
X163389630Y-103659618D01*
X163388306Y-103659236D01*
X163318360Y-103650808D01*
X163249914Y-103661816D01*
X163199047Y-103688585D01*
X163178637Y-103701803D01*
X163156654Y-103699974D01*
X163122826Y-103680824D01*
X163102961Y-103667308D01*
X163064106Y-103638432D01*
X163040038Y-103616786D01*
X163036176Y-103610589D01*
X163052079Y-103578519D01*
X163099065Y-103540219D01*
X163119473Y-103527297D01*
X163178143Y-103505041D01*
X163257212Y-103492432D01*
X163345041Y-103489600D01*
X163429992Y-103496673D01*
G36*
X164223167Y-103491447D02*
X164287408Y-103504112D01*
X164323980Y-103522864D01*
X164362453Y-103554017D01*
X164307717Y-103623127D01*
X164273969Y-103664979D01*
X164251053Y-103685398D01*
X164228279Y-103688517D01*
X164194956Y-103678472D01*
X164179314Y-103672789D01*
X164115542Y-103664404D01*
X164057140Y-103682378D01*
X164014264Y-103722982D01*
X164007299Y-103735929D01*
X163999713Y-103770224D01*
X163993859Y-103833427D01*
X163990011Y-103921060D01*
X163988443Y-104028640D01*
X163988421Y-104043944D01*
X163988421Y-104310526D01*
X163804605Y-104310526D01*
X163804605Y-103491710D01*
X163896513Y-103491710D01*
X163949507Y-103493094D01*
X163977115Y-103499252D01*
X163987324Y-103513194D01*
X163988421Y-103526344D01*
X163988421Y-103560978D01*
X164032450Y-103526344D01*
X164082937Y-103502716D01*
X164150760Y-103491033D01*
X164223167Y-103491447D01*
X164223167Y-103491447D01*
G37*
X164223167Y-103491447D02*
X164287408Y-103504112D01*
X164323980Y-103522864D01*
X164362453Y-103554017D01*
X164307717Y-103623127D01*
X164273969Y-103664979D01*
X164251053Y-103685398D01*
X164228279Y-103688517D01*
X164194956Y-103678472D01*
X164179314Y-103672789D01*
X164115542Y-103664404D01*
X164057140Y-103682378D01*
X164014264Y-103722982D01*
X164007299Y-103735929D01*
X163999713Y-103770224D01*
X163993859Y-103833427D01*
X163990011Y-103921060D01*
X163988443Y-104028640D01*
X163988421Y-104043944D01*
X163988421Y-104310526D01*
X163804605Y-104310526D01*
X163804605Y-103491710D01*
X163896513Y-103491710D01*
X163949507Y-103493094D01*
X163977115Y-103499252D01*
X163987324Y-103513194D01*
X163988421Y-103526344D01*
X163988421Y-103560978D01*
X164032450Y-103526344D01*
X164082937Y-103502716D01*
X164150760Y-103491033D01*
X164223167Y-103491447D01*
G36*
X164751193Y-103496078D02*
X164831068Y-103516845D01*
X164897962Y-103559705D01*
X164930351Y-103591723D01*
X164983445Y-103667413D01*
X165013873Y-103755216D01*
X165024327Y-103863150D01*
X165024380Y-103871875D01*
X165024473Y-103959605D01*
X164519534Y-103959605D01*
X164530298Y-104005559D01*
X164549732Y-104047178D01*
X164583745Y-104090544D01*
X164590860Y-104097467D01*
X164652003Y-104134935D01*
X164721729Y-104141289D01*
X164801987Y-104116638D01*
X164815592Y-104110000D01*
X164857319Y-104089819D01*
X164885268Y-104078321D01*
X164890145Y-104077258D01*
X164907168Y-104087583D01*
X164939633Y-104112845D01*
X164956114Y-104126650D01*
X164990264Y-104158361D01*
X165001478Y-104179299D01*
X164993695Y-104198560D01*
X164989535Y-104203827D01*
X164961357Y-104226878D01*
X164914862Y-104254892D01*
X164882434Y-104271246D01*
X164790385Y-104300059D01*
X164688476Y-104309395D01*
X164591963Y-104298332D01*
X164564934Y-104290412D01*
X164481276Y-104245581D01*
X164419266Y-104176598D01*
X164378545Y-104082794D01*
X164358755Y-103963498D01*
X164356582Y-103901118D01*
X164362926Y-103810298D01*
X164523157Y-103810298D01*
X164538655Y-103817012D01*
X164580312Y-103822280D01*
X164640876Y-103825389D01*
X164681907Y-103825921D01*
X164755711Y-103825408D01*
X164802293Y-103823006D01*
X164827848Y-103817422D01*
X164838569Y-103807361D01*
X164840657Y-103792763D01*
X164826331Y-103747796D01*
X164790262Y-103703353D01*
X164742815Y-103669242D01*
X164695349Y-103655288D01*
X164630879Y-103667666D01*
X164575070Y-103703452D01*
X164536374Y-103755033D01*
X164523157Y-103810298D01*
X164362926Y-103810298D01*
X164365821Y-103768866D01*
X164394336Y-103663498D01*
X164442729Y-103584178D01*
X164511604Y-103530071D01*
X164601565Y-103500343D01*
X164650300Y-103494618D01*
X164751193Y-103496078D01*
X164751193Y-103496078D01*
G37*
X164751193Y-103496078D02*
X164831068Y-103516845D01*
X164897962Y-103559705D01*
X164930351Y-103591723D01*
X164983445Y-103667413D01*
X165013873Y-103755216D01*
X165024327Y-103863150D01*
X165024380Y-103871875D01*
X165024473Y-103959605D01*
X164519534Y-103959605D01*
X164530298Y-104005559D01*
X164549732Y-104047178D01*
X164583745Y-104090544D01*
X164590860Y-104097467D01*
X164652003Y-104134935D01*
X164721729Y-104141289D01*
X164801987Y-104116638D01*
X164815592Y-104110000D01*
X164857319Y-104089819D01*
X164885268Y-104078321D01*
X164890145Y-104077258D01*
X164907168Y-104087583D01*
X164939633Y-104112845D01*
X164956114Y-104126650D01*
X164990264Y-104158361D01*
X165001478Y-104179299D01*
X164993695Y-104198560D01*
X164989535Y-104203827D01*
X164961357Y-104226878D01*
X164914862Y-104254892D01*
X164882434Y-104271246D01*
X164790385Y-104300059D01*
X164688476Y-104309395D01*
X164591963Y-104298332D01*
X164564934Y-104290412D01*
X164481276Y-104245581D01*
X164419266Y-104176598D01*
X164378545Y-104082794D01*
X164358755Y-103963498D01*
X164356582Y-103901118D01*
X164362926Y-103810298D01*
X164523157Y-103810298D01*
X164538655Y-103817012D01*
X164580312Y-103822280D01*
X164640876Y-103825389D01*
X164681907Y-103825921D01*
X164755711Y-103825408D01*
X164802293Y-103823006D01*
X164827848Y-103817422D01*
X164838569Y-103807361D01*
X164840657Y-103792763D01*
X164826331Y-103747796D01*
X164790262Y-103703353D01*
X164742815Y-103669242D01*
X164695349Y-103655288D01*
X164630879Y-103667666D01*
X164575070Y-103703452D01*
X164536374Y-103755033D01*
X164523157Y-103810298D01*
X164362926Y-103810298D01*
X164365821Y-103768866D01*
X164394336Y-103663498D01*
X164442729Y-103584178D01*
X164511604Y-103530071D01*
X164601565Y-103500343D01*
X164650300Y-103494618D01*
X164751193Y-103496078D01*
G36*
X158676784Y-102247104D02*
X158764205Y-102285754D01*
X158830570Y-102350290D01*
X158875976Y-102440812D01*
X158900518Y-102557418D01*
X158902277Y-102575624D01*
X158903656Y-102703984D01*
X158885784Y-102816496D01*
X158849750Y-102907688D01*
X158830455Y-102937022D01*
X158763245Y-102999106D01*
X158677650Y-103039316D01*
X158581890Y-103056003D01*
X158484187Y-103047517D01*
X158409917Y-103021380D01*
X158346047Y-102977335D01*
X158293846Y-102919587D01*
X158292943Y-102918236D01*
X158271744Y-102882593D01*
X158257967Y-102846752D01*
X158249624Y-102801519D01*
X158244727Y-102737701D01*
X158242569Y-102685368D01*
X158241671Y-102637910D01*
X158408743Y-102637910D01*
X158410376Y-102685154D01*
X158416304Y-102748046D01*
X158426761Y-102788407D01*
X158445619Y-102817122D01*
X158463281Y-102833896D01*
X158525894Y-102869016D01*
X158591408Y-102873710D01*
X158652421Y-102848440D01*
X158682928Y-102820124D01*
X158704911Y-102791589D01*
X158717769Y-102764284D01*
X158723412Y-102728750D01*
X158723751Y-102675524D01*
X158722012Y-102626506D01*
X158718271Y-102556482D01*
X158712341Y-102511064D01*
X158701653Y-102481440D01*
X158683639Y-102458797D01*
X158669363Y-102445855D01*
X158609651Y-102411860D01*
X158545234Y-102410165D01*
X158491219Y-102430301D01*
X158445140Y-102472352D01*
X158417689Y-102541428D01*
X158408743Y-102637910D01*
X158241671Y-102637910D01*
X158240599Y-102581299D01*
X158243964Y-102503468D01*
X158254045Y-102444930D01*
X158272226Y-102398737D01*
X158299890Y-102357942D01*
X158310146Y-102345828D01*
X158374278Y-102285474D01*
X158443066Y-102250220D01*
X158527189Y-102235450D01*
X158568209Y-102234243D01*
X158676784Y-102247104D01*
X158676784Y-102247104D01*
G37*
X158676784Y-102247104D02*
X158764205Y-102285754D01*
X158830570Y-102350290D01*
X158875976Y-102440812D01*
X158900518Y-102557418D01*
X158902277Y-102575624D01*
X158903656Y-102703984D01*
X158885784Y-102816496D01*
X158849750Y-102907688D01*
X158830455Y-102937022D01*
X158763245Y-102999106D01*
X158677650Y-103039316D01*
X158581890Y-103056003D01*
X158484187Y-103047517D01*
X158409917Y-103021380D01*
X158346047Y-102977335D01*
X158293846Y-102919587D01*
X158292943Y-102918236D01*
X158271744Y-102882593D01*
X158257967Y-102846752D01*
X158249624Y-102801519D01*
X158244727Y-102737701D01*
X158242569Y-102685368D01*
X158241671Y-102637910D01*
X158408743Y-102637910D01*
X158410376Y-102685154D01*
X158416304Y-102748046D01*
X158426761Y-102788407D01*
X158445619Y-102817122D01*
X158463281Y-102833896D01*
X158525894Y-102869016D01*
X158591408Y-102873710D01*
X158652421Y-102848440D01*
X158682928Y-102820124D01*
X158704911Y-102791589D01*
X158717769Y-102764284D01*
X158723412Y-102728750D01*
X158723751Y-102675524D01*
X158722012Y-102626506D01*
X158718271Y-102556482D01*
X158712341Y-102511064D01*
X158701653Y-102481440D01*
X158683639Y-102458797D01*
X158669363Y-102445855D01*
X158609651Y-102411860D01*
X158545234Y-102410165D01*
X158491219Y-102430301D01*
X158445140Y-102472352D01*
X158417689Y-102541428D01*
X158408743Y-102637910D01*
X158241671Y-102637910D01*
X158240599Y-102581299D01*
X158243964Y-102503468D01*
X158254045Y-102444930D01*
X158272226Y-102398737D01*
X158299890Y-102357942D01*
X158310146Y-102345828D01*
X158374278Y-102285474D01*
X158443066Y-102250220D01*
X158527189Y-102235450D01*
X158568209Y-102234243D01*
X158676784Y-102247104D01*
G36*
X160247018Y-102257027D02*
X160263670Y-102264866D01*
X160321305Y-102307086D01*
X160375805Y-102368700D01*
X160416499Y-102436543D01*
X160428074Y-102467734D01*
X160438634Y-102523449D01*
X160444931Y-102590781D01*
X160445696Y-102618585D01*
X160445789Y-102706316D01*
X159940850Y-102706316D01*
X159951613Y-102752270D01*
X159978033Y-102806620D01*
X160024222Y-102853591D01*
X160079172Y-102883848D01*
X160114189Y-102890131D01*
X160161677Y-102882506D01*
X160218335Y-102863383D01*
X160237582Y-102854584D01*
X160308759Y-102819036D01*
X160369502Y-102865367D01*
X160404552Y-102896703D01*
X160423202Y-102922567D01*
X160424147Y-102930158D01*
X160407485Y-102948556D01*
X160370970Y-102976515D01*
X160337828Y-102998327D01*
X160248393Y-103037537D01*
X160148129Y-103055285D01*
X160048754Y-103050670D01*
X159969539Y-103026551D01*
X159887880Y-102974884D01*
X159829849Y-102906856D01*
X159793546Y-102818843D01*
X159777072Y-102707216D01*
X159775611Y-102656138D01*
X159781457Y-102539091D01*
X159782175Y-102535686D01*
X159949489Y-102535686D01*
X159954097Y-102546662D01*
X159973036Y-102552715D01*
X160012098Y-102555310D01*
X160077077Y-102555910D01*
X160102097Y-102555921D01*
X160178221Y-102555014D01*
X160226496Y-102551720D01*
X160252460Y-102545181D01*
X160261648Y-102534537D01*
X160261973Y-102531119D01*
X160251487Y-102503956D01*
X160225242Y-102465903D01*
X160213959Y-102452579D01*
X160172072Y-102414896D01*
X160128409Y-102400080D01*
X160104885Y-102398842D01*
X160041243Y-102414329D01*
X159987873Y-102455930D01*
X159954019Y-102516353D01*
X159953419Y-102518322D01*
X159949489Y-102535686D01*
X159782175Y-102535686D01*
X159800899Y-102446928D01*
X159835922Y-102373190D01*
X159878756Y-102320848D01*
X159957948Y-102264092D01*
X160051040Y-102233762D01*
X160150055Y-102231021D01*
X160247018Y-102257027D01*
X160247018Y-102257027D01*
G37*
X160247018Y-102257027D02*
X160263670Y-102264866D01*
X160321305Y-102307086D01*
X160375805Y-102368700D01*
X160416499Y-102436543D01*
X160428074Y-102467734D01*
X160438634Y-102523449D01*
X160444931Y-102590781D01*
X160445696Y-102618585D01*
X160445789Y-102706316D01*
X159940850Y-102706316D01*
X159951613Y-102752270D01*
X159978033Y-102806620D01*
X160024222Y-102853591D01*
X160079172Y-102883848D01*
X160114189Y-102890131D01*
X160161677Y-102882506D01*
X160218335Y-102863383D01*
X160237582Y-102854584D01*
X160308759Y-102819036D01*
X160369502Y-102865367D01*
X160404552Y-102896703D01*
X160423202Y-102922567D01*
X160424147Y-102930158D01*
X160407485Y-102948556D01*
X160370970Y-102976515D01*
X160337828Y-102998327D01*
X160248393Y-103037537D01*
X160148129Y-103055285D01*
X160048754Y-103050670D01*
X159969539Y-103026551D01*
X159887880Y-102974884D01*
X159829849Y-102906856D01*
X159793546Y-102818843D01*
X159777072Y-102707216D01*
X159775611Y-102656138D01*
X159781457Y-102539091D01*
X159782175Y-102535686D01*
X159949489Y-102535686D01*
X159954097Y-102546662D01*
X159973036Y-102552715D01*
X160012098Y-102555310D01*
X160077077Y-102555910D01*
X160102097Y-102555921D01*
X160178221Y-102555014D01*
X160226496Y-102551720D01*
X160252460Y-102545181D01*
X160261648Y-102534537D01*
X160261973Y-102531119D01*
X160251487Y-102503956D01*
X160225242Y-102465903D01*
X160213959Y-102452579D01*
X160172072Y-102414896D01*
X160128409Y-102400080D01*
X160104885Y-102398842D01*
X160041243Y-102414329D01*
X159987873Y-102455930D01*
X159954019Y-102516353D01*
X159953419Y-102518322D01*
X159949489Y-102535686D01*
X159782175Y-102535686D01*
X159800899Y-102446928D01*
X159835922Y-102373190D01*
X159878756Y-102320848D01*
X159957948Y-102264092D01*
X160051040Y-102233762D01*
X160150055Y-102231021D01*
X160247018Y-102257027D01*
G36*
X162068628Y-102235547D02*
X162131908Y-102247548D01*
X162197557Y-102272648D01*
X162204572Y-102275848D01*
X162254356Y-102302026D01*
X162288834Y-102326353D01*
X162299978Y-102341937D01*
X162289366Y-102367353D01*
X162263588Y-102404853D01*
X162252146Y-102418852D01*
X162204992Y-102473954D01*
X162144201Y-102438086D01*
X162086347Y-102414192D01*
X162019500Y-102401420D01*
X161955394Y-102400613D01*
X161905764Y-102412615D01*
X161893854Y-102420105D01*
X161871172Y-102454450D01*
X161868416Y-102494013D01*
X161885388Y-102524920D01*
X161895427Y-102530913D01*
X161925510Y-102538357D01*
X161978389Y-102547106D01*
X162043575Y-102555467D01*
X162055600Y-102556778D01*
X162160297Y-102574888D01*
X162236232Y-102605651D01*
X162286592Y-102651907D01*
X162314564Y-102716497D01*
X162323278Y-102795387D01*
X162311240Y-102885065D01*
X162272151Y-102955486D01*
X162205855Y-103006777D01*
X162112194Y-103039067D01*
X162008223Y-103051807D01*
X161923438Y-103051654D01*
X161854665Y-103040083D01*
X161807697Y-103024109D01*
X161748350Y-102996275D01*
X161693506Y-102963973D01*
X161674013Y-102949755D01*
X161623881Y-102908835D01*
X161744803Y-102786477D01*
X161813543Y-102831967D01*
X161882488Y-102866133D01*
X161956111Y-102884004D01*
X162026883Y-102885889D01*
X162087274Y-102872101D01*
X162129757Y-102842949D01*
X162143474Y-102818352D01*
X162141417Y-102778904D01*
X162107330Y-102748737D01*
X162041308Y-102727906D01*
X161968974Y-102718279D01*
X161857652Y-102699910D01*
X161774952Y-102665254D01*
X161719765Y-102613297D01*
X161690988Y-102543023D01*
X161687001Y-102459707D01*
X161706693Y-102372681D01*
X161751589Y-102306902D01*
X161822091Y-102262068D01*
X161918601Y-102237879D01*
X161990100Y-102233137D01*
X162068628Y-102235547D01*
X162068628Y-102235547D01*
G37*
X162068628Y-102235547D02*
X162131908Y-102247548D01*
X162197557Y-102272648D01*
X162204572Y-102275848D01*
X162254356Y-102302026D01*
X162288834Y-102326353D01*
X162299978Y-102341937D01*
X162289366Y-102367353D01*
X162263588Y-102404853D01*
X162252146Y-102418852D01*
X162204992Y-102473954D01*
X162144201Y-102438086D01*
X162086347Y-102414192D01*
X162019500Y-102401420D01*
X161955394Y-102400613D01*
X161905764Y-102412615D01*
X161893854Y-102420105D01*
X161871172Y-102454450D01*
X161868416Y-102494013D01*
X161885388Y-102524920D01*
X161895427Y-102530913D01*
X161925510Y-102538357D01*
X161978389Y-102547106D01*
X162043575Y-102555467D01*
X162055600Y-102556778D01*
X162160297Y-102574888D01*
X162236232Y-102605651D01*
X162286592Y-102651907D01*
X162314564Y-102716497D01*
X162323278Y-102795387D01*
X162311240Y-102885065D01*
X162272151Y-102955486D01*
X162205855Y-103006777D01*
X162112194Y-103039067D01*
X162008223Y-103051807D01*
X161923438Y-103051654D01*
X161854665Y-103040083D01*
X161807697Y-103024109D01*
X161748350Y-102996275D01*
X161693506Y-102963973D01*
X161674013Y-102949755D01*
X161623881Y-102908835D01*
X161744803Y-102786477D01*
X161813543Y-102831967D01*
X161882488Y-102866133D01*
X161956111Y-102884004D01*
X162026883Y-102885889D01*
X162087274Y-102872101D01*
X162129757Y-102842949D01*
X162143474Y-102818352D01*
X162141417Y-102778904D01*
X162107330Y-102748737D01*
X162041308Y-102727906D01*
X161968974Y-102718279D01*
X161857652Y-102699910D01*
X161774952Y-102665254D01*
X161719765Y-102613297D01*
X161690988Y-102543023D01*
X161687001Y-102459707D01*
X161706693Y-102372681D01*
X161751589Y-102306902D01*
X161822091Y-102262068D01*
X161918601Y-102237879D01*
X161990100Y-102233137D01*
X162068628Y-102235547D01*
G36*
X162861669Y-102248310D02*
X162946192Y-102294340D01*
X163012321Y-102367006D01*
X163043478Y-102426106D01*
X163056855Y-102478305D01*
X163065522Y-102552719D01*
X163069237Y-102638442D01*
X163067754Y-102724569D01*
X163060831Y-102800193D01*
X163052745Y-102840584D01*
X163025465Y-102895840D01*
X162978220Y-102954530D01*
X162921282Y-103005852D01*
X162864924Y-103039005D01*
X162863550Y-103039531D01*
X162793616Y-103054018D01*
X162710737Y-103054377D01*
X162631977Y-103041188D01*
X162601566Y-103030617D01*
X162523239Y-102986201D01*
X162467143Y-102928007D01*
X162430286Y-102850965D01*
X162409680Y-102750001D01*
X162405018Y-102697116D01*
X162405613Y-102630663D01*
X162584736Y-102630663D01*
X162590770Y-102727630D01*
X162608138Y-102801523D01*
X162635740Y-102848736D01*
X162655404Y-102862237D01*
X162705787Y-102871651D01*
X162765673Y-102868864D01*
X162817449Y-102855316D01*
X162831027Y-102847862D01*
X162866849Y-102804451D01*
X162890493Y-102738014D01*
X162900558Y-102657161D01*
X162895642Y-102570502D01*
X162884655Y-102518349D01*
X162853109Y-102457951D01*
X162803311Y-102420197D01*
X162743337Y-102407143D01*
X162681264Y-102420849D01*
X162633582Y-102454372D01*
X162608525Y-102482031D01*
X162593900Y-102509294D01*
X162586929Y-102546190D01*
X162584833Y-102602750D01*
X162584736Y-102630663D01*
X162405613Y-102630663D01*
X162406282Y-102555994D01*
X162429265Y-102440271D01*
X162473972Y-102349941D01*
X162540405Y-102285000D01*
X162628565Y-102245445D01*
X162647495Y-102240858D01*
X162761266Y-102230090D01*
X162861669Y-102248310D01*
X162861669Y-102248310D01*
G37*
X162861669Y-102248310D02*
X162946192Y-102294340D01*
X163012321Y-102367006D01*
X163043478Y-102426106D01*
X163056855Y-102478305D01*
X163065522Y-102552719D01*
X163069237Y-102638442D01*
X163067754Y-102724569D01*
X163060831Y-102800193D01*
X163052745Y-102840584D01*
X163025465Y-102895840D01*
X162978220Y-102954530D01*
X162921282Y-103005852D01*
X162864924Y-103039005D01*
X162863550Y-103039531D01*
X162793616Y-103054018D01*
X162710737Y-103054377D01*
X162631977Y-103041188D01*
X162601566Y-103030617D01*
X162523239Y-102986201D01*
X162467143Y-102928007D01*
X162430286Y-102850965D01*
X162409680Y-102750001D01*
X162405018Y-102697116D01*
X162405613Y-102630663D01*
X162584736Y-102630663D01*
X162590770Y-102727630D01*
X162608138Y-102801523D01*
X162635740Y-102848736D01*
X162655404Y-102862237D01*
X162705787Y-102871651D01*
X162765673Y-102868864D01*
X162817449Y-102855316D01*
X162831027Y-102847862D01*
X162866849Y-102804451D01*
X162890493Y-102738014D01*
X162900558Y-102657161D01*
X162895642Y-102570502D01*
X162884655Y-102518349D01*
X162853109Y-102457951D01*
X162803311Y-102420197D01*
X162743337Y-102407143D01*
X162681264Y-102420849D01*
X162633582Y-102454372D01*
X162608525Y-102482031D01*
X162593900Y-102509294D01*
X162586929Y-102546190D01*
X162584833Y-102602750D01*
X162584736Y-102630663D01*
X162405613Y-102630663D01*
X162406282Y-102555994D01*
X162429265Y-102440271D01*
X162473972Y-102349941D01*
X162540405Y-102285000D01*
X162628565Y-102245445D01*
X162647495Y-102240858D01*
X162761266Y-102230090D01*
X162861669Y-102248310D01*
G36*
X163370131Y-102498533D02*
X163371710Y-102621089D01*
X163377481Y-102714179D01*
X163388991Y-102781651D01*
X163407790Y-102827355D01*
X163435426Y-102855139D01*
X163473448Y-102868854D01*
X163520526Y-102872358D01*
X163569832Y-102868432D01*
X163607283Y-102854089D01*
X163634428Y-102825478D01*
X163652815Y-102778751D01*
X163663993Y-102710058D01*
X163669511Y-102615550D01*
X163670921Y-102498533D01*
X163670921Y-102238421D01*
X163854736Y-102238421D01*
X163854736Y-103040526D01*
X163762828Y-103040526D01*
X163707422Y-103038281D01*
X163678891Y-103030396D01*
X163670921Y-103015428D01*
X163666120Y-103002097D01*
X163647014Y-103004917D01*
X163608504Y-103023783D01*
X163520239Y-103052887D01*
X163426623Y-103050825D01*
X163336921Y-103019221D01*
X163294204Y-102994257D01*
X163261621Y-102967226D01*
X163237817Y-102933405D01*
X163221439Y-102888068D01*
X163211131Y-102826489D01*
X163205541Y-102743943D01*
X163203312Y-102635705D01*
X163203026Y-102552004D01*
X163203026Y-102238421D01*
X163370131Y-102238421D01*
X163370131Y-102498533D01*
X163370131Y-102498533D01*
G37*
X163370131Y-102498533D02*
X163371710Y-102621089D01*
X163377481Y-102714179D01*
X163388991Y-102781651D01*
X163407790Y-102827355D01*
X163435426Y-102855139D01*
X163473448Y-102868854D01*
X163520526Y-102872358D01*
X163569832Y-102868432D01*
X163607283Y-102854089D01*
X163634428Y-102825478D01*
X163652815Y-102778751D01*
X163663993Y-102710058D01*
X163669511Y-102615550D01*
X163670921Y-102498533D01*
X163670921Y-102238421D01*
X163854736Y-102238421D01*
X163854736Y-103040526D01*
X163762828Y-103040526D01*
X163707422Y-103038281D01*
X163678891Y-103030396D01*
X163670921Y-103015428D01*
X163666120Y-103002097D01*
X163647014Y-103004917D01*
X163608504Y-103023783D01*
X163520239Y-103052887D01*
X163426623Y-103050825D01*
X163336921Y-103019221D01*
X163294204Y-102994257D01*
X163261621Y-102967226D01*
X163237817Y-102933405D01*
X163221439Y-102888068D01*
X163211131Y-102826489D01*
X163205541Y-102743943D01*
X163203312Y-102635705D01*
X163203026Y-102552004D01*
X163203026Y-102238421D01*
X163370131Y-102238421D01*
X163370131Y-102498533D01*
G36*
X164996576Y-102245419D02*
X165093395Y-102286549D01*
X165123890Y-102306571D01*
X165162865Y-102337340D01*
X165187331Y-102361533D01*
X165191578Y-102369413D01*
X165179584Y-102386899D01*
X165148887Y-102416570D01*
X165124312Y-102437279D01*
X165057046Y-102491336D01*
X165003930Y-102446642D01*
X164962884Y-102417789D01*
X164922863Y-102407829D01*
X164877059Y-102410261D01*
X164804324Y-102428345D01*
X164754256Y-102465881D01*
X164723829Y-102526562D01*
X164710017Y-102614081D01*
X164710013Y-102614136D01*
X164711208Y-102711958D01*
X164729772Y-102783730D01*
X164766804Y-102832595D01*
X164792050Y-102849143D01*
X164859097Y-102869749D01*
X164930709Y-102869762D01*
X164993015Y-102849768D01*
X165007763Y-102840000D01*
X165044750Y-102815047D01*
X165073668Y-102810958D01*
X165104856Y-102829530D01*
X165139336Y-102862887D01*
X165193912Y-102919196D01*
X165133318Y-102969142D01*
X165039698Y-103025513D01*
X164934125Y-103053293D01*
X164823798Y-103051282D01*
X164751343Y-103032862D01*
X164666656Y-102987310D01*
X164598927Y-102915650D01*
X164568157Y-102865066D01*
X164543236Y-102792488D01*
X164530766Y-102700569D01*
X164530670Y-102600948D01*
X164542870Y-102505267D01*
X164567290Y-102425169D01*
X164571136Y-102416956D01*
X164628093Y-102336413D01*
X164705209Y-102277771D01*
X164796390Y-102242247D01*
X164895543Y-102231057D01*
X164996576Y-102245419D01*
X164996576Y-102245419D01*
G37*
X164996576Y-102245419D02*
X165093395Y-102286549D01*
X165123890Y-102306571D01*
X165162865Y-102337340D01*
X165187331Y-102361533D01*
X165191578Y-102369413D01*
X165179584Y-102386899D01*
X165148887Y-102416570D01*
X165124312Y-102437279D01*
X165057046Y-102491336D01*
X165003930Y-102446642D01*
X164962884Y-102417789D01*
X164922863Y-102407829D01*
X164877059Y-102410261D01*
X164804324Y-102428345D01*
X164754256Y-102465881D01*
X164723829Y-102526562D01*
X164710017Y-102614081D01*
X164710013Y-102614136D01*
X164711208Y-102711958D01*
X164729772Y-102783730D01*
X164766804Y-102832595D01*
X164792050Y-102849143D01*
X164859097Y-102869749D01*
X164930709Y-102869762D01*
X164993015Y-102849768D01*
X165007763Y-102840000D01*
X165044750Y-102815047D01*
X165073668Y-102810958D01*
X165104856Y-102829530D01*
X165139336Y-102862887D01*
X165193912Y-102919196D01*
X165133318Y-102969142D01*
X165039698Y-103025513D01*
X164934125Y-103053293D01*
X164823798Y-103051282D01*
X164751343Y-103032862D01*
X164666656Y-102987310D01*
X164598927Y-102915650D01*
X164568157Y-102865066D01*
X164543236Y-102792488D01*
X164530766Y-102700569D01*
X164530670Y-102600948D01*
X164542870Y-102505267D01*
X164567290Y-102425169D01*
X164571136Y-102416956D01*
X164628093Y-102336413D01*
X164705209Y-102277771D01*
X164796390Y-102242247D01*
X164895543Y-102231057D01*
X164996576Y-102245419D01*
G36*
X165608784Y-102235554D02*
X165651574Y-102245949D01*
X165733609Y-102284013D01*
X165803757Y-102342149D01*
X165852305Y-102411852D01*
X165858975Y-102427502D01*
X165868124Y-102468496D01*
X165874529Y-102529138D01*
X165876710Y-102590430D01*
X165876710Y-102706316D01*
X165634407Y-102706316D01*
X165534471Y-102706693D01*
X165464069Y-102708987D01*
X165419313Y-102714938D01*
X165396315Y-102726285D01*
X165391189Y-102744771D01*
X165400048Y-102772136D01*
X165415917Y-102804155D01*
X165460184Y-102857592D01*
X165521699Y-102884215D01*
X165596885Y-102883347D01*
X165682053Y-102854371D01*
X165755659Y-102818611D01*
X165816734Y-102866904D01*
X165877810Y-102915197D01*
X165820351Y-102968285D01*
X165743641Y-103018445D01*
X165649302Y-103048688D01*
X165547827Y-103057151D01*
X165449711Y-103041974D01*
X165433881Y-103036824D01*
X165347647Y-102991791D01*
X165283501Y-102924652D01*
X165240091Y-102833405D01*
X165216064Y-102716044D01*
X165215784Y-102713529D01*
X165213633Y-102585627D01*
X165222329Y-102539997D01*
X165392105Y-102539997D01*
X165407697Y-102547013D01*
X165450029Y-102552388D01*
X165512434Y-102555457D01*
X165551981Y-102555921D01*
X165625728Y-102555630D01*
X165671840Y-102553783D01*
X165696100Y-102548912D01*
X165704294Y-102539555D01*
X165702206Y-102524245D01*
X165700455Y-102518322D01*
X165670560Y-102462668D01*
X165623542Y-102417815D01*
X165582049Y-102398105D01*
X165526926Y-102399295D01*
X165471068Y-102423875D01*
X165424212Y-102464570D01*
X165396094Y-102514108D01*
X165392105Y-102539997D01*
X165222329Y-102539997D01*
X165235074Y-102473133D01*
X165277611Y-102378727D01*
X165338747Y-102305088D01*
X165415985Y-102254893D01*
X165506830Y-102230822D01*
X165608784Y-102235554D01*
X165608784Y-102235554D01*
G37*
X165608784Y-102235554D02*
X165651574Y-102245949D01*
X165733609Y-102284013D01*
X165803757Y-102342149D01*
X165852305Y-102411852D01*
X165858975Y-102427502D01*
X165868124Y-102468496D01*
X165874529Y-102529138D01*
X165876710Y-102590430D01*
X165876710Y-102706316D01*
X165634407Y-102706316D01*
X165534471Y-102706693D01*
X165464069Y-102708987D01*
X165419313Y-102714938D01*
X165396315Y-102726285D01*
X165391189Y-102744771D01*
X165400048Y-102772136D01*
X165415917Y-102804155D01*
X165460184Y-102857592D01*
X165521699Y-102884215D01*
X165596885Y-102883347D01*
X165682053Y-102854371D01*
X165755659Y-102818611D01*
X165816734Y-102866904D01*
X165877810Y-102915197D01*
X165820351Y-102968285D01*
X165743641Y-103018445D01*
X165649302Y-103048688D01*
X165547827Y-103057151D01*
X165449711Y-103041974D01*
X165433881Y-103036824D01*
X165347647Y-102991791D01*
X165283501Y-102924652D01*
X165240091Y-102833405D01*
X165216064Y-102716044D01*
X165215784Y-102713529D01*
X165213633Y-102585627D01*
X165222329Y-102539997D01*
X165392105Y-102539997D01*
X165407697Y-102547013D01*
X165450029Y-102552388D01*
X165512434Y-102555457D01*
X165551981Y-102555921D01*
X165625728Y-102555630D01*
X165671840Y-102553783D01*
X165696100Y-102548912D01*
X165704294Y-102539555D01*
X165702206Y-102524245D01*
X165700455Y-102518322D01*
X165670560Y-102462668D01*
X165623542Y-102417815D01*
X165582049Y-102398105D01*
X165526926Y-102399295D01*
X165471068Y-102423875D01*
X165424212Y-102464570D01*
X165396094Y-102514108D01*
X165392105Y-102539997D01*
X165222329Y-102539997D01*
X165235074Y-102473133D01*
X165277611Y-102378727D01*
X165338747Y-102305088D01*
X165415985Y-102254893D01*
X165506830Y-102230822D01*
X165608784Y-102235554D01*
G36*
X161047957Y-102252226D02*
X161089546Y-102272090D01*
X161129825Y-102300784D01*
X161160510Y-102333809D01*
X161182861Y-102375931D01*
X161198136Y-102431915D01*
X161207592Y-102506528D01*
X161212487Y-102604535D01*
X161214081Y-102730702D01*
X161214106Y-102743914D01*
X161214473Y-103040526D01*
X161030657Y-103040526D01*
X161030657Y-102767081D01*
X161030527Y-102665777D01*
X161029621Y-102592353D01*
X161027173Y-102541271D01*
X161022414Y-102506990D01*
X161014574Y-102483971D01*
X161002885Y-102466673D01*
X160986602Y-102449581D01*
X160929634Y-102412857D01*
X160867445Y-102406042D01*
X160808199Y-102429261D01*
X160787595Y-102446543D01*
X160772470Y-102462791D01*
X160761610Y-102480191D01*
X160754310Y-102504212D01*
X160749863Y-102540322D01*
X160747564Y-102593988D01*
X160746704Y-102670680D01*
X160746578Y-102764043D01*
X160746578Y-103040526D01*
X160562763Y-103040526D01*
X160562763Y-102238421D01*
X160654671Y-102238421D01*
X160709851Y-102240603D01*
X160738320Y-102248351D01*
X160746575Y-102263468D01*
X160746578Y-102263916D01*
X160750408Y-102278720D01*
X160767301Y-102277040D01*
X160800888Y-102260773D01*
X160877063Y-102236840D01*
X160964200Y-102234178D01*
X161047957Y-102252226D01*
X161047957Y-102252226D01*
G37*
X161047957Y-102252226D02*
X161089546Y-102272090D01*
X161129825Y-102300784D01*
X161160510Y-102333809D01*
X161182861Y-102375931D01*
X161198136Y-102431915D01*
X161207592Y-102506528D01*
X161212487Y-102604535D01*
X161214081Y-102730702D01*
X161214106Y-102743914D01*
X161214473Y-103040526D01*
X161030657Y-103040526D01*
X161030657Y-102767081D01*
X161030527Y-102665777D01*
X161029621Y-102592353D01*
X161027173Y-102541271D01*
X161022414Y-102506990D01*
X161014574Y-102483971D01*
X161002885Y-102466673D01*
X160986602Y-102449581D01*
X160929634Y-102412857D01*
X160867445Y-102406042D01*
X160808199Y-102429261D01*
X160787595Y-102446543D01*
X160772470Y-102462791D01*
X160761610Y-102480191D01*
X160754310Y-102504212D01*
X160749863Y-102540322D01*
X160747564Y-102593988D01*
X160746704Y-102670680D01*
X160746578Y-102764043D01*
X160746578Y-103040526D01*
X160562763Y-103040526D01*
X160562763Y-102238421D01*
X160654671Y-102238421D01*
X160709851Y-102240603D01*
X160738320Y-102248351D01*
X160746575Y-102263468D01*
X160746578Y-102263916D01*
X160750408Y-102278720D01*
X160767301Y-102277040D01*
X160800888Y-102260773D01*
X160877063Y-102236840D01*
X160964200Y-102234178D01*
X161047957Y-102252226D01*
G36*
X164441388Y-102237645D02*
X164498865Y-102255206D01*
X164535872Y-102277395D01*
X164547927Y-102294942D01*
X164544609Y-102315742D01*
X164523079Y-102348419D01*
X164504874Y-102371562D01*
X164467344Y-102413402D01*
X164439148Y-102431005D01*
X164415111Y-102429856D01*
X164343808Y-102411710D01*
X164291442Y-102412534D01*
X164248918Y-102433098D01*
X164234642Y-102445134D01*
X164188947Y-102487483D01*
X164188947Y-103040526D01*
X164005131Y-103040526D01*
X164005131Y-102238421D01*
X164097039Y-102238421D01*
X164152219Y-102240603D01*
X164180688Y-102248351D01*
X164188943Y-102263468D01*
X164188947Y-102263916D01*
X164192845Y-102279749D01*
X164210474Y-102277684D01*
X164234901Y-102266261D01*
X164285350Y-102245005D01*
X164326316Y-102232216D01*
X164379028Y-102228938D01*
X164441388Y-102237645D01*
X164441388Y-102237645D01*
G37*
X164441388Y-102237645D02*
X164498865Y-102255206D01*
X164535872Y-102277395D01*
X164547927Y-102294942D01*
X164544609Y-102315742D01*
X164523079Y-102348419D01*
X164504874Y-102371562D01*
X164467344Y-102413402D01*
X164439148Y-102431005D01*
X164415111Y-102429856D01*
X164343808Y-102411710D01*
X164291442Y-102412534D01*
X164248918Y-102433098D01*
X164234642Y-102445134D01*
X164188947Y-102487483D01*
X164188947Y-103040526D01*
X164005131Y-103040526D01*
X164005131Y-102238421D01*
X164097039Y-102238421D01*
X164152219Y-102240603D01*
X164180688Y-102248351D01*
X164188943Y-102263468D01*
X164188947Y-102263916D01*
X164192845Y-102279749D01*
X164210474Y-102277684D01*
X164234901Y-102266261D01*
X164285350Y-102245005D01*
X164326316Y-102232216D01*
X164379028Y-102228938D01*
X164441388Y-102237645D01*
G36*
X162550964Y-96698576D02*
X162626513Y-97099322D01*
X163184041Y-97329154D01*
X163518465Y-97101748D01*
X163612122Y-97038431D01*
X163696782Y-96981896D01*
X163768495Y-96934727D01*
X163823311Y-96899502D01*
X163857280Y-96878805D01*
X163866530Y-96874342D01*
X163883195Y-96885820D01*
X163918806Y-96917551D01*
X163969371Y-96965483D01*
X164030900Y-97025562D01*
X164099399Y-97093733D01*
X164170879Y-97165945D01*
X164241347Y-97238142D01*
X164306811Y-97306273D01*
X164363280Y-97366283D01*
X164406763Y-97414119D01*
X164433268Y-97445727D01*
X164439605Y-97456305D01*
X164430486Y-97475806D01*
X164404920Y-97518531D01*
X164365597Y-97580298D01*
X164315203Y-97656931D01*
X164256427Y-97744248D01*
X164222368Y-97794052D01*
X164160289Y-97884993D01*
X164105126Y-97967059D01*
X164059554Y-98036163D01*
X164026250Y-98088222D01*
X164007890Y-98119150D01*
X164005131Y-98125650D01*
X164011385Y-98144121D01*
X164028434Y-98187172D01*
X164053703Y-98248749D01*
X164084622Y-98322799D01*
X164118618Y-98403270D01*
X164153118Y-98484107D01*
X164185551Y-98559258D01*
X164213343Y-98622671D01*
X164233923Y-98668293D01*
X164244719Y-98690069D01*
X164245356Y-98690926D01*
X164262307Y-98695084D01*
X164307451Y-98704361D01*
X164376110Y-98717844D01*
X164463602Y-98734621D01*
X164565250Y-98753781D01*
X164624556Y-98764830D01*
X164733172Y-98785510D01*
X164831277Y-98805189D01*
X164913909Y-98822789D01*
X164976104Y-98837233D01*
X165012899Y-98847446D01*
X165020296Y-98850686D01*
X165027540Y-98872617D01*
X165033385Y-98922147D01*
X165037835Y-98993485D01*
X165040893Y-99080839D01*
X165042565Y-99178417D01*
X165042853Y-99280426D01*
X165041761Y-99381075D01*
X165039294Y-99474572D01*
X165035456Y-99555125D01*
X165030250Y-99616942D01*
X165023681Y-99654230D01*
X165019741Y-99661993D01*
X164996188Y-99671298D01*
X164946282Y-99684600D01*
X164876623Y-99700337D01*
X164793813Y-99716946D01*
X164764905Y-99722319D01*
X164625531Y-99747848D01*
X164515436Y-99768408D01*
X164430982Y-99784815D01*
X164368530Y-99797887D01*
X164324444Y-99808441D01*
X164295085Y-99817294D01*
X164276815Y-99825263D01*
X164265998Y-99833165D01*
X164264485Y-99834727D01*
X164249377Y-99859886D01*
X164226329Y-99908850D01*
X164197644Y-99975621D01*
X164165622Y-100054205D01*
X164132565Y-100138607D01*
X164100773Y-100222830D01*
X164072549Y-100300879D01*
X164050193Y-100366759D01*
X164036007Y-100414473D01*
X164032293Y-100438027D01*
X164032602Y-100438852D01*
X164045189Y-100458104D01*
X164073744Y-100500463D01*
X164115267Y-100561521D01*
X164166756Y-100636868D01*
X164225211Y-100722096D01*
X164241858Y-100746315D01*
X164301215Y-100834123D01*
X164353447Y-100914238D01*
X164395708Y-100982062D01*
X164425153Y-101032993D01*
X164438937Y-101062431D01*
X164439605Y-101066048D01*
X164428024Y-101085057D01*
X164396024Y-101122714D01*
X164347718Y-101174973D01*
X164287220Y-101237786D01*
X164218644Y-101307106D01*
X164146104Y-101378885D01*
X164073712Y-101449077D01*
X164005584Y-101513635D01*
X163945832Y-101568510D01*
X163898571Y-101609656D01*
X163867913Y-101633026D01*
X163859432Y-101636842D01*
X163839691Y-101627855D01*
X163799274Y-101603616D01*
X163744763Y-101568209D01*
X163702823Y-101539711D01*
X163626829Y-101487418D01*
X163536834Y-101425845D01*
X163446564Y-101364370D01*
X163398032Y-101331469D01*
X163233762Y-101220359D01*
X163095869Y-101294916D01*
X163033049Y-101327578D01*
X162979629Y-101352966D01*
X162943484Y-101367446D01*
X162934284Y-101369460D01*
X162923221Y-101354584D01*
X162901394Y-101312547D01*
X162870434Y-101247227D01*
X162831970Y-101162500D01*
X162787632Y-101062245D01*
X162739047Y-100950339D01*
X162687846Y-100830659D01*
X162635659Y-100707084D01*
X162584113Y-100583491D01*
X162534840Y-100463757D01*
X162489467Y-100351759D01*
X162449625Y-100251377D01*
X162416942Y-100166486D01*
X162393049Y-100100965D01*
X162379574Y-100058690D01*
X162377406Y-100044172D01*
X162394583Y-100025653D01*
X162432190Y-99995590D01*
X162482366Y-99960232D01*
X162486578Y-99957434D01*
X162616264Y-99853625D01*
X162720834Y-99732515D01*
X162799381Y-99597976D01*
X162850999Y-99453882D01*
X162874782Y-99304105D01*
X162869823Y-99152517D01*
X162835217Y-99002992D01*
X162770057Y-98859400D01*
X162750886Y-98827984D01*
X162651174Y-98701125D01*
X162533377Y-98599255D01*
X162401571Y-98522904D01*
X162259833Y-98472602D01*
X162112242Y-98448879D01*
X161962873Y-98452265D01*
X161815803Y-98483288D01*
X161675111Y-98542480D01*
X161544873Y-98630369D01*
X161504586Y-98666042D01*
X161402055Y-98777706D01*
X161327341Y-98895257D01*
X161276090Y-99027020D01*
X161247546Y-99157507D01*
X161240500Y-99304216D01*
X161263996Y-99451653D01*
X161315649Y-99594834D01*
X161393071Y-99728777D01*
X161493875Y-99848498D01*
X161615676Y-99949014D01*
X161631684Y-99959609D01*
X161682398Y-99994306D01*
X161720950Y-100024370D01*
X161739381Y-100043565D01*
X161739649Y-100044172D01*
X161735692Y-100064936D01*
X161720007Y-100112062D01*
X161694222Y-100181673D01*
X161659969Y-100269893D01*
X161618877Y-100372844D01*
X161572576Y-100486650D01*
X161522696Y-100607435D01*
X161470867Y-100731321D01*
X161418719Y-100854432D01*
X161367882Y-100972891D01*
X161319987Y-101082823D01*
X161276662Y-101180349D01*
X161239538Y-101261593D01*
X161210244Y-101322679D01*
X161190412Y-101359730D01*
X161182426Y-101369460D01*
X161158021Y-101361883D01*
X161112358Y-101341560D01*
X161053310Y-101312125D01*
X161020840Y-101294916D01*
X160882947Y-101220359D01*
X160718677Y-101331469D01*
X160634821Y-101388390D01*
X160543013Y-101451030D01*
X160456980Y-101510011D01*
X160413887Y-101539711D01*
X160353277Y-101580410D01*
X160301955Y-101612663D01*
X160266615Y-101632384D01*
X160255137Y-101636554D01*
X160238430Y-101625307D01*
X160201454Y-101593911D01*
X160147795Y-101545624D01*
X160081038Y-101483708D01*
X160004766Y-101411421D01*
X159956527Y-101365008D01*
X159872133Y-101282087D01*
X159799197Y-101207920D01*
X159740669Y-101145680D01*
X159699497Y-101098541D01*
X159678628Y-101069673D01*
X159676626Y-101063815D01*
X159685917Y-101041532D01*
X159711591Y-100996477D01*
X159750800Y-100933211D01*
X159800697Y-100856295D01*
X159858433Y-100770292D01*
X159874851Y-100746315D01*
X159934677Y-100659170D01*
X159988350Y-100580710D01*
X160032870Y-100515345D01*
X160065235Y-100467484D01*
X160082445Y-100441535D01*
X160084107Y-100438852D01*
X160081621Y-100418172D01*
X160068423Y-100372704D01*
X160046814Y-100308444D01*
X160019096Y-100231387D01*
X159987570Y-100147529D01*
X159954537Y-100062866D01*
X159922299Y-99983392D01*
X159893157Y-99915104D01*
X159869412Y-99863997D01*
X159853365Y-99836067D01*
X159852225Y-99834727D01*
X159842412Y-99826745D01*
X159825839Y-99818851D01*
X159798868Y-99810229D01*
X159757861Y-99800062D01*
X159699180Y-99787531D01*
X159619187Y-99771821D01*
X159514245Y-99752113D01*
X159380715Y-99727592D01*
X159351804Y-99722319D01*
X159266118Y-99705764D01*
X159191418Y-99689569D01*
X159134306Y-99675296D01*
X159101383Y-99664508D01*
X159096969Y-99661993D01*
X159089694Y-99639696D01*
X159083781Y-99589869D01*
X159079234Y-99518304D01*
X159076055Y-99430793D01*
X159074251Y-99333128D01*
X159073823Y-99231101D01*
X159074777Y-99130503D01*
X159077116Y-99037127D01*
X159080844Y-98956765D01*
X159085966Y-98895209D01*
X159092484Y-98858250D01*
X159096414Y-98850686D01*
X159118292Y-98843056D01*
X159168109Y-98830642D01*
X159240903Y-98814522D01*
X159331711Y-98795773D01*
X159435569Y-98775471D01*
X159492154Y-98764830D01*
X159599514Y-98744760D01*
X159695254Y-98726580D01*
X159774694Y-98711199D01*
X159833154Y-98699531D01*
X159865955Y-98692488D01*
X159871354Y-98690926D01*
X159880478Y-98673322D01*
X159899765Y-98630918D01*
X159926645Y-98569772D01*
X159958546Y-98495943D01*
X159992898Y-98415489D01*
X160027129Y-98334468D01*
X160058669Y-98258937D01*
X160084946Y-98194955D01*
X160103389Y-98148580D01*
X160111429Y-98125869D01*
X160111578Y-98124876D01*
X160102465Y-98106961D01*
X160076914Y-98065733D01*
X160037612Y-98005291D01*
X159987243Y-97929731D01*
X159928494Y-97843152D01*
X159894342Y-97793421D01*
X159832110Y-97702236D01*
X159776836Y-97619449D01*
X159731218Y-97549249D01*
X159697952Y-97495824D01*
X159679736Y-97463361D01*
X159677105Y-97456083D01*
X159688414Y-97439145D01*
X159719681Y-97402978D01*
X159766910Y-97351635D01*
X159826108Y-97289167D01*
X159893281Y-97219626D01*
X159964434Y-97147065D01*
X160035574Y-97075535D01*
X160102707Y-97009087D01*
X160161839Y-96951774D01*
X160208975Y-96907647D01*
X160240123Y-96880759D01*
X160250543Y-96874342D01*
X160267509Y-96883365D01*
X160308089Y-96908715D01*
X160368337Y-96947810D01*
X160444307Y-96998071D01*
X160532054Y-97056917D01*
X160598244Y-97101748D01*
X160932668Y-97329154D01*
X161211433Y-97214238D01*
X161490197Y-97099322D01*
X161565746Y-96698576D01*
X161641294Y-96297829D01*
X162475415Y-96297829D01*
X162550964Y-96698576D01*
X162550964Y-96698576D01*
G37*
X162550964Y-96698576D02*
X162626513Y-97099322D01*
X163184041Y-97329154D01*
X163518465Y-97101748D01*
X163612122Y-97038431D01*
X163696782Y-96981896D01*
X163768495Y-96934727D01*
X163823311Y-96899502D01*
X163857280Y-96878805D01*
X163866530Y-96874342D01*
X163883195Y-96885820D01*
X163918806Y-96917551D01*
X163969371Y-96965483D01*
X164030900Y-97025562D01*
X164099399Y-97093733D01*
X164170879Y-97165945D01*
X164241347Y-97238142D01*
X164306811Y-97306273D01*
X164363280Y-97366283D01*
X164406763Y-97414119D01*
X164433268Y-97445727D01*
X164439605Y-97456305D01*
X164430486Y-97475806D01*
X164404920Y-97518531D01*
X164365597Y-97580298D01*
X164315203Y-97656931D01*
X164256427Y-97744248D01*
X164222368Y-97794052D01*
X164160289Y-97884993D01*
X164105126Y-97967059D01*
X164059554Y-98036163D01*
X164026250Y-98088222D01*
X164007890Y-98119150D01*
X164005131Y-98125650D01*
X164011385Y-98144121D01*
X164028434Y-98187172D01*
X164053703Y-98248749D01*
X164084622Y-98322799D01*
X164118618Y-98403270D01*
X164153118Y-98484107D01*
X164185551Y-98559258D01*
X164213343Y-98622671D01*
X164233923Y-98668293D01*
X164244719Y-98690069D01*
X164245356Y-98690926D01*
X164262307Y-98695084D01*
X164307451Y-98704361D01*
X164376110Y-98717844D01*
X164463602Y-98734621D01*
X164565250Y-98753781D01*
X164624556Y-98764830D01*
X164733172Y-98785510D01*
X164831277Y-98805189D01*
X164913909Y-98822789D01*
X164976104Y-98837233D01*
X165012899Y-98847446D01*
X165020296Y-98850686D01*
X165027540Y-98872617D01*
X165033385Y-98922147D01*
X165037835Y-98993485D01*
X165040893Y-99080839D01*
X165042565Y-99178417D01*
X165042853Y-99280426D01*
X165041761Y-99381075D01*
X165039294Y-99474572D01*
X165035456Y-99555125D01*
X165030250Y-99616942D01*
X165023681Y-99654230D01*
X165019741Y-99661993D01*
X164996188Y-99671298D01*
X164946282Y-99684600D01*
X164876623Y-99700337D01*
X164793813Y-99716946D01*
X164764905Y-99722319D01*
X164625531Y-99747848D01*
X164515436Y-99768408D01*
X164430982Y-99784815D01*
X164368530Y-99797887D01*
X164324444Y-99808441D01*
X164295085Y-99817294D01*
X164276815Y-99825263D01*
X164265998Y-99833165D01*
X164264485Y-99834727D01*
X164249377Y-99859886D01*
X164226329Y-99908850D01*
X164197644Y-99975621D01*
X164165622Y-100054205D01*
X164132565Y-100138607D01*
X164100773Y-100222830D01*
X164072549Y-100300879D01*
X164050193Y-100366759D01*
X164036007Y-100414473D01*
X164032293Y-100438027D01*
X164032602Y-100438852D01*
X164045189Y-100458104D01*
X164073744Y-100500463D01*
X164115267Y-100561521D01*
X164166756Y-100636868D01*
X164225211Y-100722096D01*
X164241858Y-100746315D01*
X164301215Y-100834123D01*
X164353447Y-100914238D01*
X164395708Y-100982062D01*
X164425153Y-101032993D01*
X164438937Y-101062431D01*
X164439605Y-101066048D01*
X164428024Y-101085057D01*
X164396024Y-101122714D01*
X164347718Y-101174973D01*
X164287220Y-101237786D01*
X164218644Y-101307106D01*
X164146104Y-101378885D01*
X164073712Y-101449077D01*
X164005584Y-101513635D01*
X163945832Y-101568510D01*
X163898571Y-101609656D01*
X163867913Y-101633026D01*
X163859432Y-101636842D01*
X163839691Y-101627855D01*
X163799274Y-101603616D01*
X163744763Y-101568209D01*
X163702823Y-101539711D01*
X163626829Y-101487418D01*
X163536834Y-101425845D01*
X163446564Y-101364370D01*
X163398032Y-101331469D01*
X163233762Y-101220359D01*
X163095869Y-101294916D01*
X163033049Y-101327578D01*
X162979629Y-101352966D01*
X162943484Y-101367446D01*
X162934284Y-101369460D01*
X162923221Y-101354584D01*
X162901394Y-101312547D01*
X162870434Y-101247227D01*
X162831970Y-101162500D01*
X162787632Y-101062245D01*
X162739047Y-100950339D01*
X162687846Y-100830659D01*
X162635659Y-100707084D01*
X162584113Y-100583491D01*
X162534840Y-100463757D01*
X162489467Y-100351759D01*
X162449625Y-100251377D01*
X162416942Y-100166486D01*
X162393049Y-100100965D01*
X162379574Y-100058690D01*
X162377406Y-100044172D01*
X162394583Y-100025653D01*
X162432190Y-99995590D01*
X162482366Y-99960232D01*
X162486578Y-99957434D01*
X162616264Y-99853625D01*
X162720834Y-99732515D01*
X162799381Y-99597976D01*
X162850999Y-99453882D01*
X162874782Y-99304105D01*
X162869823Y-99152517D01*
X162835217Y-99002992D01*
X162770057Y-98859400D01*
X162750886Y-98827984D01*
X162651174Y-98701125D01*
X162533377Y-98599255D01*
X162401571Y-98522904D01*
X162259833Y-98472602D01*
X162112242Y-98448879D01*
X161962873Y-98452265D01*
X161815803Y-98483288D01*
X161675111Y-98542480D01*
X161544873Y-98630369D01*
X161504586Y-98666042D01*
X161402055Y-98777706D01*
X161327341Y-98895257D01*
X161276090Y-99027020D01*
X161247546Y-99157507D01*
X161240500Y-99304216D01*
X161263996Y-99451653D01*
X161315649Y-99594834D01*
X161393071Y-99728777D01*
X161493875Y-99848498D01*
X161615676Y-99949014D01*
X161631684Y-99959609D01*
X161682398Y-99994306D01*
X161720950Y-100024370D01*
X161739381Y-100043565D01*
X161739649Y-100044172D01*
X161735692Y-100064936D01*
X161720007Y-100112062D01*
X161694222Y-100181673D01*
X161659969Y-100269893D01*
X161618877Y-100372844D01*
X161572576Y-100486650D01*
X161522696Y-100607435D01*
X161470867Y-100731321D01*
X161418719Y-100854432D01*
X161367882Y-100972891D01*
X161319987Y-101082823D01*
X161276662Y-101180349D01*
X161239538Y-101261593D01*
X161210244Y-101322679D01*
X161190412Y-101359730D01*
X161182426Y-101369460D01*
X161158021Y-101361883D01*
X161112358Y-101341560D01*
X161053310Y-101312125D01*
X161020840Y-101294916D01*
X160882947Y-101220359D01*
X160718677Y-101331469D01*
X160634821Y-101388390D01*
X160543013Y-101451030D01*
X160456980Y-101510011D01*
X160413887Y-101539711D01*
X160353277Y-101580410D01*
X160301955Y-101612663D01*
X160266615Y-101632384D01*
X160255137Y-101636554D01*
X160238430Y-101625307D01*
X160201454Y-101593911D01*
X160147795Y-101545624D01*
X160081038Y-101483708D01*
X160004766Y-101411421D01*
X159956527Y-101365008D01*
X159872133Y-101282087D01*
X159799197Y-101207920D01*
X159740669Y-101145680D01*
X159699497Y-101098541D01*
X159678628Y-101069673D01*
X159676626Y-101063815D01*
X159685917Y-101041532D01*
X159711591Y-100996477D01*
X159750800Y-100933211D01*
X159800697Y-100856295D01*
X159858433Y-100770292D01*
X159874851Y-100746315D01*
X159934677Y-100659170D01*
X159988350Y-100580710D01*
X160032870Y-100515345D01*
X160065235Y-100467484D01*
X160082445Y-100441535D01*
X160084107Y-100438852D01*
X160081621Y-100418172D01*
X160068423Y-100372704D01*
X160046814Y-100308444D01*
X160019096Y-100231387D01*
X159987570Y-100147529D01*
X159954537Y-100062866D01*
X159922299Y-99983392D01*
X159893157Y-99915104D01*
X159869412Y-99863997D01*
X159853365Y-99836067D01*
X159852225Y-99834727D01*
X159842412Y-99826745D01*
X159825839Y-99818851D01*
X159798868Y-99810229D01*
X159757861Y-99800062D01*
X159699180Y-99787531D01*
X159619187Y-99771821D01*
X159514245Y-99752113D01*
X159380715Y-99727592D01*
X159351804Y-99722319D01*
X159266118Y-99705764D01*
X159191418Y-99689569D01*
X159134306Y-99675296D01*
X159101383Y-99664508D01*
X159096969Y-99661993D01*
X159089694Y-99639696D01*
X159083781Y-99589869D01*
X159079234Y-99518304D01*
X159076055Y-99430793D01*
X159074251Y-99333128D01*
X159073823Y-99231101D01*
X159074777Y-99130503D01*
X159077116Y-99037127D01*
X159080844Y-98956765D01*
X159085966Y-98895209D01*
X159092484Y-98858250D01*
X159096414Y-98850686D01*
X159118292Y-98843056D01*
X159168109Y-98830642D01*
X159240903Y-98814522D01*
X159331711Y-98795773D01*
X159435569Y-98775471D01*
X159492154Y-98764830D01*
X159599514Y-98744760D01*
X159695254Y-98726580D01*
X159774694Y-98711199D01*
X159833154Y-98699531D01*
X159865955Y-98692488D01*
X159871354Y-98690926D01*
X159880478Y-98673322D01*
X159899765Y-98630918D01*
X159926645Y-98569772D01*
X159958546Y-98495943D01*
X159992898Y-98415489D01*
X160027129Y-98334468D01*
X160058669Y-98258937D01*
X160084946Y-98194955D01*
X160103389Y-98148580D01*
X160111429Y-98125869D01*
X160111578Y-98124876D01*
X160102465Y-98106961D01*
X160076914Y-98065733D01*
X160037612Y-98005291D01*
X159987243Y-97929731D01*
X159928494Y-97843152D01*
X159894342Y-97793421D01*
X159832110Y-97702236D01*
X159776836Y-97619449D01*
X159731218Y-97549249D01*
X159697952Y-97495824D01*
X159679736Y-97463361D01*
X159677105Y-97456083D01*
X159688414Y-97439145D01*
X159719681Y-97402978D01*
X159766910Y-97351635D01*
X159826108Y-97289167D01*
X159893281Y-97219626D01*
X159964434Y-97147065D01*
X160035574Y-97075535D01*
X160102707Y-97009087D01*
X160161839Y-96951774D01*
X160208975Y-96907647D01*
X160240123Y-96880759D01*
X160250543Y-96874342D01*
X160267509Y-96883365D01*
X160308089Y-96908715D01*
X160368337Y-96947810D01*
X160444307Y-96998071D01*
X160532054Y-97056917D01*
X160598244Y-97101748D01*
X160932668Y-97329154D01*
X161211433Y-97214238D01*
X161490197Y-97099322D01*
X161565746Y-96698576D01*
X161641294Y-96297829D01*
X162475415Y-96297829D01*
X162550964Y-96698576D01*
D13*
X151974600Y-95000000D02*
G75*
G03X151974600Y-95000000I-1974600J0D01*
G01*
X148277000Y-92330000D02*
X147427000Y-93180000D01*
X149127000Y-93180000D02*
X148277000Y-92330000D01*
X148277000Y-94030000D02*
X147427000Y-93180000D01*
X155207000Y-95000000D02*
G75*
G03X155207000Y-95000000I-5207000J0D01*
G01*
X174300000Y-99920000D02*
X176300000Y-99920000D01*
X176300000Y-97880000D02*
X174300000Y-97880000D01*
D11*
X159477000Y-92880000D02*
X159527000Y-92880000D01*
X159477000Y-88730000D02*
X159622000Y-88730000D01*
X164627000Y-88730000D02*
X164482000Y-88730000D01*
X164627000Y-92880000D02*
X164482000Y-92880000D01*
X159477000Y-92880000D02*
X159477000Y-88730000D01*
X164627000Y-92880000D02*
X164627000Y-88730000D01*
X159527000Y-92880000D02*
X159527000Y-94280000D01*
D13*
X170220000Y-105300000D02*
X170220000Y-104100000D01*
X171980000Y-104100000D02*
X171980000Y-105300000D01*
X170420000Y-96800000D02*
X170420000Y-95800000D01*
X171780000Y-95800000D02*
X171780000Y-96800000D01*
X173000000Y-103500000D02*
X180800000Y-103500000D01*
X180800000Y-103500000D02*
X180800000Y-100700000D01*
X180800000Y-100700000D02*
X173000000Y-100700000D01*
X173000000Y-100700000D02*
X173000000Y-103500000D01*
X180420000Y-94800000D02*
X180420000Y-92800000D01*
X178380000Y-92800000D02*
X178380000Y-94800000D01*
X171900000Y-93720000D02*
X173900000Y-93720000D01*
X173900000Y-91680000D02*
X171900000Y-91680000D01*
D11*
X173475000Y-93975000D02*
X176350000Y-93975000D01*
X174250000Y-97225000D02*
X176350000Y-97225000D01*
X149238095Y-85552380D02*
X149238095Y-86361904D01*
X149285714Y-86457142D01*
X149333333Y-86504761D01*
X149428571Y-86552380D01*
X149619047Y-86552380D01*
X149714285Y-86504761D01*
X149761904Y-86457142D01*
X149809523Y-86361904D01*
X149809523Y-85552380D01*
X150809523Y-86552380D02*
X150238095Y-86552380D01*
X150523809Y-86552380D02*
X150523809Y-85552380D01*
X150428571Y-85695238D01*
X150333333Y-85790476D01*
X150238095Y-85838095D01*
X178933333Y-99267142D02*
X178885714Y-99314761D01*
X178742857Y-99362380D01*
X178647619Y-99362380D01*
X178504761Y-99314761D01*
X178409523Y-99219523D01*
X178361904Y-99124285D01*
X178314285Y-98933809D01*
X178314285Y-98790952D01*
X178361904Y-98600476D01*
X178409523Y-98505238D01*
X178504761Y-98410000D01*
X178647619Y-98362380D01*
X178742857Y-98362380D01*
X178885714Y-98410000D01*
X178933333Y-98457619D01*
X179885714Y-99362380D02*
X179314285Y-99362380D01*
X179600000Y-99362380D02*
X179600000Y-98362380D01*
X179504761Y-98505238D01*
X179409523Y-98600476D01*
X179314285Y-98648095D01*
X161338095Y-85252380D02*
X161338095Y-86061904D01*
X161385714Y-86157142D01*
X161433333Y-86204761D01*
X161528571Y-86252380D01*
X161719047Y-86252380D01*
X161814285Y-86204761D01*
X161861904Y-86157142D01*
X161909523Y-86061904D01*
X161909523Y-85252380D01*
X162290476Y-85252380D02*
X162909523Y-85252380D01*
X162576190Y-85633333D01*
X162719047Y-85633333D01*
X162814285Y-85680952D01*
X162861904Y-85728571D01*
X162909523Y-85823809D01*
X162909523Y-86061904D01*
X162861904Y-86157142D01*
X162814285Y-86204761D01*
X162719047Y-86252380D01*
X162433333Y-86252380D01*
X162338095Y-86204761D01*
X162290476Y-86157142D01*
X173533333Y-106152380D02*
X173200000Y-105676190D01*
X172961904Y-106152380D02*
X172961904Y-105152380D01*
X173342857Y-105152380D01*
X173438095Y-105200000D01*
X173485714Y-105247619D01*
X173533333Y-105342857D01*
X173533333Y-105485714D01*
X173485714Y-105580952D01*
X173438095Y-105628571D01*
X173342857Y-105676190D01*
X172961904Y-105676190D01*
X174485714Y-106152380D02*
X173914285Y-106152380D01*
X174200000Y-106152380D02*
X174200000Y-105152380D01*
X174104761Y-105295238D01*
X174009523Y-105390476D01*
X173914285Y-105438095D01*
X170102380Y-96466666D02*
X169626190Y-96800000D01*
X170102380Y-97038095D02*
X169102380Y-97038095D01*
X169102380Y-96657142D01*
X169150000Y-96561904D01*
X169197619Y-96514285D01*
X169292857Y-96466666D01*
X169435714Y-96466666D01*
X169530952Y-96514285D01*
X169578571Y-96561904D01*
X169626190Y-96657142D01*
X169626190Y-97038095D01*
X169102380Y-95561904D02*
X169102380Y-96038095D01*
X169578571Y-96085714D01*
X169530952Y-96038095D01*
X169483333Y-95942857D01*
X169483333Y-95704761D01*
X169530952Y-95609523D01*
X169578571Y-95561904D01*
X169673809Y-95514285D01*
X169911904Y-95514285D01*
X170007142Y-95561904D01*
X170054761Y-95609523D01*
X170102380Y-95704761D01*
X170102380Y-95942857D01*
X170054761Y-96038095D01*
X170007142Y-96085714D01*
X178009523Y-105752380D02*
X177676190Y-105276190D01*
X177438095Y-105752380D02*
X177438095Y-104752380D01*
X177819047Y-104752380D01*
X177914285Y-104800000D01*
X177961904Y-104847619D01*
X178009523Y-104942857D01*
X178009523Y-105085714D01*
X177961904Y-105180952D01*
X177914285Y-105228571D01*
X177819047Y-105276190D01*
X177438095Y-105276190D01*
X178438095Y-105752380D02*
X178438095Y-104752380D01*
X179009523Y-105752380D01*
X179009523Y-104752380D01*
X180009523Y-105752380D02*
X179438095Y-105752380D01*
X179723809Y-105752380D02*
X179723809Y-104752380D01*
X179628571Y-104895238D01*
X179533333Y-104990476D01*
X179438095Y-105038095D01*
X182057142Y-93966666D02*
X182104761Y-94014285D01*
X182152380Y-94157142D01*
X182152380Y-94252380D01*
X182104761Y-94395238D01*
X182009523Y-94490476D01*
X181914285Y-94538095D01*
X181723809Y-94585714D01*
X181580952Y-94585714D01*
X181390476Y-94538095D01*
X181295238Y-94490476D01*
X181200000Y-94395238D01*
X181152380Y-94252380D01*
X181152380Y-94157142D01*
X181200000Y-94014285D01*
X181247619Y-93966666D01*
X181247619Y-93585714D02*
X181200000Y-93538095D01*
X181152380Y-93442857D01*
X181152380Y-93204761D01*
X181200000Y-93109523D01*
X181247619Y-93061904D01*
X181342857Y-93014285D01*
X181438095Y-93014285D01*
X181580952Y-93061904D01*
X182152380Y-93633333D01*
X182152380Y-93014285D01*
X176333333Y-93057142D02*
X176285714Y-93104761D01*
X176142857Y-93152380D01*
X176047619Y-93152380D01*
X175904761Y-93104761D01*
X175809523Y-93009523D01*
X175761904Y-92914285D01*
X175714285Y-92723809D01*
X175714285Y-92580952D01*
X175761904Y-92390476D01*
X175809523Y-92295238D01*
X175904761Y-92200000D01*
X176047619Y-92152380D01*
X176142857Y-92152380D01*
X176285714Y-92200000D01*
X176333333Y-92247619D01*
X176666666Y-92152380D02*
X177285714Y-92152380D01*
X176952380Y-92533333D01*
X177095238Y-92533333D01*
X177190476Y-92580952D01*
X177238095Y-92628571D01*
X177285714Y-92723809D01*
X177285714Y-92961904D01*
X177238095Y-93057142D01*
X177190476Y-93104761D01*
X177095238Y-93152380D01*
X176809523Y-93152380D01*
X176714285Y-93104761D01*
X176666666Y-93057142D01*
X177623095Y-96547380D02*
X177623095Y-97356904D01*
X177670714Y-97452142D01*
X177718333Y-97499761D01*
X177813571Y-97547380D01*
X178004047Y-97547380D01*
X178099285Y-97499761D01*
X178146904Y-97452142D01*
X178194523Y-97356904D01*
X178194523Y-96547380D01*
X178623095Y-96642619D02*
X178670714Y-96595000D01*
X178765952Y-96547380D01*
X179004047Y-96547380D01*
X179099285Y-96595000D01*
X179146904Y-96642619D01*
X179194523Y-96737857D01*
X179194523Y-96833095D01*
X179146904Y-96975952D01*
X178575476Y-97547380D01*
X179194523Y-97547380D01*
M02*
