G04 #@! TF.GenerationSoftware,KiCad,Pcbnew,(6.0.0-rc1-dev-1561-g9cac0a38c)*
G04 #@! TF.CreationDate,2019-02-19T07:23:41+01:00
G04 #@! TF.ProjectId,reference_board,72656665-7265-46e6-9365-5f626f617264,v3.1.0*
G04 #@! TF.SameCoordinates,Original*
G04 #@! TF.FileFunction,Copper,L2,Bot*
G04 #@! TF.FilePolarity,Positive*
%FSLAX46Y46*%
G04 Gerber Fmt 4.6, Leading zero omitted, Abs format (unit mm)*
G04 Created by KiCad (PCBNEW (6.0.0-rc1-dev-1561-g9cac0a38c)) date 2019-02-19T07:23:41 CET*
%MOMM*%
%LPD*%
G04 APERTURE LIST*
%ADD10C,0.100000*%
%ADD11C,0.250000*%
%ADD12C,0.150000*%
%ADD13C,4.700000*%
%ADD14C,1.100000*%
%ADD15C,1.500000*%
%ADD16R,1.500000X1.500000*%
%ADD17O,1.700000X1.700000*%
%ADD18R,1.700000X1.700000*%
%ADD19C,0.800000*%
%ADD20C,0.300000*%
%ADD21C,0.250000*%
%ADD22C,0.150000*%
G04 APERTURE END LIST*
D10*
G36*
X156025000Y-95500000D02*
G01*
X155775000Y-95500000D01*
X155775000Y-96000000D01*
X156025000Y-96000000D01*
X156025000Y-95500000D01*
G37*
G36*
X156375000Y-96000000D02*
G01*
X156375000Y-95600000D01*
X156225000Y-95600000D01*
X156225000Y-96000000D01*
X156375000Y-96000000D01*
G37*
D11*
X155900000Y-96000000D03*
X155900000Y-95500000D03*
D12*
X156300000Y-96000000D03*
X156300000Y-95600000D03*
D13*
X153000000Y-105000000D03*
D14*
X158000000Y-96270000D03*
X158000000Y-93730000D03*
X159270000Y-95000000D03*
X156730000Y-95000000D03*
D15*
X179440000Y-102700000D03*
X176900000Y-102700000D03*
D16*
X174360000Y-102700000D03*
D17*
X171380000Y-88540000D03*
X171380000Y-86000000D03*
X173920000Y-88540000D03*
X173920000Y-86000000D03*
X176460000Y-88540000D03*
X176460000Y-86000000D03*
X179000000Y-88540000D03*
D18*
X179000000Y-86000000D03*
D19*
X180600000Y-93200000D03*
X169300000Y-90600000D03*
X168800000Y-83912500D03*
D20*
X159300000Y-95000000D02*
X165251458Y-95000000D01*
D21*
X166100000Y-95848542D02*
X166100000Y-97900000D01*
X166100000Y-95848542D02*
X165951458Y-95700000D01*
D20*
X165251458Y-95000000D02*
X165951458Y-95700000D01*
X168250000Y-104500000D02*
X169000000Y-103750000D01*
X169000000Y-103750000D02*
X169000000Y-93000000D01*
X173500000Y-91500000D02*
X173920000Y-91080000D01*
X166750000Y-104500000D02*
X168250000Y-104500000D01*
X169000000Y-93000000D02*
X170500000Y-91500000D01*
X166100000Y-97900000D02*
X166100000Y-103850000D01*
X166100000Y-103850000D02*
X166750000Y-104500000D01*
X170500000Y-91500000D02*
X173500000Y-91500000D01*
X173920000Y-91080000D02*
X173920000Y-88540000D01*
X166600000Y-95500000D02*
X166600000Y-103600000D01*
X165400000Y-94300000D02*
X166600000Y-95500000D01*
X172650000Y-90350000D02*
X172650000Y-87270000D01*
X162800000Y-94300000D02*
X165400000Y-94300000D01*
X166600000Y-103600000D02*
X167000000Y-104000000D01*
X158000000Y-93730000D02*
X162230000Y-93730000D01*
X162230000Y-93730000D02*
X162800000Y-94300000D01*
X168000000Y-104000000D02*
X168500000Y-103500000D01*
X170200000Y-90900000D02*
X172100000Y-90900000D01*
X167000000Y-104000000D02*
X168000000Y-104000000D01*
X168500000Y-103500000D02*
X168500000Y-92600000D01*
X168500000Y-92600000D02*
X170200000Y-90900000D01*
X172100000Y-90900000D02*
X172650000Y-90350000D01*
X172650000Y-87270000D02*
X173920000Y-86000000D01*
D22*
X171000000Y-92500000D02*
X170100000Y-93400000D01*
X178200000Y-90800000D02*
X175800000Y-90800000D01*
X170100000Y-93400000D02*
X170100000Y-104200000D01*
X174100000Y-92500000D02*
X171000000Y-92500000D01*
X175800000Y-90800000D02*
X174100000Y-92500000D01*
X179000000Y-88540000D02*
X179000000Y-90000000D01*
X170100000Y-104200000D02*
X168400000Y-105900000D01*
X179000000Y-90000000D02*
X178200000Y-90800000D01*
X158000000Y-99500000D02*
X156300000Y-97800000D01*
X168400000Y-105900000D02*
X160400000Y-105900000D01*
X160400000Y-105900000D02*
X158000000Y-103500000D01*
X158000000Y-103500000D02*
X158000000Y-99500000D01*
X156300000Y-97800000D02*
X156300000Y-96000000D01*
X156500000Y-95000000D02*
X156730000Y-95000000D01*
X156730000Y-95000000D02*
X156730000Y-95170000D01*
X156730000Y-95170000D02*
X156300000Y-95600000D01*
X156730000Y-95000000D02*
X156730000Y-95230000D01*
D21*
X156400000Y-95000000D02*
X155900000Y-95500000D01*
X156730000Y-95000000D02*
X156400000Y-95000000D01*
X168200000Y-105500000D02*
X169600000Y-104100000D01*
X160500000Y-105500000D02*
X168200000Y-105500000D01*
X158500000Y-103500000D02*
X160500000Y-105500000D01*
X158500000Y-99500000D02*
X158500000Y-103500000D01*
X170700000Y-92100000D02*
X173900000Y-92100000D01*
X156730000Y-95000000D02*
X156730000Y-97730000D01*
X156730000Y-97730000D02*
X158500000Y-99500000D01*
X169600000Y-104100000D02*
X169600000Y-93200000D01*
X173900000Y-92100000D02*
X176460000Y-89540000D01*
X169600000Y-93200000D02*
X170700000Y-92100000D01*
X176460000Y-89540000D02*
X176460000Y-88540000D01*
D22*
X174360000Y-102100000D02*
X174360000Y-103140000D01*
D21*
X174360000Y-102700000D02*
X174360000Y-103140000D01*
X160300000Y-106300000D02*
X171200000Y-106300000D01*
X157500000Y-103500000D02*
X160300000Y-106300000D01*
X171300000Y-106200000D02*
X174360000Y-103140000D01*
X157500000Y-99500000D02*
X157500000Y-103500000D01*
X157500000Y-99500000D02*
X156000000Y-98000000D01*
X155900000Y-96000000D02*
X155900000Y-97900000D01*
X155900000Y-97900000D02*
X156000000Y-98000000D01*
X171200000Y-106300000D02*
X171300000Y-106200000D01*
D22*
G36*
X182700001Y-107700000D02*
G01*
X171375000Y-107700000D01*
X171375000Y-106603321D01*
X171395390Y-106592422D01*
X171448685Y-106548685D01*
X171459653Y-106535321D01*
X171559646Y-106435328D01*
X174318887Y-103676088D01*
X175110000Y-103676088D01*
X175154108Y-103671744D01*
X175196520Y-103658878D01*
X175235608Y-103637985D01*
X175269868Y-103609868D01*
X175297985Y-103575608D01*
X175318878Y-103536520D01*
X175331744Y-103494108D01*
X175336088Y-103450000D01*
X175336088Y-102603971D01*
X175925000Y-102603971D01*
X175925000Y-102796029D01*
X175962468Y-102984397D01*
X176035966Y-103161836D01*
X176142668Y-103321527D01*
X176278473Y-103457332D01*
X176438164Y-103564034D01*
X176615603Y-103637532D01*
X176803971Y-103675000D01*
X176996029Y-103675000D01*
X177184397Y-103637532D01*
X177361836Y-103564034D01*
X177521527Y-103457332D01*
X177657332Y-103321527D01*
X177764034Y-103161836D01*
X177837532Y-102984397D01*
X177875000Y-102796029D01*
X177875000Y-102603971D01*
X178465000Y-102603971D01*
X178465000Y-102796029D01*
X178502468Y-102984397D01*
X178575966Y-103161836D01*
X178682668Y-103321527D01*
X178818473Y-103457332D01*
X178978164Y-103564034D01*
X179155603Y-103637532D01*
X179343971Y-103675000D01*
X179536029Y-103675000D01*
X179724397Y-103637532D01*
X179901836Y-103564034D01*
X180061527Y-103457332D01*
X180197332Y-103321527D01*
X180304034Y-103161836D01*
X180377532Y-102984397D01*
X180415000Y-102796029D01*
X180415000Y-102603971D01*
X180377532Y-102415603D01*
X180304034Y-102238164D01*
X180197332Y-102078473D01*
X180061527Y-101942668D01*
X179901836Y-101835966D01*
X179724397Y-101762468D01*
X179536029Y-101725000D01*
X179343971Y-101725000D01*
X179155603Y-101762468D01*
X178978164Y-101835966D01*
X178818473Y-101942668D01*
X178682668Y-102078473D01*
X178575966Y-102238164D01*
X178502468Y-102415603D01*
X178465000Y-102603971D01*
X177875000Y-102603971D01*
X177837532Y-102415603D01*
X177764034Y-102238164D01*
X177657332Y-102078473D01*
X177521527Y-101942668D01*
X177361836Y-101835966D01*
X177184397Y-101762468D01*
X176996029Y-101725000D01*
X176803971Y-101725000D01*
X176615603Y-101762468D01*
X176438164Y-101835966D01*
X176278473Y-101942668D01*
X176142668Y-102078473D01*
X176035966Y-102238164D01*
X175962468Y-102415603D01*
X175925000Y-102603971D01*
X175336088Y-102603971D01*
X175336088Y-101950000D01*
X175331744Y-101905892D01*
X175318878Y-101863480D01*
X175297985Y-101824392D01*
X175269868Y-101790132D01*
X175235608Y-101762015D01*
X175196520Y-101741122D01*
X175154108Y-101728256D01*
X175110000Y-101723912D01*
X173610000Y-101723912D01*
X173565892Y-101728256D01*
X173523480Y-101741122D01*
X173484392Y-101762015D01*
X173450132Y-101790132D01*
X173422015Y-101824392D01*
X173401122Y-101863480D01*
X173388256Y-101905892D01*
X173383912Y-101950000D01*
X173383912Y-103450000D01*
X173388256Y-103494108D01*
X173401122Y-103536520D01*
X173422015Y-103575608D01*
X173425352Y-103579674D01*
X171055026Y-105950000D01*
X168774263Y-105950000D01*
X170301715Y-104422549D01*
X170313158Y-104413158D01*
X170322549Y-104401715D01*
X170350647Y-104367478D01*
X170378503Y-104315361D01*
X170378504Y-104315360D01*
X170395659Y-104258810D01*
X170400000Y-104214733D01*
X170400000Y-104214724D01*
X170401450Y-104200001D01*
X170400000Y-104185278D01*
X170400000Y-93524263D01*
X171124264Y-92800000D01*
X174085277Y-92800000D01*
X174100000Y-92801450D01*
X174114723Y-92800000D01*
X174114733Y-92800000D01*
X174158810Y-92795659D01*
X174215360Y-92778504D01*
X174267477Y-92750647D01*
X174313158Y-92713158D01*
X174322553Y-92701710D01*
X175924264Y-91100000D01*
X178185277Y-91100000D01*
X178200000Y-91101450D01*
X178214723Y-91100000D01*
X178214733Y-91100000D01*
X178258810Y-91095659D01*
X178315360Y-91078504D01*
X178367477Y-91050647D01*
X178413158Y-91013158D01*
X178422553Y-91001710D01*
X179201715Y-90222549D01*
X179213158Y-90213158D01*
X179222549Y-90201715D01*
X179250647Y-90167478D01*
X179278504Y-90115361D01*
X179288153Y-90083553D01*
X179295659Y-90058810D01*
X179300000Y-90014733D01*
X179300000Y-90014730D01*
X179301451Y-90000000D01*
X179300000Y-89985270D01*
X179300000Y-89572368D01*
X179413375Y-89537976D01*
X179600128Y-89438154D01*
X179763817Y-89303817D01*
X179898154Y-89140128D01*
X179997976Y-88953375D01*
X180059445Y-88750737D01*
X180080201Y-88540000D01*
X180059445Y-88329263D01*
X179997976Y-88126625D01*
X179898154Y-87939872D01*
X179763817Y-87776183D01*
X179600128Y-87641846D01*
X179413375Y-87542024D01*
X179210737Y-87480555D01*
X179052806Y-87465000D01*
X178947194Y-87465000D01*
X178789263Y-87480555D01*
X178586625Y-87542024D01*
X178399872Y-87641846D01*
X178236183Y-87776183D01*
X178101846Y-87939872D01*
X178002024Y-88126625D01*
X177940555Y-88329263D01*
X177919799Y-88540000D01*
X177940555Y-88750737D01*
X178002024Y-88953375D01*
X178101846Y-89140128D01*
X178236183Y-89303817D01*
X178399872Y-89438154D01*
X178586625Y-89537976D01*
X178700001Y-89572368D01*
X178700001Y-89875735D01*
X178075737Y-90500000D01*
X175994974Y-90500000D01*
X176695335Y-89799640D01*
X176708684Y-89788685D01*
X176752422Y-89735390D01*
X176784922Y-89674587D01*
X176804935Y-89608612D01*
X176809999Y-89557201D01*
X176873375Y-89537976D01*
X177060128Y-89438154D01*
X177223817Y-89303817D01*
X177358154Y-89140128D01*
X177457976Y-88953375D01*
X177519445Y-88750737D01*
X177540201Y-88540000D01*
X177519445Y-88329263D01*
X177457976Y-88126625D01*
X177358154Y-87939872D01*
X177223817Y-87776183D01*
X177060128Y-87641846D01*
X176873375Y-87542024D01*
X176670737Y-87480555D01*
X176512806Y-87465000D01*
X176407194Y-87465000D01*
X176249263Y-87480555D01*
X176046625Y-87542024D01*
X175859872Y-87641846D01*
X175696183Y-87776183D01*
X175561846Y-87939872D01*
X175462024Y-88126625D01*
X175400555Y-88329263D01*
X175379799Y-88540000D01*
X175400555Y-88750737D01*
X175462024Y-88953375D01*
X175561846Y-89140128D01*
X175696183Y-89303817D01*
X175859872Y-89438154D01*
X175994768Y-89510258D01*
X174253553Y-91251473D01*
X174257070Y-91244893D01*
X174268131Y-91224200D01*
X174289574Y-91153513D01*
X174295000Y-91098419D01*
X174295000Y-91098416D01*
X174296814Y-91080000D01*
X174295000Y-91061584D01*
X174295000Y-89549617D01*
X174333375Y-89537976D01*
X174520128Y-89438154D01*
X174683817Y-89303817D01*
X174818154Y-89140128D01*
X174917976Y-88953375D01*
X174979445Y-88750737D01*
X175000201Y-88540000D01*
X174979445Y-88329263D01*
X174917976Y-88126625D01*
X174818154Y-87939872D01*
X174683817Y-87776183D01*
X174520128Y-87641846D01*
X174333375Y-87542024D01*
X174130737Y-87480555D01*
X173972806Y-87465000D01*
X173867194Y-87465000D01*
X173709263Y-87480555D01*
X173506625Y-87542024D01*
X173319872Y-87641846D01*
X173156183Y-87776183D01*
X173025000Y-87936029D01*
X173025000Y-87425329D01*
X173471258Y-86979072D01*
X173506625Y-86997976D01*
X173709263Y-87059445D01*
X173867194Y-87075000D01*
X173972806Y-87075000D01*
X174130737Y-87059445D01*
X174333375Y-86997976D01*
X174520128Y-86898154D01*
X174683817Y-86763817D01*
X174818154Y-86600128D01*
X174917976Y-86413375D01*
X174979445Y-86210737D01*
X175000201Y-86000000D01*
X175379799Y-86000000D01*
X175400555Y-86210737D01*
X175462024Y-86413375D01*
X175561846Y-86600128D01*
X175696183Y-86763817D01*
X175859872Y-86898154D01*
X176046625Y-86997976D01*
X176249263Y-87059445D01*
X176407194Y-87075000D01*
X176512806Y-87075000D01*
X176670737Y-87059445D01*
X176873375Y-86997976D01*
X177060128Y-86898154D01*
X177223817Y-86763817D01*
X177358154Y-86600128D01*
X177457976Y-86413375D01*
X177512009Y-86235250D01*
X177925000Y-86235250D01*
X177925000Y-86872161D01*
X177933647Y-86915631D01*
X177950608Y-86956578D01*
X177975231Y-86993430D01*
X178006571Y-87024769D01*
X178043423Y-87049393D01*
X178084370Y-87066354D01*
X178127840Y-87075000D01*
X178764750Y-87075000D01*
X178821000Y-87018750D01*
X178821000Y-86179000D01*
X179179000Y-86179000D01*
X179179000Y-87018750D01*
X179235250Y-87075000D01*
X179872160Y-87075000D01*
X179915630Y-87066354D01*
X179956577Y-87049393D01*
X179993429Y-87024769D01*
X180024769Y-86993430D01*
X180049392Y-86956578D01*
X180066353Y-86915631D01*
X180075000Y-86872161D01*
X180075000Y-86235250D01*
X180018750Y-86179000D01*
X179179000Y-86179000D01*
X178821000Y-86179000D01*
X177981250Y-86179000D01*
X177925000Y-86235250D01*
X177512009Y-86235250D01*
X177519445Y-86210737D01*
X177540201Y-86000000D01*
X177519445Y-85789263D01*
X177457976Y-85586625D01*
X177358154Y-85399872D01*
X177223817Y-85236183D01*
X177091801Y-85127839D01*
X177925000Y-85127839D01*
X177925000Y-85764750D01*
X177981250Y-85821000D01*
X178821000Y-85821000D01*
X178821000Y-84981250D01*
X179179000Y-84981250D01*
X179179000Y-85821000D01*
X180018750Y-85821000D01*
X180075000Y-85764750D01*
X180075000Y-85127839D01*
X180066353Y-85084369D01*
X180049392Y-85043422D01*
X180024769Y-85006570D01*
X179993429Y-84975231D01*
X179956577Y-84950607D01*
X179915630Y-84933646D01*
X179872160Y-84925000D01*
X179235250Y-84925000D01*
X179179000Y-84981250D01*
X178821000Y-84981250D01*
X178764750Y-84925000D01*
X178127840Y-84925000D01*
X178084370Y-84933646D01*
X178043423Y-84950607D01*
X178006571Y-84975231D01*
X177975231Y-85006570D01*
X177950608Y-85043422D01*
X177933647Y-85084369D01*
X177925000Y-85127839D01*
X177091801Y-85127839D01*
X177060128Y-85101846D01*
X176873375Y-85002024D01*
X176670737Y-84940555D01*
X176512806Y-84925000D01*
X176407194Y-84925000D01*
X176249263Y-84940555D01*
X176046625Y-85002024D01*
X175859872Y-85101846D01*
X175696183Y-85236183D01*
X175561846Y-85399872D01*
X175462024Y-85586625D01*
X175400555Y-85789263D01*
X175379799Y-86000000D01*
X175000201Y-86000000D01*
X174979445Y-85789263D01*
X174917976Y-85586625D01*
X174818154Y-85399872D01*
X174683817Y-85236183D01*
X174520128Y-85101846D01*
X174333375Y-85002024D01*
X174130737Y-84940555D01*
X173972806Y-84925000D01*
X173867194Y-84925000D01*
X173709263Y-84940555D01*
X173506625Y-85002024D01*
X173319872Y-85101846D01*
X173156183Y-85236183D01*
X173021846Y-85399872D01*
X172922024Y-85586625D01*
X172860555Y-85789263D01*
X172839799Y-86000000D01*
X172860555Y-86210737D01*
X172922024Y-86413375D01*
X172940928Y-86448742D01*
X172397861Y-86991809D01*
X172383553Y-87003552D01*
X172366141Y-87024769D01*
X172336691Y-87060654D01*
X172301870Y-87125800D01*
X172280427Y-87196488D01*
X172273186Y-87270000D01*
X172275001Y-87288426D01*
X172275001Y-87936030D01*
X172143817Y-87776183D01*
X171980128Y-87641846D01*
X171793375Y-87542024D01*
X171590737Y-87480555D01*
X171432806Y-87465000D01*
X171327194Y-87465000D01*
X171169263Y-87480555D01*
X170966625Y-87542024D01*
X170779872Y-87641846D01*
X170616183Y-87776183D01*
X170481846Y-87939872D01*
X170382024Y-88126625D01*
X170320555Y-88329263D01*
X170299799Y-88540000D01*
X170320555Y-88750737D01*
X170382024Y-88953375D01*
X170481846Y-89140128D01*
X170616183Y-89303817D01*
X170779872Y-89438154D01*
X170966625Y-89537976D01*
X171169263Y-89599445D01*
X171327194Y-89615000D01*
X171432806Y-89615000D01*
X171590737Y-89599445D01*
X171793375Y-89537976D01*
X171980128Y-89438154D01*
X172143817Y-89303817D01*
X172275000Y-89143971D01*
X172275000Y-90194670D01*
X171944671Y-90525000D01*
X170218415Y-90525000D01*
X170199999Y-90523186D01*
X170181583Y-90525000D01*
X170181581Y-90525000D01*
X170126487Y-90530426D01*
X170055800Y-90551869D01*
X170055798Y-90551870D01*
X170041810Y-90559347D01*
X169990653Y-90586691D01*
X169933552Y-90633552D01*
X169921810Y-90647860D01*
X168575000Y-91994671D01*
X168575000Y-86000000D01*
X170299799Y-86000000D01*
X170320555Y-86210737D01*
X170382024Y-86413375D01*
X170481846Y-86600128D01*
X170616183Y-86763817D01*
X170779872Y-86898154D01*
X170966625Y-86997976D01*
X171169263Y-87059445D01*
X171327194Y-87075000D01*
X171432806Y-87075000D01*
X171590737Y-87059445D01*
X171793375Y-86997976D01*
X171980128Y-86898154D01*
X172143817Y-86763817D01*
X172278154Y-86600128D01*
X172377976Y-86413375D01*
X172439445Y-86210737D01*
X172460201Y-86000000D01*
X172439445Y-85789263D01*
X172377976Y-85586625D01*
X172278154Y-85399872D01*
X172143817Y-85236183D01*
X171980128Y-85101846D01*
X171793375Y-85002024D01*
X171590737Y-84940555D01*
X171432806Y-84925000D01*
X171327194Y-84925000D01*
X171169263Y-84940555D01*
X170966625Y-85002024D01*
X170779872Y-85101846D01*
X170616183Y-85236183D01*
X170481846Y-85399872D01*
X170382024Y-85586625D01*
X170320555Y-85789263D01*
X170299799Y-86000000D01*
X168575000Y-86000000D01*
X168575000Y-83300000D01*
X182700000Y-83300000D01*
X182700001Y-107700000D01*
X182700001Y-107700000D01*
G37*
X182700001Y-107700000D02*
X171375000Y-107700000D01*
X171375000Y-106603321D01*
X171395390Y-106592422D01*
X171448685Y-106548685D01*
X171459653Y-106535321D01*
X171559646Y-106435328D01*
X174318887Y-103676088D01*
X175110000Y-103676088D01*
X175154108Y-103671744D01*
X175196520Y-103658878D01*
X175235608Y-103637985D01*
X175269868Y-103609868D01*
X175297985Y-103575608D01*
X175318878Y-103536520D01*
X175331744Y-103494108D01*
X175336088Y-103450000D01*
X175336088Y-102603971D01*
X175925000Y-102603971D01*
X175925000Y-102796029D01*
X175962468Y-102984397D01*
X176035966Y-103161836D01*
X176142668Y-103321527D01*
X176278473Y-103457332D01*
X176438164Y-103564034D01*
X176615603Y-103637532D01*
X176803971Y-103675000D01*
X176996029Y-103675000D01*
X177184397Y-103637532D01*
X177361836Y-103564034D01*
X177521527Y-103457332D01*
X177657332Y-103321527D01*
X177764034Y-103161836D01*
X177837532Y-102984397D01*
X177875000Y-102796029D01*
X177875000Y-102603971D01*
X178465000Y-102603971D01*
X178465000Y-102796029D01*
X178502468Y-102984397D01*
X178575966Y-103161836D01*
X178682668Y-103321527D01*
X178818473Y-103457332D01*
X178978164Y-103564034D01*
X179155603Y-103637532D01*
X179343971Y-103675000D01*
X179536029Y-103675000D01*
X179724397Y-103637532D01*
X179901836Y-103564034D01*
X180061527Y-103457332D01*
X180197332Y-103321527D01*
X180304034Y-103161836D01*
X180377532Y-102984397D01*
X180415000Y-102796029D01*
X180415000Y-102603971D01*
X180377532Y-102415603D01*
X180304034Y-102238164D01*
X180197332Y-102078473D01*
X180061527Y-101942668D01*
X179901836Y-101835966D01*
X179724397Y-101762468D01*
X179536029Y-101725000D01*
X179343971Y-101725000D01*
X179155603Y-101762468D01*
X178978164Y-101835966D01*
X178818473Y-101942668D01*
X178682668Y-102078473D01*
X178575966Y-102238164D01*
X178502468Y-102415603D01*
X178465000Y-102603971D01*
X177875000Y-102603971D01*
X177837532Y-102415603D01*
X177764034Y-102238164D01*
X177657332Y-102078473D01*
X177521527Y-101942668D01*
X177361836Y-101835966D01*
X177184397Y-101762468D01*
X176996029Y-101725000D01*
X176803971Y-101725000D01*
X176615603Y-101762468D01*
X176438164Y-101835966D01*
X176278473Y-101942668D01*
X176142668Y-102078473D01*
X176035966Y-102238164D01*
X175962468Y-102415603D01*
X175925000Y-102603971D01*
X175336088Y-102603971D01*
X175336088Y-101950000D01*
X175331744Y-101905892D01*
X175318878Y-101863480D01*
X175297985Y-101824392D01*
X175269868Y-101790132D01*
X175235608Y-101762015D01*
X175196520Y-101741122D01*
X175154108Y-101728256D01*
X175110000Y-101723912D01*
X173610000Y-101723912D01*
X173565892Y-101728256D01*
X173523480Y-101741122D01*
X173484392Y-101762015D01*
X173450132Y-101790132D01*
X173422015Y-101824392D01*
X173401122Y-101863480D01*
X173388256Y-101905892D01*
X173383912Y-101950000D01*
X173383912Y-103450000D01*
X173388256Y-103494108D01*
X173401122Y-103536520D01*
X173422015Y-103575608D01*
X173425352Y-103579674D01*
X171055026Y-105950000D01*
X168774263Y-105950000D01*
X170301715Y-104422549D01*
X170313158Y-104413158D01*
X170322549Y-104401715D01*
X170350647Y-104367478D01*
X170378503Y-104315361D01*
X170378504Y-104315360D01*
X170395659Y-104258810D01*
X170400000Y-104214733D01*
X170400000Y-104214724D01*
X170401450Y-104200001D01*
X170400000Y-104185278D01*
X170400000Y-93524263D01*
X171124264Y-92800000D01*
X174085277Y-92800000D01*
X174100000Y-92801450D01*
X174114723Y-92800000D01*
X174114733Y-92800000D01*
X174158810Y-92795659D01*
X174215360Y-92778504D01*
X174267477Y-92750647D01*
X174313158Y-92713158D01*
X174322553Y-92701710D01*
X175924264Y-91100000D01*
X178185277Y-91100000D01*
X178200000Y-91101450D01*
X178214723Y-91100000D01*
X178214733Y-91100000D01*
X178258810Y-91095659D01*
X178315360Y-91078504D01*
X178367477Y-91050647D01*
X178413158Y-91013158D01*
X178422553Y-91001710D01*
X179201715Y-90222549D01*
X179213158Y-90213158D01*
X179222549Y-90201715D01*
X179250647Y-90167478D01*
X179278504Y-90115361D01*
X179288153Y-90083553D01*
X179295659Y-90058810D01*
X179300000Y-90014733D01*
X179300000Y-90014730D01*
X179301451Y-90000000D01*
X179300000Y-89985270D01*
X179300000Y-89572368D01*
X179413375Y-89537976D01*
X179600128Y-89438154D01*
X179763817Y-89303817D01*
X179898154Y-89140128D01*
X179997976Y-88953375D01*
X180059445Y-88750737D01*
X180080201Y-88540000D01*
X180059445Y-88329263D01*
X179997976Y-88126625D01*
X179898154Y-87939872D01*
X179763817Y-87776183D01*
X179600128Y-87641846D01*
X179413375Y-87542024D01*
X179210737Y-87480555D01*
X179052806Y-87465000D01*
X178947194Y-87465000D01*
X178789263Y-87480555D01*
X178586625Y-87542024D01*
X178399872Y-87641846D01*
X178236183Y-87776183D01*
X178101846Y-87939872D01*
X178002024Y-88126625D01*
X177940555Y-88329263D01*
X177919799Y-88540000D01*
X177940555Y-88750737D01*
X178002024Y-88953375D01*
X178101846Y-89140128D01*
X178236183Y-89303817D01*
X178399872Y-89438154D01*
X178586625Y-89537976D01*
X178700001Y-89572368D01*
X178700001Y-89875735D01*
X178075737Y-90500000D01*
X175994974Y-90500000D01*
X176695335Y-89799640D01*
X176708684Y-89788685D01*
X176752422Y-89735390D01*
X176784922Y-89674587D01*
X176804935Y-89608612D01*
X176809999Y-89557201D01*
X176873375Y-89537976D01*
X177060128Y-89438154D01*
X177223817Y-89303817D01*
X177358154Y-89140128D01*
X177457976Y-88953375D01*
X177519445Y-88750737D01*
X177540201Y-88540000D01*
X177519445Y-88329263D01*
X177457976Y-88126625D01*
X177358154Y-87939872D01*
X177223817Y-87776183D01*
X177060128Y-87641846D01*
X176873375Y-87542024D01*
X176670737Y-87480555D01*
X176512806Y-87465000D01*
X176407194Y-87465000D01*
X176249263Y-87480555D01*
X176046625Y-87542024D01*
X175859872Y-87641846D01*
X175696183Y-87776183D01*
X175561846Y-87939872D01*
X175462024Y-88126625D01*
X175400555Y-88329263D01*
X175379799Y-88540000D01*
X175400555Y-88750737D01*
X175462024Y-88953375D01*
X175561846Y-89140128D01*
X175696183Y-89303817D01*
X175859872Y-89438154D01*
X175994768Y-89510258D01*
X174253553Y-91251473D01*
X174257070Y-91244893D01*
X174268131Y-91224200D01*
X174289574Y-91153513D01*
X174295000Y-91098419D01*
X174295000Y-91098416D01*
X174296814Y-91080000D01*
X174295000Y-91061584D01*
X174295000Y-89549617D01*
X174333375Y-89537976D01*
X174520128Y-89438154D01*
X174683817Y-89303817D01*
X174818154Y-89140128D01*
X174917976Y-88953375D01*
X174979445Y-88750737D01*
X175000201Y-88540000D01*
X174979445Y-88329263D01*
X174917976Y-88126625D01*
X174818154Y-87939872D01*
X174683817Y-87776183D01*
X174520128Y-87641846D01*
X174333375Y-87542024D01*
X174130737Y-87480555D01*
X173972806Y-87465000D01*
X173867194Y-87465000D01*
X173709263Y-87480555D01*
X173506625Y-87542024D01*
X173319872Y-87641846D01*
X173156183Y-87776183D01*
X173025000Y-87936029D01*
X173025000Y-87425329D01*
X173471258Y-86979072D01*
X173506625Y-86997976D01*
X173709263Y-87059445D01*
X173867194Y-87075000D01*
X173972806Y-87075000D01*
X174130737Y-87059445D01*
X174333375Y-86997976D01*
X174520128Y-86898154D01*
X174683817Y-86763817D01*
X174818154Y-86600128D01*
X174917976Y-86413375D01*
X174979445Y-86210737D01*
X175000201Y-86000000D01*
X175379799Y-86000000D01*
X175400555Y-86210737D01*
X175462024Y-86413375D01*
X175561846Y-86600128D01*
X175696183Y-86763817D01*
X175859872Y-86898154D01*
X176046625Y-86997976D01*
X176249263Y-87059445D01*
X176407194Y-87075000D01*
X176512806Y-87075000D01*
X176670737Y-87059445D01*
X176873375Y-86997976D01*
X177060128Y-86898154D01*
X177223817Y-86763817D01*
X177358154Y-86600128D01*
X177457976Y-86413375D01*
X177512009Y-86235250D01*
X177925000Y-86235250D01*
X177925000Y-86872161D01*
X177933647Y-86915631D01*
X177950608Y-86956578D01*
X177975231Y-86993430D01*
X178006571Y-87024769D01*
X178043423Y-87049393D01*
X178084370Y-87066354D01*
X178127840Y-87075000D01*
X178764750Y-87075000D01*
X178821000Y-87018750D01*
X178821000Y-86179000D01*
X179179000Y-86179000D01*
X179179000Y-87018750D01*
X179235250Y-87075000D01*
X179872160Y-87075000D01*
X179915630Y-87066354D01*
X179956577Y-87049393D01*
X179993429Y-87024769D01*
X180024769Y-86993430D01*
X180049392Y-86956578D01*
X180066353Y-86915631D01*
X180075000Y-86872161D01*
X180075000Y-86235250D01*
X180018750Y-86179000D01*
X179179000Y-86179000D01*
X178821000Y-86179000D01*
X177981250Y-86179000D01*
X177925000Y-86235250D01*
X177512009Y-86235250D01*
X177519445Y-86210737D01*
X177540201Y-86000000D01*
X177519445Y-85789263D01*
X177457976Y-85586625D01*
X177358154Y-85399872D01*
X177223817Y-85236183D01*
X177091801Y-85127839D01*
X177925000Y-85127839D01*
X177925000Y-85764750D01*
X177981250Y-85821000D01*
X178821000Y-85821000D01*
X178821000Y-84981250D01*
X179179000Y-84981250D01*
X179179000Y-85821000D01*
X180018750Y-85821000D01*
X180075000Y-85764750D01*
X180075000Y-85127839D01*
X180066353Y-85084369D01*
X180049392Y-85043422D01*
X180024769Y-85006570D01*
X179993429Y-84975231D01*
X179956577Y-84950607D01*
X179915630Y-84933646D01*
X179872160Y-84925000D01*
X179235250Y-84925000D01*
X179179000Y-84981250D01*
X178821000Y-84981250D01*
X178764750Y-84925000D01*
X178127840Y-84925000D01*
X178084370Y-84933646D01*
X178043423Y-84950607D01*
X178006571Y-84975231D01*
X177975231Y-85006570D01*
X177950608Y-85043422D01*
X177933647Y-85084369D01*
X177925000Y-85127839D01*
X177091801Y-85127839D01*
X177060128Y-85101846D01*
X176873375Y-85002024D01*
X176670737Y-84940555D01*
X176512806Y-84925000D01*
X176407194Y-84925000D01*
X176249263Y-84940555D01*
X176046625Y-85002024D01*
X175859872Y-85101846D01*
X175696183Y-85236183D01*
X175561846Y-85399872D01*
X175462024Y-85586625D01*
X175400555Y-85789263D01*
X175379799Y-86000000D01*
X175000201Y-86000000D01*
X174979445Y-85789263D01*
X174917976Y-85586625D01*
X174818154Y-85399872D01*
X174683817Y-85236183D01*
X174520128Y-85101846D01*
X174333375Y-85002024D01*
X174130737Y-84940555D01*
X173972806Y-84925000D01*
X173867194Y-84925000D01*
X173709263Y-84940555D01*
X173506625Y-85002024D01*
X173319872Y-85101846D01*
X173156183Y-85236183D01*
X173021846Y-85399872D01*
X172922024Y-85586625D01*
X172860555Y-85789263D01*
X172839799Y-86000000D01*
X172860555Y-86210737D01*
X172922024Y-86413375D01*
X172940928Y-86448742D01*
X172397861Y-86991809D01*
X172383553Y-87003552D01*
X172366141Y-87024769D01*
X172336691Y-87060654D01*
X172301870Y-87125800D01*
X172280427Y-87196488D01*
X172273186Y-87270000D01*
X172275001Y-87288426D01*
X172275001Y-87936030D01*
X172143817Y-87776183D01*
X171980128Y-87641846D01*
X171793375Y-87542024D01*
X171590737Y-87480555D01*
X171432806Y-87465000D01*
X171327194Y-87465000D01*
X171169263Y-87480555D01*
X170966625Y-87542024D01*
X170779872Y-87641846D01*
X170616183Y-87776183D01*
X170481846Y-87939872D01*
X170382024Y-88126625D01*
X170320555Y-88329263D01*
X170299799Y-88540000D01*
X170320555Y-88750737D01*
X170382024Y-88953375D01*
X170481846Y-89140128D01*
X170616183Y-89303817D01*
X170779872Y-89438154D01*
X170966625Y-89537976D01*
X171169263Y-89599445D01*
X171327194Y-89615000D01*
X171432806Y-89615000D01*
X171590737Y-89599445D01*
X171793375Y-89537976D01*
X171980128Y-89438154D01*
X172143817Y-89303817D01*
X172275000Y-89143971D01*
X172275000Y-90194670D01*
X171944671Y-90525000D01*
X170218415Y-90525000D01*
X170199999Y-90523186D01*
X170181583Y-90525000D01*
X170181581Y-90525000D01*
X170126487Y-90530426D01*
X170055800Y-90551869D01*
X170055798Y-90551870D01*
X170041810Y-90559347D01*
X169990653Y-90586691D01*
X169933552Y-90633552D01*
X169921810Y-90647860D01*
X168575000Y-91994671D01*
X168575000Y-86000000D01*
X170299799Y-86000000D01*
X170320555Y-86210737D01*
X170382024Y-86413375D01*
X170481846Y-86600128D01*
X170616183Y-86763817D01*
X170779872Y-86898154D01*
X170966625Y-86997976D01*
X171169263Y-87059445D01*
X171327194Y-87075000D01*
X171432806Y-87075000D01*
X171590737Y-87059445D01*
X171793375Y-86997976D01*
X171980128Y-86898154D01*
X172143817Y-86763817D01*
X172278154Y-86600128D01*
X172377976Y-86413375D01*
X172439445Y-86210737D01*
X172460201Y-86000000D01*
X172439445Y-85789263D01*
X172377976Y-85586625D01*
X172278154Y-85399872D01*
X172143817Y-85236183D01*
X171980128Y-85101846D01*
X171793375Y-85002024D01*
X171590737Y-84940555D01*
X171432806Y-84925000D01*
X171327194Y-84925000D01*
X171169263Y-84940555D01*
X170966625Y-85002024D01*
X170779872Y-85101846D01*
X170616183Y-85236183D01*
X170481846Y-85399872D01*
X170382024Y-85586625D01*
X170320555Y-85789263D01*
X170299799Y-86000000D01*
X168575000Y-86000000D01*
X168575000Y-83300000D01*
X182700000Y-83300000D01*
X182700001Y-107700000D01*
M02*
