G04 #@! TF.GenerationSoftware,KiCad,Pcbnew,(6.0.0-rc1-dev-696-g8c56f5b03)*
G04 #@! TF.CreationDate,2019-01-11T00:51:06+01:00*
G04 #@! TF.ProjectId,reference_board,7265666572656E63655F626F6172642E,v3.1.0*
G04 #@! TF.SameCoordinates,Original*
G04 #@! TF.FileFunction,Legend,Top*
G04 #@! TF.FilePolarity,Positive*
%FSLAX46Y46*%
G04 Gerber Fmt 4.6, Leading zero omitted, Abs format (unit mm)*
G04 Created by KiCad (PCBNEW (6.0.0-rc1-dev-696-g8c56f5b03)) date Fri Jan 11 00:51:06 2019*
%MOMM*%
%LPD*%
G01*
G04 APERTURE LIST*
%ADD10C,0.150000*%
%ADD11C,0.120000*%
%ADD12C,0.010000*%
G04 APERTURE END LIST*
D10*
X177590476Y-90161904D02*
X177857142Y-90961904D01*
X178123809Y-90161904D01*
X178314285Y-90428571D02*
X178733333Y-90428571D01*
X178314285Y-90961904D01*
X178733333Y-90961904D01*
X179038095Y-90657142D02*
X179647619Y-90657142D01*
X179342857Y-90961904D02*
X179342857Y-90352380D01*
X179990476Y-90923809D02*
X180066666Y-90961904D01*
X180219047Y-90961904D01*
X180295238Y-90923809D01*
X180333333Y-90847619D01*
X180333333Y-90809523D01*
X180295238Y-90733333D01*
X180219047Y-90695238D01*
X180104761Y-90695238D01*
X180028571Y-90657142D01*
X179990476Y-90580952D01*
X179990476Y-90542857D01*
X180028571Y-90466666D01*
X180104761Y-90428571D01*
X180219047Y-90428571D01*
X180295238Y-90466666D01*
X158345119Y-106061904D02*
X158078452Y-105680952D01*
X157887976Y-106061904D02*
X157887976Y-105261904D01*
X158192738Y-105261904D01*
X158268928Y-105300000D01*
X158307023Y-105338095D01*
X158345119Y-105414285D01*
X158345119Y-105528571D01*
X158307023Y-105604761D01*
X158268928Y-105642857D01*
X158192738Y-105680952D01*
X157887976Y-105680952D01*
X159107023Y-106061904D02*
X158649880Y-106061904D01*
X158878452Y-106061904D02*
X158878452Y-105261904D01*
X158802261Y-105376190D01*
X158726071Y-105452380D01*
X158649880Y-105490476D01*
X159449880Y-105985714D02*
X159487976Y-106023809D01*
X159449880Y-106061904D01*
X159411785Y-106023809D01*
X159449880Y-105985714D01*
X159449880Y-106061904D01*
X159449880Y-105566666D02*
X159487976Y-105604761D01*
X159449880Y-105642857D01*
X159411785Y-105604761D01*
X159449880Y-105566666D01*
X159449880Y-105642857D01*
X160821309Y-105261904D02*
X160440357Y-105261904D01*
X160402261Y-105642857D01*
X160440357Y-105604761D01*
X160516547Y-105566666D01*
X160707023Y-105566666D01*
X160783214Y-105604761D01*
X160821309Y-105642857D01*
X160859404Y-105719047D01*
X160859404Y-105909523D01*
X160821309Y-105985714D01*
X160783214Y-106023809D01*
X160707023Y-106061904D01*
X160516547Y-106061904D01*
X160440357Y-106023809D01*
X160402261Y-105985714D01*
X161202261Y-105528571D02*
X161202261Y-106328571D01*
X161202261Y-105566666D02*
X161278452Y-105528571D01*
X161430833Y-105528571D01*
X161507023Y-105566666D01*
X161545119Y-105604761D01*
X161583214Y-105680952D01*
X161583214Y-105909523D01*
X161545119Y-105985714D01*
X161507023Y-106023809D01*
X161430833Y-106061904D01*
X161278452Y-106061904D01*
X161202261Y-106023809D01*
X161926071Y-105528571D02*
X161926071Y-106328571D01*
X161926071Y-105566666D02*
X162002261Y-105528571D01*
X162154642Y-105528571D01*
X162230833Y-105566666D01*
X162268928Y-105604761D01*
X162307023Y-105680952D01*
X162307023Y-105909523D01*
X162268928Y-105985714D01*
X162230833Y-106023809D01*
X162154642Y-106061904D01*
X162002261Y-106061904D01*
X161926071Y-106023809D01*
X162649880Y-106061904D02*
X162649880Y-105528571D01*
X162649880Y-105604761D02*
X162687976Y-105566666D01*
X162764166Y-105528571D01*
X162878452Y-105528571D01*
X162954642Y-105566666D01*
X162992738Y-105642857D01*
X162992738Y-106061904D01*
X162992738Y-105642857D02*
X163030833Y-105566666D01*
X163107023Y-105528571D01*
X163221309Y-105528571D01*
X163297500Y-105566666D01*
X163335595Y-105642857D01*
X163335595Y-106061904D01*
X164287976Y-105223809D02*
X163602261Y-106252380D01*
X164554642Y-106061904D02*
X164554642Y-105261904D01*
X165011785Y-106061904D02*
X164668928Y-105604761D01*
X165011785Y-105261904D02*
X164554642Y-105719047D01*
X165964166Y-106061904D02*
X165964166Y-105528571D01*
X165964166Y-105604761D02*
X166002261Y-105566666D01*
X166078452Y-105528571D01*
X166192738Y-105528571D01*
X166268928Y-105566666D01*
X166307023Y-105642857D01*
X166307023Y-106061904D01*
X166307023Y-105642857D02*
X166345119Y-105566666D01*
X166421309Y-105528571D01*
X166535595Y-105528571D01*
X166611785Y-105566666D01*
X166649880Y-105642857D01*
X166649880Y-106061904D01*
X167373690Y-106061904D02*
X167373690Y-105642857D01*
X167335595Y-105566666D01*
X167259404Y-105528571D01*
X167107023Y-105528571D01*
X167030833Y-105566666D01*
X167373690Y-106023809D02*
X167297500Y-106061904D01*
X167107023Y-106061904D01*
X167030833Y-106023809D01*
X166992738Y-105947619D01*
X166992738Y-105871428D01*
X167030833Y-105795238D01*
X167107023Y-105757142D01*
X167297500Y-105757142D01*
X167373690Y-105719047D01*
X167678452Y-106061904D02*
X168097500Y-105528571D01*
X167678452Y-105528571D02*
X168097500Y-106061904D01*
X168402261Y-105985714D02*
X168440357Y-106023809D01*
X168402261Y-106061904D01*
X168364166Y-106023809D01*
X168402261Y-105985714D01*
X168402261Y-106061904D01*
X170180952Y-90161904D02*
X170447619Y-90961904D01*
X170714285Y-90161904D01*
X170904761Y-90161904D02*
X171400000Y-90161904D01*
X171133333Y-90466666D01*
X171247619Y-90466666D01*
X171323809Y-90504761D01*
X171361904Y-90542857D01*
X171400000Y-90619047D01*
X171400000Y-90809523D01*
X171361904Y-90885714D01*
X171323809Y-90923809D01*
X171247619Y-90961904D01*
X171019047Y-90961904D01*
X170942857Y-90923809D01*
X170904761Y-90885714D01*
X171742857Y-90885714D02*
X171780952Y-90923809D01*
X171742857Y-90961904D01*
X171704761Y-90923809D01*
X171742857Y-90885714D01*
X171742857Y-90961904D01*
X172047619Y-90161904D02*
X172542857Y-90161904D01*
X172276190Y-90466666D01*
X172390476Y-90466666D01*
X172466666Y-90504761D01*
X172504761Y-90542857D01*
X172542857Y-90619047D01*
X172542857Y-90809523D01*
X172504761Y-90885714D01*
X172466666Y-90923809D01*
X172390476Y-90961904D01*
X172161904Y-90961904D01*
X172085714Y-90923809D01*
X172047619Y-90885714D01*
X170542857Y-83461904D02*
X170809523Y-84261904D01*
X171076190Y-83461904D01*
X171228571Y-83728571D02*
X171533333Y-83728571D01*
X171342857Y-83461904D02*
X171342857Y-84147619D01*
X171380952Y-84223809D01*
X171457142Y-84261904D01*
X171533333Y-84261904D01*
X171800000Y-84261904D02*
X171800000Y-83461904D01*
X172142857Y-84261904D02*
X172142857Y-83842857D01*
X172104761Y-83766666D01*
X172028571Y-83728571D01*
X171914285Y-83728571D01*
X171838095Y-83766666D01*
X171800000Y-83804761D01*
X178390476Y-83600000D02*
X178314285Y-83561904D01*
X178200000Y-83561904D01*
X178085714Y-83600000D01*
X178009523Y-83676190D01*
X177971428Y-83752380D01*
X177933333Y-83904761D01*
X177933333Y-84019047D01*
X177971428Y-84171428D01*
X178009523Y-84247619D01*
X178085714Y-84323809D01*
X178200000Y-84361904D01*
X178276190Y-84361904D01*
X178390476Y-84323809D01*
X178428571Y-84285714D01*
X178428571Y-84019047D01*
X178276190Y-84019047D01*
X178771428Y-84361904D02*
X178771428Y-83561904D01*
X179228571Y-84361904D01*
X179228571Y-83561904D01*
X179609523Y-84361904D02*
X179609523Y-83561904D01*
X179800000Y-83561904D01*
X179914285Y-83600000D01*
X179990476Y-83676190D01*
X180028571Y-83752380D01*
X180066666Y-83904761D01*
X180066666Y-84019047D01*
X180028571Y-84171428D01*
X179990476Y-84247619D01*
X179914285Y-84323809D01*
X179800000Y-84361904D01*
X179609523Y-84361904D01*
X175214285Y-90161904D02*
X175480952Y-90961904D01*
X175747619Y-90161904D01*
X175938095Y-90428571D02*
X176357142Y-90428571D01*
X175938095Y-90961904D01*
X176357142Y-90961904D01*
X176661904Y-90657142D02*
X177271428Y-90657142D01*
X176966666Y-90961904D02*
X176966666Y-90352380D01*
X175514285Y-83461904D02*
X175780952Y-84261904D01*
X176047619Y-83461904D01*
X176238095Y-83728571D02*
X176657142Y-83728571D01*
X176238095Y-84261904D01*
X176657142Y-84261904D01*
X176961904Y-83957142D02*
X177571428Y-83957142D01*
X173238095Y-90161904D02*
X173504761Y-90961904D01*
X173771428Y-90161904D01*
X174038095Y-90657142D02*
X174647619Y-90657142D01*
X174342857Y-90961904D02*
X174342857Y-90352380D01*
X173488095Y-83461904D02*
X173754761Y-84261904D01*
X174021428Y-83461904D01*
X174288095Y-83957142D02*
X174897619Y-83957142D01*
D11*
G04 #@! TO.C,R1*
X171810000Y-104958578D02*
X171810000Y-104441422D01*
X170390000Y-104958578D02*
X170390000Y-104441422D01*
D12*
G04 #@! TO.C,LOGO1*
G36*
X152103910Y-83242348D02*
X152182454Y-83242778D01*
X152239298Y-83243942D01*
X152278105Y-83246207D01*
X152302538Y-83249940D01*
X152316262Y-83255506D01*
X152322940Y-83263273D01*
X152326236Y-83273605D01*
X152326556Y-83274943D01*
X152331562Y-83299079D01*
X152340829Y-83346701D01*
X152353392Y-83412741D01*
X152368287Y-83492128D01*
X152384551Y-83579796D01*
X152385119Y-83582875D01*
X152401410Y-83668789D01*
X152416652Y-83744696D01*
X152429861Y-83806045D01*
X152440054Y-83848282D01*
X152446248Y-83866855D01*
X152446543Y-83867184D01*
X152464788Y-83876253D01*
X152502405Y-83891367D01*
X152551271Y-83909262D01*
X152551543Y-83909358D01*
X152613093Y-83932493D01*
X152685657Y-83961965D01*
X152754057Y-83991597D01*
X152757294Y-83993062D01*
X152868702Y-84043626D01*
X153115399Y-83875160D01*
X153191077Y-83823803D01*
X153259631Y-83777889D01*
X153317088Y-83740030D01*
X153359476Y-83712837D01*
X153382825Y-83698921D01*
X153385042Y-83697889D01*
X153402010Y-83702484D01*
X153433701Y-83724655D01*
X153481352Y-83765447D01*
X153546198Y-83825905D01*
X153612397Y-83890227D01*
X153676214Y-83953612D01*
X153733329Y-84011451D01*
X153780305Y-84060175D01*
X153813703Y-84096210D01*
X153830085Y-84115984D01*
X153830694Y-84117002D01*
X153832505Y-84130572D01*
X153825683Y-84152733D01*
X153808540Y-84186478D01*
X153779393Y-84234800D01*
X153736555Y-84300692D01*
X153679448Y-84385517D01*
X153628766Y-84460177D01*
X153583461Y-84527140D01*
X153546150Y-84582516D01*
X153519452Y-84622420D01*
X153505985Y-84642962D01*
X153505137Y-84644356D01*
X153506781Y-84664038D01*
X153519245Y-84702293D01*
X153540048Y-84751889D01*
X153547462Y-84767728D01*
X153579814Y-84838290D01*
X153614328Y-84918353D01*
X153642365Y-84987629D01*
X153662568Y-85039045D01*
X153678615Y-85078119D01*
X153687888Y-85098541D01*
X153689041Y-85100114D01*
X153706096Y-85102721D01*
X153746298Y-85109863D01*
X153804302Y-85120523D01*
X153874763Y-85133685D01*
X153952335Y-85148333D01*
X154031672Y-85163449D01*
X154107431Y-85178018D01*
X154174264Y-85191022D01*
X154226828Y-85201445D01*
X154259776Y-85208270D01*
X154267857Y-85210199D01*
X154276205Y-85214962D01*
X154282506Y-85225718D01*
X154287045Y-85246098D01*
X154290104Y-85279734D01*
X154291967Y-85330255D01*
X154292918Y-85401292D01*
X154293240Y-85496476D01*
X154293257Y-85535492D01*
X154293257Y-85852799D01*
X154217057Y-85867839D01*
X154174663Y-85875995D01*
X154111400Y-85887899D01*
X154034962Y-85902116D01*
X153953043Y-85917210D01*
X153930400Y-85921355D01*
X153854806Y-85936053D01*
X153788953Y-85950505D01*
X153738366Y-85963375D01*
X153708574Y-85973322D01*
X153703612Y-85976287D01*
X153691426Y-85997283D01*
X153673953Y-86037967D01*
X153654577Y-86090322D01*
X153650734Y-86101600D01*
X153625339Y-86171523D01*
X153593817Y-86250418D01*
X153562969Y-86321266D01*
X153562817Y-86321595D01*
X153511447Y-86432733D01*
X153680399Y-86681253D01*
X153849352Y-86929772D01*
X153632429Y-87147058D01*
X153566819Y-87211726D01*
X153506979Y-87268733D01*
X153456267Y-87315033D01*
X153418046Y-87347584D01*
X153395675Y-87363343D01*
X153392466Y-87364343D01*
X153373626Y-87356469D01*
X153335180Y-87334578D01*
X153281330Y-87301267D01*
X153216276Y-87259131D01*
X153145940Y-87211943D01*
X153074555Y-87163810D01*
X153010908Y-87121928D01*
X152959041Y-87088871D01*
X152922995Y-87067218D01*
X152906867Y-87059543D01*
X152887189Y-87066037D01*
X152849875Y-87083150D01*
X152802621Y-87107326D01*
X152797612Y-87110013D01*
X152733977Y-87141927D01*
X152690341Y-87157579D01*
X152663202Y-87157745D01*
X152649057Y-87143204D01*
X152648975Y-87143000D01*
X152641905Y-87125779D01*
X152625042Y-87084899D01*
X152599695Y-87023525D01*
X152567171Y-86944819D01*
X152528778Y-86851947D01*
X152485822Y-86748072D01*
X152444222Y-86647502D01*
X152398504Y-86536516D01*
X152356526Y-86433703D01*
X152319548Y-86342215D01*
X152288827Y-86265201D01*
X152265622Y-86205815D01*
X152251190Y-86167209D01*
X152246743Y-86152800D01*
X152257896Y-86136272D01*
X152287069Y-86109930D01*
X152325971Y-86080887D01*
X152436757Y-85989039D01*
X152523351Y-85883759D01*
X152584716Y-85767266D01*
X152619815Y-85641776D01*
X152627608Y-85509507D01*
X152621943Y-85448457D01*
X152591078Y-85321795D01*
X152537920Y-85209941D01*
X152465767Y-85114001D01*
X152377917Y-85035076D01*
X152277665Y-84974270D01*
X152168310Y-84932687D01*
X152053147Y-84911428D01*
X151935475Y-84911599D01*
X151818590Y-84934301D01*
X151705789Y-84980638D01*
X151600369Y-85051713D01*
X151556368Y-85091911D01*
X151471979Y-85195129D01*
X151413222Y-85307925D01*
X151379704Y-85427010D01*
X151371035Y-85549095D01*
X151386823Y-85670893D01*
X151426678Y-85789116D01*
X151490207Y-85900475D01*
X151577021Y-86001684D01*
X151674029Y-86080887D01*
X151714437Y-86111162D01*
X151742982Y-86137219D01*
X151753257Y-86152825D01*
X151747877Y-86169843D01*
X151732575Y-86210500D01*
X151708612Y-86271642D01*
X151677244Y-86350119D01*
X151639732Y-86442780D01*
X151597333Y-86546472D01*
X151555663Y-86647526D01*
X151509690Y-86758607D01*
X151467107Y-86861541D01*
X151429221Y-86953165D01*
X151397340Y-87030316D01*
X151372771Y-87089831D01*
X151356820Y-87128544D01*
X151350910Y-87143000D01*
X151336948Y-87157685D01*
X151309940Y-87157642D01*
X151266413Y-87142099D01*
X151202890Y-87110284D01*
X151202388Y-87110013D01*
X151154560Y-87085323D01*
X151115897Y-87067338D01*
X151094095Y-87059614D01*
X151093133Y-87059543D01*
X151076721Y-87067378D01*
X151040487Y-87089165D01*
X150988474Y-87122328D01*
X150924725Y-87164291D01*
X150854060Y-87211943D01*
X150782116Y-87260191D01*
X150717274Y-87302151D01*
X150663735Y-87335227D01*
X150625697Y-87356821D01*
X150607533Y-87364343D01*
X150590808Y-87354457D01*
X150557180Y-87326826D01*
X150510010Y-87284495D01*
X150452658Y-87230505D01*
X150388484Y-87167899D01*
X150367497Y-87146983D01*
X150150499Y-86929623D01*
X150315668Y-86687220D01*
X150365864Y-86612781D01*
X150409919Y-86545972D01*
X150445362Y-86490665D01*
X150469719Y-86450729D01*
X150480522Y-86430036D01*
X150480838Y-86428563D01*
X150475143Y-86409058D01*
X150459826Y-86369822D01*
X150437537Y-86317430D01*
X150421893Y-86282355D01*
X150392641Y-86215201D01*
X150365094Y-86147358D01*
X150343737Y-86090034D01*
X150337935Y-86072572D01*
X150321452Y-86025938D01*
X150305340Y-85989905D01*
X150296490Y-85976287D01*
X150276960Y-85967952D01*
X150234334Y-85956137D01*
X150174145Y-85942181D01*
X150101922Y-85927422D01*
X150069600Y-85921355D01*
X149987522Y-85906273D01*
X149908795Y-85891669D01*
X149841109Y-85878980D01*
X149792160Y-85869642D01*
X149782943Y-85867839D01*
X149706743Y-85852799D01*
X149706743Y-85535492D01*
X149706914Y-85431154D01*
X149707616Y-85352213D01*
X149709134Y-85295038D01*
X149711749Y-85255999D01*
X149715746Y-85231465D01*
X149721409Y-85217805D01*
X149729020Y-85211389D01*
X149732143Y-85210199D01*
X149750978Y-85205980D01*
X149792588Y-85197562D01*
X149851630Y-85185961D01*
X149922757Y-85172195D01*
X150000625Y-85157280D01*
X150079887Y-85142232D01*
X150155198Y-85128069D01*
X150221213Y-85115806D01*
X150272587Y-85106461D01*
X150303975Y-85101050D01*
X150310959Y-85100114D01*
X150317285Y-85087596D01*
X150331290Y-85054246D01*
X150350355Y-85006377D01*
X150357634Y-84987629D01*
X150386996Y-84915195D01*
X150421571Y-84835170D01*
X150452537Y-84767728D01*
X150475323Y-84716159D01*
X150490482Y-84673785D01*
X150495542Y-84647834D01*
X150494736Y-84644356D01*
X150484041Y-84627936D01*
X150459620Y-84591417D01*
X150424095Y-84538687D01*
X150380087Y-84473635D01*
X150330217Y-84400151D01*
X150320356Y-84385645D01*
X150262492Y-84299704D01*
X150219956Y-84234261D01*
X150191054Y-84186304D01*
X150174090Y-84152820D01*
X150167367Y-84130795D01*
X150169190Y-84117217D01*
X150169236Y-84117131D01*
X150183586Y-84099297D01*
X150215323Y-84064817D01*
X150261010Y-84017268D01*
X150317204Y-83960222D01*
X150380468Y-83897255D01*
X150387602Y-83890227D01*
X150467330Y-83813020D01*
X150528857Y-83756330D01*
X150573421Y-83719110D01*
X150602257Y-83700315D01*
X150614958Y-83697889D01*
X150633494Y-83708471D01*
X150671961Y-83732916D01*
X150726386Y-83768612D01*
X150792798Y-83812947D01*
X150867225Y-83863311D01*
X150884601Y-83875160D01*
X151131297Y-84043626D01*
X151242706Y-83993062D01*
X151310457Y-83963595D01*
X151383183Y-83933959D01*
X151445703Y-83910330D01*
X151448457Y-83909358D01*
X151497360Y-83891457D01*
X151535057Y-83876320D01*
X151553425Y-83867210D01*
X151553456Y-83867184D01*
X151559285Y-83850717D01*
X151569192Y-83810219D01*
X151582195Y-83750242D01*
X151597309Y-83675340D01*
X151613552Y-83590064D01*
X151614881Y-83582875D01*
X151631175Y-83495014D01*
X151646133Y-83415260D01*
X151658791Y-83348681D01*
X151668186Y-83300347D01*
X151673354Y-83275325D01*
X151673444Y-83274943D01*
X151676589Y-83264299D01*
X151682704Y-83256262D01*
X151695453Y-83250467D01*
X151718500Y-83246547D01*
X151755509Y-83244135D01*
X151810144Y-83242865D01*
X151886067Y-83242371D01*
X151986944Y-83242286D01*
X152000000Y-83242286D01*
X152103910Y-83242348D01*
X152103910Y-83242348D01*
G37*
X152103910Y-83242348D02*
X152182454Y-83242778D01*
X152239298Y-83243942D01*
X152278105Y-83246207D01*
X152302538Y-83249940D01*
X152316262Y-83255506D01*
X152322940Y-83263273D01*
X152326236Y-83273605D01*
X152326556Y-83274943D01*
X152331562Y-83299079D01*
X152340829Y-83346701D01*
X152353392Y-83412741D01*
X152368287Y-83492128D01*
X152384551Y-83579796D01*
X152385119Y-83582875D01*
X152401410Y-83668789D01*
X152416652Y-83744696D01*
X152429861Y-83806045D01*
X152440054Y-83848282D01*
X152446248Y-83866855D01*
X152446543Y-83867184D01*
X152464788Y-83876253D01*
X152502405Y-83891367D01*
X152551271Y-83909262D01*
X152551543Y-83909358D01*
X152613093Y-83932493D01*
X152685657Y-83961965D01*
X152754057Y-83991597D01*
X152757294Y-83993062D01*
X152868702Y-84043626D01*
X153115399Y-83875160D01*
X153191077Y-83823803D01*
X153259631Y-83777889D01*
X153317088Y-83740030D01*
X153359476Y-83712837D01*
X153382825Y-83698921D01*
X153385042Y-83697889D01*
X153402010Y-83702484D01*
X153433701Y-83724655D01*
X153481352Y-83765447D01*
X153546198Y-83825905D01*
X153612397Y-83890227D01*
X153676214Y-83953612D01*
X153733329Y-84011451D01*
X153780305Y-84060175D01*
X153813703Y-84096210D01*
X153830085Y-84115984D01*
X153830694Y-84117002D01*
X153832505Y-84130572D01*
X153825683Y-84152733D01*
X153808540Y-84186478D01*
X153779393Y-84234800D01*
X153736555Y-84300692D01*
X153679448Y-84385517D01*
X153628766Y-84460177D01*
X153583461Y-84527140D01*
X153546150Y-84582516D01*
X153519452Y-84622420D01*
X153505985Y-84642962D01*
X153505137Y-84644356D01*
X153506781Y-84664038D01*
X153519245Y-84702293D01*
X153540048Y-84751889D01*
X153547462Y-84767728D01*
X153579814Y-84838290D01*
X153614328Y-84918353D01*
X153642365Y-84987629D01*
X153662568Y-85039045D01*
X153678615Y-85078119D01*
X153687888Y-85098541D01*
X153689041Y-85100114D01*
X153706096Y-85102721D01*
X153746298Y-85109863D01*
X153804302Y-85120523D01*
X153874763Y-85133685D01*
X153952335Y-85148333D01*
X154031672Y-85163449D01*
X154107431Y-85178018D01*
X154174264Y-85191022D01*
X154226828Y-85201445D01*
X154259776Y-85208270D01*
X154267857Y-85210199D01*
X154276205Y-85214962D01*
X154282506Y-85225718D01*
X154287045Y-85246098D01*
X154290104Y-85279734D01*
X154291967Y-85330255D01*
X154292918Y-85401292D01*
X154293240Y-85496476D01*
X154293257Y-85535492D01*
X154293257Y-85852799D01*
X154217057Y-85867839D01*
X154174663Y-85875995D01*
X154111400Y-85887899D01*
X154034962Y-85902116D01*
X153953043Y-85917210D01*
X153930400Y-85921355D01*
X153854806Y-85936053D01*
X153788953Y-85950505D01*
X153738366Y-85963375D01*
X153708574Y-85973322D01*
X153703612Y-85976287D01*
X153691426Y-85997283D01*
X153673953Y-86037967D01*
X153654577Y-86090322D01*
X153650734Y-86101600D01*
X153625339Y-86171523D01*
X153593817Y-86250418D01*
X153562969Y-86321266D01*
X153562817Y-86321595D01*
X153511447Y-86432733D01*
X153680399Y-86681253D01*
X153849352Y-86929772D01*
X153632429Y-87147058D01*
X153566819Y-87211726D01*
X153506979Y-87268733D01*
X153456267Y-87315033D01*
X153418046Y-87347584D01*
X153395675Y-87363343D01*
X153392466Y-87364343D01*
X153373626Y-87356469D01*
X153335180Y-87334578D01*
X153281330Y-87301267D01*
X153216276Y-87259131D01*
X153145940Y-87211943D01*
X153074555Y-87163810D01*
X153010908Y-87121928D01*
X152959041Y-87088871D01*
X152922995Y-87067218D01*
X152906867Y-87059543D01*
X152887189Y-87066037D01*
X152849875Y-87083150D01*
X152802621Y-87107326D01*
X152797612Y-87110013D01*
X152733977Y-87141927D01*
X152690341Y-87157579D01*
X152663202Y-87157745D01*
X152649057Y-87143204D01*
X152648975Y-87143000D01*
X152641905Y-87125779D01*
X152625042Y-87084899D01*
X152599695Y-87023525D01*
X152567171Y-86944819D01*
X152528778Y-86851947D01*
X152485822Y-86748072D01*
X152444222Y-86647502D01*
X152398504Y-86536516D01*
X152356526Y-86433703D01*
X152319548Y-86342215D01*
X152288827Y-86265201D01*
X152265622Y-86205815D01*
X152251190Y-86167209D01*
X152246743Y-86152800D01*
X152257896Y-86136272D01*
X152287069Y-86109930D01*
X152325971Y-86080887D01*
X152436757Y-85989039D01*
X152523351Y-85883759D01*
X152584716Y-85767266D01*
X152619815Y-85641776D01*
X152627608Y-85509507D01*
X152621943Y-85448457D01*
X152591078Y-85321795D01*
X152537920Y-85209941D01*
X152465767Y-85114001D01*
X152377917Y-85035076D01*
X152277665Y-84974270D01*
X152168310Y-84932687D01*
X152053147Y-84911428D01*
X151935475Y-84911599D01*
X151818590Y-84934301D01*
X151705789Y-84980638D01*
X151600369Y-85051713D01*
X151556368Y-85091911D01*
X151471979Y-85195129D01*
X151413222Y-85307925D01*
X151379704Y-85427010D01*
X151371035Y-85549095D01*
X151386823Y-85670893D01*
X151426678Y-85789116D01*
X151490207Y-85900475D01*
X151577021Y-86001684D01*
X151674029Y-86080887D01*
X151714437Y-86111162D01*
X151742982Y-86137219D01*
X151753257Y-86152825D01*
X151747877Y-86169843D01*
X151732575Y-86210500D01*
X151708612Y-86271642D01*
X151677244Y-86350119D01*
X151639732Y-86442780D01*
X151597333Y-86546472D01*
X151555663Y-86647526D01*
X151509690Y-86758607D01*
X151467107Y-86861541D01*
X151429221Y-86953165D01*
X151397340Y-87030316D01*
X151372771Y-87089831D01*
X151356820Y-87128544D01*
X151350910Y-87143000D01*
X151336948Y-87157685D01*
X151309940Y-87157642D01*
X151266413Y-87142099D01*
X151202890Y-87110284D01*
X151202388Y-87110013D01*
X151154560Y-87085323D01*
X151115897Y-87067338D01*
X151094095Y-87059614D01*
X151093133Y-87059543D01*
X151076721Y-87067378D01*
X151040487Y-87089165D01*
X150988474Y-87122328D01*
X150924725Y-87164291D01*
X150854060Y-87211943D01*
X150782116Y-87260191D01*
X150717274Y-87302151D01*
X150663735Y-87335227D01*
X150625697Y-87356821D01*
X150607533Y-87364343D01*
X150590808Y-87354457D01*
X150557180Y-87326826D01*
X150510010Y-87284495D01*
X150452658Y-87230505D01*
X150388484Y-87167899D01*
X150367497Y-87146983D01*
X150150499Y-86929623D01*
X150315668Y-86687220D01*
X150365864Y-86612781D01*
X150409919Y-86545972D01*
X150445362Y-86490665D01*
X150469719Y-86450729D01*
X150480522Y-86430036D01*
X150480838Y-86428563D01*
X150475143Y-86409058D01*
X150459826Y-86369822D01*
X150437537Y-86317430D01*
X150421893Y-86282355D01*
X150392641Y-86215201D01*
X150365094Y-86147358D01*
X150343737Y-86090034D01*
X150337935Y-86072572D01*
X150321452Y-86025938D01*
X150305340Y-85989905D01*
X150296490Y-85976287D01*
X150276960Y-85967952D01*
X150234334Y-85956137D01*
X150174145Y-85942181D01*
X150101922Y-85927422D01*
X150069600Y-85921355D01*
X149987522Y-85906273D01*
X149908795Y-85891669D01*
X149841109Y-85878980D01*
X149792160Y-85869642D01*
X149782943Y-85867839D01*
X149706743Y-85852799D01*
X149706743Y-85535492D01*
X149706914Y-85431154D01*
X149707616Y-85352213D01*
X149709134Y-85295038D01*
X149711749Y-85255999D01*
X149715746Y-85231465D01*
X149721409Y-85217805D01*
X149729020Y-85211389D01*
X149732143Y-85210199D01*
X149750978Y-85205980D01*
X149792588Y-85197562D01*
X149851630Y-85185961D01*
X149922757Y-85172195D01*
X150000625Y-85157280D01*
X150079887Y-85142232D01*
X150155198Y-85128069D01*
X150221213Y-85115806D01*
X150272587Y-85106461D01*
X150303975Y-85101050D01*
X150310959Y-85100114D01*
X150317285Y-85087596D01*
X150331290Y-85054246D01*
X150350355Y-85006377D01*
X150357634Y-84987629D01*
X150386996Y-84915195D01*
X150421571Y-84835170D01*
X150452537Y-84767728D01*
X150475323Y-84716159D01*
X150490482Y-84673785D01*
X150495542Y-84647834D01*
X150494736Y-84644356D01*
X150484041Y-84627936D01*
X150459620Y-84591417D01*
X150424095Y-84538687D01*
X150380087Y-84473635D01*
X150330217Y-84400151D01*
X150320356Y-84385645D01*
X150262492Y-84299704D01*
X150219956Y-84234261D01*
X150191054Y-84186304D01*
X150174090Y-84152820D01*
X150167367Y-84130795D01*
X150169190Y-84117217D01*
X150169236Y-84117131D01*
X150183586Y-84099297D01*
X150215323Y-84064817D01*
X150261010Y-84017268D01*
X150317204Y-83960222D01*
X150380468Y-83897255D01*
X150387602Y-83890227D01*
X150467330Y-83813020D01*
X150528857Y-83756330D01*
X150573421Y-83719110D01*
X150602257Y-83700315D01*
X150614958Y-83697889D01*
X150633494Y-83708471D01*
X150671961Y-83732916D01*
X150726386Y-83768612D01*
X150792798Y-83812947D01*
X150867225Y-83863311D01*
X150884601Y-83875160D01*
X151131297Y-84043626D01*
X151242706Y-83993062D01*
X151310457Y-83963595D01*
X151383183Y-83933959D01*
X151445703Y-83910330D01*
X151448457Y-83909358D01*
X151497360Y-83891457D01*
X151535057Y-83876320D01*
X151553425Y-83867210D01*
X151553456Y-83867184D01*
X151559285Y-83850717D01*
X151569192Y-83810219D01*
X151582195Y-83750242D01*
X151597309Y-83675340D01*
X151613552Y-83590064D01*
X151614881Y-83582875D01*
X151631175Y-83495014D01*
X151646133Y-83415260D01*
X151658791Y-83348681D01*
X151668186Y-83300347D01*
X151673354Y-83275325D01*
X151673444Y-83274943D01*
X151676589Y-83264299D01*
X151682704Y-83256262D01*
X151695453Y-83250467D01*
X151718500Y-83246547D01*
X151755509Y-83244135D01*
X151810144Y-83242865D01*
X151886067Y-83242371D01*
X151986944Y-83242286D01*
X152000000Y-83242286D01*
X152103910Y-83242348D01*
G36*
X155153595Y-87966966D02*
X155211021Y-88004497D01*
X155238719Y-88038096D01*
X155260662Y-88099064D01*
X155262405Y-88147308D01*
X155258457Y-88211816D01*
X155109686Y-88276934D01*
X155037349Y-88310202D01*
X154990084Y-88336964D01*
X154965507Y-88360144D01*
X154961237Y-88382667D01*
X154974889Y-88407455D01*
X154989943Y-88423886D01*
X155033746Y-88450235D01*
X155081389Y-88452081D01*
X155125145Y-88431546D01*
X155157289Y-88390752D01*
X155163038Y-88376347D01*
X155190576Y-88331356D01*
X155222258Y-88312182D01*
X155265714Y-88295779D01*
X155265714Y-88357966D01*
X155261872Y-88400283D01*
X155246823Y-88435969D01*
X155215280Y-88476943D01*
X155210592Y-88482267D01*
X155175506Y-88518720D01*
X155145347Y-88538283D01*
X155107615Y-88547283D01*
X155076335Y-88550230D01*
X155020385Y-88550965D01*
X154980555Y-88541660D01*
X154955708Y-88527846D01*
X154916656Y-88497467D01*
X154889625Y-88464613D01*
X154872517Y-88423294D01*
X154863238Y-88367521D01*
X154859693Y-88291305D01*
X154859410Y-88252622D01*
X154860372Y-88206247D01*
X154948007Y-88206247D01*
X154949023Y-88231126D01*
X154951556Y-88235200D01*
X154968274Y-88229665D01*
X155004249Y-88215017D01*
X155052331Y-88194190D01*
X155062386Y-88189714D01*
X155123152Y-88158814D01*
X155156632Y-88131657D01*
X155163990Y-88106220D01*
X155146391Y-88080481D01*
X155131856Y-88069109D01*
X155079410Y-88046364D01*
X155030322Y-88050122D01*
X154989227Y-88077884D01*
X154960758Y-88127152D01*
X154951631Y-88166257D01*
X154948007Y-88206247D01*
X154860372Y-88206247D01*
X154861285Y-88162249D01*
X154868196Y-88095384D01*
X154881884Y-88046695D01*
X154904096Y-88010849D01*
X154936574Y-87982513D01*
X154950733Y-87973355D01*
X155015053Y-87949507D01*
X155085473Y-87948006D01*
X155153595Y-87966966D01*
X155153595Y-87966966D01*
G37*
X155153595Y-87966966D02*
X155211021Y-88004497D01*
X155238719Y-88038096D01*
X155260662Y-88099064D01*
X155262405Y-88147308D01*
X155258457Y-88211816D01*
X155109686Y-88276934D01*
X155037349Y-88310202D01*
X154990084Y-88336964D01*
X154965507Y-88360144D01*
X154961237Y-88382667D01*
X154974889Y-88407455D01*
X154989943Y-88423886D01*
X155033746Y-88450235D01*
X155081389Y-88452081D01*
X155125145Y-88431546D01*
X155157289Y-88390752D01*
X155163038Y-88376347D01*
X155190576Y-88331356D01*
X155222258Y-88312182D01*
X155265714Y-88295779D01*
X155265714Y-88357966D01*
X155261872Y-88400283D01*
X155246823Y-88435969D01*
X155215280Y-88476943D01*
X155210592Y-88482267D01*
X155175506Y-88518720D01*
X155145347Y-88538283D01*
X155107615Y-88547283D01*
X155076335Y-88550230D01*
X155020385Y-88550965D01*
X154980555Y-88541660D01*
X154955708Y-88527846D01*
X154916656Y-88497467D01*
X154889625Y-88464613D01*
X154872517Y-88423294D01*
X154863238Y-88367521D01*
X154859693Y-88291305D01*
X154859410Y-88252622D01*
X154860372Y-88206247D01*
X154948007Y-88206247D01*
X154949023Y-88231126D01*
X154951556Y-88235200D01*
X154968274Y-88229665D01*
X155004249Y-88215017D01*
X155052331Y-88194190D01*
X155062386Y-88189714D01*
X155123152Y-88158814D01*
X155156632Y-88131657D01*
X155163990Y-88106220D01*
X155146391Y-88080481D01*
X155131856Y-88069109D01*
X155079410Y-88046364D01*
X155030322Y-88050122D01*
X154989227Y-88077884D01*
X154960758Y-88127152D01*
X154951631Y-88166257D01*
X154948007Y-88206247D01*
X154860372Y-88206247D01*
X154861285Y-88162249D01*
X154868196Y-88095384D01*
X154881884Y-88046695D01*
X154904096Y-88010849D01*
X154936574Y-87982513D01*
X154950733Y-87973355D01*
X155015053Y-87949507D01*
X155085473Y-87948006D01*
X155153595Y-87966966D01*
G36*
X154652600Y-87958752D02*
X154669948Y-87966334D01*
X154711356Y-87999128D01*
X154746765Y-88046547D01*
X154768664Y-88097151D01*
X154772229Y-88122098D01*
X154760279Y-88156927D01*
X154734067Y-88175357D01*
X154705964Y-88186516D01*
X154693095Y-88188572D01*
X154686829Y-88173649D01*
X154674456Y-88141175D01*
X154669028Y-88126502D01*
X154638590Y-88075744D01*
X154594520Y-88050427D01*
X154538010Y-88051206D01*
X154533825Y-88052203D01*
X154503655Y-88066507D01*
X154481476Y-88094393D01*
X154466327Y-88139287D01*
X154457250Y-88204615D01*
X154453286Y-88293804D01*
X154452914Y-88341261D01*
X154452730Y-88416071D01*
X154451522Y-88467069D01*
X154448309Y-88499471D01*
X154442109Y-88518495D01*
X154431940Y-88529356D01*
X154416819Y-88537272D01*
X154415946Y-88537670D01*
X154386828Y-88549981D01*
X154372403Y-88554514D01*
X154370186Y-88540809D01*
X154368289Y-88502925D01*
X154366847Y-88445715D01*
X154365998Y-88374027D01*
X154365829Y-88321565D01*
X154366692Y-88220047D01*
X154370070Y-88143032D01*
X154377142Y-88086023D01*
X154389088Y-88044526D01*
X154407090Y-88014043D01*
X154432327Y-87990080D01*
X154457247Y-87973355D01*
X154517171Y-87951097D01*
X154586911Y-87946076D01*
X154652600Y-87958752D01*
X154652600Y-87958752D01*
G37*
X154652600Y-87958752D02*
X154669948Y-87966334D01*
X154711356Y-87999128D01*
X154746765Y-88046547D01*
X154768664Y-88097151D01*
X154772229Y-88122098D01*
X154760279Y-88156927D01*
X154734067Y-88175357D01*
X154705964Y-88186516D01*
X154693095Y-88188572D01*
X154686829Y-88173649D01*
X154674456Y-88141175D01*
X154669028Y-88126502D01*
X154638590Y-88075744D01*
X154594520Y-88050427D01*
X154538010Y-88051206D01*
X154533825Y-88052203D01*
X154503655Y-88066507D01*
X154481476Y-88094393D01*
X154466327Y-88139287D01*
X154457250Y-88204615D01*
X154453286Y-88293804D01*
X154452914Y-88341261D01*
X154452730Y-88416071D01*
X154451522Y-88467069D01*
X154448309Y-88499471D01*
X154442109Y-88518495D01*
X154431940Y-88529356D01*
X154416819Y-88537272D01*
X154415946Y-88537670D01*
X154386828Y-88549981D01*
X154372403Y-88554514D01*
X154370186Y-88540809D01*
X154368289Y-88502925D01*
X154366847Y-88445715D01*
X154365998Y-88374027D01*
X154365829Y-88321565D01*
X154366692Y-88220047D01*
X154370070Y-88143032D01*
X154377142Y-88086023D01*
X154389088Y-88044526D01*
X154407090Y-88014043D01*
X154432327Y-87990080D01*
X154457247Y-87973355D01*
X154517171Y-87951097D01*
X154586911Y-87946076D01*
X154652600Y-87958752D01*
G36*
X154144876Y-87956335D02*
X154186667Y-87975344D01*
X154219469Y-87998378D01*
X154243503Y-88024133D01*
X154260097Y-88057358D01*
X154270577Y-88102800D01*
X154276271Y-88165207D01*
X154278507Y-88249327D01*
X154278743Y-88304721D01*
X154278743Y-88520826D01*
X154241774Y-88537670D01*
X154212656Y-88549981D01*
X154198231Y-88554514D01*
X154195472Y-88541025D01*
X154193282Y-88504653D01*
X154191942Y-88451542D01*
X154191657Y-88409372D01*
X154190434Y-88348447D01*
X154187136Y-88300115D01*
X154182321Y-88270518D01*
X154178496Y-88264229D01*
X154152783Y-88270652D01*
X154112418Y-88287125D01*
X154065679Y-88309458D01*
X154020845Y-88333457D01*
X153986193Y-88354930D01*
X153970002Y-88369685D01*
X153969938Y-88369845D01*
X153971330Y-88397152D01*
X153983818Y-88423219D01*
X154005743Y-88444392D01*
X154037743Y-88451474D01*
X154065092Y-88450649D01*
X154103826Y-88450042D01*
X154124158Y-88459116D01*
X154136369Y-88483092D01*
X154137909Y-88487613D01*
X154143203Y-88521806D01*
X154129047Y-88542568D01*
X154092148Y-88552462D01*
X154052289Y-88554292D01*
X153980562Y-88540727D01*
X153943432Y-88521355D01*
X153897576Y-88475845D01*
X153873256Y-88419983D01*
X153871073Y-88360957D01*
X153891629Y-88305953D01*
X153922549Y-88271486D01*
X153953420Y-88252189D01*
X154001942Y-88227759D01*
X154058485Y-88202985D01*
X154067910Y-88199199D01*
X154130019Y-88171791D01*
X154165822Y-88147634D01*
X154177337Y-88123619D01*
X154166580Y-88096635D01*
X154148114Y-88075543D01*
X154104469Y-88049572D01*
X154056446Y-88047624D01*
X154012406Y-88067637D01*
X153980709Y-88107551D01*
X153976549Y-88117848D01*
X153952327Y-88155724D01*
X153916965Y-88183842D01*
X153872343Y-88206917D01*
X153872343Y-88141485D01*
X153874969Y-88101506D01*
X153886230Y-88069997D01*
X153911199Y-88036378D01*
X153935169Y-88010484D01*
X153972441Y-87973817D01*
X154001401Y-87954121D01*
X154032505Y-87946220D01*
X154067713Y-87944914D01*
X154144876Y-87956335D01*
X154144876Y-87956335D01*
G37*
X154144876Y-87956335D02*
X154186667Y-87975344D01*
X154219469Y-87998378D01*
X154243503Y-88024133D01*
X154260097Y-88057358D01*
X154270577Y-88102800D01*
X154276271Y-88165207D01*
X154278507Y-88249327D01*
X154278743Y-88304721D01*
X154278743Y-88520826D01*
X154241774Y-88537670D01*
X154212656Y-88549981D01*
X154198231Y-88554514D01*
X154195472Y-88541025D01*
X154193282Y-88504653D01*
X154191942Y-88451542D01*
X154191657Y-88409372D01*
X154190434Y-88348447D01*
X154187136Y-88300115D01*
X154182321Y-88270518D01*
X154178496Y-88264229D01*
X154152783Y-88270652D01*
X154112418Y-88287125D01*
X154065679Y-88309458D01*
X154020845Y-88333457D01*
X153986193Y-88354930D01*
X153970002Y-88369685D01*
X153969938Y-88369845D01*
X153971330Y-88397152D01*
X153983818Y-88423219D01*
X154005743Y-88444392D01*
X154037743Y-88451474D01*
X154065092Y-88450649D01*
X154103826Y-88450042D01*
X154124158Y-88459116D01*
X154136369Y-88483092D01*
X154137909Y-88487613D01*
X154143203Y-88521806D01*
X154129047Y-88542568D01*
X154092148Y-88552462D01*
X154052289Y-88554292D01*
X153980562Y-88540727D01*
X153943432Y-88521355D01*
X153897576Y-88475845D01*
X153873256Y-88419983D01*
X153871073Y-88360957D01*
X153891629Y-88305953D01*
X153922549Y-88271486D01*
X153953420Y-88252189D01*
X154001942Y-88227759D01*
X154058485Y-88202985D01*
X154067910Y-88199199D01*
X154130019Y-88171791D01*
X154165822Y-88147634D01*
X154177337Y-88123619D01*
X154166580Y-88096635D01*
X154148114Y-88075543D01*
X154104469Y-88049572D01*
X154056446Y-88047624D01*
X154012406Y-88067637D01*
X153980709Y-88107551D01*
X153976549Y-88117848D01*
X153952327Y-88155724D01*
X153916965Y-88183842D01*
X153872343Y-88206917D01*
X153872343Y-88141485D01*
X153874969Y-88101506D01*
X153886230Y-88069997D01*
X153911199Y-88036378D01*
X153935169Y-88010484D01*
X153972441Y-87973817D01*
X154001401Y-87954121D01*
X154032505Y-87946220D01*
X154067713Y-87944914D01*
X154144876Y-87956335D01*
G36*
X153779833Y-87958663D02*
X153782048Y-87996850D01*
X153783784Y-88054886D01*
X153784899Y-88128180D01*
X153785257Y-88205055D01*
X153785257Y-88465196D01*
X153739326Y-88511127D01*
X153707675Y-88539429D01*
X153679890Y-88550893D01*
X153641915Y-88550168D01*
X153626840Y-88548321D01*
X153579726Y-88542948D01*
X153540756Y-88539869D01*
X153531257Y-88539585D01*
X153499233Y-88541445D01*
X153453432Y-88546114D01*
X153435674Y-88548321D01*
X153392057Y-88551735D01*
X153362745Y-88544320D01*
X153333680Y-88521427D01*
X153323188Y-88511127D01*
X153277257Y-88465196D01*
X153277257Y-87978602D01*
X153314226Y-87961758D01*
X153346059Y-87949282D01*
X153364683Y-87944914D01*
X153369458Y-87958718D01*
X153373921Y-87997286D01*
X153377775Y-88056356D01*
X153380722Y-88131663D01*
X153382143Y-88195286D01*
X153386114Y-88445657D01*
X153420759Y-88450556D01*
X153452268Y-88447131D01*
X153467708Y-88436041D01*
X153472023Y-88415308D01*
X153475708Y-88371145D01*
X153478469Y-88309146D01*
X153480012Y-88234909D01*
X153480235Y-88196706D01*
X153480457Y-87976783D01*
X153526166Y-87960849D01*
X153558518Y-87950015D01*
X153576115Y-87944962D01*
X153576623Y-87944914D01*
X153578388Y-87958648D01*
X153580329Y-87996730D01*
X153582282Y-88054482D01*
X153584084Y-88127227D01*
X153585343Y-88195286D01*
X153589314Y-88445657D01*
X153676400Y-88445657D01*
X153680396Y-88217240D01*
X153684392Y-87988822D01*
X153726847Y-87966868D01*
X153758192Y-87951793D01*
X153776744Y-87944951D01*
X153777279Y-87944914D01*
X153779833Y-87958663D01*
X153779833Y-87958663D01*
G37*
X153779833Y-87958663D02*
X153782048Y-87996850D01*
X153783784Y-88054886D01*
X153784899Y-88128180D01*
X153785257Y-88205055D01*
X153785257Y-88465196D01*
X153739326Y-88511127D01*
X153707675Y-88539429D01*
X153679890Y-88550893D01*
X153641915Y-88550168D01*
X153626840Y-88548321D01*
X153579726Y-88542948D01*
X153540756Y-88539869D01*
X153531257Y-88539585D01*
X153499233Y-88541445D01*
X153453432Y-88546114D01*
X153435674Y-88548321D01*
X153392057Y-88551735D01*
X153362745Y-88544320D01*
X153333680Y-88521427D01*
X153323188Y-88511127D01*
X153277257Y-88465196D01*
X153277257Y-87978602D01*
X153314226Y-87961758D01*
X153346059Y-87949282D01*
X153364683Y-87944914D01*
X153369458Y-87958718D01*
X153373921Y-87997286D01*
X153377775Y-88056356D01*
X153380722Y-88131663D01*
X153382143Y-88195286D01*
X153386114Y-88445657D01*
X153420759Y-88450556D01*
X153452268Y-88447131D01*
X153467708Y-88436041D01*
X153472023Y-88415308D01*
X153475708Y-88371145D01*
X153478469Y-88309146D01*
X153480012Y-88234909D01*
X153480235Y-88196706D01*
X153480457Y-87976783D01*
X153526166Y-87960849D01*
X153558518Y-87950015D01*
X153576115Y-87944962D01*
X153576623Y-87944914D01*
X153578388Y-87958648D01*
X153580329Y-87996730D01*
X153582282Y-88054482D01*
X153584084Y-88127227D01*
X153585343Y-88195286D01*
X153589314Y-88445657D01*
X153676400Y-88445657D01*
X153680396Y-88217240D01*
X153684392Y-87988822D01*
X153726847Y-87966868D01*
X153758192Y-87951793D01*
X153776744Y-87944951D01*
X153777279Y-87944914D01*
X153779833Y-87958663D01*
G36*
X153190117Y-88065358D02*
X153189933Y-88173837D01*
X153189219Y-88257287D01*
X153187675Y-88319704D01*
X153185001Y-88365085D01*
X153180894Y-88397429D01*
X153175055Y-88420733D01*
X153167182Y-88438995D01*
X153161221Y-88449418D01*
X153111855Y-88505945D01*
X153049264Y-88541377D01*
X152980013Y-88554090D01*
X152910668Y-88542463D01*
X152869375Y-88521568D01*
X152826025Y-88485422D01*
X152796481Y-88441276D01*
X152778655Y-88383462D01*
X152770463Y-88306313D01*
X152769302Y-88249714D01*
X152769458Y-88245647D01*
X152870857Y-88245647D01*
X152871476Y-88310550D01*
X152874314Y-88353514D01*
X152880840Y-88381622D01*
X152892523Y-88401953D01*
X152906483Y-88417288D01*
X152953365Y-88446890D01*
X153003701Y-88449419D01*
X153051276Y-88424705D01*
X153054979Y-88421356D01*
X153070783Y-88403935D01*
X153080693Y-88383209D01*
X153086058Y-88352362D01*
X153088228Y-88304577D01*
X153088571Y-88251748D01*
X153087827Y-88185381D01*
X153084748Y-88141106D01*
X153078061Y-88112009D01*
X153066496Y-88091173D01*
X153057013Y-88080107D01*
X153012960Y-88052198D01*
X152962224Y-88048843D01*
X152913796Y-88070159D01*
X152904450Y-88078073D01*
X152888540Y-88095647D01*
X152878610Y-88116587D01*
X152873278Y-88147782D01*
X152871163Y-88196122D01*
X152870857Y-88245647D01*
X152769458Y-88245647D01*
X152772810Y-88158568D01*
X152784726Y-88090086D01*
X152807135Y-88038600D01*
X152842124Y-87998443D01*
X152869375Y-87977861D01*
X152918907Y-87955625D01*
X152976316Y-87945304D01*
X153029682Y-87948067D01*
X153059543Y-87959212D01*
X153071261Y-87962383D01*
X153079037Y-87950557D01*
X153084465Y-87918866D01*
X153088571Y-87870593D01*
X153093067Y-87816829D01*
X153099313Y-87784482D01*
X153110676Y-87765985D01*
X153130528Y-87753770D01*
X153143000Y-87748362D01*
X153190171Y-87728601D01*
X153190117Y-88065358D01*
X153190117Y-88065358D01*
G37*
X153190117Y-88065358D02*
X153189933Y-88173837D01*
X153189219Y-88257287D01*
X153187675Y-88319704D01*
X153185001Y-88365085D01*
X153180894Y-88397429D01*
X153175055Y-88420733D01*
X153167182Y-88438995D01*
X153161221Y-88449418D01*
X153111855Y-88505945D01*
X153049264Y-88541377D01*
X152980013Y-88554090D01*
X152910668Y-88542463D01*
X152869375Y-88521568D01*
X152826025Y-88485422D01*
X152796481Y-88441276D01*
X152778655Y-88383462D01*
X152770463Y-88306313D01*
X152769302Y-88249714D01*
X152769458Y-88245647D01*
X152870857Y-88245647D01*
X152871476Y-88310550D01*
X152874314Y-88353514D01*
X152880840Y-88381622D01*
X152892523Y-88401953D01*
X152906483Y-88417288D01*
X152953365Y-88446890D01*
X153003701Y-88449419D01*
X153051276Y-88424705D01*
X153054979Y-88421356D01*
X153070783Y-88403935D01*
X153080693Y-88383209D01*
X153086058Y-88352362D01*
X153088228Y-88304577D01*
X153088571Y-88251748D01*
X153087827Y-88185381D01*
X153084748Y-88141106D01*
X153078061Y-88112009D01*
X153066496Y-88091173D01*
X153057013Y-88080107D01*
X153012960Y-88052198D01*
X152962224Y-88048843D01*
X152913796Y-88070159D01*
X152904450Y-88078073D01*
X152888540Y-88095647D01*
X152878610Y-88116587D01*
X152873278Y-88147782D01*
X152871163Y-88196122D01*
X152870857Y-88245647D01*
X152769458Y-88245647D01*
X152772810Y-88158568D01*
X152784726Y-88090086D01*
X152807135Y-88038600D01*
X152842124Y-87998443D01*
X152869375Y-87977861D01*
X152918907Y-87955625D01*
X152976316Y-87945304D01*
X153029682Y-87948067D01*
X153059543Y-87959212D01*
X153071261Y-87962383D01*
X153079037Y-87950557D01*
X153084465Y-87918866D01*
X153088571Y-87870593D01*
X153093067Y-87816829D01*
X153099313Y-87784482D01*
X153110676Y-87765985D01*
X153130528Y-87753770D01*
X153143000Y-87748362D01*
X153190171Y-87728601D01*
X153190117Y-88065358D01*
G36*
X152529926Y-87949755D02*
X152595858Y-87974084D01*
X152649273Y-88017117D01*
X152670164Y-88047409D01*
X152692939Y-88102994D01*
X152692466Y-88143186D01*
X152668562Y-88170217D01*
X152659717Y-88174813D01*
X152621530Y-88189144D01*
X152602028Y-88185472D01*
X152595422Y-88161407D01*
X152595086Y-88148114D01*
X152582992Y-88099210D01*
X152551471Y-88064999D01*
X152507659Y-88048476D01*
X152458695Y-88052634D01*
X152418894Y-88074227D01*
X152405450Y-88086544D01*
X152395921Y-88101487D01*
X152389485Y-88124075D01*
X152385317Y-88159328D01*
X152382597Y-88212266D01*
X152380502Y-88287907D01*
X152379960Y-88311857D01*
X152377981Y-88393790D01*
X152375731Y-88451455D01*
X152372357Y-88489608D01*
X152367006Y-88513004D01*
X152358824Y-88526398D01*
X152346959Y-88534545D01*
X152339362Y-88538144D01*
X152307102Y-88550452D01*
X152288111Y-88554514D01*
X152281836Y-88540948D01*
X152278006Y-88499934D01*
X152276600Y-88430999D01*
X152277598Y-88333669D01*
X152277908Y-88318657D01*
X152280101Y-88229859D01*
X152282693Y-88165019D01*
X152286382Y-88119067D01*
X152291864Y-88086935D01*
X152299835Y-88063553D01*
X152310993Y-88043852D01*
X152316830Y-88035410D01*
X152350296Y-87998057D01*
X152387727Y-87969003D01*
X152392309Y-87966467D01*
X152459426Y-87946443D01*
X152529926Y-87949755D01*
X152529926Y-87949755D01*
G37*
X152529926Y-87949755D02*
X152595858Y-87974084D01*
X152649273Y-88017117D01*
X152670164Y-88047409D01*
X152692939Y-88102994D01*
X152692466Y-88143186D01*
X152668562Y-88170217D01*
X152659717Y-88174813D01*
X152621530Y-88189144D01*
X152602028Y-88185472D01*
X152595422Y-88161407D01*
X152595086Y-88148114D01*
X152582992Y-88099210D01*
X152551471Y-88064999D01*
X152507659Y-88048476D01*
X152458695Y-88052634D01*
X152418894Y-88074227D01*
X152405450Y-88086544D01*
X152395921Y-88101487D01*
X152389485Y-88124075D01*
X152385317Y-88159328D01*
X152382597Y-88212266D01*
X152380502Y-88287907D01*
X152379960Y-88311857D01*
X152377981Y-88393790D01*
X152375731Y-88451455D01*
X152372357Y-88489608D01*
X152367006Y-88513004D01*
X152358824Y-88526398D01*
X152346959Y-88534545D01*
X152339362Y-88538144D01*
X152307102Y-88550452D01*
X152288111Y-88554514D01*
X152281836Y-88540948D01*
X152278006Y-88499934D01*
X152276600Y-88430999D01*
X152277598Y-88333669D01*
X152277908Y-88318657D01*
X152280101Y-88229859D01*
X152282693Y-88165019D01*
X152286382Y-88119067D01*
X152291864Y-88086935D01*
X152299835Y-88063553D01*
X152310993Y-88043852D01*
X152316830Y-88035410D01*
X152350296Y-87998057D01*
X152387727Y-87969003D01*
X152392309Y-87966467D01*
X152459426Y-87946443D01*
X152529926Y-87949755D01*
G36*
X152039744Y-87950968D02*
X152096616Y-87972087D01*
X152097267Y-87972493D01*
X152132440Y-87998380D01*
X152158407Y-88028633D01*
X152176670Y-88068058D01*
X152188732Y-88121462D01*
X152196096Y-88193651D01*
X152200264Y-88289432D01*
X152200629Y-88303078D01*
X152205876Y-88508842D01*
X152161716Y-88531678D01*
X152129763Y-88547110D01*
X152110470Y-88554423D01*
X152109578Y-88554514D01*
X152106239Y-88541022D01*
X152103587Y-88504626D01*
X152101956Y-88451452D01*
X152101600Y-88408393D01*
X152101592Y-88338641D01*
X152098403Y-88294837D01*
X152087288Y-88273944D01*
X152063501Y-88272925D01*
X152022296Y-88288741D01*
X151960086Y-88317815D01*
X151914341Y-88341963D01*
X151890813Y-88362913D01*
X151883896Y-88385747D01*
X151883886Y-88386877D01*
X151895299Y-88426212D01*
X151929092Y-88447462D01*
X151980809Y-88450539D01*
X152018061Y-88450006D01*
X152037703Y-88460735D01*
X152049952Y-88486505D01*
X152057002Y-88519337D01*
X152046842Y-88537966D01*
X152043017Y-88540632D01*
X152007001Y-88551340D01*
X151956566Y-88552856D01*
X151904626Y-88545759D01*
X151867822Y-88532788D01*
X151816938Y-88489585D01*
X151788014Y-88429446D01*
X151782286Y-88382462D01*
X151786657Y-88340082D01*
X151802475Y-88305488D01*
X151833797Y-88274763D01*
X151884678Y-88243990D01*
X151959176Y-88209252D01*
X151963714Y-88207288D01*
X152030821Y-88176287D01*
X152072232Y-88150862D01*
X152089981Y-88128014D01*
X152086107Y-88104745D01*
X152062643Y-88078056D01*
X152055627Y-88071914D01*
X152008630Y-88048100D01*
X151959933Y-88049103D01*
X151917522Y-88072451D01*
X151889384Y-88115675D01*
X151886769Y-88124160D01*
X151861308Y-88165308D01*
X151829001Y-88185128D01*
X151782286Y-88204770D01*
X151782286Y-88153950D01*
X151796496Y-88080082D01*
X151838675Y-88012327D01*
X151860624Y-87989661D01*
X151910517Y-87960569D01*
X151973967Y-87947400D01*
X152039744Y-87950968D01*
X152039744Y-87950968D01*
G37*
X152039744Y-87950968D02*
X152096616Y-87972087D01*
X152097267Y-87972493D01*
X152132440Y-87998380D01*
X152158407Y-88028633D01*
X152176670Y-88068058D01*
X152188732Y-88121462D01*
X152196096Y-88193651D01*
X152200264Y-88289432D01*
X152200629Y-88303078D01*
X152205876Y-88508842D01*
X152161716Y-88531678D01*
X152129763Y-88547110D01*
X152110470Y-88554423D01*
X152109578Y-88554514D01*
X152106239Y-88541022D01*
X152103587Y-88504626D01*
X152101956Y-88451452D01*
X152101600Y-88408393D01*
X152101592Y-88338641D01*
X152098403Y-88294837D01*
X152087288Y-88273944D01*
X152063501Y-88272925D01*
X152022296Y-88288741D01*
X151960086Y-88317815D01*
X151914341Y-88341963D01*
X151890813Y-88362913D01*
X151883896Y-88385747D01*
X151883886Y-88386877D01*
X151895299Y-88426212D01*
X151929092Y-88447462D01*
X151980809Y-88450539D01*
X152018061Y-88450006D01*
X152037703Y-88460735D01*
X152049952Y-88486505D01*
X152057002Y-88519337D01*
X152046842Y-88537966D01*
X152043017Y-88540632D01*
X152007001Y-88551340D01*
X151956566Y-88552856D01*
X151904626Y-88545759D01*
X151867822Y-88532788D01*
X151816938Y-88489585D01*
X151788014Y-88429446D01*
X151782286Y-88382462D01*
X151786657Y-88340082D01*
X151802475Y-88305488D01*
X151833797Y-88274763D01*
X151884678Y-88243990D01*
X151959176Y-88209252D01*
X151963714Y-88207288D01*
X152030821Y-88176287D01*
X152072232Y-88150862D01*
X152089981Y-88128014D01*
X152086107Y-88104745D01*
X152062643Y-88078056D01*
X152055627Y-88071914D01*
X152008630Y-88048100D01*
X151959933Y-88049103D01*
X151917522Y-88072451D01*
X151889384Y-88115675D01*
X151886769Y-88124160D01*
X151861308Y-88165308D01*
X151829001Y-88185128D01*
X151782286Y-88204770D01*
X151782286Y-88153950D01*
X151796496Y-88080082D01*
X151838675Y-88012327D01*
X151860624Y-87989661D01*
X151910517Y-87960569D01*
X151973967Y-87947400D01*
X152039744Y-87950968D01*
G36*
X151375886Y-87851289D02*
X151380139Y-87910613D01*
X151385025Y-87945572D01*
X151391795Y-87960820D01*
X151401702Y-87961015D01*
X151404914Y-87959195D01*
X151447644Y-87946015D01*
X151503227Y-87946785D01*
X151559737Y-87960333D01*
X151595082Y-87977861D01*
X151631321Y-88005861D01*
X151657813Y-88037549D01*
X151675999Y-88077813D01*
X151687322Y-88131543D01*
X151693222Y-88203626D01*
X151695143Y-88298951D01*
X151695177Y-88317237D01*
X151695200Y-88522646D01*
X151649491Y-88538580D01*
X151617027Y-88549420D01*
X151599215Y-88554468D01*
X151598691Y-88554514D01*
X151596937Y-88540828D01*
X151595444Y-88503076D01*
X151594326Y-88446224D01*
X151593697Y-88375234D01*
X151593600Y-88332073D01*
X151593398Y-88246973D01*
X151592358Y-88185981D01*
X151589831Y-88144177D01*
X151585164Y-88116642D01*
X151577707Y-88098456D01*
X151566811Y-88084698D01*
X151560007Y-88078073D01*
X151513272Y-88051375D01*
X151462272Y-88049375D01*
X151416001Y-88071955D01*
X151407444Y-88080107D01*
X151394893Y-88095436D01*
X151386188Y-88113618D01*
X151380631Y-88139909D01*
X151377526Y-88179562D01*
X151376176Y-88237832D01*
X151375886Y-88318173D01*
X151375886Y-88522646D01*
X151330177Y-88538580D01*
X151297713Y-88549420D01*
X151279901Y-88554468D01*
X151279377Y-88554514D01*
X151278037Y-88540623D01*
X151276828Y-88501439D01*
X151275801Y-88440700D01*
X151275002Y-88362141D01*
X151274481Y-88269498D01*
X151274286Y-88166509D01*
X151274286Y-87769342D01*
X151321457Y-87749444D01*
X151368629Y-87729547D01*
X151375886Y-87851289D01*
X151375886Y-87851289D01*
G37*
X151375886Y-87851289D02*
X151380139Y-87910613D01*
X151385025Y-87945572D01*
X151391795Y-87960820D01*
X151401702Y-87961015D01*
X151404914Y-87959195D01*
X151447644Y-87946015D01*
X151503227Y-87946785D01*
X151559737Y-87960333D01*
X151595082Y-87977861D01*
X151631321Y-88005861D01*
X151657813Y-88037549D01*
X151675999Y-88077813D01*
X151687322Y-88131543D01*
X151693222Y-88203626D01*
X151695143Y-88298951D01*
X151695177Y-88317237D01*
X151695200Y-88522646D01*
X151649491Y-88538580D01*
X151617027Y-88549420D01*
X151599215Y-88554468D01*
X151598691Y-88554514D01*
X151596937Y-88540828D01*
X151595444Y-88503076D01*
X151594326Y-88446224D01*
X151593697Y-88375234D01*
X151593600Y-88332073D01*
X151593398Y-88246973D01*
X151592358Y-88185981D01*
X151589831Y-88144177D01*
X151585164Y-88116642D01*
X151577707Y-88098456D01*
X151566811Y-88084698D01*
X151560007Y-88078073D01*
X151513272Y-88051375D01*
X151462272Y-88049375D01*
X151416001Y-88071955D01*
X151407444Y-88080107D01*
X151394893Y-88095436D01*
X151386188Y-88113618D01*
X151380631Y-88139909D01*
X151377526Y-88179562D01*
X151376176Y-88237832D01*
X151375886Y-88318173D01*
X151375886Y-88522646D01*
X151330177Y-88538580D01*
X151297713Y-88549420D01*
X151279901Y-88554468D01*
X151279377Y-88554514D01*
X151278037Y-88540623D01*
X151276828Y-88501439D01*
X151275801Y-88440700D01*
X151275002Y-88362141D01*
X151274481Y-88269498D01*
X151274286Y-88166509D01*
X151274286Y-87769342D01*
X151321457Y-87749444D01*
X151368629Y-87729547D01*
X151375886Y-87851289D01*
G36*
X150168303Y-87931239D02*
X150225527Y-87969735D01*
X150269749Y-88025335D01*
X150296167Y-88096086D01*
X150301510Y-88148162D01*
X150300903Y-88169893D01*
X150295822Y-88186531D01*
X150281855Y-88201437D01*
X150254589Y-88217973D01*
X150209612Y-88239498D01*
X150142511Y-88269374D01*
X150142171Y-88269524D01*
X150080407Y-88297813D01*
X150029759Y-88322933D01*
X149995404Y-88342179D01*
X149982518Y-88352848D01*
X149982514Y-88352934D01*
X149993872Y-88376166D01*
X150020431Y-88401774D01*
X150050923Y-88420221D01*
X150066370Y-88423886D01*
X150108515Y-88411212D01*
X150144808Y-88379471D01*
X150162517Y-88344572D01*
X150179552Y-88318845D01*
X150212922Y-88289546D01*
X150252149Y-88264235D01*
X150286756Y-88250471D01*
X150293993Y-88249714D01*
X150302139Y-88262160D01*
X150302630Y-88293972D01*
X150296643Y-88336866D01*
X150285357Y-88382558D01*
X150269950Y-88422761D01*
X150269171Y-88424322D01*
X150222804Y-88489062D01*
X150162711Y-88533097D01*
X150094465Y-88554711D01*
X150023638Y-88552185D01*
X149955804Y-88523804D01*
X149952788Y-88521808D01*
X149899427Y-88473448D01*
X149864340Y-88410352D01*
X149844922Y-88327387D01*
X149842316Y-88304078D01*
X149837701Y-88194055D01*
X149843233Y-88142748D01*
X149982514Y-88142748D01*
X149984324Y-88174753D01*
X149994222Y-88184093D01*
X150018898Y-88177105D01*
X150057795Y-88160587D01*
X150101275Y-88139881D01*
X150102356Y-88139333D01*
X150139209Y-88119949D01*
X150154000Y-88107013D01*
X150150353Y-88093451D01*
X150134995Y-88075632D01*
X150095923Y-88049845D01*
X150053846Y-88047950D01*
X150016103Y-88066717D01*
X149990034Y-88102915D01*
X149982514Y-88142748D01*
X149843233Y-88142748D01*
X149847194Y-88106027D01*
X149871550Y-88036212D01*
X149905456Y-87987302D01*
X149966653Y-87937878D01*
X150034063Y-87913359D01*
X150102880Y-87911797D01*
X150168303Y-87931239D01*
X150168303Y-87931239D01*
G37*
X150168303Y-87931239D02*
X150225527Y-87969735D01*
X150269749Y-88025335D01*
X150296167Y-88096086D01*
X150301510Y-88148162D01*
X150300903Y-88169893D01*
X150295822Y-88186531D01*
X150281855Y-88201437D01*
X150254589Y-88217973D01*
X150209612Y-88239498D01*
X150142511Y-88269374D01*
X150142171Y-88269524D01*
X150080407Y-88297813D01*
X150029759Y-88322933D01*
X149995404Y-88342179D01*
X149982518Y-88352848D01*
X149982514Y-88352934D01*
X149993872Y-88376166D01*
X150020431Y-88401774D01*
X150050923Y-88420221D01*
X150066370Y-88423886D01*
X150108515Y-88411212D01*
X150144808Y-88379471D01*
X150162517Y-88344572D01*
X150179552Y-88318845D01*
X150212922Y-88289546D01*
X150252149Y-88264235D01*
X150286756Y-88250471D01*
X150293993Y-88249714D01*
X150302139Y-88262160D01*
X150302630Y-88293972D01*
X150296643Y-88336866D01*
X150285357Y-88382558D01*
X150269950Y-88422761D01*
X150269171Y-88424322D01*
X150222804Y-88489062D01*
X150162711Y-88533097D01*
X150094465Y-88554711D01*
X150023638Y-88552185D01*
X149955804Y-88523804D01*
X149952788Y-88521808D01*
X149899427Y-88473448D01*
X149864340Y-88410352D01*
X149844922Y-88327387D01*
X149842316Y-88304078D01*
X149837701Y-88194055D01*
X149843233Y-88142748D01*
X149982514Y-88142748D01*
X149984324Y-88174753D01*
X149994222Y-88184093D01*
X150018898Y-88177105D01*
X150057795Y-88160587D01*
X150101275Y-88139881D01*
X150102356Y-88139333D01*
X150139209Y-88119949D01*
X150154000Y-88107013D01*
X150150353Y-88093451D01*
X150134995Y-88075632D01*
X150095923Y-88049845D01*
X150053846Y-88047950D01*
X150016103Y-88066717D01*
X149990034Y-88102915D01*
X149982514Y-88142748D01*
X149843233Y-88142748D01*
X149847194Y-88106027D01*
X149871550Y-88036212D01*
X149905456Y-87987302D01*
X149966653Y-87937878D01*
X150034063Y-87913359D01*
X150102880Y-87911797D01*
X150168303Y-87931239D01*
G36*
X149041115Y-87921962D02*
X149109145Y-87957733D01*
X149159351Y-88015301D01*
X149177185Y-88052312D01*
X149191063Y-88107882D01*
X149198167Y-88178096D01*
X149198840Y-88254727D01*
X149193427Y-88329552D01*
X149182270Y-88394342D01*
X149165714Y-88440873D01*
X149160626Y-88448887D01*
X149100355Y-88508707D01*
X149028769Y-88544535D01*
X148951092Y-88555020D01*
X148872548Y-88538810D01*
X148850689Y-88529092D01*
X148808122Y-88499143D01*
X148770763Y-88459433D01*
X148767232Y-88454397D01*
X148752881Y-88430124D01*
X148743394Y-88404178D01*
X148737790Y-88370022D01*
X148735086Y-88321119D01*
X148734299Y-88250935D01*
X148734286Y-88235200D01*
X148734322Y-88230192D01*
X148879429Y-88230192D01*
X148880273Y-88296430D01*
X148883596Y-88340386D01*
X148890583Y-88368779D01*
X148902416Y-88388325D01*
X148908457Y-88394857D01*
X148943186Y-88419680D01*
X148976903Y-88418548D01*
X149010995Y-88397016D01*
X149031329Y-88374029D01*
X149043371Y-88340478D01*
X149050134Y-88287569D01*
X149050598Y-88281399D01*
X149051752Y-88185513D01*
X149039688Y-88114299D01*
X149014570Y-88068194D01*
X148976560Y-88047635D01*
X148962992Y-88046514D01*
X148927364Y-88052152D01*
X148902994Y-88071686D01*
X148888093Y-88109042D01*
X148880875Y-88168150D01*
X148879429Y-88230192D01*
X148734322Y-88230192D01*
X148734826Y-88160413D01*
X148737096Y-88108159D01*
X148742068Y-88071949D01*
X148750713Y-88045299D01*
X148764005Y-88021722D01*
X148766943Y-88017338D01*
X148816313Y-87958249D01*
X148870109Y-87923947D01*
X148935602Y-87910331D01*
X148957842Y-87909665D01*
X149041115Y-87921962D01*
X149041115Y-87921962D01*
G37*
X149041115Y-87921962D02*
X149109145Y-87957733D01*
X149159351Y-88015301D01*
X149177185Y-88052312D01*
X149191063Y-88107882D01*
X149198167Y-88178096D01*
X149198840Y-88254727D01*
X149193427Y-88329552D01*
X149182270Y-88394342D01*
X149165714Y-88440873D01*
X149160626Y-88448887D01*
X149100355Y-88508707D01*
X149028769Y-88544535D01*
X148951092Y-88555020D01*
X148872548Y-88538810D01*
X148850689Y-88529092D01*
X148808122Y-88499143D01*
X148770763Y-88459433D01*
X148767232Y-88454397D01*
X148752881Y-88430124D01*
X148743394Y-88404178D01*
X148737790Y-88370022D01*
X148735086Y-88321119D01*
X148734299Y-88250935D01*
X148734286Y-88235200D01*
X148734322Y-88230192D01*
X148879429Y-88230192D01*
X148880273Y-88296430D01*
X148883596Y-88340386D01*
X148890583Y-88368779D01*
X148902416Y-88388325D01*
X148908457Y-88394857D01*
X148943186Y-88419680D01*
X148976903Y-88418548D01*
X149010995Y-88397016D01*
X149031329Y-88374029D01*
X149043371Y-88340478D01*
X149050134Y-88287569D01*
X149050598Y-88281399D01*
X149051752Y-88185513D01*
X149039688Y-88114299D01*
X149014570Y-88068194D01*
X148976560Y-88047635D01*
X148962992Y-88046514D01*
X148927364Y-88052152D01*
X148902994Y-88071686D01*
X148888093Y-88109042D01*
X148880875Y-88168150D01*
X148879429Y-88230192D01*
X148734322Y-88230192D01*
X148734826Y-88160413D01*
X148737096Y-88108159D01*
X148742068Y-88071949D01*
X148750713Y-88045299D01*
X148764005Y-88021722D01*
X148766943Y-88017338D01*
X148816313Y-87958249D01*
X148870109Y-87923947D01*
X148935602Y-87910331D01*
X148957842Y-87909665D01*
X149041115Y-87921962D01*
G36*
X150716093Y-87927780D02*
X150762672Y-87954723D01*
X150795057Y-87981466D01*
X150818742Y-88009484D01*
X150835059Y-88043748D01*
X150845339Y-88089227D01*
X150850914Y-88150892D01*
X150853116Y-88233711D01*
X150853371Y-88293246D01*
X150853371Y-88512391D01*
X150791686Y-88540044D01*
X150730000Y-88567697D01*
X150722743Y-88327670D01*
X150719744Y-88238028D01*
X150716598Y-88172962D01*
X150712701Y-88128026D01*
X150707447Y-88098770D01*
X150700231Y-88080748D01*
X150690450Y-88069511D01*
X150687312Y-88067079D01*
X150639761Y-88048083D01*
X150591697Y-88055600D01*
X150563086Y-88075543D01*
X150551447Y-88089675D01*
X150543391Y-88108220D01*
X150538271Y-88136334D01*
X150535441Y-88179173D01*
X150534256Y-88241895D01*
X150534057Y-88307261D01*
X150534018Y-88389268D01*
X150532614Y-88447316D01*
X150527914Y-88486465D01*
X150517987Y-88511780D01*
X150500903Y-88528323D01*
X150474732Y-88541156D01*
X150439775Y-88554491D01*
X150401596Y-88569007D01*
X150406141Y-88311389D01*
X150407971Y-88218519D01*
X150410112Y-88149889D01*
X150413181Y-88100711D01*
X150417794Y-88066198D01*
X150424568Y-88041562D01*
X150434119Y-88022016D01*
X150445634Y-88004770D01*
X150501190Y-87949680D01*
X150568980Y-87917822D01*
X150642713Y-87910191D01*
X150716093Y-87927780D01*
X150716093Y-87927780D01*
G37*
X150716093Y-87927780D02*
X150762672Y-87954723D01*
X150795057Y-87981466D01*
X150818742Y-88009484D01*
X150835059Y-88043748D01*
X150845339Y-88089227D01*
X150850914Y-88150892D01*
X150853116Y-88233711D01*
X150853371Y-88293246D01*
X150853371Y-88512391D01*
X150791686Y-88540044D01*
X150730000Y-88567697D01*
X150722743Y-88327670D01*
X150719744Y-88238028D01*
X150716598Y-88172962D01*
X150712701Y-88128026D01*
X150707447Y-88098770D01*
X150700231Y-88080748D01*
X150690450Y-88069511D01*
X150687312Y-88067079D01*
X150639761Y-88048083D01*
X150591697Y-88055600D01*
X150563086Y-88075543D01*
X150551447Y-88089675D01*
X150543391Y-88108220D01*
X150538271Y-88136334D01*
X150535441Y-88179173D01*
X150534256Y-88241895D01*
X150534057Y-88307261D01*
X150534018Y-88389268D01*
X150532614Y-88447316D01*
X150527914Y-88486465D01*
X150517987Y-88511780D01*
X150500903Y-88528323D01*
X150474732Y-88541156D01*
X150439775Y-88554491D01*
X150401596Y-88569007D01*
X150406141Y-88311389D01*
X150407971Y-88218519D01*
X150410112Y-88149889D01*
X150413181Y-88100711D01*
X150417794Y-88066198D01*
X150424568Y-88041562D01*
X150434119Y-88022016D01*
X150445634Y-88004770D01*
X150501190Y-87949680D01*
X150568980Y-87917822D01*
X150642713Y-87910191D01*
X150716093Y-87927780D01*
G36*
X149599744Y-87919918D02*
X149655201Y-87947568D01*
X149704148Y-87998480D01*
X149717629Y-88017338D01*
X149732314Y-88042015D01*
X149741842Y-88068816D01*
X149747293Y-88104587D01*
X149749747Y-88156169D01*
X149750286Y-88224267D01*
X149747852Y-88317588D01*
X149739394Y-88387657D01*
X149723174Y-88439931D01*
X149697454Y-88479869D01*
X149660497Y-88512929D01*
X149657782Y-88514886D01*
X149621360Y-88534908D01*
X149577502Y-88544815D01*
X149521724Y-88547257D01*
X149431048Y-88547257D01*
X149431010Y-88635283D01*
X149430166Y-88684308D01*
X149425024Y-88713065D01*
X149411587Y-88730311D01*
X149385858Y-88744808D01*
X149379679Y-88747769D01*
X149350764Y-88761648D01*
X149328376Y-88770414D01*
X149311729Y-88771171D01*
X149300036Y-88761023D01*
X149292510Y-88737073D01*
X149288366Y-88696426D01*
X149286815Y-88636186D01*
X149287071Y-88553455D01*
X149288349Y-88445339D01*
X149288748Y-88413000D01*
X149290185Y-88301524D01*
X149291472Y-88228603D01*
X149430971Y-88228603D01*
X149431755Y-88290499D01*
X149435240Y-88330997D01*
X149443124Y-88357708D01*
X149457105Y-88378244D01*
X149466597Y-88388260D01*
X149505404Y-88417567D01*
X149539763Y-88419952D01*
X149575216Y-88395750D01*
X149576114Y-88394857D01*
X149590539Y-88376153D01*
X149599313Y-88350732D01*
X149603739Y-88311584D01*
X149605118Y-88251697D01*
X149605143Y-88238430D01*
X149601812Y-88155901D01*
X149590969Y-88098691D01*
X149571340Y-88063766D01*
X149541650Y-88048094D01*
X149524491Y-88046514D01*
X149483766Y-88053926D01*
X149455832Y-88078330D01*
X149439017Y-88122980D01*
X149431650Y-88191130D01*
X149430971Y-88228603D01*
X149291472Y-88228603D01*
X149291708Y-88215245D01*
X149293677Y-88150333D01*
X149296450Y-88102958D01*
X149300388Y-88069290D01*
X149305849Y-88045498D01*
X149313192Y-88027753D01*
X149322777Y-88012224D01*
X149326887Y-88006381D01*
X149381405Y-87951185D01*
X149450336Y-87919890D01*
X149530072Y-87911165D01*
X149599744Y-87919918D01*
X149599744Y-87919918D01*
G37*
X149599744Y-87919918D02*
X149655201Y-87947568D01*
X149704148Y-87998480D01*
X149717629Y-88017338D01*
X149732314Y-88042015D01*
X149741842Y-88068816D01*
X149747293Y-88104587D01*
X149749747Y-88156169D01*
X149750286Y-88224267D01*
X149747852Y-88317588D01*
X149739394Y-88387657D01*
X149723174Y-88439931D01*
X149697454Y-88479869D01*
X149660497Y-88512929D01*
X149657782Y-88514886D01*
X149621360Y-88534908D01*
X149577502Y-88544815D01*
X149521724Y-88547257D01*
X149431048Y-88547257D01*
X149431010Y-88635283D01*
X149430166Y-88684308D01*
X149425024Y-88713065D01*
X149411587Y-88730311D01*
X149385858Y-88744808D01*
X149379679Y-88747769D01*
X149350764Y-88761648D01*
X149328376Y-88770414D01*
X149311729Y-88771171D01*
X149300036Y-88761023D01*
X149292510Y-88737073D01*
X149288366Y-88696426D01*
X149286815Y-88636186D01*
X149287071Y-88553455D01*
X149288349Y-88445339D01*
X149288748Y-88413000D01*
X149290185Y-88301524D01*
X149291472Y-88228603D01*
X149430971Y-88228603D01*
X149431755Y-88290499D01*
X149435240Y-88330997D01*
X149443124Y-88357708D01*
X149457105Y-88378244D01*
X149466597Y-88388260D01*
X149505404Y-88417567D01*
X149539763Y-88419952D01*
X149575216Y-88395750D01*
X149576114Y-88394857D01*
X149590539Y-88376153D01*
X149599313Y-88350732D01*
X149603739Y-88311584D01*
X149605118Y-88251697D01*
X149605143Y-88238430D01*
X149601812Y-88155901D01*
X149590969Y-88098691D01*
X149571340Y-88063766D01*
X149541650Y-88048094D01*
X149524491Y-88046514D01*
X149483766Y-88053926D01*
X149455832Y-88078330D01*
X149439017Y-88122980D01*
X149431650Y-88191130D01*
X149430971Y-88228603D01*
X149291472Y-88228603D01*
X149291708Y-88215245D01*
X149293677Y-88150333D01*
X149296450Y-88102958D01*
X149300388Y-88069290D01*
X149305849Y-88045498D01*
X149313192Y-88027753D01*
X149322777Y-88012224D01*
X149326887Y-88006381D01*
X149381405Y-87951185D01*
X149450336Y-87919890D01*
X149530072Y-87911165D01*
X149599744Y-87919918D01*
D11*
G04 #@! TO.C,U2*
X159974600Y-95000000D02*
G75*
G03X159974600Y-95000000I-1974600J0D01*
G01*
X156277000Y-92330000D02*
X155427000Y-93180000D01*
X157127000Y-93180000D02*
X156277000Y-92330000D01*
X156277000Y-94030000D02*
X155427000Y-93180000D01*
X163207000Y-95000000D02*
G75*
G03X163207000Y-95000000I-5207000J0D01*
G01*
G04 #@! TO.C,RN1*
X173000000Y-101300000D02*
X173000000Y-104100000D01*
X180800000Y-101300000D02*
X173000000Y-101300000D01*
X180800000Y-104100000D02*
X180800000Y-101300000D01*
X173000000Y-104100000D02*
X180800000Y-104100000D01*
G04 #@! TO.C,C1*
X181510000Y-94002064D02*
X181510000Y-92797936D01*
X179690000Y-94002064D02*
X179690000Y-92797936D01*
G04 #@! TO.C,C2*
X170610000Y-96402064D02*
X170610000Y-95197936D01*
X168790000Y-96402064D02*
X168790000Y-95197936D01*
G04 #@! TO.C,C3*
X176602064Y-98690000D02*
X175397936Y-98690000D01*
X176602064Y-100510000D02*
X175397936Y-100510000D01*
G04 #@! TO.C,R2*
X171610000Y-101162779D02*
X171610000Y-100837221D01*
X170590000Y-101162779D02*
X170590000Y-100837221D01*
G04 #@! TO.C,U1*
X163300000Y-87160000D02*
X164700000Y-87160000D01*
X164700000Y-84840000D02*
X162800000Y-84840000D01*
D10*
G04 #@! TO.C,U3*
X173225000Y-93075000D02*
X171825000Y-93075000D01*
X173225000Y-98175000D02*
X177375000Y-98175000D01*
X173225000Y-93025000D02*
X177375000Y-93025000D01*
X173225000Y-98175000D02*
X173225000Y-98030000D01*
X177375000Y-98175000D02*
X177375000Y-98030000D01*
X177375000Y-93025000D02*
X177375000Y-93170000D01*
X173225000Y-93025000D02*
X173225000Y-93075000D01*
G04 #@! TO.C,R1*
X169033333Y-105152380D02*
X168700000Y-104676190D01*
X168461904Y-105152380D02*
X168461904Y-104152380D01*
X168842857Y-104152380D01*
X168938095Y-104200000D01*
X168985714Y-104247619D01*
X169033333Y-104342857D01*
X169033333Y-104485714D01*
X168985714Y-104580952D01*
X168938095Y-104628571D01*
X168842857Y-104676190D01*
X168461904Y-104676190D01*
X169985714Y-105152380D02*
X169414285Y-105152380D01*
X169700000Y-105152380D02*
X169700000Y-104152380D01*
X169604761Y-104295238D01*
X169509523Y-104390476D01*
X169414285Y-104438095D01*
G04 #@! TO.C,U2*
X157238095Y-85552380D02*
X157238095Y-86361904D01*
X157285714Y-86457142D01*
X157333333Y-86504761D01*
X157428571Y-86552380D01*
X157619047Y-86552380D01*
X157714285Y-86504761D01*
X157761904Y-86457142D01*
X157809523Y-86361904D01*
X157809523Y-85552380D01*
X158238095Y-85647619D02*
X158285714Y-85600000D01*
X158380952Y-85552380D01*
X158619047Y-85552380D01*
X158714285Y-85600000D01*
X158761904Y-85647619D01*
X158809523Y-85742857D01*
X158809523Y-85838095D01*
X158761904Y-85980952D01*
X158190476Y-86552380D01*
X158809523Y-86552380D01*
G04 #@! TO.C,RN1*
X178009523Y-106352380D02*
X177676190Y-105876190D01*
X177438095Y-106352380D02*
X177438095Y-105352380D01*
X177819047Y-105352380D01*
X177914285Y-105400000D01*
X177961904Y-105447619D01*
X178009523Y-105542857D01*
X178009523Y-105685714D01*
X177961904Y-105780952D01*
X177914285Y-105828571D01*
X177819047Y-105876190D01*
X177438095Y-105876190D01*
X178438095Y-106352380D02*
X178438095Y-105352380D01*
X179009523Y-106352380D01*
X179009523Y-105352380D01*
X180009523Y-106352380D02*
X179438095Y-106352380D01*
X179723809Y-106352380D02*
X179723809Y-105352380D01*
X179628571Y-105495238D01*
X179533333Y-105590476D01*
X179438095Y-105638095D01*
G04 #@! TO.C,C1*
X180433333Y-97257142D02*
X180385714Y-97304761D01*
X180242857Y-97352380D01*
X180147619Y-97352380D01*
X180004761Y-97304761D01*
X179909523Y-97209523D01*
X179861904Y-97114285D01*
X179814285Y-96923809D01*
X179814285Y-96780952D01*
X179861904Y-96590476D01*
X179909523Y-96495238D01*
X180004761Y-96400000D01*
X180147619Y-96352380D01*
X180242857Y-96352380D01*
X180385714Y-96400000D01*
X180433333Y-96447619D01*
X181385714Y-97352380D02*
X180814285Y-97352380D01*
X181100000Y-97352380D02*
X181100000Y-96352380D01*
X181004761Y-96495238D01*
X180909523Y-96590476D01*
X180814285Y-96638095D01*
G04 #@! TO.C,C2*
X169533333Y-92557142D02*
X169485714Y-92604761D01*
X169342857Y-92652380D01*
X169247619Y-92652380D01*
X169104761Y-92604761D01*
X169009523Y-92509523D01*
X168961904Y-92414285D01*
X168914285Y-92223809D01*
X168914285Y-92080952D01*
X168961904Y-91890476D01*
X169009523Y-91795238D01*
X169104761Y-91700000D01*
X169247619Y-91652380D01*
X169342857Y-91652380D01*
X169485714Y-91700000D01*
X169533333Y-91747619D01*
X169914285Y-91747619D02*
X169961904Y-91700000D01*
X170057142Y-91652380D01*
X170295238Y-91652380D01*
X170390476Y-91700000D01*
X170438095Y-91747619D01*
X170485714Y-91842857D01*
X170485714Y-91938095D01*
X170438095Y-92080952D01*
X169866666Y-92652380D01*
X170485714Y-92652380D01*
G04 #@! TO.C,C3*
X179933333Y-99957142D02*
X179885714Y-100004761D01*
X179742857Y-100052380D01*
X179647619Y-100052380D01*
X179504761Y-100004761D01*
X179409523Y-99909523D01*
X179361904Y-99814285D01*
X179314285Y-99623809D01*
X179314285Y-99480952D01*
X179361904Y-99290476D01*
X179409523Y-99195238D01*
X179504761Y-99100000D01*
X179647619Y-99052380D01*
X179742857Y-99052380D01*
X179885714Y-99100000D01*
X179933333Y-99147619D01*
X180266666Y-99052380D02*
X180885714Y-99052380D01*
X180552380Y-99433333D01*
X180695238Y-99433333D01*
X180790476Y-99480952D01*
X180838095Y-99528571D01*
X180885714Y-99623809D01*
X180885714Y-99861904D01*
X180838095Y-99957142D01*
X180790476Y-100004761D01*
X180695238Y-100052380D01*
X180409523Y-100052380D01*
X180314285Y-100004761D01*
X180266666Y-99957142D01*
G04 #@! TO.C,R2*
X169033333Y-101452380D02*
X168700000Y-100976190D01*
X168461904Y-101452380D02*
X168461904Y-100452380D01*
X168842857Y-100452380D01*
X168938095Y-100500000D01*
X168985714Y-100547619D01*
X169033333Y-100642857D01*
X169033333Y-100785714D01*
X168985714Y-100880952D01*
X168938095Y-100928571D01*
X168842857Y-100976190D01*
X168461904Y-100976190D01*
X169414285Y-100547619D02*
X169461904Y-100500000D01*
X169557142Y-100452380D01*
X169795238Y-100452380D01*
X169890476Y-100500000D01*
X169938095Y-100547619D01*
X169985714Y-100642857D01*
X169985714Y-100738095D01*
X169938095Y-100880952D01*
X169366666Y-101452380D01*
X169985714Y-101452380D01*
G04 #@! TO.C,U1*
X163238095Y-83452380D02*
X163238095Y-84261904D01*
X163285714Y-84357142D01*
X163333333Y-84404761D01*
X163428571Y-84452380D01*
X163619047Y-84452380D01*
X163714285Y-84404761D01*
X163761904Y-84357142D01*
X163809523Y-84261904D01*
X163809523Y-83452380D01*
X164809523Y-84452380D02*
X164238095Y-84452380D01*
X164523809Y-84452380D02*
X164523809Y-83452380D01*
X164428571Y-83595238D01*
X164333333Y-83690476D01*
X164238095Y-83738095D01*
G04 #@! TO.C,U3*
X174538095Y-91552380D02*
X174538095Y-92361904D01*
X174585714Y-92457142D01*
X174633333Y-92504761D01*
X174728571Y-92552380D01*
X174919047Y-92552380D01*
X175014285Y-92504761D01*
X175061904Y-92457142D01*
X175109523Y-92361904D01*
X175109523Y-91552380D01*
X175490476Y-91552380D02*
X176109523Y-91552380D01*
X175776190Y-91933333D01*
X175919047Y-91933333D01*
X176014285Y-91980952D01*
X176061904Y-92028571D01*
X176109523Y-92123809D01*
X176109523Y-92361904D01*
X176061904Y-92457142D01*
X176014285Y-92504761D01*
X175919047Y-92552380D01*
X175633333Y-92552380D01*
X175538095Y-92504761D01*
X175490476Y-92457142D01*
G04 #@! TD*
M02*
