G04 #@! TF.GenerationSoftware,KiCad,Pcbnew,(2017-06-16 revision 2018d4894)-master*
G04 #@! TF.CreationDate,2018-01-06T04:43:58+01:00*
G04 #@! TF.ProjectId,reference_board,7265666572656E63655F626F6172642E,rev?*
G04 #@! TF.SameCoordinates,Original
G04 #@! TF.FileFunction,Soldermask,Top*
G04 #@! TF.FilePolarity,Negative*
%FSLAX46Y46*%
G04 Gerber Fmt 4.6, Leading zero omitted, Abs format (unit mm)*
G04 Created by KiCad (PCBNEW (2017-06-16 revision 2018d4894)-master) date Sat Jan  6 04:43:58 2018*
%MOMM*%
%LPD*%
G01*
G04 APERTURE LIST*
%ADD10C,0.100000*%
%ADD11C,1.500000*%
%ADD12R,1.400000X2.000000*%
%ADD13R,1.000000X1.950000*%
%ADD14R,2.100000X2.100000*%
%ADD15O,2.100000X2.100000*%
%ADD16R,1.700000X1.100000*%
%ADD17R,1.300000X0.900000*%
%ADD18R,1.900000X1.900000*%
%ADD19C,1.900000*%
%ADD20R,2.000000X1.400000*%
%ADD21R,1.230000X1.590000*%
%ADD22R,1.100000X0.650000*%
G04 APERTURE END LIST*
D10*
D11*
X150000000Y-96270000D03*
X150000000Y-93730000D03*
X151270000Y-95000000D03*
X148730000Y-95000000D03*
D12*
X176800000Y-98900000D03*
X173800000Y-98900000D03*
D13*
X160147000Y-93505000D03*
X161417000Y-93505000D03*
X162687000Y-93505000D03*
X163957000Y-93505000D03*
X163957000Y-88105000D03*
X162687000Y-88105000D03*
X161417000Y-88105000D03*
X160147000Y-88105000D03*
D14*
X179000000Y-86000000D03*
D15*
X179000000Y-88540000D03*
X176460000Y-86000000D03*
X176460000Y-88540000D03*
X173920000Y-86000000D03*
X173920000Y-88540000D03*
X171380000Y-86000000D03*
X171380000Y-88540000D03*
D16*
X171100000Y-103750000D03*
X171100000Y-105650000D03*
D17*
X171100000Y-95550000D03*
X171100000Y-97050000D03*
D18*
X174360000Y-102100000D03*
D19*
X176900000Y-102100000D03*
X179440000Y-102100000D03*
D20*
X179400000Y-92300000D03*
X179400000Y-95300000D03*
D12*
X174400000Y-92700000D03*
X171400000Y-92700000D03*
D21*
X174885000Y-95005000D03*
X174885000Y-96195000D03*
X175715000Y-95005000D03*
X175715000Y-96195000D03*
D22*
X176700000Y-94850000D03*
X176700000Y-95350000D03*
X176700000Y-95850000D03*
X176700000Y-96350000D03*
X173900000Y-96350000D03*
X173900000Y-95850000D03*
X173900000Y-95350000D03*
X173900000Y-94850000D03*
M02*
