G04 #@! TF.GenerationSoftware,KiCad,Pcbnew,(6.0.4)*
G04 #@! TF.CreationDate,2022-04-17T03:50:03+02:00*
G04 #@! TF.ProjectId,reference_board,72656665-7265-46e6-9365-5f626f617264,v3.4.0*
G04 #@! TF.SameCoordinates,Original*
G04 #@! TF.FileFunction,Soldermask,Top*
G04 #@! TF.FilePolarity,Negative*
%FSLAX46Y46*%
G04 Gerber Fmt 4.6, Leading zero omitted, Abs format (unit mm)*
G04 Created by KiCad (PCBNEW (6.0.4)) date 2022-04-17 03:50:03*
%MOMM*%
%LPD*%
G01*
G04 APERTURE LIST*
G04 Aperture macros list*
%AMRoundRect*
0 Rectangle with rounded corners*
0 $1 Rounding radius*
0 $2 $3 $4 $5 $6 $7 $8 $9 X,Y pos of 4 corners*
0 Add a 4 corners polygon primitive as box body*
4,1,4,$2,$3,$4,$5,$6,$7,$8,$9,$2,$3,0*
0 Add four circle primitives for the rounded corners*
1,1,$1+$1,$2,$3*
1,1,$1+$1,$4,$5*
1,1,$1+$1,$6,$7*
1,1,$1+$1,$8,$9*
0 Add four rect primitives between the rounded corners*
20,1,$1+$1,$2,$3,$4,$5,0*
20,1,$1+$1,$4,$5,$6,$7,0*
20,1,$1+$1,$6,$7,$8,$9,0*
20,1,$1+$1,$8,$9,$2,$3,0*%
G04 Aperture macros list end*
%ADD10RoundRect,0.225000X0.250000X-0.225000X0.250000X0.225000X-0.250000X0.225000X-0.250000X-0.225000X0*%
%ADD11RoundRect,0.225000X0.225000X0.250000X-0.225000X0.250000X-0.225000X-0.250000X0.225000X-0.250000X0*%
%ADD12R,0.650000X0.400000*%
%ADD13R,1.500000X1.500000*%
%ADD14C,1.500000*%
%ADD15C,4.700000*%
%ADD16R,1.200000X0.900000*%
%ADD17O,1.600000X1.200000*%
%ADD18C,1.200000*%
%ADD19RoundRect,0.200000X0.275000X-0.200000X0.275000X0.200000X-0.275000X0.200000X-0.275000X-0.200000X0*%
%ADD20RoundRect,0.225000X-0.225000X-0.250000X0.225000X-0.250000X0.225000X0.250000X-0.225000X0.250000X0*%
%ADD21RoundRect,0.150000X-0.825000X-0.150000X0.825000X-0.150000X0.825000X0.150000X-0.825000X0.150000X0*%
%ADD22RoundRect,0.250000X0.450000X-0.262500X0.450000X0.262500X-0.450000X0.262500X-0.450000X-0.262500X0*%
%ADD23R,1.700000X1.700000*%
%ADD24O,1.700000X1.700000*%
G04 APERTURE END LIST*
D10*
X121250000Y-61275000D03*
X121250000Y-59725000D03*
D11*
X129775000Y-66500000D03*
X128225000Y-66500000D03*
D12*
X114050000Y-52350000D03*
X114050000Y-53000000D03*
X114050000Y-53650000D03*
X115950000Y-53650000D03*
X115950000Y-52350000D03*
D13*
X125360000Y-69700000D03*
D14*
X127900000Y-69700000D03*
X130440000Y-69700000D03*
D15*
X104000000Y-72000000D03*
D10*
X119800000Y-52475000D03*
X119800000Y-50925000D03*
D16*
X132000000Y-65650000D03*
X132000000Y-62350000D03*
D10*
X131250000Y-60275000D03*
X131250000Y-58725000D03*
D17*
X107700000Y-62000000D03*
D18*
X108970000Y-63270000D03*
X110240000Y-62000000D03*
X108970000Y-60730000D03*
D19*
X121500000Y-68825000D03*
X121500000Y-67175000D03*
D20*
X123225000Y-66500000D03*
X124775000Y-66500000D03*
D21*
X123825000Y-59795000D03*
X123825000Y-61065000D03*
X123825000Y-62335000D03*
X123825000Y-63605000D03*
X128775000Y-63605000D03*
X128775000Y-62335000D03*
X128775000Y-61065000D03*
X128775000Y-59795000D03*
D22*
X122100000Y-72612500D03*
X122100000Y-70787500D03*
D23*
X130000000Y-53000000D03*
D24*
X130000000Y-55540000D03*
X127460000Y-53000000D03*
X127460000Y-55540000D03*
X124920000Y-53000000D03*
X124920000Y-55540000D03*
X122380000Y-53000000D03*
X122380000Y-55540000D03*
M02*
