G04 #@! TF.GenerationSoftware,KiCad,Pcbnew,5.1.5*
G04 #@! TF.CreationDate,2020-02-06T16:59:33+01:00*
G04 #@! TF.ProjectId,reference_board,72656665-7265-46e6-9365-5f626f617264,v3.2.1*
G04 #@! TF.SameCoordinates,Original*
G04 #@! TF.FileFunction,Soldermask,Bot*
G04 #@! TF.FilePolarity,Negative*
%FSLAX46Y46*%
G04 Gerber Fmt 4.6, Leading zero omitted, Abs format (unit mm)*
G04 Created by KiCad (PCBNEW 5.1.5) date 2020-02-06 16:59:33*
%MOMM*%
%LPD*%
G04 APERTURE LIST*
%ADD10C,0.100000*%
G04 APERTURE END LIST*
D10*
G36*
X153497480Y-102498998D02*
G01*
X153743807Y-102547995D01*
X154207878Y-102740220D01*
X154625530Y-103019286D01*
X154980714Y-103374470D01*
X155259780Y-103792122D01*
X155452005Y-104256193D01*
X155550000Y-104748847D01*
X155550000Y-105251153D01*
X155452005Y-105743807D01*
X155259780Y-106207878D01*
X154980714Y-106625530D01*
X154625530Y-106980714D01*
X154207878Y-107259780D01*
X153743807Y-107452005D01*
X153497480Y-107501003D01*
X153251154Y-107550000D01*
X152748846Y-107550000D01*
X152502520Y-107501003D01*
X152256193Y-107452005D01*
X151792122Y-107259780D01*
X151374470Y-106980714D01*
X151019286Y-106625530D01*
X150740220Y-106207878D01*
X150547995Y-105743807D01*
X150450000Y-105251153D01*
X150450000Y-104748847D01*
X150547995Y-104256193D01*
X150740220Y-103792122D01*
X151019286Y-103374470D01*
X151374470Y-103019286D01*
X151792122Y-102740220D01*
X152256193Y-102547995D01*
X152502520Y-102498998D01*
X152748846Y-102450000D01*
X153251154Y-102450000D01*
X153497480Y-102498998D01*
G37*
G36*
X179625336Y-101768254D02*
G01*
X179717105Y-101786508D01*
X179889994Y-101858121D01*
X180045590Y-101962087D01*
X180177913Y-102094410D01*
X180281879Y-102250006D01*
X180353492Y-102422895D01*
X180390000Y-102606433D01*
X180390000Y-102793567D01*
X180353492Y-102977105D01*
X180281879Y-103149994D01*
X180177913Y-103305590D01*
X180045590Y-103437913D01*
X179889994Y-103541879D01*
X179717105Y-103613492D01*
X179625336Y-103631746D01*
X179533568Y-103650000D01*
X179346432Y-103650000D01*
X179254664Y-103631746D01*
X179162895Y-103613492D01*
X178990006Y-103541879D01*
X178834410Y-103437913D01*
X178702087Y-103305590D01*
X178598121Y-103149994D01*
X178526508Y-102977105D01*
X178490000Y-102793567D01*
X178490000Y-102606433D01*
X178526508Y-102422895D01*
X178598121Y-102250006D01*
X178702087Y-102094410D01*
X178834410Y-101962087D01*
X178990006Y-101858121D01*
X179162895Y-101786508D01*
X179254664Y-101768254D01*
X179346432Y-101750000D01*
X179533568Y-101750000D01*
X179625336Y-101768254D01*
G37*
G36*
X177085336Y-101768254D02*
G01*
X177177105Y-101786508D01*
X177349994Y-101858121D01*
X177505590Y-101962087D01*
X177637913Y-102094410D01*
X177741879Y-102250006D01*
X177813492Y-102422895D01*
X177850000Y-102606433D01*
X177850000Y-102793567D01*
X177813492Y-102977105D01*
X177741879Y-103149994D01*
X177637913Y-103305590D01*
X177505590Y-103437913D01*
X177349994Y-103541879D01*
X177177105Y-103613492D01*
X177085336Y-103631746D01*
X176993568Y-103650000D01*
X176806432Y-103650000D01*
X176714664Y-103631746D01*
X176622895Y-103613492D01*
X176450006Y-103541879D01*
X176294410Y-103437913D01*
X176162087Y-103305590D01*
X176058121Y-103149994D01*
X175986508Y-102977105D01*
X175950000Y-102793567D01*
X175950000Y-102606433D01*
X175986508Y-102422895D01*
X176058121Y-102250006D01*
X176162087Y-102094410D01*
X176294410Y-101962087D01*
X176450006Y-101858121D01*
X176622895Y-101786508D01*
X176714664Y-101768254D01*
X176806432Y-101750000D01*
X176993568Y-101750000D01*
X177085336Y-101768254D01*
G37*
G36*
X175310000Y-103650000D02*
G01*
X173410000Y-103650000D01*
X173410000Y-101750000D01*
X175310000Y-101750000D01*
X175310000Y-103650000D01*
G37*
G36*
X158203351Y-92960743D02*
G01*
X158348941Y-93021048D01*
X158479970Y-93108599D01*
X158591401Y-93220030D01*
X158678952Y-93351059D01*
X158739257Y-93496649D01*
X158770000Y-93651206D01*
X158770000Y-93808794D01*
X158739257Y-93963351D01*
X158678951Y-94108943D01*
X158661376Y-94135246D01*
X158649825Y-94156856D01*
X158642712Y-94180305D01*
X158640310Y-94204692D01*
X158642712Y-94229078D01*
X158649825Y-94252527D01*
X158661376Y-94274137D01*
X158676922Y-94293079D01*
X158695864Y-94308624D01*
X158717474Y-94320175D01*
X158740923Y-94327288D01*
X158765310Y-94329690D01*
X158789696Y-94327288D01*
X158813145Y-94320175D01*
X158834754Y-94308624D01*
X158861057Y-94291049D01*
X159006649Y-94230743D01*
X159161206Y-94200000D01*
X159318794Y-94200000D01*
X159473351Y-94230743D01*
X159618941Y-94291048D01*
X159749970Y-94378599D01*
X159861401Y-94490030D01*
X159948952Y-94621059D01*
X160009257Y-94766649D01*
X160040000Y-94921206D01*
X160040000Y-95078794D01*
X160009257Y-95233351D01*
X159948952Y-95378941D01*
X159861401Y-95509970D01*
X159749970Y-95621401D01*
X159618941Y-95708952D01*
X159473351Y-95769257D01*
X159318794Y-95800000D01*
X159161206Y-95800000D01*
X159006649Y-95769257D01*
X158861057Y-95708951D01*
X158834754Y-95691376D01*
X158813144Y-95679825D01*
X158789695Y-95672712D01*
X158765308Y-95670310D01*
X158740922Y-95672712D01*
X158717473Y-95679825D01*
X158695863Y-95691376D01*
X158676921Y-95706922D01*
X158661376Y-95725864D01*
X158649825Y-95747474D01*
X158642712Y-95770923D01*
X158640310Y-95795310D01*
X158642712Y-95819696D01*
X158649825Y-95843145D01*
X158661376Y-95864754D01*
X158678951Y-95891057D01*
X158739257Y-96036649D01*
X158770000Y-96191206D01*
X158770000Y-96348794D01*
X158739257Y-96503351D01*
X158678952Y-96648941D01*
X158591401Y-96779970D01*
X158479970Y-96891401D01*
X158348941Y-96978952D01*
X158203351Y-97039257D01*
X158048794Y-97070000D01*
X157891206Y-97070000D01*
X157736649Y-97039257D01*
X157591059Y-96978952D01*
X157460030Y-96891401D01*
X157348599Y-96779970D01*
X157261048Y-96648941D01*
X157200743Y-96503351D01*
X157170000Y-96348794D01*
X157170000Y-96191206D01*
X157200743Y-96036649D01*
X157237880Y-95946992D01*
X157244993Y-95923543D01*
X157247395Y-95899157D01*
X157244993Y-95874770D01*
X157237880Y-95851322D01*
X157226329Y-95829711D01*
X157210783Y-95810769D01*
X157191841Y-95795224D01*
X157170231Y-95783673D01*
X157146782Y-95776560D01*
X157122396Y-95774158D01*
X157086116Y-95779539D01*
X157056827Y-95788424D01*
X156987785Y-95795224D01*
X156939294Y-95800000D01*
X156460706Y-95800000D01*
X156412215Y-95795224D01*
X156343173Y-95788424D01*
X156192372Y-95742679D01*
X156192370Y-95742678D01*
X156053395Y-95668394D01*
X155931578Y-95568422D01*
X155831606Y-95446605D01*
X155757322Y-95307630D01*
X155757321Y-95307628D01*
X155711576Y-95156827D01*
X155696130Y-95000000D01*
X155711576Y-94843173D01*
X155757321Y-94692372D01*
X155790914Y-94629523D01*
X157625821Y-94629523D01*
X157628223Y-94653909D01*
X157635336Y-94677358D01*
X157640581Y-94688447D01*
X157642679Y-94692372D01*
X157688424Y-94843173D01*
X157703870Y-95000000D01*
X157688424Y-95156827D01*
X157642679Y-95307628D01*
X157640582Y-95311551D01*
X157631204Y-95334190D01*
X157626423Y-95358223D01*
X157626423Y-95382727D01*
X157631203Y-95406760D01*
X157640580Y-95429399D01*
X157654193Y-95449774D01*
X157671520Y-95467101D01*
X157691894Y-95480715D01*
X157714533Y-95490093D01*
X157738566Y-95494874D01*
X157763070Y-95494874D01*
X157775199Y-95493075D01*
X157867628Y-95474690D01*
X157891206Y-95470000D01*
X158048794Y-95470000D01*
X158203351Y-95500743D01*
X158348943Y-95561049D01*
X158375246Y-95578624D01*
X158396856Y-95590175D01*
X158420305Y-95597288D01*
X158444692Y-95599690D01*
X158469078Y-95597288D01*
X158492527Y-95590175D01*
X158514137Y-95578624D01*
X158533079Y-95563078D01*
X158548624Y-95544136D01*
X158560175Y-95522526D01*
X158567288Y-95499077D01*
X158569690Y-95474690D01*
X158567288Y-95450304D01*
X158560175Y-95426855D01*
X158548624Y-95405246D01*
X158531049Y-95378943D01*
X158470743Y-95233351D01*
X158440000Y-95078794D01*
X158440000Y-94921206D01*
X158470743Y-94766649D01*
X158531049Y-94621057D01*
X158548624Y-94594754D01*
X158560175Y-94573144D01*
X158567288Y-94549695D01*
X158569690Y-94525308D01*
X158567288Y-94500922D01*
X158560175Y-94477473D01*
X158548624Y-94455863D01*
X158533078Y-94436921D01*
X158514136Y-94421376D01*
X158492526Y-94409825D01*
X158469077Y-94402712D01*
X158444690Y-94400310D01*
X158420304Y-94402712D01*
X158396855Y-94409825D01*
X158375246Y-94421376D01*
X158348943Y-94438951D01*
X158203351Y-94499257D01*
X158048794Y-94530000D01*
X157891206Y-94530000D01*
X157848391Y-94521483D01*
X157775203Y-94506926D01*
X157750820Y-94504524D01*
X157726434Y-94506926D01*
X157702985Y-94514039D01*
X157681374Y-94525590D01*
X157662432Y-94541135D01*
X157646887Y-94560077D01*
X157635336Y-94581688D01*
X157628223Y-94605137D01*
X157625821Y-94629523D01*
X155790914Y-94629523D01*
X155795440Y-94621057D01*
X155831606Y-94553395D01*
X155931578Y-94431578D01*
X156053395Y-94331606D01*
X156192370Y-94257322D01*
X156192372Y-94257321D01*
X156343173Y-94211576D01*
X156421529Y-94203859D01*
X156460706Y-94200000D01*
X156939294Y-94200000D01*
X156978471Y-94203859D01*
X157056827Y-94211576D01*
X157086119Y-94220462D01*
X157110144Y-94225240D01*
X157134648Y-94225240D01*
X157158681Y-94220460D01*
X157181320Y-94211082D01*
X157201694Y-94197469D01*
X157219021Y-94180142D01*
X157232635Y-94159767D01*
X157242013Y-94137128D01*
X157246793Y-94113095D01*
X157246793Y-94088591D01*
X157237880Y-94053008D01*
X157200743Y-93963351D01*
X157170000Y-93808794D01*
X157170000Y-93651206D01*
X157200743Y-93496649D01*
X157261048Y-93351059D01*
X157348599Y-93220030D01*
X157460030Y-93108599D01*
X157591059Y-93021048D01*
X157736649Y-92960743D01*
X157891206Y-92930000D01*
X158048794Y-92930000D01*
X158203351Y-92960743D01*
G37*
G36*
X171508687Y-87495027D02*
G01*
X171686274Y-87530350D01*
X171877362Y-87609502D01*
X172049336Y-87724411D01*
X172195589Y-87870664D01*
X172310498Y-88042638D01*
X172389650Y-88233726D01*
X172430000Y-88436584D01*
X172430000Y-88643416D01*
X172389650Y-88846274D01*
X172310498Y-89037362D01*
X172195589Y-89209336D01*
X172049336Y-89355589D01*
X171877362Y-89470498D01*
X171686274Y-89549650D01*
X171508687Y-89584973D01*
X171483417Y-89590000D01*
X171276583Y-89590000D01*
X171251313Y-89584973D01*
X171073726Y-89549650D01*
X170882638Y-89470498D01*
X170710664Y-89355589D01*
X170564411Y-89209336D01*
X170449502Y-89037362D01*
X170370350Y-88846274D01*
X170330000Y-88643416D01*
X170330000Y-88436584D01*
X170370350Y-88233726D01*
X170449502Y-88042638D01*
X170564411Y-87870664D01*
X170710664Y-87724411D01*
X170882638Y-87609502D01*
X171073726Y-87530350D01*
X171251313Y-87495027D01*
X171276583Y-87490000D01*
X171483417Y-87490000D01*
X171508687Y-87495027D01*
G37*
G36*
X174048687Y-87495027D02*
G01*
X174226274Y-87530350D01*
X174417362Y-87609502D01*
X174589336Y-87724411D01*
X174735589Y-87870664D01*
X174850498Y-88042638D01*
X174929650Y-88233726D01*
X174970000Y-88436584D01*
X174970000Y-88643416D01*
X174929650Y-88846274D01*
X174850498Y-89037362D01*
X174735589Y-89209336D01*
X174589336Y-89355589D01*
X174417362Y-89470498D01*
X174226274Y-89549650D01*
X174048687Y-89584973D01*
X174023417Y-89590000D01*
X173816583Y-89590000D01*
X173791313Y-89584973D01*
X173613726Y-89549650D01*
X173422638Y-89470498D01*
X173250664Y-89355589D01*
X173104411Y-89209336D01*
X172989502Y-89037362D01*
X172910350Y-88846274D01*
X172870000Y-88643416D01*
X172870000Y-88436584D01*
X172910350Y-88233726D01*
X172989502Y-88042638D01*
X173104411Y-87870664D01*
X173250664Y-87724411D01*
X173422638Y-87609502D01*
X173613726Y-87530350D01*
X173791313Y-87495027D01*
X173816583Y-87490000D01*
X174023417Y-87490000D01*
X174048687Y-87495027D01*
G37*
G36*
X176588687Y-87495027D02*
G01*
X176766274Y-87530350D01*
X176957362Y-87609502D01*
X177129336Y-87724411D01*
X177275589Y-87870664D01*
X177390498Y-88042638D01*
X177469650Y-88233726D01*
X177510000Y-88436584D01*
X177510000Y-88643416D01*
X177469650Y-88846274D01*
X177390498Y-89037362D01*
X177275589Y-89209336D01*
X177129336Y-89355589D01*
X176957362Y-89470498D01*
X176766274Y-89549650D01*
X176588687Y-89584973D01*
X176563417Y-89590000D01*
X176356583Y-89590000D01*
X176331313Y-89584973D01*
X176153726Y-89549650D01*
X175962638Y-89470498D01*
X175790664Y-89355589D01*
X175644411Y-89209336D01*
X175529502Y-89037362D01*
X175450350Y-88846274D01*
X175410000Y-88643416D01*
X175410000Y-88436584D01*
X175450350Y-88233726D01*
X175529502Y-88042638D01*
X175644411Y-87870664D01*
X175790664Y-87724411D01*
X175962638Y-87609502D01*
X176153726Y-87530350D01*
X176331313Y-87495027D01*
X176356583Y-87490000D01*
X176563417Y-87490000D01*
X176588687Y-87495027D01*
G37*
G36*
X179128687Y-87495027D02*
G01*
X179306274Y-87530350D01*
X179497362Y-87609502D01*
X179669336Y-87724411D01*
X179815589Y-87870664D01*
X179930498Y-88042638D01*
X180009650Y-88233726D01*
X180050000Y-88436584D01*
X180050000Y-88643416D01*
X180009650Y-88846274D01*
X179930498Y-89037362D01*
X179815589Y-89209336D01*
X179669336Y-89355589D01*
X179497362Y-89470498D01*
X179306274Y-89549650D01*
X179128687Y-89584973D01*
X179103417Y-89590000D01*
X178896583Y-89590000D01*
X178871313Y-89584973D01*
X178693726Y-89549650D01*
X178502638Y-89470498D01*
X178330664Y-89355589D01*
X178184411Y-89209336D01*
X178069502Y-89037362D01*
X177990350Y-88846274D01*
X177950000Y-88643416D01*
X177950000Y-88436584D01*
X177990350Y-88233726D01*
X178069502Y-88042638D01*
X178184411Y-87870664D01*
X178330664Y-87724411D01*
X178502638Y-87609502D01*
X178693726Y-87530350D01*
X178871313Y-87495027D01*
X178896583Y-87490000D01*
X179103417Y-87490000D01*
X179128687Y-87495027D01*
G37*
G36*
X176588687Y-84955027D02*
G01*
X176766274Y-84990350D01*
X176957362Y-85069502D01*
X177129336Y-85184411D01*
X177275589Y-85330664D01*
X177390498Y-85502638D01*
X177469650Y-85693726D01*
X177510000Y-85896584D01*
X177510000Y-86103416D01*
X177469650Y-86306274D01*
X177390498Y-86497362D01*
X177275589Y-86669336D01*
X177129336Y-86815589D01*
X176957362Y-86930498D01*
X176766274Y-87009650D01*
X176588687Y-87044973D01*
X176563417Y-87050000D01*
X176356583Y-87050000D01*
X176331313Y-87044973D01*
X176153726Y-87009650D01*
X175962638Y-86930498D01*
X175790664Y-86815589D01*
X175644411Y-86669336D01*
X175529502Y-86497362D01*
X175450350Y-86306274D01*
X175410000Y-86103416D01*
X175410000Y-85896584D01*
X175450350Y-85693726D01*
X175529502Y-85502638D01*
X175644411Y-85330664D01*
X175790664Y-85184411D01*
X175962638Y-85069502D01*
X176153726Y-84990350D01*
X176331313Y-84955027D01*
X176356583Y-84950000D01*
X176563417Y-84950000D01*
X176588687Y-84955027D01*
G37*
G36*
X174048687Y-84955027D02*
G01*
X174226274Y-84990350D01*
X174417362Y-85069502D01*
X174589336Y-85184411D01*
X174735589Y-85330664D01*
X174850498Y-85502638D01*
X174929650Y-85693726D01*
X174970000Y-85896584D01*
X174970000Y-86103416D01*
X174929650Y-86306274D01*
X174850498Y-86497362D01*
X174735589Y-86669336D01*
X174589336Y-86815589D01*
X174417362Y-86930498D01*
X174226274Y-87009650D01*
X174048687Y-87044973D01*
X174023417Y-87050000D01*
X173816583Y-87050000D01*
X173791313Y-87044973D01*
X173613726Y-87009650D01*
X173422638Y-86930498D01*
X173250664Y-86815589D01*
X173104411Y-86669336D01*
X172989502Y-86497362D01*
X172910350Y-86306274D01*
X172870000Y-86103416D01*
X172870000Y-85896584D01*
X172910350Y-85693726D01*
X172989502Y-85502638D01*
X173104411Y-85330664D01*
X173250664Y-85184411D01*
X173422638Y-85069502D01*
X173613726Y-84990350D01*
X173791313Y-84955027D01*
X173816583Y-84950000D01*
X174023417Y-84950000D01*
X174048687Y-84955027D01*
G37*
G36*
X180050000Y-87050000D02*
G01*
X177950000Y-87050000D01*
X177950000Y-84950000D01*
X180050000Y-84950000D01*
X180050000Y-87050000D01*
G37*
G36*
X171508687Y-84955027D02*
G01*
X171686274Y-84990350D01*
X171877362Y-85069502D01*
X172049336Y-85184411D01*
X172195589Y-85330664D01*
X172310498Y-85502638D01*
X172389650Y-85693726D01*
X172430000Y-85896584D01*
X172430000Y-86103416D01*
X172389650Y-86306274D01*
X172310498Y-86497362D01*
X172195589Y-86669336D01*
X172049336Y-86815589D01*
X171877362Y-86930498D01*
X171686274Y-87009650D01*
X171508687Y-87044973D01*
X171483417Y-87050000D01*
X171276583Y-87050000D01*
X171251313Y-87044973D01*
X171073726Y-87009650D01*
X170882638Y-86930498D01*
X170710664Y-86815589D01*
X170564411Y-86669336D01*
X170449502Y-86497362D01*
X170370350Y-86306274D01*
X170330000Y-86103416D01*
X170330000Y-85896584D01*
X170370350Y-85693726D01*
X170449502Y-85502638D01*
X170564411Y-85330664D01*
X170710664Y-85184411D01*
X170882638Y-85069502D01*
X171073726Y-84990350D01*
X171251313Y-84955027D01*
X171276583Y-84950000D01*
X171483417Y-84950000D01*
X171508687Y-84955027D01*
G37*
M02*
