G04 #@! TF.GenerationSoftware,KiCad,Pcbnew,5.1.4*
G04 #@! TF.CreationDate,2019-11-21T15:25:35+01:00*
G04 #@! TF.ProjectId,reference_board,72656665-7265-46e6-9365-5f626f617264,v3.2.0*
G04 #@! TF.SameCoordinates,Original*
G04 #@! TF.FileFunction,Soldermask,Bot*
G04 #@! TF.FilePolarity,Negative*
%FSLAX46Y46*%
G04 Gerber Fmt 4.6, Leading zero omitted, Abs format (unit mm)*
G04 Created by KiCad (PCBNEW 5.1.4) date 2019-11-21 15:25:35*
%MOMM*%
%LPD*%
G04 APERTURE LIST*
%ADD10C,0.100000*%
G04 APERTURE END LIST*
D10*
G36*
X153497480Y-102498998D02*
G01*
X153743807Y-102547995D01*
X154207878Y-102740220D01*
X154625530Y-103019286D01*
X154980714Y-103374470D01*
X155259780Y-103792122D01*
X155452005Y-104256193D01*
X155550000Y-104748847D01*
X155550000Y-105251153D01*
X155452005Y-105743807D01*
X155259780Y-106207878D01*
X154980714Y-106625530D01*
X154625530Y-106980714D01*
X154207878Y-107259780D01*
X153743807Y-107452005D01*
X153497480Y-107501003D01*
X153251154Y-107550000D01*
X152748846Y-107550000D01*
X152502520Y-107501003D01*
X152256193Y-107452005D01*
X151792122Y-107259780D01*
X151374470Y-106980714D01*
X151019286Y-106625530D01*
X150740220Y-106207878D01*
X150547995Y-105743807D01*
X150450000Y-105251153D01*
X150450000Y-104748847D01*
X150547995Y-104256193D01*
X150740220Y-103792122D01*
X151019286Y-103374470D01*
X151374470Y-103019286D01*
X151792122Y-102740220D01*
X152256193Y-102547995D01*
X152502520Y-102498998D01*
X152748846Y-102450000D01*
X153251154Y-102450000D01*
X153497480Y-102498998D01*
X153497480Y-102498998D01*
G37*
G36*
X179625336Y-101768254D02*
G01*
X179717105Y-101786508D01*
X179889994Y-101858121D01*
X180045590Y-101962087D01*
X180177913Y-102094410D01*
X180281879Y-102250006D01*
X180353492Y-102422895D01*
X180390000Y-102606433D01*
X180390000Y-102793567D01*
X180353492Y-102977105D01*
X180281879Y-103149994D01*
X180177913Y-103305590D01*
X180045590Y-103437913D01*
X179889994Y-103541879D01*
X179717105Y-103613492D01*
X179625336Y-103631746D01*
X179533568Y-103650000D01*
X179346432Y-103650000D01*
X179254664Y-103631746D01*
X179162895Y-103613492D01*
X178990006Y-103541879D01*
X178834410Y-103437913D01*
X178702087Y-103305590D01*
X178598121Y-103149994D01*
X178526508Y-102977105D01*
X178490000Y-102793567D01*
X178490000Y-102606433D01*
X178526508Y-102422895D01*
X178598121Y-102250006D01*
X178702087Y-102094410D01*
X178834410Y-101962087D01*
X178990006Y-101858121D01*
X179162895Y-101786508D01*
X179254664Y-101768254D01*
X179346432Y-101750000D01*
X179533568Y-101750000D01*
X179625336Y-101768254D01*
X179625336Y-101768254D01*
G37*
G36*
X177085336Y-101768254D02*
G01*
X177177105Y-101786508D01*
X177349994Y-101858121D01*
X177505590Y-101962087D01*
X177637913Y-102094410D01*
X177741879Y-102250006D01*
X177813492Y-102422895D01*
X177850000Y-102606433D01*
X177850000Y-102793567D01*
X177813492Y-102977105D01*
X177741879Y-103149994D01*
X177637913Y-103305590D01*
X177505590Y-103437913D01*
X177349994Y-103541879D01*
X177177105Y-103613492D01*
X177085336Y-103631746D01*
X176993568Y-103650000D01*
X176806432Y-103650000D01*
X176714664Y-103631746D01*
X176622895Y-103613492D01*
X176450006Y-103541879D01*
X176294410Y-103437913D01*
X176162087Y-103305590D01*
X176058121Y-103149994D01*
X175986508Y-102977105D01*
X175950000Y-102793567D01*
X175950000Y-102606433D01*
X175986508Y-102422895D01*
X176058121Y-102250006D01*
X176162087Y-102094410D01*
X176294410Y-101962087D01*
X176450006Y-101858121D01*
X176622895Y-101786508D01*
X176714664Y-101768254D01*
X176806432Y-101750000D01*
X176993568Y-101750000D01*
X177085336Y-101768254D01*
X177085336Y-101768254D01*
G37*
G36*
X175310000Y-103650000D02*
G01*
X173410000Y-103650000D01*
X173410000Y-101750000D01*
X175310000Y-101750000D01*
X175310000Y-103650000D01*
X175310000Y-103650000D01*
G37*
G36*
X158203351Y-92960743D02*
G01*
X158348941Y-93021048D01*
X158479970Y-93108599D01*
X158591401Y-93220030D01*
X158678952Y-93351059D01*
X158739257Y-93496649D01*
X158770000Y-93651206D01*
X158770000Y-93808794D01*
X158739257Y-93963351D01*
X158678951Y-94108943D01*
X158661376Y-94135246D01*
X158649825Y-94156856D01*
X158642712Y-94180305D01*
X158640310Y-94204692D01*
X158642712Y-94229078D01*
X158649825Y-94252527D01*
X158661376Y-94274137D01*
X158676922Y-94293079D01*
X158695864Y-94308624D01*
X158717474Y-94320175D01*
X158740923Y-94327288D01*
X158765310Y-94329690D01*
X158789696Y-94327288D01*
X158813145Y-94320175D01*
X158834754Y-94308624D01*
X158861057Y-94291049D01*
X159006649Y-94230743D01*
X159161206Y-94200000D01*
X159318794Y-94200000D01*
X159473351Y-94230743D01*
X159618941Y-94291048D01*
X159749970Y-94378599D01*
X159861401Y-94490030D01*
X159948952Y-94621059D01*
X160009257Y-94766649D01*
X160040000Y-94921206D01*
X160040000Y-95078794D01*
X160009257Y-95233351D01*
X159948952Y-95378941D01*
X159861401Y-95509970D01*
X159749970Y-95621401D01*
X159618941Y-95708952D01*
X159473351Y-95769257D01*
X159318794Y-95800000D01*
X159161206Y-95800000D01*
X159006649Y-95769257D01*
X158861057Y-95708951D01*
X158834754Y-95691376D01*
X158813144Y-95679825D01*
X158789695Y-95672712D01*
X158765308Y-95670310D01*
X158740922Y-95672712D01*
X158717473Y-95679825D01*
X158695863Y-95691376D01*
X158676921Y-95706922D01*
X158661376Y-95725864D01*
X158649825Y-95747474D01*
X158642712Y-95770923D01*
X158640310Y-95795310D01*
X158642712Y-95819696D01*
X158649825Y-95843145D01*
X158661376Y-95864754D01*
X158678951Y-95891057D01*
X158739257Y-96036649D01*
X158770000Y-96191206D01*
X158770000Y-96348794D01*
X158739257Y-96503351D01*
X158678952Y-96648941D01*
X158591401Y-96779970D01*
X158479970Y-96891401D01*
X158348941Y-96978952D01*
X158203351Y-97039257D01*
X158048794Y-97070000D01*
X157891206Y-97070000D01*
X157736649Y-97039257D01*
X157591059Y-96978952D01*
X157460030Y-96891401D01*
X157348599Y-96779970D01*
X157261048Y-96648941D01*
X157200743Y-96503351D01*
X157170000Y-96348794D01*
X157170000Y-96191206D01*
X157200743Y-96036649D01*
X157237880Y-95946992D01*
X157244993Y-95923543D01*
X157247395Y-95899157D01*
X157244993Y-95874770D01*
X157237880Y-95851322D01*
X157226329Y-95829711D01*
X157210783Y-95810769D01*
X157191841Y-95795224D01*
X157170231Y-95783673D01*
X157146782Y-95776560D01*
X157122396Y-95774158D01*
X157086116Y-95779539D01*
X157056827Y-95788424D01*
X156987785Y-95795224D01*
X156939294Y-95800000D01*
X156460706Y-95800000D01*
X156412215Y-95795224D01*
X156343173Y-95788424D01*
X156192372Y-95742679D01*
X156192370Y-95742678D01*
X156053395Y-95668394D01*
X155931578Y-95568422D01*
X155831606Y-95446605D01*
X155757322Y-95307630D01*
X155757321Y-95307628D01*
X155711576Y-95156827D01*
X155696130Y-95000000D01*
X155711576Y-94843173D01*
X155757321Y-94692372D01*
X155790914Y-94629523D01*
X157625821Y-94629523D01*
X157628223Y-94653909D01*
X157635336Y-94677358D01*
X157640581Y-94688447D01*
X157642679Y-94692372D01*
X157688424Y-94843173D01*
X157703870Y-95000000D01*
X157688424Y-95156827D01*
X157642679Y-95307628D01*
X157640582Y-95311551D01*
X157631204Y-95334190D01*
X157626423Y-95358223D01*
X157626423Y-95382727D01*
X157631203Y-95406760D01*
X157640580Y-95429399D01*
X157654193Y-95449774D01*
X157671520Y-95467101D01*
X157691894Y-95480715D01*
X157714533Y-95490093D01*
X157738566Y-95494874D01*
X157763070Y-95494874D01*
X157775199Y-95493075D01*
X157867628Y-95474690D01*
X157891206Y-95470000D01*
X158048794Y-95470000D01*
X158203351Y-95500743D01*
X158348943Y-95561049D01*
X158375246Y-95578624D01*
X158396856Y-95590175D01*
X158420305Y-95597288D01*
X158444692Y-95599690D01*
X158469078Y-95597288D01*
X158492527Y-95590175D01*
X158514137Y-95578624D01*
X158533079Y-95563078D01*
X158548624Y-95544136D01*
X158560175Y-95522526D01*
X158567288Y-95499077D01*
X158569690Y-95474690D01*
X158567288Y-95450304D01*
X158560175Y-95426855D01*
X158548624Y-95405246D01*
X158531049Y-95378943D01*
X158470743Y-95233351D01*
X158440000Y-95078794D01*
X158440000Y-94921206D01*
X158470743Y-94766649D01*
X158531049Y-94621057D01*
X158548624Y-94594754D01*
X158560175Y-94573144D01*
X158567288Y-94549695D01*
X158569690Y-94525308D01*
X158567288Y-94500922D01*
X158560175Y-94477473D01*
X158548624Y-94455863D01*
X158533078Y-94436921D01*
X158514136Y-94421376D01*
X158492526Y-94409825D01*
X158469077Y-94402712D01*
X158444690Y-94400310D01*
X158420304Y-94402712D01*
X158396855Y-94409825D01*
X158375246Y-94421376D01*
X158348943Y-94438951D01*
X158203351Y-94499257D01*
X158048794Y-94530000D01*
X157891206Y-94530000D01*
X157848391Y-94521483D01*
X157775203Y-94506926D01*
X157750820Y-94504524D01*
X157726434Y-94506926D01*
X157702985Y-94514039D01*
X157681374Y-94525590D01*
X157662432Y-94541135D01*
X157646887Y-94560077D01*
X157635336Y-94581688D01*
X157628223Y-94605137D01*
X157625821Y-94629523D01*
X155790914Y-94629523D01*
X155795440Y-94621057D01*
X155831606Y-94553395D01*
X155931578Y-94431578D01*
X156053395Y-94331606D01*
X156192370Y-94257322D01*
X156192372Y-94257321D01*
X156343173Y-94211576D01*
X156421529Y-94203859D01*
X156460706Y-94200000D01*
X156939294Y-94200000D01*
X156978471Y-94203859D01*
X157056827Y-94211576D01*
X157086119Y-94220462D01*
X157110144Y-94225240D01*
X157134648Y-94225240D01*
X157158681Y-94220460D01*
X157181320Y-94211082D01*
X157201694Y-94197469D01*
X157219021Y-94180142D01*
X157232635Y-94159767D01*
X157242013Y-94137128D01*
X157246793Y-94113095D01*
X157246793Y-94088591D01*
X157237880Y-94053008D01*
X157200743Y-93963351D01*
X157170000Y-93808794D01*
X157170000Y-93651206D01*
X157200743Y-93496649D01*
X157261048Y-93351059D01*
X157348599Y-93220030D01*
X157460030Y-93108599D01*
X157591059Y-93021048D01*
X157736649Y-92960743D01*
X157891206Y-92930000D01*
X158048794Y-92930000D01*
X158203351Y-92960743D01*
X158203351Y-92960743D01*
G37*
G36*
X171508707Y-87497597D02*
G01*
X171585836Y-87505193D01*
X171783762Y-87565233D01*
X171783765Y-87565234D01*
X171966170Y-87662732D01*
X172126055Y-87793945D01*
X172257268Y-87953830D01*
X172354766Y-88136235D01*
X172354767Y-88136238D01*
X172414807Y-88334164D01*
X172435080Y-88540000D01*
X172414807Y-88745836D01*
X172354767Y-88943762D01*
X172354766Y-88943765D01*
X172257268Y-89126170D01*
X172126055Y-89286055D01*
X171966170Y-89417268D01*
X171783765Y-89514766D01*
X171783762Y-89514767D01*
X171585836Y-89574807D01*
X171508707Y-89582403D01*
X171431580Y-89590000D01*
X171328420Y-89590000D01*
X171251293Y-89582403D01*
X171174164Y-89574807D01*
X170976238Y-89514767D01*
X170976235Y-89514766D01*
X170793830Y-89417268D01*
X170633945Y-89286055D01*
X170502732Y-89126170D01*
X170405234Y-88943765D01*
X170405233Y-88943762D01*
X170345193Y-88745836D01*
X170324920Y-88540000D01*
X170345193Y-88334164D01*
X170405233Y-88136238D01*
X170405234Y-88136235D01*
X170502732Y-87953830D01*
X170633945Y-87793945D01*
X170793830Y-87662732D01*
X170976235Y-87565234D01*
X170976238Y-87565233D01*
X171174164Y-87505193D01*
X171251293Y-87497597D01*
X171328420Y-87490000D01*
X171431580Y-87490000D01*
X171508707Y-87497597D01*
X171508707Y-87497597D01*
G37*
G36*
X174048707Y-87497597D02*
G01*
X174125836Y-87505193D01*
X174323762Y-87565233D01*
X174323765Y-87565234D01*
X174506170Y-87662732D01*
X174666055Y-87793945D01*
X174797268Y-87953830D01*
X174894766Y-88136235D01*
X174894767Y-88136238D01*
X174954807Y-88334164D01*
X174975080Y-88540000D01*
X174954807Y-88745836D01*
X174894767Y-88943762D01*
X174894766Y-88943765D01*
X174797268Y-89126170D01*
X174666055Y-89286055D01*
X174506170Y-89417268D01*
X174323765Y-89514766D01*
X174323762Y-89514767D01*
X174125836Y-89574807D01*
X174048707Y-89582403D01*
X173971580Y-89590000D01*
X173868420Y-89590000D01*
X173791293Y-89582403D01*
X173714164Y-89574807D01*
X173516238Y-89514767D01*
X173516235Y-89514766D01*
X173333830Y-89417268D01*
X173173945Y-89286055D01*
X173042732Y-89126170D01*
X172945234Y-88943765D01*
X172945233Y-88943762D01*
X172885193Y-88745836D01*
X172864920Y-88540000D01*
X172885193Y-88334164D01*
X172945233Y-88136238D01*
X172945234Y-88136235D01*
X173042732Y-87953830D01*
X173173945Y-87793945D01*
X173333830Y-87662732D01*
X173516235Y-87565234D01*
X173516238Y-87565233D01*
X173714164Y-87505193D01*
X173791293Y-87497597D01*
X173868420Y-87490000D01*
X173971580Y-87490000D01*
X174048707Y-87497597D01*
X174048707Y-87497597D01*
G37*
G36*
X176588707Y-87497597D02*
G01*
X176665836Y-87505193D01*
X176863762Y-87565233D01*
X176863765Y-87565234D01*
X177046170Y-87662732D01*
X177206055Y-87793945D01*
X177337268Y-87953830D01*
X177434766Y-88136235D01*
X177434767Y-88136238D01*
X177494807Y-88334164D01*
X177515080Y-88540000D01*
X177494807Y-88745836D01*
X177434767Y-88943762D01*
X177434766Y-88943765D01*
X177337268Y-89126170D01*
X177206055Y-89286055D01*
X177046170Y-89417268D01*
X176863765Y-89514766D01*
X176863762Y-89514767D01*
X176665836Y-89574807D01*
X176588707Y-89582403D01*
X176511580Y-89590000D01*
X176408420Y-89590000D01*
X176331293Y-89582403D01*
X176254164Y-89574807D01*
X176056238Y-89514767D01*
X176056235Y-89514766D01*
X175873830Y-89417268D01*
X175713945Y-89286055D01*
X175582732Y-89126170D01*
X175485234Y-88943765D01*
X175485233Y-88943762D01*
X175425193Y-88745836D01*
X175404920Y-88540000D01*
X175425193Y-88334164D01*
X175485233Y-88136238D01*
X175485234Y-88136235D01*
X175582732Y-87953830D01*
X175713945Y-87793945D01*
X175873830Y-87662732D01*
X176056235Y-87565234D01*
X176056238Y-87565233D01*
X176254164Y-87505193D01*
X176331293Y-87497597D01*
X176408420Y-87490000D01*
X176511580Y-87490000D01*
X176588707Y-87497597D01*
X176588707Y-87497597D01*
G37*
G36*
X179128707Y-87497597D02*
G01*
X179205836Y-87505193D01*
X179403762Y-87565233D01*
X179403765Y-87565234D01*
X179586170Y-87662732D01*
X179746055Y-87793945D01*
X179877268Y-87953830D01*
X179974766Y-88136235D01*
X179974767Y-88136238D01*
X180034807Y-88334164D01*
X180055080Y-88540000D01*
X180034807Y-88745836D01*
X179974767Y-88943762D01*
X179974766Y-88943765D01*
X179877268Y-89126170D01*
X179746055Y-89286055D01*
X179586170Y-89417268D01*
X179403765Y-89514766D01*
X179403762Y-89514767D01*
X179205836Y-89574807D01*
X179128707Y-89582403D01*
X179051580Y-89590000D01*
X178948420Y-89590000D01*
X178871293Y-89582403D01*
X178794164Y-89574807D01*
X178596238Y-89514767D01*
X178596235Y-89514766D01*
X178413830Y-89417268D01*
X178253945Y-89286055D01*
X178122732Y-89126170D01*
X178025234Y-88943765D01*
X178025233Y-88943762D01*
X177965193Y-88745836D01*
X177944920Y-88540000D01*
X177965193Y-88334164D01*
X178025233Y-88136238D01*
X178025234Y-88136235D01*
X178122732Y-87953830D01*
X178253945Y-87793945D01*
X178413830Y-87662732D01*
X178596235Y-87565234D01*
X178596238Y-87565233D01*
X178794164Y-87505193D01*
X178871293Y-87497597D01*
X178948420Y-87490000D01*
X179051580Y-87490000D01*
X179128707Y-87497597D01*
X179128707Y-87497597D01*
G37*
G36*
X176588707Y-84957597D02*
G01*
X176665836Y-84965193D01*
X176863762Y-85025233D01*
X176863765Y-85025234D01*
X177046170Y-85122732D01*
X177206055Y-85253945D01*
X177337268Y-85413830D01*
X177434766Y-85596235D01*
X177434767Y-85596238D01*
X177494807Y-85794164D01*
X177515080Y-86000000D01*
X177494807Y-86205836D01*
X177434767Y-86403762D01*
X177434766Y-86403765D01*
X177337268Y-86586170D01*
X177206055Y-86746055D01*
X177046170Y-86877268D01*
X176863765Y-86974766D01*
X176863762Y-86974767D01*
X176665836Y-87034807D01*
X176588707Y-87042404D01*
X176511580Y-87050000D01*
X176408420Y-87050000D01*
X176331293Y-87042404D01*
X176254164Y-87034807D01*
X176056238Y-86974767D01*
X176056235Y-86974766D01*
X175873830Y-86877268D01*
X175713945Y-86746055D01*
X175582732Y-86586170D01*
X175485234Y-86403765D01*
X175485233Y-86403762D01*
X175425193Y-86205836D01*
X175404920Y-86000000D01*
X175425193Y-85794164D01*
X175485233Y-85596238D01*
X175485234Y-85596235D01*
X175582732Y-85413830D01*
X175713945Y-85253945D01*
X175873830Y-85122732D01*
X176056235Y-85025234D01*
X176056238Y-85025233D01*
X176254164Y-84965193D01*
X176331293Y-84957597D01*
X176408420Y-84950000D01*
X176511580Y-84950000D01*
X176588707Y-84957597D01*
X176588707Y-84957597D01*
G37*
G36*
X174048707Y-84957597D02*
G01*
X174125836Y-84965193D01*
X174323762Y-85025233D01*
X174323765Y-85025234D01*
X174506170Y-85122732D01*
X174666055Y-85253945D01*
X174797268Y-85413830D01*
X174894766Y-85596235D01*
X174894767Y-85596238D01*
X174954807Y-85794164D01*
X174975080Y-86000000D01*
X174954807Y-86205836D01*
X174894767Y-86403762D01*
X174894766Y-86403765D01*
X174797268Y-86586170D01*
X174666055Y-86746055D01*
X174506170Y-86877268D01*
X174323765Y-86974766D01*
X174323762Y-86974767D01*
X174125836Y-87034807D01*
X174048707Y-87042404D01*
X173971580Y-87050000D01*
X173868420Y-87050000D01*
X173791293Y-87042404D01*
X173714164Y-87034807D01*
X173516238Y-86974767D01*
X173516235Y-86974766D01*
X173333830Y-86877268D01*
X173173945Y-86746055D01*
X173042732Y-86586170D01*
X172945234Y-86403765D01*
X172945233Y-86403762D01*
X172885193Y-86205836D01*
X172864920Y-86000000D01*
X172885193Y-85794164D01*
X172945233Y-85596238D01*
X172945234Y-85596235D01*
X173042732Y-85413830D01*
X173173945Y-85253945D01*
X173333830Y-85122732D01*
X173516235Y-85025234D01*
X173516238Y-85025233D01*
X173714164Y-84965193D01*
X173791293Y-84957597D01*
X173868420Y-84950000D01*
X173971580Y-84950000D01*
X174048707Y-84957597D01*
X174048707Y-84957597D01*
G37*
G36*
X180050000Y-87050000D02*
G01*
X177950000Y-87050000D01*
X177950000Y-84950000D01*
X180050000Y-84950000D01*
X180050000Y-87050000D01*
X180050000Y-87050000D01*
G37*
G36*
X171508707Y-84957597D02*
G01*
X171585836Y-84965193D01*
X171783762Y-85025233D01*
X171783765Y-85025234D01*
X171966170Y-85122732D01*
X172126055Y-85253945D01*
X172257268Y-85413830D01*
X172354766Y-85596235D01*
X172354767Y-85596238D01*
X172414807Y-85794164D01*
X172435080Y-86000000D01*
X172414807Y-86205836D01*
X172354767Y-86403762D01*
X172354766Y-86403765D01*
X172257268Y-86586170D01*
X172126055Y-86746055D01*
X171966170Y-86877268D01*
X171783765Y-86974766D01*
X171783762Y-86974767D01*
X171585836Y-87034807D01*
X171508707Y-87042404D01*
X171431580Y-87050000D01*
X171328420Y-87050000D01*
X171251293Y-87042404D01*
X171174164Y-87034807D01*
X170976238Y-86974767D01*
X170976235Y-86974766D01*
X170793830Y-86877268D01*
X170633945Y-86746055D01*
X170502732Y-86586170D01*
X170405234Y-86403765D01*
X170405233Y-86403762D01*
X170345193Y-86205836D01*
X170324920Y-86000000D01*
X170345193Y-85794164D01*
X170405233Y-85596238D01*
X170405234Y-85596235D01*
X170502732Y-85413830D01*
X170633945Y-85253945D01*
X170793830Y-85122732D01*
X170976235Y-85025234D01*
X170976238Y-85025233D01*
X171174164Y-84965193D01*
X171251293Y-84957597D01*
X171328420Y-84950000D01*
X171431580Y-84950000D01*
X171508707Y-84957597D01*
X171508707Y-84957597D01*
G37*
M02*
