G04 #@! TF.GenerationSoftware,KiCad,Pcbnew,5.1.2*
G04 #@! TF.CreationDate,2019-06-28T19:50:37+02:00*
G04 #@! TF.ProjectId,reference_board,72656665-7265-46e6-9365-5f626f617264,v3.1.1*
G04 #@! TF.SameCoordinates,Original*
G04 #@! TF.FileFunction,Copper,L1,Top*
G04 #@! TF.FilePolarity,Positive*
%FSLAX46Y46*%
G04 Gerber Fmt 4.6, Leading zero omitted, Abs format (unit mm)*
G04 Created by KiCad (PCBNEW 5.1.2) date 2019-06-28 19:50:37*
%MOMM*%
%LPD*%
G04 APERTURE LIST*
%ADD10C,0.100000*%
%ADD11O,1.600000X1.200000*%
%ADD12C,1.200000*%
%ADD13C,0.875000*%
%ADD14C,0.250000*%
%ADD15C,0.975000*%
%ADD16C,4.700000*%
%ADD17C,1.500000*%
%ADD18R,1.500000X1.500000*%
%ADD19C,1.250000*%
%ADD20R,0.650000X0.400000*%
%ADD21O,1.700000X1.700000*%
%ADD22R,1.700000X1.700000*%
%ADD23R,1.550000X0.600000*%
%ADD24C,0.800000*%
%ADD25C,0.250000*%
%ADD26C,0.300000*%
%ADD27C,0.200000*%
%ADD28C,0.150000*%
G04 APERTURE END LIST*
D10*
G36*
X173825000Y-94300000D02*
G01*
X173575000Y-94300000D01*
X173575000Y-93800000D01*
X173825000Y-93800000D01*
X173825000Y-94300000D01*
G37*
G36*
X155682322Y-94140901D02*
G01*
X155859099Y-94317678D01*
X155505545Y-94671231D01*
X155328769Y-94494455D01*
X155682322Y-94140901D01*
G37*
G36*
X152625000Y-94600000D02*
G01*
X152375000Y-94600000D01*
X152375000Y-94100000D01*
X152625000Y-94100000D01*
X152625000Y-94600000D01*
G37*
D11*
X175300000Y-96000000D03*
D12*
X174030000Y-94730000D03*
X174030000Y-97270000D03*
X172760000Y-96000000D03*
D10*
G36*
X163477691Y-105076053D02*
G01*
X163498926Y-105079203D01*
X163519750Y-105084419D01*
X163539962Y-105091651D01*
X163559368Y-105100830D01*
X163577781Y-105111866D01*
X163595024Y-105124654D01*
X163610930Y-105139070D01*
X163625346Y-105154976D01*
X163638134Y-105172219D01*
X163649170Y-105190632D01*
X163658349Y-105210038D01*
X163665581Y-105230250D01*
X163670797Y-105251074D01*
X163673947Y-105272309D01*
X163675000Y-105293750D01*
X163675000Y-105731250D01*
X163673947Y-105752691D01*
X163670797Y-105773926D01*
X163665581Y-105794750D01*
X163658349Y-105814962D01*
X163649170Y-105834368D01*
X163638134Y-105852781D01*
X163625346Y-105870024D01*
X163610930Y-105885930D01*
X163595024Y-105900346D01*
X163577781Y-105913134D01*
X163559368Y-105924170D01*
X163539962Y-105933349D01*
X163519750Y-105940581D01*
X163498926Y-105945797D01*
X163477691Y-105948947D01*
X163456250Y-105950000D01*
X162943750Y-105950000D01*
X162922309Y-105948947D01*
X162901074Y-105945797D01*
X162880250Y-105940581D01*
X162860038Y-105933349D01*
X162840632Y-105924170D01*
X162822219Y-105913134D01*
X162804976Y-105900346D01*
X162789070Y-105885930D01*
X162774654Y-105870024D01*
X162761866Y-105852781D01*
X162750830Y-105834368D01*
X162741651Y-105814962D01*
X162734419Y-105794750D01*
X162729203Y-105773926D01*
X162726053Y-105752691D01*
X162725000Y-105731250D01*
X162725000Y-105293750D01*
X162726053Y-105272309D01*
X162729203Y-105251074D01*
X162734419Y-105230250D01*
X162741651Y-105210038D01*
X162750830Y-105190632D01*
X162761866Y-105172219D01*
X162774654Y-105154976D01*
X162789070Y-105139070D01*
X162804976Y-105124654D01*
X162822219Y-105111866D01*
X162840632Y-105100830D01*
X162860038Y-105091651D01*
X162880250Y-105084419D01*
X162901074Y-105079203D01*
X162922309Y-105076053D01*
X162943750Y-105075000D01*
X163456250Y-105075000D01*
X163477691Y-105076053D01*
X163477691Y-105076053D01*
G37*
D13*
X163200000Y-105512500D03*
D10*
G36*
X163477691Y-106651053D02*
G01*
X163498926Y-106654203D01*
X163519750Y-106659419D01*
X163539962Y-106666651D01*
X163559368Y-106675830D01*
X163577781Y-106686866D01*
X163595024Y-106699654D01*
X163610930Y-106714070D01*
X163625346Y-106729976D01*
X163638134Y-106747219D01*
X163649170Y-106765632D01*
X163658349Y-106785038D01*
X163665581Y-106805250D01*
X163670797Y-106826074D01*
X163673947Y-106847309D01*
X163675000Y-106868750D01*
X163675000Y-107306250D01*
X163673947Y-107327691D01*
X163670797Y-107348926D01*
X163665581Y-107369750D01*
X163658349Y-107389962D01*
X163649170Y-107409368D01*
X163638134Y-107427781D01*
X163625346Y-107445024D01*
X163610930Y-107460930D01*
X163595024Y-107475346D01*
X163577781Y-107488134D01*
X163559368Y-107499170D01*
X163539962Y-107508349D01*
X163519750Y-107515581D01*
X163498926Y-107520797D01*
X163477691Y-107523947D01*
X163456250Y-107525000D01*
X162943750Y-107525000D01*
X162922309Y-107523947D01*
X162901074Y-107520797D01*
X162880250Y-107515581D01*
X162860038Y-107508349D01*
X162840632Y-107499170D01*
X162822219Y-107488134D01*
X162804976Y-107475346D01*
X162789070Y-107460930D01*
X162774654Y-107445024D01*
X162761866Y-107427781D01*
X162750830Y-107409368D01*
X162741651Y-107389962D01*
X162734419Y-107369750D01*
X162729203Y-107348926D01*
X162726053Y-107327691D01*
X162725000Y-107306250D01*
X162725000Y-106868750D01*
X162726053Y-106847309D01*
X162729203Y-106826074D01*
X162734419Y-106805250D01*
X162741651Y-106785038D01*
X162750830Y-106765632D01*
X162761866Y-106747219D01*
X162774654Y-106729976D01*
X162789070Y-106714070D01*
X162804976Y-106699654D01*
X162822219Y-106686866D01*
X162840632Y-106675830D01*
X162860038Y-106666651D01*
X162880250Y-106659419D01*
X162901074Y-106654203D01*
X162922309Y-106651053D01*
X162943750Y-106650000D01*
X163456250Y-106650000D01*
X163477691Y-106651053D01*
X163477691Y-106651053D01*
G37*
D13*
X163200000Y-107087500D03*
D14*
X173700000Y-93800000D03*
X173700000Y-94300000D03*
X155417157Y-94582843D03*
X155770710Y-94229290D03*
X152500000Y-94100000D03*
X152500000Y-94600000D03*
D10*
G36*
X161380142Y-86751174D02*
G01*
X161403803Y-86754684D01*
X161427007Y-86760496D01*
X161449529Y-86768554D01*
X161471153Y-86778782D01*
X161491670Y-86791079D01*
X161510883Y-86805329D01*
X161528607Y-86821393D01*
X161544671Y-86839117D01*
X161558921Y-86858330D01*
X161571218Y-86878847D01*
X161581446Y-86900471D01*
X161589504Y-86922993D01*
X161595316Y-86946197D01*
X161598826Y-86969858D01*
X161600000Y-86993750D01*
X161600000Y-87481250D01*
X161598826Y-87505142D01*
X161595316Y-87528803D01*
X161589504Y-87552007D01*
X161581446Y-87574529D01*
X161571218Y-87596153D01*
X161558921Y-87616670D01*
X161544671Y-87635883D01*
X161528607Y-87653607D01*
X161510883Y-87669671D01*
X161491670Y-87683921D01*
X161471153Y-87696218D01*
X161449529Y-87706446D01*
X161427007Y-87714504D01*
X161403803Y-87720316D01*
X161380142Y-87723826D01*
X161356250Y-87725000D01*
X160443750Y-87725000D01*
X160419858Y-87723826D01*
X160396197Y-87720316D01*
X160372993Y-87714504D01*
X160350471Y-87706446D01*
X160328847Y-87696218D01*
X160308330Y-87683921D01*
X160289117Y-87669671D01*
X160271393Y-87653607D01*
X160255329Y-87635883D01*
X160241079Y-87616670D01*
X160228782Y-87596153D01*
X160218554Y-87574529D01*
X160210496Y-87552007D01*
X160204684Y-87528803D01*
X160201174Y-87505142D01*
X160200000Y-87481250D01*
X160200000Y-86993750D01*
X160201174Y-86969858D01*
X160204684Y-86946197D01*
X160210496Y-86922993D01*
X160218554Y-86900471D01*
X160228782Y-86878847D01*
X160241079Y-86858330D01*
X160255329Y-86839117D01*
X160271393Y-86821393D01*
X160289117Y-86805329D01*
X160308330Y-86791079D01*
X160328847Y-86778782D01*
X160350471Y-86768554D01*
X160372993Y-86760496D01*
X160396197Y-86754684D01*
X160419858Y-86751174D01*
X160443750Y-86750000D01*
X161356250Y-86750000D01*
X161380142Y-86751174D01*
X161380142Y-86751174D01*
G37*
D15*
X160900000Y-87237500D03*
D10*
G36*
X161380142Y-84876174D02*
G01*
X161403803Y-84879684D01*
X161427007Y-84885496D01*
X161449529Y-84893554D01*
X161471153Y-84903782D01*
X161491670Y-84916079D01*
X161510883Y-84930329D01*
X161528607Y-84946393D01*
X161544671Y-84964117D01*
X161558921Y-84983330D01*
X161571218Y-85003847D01*
X161581446Y-85025471D01*
X161589504Y-85047993D01*
X161595316Y-85071197D01*
X161598826Y-85094858D01*
X161600000Y-85118750D01*
X161600000Y-85606250D01*
X161598826Y-85630142D01*
X161595316Y-85653803D01*
X161589504Y-85677007D01*
X161581446Y-85699529D01*
X161571218Y-85721153D01*
X161558921Y-85741670D01*
X161544671Y-85760883D01*
X161528607Y-85778607D01*
X161510883Y-85794671D01*
X161491670Y-85808921D01*
X161471153Y-85821218D01*
X161449529Y-85831446D01*
X161427007Y-85839504D01*
X161403803Y-85845316D01*
X161380142Y-85848826D01*
X161356250Y-85850000D01*
X160443750Y-85850000D01*
X160419858Y-85848826D01*
X160396197Y-85845316D01*
X160372993Y-85839504D01*
X160350471Y-85831446D01*
X160328847Y-85821218D01*
X160308330Y-85808921D01*
X160289117Y-85794671D01*
X160271393Y-85778607D01*
X160255329Y-85760883D01*
X160241079Y-85741670D01*
X160228782Y-85721153D01*
X160218554Y-85699529D01*
X160210496Y-85677007D01*
X160204684Y-85653803D01*
X160201174Y-85630142D01*
X160200000Y-85606250D01*
X160200000Y-85118750D01*
X160201174Y-85094858D01*
X160204684Y-85071197D01*
X160210496Y-85047993D01*
X160218554Y-85025471D01*
X160228782Y-85003847D01*
X160241079Y-84983330D01*
X160255329Y-84964117D01*
X160271393Y-84946393D01*
X160289117Y-84930329D01*
X160308330Y-84916079D01*
X160328847Y-84903782D01*
X160350471Y-84893554D01*
X160372993Y-84885496D01*
X160396197Y-84879684D01*
X160419858Y-84876174D01*
X160443750Y-84875000D01*
X161356250Y-84875000D01*
X161380142Y-84876174D01*
X161380142Y-84876174D01*
G37*
D15*
X160900000Y-85362500D03*
D16*
X179000000Y-86000000D03*
D17*
X152560000Y-88300000D03*
X155100000Y-88300000D03*
D18*
X157640000Y-88300000D03*
D10*
G36*
X152049504Y-98376204D02*
G01*
X152073773Y-98379804D01*
X152097571Y-98385765D01*
X152120671Y-98394030D01*
X152142849Y-98404520D01*
X152163893Y-98417133D01*
X152183598Y-98431747D01*
X152201777Y-98448223D01*
X152218253Y-98466402D01*
X152232867Y-98486107D01*
X152245480Y-98507151D01*
X152255970Y-98529329D01*
X152264235Y-98552429D01*
X152270196Y-98576227D01*
X152273796Y-98600496D01*
X152275000Y-98625000D01*
X152275000Y-99375000D01*
X152273796Y-99399504D01*
X152270196Y-99423773D01*
X152264235Y-99447571D01*
X152255970Y-99470671D01*
X152245480Y-99492849D01*
X152232867Y-99513893D01*
X152218253Y-99533598D01*
X152201777Y-99551777D01*
X152183598Y-99568253D01*
X152163893Y-99582867D01*
X152142849Y-99595480D01*
X152120671Y-99605970D01*
X152097571Y-99614235D01*
X152073773Y-99620196D01*
X152049504Y-99623796D01*
X152025000Y-99625000D01*
X150775000Y-99625000D01*
X150750496Y-99623796D01*
X150726227Y-99620196D01*
X150702429Y-99614235D01*
X150679329Y-99605970D01*
X150657151Y-99595480D01*
X150636107Y-99582867D01*
X150616402Y-99568253D01*
X150598223Y-99551777D01*
X150581747Y-99533598D01*
X150567133Y-99513893D01*
X150554520Y-99492849D01*
X150544030Y-99470671D01*
X150535765Y-99447571D01*
X150529804Y-99423773D01*
X150526204Y-99399504D01*
X150525000Y-99375000D01*
X150525000Y-98625000D01*
X150526204Y-98600496D01*
X150529804Y-98576227D01*
X150535765Y-98552429D01*
X150544030Y-98529329D01*
X150554520Y-98507151D01*
X150567133Y-98486107D01*
X150581747Y-98466402D01*
X150598223Y-98448223D01*
X150616402Y-98431747D01*
X150636107Y-98417133D01*
X150657151Y-98404520D01*
X150679329Y-98394030D01*
X150702429Y-98385765D01*
X150726227Y-98379804D01*
X150750496Y-98376204D01*
X150775000Y-98375000D01*
X152025000Y-98375000D01*
X152049504Y-98376204D01*
X152049504Y-98376204D01*
G37*
D19*
X151400000Y-99000000D03*
D10*
G36*
X152049504Y-95576204D02*
G01*
X152073773Y-95579804D01*
X152097571Y-95585765D01*
X152120671Y-95594030D01*
X152142849Y-95604520D01*
X152163893Y-95617133D01*
X152183598Y-95631747D01*
X152201777Y-95648223D01*
X152218253Y-95666402D01*
X152232867Y-95686107D01*
X152245480Y-95707151D01*
X152255970Y-95729329D01*
X152264235Y-95752429D01*
X152270196Y-95776227D01*
X152273796Y-95800496D01*
X152275000Y-95825000D01*
X152275000Y-96575000D01*
X152273796Y-96599504D01*
X152270196Y-96623773D01*
X152264235Y-96647571D01*
X152255970Y-96670671D01*
X152245480Y-96692849D01*
X152232867Y-96713893D01*
X152218253Y-96733598D01*
X152201777Y-96751777D01*
X152183598Y-96768253D01*
X152163893Y-96782867D01*
X152142849Y-96795480D01*
X152120671Y-96805970D01*
X152097571Y-96814235D01*
X152073773Y-96820196D01*
X152049504Y-96823796D01*
X152025000Y-96825000D01*
X150775000Y-96825000D01*
X150750496Y-96823796D01*
X150726227Y-96820196D01*
X150702429Y-96814235D01*
X150679329Y-96805970D01*
X150657151Y-96795480D01*
X150636107Y-96782867D01*
X150616402Y-96768253D01*
X150598223Y-96751777D01*
X150581747Y-96733598D01*
X150567133Y-96713893D01*
X150554520Y-96692849D01*
X150544030Y-96670671D01*
X150535765Y-96647571D01*
X150529804Y-96623773D01*
X150526204Y-96599504D01*
X150525000Y-96575000D01*
X150525000Y-95825000D01*
X150526204Y-95800496D01*
X150529804Y-95776227D01*
X150535765Y-95752429D01*
X150544030Y-95729329D01*
X150554520Y-95707151D01*
X150567133Y-95686107D01*
X150581747Y-95666402D01*
X150598223Y-95648223D01*
X150616402Y-95631747D01*
X150636107Y-95617133D01*
X150657151Y-95604520D01*
X150679329Y-95594030D01*
X150702429Y-95585765D01*
X150726227Y-95579804D01*
X150750496Y-95576204D01*
X150775000Y-95575000D01*
X152025000Y-95575000D01*
X152049504Y-95576204D01*
X152049504Y-95576204D01*
G37*
D19*
X151400000Y-96200000D03*
D10*
G36*
X162949504Y-95976204D02*
G01*
X162973773Y-95979804D01*
X162997571Y-95985765D01*
X163020671Y-95994030D01*
X163042849Y-96004520D01*
X163063893Y-96017133D01*
X163083598Y-96031747D01*
X163101777Y-96048223D01*
X163118253Y-96066402D01*
X163132867Y-96086107D01*
X163145480Y-96107151D01*
X163155970Y-96129329D01*
X163164235Y-96152429D01*
X163170196Y-96176227D01*
X163173796Y-96200496D01*
X163175000Y-96225000D01*
X163175000Y-96975000D01*
X163173796Y-96999504D01*
X163170196Y-97023773D01*
X163164235Y-97047571D01*
X163155970Y-97070671D01*
X163145480Y-97092849D01*
X163132867Y-97113893D01*
X163118253Y-97133598D01*
X163101777Y-97151777D01*
X163083598Y-97168253D01*
X163063893Y-97182867D01*
X163042849Y-97195480D01*
X163020671Y-97205970D01*
X162997571Y-97214235D01*
X162973773Y-97220196D01*
X162949504Y-97223796D01*
X162925000Y-97225000D01*
X161675000Y-97225000D01*
X161650496Y-97223796D01*
X161626227Y-97220196D01*
X161602429Y-97214235D01*
X161579329Y-97205970D01*
X161557151Y-97195480D01*
X161536107Y-97182867D01*
X161516402Y-97168253D01*
X161498223Y-97151777D01*
X161481747Y-97133598D01*
X161467133Y-97113893D01*
X161454520Y-97092849D01*
X161444030Y-97070671D01*
X161435765Y-97047571D01*
X161429804Y-97023773D01*
X161426204Y-96999504D01*
X161425000Y-96975000D01*
X161425000Y-96225000D01*
X161426204Y-96200496D01*
X161429804Y-96176227D01*
X161435765Y-96152429D01*
X161444030Y-96129329D01*
X161454520Y-96107151D01*
X161467133Y-96086107D01*
X161481747Y-96066402D01*
X161498223Y-96048223D01*
X161516402Y-96031747D01*
X161536107Y-96017133D01*
X161557151Y-96004520D01*
X161579329Y-95994030D01*
X161602429Y-95985765D01*
X161626227Y-95979804D01*
X161650496Y-95976204D01*
X161675000Y-95975000D01*
X162925000Y-95975000D01*
X162949504Y-95976204D01*
X162949504Y-95976204D01*
G37*
D19*
X162300000Y-96600000D03*
D10*
G36*
X162949504Y-93176204D02*
G01*
X162973773Y-93179804D01*
X162997571Y-93185765D01*
X163020671Y-93194030D01*
X163042849Y-93204520D01*
X163063893Y-93217133D01*
X163083598Y-93231747D01*
X163101777Y-93248223D01*
X163118253Y-93266402D01*
X163132867Y-93286107D01*
X163145480Y-93307151D01*
X163155970Y-93329329D01*
X163164235Y-93352429D01*
X163170196Y-93376227D01*
X163173796Y-93400496D01*
X163175000Y-93425000D01*
X163175000Y-94175000D01*
X163173796Y-94199504D01*
X163170196Y-94223773D01*
X163164235Y-94247571D01*
X163155970Y-94270671D01*
X163145480Y-94292849D01*
X163132867Y-94313893D01*
X163118253Y-94333598D01*
X163101777Y-94351777D01*
X163083598Y-94368253D01*
X163063893Y-94382867D01*
X163042849Y-94395480D01*
X163020671Y-94405970D01*
X162997571Y-94414235D01*
X162973773Y-94420196D01*
X162949504Y-94423796D01*
X162925000Y-94425000D01*
X161675000Y-94425000D01*
X161650496Y-94423796D01*
X161626227Y-94420196D01*
X161602429Y-94414235D01*
X161579329Y-94405970D01*
X161557151Y-94395480D01*
X161536107Y-94382867D01*
X161516402Y-94368253D01*
X161498223Y-94351777D01*
X161481747Y-94333598D01*
X161467133Y-94313893D01*
X161454520Y-94292849D01*
X161444030Y-94270671D01*
X161435765Y-94247571D01*
X161429804Y-94223773D01*
X161426204Y-94199504D01*
X161425000Y-94175000D01*
X161425000Y-93425000D01*
X161426204Y-93400496D01*
X161429804Y-93376227D01*
X161435765Y-93352429D01*
X161444030Y-93329329D01*
X161454520Y-93307151D01*
X161467133Y-93286107D01*
X161481747Y-93266402D01*
X161498223Y-93248223D01*
X161516402Y-93231747D01*
X161536107Y-93217133D01*
X161557151Y-93204520D01*
X161579329Y-93194030D01*
X161602429Y-93185765D01*
X161626227Y-93179804D01*
X161650496Y-93176204D01*
X161675000Y-93175000D01*
X162925000Y-93175000D01*
X162949504Y-93176204D01*
X162949504Y-93176204D01*
G37*
D19*
X162300000Y-93800000D03*
D10*
G36*
X157799504Y-90526204D02*
G01*
X157823773Y-90529804D01*
X157847571Y-90535765D01*
X157870671Y-90544030D01*
X157892849Y-90554520D01*
X157913893Y-90567133D01*
X157933598Y-90581747D01*
X157951777Y-90598223D01*
X157968253Y-90616402D01*
X157982867Y-90636107D01*
X157995480Y-90657151D01*
X158005970Y-90679329D01*
X158014235Y-90702429D01*
X158020196Y-90726227D01*
X158023796Y-90750496D01*
X158025000Y-90775000D01*
X158025000Y-92025000D01*
X158023796Y-92049504D01*
X158020196Y-92073773D01*
X158014235Y-92097571D01*
X158005970Y-92120671D01*
X157995480Y-92142849D01*
X157982867Y-92163893D01*
X157968253Y-92183598D01*
X157951777Y-92201777D01*
X157933598Y-92218253D01*
X157913893Y-92232867D01*
X157892849Y-92245480D01*
X157870671Y-92255970D01*
X157847571Y-92264235D01*
X157823773Y-92270196D01*
X157799504Y-92273796D01*
X157775000Y-92275000D01*
X157025000Y-92275000D01*
X157000496Y-92273796D01*
X156976227Y-92270196D01*
X156952429Y-92264235D01*
X156929329Y-92255970D01*
X156907151Y-92245480D01*
X156886107Y-92232867D01*
X156866402Y-92218253D01*
X156848223Y-92201777D01*
X156831747Y-92183598D01*
X156817133Y-92163893D01*
X156804520Y-92142849D01*
X156794030Y-92120671D01*
X156785765Y-92097571D01*
X156779804Y-92073773D01*
X156776204Y-92049504D01*
X156775000Y-92025000D01*
X156775000Y-90775000D01*
X156776204Y-90750496D01*
X156779804Y-90726227D01*
X156785765Y-90702429D01*
X156794030Y-90679329D01*
X156804520Y-90657151D01*
X156817133Y-90636107D01*
X156831747Y-90616402D01*
X156848223Y-90598223D01*
X156866402Y-90581747D01*
X156886107Y-90567133D01*
X156907151Y-90554520D01*
X156929329Y-90544030D01*
X156952429Y-90535765D01*
X156976227Y-90529804D01*
X157000496Y-90526204D01*
X157025000Y-90525000D01*
X157775000Y-90525000D01*
X157799504Y-90526204D01*
X157799504Y-90526204D01*
G37*
D19*
X157400000Y-91400000D03*
D10*
G36*
X154999504Y-90526204D02*
G01*
X155023773Y-90529804D01*
X155047571Y-90535765D01*
X155070671Y-90544030D01*
X155092849Y-90554520D01*
X155113893Y-90567133D01*
X155133598Y-90581747D01*
X155151777Y-90598223D01*
X155168253Y-90616402D01*
X155182867Y-90636107D01*
X155195480Y-90657151D01*
X155205970Y-90679329D01*
X155214235Y-90702429D01*
X155220196Y-90726227D01*
X155223796Y-90750496D01*
X155225000Y-90775000D01*
X155225000Y-92025000D01*
X155223796Y-92049504D01*
X155220196Y-92073773D01*
X155214235Y-92097571D01*
X155205970Y-92120671D01*
X155195480Y-92142849D01*
X155182867Y-92163893D01*
X155168253Y-92183598D01*
X155151777Y-92201777D01*
X155133598Y-92218253D01*
X155113893Y-92232867D01*
X155092849Y-92245480D01*
X155070671Y-92255970D01*
X155047571Y-92264235D01*
X155023773Y-92270196D01*
X154999504Y-92273796D01*
X154975000Y-92275000D01*
X154225000Y-92275000D01*
X154200496Y-92273796D01*
X154176227Y-92270196D01*
X154152429Y-92264235D01*
X154129329Y-92255970D01*
X154107151Y-92245480D01*
X154086107Y-92232867D01*
X154066402Y-92218253D01*
X154048223Y-92201777D01*
X154031747Y-92183598D01*
X154017133Y-92163893D01*
X154004520Y-92142849D01*
X153994030Y-92120671D01*
X153985765Y-92097571D01*
X153979804Y-92073773D01*
X153976204Y-92049504D01*
X153975000Y-92025000D01*
X153975000Y-90775000D01*
X153976204Y-90750496D01*
X153979804Y-90726227D01*
X153985765Y-90702429D01*
X153994030Y-90679329D01*
X154004520Y-90657151D01*
X154017133Y-90636107D01*
X154031747Y-90616402D01*
X154048223Y-90598223D01*
X154066402Y-90581747D01*
X154086107Y-90567133D01*
X154107151Y-90554520D01*
X154129329Y-90544030D01*
X154152429Y-90535765D01*
X154176227Y-90529804D01*
X154200496Y-90526204D01*
X154225000Y-90525000D01*
X154975000Y-90525000D01*
X154999504Y-90526204D01*
X154999504Y-90526204D01*
G37*
D19*
X154600000Y-91400000D03*
D10*
G36*
X161177691Y-90351053D02*
G01*
X161198926Y-90354203D01*
X161219750Y-90359419D01*
X161239962Y-90366651D01*
X161259368Y-90375830D01*
X161277781Y-90386866D01*
X161295024Y-90399654D01*
X161310930Y-90414070D01*
X161325346Y-90429976D01*
X161338134Y-90447219D01*
X161349170Y-90465632D01*
X161358349Y-90485038D01*
X161365581Y-90505250D01*
X161370797Y-90526074D01*
X161373947Y-90547309D01*
X161375000Y-90568750D01*
X161375000Y-91006250D01*
X161373947Y-91027691D01*
X161370797Y-91048926D01*
X161365581Y-91069750D01*
X161358349Y-91089962D01*
X161349170Y-91109368D01*
X161338134Y-91127781D01*
X161325346Y-91145024D01*
X161310930Y-91160930D01*
X161295024Y-91175346D01*
X161277781Y-91188134D01*
X161259368Y-91199170D01*
X161239962Y-91208349D01*
X161219750Y-91215581D01*
X161198926Y-91220797D01*
X161177691Y-91223947D01*
X161156250Y-91225000D01*
X160643750Y-91225000D01*
X160622309Y-91223947D01*
X160601074Y-91220797D01*
X160580250Y-91215581D01*
X160560038Y-91208349D01*
X160540632Y-91199170D01*
X160522219Y-91188134D01*
X160504976Y-91175346D01*
X160489070Y-91160930D01*
X160474654Y-91145024D01*
X160461866Y-91127781D01*
X160450830Y-91109368D01*
X160441651Y-91089962D01*
X160434419Y-91069750D01*
X160429203Y-91048926D01*
X160426053Y-91027691D01*
X160425000Y-91006250D01*
X160425000Y-90568750D01*
X160426053Y-90547309D01*
X160429203Y-90526074D01*
X160434419Y-90505250D01*
X160441651Y-90485038D01*
X160450830Y-90465632D01*
X160461866Y-90447219D01*
X160474654Y-90429976D01*
X160489070Y-90414070D01*
X160504976Y-90399654D01*
X160522219Y-90386866D01*
X160540632Y-90375830D01*
X160560038Y-90366651D01*
X160580250Y-90359419D01*
X160601074Y-90354203D01*
X160622309Y-90351053D01*
X160643750Y-90350000D01*
X161156250Y-90350000D01*
X161177691Y-90351053D01*
X161177691Y-90351053D01*
G37*
D13*
X160900000Y-90787500D03*
D10*
G36*
X161177691Y-88776053D02*
G01*
X161198926Y-88779203D01*
X161219750Y-88784419D01*
X161239962Y-88791651D01*
X161259368Y-88800830D01*
X161277781Y-88811866D01*
X161295024Y-88824654D01*
X161310930Y-88839070D01*
X161325346Y-88854976D01*
X161338134Y-88872219D01*
X161349170Y-88890632D01*
X161358349Y-88910038D01*
X161365581Y-88930250D01*
X161370797Y-88951074D01*
X161373947Y-88972309D01*
X161375000Y-88993750D01*
X161375000Y-89431250D01*
X161373947Y-89452691D01*
X161370797Y-89473926D01*
X161365581Y-89494750D01*
X161358349Y-89514962D01*
X161349170Y-89534368D01*
X161338134Y-89552781D01*
X161325346Y-89570024D01*
X161310930Y-89585930D01*
X161295024Y-89600346D01*
X161277781Y-89613134D01*
X161259368Y-89624170D01*
X161239962Y-89633349D01*
X161219750Y-89640581D01*
X161198926Y-89645797D01*
X161177691Y-89648947D01*
X161156250Y-89650000D01*
X160643750Y-89650000D01*
X160622309Y-89648947D01*
X160601074Y-89645797D01*
X160580250Y-89640581D01*
X160560038Y-89633349D01*
X160540632Y-89624170D01*
X160522219Y-89613134D01*
X160504976Y-89600346D01*
X160489070Y-89585930D01*
X160474654Y-89570024D01*
X160461866Y-89552781D01*
X160450830Y-89534368D01*
X160441651Y-89514962D01*
X160434419Y-89494750D01*
X160429203Y-89473926D01*
X160426053Y-89452691D01*
X160425000Y-89431250D01*
X160425000Y-88993750D01*
X160426053Y-88972309D01*
X160429203Y-88951074D01*
X160434419Y-88930250D01*
X160441651Y-88910038D01*
X160450830Y-88890632D01*
X160461866Y-88872219D01*
X160474654Y-88854976D01*
X160489070Y-88839070D01*
X160504976Y-88824654D01*
X160522219Y-88811866D01*
X160540632Y-88800830D01*
X160560038Y-88791651D01*
X160580250Y-88784419D01*
X160601074Y-88779203D01*
X160622309Y-88776053D01*
X160643750Y-88775000D01*
X161156250Y-88775000D01*
X161177691Y-88776053D01*
X161177691Y-88776053D01*
G37*
D13*
X160900000Y-89212500D03*
D20*
X167050000Y-105650000D03*
X167050000Y-104350000D03*
X168950000Y-105000000D03*
X168950000Y-104350000D03*
X168950000Y-105650000D03*
D21*
X160620000Y-102460000D03*
X160620000Y-105000000D03*
X158080000Y-102460000D03*
X158080000Y-105000000D03*
X155540000Y-102460000D03*
X155540000Y-105000000D03*
X153000000Y-102460000D03*
D22*
X153000000Y-105000000D03*
D23*
X154000000Y-97305000D03*
X154000000Y-96035000D03*
X154000000Y-94765000D03*
X154000000Y-93495000D03*
X159400000Y-93495000D03*
X159400000Y-94765000D03*
X159400000Y-96035000D03*
X159400000Y-97305000D03*
D24*
X151400000Y-97800000D03*
X162700000Y-100400000D03*
X163200000Y-107087500D03*
D25*
X168950000Y-105000000D02*
X168500000Y-105000000D01*
X167850000Y-105650000D02*
X167050000Y-105650000D01*
X168500000Y-105000000D02*
X167850000Y-105650000D01*
D26*
X151400000Y-98800000D02*
X151400000Y-97800000D01*
X162300000Y-96600000D02*
X162300000Y-100000000D01*
X162300000Y-100000000D02*
X162700000Y-100400000D01*
D25*
X167050000Y-106250000D02*
X167050000Y-105650000D01*
X163212500Y-107100000D02*
X166200000Y-107100000D01*
X166200000Y-107100000D02*
X167050000Y-106250000D01*
X163200000Y-107087500D02*
X163212500Y-107100000D01*
D26*
X154000000Y-96035000D02*
X152865000Y-96035000D01*
X152700000Y-96200000D02*
X151400000Y-96200000D01*
X152865000Y-96035000D02*
X152700000Y-96200000D01*
X158080000Y-102460000D02*
X158080000Y-101680000D01*
X158080000Y-101680000D02*
X155200000Y-98800000D01*
X155200000Y-98800000D02*
X153400000Y-98800000D01*
X153400000Y-98800000D02*
X152600000Y-98000000D01*
X152600000Y-97400000D02*
X151400000Y-96200000D01*
X152600000Y-98000000D02*
X152600000Y-97400000D01*
X159350000Y-99450000D02*
X159400000Y-99400000D01*
X158080000Y-105000000D02*
X158080000Y-104720000D01*
X158080000Y-104720000D02*
X159350000Y-103450000D01*
X159400000Y-99400000D02*
X160000000Y-99400000D01*
X159350000Y-103450000D02*
X159350000Y-99450000D01*
X160000000Y-99400000D02*
X161000000Y-98400000D01*
X161000000Y-98400000D02*
X161000000Y-95300000D01*
X162300000Y-94000000D02*
X162300000Y-93800000D01*
X161000000Y-95300000D02*
X162300000Y-94000000D01*
X162300000Y-93800000D02*
X161300000Y-93800000D01*
X160995000Y-93495000D02*
X159400000Y-93495000D01*
X161300000Y-93800000D02*
X160995000Y-93495000D01*
D25*
X159400000Y-93495000D02*
X159400000Y-92700000D01*
X160900000Y-90787500D02*
X160900000Y-91500000D01*
X160100000Y-92300000D02*
X159800000Y-92300000D01*
X160900000Y-91500000D02*
X160100000Y-92300000D01*
X159400000Y-92700000D02*
X159800000Y-92300000D01*
X168500000Y-103300000D02*
X168950000Y-103750000D01*
X166000000Y-103300000D02*
X168500000Y-103300000D01*
X161660000Y-102460000D02*
X164100000Y-104900000D01*
X164100000Y-104900000D02*
X164900000Y-104900000D01*
X168950000Y-103750000D02*
X168950000Y-104350000D01*
X165500000Y-104300000D02*
X165500000Y-103800000D01*
X160620000Y-102460000D02*
X161660000Y-102460000D01*
X164900000Y-104900000D02*
X165500000Y-104300000D01*
X165500000Y-103800000D02*
X166000000Y-103300000D01*
D26*
X155540000Y-106360000D02*
X154800000Y-107100000D01*
X154800000Y-107100000D02*
X151600000Y-107100000D01*
X155540000Y-105000000D02*
X155540000Y-106360000D01*
X151600000Y-107100000D02*
X149700000Y-105200000D01*
X149700000Y-105200000D02*
X149700000Y-95300000D01*
X149700000Y-95300000D02*
X150235000Y-94765000D01*
D25*
X152500000Y-94565000D02*
X152300000Y-94765000D01*
D26*
X152300000Y-94765000D02*
X152500000Y-94765000D01*
X150235000Y-94765000D02*
X152300000Y-94765000D01*
D25*
X152500000Y-94500000D02*
X152500000Y-94765000D01*
X152500000Y-94565000D02*
X152700000Y-94765000D01*
D27*
X152500000Y-94500000D02*
X152500000Y-94565000D01*
D26*
X152500000Y-94765000D02*
X152700000Y-94765000D01*
X152700000Y-94765000D02*
X154000000Y-94765000D01*
D25*
X155235000Y-94765000D02*
X155417157Y-94582843D01*
X154000000Y-94765000D02*
X155235000Y-94765000D01*
X157400000Y-91400000D02*
X157400000Y-90100000D01*
X157100000Y-89800000D02*
X156600000Y-89800000D01*
X157400000Y-90100000D02*
X157100000Y-89800000D01*
X156600000Y-89800000D02*
X155100000Y-88300000D01*
X159400000Y-96035000D02*
X157935000Y-96035000D01*
X157400000Y-95500000D02*
X157400000Y-91400000D01*
X157935000Y-96035000D02*
X157400000Y-95500000D01*
D27*
X162887500Y-87087500D02*
X162900000Y-87100000D01*
D25*
X160900000Y-89212500D02*
X160900000Y-87237500D01*
X162762500Y-87237500D02*
X162900000Y-87100000D01*
X160900000Y-87237500D02*
X162762500Y-87237500D01*
X162900000Y-87100000D02*
X164200000Y-85800000D01*
X171500000Y-85800000D02*
X173700000Y-88000000D01*
X164200000Y-85800000D02*
X171500000Y-85800000D01*
X173700000Y-88000000D02*
X173700000Y-93800000D01*
D27*
X174000000Y-94730000D02*
X174000000Y-94500000D01*
X174000000Y-94500000D02*
X173700000Y-94200000D01*
D28*
X160000000Y-86300000D02*
X161900000Y-86300000D01*
D25*
X174300000Y-87900000D02*
X171700000Y-85300000D01*
X174300000Y-94100000D02*
X174300000Y-87900000D01*
X162900000Y-85300000D02*
X161900000Y-86300000D01*
X171700000Y-85300000D02*
X162900000Y-85300000D01*
X158100000Y-92900000D02*
X158100000Y-94500000D01*
X159500000Y-91500000D02*
X158100000Y-92900000D01*
X160000000Y-86300000D02*
X159500000Y-86800000D01*
X158365000Y-94765000D02*
X159400000Y-94765000D01*
X158100000Y-94500000D02*
X158365000Y-94765000D01*
X159500000Y-86800000D02*
X159500000Y-91500000D01*
X174000000Y-94400000D02*
X174300000Y-94100000D01*
X174000000Y-94730000D02*
X174000000Y-94400000D01*
X154600000Y-90340000D02*
X152560000Y-88300000D01*
X154600000Y-91400000D02*
X154600000Y-90340000D01*
X155700000Y-92500000D02*
X154600000Y-91400000D01*
X155770710Y-92570710D02*
X155700000Y-92500000D01*
X155770710Y-94229290D02*
X155770710Y-92570710D01*
X151637500Y-85362500D02*
X160900000Y-85362500D01*
X150400000Y-86600000D02*
X151637500Y-85362500D01*
X150400000Y-86600000D02*
X150400000Y-92000000D01*
X150400000Y-92000000D02*
X152500000Y-94100000D01*
X166350000Y-104350000D02*
X167050000Y-104350000D01*
X166000000Y-104700000D02*
X166350000Y-104350000D01*
X166000000Y-105500000D02*
X166000000Y-104700000D01*
X165000000Y-106500000D02*
X166000000Y-105500000D01*
X160620000Y-105000000D02*
X161400000Y-105000000D01*
X161912500Y-105512500D02*
X163200000Y-105512500D01*
X161400000Y-105000000D02*
X161912500Y-105512500D01*
X164187500Y-106500000D02*
X163200000Y-105512500D01*
X165000000Y-106500000D02*
X164187500Y-106500000D01*
M02*
