G04 #@! TF.GenerationSoftware,KiCad,Pcbnew,(6.0.4)*
G04 #@! TF.CreationDate,2022-04-17T03:50:03+02:00*
G04 #@! TF.ProjectId,reference_board,72656665-7265-46e6-9365-5f626f617264,v3.4.0*
G04 #@! TF.SameCoordinates,Original*
G04 #@! TF.FileFunction,Copper,L2,Bot*
G04 #@! TF.FilePolarity,Positive*
%FSLAX46Y46*%
G04 Gerber Fmt 4.6, Leading zero omitted, Abs format (unit mm)*
G04 Created by KiCad (PCBNEW (6.0.4)) date 2022-04-17 03:50:03*
%MOMM*%
%LPD*%
G01*
G04 APERTURE LIST*
G04 Aperture macros list*
%AMRoundRect*
0 Rectangle with rounded corners*
0 $1 Rounding radius*
0 $2 $3 $4 $5 $6 $7 $8 $9 X,Y pos of 4 corners*
0 Add a 4 corners polygon primitive as box body*
4,1,4,$2,$3,$4,$5,$6,$7,$8,$9,$2,$3,0*
0 Add four circle primitives for the rounded corners*
1,1,$1+$1,$2,$3*
1,1,$1+$1,$4,$5*
1,1,$1+$1,$6,$7*
1,1,$1+$1,$8,$9*
0 Add four rect primitives between the rounded corners*
20,1,$1+$1,$2,$3,$4,$5,0*
20,1,$1+$1,$4,$5,$6,$7,0*
20,1,$1+$1,$6,$7,$8,$9,0*
20,1,$1+$1,$8,$9,$2,$3,0*%
G04 Aperture macros list end*
G04 #@! TA.AperFunction,ComponentPad*
%ADD10R,1.500000X1.500000*%
G04 #@! TD*
G04 #@! TA.AperFunction,ComponentPad*
%ADD11C,1.500000*%
G04 #@! TD*
G04 #@! TA.AperFunction,ComponentPad*
%ADD12C,4.700000*%
G04 #@! TD*
G04 #@! TA.AperFunction,ComponentPad*
%ADD13O,1.600000X1.200000*%
G04 #@! TD*
G04 #@! TA.AperFunction,ComponentPad*
%ADD14C,1.200000*%
G04 #@! TD*
G04 #@! TA.AperFunction,SMDPad,CuDef*
%ADD15C,0.150000*%
G04 #@! TD*
G04 #@! TA.AperFunction,SMDPad,CuDef*
%ADD16C,0.250000*%
G04 #@! TD*
G04 #@! TA.AperFunction,ComponentPad*
%ADD17R,1.700000X1.700000*%
G04 #@! TD*
G04 #@! TA.AperFunction,ComponentPad*
%ADD18O,1.700000X1.700000*%
G04 #@! TD*
G04 #@! TA.AperFunction,SMDPad,CuDef*
%ADD19RoundRect,0.225000X0.225000X0.250000X-0.225000X0.250000X-0.225000X-0.250000X0.225000X-0.250000X0*%
G04 #@! TD*
G04 #@! TA.AperFunction,ViaPad*
%ADD20C,0.600000*%
G04 #@! TD*
G04 #@! TA.AperFunction,ViaPad*
%ADD21C,0.800000*%
G04 #@! TD*
G04 #@! TA.AperFunction,Conductor*
%ADD22C,0.300000*%
G04 #@! TD*
G04 #@! TA.AperFunction,Conductor*
%ADD23C,0.150000*%
G04 #@! TD*
G04 #@! TA.AperFunction,Conductor*
%ADD24C,0.250000*%
G04 #@! TD*
G04 APERTURE END LIST*
G36*
X107375000Y-63200000D02*
G01*
X107225000Y-63200000D01*
X107225000Y-62800000D01*
X107375000Y-62800000D01*
X107375000Y-63200000D01*
G37*
G36*
X107025000Y-63100000D02*
G01*
X106775000Y-63100000D01*
X106775000Y-62600000D01*
X107025000Y-62600000D01*
X107025000Y-63100000D01*
G37*
D10*
X125360000Y-69700000D03*
D11*
X127900000Y-69700000D03*
X130440000Y-69700000D03*
D12*
X104000000Y-72000000D03*
D13*
X107700000Y-62000000D03*
D14*
X108970000Y-63270000D03*
X110240000Y-62000000D03*
X108970000Y-60730000D03*
D15*
X107300000Y-63200000D03*
X107300000Y-62800000D03*
D16*
X106900000Y-63100000D03*
X106900000Y-62600000D03*
D17*
X130000000Y-53000000D03*
D18*
X130000000Y-55540000D03*
X127460000Y-53000000D03*
X127460000Y-55540000D03*
X124920000Y-53000000D03*
X124920000Y-55540000D03*
X122380000Y-53000000D03*
X122380000Y-55540000D03*
D19*
X110025000Y-58500000D03*
X108475000Y-58500000D03*
D20*
X121600000Y-59000000D03*
X130500000Y-58500000D03*
D21*
X120800000Y-50900000D03*
D20*
X132000000Y-64500000D03*
X119900000Y-69200000D03*
D22*
X110025000Y-57525000D02*
X110025000Y-58500000D01*
X110500000Y-52700000D02*
X109200000Y-54000000D01*
X110025000Y-59275000D02*
X110240000Y-59490000D01*
X124920000Y-55540000D02*
X124860000Y-55540000D01*
X110240000Y-59490000D02*
X110240000Y-62000000D01*
X121475000Y-54275000D02*
X119900000Y-52700000D01*
X119900000Y-52700000D02*
X110500000Y-52700000D01*
X123595000Y-54275000D02*
X121475000Y-54275000D01*
X109200000Y-54000000D02*
X109200000Y-56700000D01*
X110025000Y-58500000D02*
X110025000Y-59275000D01*
X109200000Y-56700000D02*
X110025000Y-57525000D01*
X124860000Y-55540000D02*
X123595000Y-54275000D01*
X108475000Y-58975000D02*
X108970000Y-59470000D01*
X124920000Y-53000000D02*
X124900000Y-53000000D01*
X121800000Y-51600000D02*
X121200000Y-52200000D01*
X108700000Y-53800000D02*
X108700000Y-56800000D01*
X108700000Y-56800000D02*
X108475000Y-57025000D01*
X123500000Y-51600000D02*
X121800000Y-51600000D01*
X108475000Y-58500000D02*
X108475000Y-58975000D01*
X110300000Y-52200000D02*
X108700000Y-53800000D01*
X108475000Y-57025000D02*
X108475000Y-58500000D01*
X121200000Y-52200000D02*
X110300000Y-52200000D01*
X124900000Y-53000000D02*
X123500000Y-51600000D01*
X108970000Y-59470000D02*
X108970000Y-60730000D01*
D23*
X130000000Y-57000000D02*
X130000000Y-55540000D01*
X107300000Y-63200000D02*
X107300000Y-64800000D01*
X120300000Y-59400000D02*
X121600000Y-58100000D01*
X107300000Y-64800000D02*
X109000000Y-66500000D01*
X119400000Y-72900000D02*
X120300000Y-72000000D01*
X120300000Y-69575000D02*
X120500000Y-69375000D01*
X109000000Y-70500000D02*
X111400000Y-72900000D01*
X120300000Y-68800000D02*
X120300000Y-59400000D01*
X120300000Y-72000000D02*
X120300000Y-69575000D01*
X109000000Y-66500000D02*
X109000000Y-70500000D01*
X120500000Y-69375000D02*
X120500000Y-69000000D01*
X128900000Y-58100000D02*
X130000000Y-57000000D01*
X120500000Y-69000000D02*
X120300000Y-68800000D01*
X111400000Y-72900000D02*
X119400000Y-72900000D01*
X121600000Y-58100000D02*
X128900000Y-58100000D01*
D24*
X109400000Y-70400000D02*
X111500000Y-72500000D01*
X111500000Y-72500000D02*
X119200000Y-72500000D01*
X119900000Y-69200000D02*
X119900000Y-59200000D01*
X127460000Y-57140000D02*
X127460000Y-55540000D01*
X107700000Y-64700000D02*
X109400000Y-66400000D01*
X121400000Y-57700000D02*
X126900000Y-57700000D01*
X107700000Y-62000000D02*
X107700000Y-64700000D01*
D23*
X107700000Y-62000000D02*
X107300000Y-62400000D01*
D24*
X107500000Y-62000000D02*
X106900000Y-62600000D01*
X126900000Y-57700000D02*
X127460000Y-57140000D01*
X119900000Y-59200000D02*
X121400000Y-57700000D01*
X109400000Y-66400000D02*
X109400000Y-70400000D01*
X119200000Y-72500000D02*
X119900000Y-71800000D01*
X119900000Y-71800000D02*
X119900000Y-69200000D01*
X107700000Y-62000000D02*
X107500000Y-62000000D01*
D23*
X107300000Y-62400000D02*
X107300000Y-62800000D01*
D24*
X108600000Y-70600000D02*
X111300000Y-73300000D01*
X125360000Y-70640000D02*
X125360000Y-69700000D01*
X122700000Y-73300000D02*
X125360000Y-70640000D01*
X106900000Y-64900000D02*
X108600000Y-66600000D01*
X111300000Y-73300000D02*
X122700000Y-73300000D01*
X106900000Y-63100000D02*
X106900000Y-64900000D01*
X108600000Y-66600000D02*
X108600000Y-70600000D01*
G04 #@! TA.AperFunction,Conductor*
G36*
X132982056Y-50352027D02*
G01*
X133000000Y-50354869D01*
X133009640Y-50353342D01*
X133018264Y-50353342D01*
X133032146Y-50354122D01*
X133067429Y-50358097D01*
X133130644Y-50365220D01*
X133157715Y-50371399D01*
X133268620Y-50410207D01*
X133293636Y-50422254D01*
X133393127Y-50484767D01*
X133414837Y-50502080D01*
X133497920Y-50585163D01*
X133515233Y-50606873D01*
X133577746Y-50706364D01*
X133589793Y-50731380D01*
X133628601Y-50842285D01*
X133634780Y-50869356D01*
X133645878Y-50967852D01*
X133646658Y-50981736D01*
X133646658Y-50990360D01*
X133645131Y-51000000D01*
X133646658Y-51009640D01*
X133647973Y-51017942D01*
X133649500Y-51037341D01*
X133649500Y-73962659D01*
X133647973Y-73982056D01*
X133645131Y-74000000D01*
X133646658Y-74009640D01*
X133646658Y-74018264D01*
X133645878Y-74032146D01*
X133642539Y-74061782D01*
X133634780Y-74130644D01*
X133628601Y-74157715D01*
X133589793Y-74268620D01*
X133577746Y-74293636D01*
X133515233Y-74393127D01*
X133497920Y-74414837D01*
X133414837Y-74497920D01*
X133393127Y-74515233D01*
X133293636Y-74577746D01*
X133268620Y-74589793D01*
X133157715Y-74628601D01*
X133130644Y-74634780D01*
X133067429Y-74641903D01*
X133032146Y-74645878D01*
X133018264Y-74646658D01*
X133009640Y-74646658D01*
X133000000Y-74645131D01*
X132982056Y-74647973D01*
X132962659Y-74649500D01*
X122424000Y-74649500D01*
X122356961Y-74629815D01*
X122311206Y-74577011D01*
X122300000Y-74525500D01*
X122300000Y-73899500D01*
X122319685Y-73832461D01*
X122372489Y-73786706D01*
X122424000Y-73775500D01*
X122632847Y-73775500D01*
X122644005Y-73776746D01*
X122644050Y-73776184D01*
X122652857Y-73776893D01*
X122661473Y-73778842D01*
X122670290Y-73778295D01*
X122670291Y-73778295D01*
X122711505Y-73775738D01*
X122719183Y-73775500D01*
X122734145Y-73775500D01*
X122743595Y-73774147D01*
X122753486Y-73773134D01*
X122773153Y-73771913D01*
X122797417Y-73770408D01*
X122805731Y-73767407D01*
X122811109Y-73766293D01*
X122820828Y-73763870D01*
X122826081Y-73762334D01*
X122834829Y-73761081D01*
X122874906Y-73742859D01*
X122884121Y-73739108D01*
X122917218Y-73727160D01*
X122917220Y-73727159D01*
X122925530Y-73724159D01*
X122932665Y-73718946D01*
X122937514Y-73716368D01*
X122946159Y-73711316D01*
X122950777Y-73708363D01*
X122958820Y-73704706D01*
X122992185Y-73675956D01*
X122999961Y-73669783D01*
X123010035Y-73662423D01*
X123020127Y-73652331D01*
X123026865Y-73646074D01*
X123055311Y-73621563D01*
X123062004Y-73615796D01*
X123066810Y-73608381D01*
X123072614Y-73601728D01*
X123072670Y-73601777D01*
X123081101Y-73591357D01*
X125648743Y-71023715D01*
X125657516Y-71016704D01*
X125657151Y-71016275D01*
X125663878Y-71010549D01*
X125671350Y-71005835D01*
X125704544Y-70968250D01*
X125709805Y-70962653D01*
X125720373Y-70952085D01*
X125726091Y-70944456D01*
X125732375Y-70936737D01*
X125755664Y-70910368D01*
X125755665Y-70910367D01*
X125761513Y-70903745D01*
X125765268Y-70895747D01*
X125768292Y-70891143D01*
X125773437Y-70882581D01*
X125776075Y-70877763D01*
X125781372Y-70870695D01*
X125783786Y-70864256D01*
X125832548Y-70815602D01*
X125891854Y-70800500D01*
X126143218Y-70800500D01*
X126212112Y-70790358D01*
X126316855Y-70738932D01*
X126399293Y-70656350D01*
X126403792Y-70647145D01*
X126403794Y-70647143D01*
X126431552Y-70590356D01*
X126450536Y-70551518D01*
X126460500Y-70483218D01*
X126460500Y-69671069D01*
X126795164Y-69671069D01*
X126795535Y-69676731D01*
X126795535Y-69676735D01*
X126800851Y-69757842D01*
X126808392Y-69872894D01*
X126858178Y-70068928D01*
X126942856Y-70252607D01*
X127059588Y-70417780D01*
X127204466Y-70558913D01*
X127372637Y-70671282D01*
X127558470Y-70751122D01*
X127654502Y-70772852D01*
X127750193Y-70794505D01*
X127750195Y-70794505D01*
X127755740Y-70795760D01*
X127873135Y-70800372D01*
X127952161Y-70803477D01*
X127952163Y-70803477D01*
X127957842Y-70803700D01*
X127963462Y-70802885D01*
X127963465Y-70802885D01*
X128152387Y-70775493D01*
X128152389Y-70775493D01*
X128158007Y-70774678D01*
X128163384Y-70772853D01*
X128163387Y-70772852D01*
X128284683Y-70731677D01*
X128349531Y-70709664D01*
X128450897Y-70652897D01*
X128521048Y-70613611D01*
X128521050Y-70613610D01*
X128526001Y-70610837D01*
X128588433Y-70558913D01*
X128677138Y-70485137D01*
X128681505Y-70481505D01*
X128810837Y-70326001D01*
X128909664Y-70149531D01*
X128974678Y-69958007D01*
X129003700Y-69757842D01*
X129005215Y-69700000D01*
X129002557Y-69671069D01*
X129335164Y-69671069D01*
X129335535Y-69676731D01*
X129335535Y-69676735D01*
X129340851Y-69757842D01*
X129348392Y-69872894D01*
X129398178Y-70068928D01*
X129482856Y-70252607D01*
X129599588Y-70417780D01*
X129744466Y-70558913D01*
X129912637Y-70671282D01*
X130098470Y-70751122D01*
X130194502Y-70772852D01*
X130290193Y-70794505D01*
X130290195Y-70794505D01*
X130295740Y-70795760D01*
X130413135Y-70800372D01*
X130492161Y-70803477D01*
X130492163Y-70803477D01*
X130497842Y-70803700D01*
X130503462Y-70802885D01*
X130503465Y-70802885D01*
X130692387Y-70775493D01*
X130692389Y-70775493D01*
X130698007Y-70774678D01*
X130703384Y-70772853D01*
X130703387Y-70772852D01*
X130824683Y-70731677D01*
X130889531Y-70709664D01*
X130990897Y-70652897D01*
X131061048Y-70613611D01*
X131061050Y-70613610D01*
X131066001Y-70610837D01*
X131128433Y-70558913D01*
X131217138Y-70485137D01*
X131221505Y-70481505D01*
X131350837Y-70326001D01*
X131449664Y-70149531D01*
X131514678Y-69958007D01*
X131543700Y-69757842D01*
X131545215Y-69700000D01*
X131526708Y-69498591D01*
X131471807Y-69303926D01*
X131382351Y-69122527D01*
X131261335Y-68960467D01*
X131196313Y-68900361D01*
X131116988Y-68827034D01*
X131116986Y-68827033D01*
X131112812Y-68823174D01*
X131052123Y-68784882D01*
X130946566Y-68718280D01*
X130946564Y-68718279D01*
X130941757Y-68715246D01*
X130753898Y-68640298D01*
X130748317Y-68639188D01*
X130748314Y-68639187D01*
X130670716Y-68623752D01*
X130555526Y-68600839D01*
X130549839Y-68600765D01*
X130549834Y-68600764D01*
X130358975Y-68598266D01*
X130358970Y-68598266D01*
X130353286Y-68598192D01*
X130347682Y-68599155D01*
X130347681Y-68599155D01*
X130159546Y-68631482D01*
X130159543Y-68631483D01*
X130153949Y-68632444D01*
X130132660Y-68640298D01*
X129969521Y-68700483D01*
X129969517Y-68700485D01*
X129964193Y-68702449D01*
X129959310Y-68705354D01*
X129959308Y-68705355D01*
X129825635Y-68784882D01*
X129790371Y-68805862D01*
X129638305Y-68939220D01*
X129513089Y-69098057D01*
X129418914Y-69277053D01*
X129417229Y-69282479D01*
X129417228Y-69282482D01*
X129379421Y-69404244D01*
X129358937Y-69470213D01*
X129335164Y-69671069D01*
X129002557Y-69671069D01*
X128986708Y-69498591D01*
X128931807Y-69303926D01*
X128842351Y-69122527D01*
X128721335Y-68960467D01*
X128656313Y-68900361D01*
X128576988Y-68827034D01*
X128576986Y-68827033D01*
X128572812Y-68823174D01*
X128512123Y-68784882D01*
X128406566Y-68718280D01*
X128406564Y-68718279D01*
X128401757Y-68715246D01*
X128213898Y-68640298D01*
X128208317Y-68639188D01*
X128208314Y-68639187D01*
X128130716Y-68623752D01*
X128015526Y-68600839D01*
X128009839Y-68600765D01*
X128009834Y-68600764D01*
X127818975Y-68598266D01*
X127818970Y-68598266D01*
X127813286Y-68598192D01*
X127807682Y-68599155D01*
X127807681Y-68599155D01*
X127619546Y-68631482D01*
X127619543Y-68631483D01*
X127613949Y-68632444D01*
X127592660Y-68640298D01*
X127429521Y-68700483D01*
X127429517Y-68700485D01*
X127424193Y-68702449D01*
X127419310Y-68705354D01*
X127419308Y-68705355D01*
X127285635Y-68784882D01*
X127250371Y-68805862D01*
X127098305Y-68939220D01*
X126973089Y-69098057D01*
X126878914Y-69277053D01*
X126877229Y-69282479D01*
X126877228Y-69282482D01*
X126839421Y-69404244D01*
X126818937Y-69470213D01*
X126795164Y-69671069D01*
X126460500Y-69671069D01*
X126460500Y-68916782D01*
X126450358Y-68847888D01*
X126398932Y-68743145D01*
X126356195Y-68700483D01*
X126323602Y-68667946D01*
X126323601Y-68667945D01*
X126316350Y-68660707D01*
X126307145Y-68656208D01*
X126307143Y-68656206D01*
X126240748Y-68623752D01*
X126211518Y-68609464D01*
X126201994Y-68608075D01*
X126201992Y-68608074D01*
X126147669Y-68600149D01*
X126147664Y-68600149D01*
X126143218Y-68599500D01*
X124576782Y-68599500D01*
X124507888Y-68609642D01*
X124403145Y-68661068D01*
X124320707Y-68743650D01*
X124316208Y-68752855D01*
X124316206Y-68752857D01*
X124291002Y-68804419D01*
X124269464Y-68848482D01*
X124268075Y-68858006D01*
X124268074Y-68858008D01*
X124260542Y-68909642D01*
X124259500Y-68916782D01*
X124259500Y-70483218D01*
X124269642Y-70552112D01*
X124321068Y-70656855D01*
X124396021Y-70731677D01*
X124403650Y-70739293D01*
X124402023Y-70740923D01*
X124436502Y-70784840D01*
X124443087Y-70854399D01*
X124409028Y-70918514D01*
X122539361Y-72788181D01*
X122478038Y-72821666D01*
X122451680Y-72824500D01*
X120376610Y-72824500D01*
X120309571Y-72804815D01*
X120263816Y-72752011D01*
X120253872Y-72682853D01*
X120282897Y-72619297D01*
X120288929Y-72612819D01*
X120553216Y-72348531D01*
X120553219Y-72348529D01*
X120648528Y-72253220D01*
X120659492Y-72231701D01*
X120669654Y-72215120D01*
X120678111Y-72203479D01*
X120678112Y-72203478D01*
X120683849Y-72195581D01*
X120691311Y-72172616D01*
X120698754Y-72154647D01*
X120709719Y-72133126D01*
X120713496Y-72109279D01*
X120718036Y-72090364D01*
X120725500Y-72067393D01*
X120725500Y-69802610D01*
X120745185Y-69735571D01*
X120761819Y-69714929D01*
X120848528Y-69628220D01*
X120859490Y-69606705D01*
X120869655Y-69590118D01*
X120878113Y-69578478D01*
X120878115Y-69578475D01*
X120883850Y-69570581D01*
X120891313Y-69547611D01*
X120898758Y-69529638D01*
X120905289Y-69516820D01*
X120909719Y-69508126D01*
X120913497Y-69484274D01*
X120918038Y-69465358D01*
X120918223Y-69464790D01*
X120925500Y-69442393D01*
X120925500Y-68932607D01*
X120918037Y-68909636D01*
X120913497Y-68890726D01*
X120911246Y-68876513D01*
X120911245Y-68876511D01*
X120909719Y-68866874D01*
X120898757Y-68845359D01*
X120891313Y-68827388D01*
X120886866Y-68813701D01*
X120886866Y-68813700D01*
X120883850Y-68804419D01*
X120878115Y-68796525D01*
X120878113Y-68796522D01*
X120869655Y-68784882D01*
X120859490Y-68768295D01*
X120848528Y-68746780D01*
X120761819Y-68660071D01*
X120728334Y-68598748D01*
X120725500Y-68572390D01*
X120725500Y-59627610D01*
X120745185Y-59560571D01*
X120761819Y-59539929D01*
X121739929Y-58561819D01*
X121801252Y-58528334D01*
X121827610Y-58525500D01*
X128967393Y-58525500D01*
X128990364Y-58518036D01*
X129009279Y-58513496D01*
X129023487Y-58511246D01*
X129023489Y-58511245D01*
X129033126Y-58509719D01*
X129054647Y-58498754D01*
X129072616Y-58491311D01*
X129086302Y-58486864D01*
X129095581Y-58483849D01*
X129103469Y-58478118D01*
X129103473Y-58478116D01*
X129115119Y-58469654D01*
X129131703Y-58459491D01*
X129153220Y-58448528D01*
X130348528Y-57253220D01*
X130359491Y-57231703D01*
X130369654Y-57215119D01*
X130378116Y-57203473D01*
X130378118Y-57203469D01*
X130383849Y-57195581D01*
X130391311Y-57172616D01*
X130398754Y-57154647D01*
X130409719Y-57133126D01*
X130413496Y-57109279D01*
X130418036Y-57090364D01*
X130425500Y-57067393D01*
X130425500Y-56750254D01*
X130445185Y-56683215D01*
X130491517Y-56643443D01*
X130490379Y-56641410D01*
X130677931Y-56536376D01*
X130677932Y-56536375D01*
X130682884Y-56533602D01*
X130852518Y-56392518D01*
X130910334Y-56323002D01*
X130989971Y-56227250D01*
X130989972Y-56227249D01*
X130993602Y-56222884D01*
X131101410Y-56030379D01*
X131172331Y-55821452D01*
X131174083Y-55809373D01*
X131203468Y-55606703D01*
X131203991Y-55603098D01*
X131205643Y-55540000D01*
X131185454Y-55320289D01*
X131125565Y-55107936D01*
X131027980Y-54910053D01*
X130895967Y-54733267D01*
X130733949Y-54583499D01*
X130547350Y-54465764D01*
X130342421Y-54384006D01*
X130336840Y-54382896D01*
X130336837Y-54382895D01*
X130234223Y-54362484D01*
X130126024Y-54340962D01*
X130120337Y-54340888D01*
X130120332Y-54340887D01*
X129911095Y-54338148D01*
X129911090Y-54338148D01*
X129905406Y-54338074D01*
X129899802Y-54339037D01*
X129899801Y-54339037D01*
X129693560Y-54374475D01*
X129693557Y-54374476D01*
X129687957Y-54375438D01*
X129480957Y-54451804D01*
X129291341Y-54564614D01*
X129125457Y-54710090D01*
X128988863Y-54883360D01*
X128886131Y-55078620D01*
X128884444Y-55084053D01*
X128848429Y-55200040D01*
X128809750Y-55258226D01*
X128745753Y-55286264D01*
X128676757Y-55275252D01*
X128624667Y-55228685D01*
X128610662Y-55196926D01*
X128587107Y-55113405D01*
X128585565Y-55107936D01*
X128487980Y-54910053D01*
X128355967Y-54733267D01*
X128193949Y-54583499D01*
X128007350Y-54465764D01*
X127802421Y-54384006D01*
X127803117Y-54382261D01*
X127751559Y-54348955D01*
X127722684Y-54285331D01*
X127732790Y-54216197D01*
X127778669Y-54163500D01*
X127805605Y-54150554D01*
X127944989Y-54103240D01*
X127944992Y-54103239D01*
X127950379Y-54101410D01*
X128131460Y-54000000D01*
X128137931Y-53996376D01*
X128137932Y-53996375D01*
X128142884Y-53993602D01*
X128182369Y-53960763D01*
X128305105Y-53858683D01*
X129000001Y-53858683D01*
X129001189Y-53870748D01*
X129006320Y-53896546D01*
X129015489Y-53918684D01*
X129035072Y-53947991D01*
X129052009Y-53964928D01*
X129081318Y-53984511D01*
X129103452Y-53993680D01*
X129129246Y-53998811D01*
X129141320Y-54000000D01*
X129732170Y-54000000D01*
X129747169Y-53995596D01*
X129748356Y-53994226D01*
X129750000Y-53986668D01*
X129750000Y-53982169D01*
X130250000Y-53982169D01*
X130254404Y-53997168D01*
X130255774Y-53998355D01*
X130263332Y-53999999D01*
X130858683Y-53999999D01*
X130870748Y-53998811D01*
X130896546Y-53993680D01*
X130918684Y-53984511D01*
X130947991Y-53964928D01*
X130964928Y-53947991D01*
X130984511Y-53918682D01*
X130993680Y-53896548D01*
X130998811Y-53870754D01*
X131000000Y-53858680D01*
X131000000Y-53267830D01*
X130995596Y-53252831D01*
X130994226Y-53251644D01*
X130986668Y-53250000D01*
X130267830Y-53250000D01*
X130252831Y-53254404D01*
X130251644Y-53255774D01*
X130250000Y-53263332D01*
X130250000Y-53982169D01*
X129750000Y-53982169D01*
X129750000Y-53267830D01*
X129745596Y-53252831D01*
X129744226Y-53251644D01*
X129736668Y-53250000D01*
X129017831Y-53250000D01*
X129002832Y-53254404D01*
X129001645Y-53255774D01*
X129000001Y-53263332D01*
X129000001Y-53858683D01*
X128305105Y-53858683D01*
X128308151Y-53856150D01*
X128312518Y-53852518D01*
X128372421Y-53780493D01*
X128449971Y-53687250D01*
X128449972Y-53687249D01*
X128453602Y-53682884D01*
X128561410Y-53490379D01*
X128632331Y-53281452D01*
X128634083Y-53269373D01*
X128663468Y-53066703D01*
X128663991Y-53063098D01*
X128665643Y-53000000D01*
X128645454Y-52780289D01*
X128631883Y-52732170D01*
X129000000Y-52732170D01*
X129004404Y-52747169D01*
X129005774Y-52748356D01*
X129013332Y-52750000D01*
X129732170Y-52750000D01*
X129747169Y-52745596D01*
X129748356Y-52744226D01*
X129750000Y-52736668D01*
X129750000Y-52732170D01*
X130250000Y-52732170D01*
X130254404Y-52747169D01*
X130255774Y-52748356D01*
X130263332Y-52750000D01*
X130982169Y-52750000D01*
X130997168Y-52745596D01*
X130998355Y-52744226D01*
X130999999Y-52736668D01*
X130999999Y-52141317D01*
X130998811Y-52129252D01*
X130993680Y-52103454D01*
X130984511Y-52081316D01*
X130964928Y-52052009D01*
X130947991Y-52035072D01*
X130918682Y-52015489D01*
X130896548Y-52006320D01*
X130870754Y-52001189D01*
X130858680Y-52000000D01*
X130267830Y-52000000D01*
X130252831Y-52004404D01*
X130251644Y-52005774D01*
X130250000Y-52013332D01*
X130250000Y-52732170D01*
X129750000Y-52732170D01*
X129750000Y-52017831D01*
X129745596Y-52002832D01*
X129744226Y-52001645D01*
X129736668Y-52000001D01*
X129141317Y-52000001D01*
X129129252Y-52001189D01*
X129103454Y-52006320D01*
X129081316Y-52015489D01*
X129052009Y-52035072D01*
X129035072Y-52052009D01*
X129015489Y-52081318D01*
X129006320Y-52103452D01*
X129001189Y-52129246D01*
X129000000Y-52141320D01*
X129000000Y-52732170D01*
X128631883Y-52732170D01*
X128585565Y-52567936D01*
X128487980Y-52370053D01*
X128355967Y-52193267D01*
X128193949Y-52043499D01*
X128135024Y-52006320D01*
X128012159Y-51928798D01*
X128012157Y-51928797D01*
X128007350Y-51925764D01*
X127802421Y-51844006D01*
X127796840Y-51842896D01*
X127796837Y-51842895D01*
X127694223Y-51822484D01*
X127586024Y-51800962D01*
X127580337Y-51800888D01*
X127580332Y-51800887D01*
X127371095Y-51798148D01*
X127371090Y-51798148D01*
X127365406Y-51798074D01*
X127359802Y-51799037D01*
X127359801Y-51799037D01*
X127153560Y-51834475D01*
X127153557Y-51834476D01*
X127147957Y-51835438D01*
X126940957Y-51911804D01*
X126912393Y-51928798D01*
X126766679Y-52015489D01*
X126751341Y-52024614D01*
X126585457Y-52170090D01*
X126448863Y-52343360D01*
X126346131Y-52538620D01*
X126344444Y-52544053D01*
X126308429Y-52660040D01*
X126269750Y-52718226D01*
X126205753Y-52746264D01*
X126136757Y-52735252D01*
X126084667Y-52688685D01*
X126070662Y-52656926D01*
X126047107Y-52573405D01*
X126045565Y-52567936D01*
X125947980Y-52370053D01*
X125815967Y-52193267D01*
X125653949Y-52043499D01*
X125595024Y-52006320D01*
X125472159Y-51928798D01*
X125472157Y-51928797D01*
X125467350Y-51925764D01*
X125262421Y-51844006D01*
X125256840Y-51842896D01*
X125256837Y-51842895D01*
X125154223Y-51822484D01*
X125046024Y-51800962D01*
X125040337Y-51800888D01*
X125040332Y-51800887D01*
X124831095Y-51798148D01*
X124831090Y-51798148D01*
X124825406Y-51798074D01*
X124819802Y-51799037D01*
X124819801Y-51799037D01*
X124613560Y-51834475D01*
X124613557Y-51834476D01*
X124607957Y-51835438D01*
X124562108Y-51852352D01*
X124492402Y-51857087D01*
X124431511Y-51823697D01*
X123903375Y-51295561D01*
X123895872Y-51286172D01*
X123895510Y-51286480D01*
X123889785Y-51279754D01*
X123885070Y-51272280D01*
X123845357Y-51237207D01*
X123839759Y-51231945D01*
X123828494Y-51220680D01*
X123820262Y-51214510D01*
X123812543Y-51208227D01*
X123784233Y-51183224D01*
X123784231Y-51183223D01*
X123777612Y-51177377D01*
X123769616Y-51173623D01*
X123767211Y-51172043D01*
X123752429Y-51163160D01*
X123749892Y-51161771D01*
X123742824Y-51156474D01*
X123699187Y-51140115D01*
X123690032Y-51136258D01*
X123647837Y-51116447D01*
X123639103Y-51115087D01*
X123636325Y-51114238D01*
X123619678Y-51109870D01*
X123616848Y-51109248D01*
X123608580Y-51106148D01*
X123599776Y-51105494D01*
X123599773Y-51105493D01*
X123571602Y-51103400D01*
X123562097Y-51102694D01*
X123552227Y-51101561D01*
X123538991Y-51099500D01*
X123523715Y-51099500D01*
X123514526Y-51099159D01*
X123514476Y-51099155D01*
X123465608Y-51095524D01*
X123456968Y-51097368D01*
X123448846Y-51097922D01*
X123433894Y-51099500D01*
X121869960Y-51099500D01*
X121858014Y-51098165D01*
X121857976Y-51098639D01*
X121849167Y-51097930D01*
X121840552Y-51095981D01*
X121831735Y-51096528D01*
X121831734Y-51096528D01*
X121787671Y-51099262D01*
X121779992Y-51099500D01*
X121764060Y-51099500D01*
X121759692Y-51100126D01*
X121759686Y-51100126D01*
X121753870Y-51100959D01*
X121743971Y-51101973D01*
X121711548Y-51103985D01*
X121706278Y-51104312D01*
X121697462Y-51104859D01*
X121689151Y-51107860D01*
X121686319Y-51108446D01*
X121669616Y-51112610D01*
X121666832Y-51113424D01*
X121658082Y-51114677D01*
X121615652Y-51133969D01*
X121606446Y-51137716D01*
X121570925Y-51150539D01*
X121570923Y-51150540D01*
X121562613Y-51153540D01*
X121555475Y-51158755D01*
X121552915Y-51160116D01*
X121538045Y-51168805D01*
X121535615Y-51170359D01*
X121527572Y-51174016D01*
X121516886Y-51183224D01*
X121492259Y-51204444D01*
X121484469Y-51210629D01*
X121473664Y-51218522D01*
X121462864Y-51229322D01*
X121456125Y-51235579D01*
X121425655Y-51261833D01*
X121425652Y-51261836D01*
X121418963Y-51267600D01*
X121414157Y-51275015D01*
X121408815Y-51281139D01*
X121399349Y-51292837D01*
X121029005Y-51663181D01*
X120967682Y-51696666D01*
X120941324Y-51699500D01*
X119624000Y-51699500D01*
X119556961Y-51679815D01*
X119511206Y-51627011D01*
X119500000Y-51575500D01*
X119500000Y-50474500D01*
X119519685Y-50407461D01*
X119572489Y-50361706D01*
X119624000Y-50350500D01*
X132962659Y-50350500D01*
X132982056Y-50352027D01*
G37*
G04 #@! TD.AperFunction*
M02*
