G04 #@! TF.GenerationSoftware,KiCad,Pcbnew,(2017-06-16 revision 2018d4894)-master*
G04 #@! TF.CreationDate,2017-08-18T11:46:34+02:00*
G04 #@! TF.ProjectId,reference_board,7265666572656E63655F626F6172642E,rev?*
G04 #@! TF.SameCoordinates,Original
G04 #@! TF.FileFunction,Legend,Bot*
G04 #@! TF.FilePolarity,Positive*
%FSLAX46Y46*%
G04 Gerber Fmt 4.6, Leading zero omitted, Abs format (unit mm)*
G04 Created by KiCad (PCBNEW (2017-06-16 revision 2018d4894)-master) date Fri Aug 18 11:46:34 2017*
%MOMM*%
%LPD*%
G01*
G04 APERTURE LIST*
%ADD10C,0.100000*%
%ADD11C,0.150000*%
%ADD12C,0.120000*%
G04 APERTURE END LIST*
D10*
D11*
X193581071Y-84736904D02*
X193962023Y-84736904D01*
X193962023Y-83936904D01*
X193314404Y-84736904D02*
X193314404Y-83936904D01*
X193047738Y-84508333D01*
X192781071Y-83936904D01*
X192781071Y-84736904D01*
X192476309Y-83936904D02*
X191981071Y-83936904D01*
X192247738Y-84241666D01*
X192133452Y-84241666D01*
X192057261Y-84279761D01*
X192019166Y-84317857D01*
X191981071Y-84394047D01*
X191981071Y-84584523D01*
X192019166Y-84660714D01*
X192057261Y-84698809D01*
X192133452Y-84736904D01*
X192362023Y-84736904D01*
X192438214Y-84698809D01*
X192476309Y-84660714D01*
X191600119Y-84736904D02*
X191447738Y-84736904D01*
X191371547Y-84698809D01*
X191333452Y-84660714D01*
X191257261Y-84546428D01*
X191219166Y-84394047D01*
X191219166Y-84089285D01*
X191257261Y-84013095D01*
X191295357Y-83975000D01*
X191371547Y-83936904D01*
X191523928Y-83936904D01*
X191600119Y-83975000D01*
X191638214Y-84013095D01*
X191676309Y-84089285D01*
X191676309Y-84279761D01*
X191638214Y-84355952D01*
X191600119Y-84394047D01*
X191523928Y-84432142D01*
X191371547Y-84432142D01*
X191295357Y-84394047D01*
X191257261Y-84355952D01*
X191219166Y-84279761D01*
X190838214Y-84736904D02*
X190685833Y-84736904D01*
X190609642Y-84698809D01*
X190571547Y-84660714D01*
X190495357Y-84546428D01*
X190457261Y-84394047D01*
X190457261Y-84089285D01*
X190495357Y-84013095D01*
X190533452Y-83975000D01*
X190609642Y-83936904D01*
X190762023Y-83936904D01*
X190838214Y-83975000D01*
X190876309Y-84013095D01*
X190914404Y-84089285D01*
X190914404Y-84279761D01*
X190876309Y-84355952D01*
X190838214Y-84394047D01*
X190762023Y-84432142D01*
X190609642Y-84432142D01*
X190533452Y-84394047D01*
X190495357Y-84355952D01*
X190457261Y-84279761D01*
X189085833Y-84736904D02*
X189542976Y-84736904D01*
X189314404Y-84736904D02*
X189314404Y-83936904D01*
X189390595Y-84051190D01*
X189466785Y-84127380D01*
X189542976Y-84165476D01*
X188590595Y-83936904D02*
X188514404Y-83936904D01*
X188438214Y-83975000D01*
X188400119Y-84013095D01*
X188362023Y-84089285D01*
X188323928Y-84241666D01*
X188323928Y-84432142D01*
X188362023Y-84584523D01*
X188400119Y-84660714D01*
X188438214Y-84698809D01*
X188514404Y-84736904D01*
X188590595Y-84736904D01*
X188666785Y-84698809D01*
X188704880Y-84660714D01*
X188742976Y-84584523D01*
X188781071Y-84432142D01*
X188781071Y-84241666D01*
X188742976Y-84089285D01*
X188704880Y-84013095D01*
X188666785Y-83975000D01*
X188590595Y-83936904D01*
X187485833Y-83936904D02*
X187219166Y-84736904D01*
X186952500Y-83936904D01*
X185619166Y-84736904D02*
X185885833Y-84355952D01*
X186076309Y-84736904D02*
X186076309Y-83936904D01*
X185771547Y-83936904D01*
X185695357Y-83975000D01*
X185657261Y-84013095D01*
X185619166Y-84089285D01*
X185619166Y-84203571D01*
X185657261Y-84279761D01*
X185695357Y-84317857D01*
X185771547Y-84355952D01*
X186076309Y-84355952D01*
X184971547Y-84698809D02*
X185047738Y-84736904D01*
X185200119Y-84736904D01*
X185276309Y-84698809D01*
X185314404Y-84622619D01*
X185314404Y-84317857D01*
X185276309Y-84241666D01*
X185200119Y-84203571D01*
X185047738Y-84203571D01*
X184971547Y-84241666D01*
X184933452Y-84317857D01*
X184933452Y-84394047D01*
X185314404Y-84470238D01*
X184704880Y-84203571D02*
X184400119Y-84203571D01*
X184590595Y-84736904D02*
X184590595Y-84051190D01*
X184552500Y-83975000D01*
X184476309Y-83936904D01*
X184400119Y-83936904D01*
X183828690Y-84698809D02*
X183904880Y-84736904D01*
X184057261Y-84736904D01*
X184133452Y-84698809D01*
X184171547Y-84622619D01*
X184171547Y-84317857D01*
X184133452Y-84241666D01*
X184057261Y-84203571D01*
X183904880Y-84203571D01*
X183828690Y-84241666D01*
X183790595Y-84317857D01*
X183790595Y-84394047D01*
X184171547Y-84470238D01*
X183447738Y-84736904D02*
X183447738Y-84203571D01*
X183447738Y-84355952D02*
X183409642Y-84279761D01*
X183371547Y-84241666D01*
X183295357Y-84203571D01*
X183219166Y-84203571D01*
X182647738Y-84698809D02*
X182723928Y-84736904D01*
X182876309Y-84736904D01*
X182952500Y-84698809D01*
X182990595Y-84622619D01*
X182990595Y-84317857D01*
X182952500Y-84241666D01*
X182876309Y-84203571D01*
X182723928Y-84203571D01*
X182647738Y-84241666D01*
X182609642Y-84317857D01*
X182609642Y-84394047D01*
X182990595Y-84470238D01*
X182266785Y-84203571D02*
X182266785Y-84736904D01*
X182266785Y-84279761D02*
X182228690Y-84241666D01*
X182152500Y-84203571D01*
X182038214Y-84203571D01*
X181962023Y-84241666D01*
X181923928Y-84317857D01*
X181923928Y-84736904D01*
X181200119Y-84698809D02*
X181276309Y-84736904D01*
X181428690Y-84736904D01*
X181504880Y-84698809D01*
X181542976Y-84660714D01*
X181581071Y-84584523D01*
X181581071Y-84355952D01*
X181542976Y-84279761D01*
X181504880Y-84241666D01*
X181428690Y-84203571D01*
X181276309Y-84203571D01*
X181200119Y-84241666D01*
X180552500Y-84698809D02*
X180628690Y-84736904D01*
X180781071Y-84736904D01*
X180857261Y-84698809D01*
X180895357Y-84622619D01*
X180895357Y-84317857D01*
X180857261Y-84241666D01*
X180781071Y-84203571D01*
X180628690Y-84203571D01*
X180552500Y-84241666D01*
X180514404Y-84317857D01*
X180514404Y-84394047D01*
X180895357Y-84470238D01*
X193962023Y-86086904D02*
X193962023Y-85286904D01*
X193771547Y-85286904D01*
X193657261Y-85325000D01*
X193581071Y-85401190D01*
X193542976Y-85477380D01*
X193504880Y-85629761D01*
X193504880Y-85744047D01*
X193542976Y-85896428D01*
X193581071Y-85972619D01*
X193657261Y-86048809D01*
X193771547Y-86086904D01*
X193962023Y-86086904D01*
X192857261Y-86048809D02*
X192933452Y-86086904D01*
X193085833Y-86086904D01*
X193162023Y-86048809D01*
X193200119Y-85972619D01*
X193200119Y-85667857D01*
X193162023Y-85591666D01*
X193085833Y-85553571D01*
X192933452Y-85553571D01*
X192857261Y-85591666D01*
X192819166Y-85667857D01*
X192819166Y-85744047D01*
X193200119Y-85820238D01*
X192514404Y-86048809D02*
X192438214Y-86086904D01*
X192285833Y-86086904D01*
X192209642Y-86048809D01*
X192171547Y-85972619D01*
X192171547Y-85934523D01*
X192209642Y-85858333D01*
X192285833Y-85820238D01*
X192400119Y-85820238D01*
X192476309Y-85782142D01*
X192514404Y-85705952D01*
X192514404Y-85667857D01*
X192476309Y-85591666D01*
X192400119Y-85553571D01*
X192285833Y-85553571D01*
X192209642Y-85591666D01*
X191828690Y-86086904D02*
X191828690Y-85553571D01*
X191828690Y-85286904D02*
X191866785Y-85325000D01*
X191828690Y-85363095D01*
X191790595Y-85325000D01*
X191828690Y-85286904D01*
X191828690Y-85363095D01*
X191104880Y-85553571D02*
X191104880Y-86201190D01*
X191142976Y-86277380D01*
X191181071Y-86315476D01*
X191257261Y-86353571D01*
X191371547Y-86353571D01*
X191447738Y-86315476D01*
X191104880Y-86048809D02*
X191181071Y-86086904D01*
X191333452Y-86086904D01*
X191409642Y-86048809D01*
X191447738Y-86010714D01*
X191485833Y-85934523D01*
X191485833Y-85705952D01*
X191447738Y-85629761D01*
X191409642Y-85591666D01*
X191333452Y-85553571D01*
X191181071Y-85553571D01*
X191104880Y-85591666D01*
X190723928Y-85553571D02*
X190723928Y-86086904D01*
X190723928Y-85629761D02*
X190685833Y-85591666D01*
X190609642Y-85553571D01*
X190495357Y-85553571D01*
X190419166Y-85591666D01*
X190381071Y-85667857D01*
X190381071Y-86086904D01*
X190000119Y-86010714D02*
X189962023Y-86048809D01*
X190000119Y-86086904D01*
X190038214Y-86048809D01*
X190000119Y-86010714D01*
X190000119Y-86086904D01*
X190000119Y-85591666D02*
X189962023Y-85629761D01*
X190000119Y-85667857D01*
X190038214Y-85629761D01*
X190000119Y-85591666D01*
X190000119Y-85667857D01*
X189009642Y-86086904D02*
X189009642Y-85286904D01*
X188704880Y-85286904D01*
X188628690Y-85325000D01*
X188590595Y-85363095D01*
X188552500Y-85439285D01*
X188552500Y-85553571D01*
X188590595Y-85629761D01*
X188628690Y-85667857D01*
X188704880Y-85705952D01*
X189009642Y-85705952D01*
X187866785Y-86086904D02*
X187866785Y-85667857D01*
X187904880Y-85591666D01*
X187981071Y-85553571D01*
X188133452Y-85553571D01*
X188209642Y-85591666D01*
X187866785Y-86048809D02*
X187942976Y-86086904D01*
X188133452Y-86086904D01*
X188209642Y-86048809D01*
X188247738Y-85972619D01*
X188247738Y-85896428D01*
X188209642Y-85820238D01*
X188133452Y-85782142D01*
X187942976Y-85782142D01*
X187866785Y-85744047D01*
X187600119Y-85553571D02*
X187295357Y-85553571D01*
X187485833Y-85286904D02*
X187485833Y-85972619D01*
X187447738Y-86048809D01*
X187371547Y-86086904D01*
X187295357Y-86086904D01*
X187028690Y-86086904D02*
X187028690Y-85553571D01*
X187028690Y-85705952D02*
X186990595Y-85629761D01*
X186952500Y-85591666D01*
X186876309Y-85553571D01*
X186800119Y-85553571D01*
X186533452Y-86086904D02*
X186533452Y-85553571D01*
X186533452Y-85286904D02*
X186571547Y-85325000D01*
X186533452Y-85363095D01*
X186495357Y-85325000D01*
X186533452Y-85286904D01*
X186533452Y-85363095D01*
X185809642Y-86048809D02*
X185885833Y-86086904D01*
X186038214Y-86086904D01*
X186114404Y-86048809D01*
X186152500Y-86010714D01*
X186190595Y-85934523D01*
X186190595Y-85705952D01*
X186152500Y-85629761D01*
X186114404Y-85591666D01*
X186038214Y-85553571D01*
X185885833Y-85553571D01*
X185809642Y-85591666D01*
X185466785Y-86086904D02*
X185466785Y-85286904D01*
X185390595Y-85782142D02*
X185162023Y-86086904D01*
X185162023Y-85553571D02*
X185466785Y-85858333D01*
X183942976Y-85667857D02*
X183828690Y-85705952D01*
X183790595Y-85744047D01*
X183752500Y-85820238D01*
X183752500Y-85934523D01*
X183790595Y-86010714D01*
X183828690Y-86048809D01*
X183904880Y-86086904D01*
X184209642Y-86086904D01*
X184209642Y-85286904D01*
X183942976Y-85286904D01*
X183866785Y-85325000D01*
X183828690Y-85363095D01*
X183790595Y-85439285D01*
X183790595Y-85515476D01*
X183828690Y-85591666D01*
X183866785Y-85629761D01*
X183942976Y-85667857D01*
X184209642Y-85667857D01*
X183066785Y-86086904D02*
X183066785Y-85667857D01*
X183104880Y-85591666D01*
X183181071Y-85553571D01*
X183333452Y-85553571D01*
X183409642Y-85591666D01*
X183066785Y-86048809D02*
X183142976Y-86086904D01*
X183333452Y-86086904D01*
X183409642Y-86048809D01*
X183447738Y-85972619D01*
X183447738Y-85896428D01*
X183409642Y-85820238D01*
X183333452Y-85782142D01*
X183142976Y-85782142D01*
X183066785Y-85744047D01*
X182342976Y-85553571D02*
X182342976Y-86086904D01*
X182685833Y-85553571D02*
X182685833Y-85972619D01*
X182647738Y-86048809D01*
X182571547Y-86086904D01*
X182457261Y-86086904D01*
X182381071Y-86048809D01*
X182342976Y-86010714D01*
X182000119Y-86048809D02*
X181923928Y-86086904D01*
X181771547Y-86086904D01*
X181695357Y-86048809D01*
X181657261Y-85972619D01*
X181657261Y-85934523D01*
X181695357Y-85858333D01*
X181771547Y-85820238D01*
X181885833Y-85820238D01*
X181962023Y-85782142D01*
X182000119Y-85705952D01*
X182000119Y-85667857D01*
X181962023Y-85591666D01*
X181885833Y-85553571D01*
X181771547Y-85553571D01*
X181695357Y-85591666D01*
X193962023Y-87436904D02*
X193962023Y-86636904D01*
X193771547Y-86636904D01*
X193657261Y-86675000D01*
X193581071Y-86751190D01*
X193542976Y-86827380D01*
X193504880Y-86979761D01*
X193504880Y-87094047D01*
X193542976Y-87246428D01*
X193581071Y-87322619D01*
X193657261Y-87398809D01*
X193771547Y-87436904D01*
X193962023Y-87436904D01*
X192819166Y-87436904D02*
X192819166Y-87017857D01*
X192857261Y-86941666D01*
X192933452Y-86903571D01*
X193085833Y-86903571D01*
X193162023Y-86941666D01*
X192819166Y-87398809D02*
X192895357Y-87436904D01*
X193085833Y-87436904D01*
X193162023Y-87398809D01*
X193200119Y-87322619D01*
X193200119Y-87246428D01*
X193162023Y-87170238D01*
X193085833Y-87132142D01*
X192895357Y-87132142D01*
X192819166Y-87094047D01*
X192552500Y-86903571D02*
X192247738Y-86903571D01*
X192438214Y-86636904D02*
X192438214Y-87322619D01*
X192400119Y-87398809D01*
X192323928Y-87436904D01*
X192247738Y-87436904D01*
X191676309Y-87398809D02*
X191752500Y-87436904D01*
X191904880Y-87436904D01*
X191981071Y-87398809D01*
X192019166Y-87322619D01*
X192019166Y-87017857D01*
X191981071Y-86941666D01*
X191904880Y-86903571D01*
X191752500Y-86903571D01*
X191676309Y-86941666D01*
X191638214Y-87017857D01*
X191638214Y-87094047D01*
X192019166Y-87170238D01*
X191295357Y-87360714D02*
X191257261Y-87398809D01*
X191295357Y-87436904D01*
X191333452Y-87398809D01*
X191295357Y-87360714D01*
X191295357Y-87436904D01*
X191295357Y-86941666D02*
X191257261Y-86979761D01*
X191295357Y-87017857D01*
X191333452Y-86979761D01*
X191295357Y-86941666D01*
X191295357Y-87017857D01*
X190342976Y-86713095D02*
X190304880Y-86675000D01*
X190228690Y-86636904D01*
X190038214Y-86636904D01*
X189962023Y-86675000D01*
X189923928Y-86713095D01*
X189885833Y-86789285D01*
X189885833Y-86865476D01*
X189923928Y-86979761D01*
X190381071Y-87436904D01*
X189885833Y-87436904D01*
X189390595Y-86636904D02*
X189314404Y-86636904D01*
X189238214Y-86675000D01*
X189200119Y-86713095D01*
X189162023Y-86789285D01*
X189123928Y-86941666D01*
X189123928Y-87132142D01*
X189162023Y-87284523D01*
X189200119Y-87360714D01*
X189238214Y-87398809D01*
X189314404Y-87436904D01*
X189390595Y-87436904D01*
X189466785Y-87398809D01*
X189504880Y-87360714D01*
X189542976Y-87284523D01*
X189581071Y-87132142D01*
X189581071Y-86941666D01*
X189542976Y-86789285D01*
X189504880Y-86713095D01*
X189466785Y-86675000D01*
X189390595Y-86636904D01*
X188362023Y-87436904D02*
X188819166Y-87436904D01*
X188590595Y-87436904D02*
X188590595Y-86636904D01*
X188666785Y-86751190D01*
X188742976Y-86827380D01*
X188819166Y-86865476D01*
X188095357Y-86636904D02*
X187562023Y-86636904D01*
X187904880Y-87436904D01*
X187257261Y-87132142D02*
X186647738Y-87132142D01*
X186114404Y-86636904D02*
X186038214Y-86636904D01*
X185962023Y-86675000D01*
X185923928Y-86713095D01*
X185885833Y-86789285D01*
X185847738Y-86941666D01*
X185847738Y-87132142D01*
X185885833Y-87284523D01*
X185923928Y-87360714D01*
X185962023Y-87398809D01*
X186038214Y-87436904D01*
X186114404Y-87436904D01*
X186190595Y-87398809D01*
X186228690Y-87360714D01*
X186266785Y-87284523D01*
X186304880Y-87132142D01*
X186304880Y-86941666D01*
X186266785Y-86789285D01*
X186228690Y-86713095D01*
X186190595Y-86675000D01*
X186114404Y-86636904D01*
X185581071Y-86636904D02*
X185085833Y-86636904D01*
X185352500Y-86941666D01*
X185238214Y-86941666D01*
X185162023Y-86979761D01*
X185123928Y-87017857D01*
X185085833Y-87094047D01*
X185085833Y-87284523D01*
X185123928Y-87360714D01*
X185162023Y-87398809D01*
X185238214Y-87436904D01*
X185466785Y-87436904D01*
X185542976Y-87398809D01*
X185581071Y-87360714D01*
X194076309Y-87986904D02*
X193809642Y-88786904D01*
X193542976Y-87986904D01*
X192971547Y-88748809D02*
X193047738Y-88786904D01*
X193200119Y-88786904D01*
X193276309Y-88748809D01*
X193314404Y-88672619D01*
X193314404Y-88367857D01*
X193276309Y-88291666D01*
X193200119Y-88253571D01*
X193047738Y-88253571D01*
X192971547Y-88291666D01*
X192933452Y-88367857D01*
X192933452Y-88444047D01*
X193314404Y-88520238D01*
X192590595Y-88786904D02*
X192590595Y-88253571D01*
X192590595Y-88405952D02*
X192552500Y-88329761D01*
X192514404Y-88291666D01*
X192438214Y-88253571D01*
X192362023Y-88253571D01*
X192133452Y-88748809D02*
X192057261Y-88786904D01*
X191904880Y-88786904D01*
X191828690Y-88748809D01*
X191790595Y-88672619D01*
X191790595Y-88634523D01*
X191828690Y-88558333D01*
X191904880Y-88520238D01*
X192019166Y-88520238D01*
X192095357Y-88482142D01*
X192133452Y-88405952D01*
X192133452Y-88367857D01*
X192095357Y-88291666D01*
X192019166Y-88253571D01*
X191904880Y-88253571D01*
X191828690Y-88291666D01*
X191447738Y-88786904D02*
X191447738Y-88253571D01*
X191447738Y-87986904D02*
X191485833Y-88025000D01*
X191447738Y-88063095D01*
X191409642Y-88025000D01*
X191447738Y-87986904D01*
X191447738Y-88063095D01*
X190952500Y-88786904D02*
X191028690Y-88748809D01*
X191066785Y-88710714D01*
X191104880Y-88634523D01*
X191104880Y-88405952D01*
X191066785Y-88329761D01*
X191028690Y-88291666D01*
X190952500Y-88253571D01*
X190838214Y-88253571D01*
X190762023Y-88291666D01*
X190723928Y-88329761D01*
X190685833Y-88405952D01*
X190685833Y-88634523D01*
X190723928Y-88710714D01*
X190762023Y-88748809D01*
X190838214Y-88786904D01*
X190952500Y-88786904D01*
X190342976Y-88253571D02*
X190342976Y-88786904D01*
X190342976Y-88329761D02*
X190304880Y-88291666D01*
X190228690Y-88253571D01*
X190114404Y-88253571D01*
X190038214Y-88291666D01*
X190000119Y-88367857D01*
X190000119Y-88786904D01*
X189619166Y-88710714D02*
X189581071Y-88748809D01*
X189619166Y-88786904D01*
X189657261Y-88748809D01*
X189619166Y-88710714D01*
X189619166Y-88786904D01*
X189619166Y-88291666D02*
X189581071Y-88329761D01*
X189619166Y-88367857D01*
X189657261Y-88329761D01*
X189619166Y-88291666D01*
X189619166Y-88367857D01*
X188209642Y-88786904D02*
X188666785Y-88786904D01*
X188438214Y-88786904D02*
X188438214Y-87986904D01*
X188514404Y-88101190D01*
X188590595Y-88177380D01*
X188666785Y-88215476D01*
X187866785Y-88710714D02*
X187828690Y-88748809D01*
X187866785Y-88786904D01*
X187904880Y-88748809D01*
X187866785Y-88710714D01*
X187866785Y-88786904D01*
X187066785Y-88786904D02*
X187523928Y-88786904D01*
X187295357Y-88786904D02*
X187295357Y-87986904D01*
X187371547Y-88101190D01*
X187447738Y-88177380D01*
X187523928Y-88215476D01*
D12*
X177770000Y-85630000D02*
X170090000Y-85630000D01*
X170090000Y-85630000D02*
X170090000Y-90830000D01*
X170090000Y-90830000D02*
X180370000Y-90830000D01*
X180370000Y-90830000D02*
X180370000Y-88230000D01*
X180370000Y-88230000D02*
X177770000Y-88230000D01*
X177770000Y-88230000D02*
X177770000Y-85630000D01*
X179040000Y-85630000D02*
X180370000Y-85630000D01*
X180370000Y-85630000D02*
X180370000Y-86900000D01*
D11*
X180822380Y-87896666D02*
X181536666Y-87896666D01*
X181679523Y-87849047D01*
X181774761Y-87753809D01*
X181822380Y-87610952D01*
X181822380Y-87515714D01*
X181822380Y-88896666D02*
X181822380Y-88325238D01*
X181822380Y-88610952D02*
X180822380Y-88610952D01*
X180965238Y-88515714D01*
X181060476Y-88420476D01*
X181108095Y-88325238D01*
M02*
