G04 #@! TF.GenerationSoftware,KiCad,Pcbnew,5.1.5*
G04 #@! TF.CreationDate,2020-02-06T16:59:33+01:00*
G04 #@! TF.ProjectId,reference_board,72656665-7265-46e6-9365-5f626f617264,v3.2.1*
G04 #@! TF.SameCoordinates,Original*
G04 #@! TF.FileFunction,Copper,L2,Bot*
G04 #@! TF.FilePolarity,Positive*
%FSLAX46Y46*%
G04 Gerber Fmt 4.6, Leading zero omitted, Abs format (unit mm)*
G04 Created by KiCad (PCBNEW 5.1.5) date 2020-02-06 16:59:33*
%MOMM*%
%LPD*%
G04 APERTURE LIST*
%ADD10C,0.100000*%
%ADD11O,1.600000X1.200000*%
%ADD12C,1.200000*%
%ADD13C,0.250000*%
%ADD14C,0.150000*%
%ADD15C,4.700000*%
%ADD16C,1.500000*%
%ADD17R,1.500000X1.500000*%
%ADD18O,1.700000X1.700000*%
%ADD19R,1.700000X1.700000*%
%ADD20C,0.800000*%
%ADD21C,0.300000*%
%ADD22C,0.150000*%
%ADD23C,0.250000*%
G04 APERTURE END LIST*
D10*
G36*
X156025000Y-95500000D02*
G01*
X155775000Y-95500000D01*
X155775000Y-96000000D01*
X156025000Y-96000000D01*
X156025000Y-95500000D01*
G37*
G36*
X156375000Y-96000000D02*
G01*
X156375000Y-95600000D01*
X156225000Y-95600000D01*
X156225000Y-96000000D01*
X156375000Y-96000000D01*
G37*
D11*
X156700000Y-95000000D03*
D12*
X157970000Y-96270000D03*
X157970000Y-93730000D03*
X159240000Y-95000000D03*
D13*
X155900000Y-96000000D03*
X155900000Y-95500000D03*
D14*
X156300000Y-96000000D03*
X156300000Y-95600000D03*
D15*
X153000000Y-105000000D03*
D16*
X179440000Y-102700000D03*
X176900000Y-102700000D03*
D17*
X174360000Y-102700000D03*
D18*
X171380000Y-88540000D03*
X171380000Y-86000000D03*
X173920000Y-88540000D03*
X173920000Y-86000000D03*
X176460000Y-88540000D03*
X176460000Y-86000000D03*
X179000000Y-88540000D03*
D19*
X179000000Y-86000000D03*
D20*
X180600000Y-93200000D03*
X169800000Y-83900000D03*
X170200000Y-94500000D03*
X170200000Y-97700000D03*
X168900000Y-102200000D03*
D21*
X159240000Y-91840000D02*
X159240000Y-95000000D01*
X158200000Y-90800000D02*
X159240000Y-91840000D01*
X158200000Y-87000000D02*
X158200000Y-90800000D01*
X159500000Y-85700000D02*
X158200000Y-87000000D01*
X168900000Y-85700000D02*
X159500000Y-85700000D01*
X170475000Y-87275000D02*
X168900000Y-85700000D01*
X173860000Y-88540000D02*
X172595000Y-87275000D01*
X173920000Y-88540000D02*
X173860000Y-88540000D01*
X172595000Y-87275000D02*
X170475000Y-87275000D01*
X157970000Y-91270000D02*
X157970000Y-93730000D01*
X157700000Y-91000000D02*
X157970000Y-91270000D01*
X173900000Y-86000000D02*
X172500000Y-84600000D01*
X173920000Y-86000000D02*
X173900000Y-86000000D01*
X170800000Y-84600000D02*
X170200000Y-85200000D01*
X172500000Y-84600000D02*
X170800000Y-84600000D01*
X157700000Y-86800000D02*
X157700000Y-91000000D01*
X159300000Y-85200000D02*
X157700000Y-86800000D01*
X170200000Y-85200000D02*
X159300000Y-85200000D01*
D22*
X158000000Y-103500000D02*
X160400000Y-105900000D01*
X156300000Y-96000000D02*
X156300000Y-97800000D01*
X158000000Y-99500000D02*
X158000000Y-103500000D01*
X160400000Y-105900000D02*
X168400000Y-105900000D01*
X156300000Y-97800000D02*
X158000000Y-99500000D01*
X168400000Y-105900000D02*
X169300000Y-105000000D01*
X179000000Y-90000000D02*
X179000000Y-88540000D01*
X177900000Y-91100000D02*
X179000000Y-90000000D01*
X169300000Y-102850000D02*
X169600000Y-102550000D01*
X169300000Y-105000000D02*
X169300000Y-102850000D01*
X170600000Y-91100000D02*
X177900000Y-91100000D01*
X169300000Y-92400000D02*
X170600000Y-91100000D01*
X169600000Y-101900000D02*
X169300000Y-101600000D01*
X169300000Y-101600000D02*
X169300000Y-92400000D01*
X169600000Y-102550000D02*
X169600000Y-101900000D01*
X156500000Y-95000000D02*
X156730000Y-95000000D01*
X156730000Y-95000000D02*
X156730000Y-95170000D01*
X156730000Y-95170000D02*
X156300000Y-95600000D01*
X156730000Y-95000000D02*
X156730000Y-95230000D01*
D23*
X156400000Y-95000000D02*
X155900000Y-95500000D01*
X156730000Y-95000000D02*
X156400000Y-95000000D01*
X176460000Y-90140000D02*
X176460000Y-88540000D01*
X175900000Y-90700000D02*
X176460000Y-90140000D01*
X160500000Y-105500000D02*
X158400000Y-103400000D01*
X168200000Y-105500000D02*
X160500000Y-105500000D01*
X158400000Y-103400000D02*
X158400000Y-99400000D01*
X168900000Y-104800000D02*
X168200000Y-105500000D01*
X168900000Y-92200000D02*
X170400000Y-90700000D01*
X170400000Y-90700000D02*
X175900000Y-90700000D01*
X168900000Y-102200000D02*
X168900000Y-104800000D01*
X156730000Y-97730000D02*
X156730000Y-95000000D01*
X158400000Y-99400000D02*
X156730000Y-97730000D01*
X168900000Y-102200000D02*
X168900000Y-92200000D01*
X174360000Y-103640000D02*
X174360000Y-102700000D01*
X171700000Y-106300000D02*
X174360000Y-103640000D01*
X155900000Y-97900000D02*
X157600000Y-99600000D01*
X157600000Y-99600000D02*
X157600000Y-103600000D01*
X155900000Y-96000000D02*
X155900000Y-97900000D01*
X157600000Y-103600000D02*
X160300000Y-106300000D01*
X160300000Y-106300000D02*
X171700000Y-106300000D01*
G36*
X182450001Y-107450000D02*
G01*
X171425000Y-107450000D01*
X171425000Y-106900000D01*
X171670526Y-106900000D01*
X171700000Y-106902903D01*
X171729474Y-106900000D01*
X171817621Y-106891318D01*
X171930721Y-106857010D01*
X172034955Y-106801296D01*
X172126317Y-106726317D01*
X172145113Y-106703414D01*
X174763420Y-104085108D01*
X174786317Y-104066317D01*
X174861296Y-103974955D01*
X174886769Y-103927298D01*
X175110000Y-103927298D01*
X175203116Y-103918127D01*
X175292654Y-103890966D01*
X175375173Y-103846859D01*
X175447501Y-103787501D01*
X175506859Y-103715173D01*
X175550966Y-103632654D01*
X175578127Y-103543116D01*
X175587298Y-103450000D01*
X175587298Y-102579348D01*
X175675000Y-102579348D01*
X175675000Y-102820652D01*
X175722076Y-103057319D01*
X175814419Y-103280255D01*
X175948481Y-103480892D01*
X176119108Y-103651519D01*
X176319745Y-103785581D01*
X176542681Y-103877924D01*
X176779348Y-103925000D01*
X177020652Y-103925000D01*
X177257319Y-103877924D01*
X177480255Y-103785581D01*
X177680892Y-103651519D01*
X177851519Y-103480892D01*
X177985581Y-103280255D01*
X178077924Y-103057319D01*
X178125000Y-102820652D01*
X178125000Y-102579348D01*
X178215000Y-102579348D01*
X178215000Y-102820652D01*
X178262076Y-103057319D01*
X178354419Y-103280255D01*
X178488481Y-103480892D01*
X178659108Y-103651519D01*
X178859745Y-103785581D01*
X179082681Y-103877924D01*
X179319348Y-103925000D01*
X179560652Y-103925000D01*
X179797319Y-103877924D01*
X180020255Y-103785581D01*
X180220892Y-103651519D01*
X180391519Y-103480892D01*
X180525581Y-103280255D01*
X180617924Y-103057319D01*
X180665000Y-102820652D01*
X180665000Y-102579348D01*
X180617924Y-102342681D01*
X180525581Y-102119745D01*
X180391519Y-101919108D01*
X180220892Y-101748481D01*
X180020255Y-101614419D01*
X179797319Y-101522076D01*
X179560652Y-101475000D01*
X179319348Y-101475000D01*
X179082681Y-101522076D01*
X178859745Y-101614419D01*
X178659108Y-101748481D01*
X178488481Y-101919108D01*
X178354419Y-102119745D01*
X178262076Y-102342681D01*
X178215000Y-102579348D01*
X178125000Y-102579348D01*
X178077924Y-102342681D01*
X177985581Y-102119745D01*
X177851519Y-101919108D01*
X177680892Y-101748481D01*
X177480255Y-101614419D01*
X177257319Y-101522076D01*
X177020652Y-101475000D01*
X176779348Y-101475000D01*
X176542681Y-101522076D01*
X176319745Y-101614419D01*
X176119108Y-101748481D01*
X175948481Y-101919108D01*
X175814419Y-102119745D01*
X175722076Y-102342681D01*
X175675000Y-102579348D01*
X175587298Y-102579348D01*
X175587298Y-101950000D01*
X175578127Y-101856884D01*
X175550966Y-101767346D01*
X175506859Y-101684827D01*
X175447501Y-101612499D01*
X175375173Y-101553141D01*
X175292654Y-101509034D01*
X175203116Y-101481873D01*
X175110000Y-101472702D01*
X173610000Y-101472702D01*
X173516884Y-101481873D01*
X173427346Y-101509034D01*
X173344827Y-101553141D01*
X173272499Y-101612499D01*
X173213141Y-101684827D01*
X173169034Y-101767346D01*
X173141873Y-101856884D01*
X173132702Y-101950000D01*
X173132702Y-103450000D01*
X173141873Y-103543116D01*
X173169034Y-103632654D01*
X173213141Y-103715173D01*
X173272499Y-103787501D01*
X173322740Y-103828732D01*
X171451473Y-105700000D01*
X169377818Y-105700000D01*
X169669810Y-105408008D01*
X169690790Y-105390790D01*
X169708008Y-105369810D01*
X169708013Y-105369805D01*
X169759520Y-105307043D01*
X169762592Y-105301296D01*
X169810592Y-105211494D01*
X169842042Y-105107819D01*
X169850000Y-105027018D01*
X169850000Y-105027009D01*
X169852660Y-105000001D01*
X169850000Y-104972993D01*
X169850000Y-103077817D01*
X169969804Y-102958013D01*
X169990790Y-102940790D01*
X170059521Y-102857042D01*
X170110592Y-102761494D01*
X170142042Y-102657819D01*
X170150000Y-102577018D01*
X170150000Y-102577009D01*
X170152660Y-102550001D01*
X170150000Y-102522993D01*
X170150000Y-101927007D01*
X170152660Y-101899999D01*
X170150000Y-101872991D01*
X170150000Y-101872982D01*
X170142042Y-101792181D01*
X170110592Y-101688506D01*
X170059521Y-101592958D01*
X169990790Y-101509210D01*
X169969804Y-101491987D01*
X169850000Y-101372183D01*
X169850000Y-92627817D01*
X170827817Y-91650000D01*
X177872992Y-91650000D01*
X177900000Y-91652660D01*
X177927008Y-91650000D01*
X177927018Y-91650000D01*
X178007819Y-91642042D01*
X178111494Y-91610592D01*
X178207042Y-91559521D01*
X178290790Y-91490790D01*
X178308013Y-91469804D01*
X179369810Y-90408008D01*
X179390790Y-90390790D01*
X179408008Y-90369810D01*
X179408013Y-90369805D01*
X179459521Y-90307042D01*
X179477351Y-90273684D01*
X179510592Y-90211494D01*
X179542042Y-90107819D01*
X179550000Y-90027018D01*
X179550000Y-90027008D01*
X179552660Y-90000000D01*
X179550000Y-89972992D01*
X179550000Y-89746352D01*
X179627623Y-89714200D01*
X179844638Y-89569195D01*
X180029195Y-89384638D01*
X180174200Y-89167623D01*
X180274081Y-88926488D01*
X180325000Y-88670501D01*
X180325000Y-88409499D01*
X180274081Y-88153512D01*
X180174200Y-87912377D01*
X180029195Y-87695362D01*
X179844638Y-87510805D01*
X179627623Y-87365800D01*
X179386488Y-87265919D01*
X179130501Y-87215000D01*
X178869499Y-87215000D01*
X178613512Y-87265919D01*
X178372377Y-87365800D01*
X178155362Y-87510805D01*
X177970805Y-87695362D01*
X177825800Y-87912377D01*
X177730000Y-88143660D01*
X177634200Y-87912377D01*
X177489195Y-87695362D01*
X177304638Y-87510805D01*
X177087623Y-87365800D01*
X176856340Y-87270000D01*
X177087623Y-87174200D01*
X177304638Y-87029195D01*
X177483833Y-86850000D01*
X177873669Y-86850000D01*
X177878979Y-86903910D01*
X177894703Y-86955747D01*
X177920239Y-87003521D01*
X177954604Y-87045396D01*
X177996479Y-87079761D01*
X178044253Y-87105297D01*
X178096090Y-87121021D01*
X178150000Y-87126331D01*
X178806250Y-87125000D01*
X178875000Y-87056250D01*
X178875000Y-86125000D01*
X179125000Y-86125000D01*
X179125000Y-87056250D01*
X179193750Y-87125000D01*
X179850000Y-87126331D01*
X179903910Y-87121021D01*
X179955747Y-87105297D01*
X180003521Y-87079761D01*
X180045396Y-87045396D01*
X180079761Y-87003521D01*
X180105297Y-86955747D01*
X180121021Y-86903910D01*
X180126331Y-86850000D01*
X180125000Y-86193750D01*
X180056250Y-86125000D01*
X179125000Y-86125000D01*
X178875000Y-86125000D01*
X177943750Y-86125000D01*
X177875000Y-86193750D01*
X177873669Y-86850000D01*
X177483833Y-86850000D01*
X177489195Y-86844638D01*
X177634200Y-86627623D01*
X177734081Y-86386488D01*
X177785000Y-86130501D01*
X177785000Y-85869499D01*
X177734081Y-85613512D01*
X177634200Y-85372377D01*
X177489195Y-85155362D01*
X177483833Y-85150000D01*
X177873669Y-85150000D01*
X177875000Y-85806250D01*
X177943750Y-85875000D01*
X178875000Y-85875000D01*
X178875000Y-84943750D01*
X179125000Y-84943750D01*
X179125000Y-85875000D01*
X180056250Y-85875000D01*
X180125000Y-85806250D01*
X180126331Y-85150000D01*
X180121021Y-85096090D01*
X180105297Y-85044253D01*
X180079761Y-84996479D01*
X180045396Y-84954604D01*
X180003521Y-84920239D01*
X179955747Y-84894703D01*
X179903910Y-84878979D01*
X179850000Y-84873669D01*
X179193750Y-84875000D01*
X179125000Y-84943750D01*
X178875000Y-84943750D01*
X178806250Y-84875000D01*
X178150000Y-84873669D01*
X178096090Y-84878979D01*
X178044253Y-84894703D01*
X177996479Y-84920239D01*
X177954604Y-84954604D01*
X177920239Y-84996479D01*
X177894703Y-85044253D01*
X177878979Y-85096090D01*
X177873669Y-85150000D01*
X177483833Y-85150000D01*
X177304638Y-84970805D01*
X177087623Y-84825800D01*
X176846488Y-84725919D01*
X176590501Y-84675000D01*
X176329499Y-84675000D01*
X176073512Y-84725919D01*
X175832377Y-84825800D01*
X175615362Y-84970805D01*
X175430805Y-85155362D01*
X175285800Y-85372377D01*
X175190000Y-85603660D01*
X175094200Y-85372377D01*
X174949195Y-85155362D01*
X174764638Y-84970805D01*
X174547623Y-84825800D01*
X174306488Y-84725919D01*
X174050501Y-84675000D01*
X173789499Y-84675000D01*
X173533512Y-84725919D01*
X173516746Y-84732864D01*
X172963658Y-84179776D01*
X172944080Y-84155920D01*
X172848911Y-84077817D01*
X172740334Y-84019781D01*
X172622521Y-83984043D01*
X172530704Y-83975000D01*
X172530694Y-83975000D01*
X172500000Y-83971977D01*
X172469306Y-83975000D01*
X170830693Y-83975000D01*
X170799999Y-83971977D01*
X170769305Y-83975000D01*
X170769296Y-83975000D01*
X170677479Y-83984043D01*
X170559666Y-84019781D01*
X170559664Y-84019782D01*
X170451087Y-84077818D01*
X170403677Y-84116727D01*
X170355920Y-84155920D01*
X170336346Y-84179771D01*
X169941118Y-84575000D01*
X168625000Y-84575000D01*
X168625000Y-83550000D01*
X182450000Y-83550000D01*
X182450001Y-107450000D01*
G37*
X182450001Y-107450000D02*
X171425000Y-107450000D01*
X171425000Y-106900000D01*
X171670526Y-106900000D01*
X171700000Y-106902903D01*
X171729474Y-106900000D01*
X171817621Y-106891318D01*
X171930721Y-106857010D01*
X172034955Y-106801296D01*
X172126317Y-106726317D01*
X172145113Y-106703414D01*
X174763420Y-104085108D01*
X174786317Y-104066317D01*
X174861296Y-103974955D01*
X174886769Y-103927298D01*
X175110000Y-103927298D01*
X175203116Y-103918127D01*
X175292654Y-103890966D01*
X175375173Y-103846859D01*
X175447501Y-103787501D01*
X175506859Y-103715173D01*
X175550966Y-103632654D01*
X175578127Y-103543116D01*
X175587298Y-103450000D01*
X175587298Y-102579348D01*
X175675000Y-102579348D01*
X175675000Y-102820652D01*
X175722076Y-103057319D01*
X175814419Y-103280255D01*
X175948481Y-103480892D01*
X176119108Y-103651519D01*
X176319745Y-103785581D01*
X176542681Y-103877924D01*
X176779348Y-103925000D01*
X177020652Y-103925000D01*
X177257319Y-103877924D01*
X177480255Y-103785581D01*
X177680892Y-103651519D01*
X177851519Y-103480892D01*
X177985581Y-103280255D01*
X178077924Y-103057319D01*
X178125000Y-102820652D01*
X178125000Y-102579348D01*
X178215000Y-102579348D01*
X178215000Y-102820652D01*
X178262076Y-103057319D01*
X178354419Y-103280255D01*
X178488481Y-103480892D01*
X178659108Y-103651519D01*
X178859745Y-103785581D01*
X179082681Y-103877924D01*
X179319348Y-103925000D01*
X179560652Y-103925000D01*
X179797319Y-103877924D01*
X180020255Y-103785581D01*
X180220892Y-103651519D01*
X180391519Y-103480892D01*
X180525581Y-103280255D01*
X180617924Y-103057319D01*
X180665000Y-102820652D01*
X180665000Y-102579348D01*
X180617924Y-102342681D01*
X180525581Y-102119745D01*
X180391519Y-101919108D01*
X180220892Y-101748481D01*
X180020255Y-101614419D01*
X179797319Y-101522076D01*
X179560652Y-101475000D01*
X179319348Y-101475000D01*
X179082681Y-101522076D01*
X178859745Y-101614419D01*
X178659108Y-101748481D01*
X178488481Y-101919108D01*
X178354419Y-102119745D01*
X178262076Y-102342681D01*
X178215000Y-102579348D01*
X178125000Y-102579348D01*
X178077924Y-102342681D01*
X177985581Y-102119745D01*
X177851519Y-101919108D01*
X177680892Y-101748481D01*
X177480255Y-101614419D01*
X177257319Y-101522076D01*
X177020652Y-101475000D01*
X176779348Y-101475000D01*
X176542681Y-101522076D01*
X176319745Y-101614419D01*
X176119108Y-101748481D01*
X175948481Y-101919108D01*
X175814419Y-102119745D01*
X175722076Y-102342681D01*
X175675000Y-102579348D01*
X175587298Y-102579348D01*
X175587298Y-101950000D01*
X175578127Y-101856884D01*
X175550966Y-101767346D01*
X175506859Y-101684827D01*
X175447501Y-101612499D01*
X175375173Y-101553141D01*
X175292654Y-101509034D01*
X175203116Y-101481873D01*
X175110000Y-101472702D01*
X173610000Y-101472702D01*
X173516884Y-101481873D01*
X173427346Y-101509034D01*
X173344827Y-101553141D01*
X173272499Y-101612499D01*
X173213141Y-101684827D01*
X173169034Y-101767346D01*
X173141873Y-101856884D01*
X173132702Y-101950000D01*
X173132702Y-103450000D01*
X173141873Y-103543116D01*
X173169034Y-103632654D01*
X173213141Y-103715173D01*
X173272499Y-103787501D01*
X173322740Y-103828732D01*
X171451473Y-105700000D01*
X169377818Y-105700000D01*
X169669810Y-105408008D01*
X169690790Y-105390790D01*
X169708008Y-105369810D01*
X169708013Y-105369805D01*
X169759520Y-105307043D01*
X169762592Y-105301296D01*
X169810592Y-105211494D01*
X169842042Y-105107819D01*
X169850000Y-105027018D01*
X169850000Y-105027009D01*
X169852660Y-105000001D01*
X169850000Y-104972993D01*
X169850000Y-103077817D01*
X169969804Y-102958013D01*
X169990790Y-102940790D01*
X170059521Y-102857042D01*
X170110592Y-102761494D01*
X170142042Y-102657819D01*
X170150000Y-102577018D01*
X170150000Y-102577009D01*
X170152660Y-102550001D01*
X170150000Y-102522993D01*
X170150000Y-101927007D01*
X170152660Y-101899999D01*
X170150000Y-101872991D01*
X170150000Y-101872982D01*
X170142042Y-101792181D01*
X170110592Y-101688506D01*
X170059521Y-101592958D01*
X169990790Y-101509210D01*
X169969804Y-101491987D01*
X169850000Y-101372183D01*
X169850000Y-92627817D01*
X170827817Y-91650000D01*
X177872992Y-91650000D01*
X177900000Y-91652660D01*
X177927008Y-91650000D01*
X177927018Y-91650000D01*
X178007819Y-91642042D01*
X178111494Y-91610592D01*
X178207042Y-91559521D01*
X178290790Y-91490790D01*
X178308013Y-91469804D01*
X179369810Y-90408008D01*
X179390790Y-90390790D01*
X179408008Y-90369810D01*
X179408013Y-90369805D01*
X179459521Y-90307042D01*
X179477351Y-90273684D01*
X179510592Y-90211494D01*
X179542042Y-90107819D01*
X179550000Y-90027018D01*
X179550000Y-90027008D01*
X179552660Y-90000000D01*
X179550000Y-89972992D01*
X179550000Y-89746352D01*
X179627623Y-89714200D01*
X179844638Y-89569195D01*
X180029195Y-89384638D01*
X180174200Y-89167623D01*
X180274081Y-88926488D01*
X180325000Y-88670501D01*
X180325000Y-88409499D01*
X180274081Y-88153512D01*
X180174200Y-87912377D01*
X180029195Y-87695362D01*
X179844638Y-87510805D01*
X179627623Y-87365800D01*
X179386488Y-87265919D01*
X179130501Y-87215000D01*
X178869499Y-87215000D01*
X178613512Y-87265919D01*
X178372377Y-87365800D01*
X178155362Y-87510805D01*
X177970805Y-87695362D01*
X177825800Y-87912377D01*
X177730000Y-88143660D01*
X177634200Y-87912377D01*
X177489195Y-87695362D01*
X177304638Y-87510805D01*
X177087623Y-87365800D01*
X176856340Y-87270000D01*
X177087623Y-87174200D01*
X177304638Y-87029195D01*
X177483833Y-86850000D01*
X177873669Y-86850000D01*
X177878979Y-86903910D01*
X177894703Y-86955747D01*
X177920239Y-87003521D01*
X177954604Y-87045396D01*
X177996479Y-87079761D01*
X178044253Y-87105297D01*
X178096090Y-87121021D01*
X178150000Y-87126331D01*
X178806250Y-87125000D01*
X178875000Y-87056250D01*
X178875000Y-86125000D01*
X179125000Y-86125000D01*
X179125000Y-87056250D01*
X179193750Y-87125000D01*
X179850000Y-87126331D01*
X179903910Y-87121021D01*
X179955747Y-87105297D01*
X180003521Y-87079761D01*
X180045396Y-87045396D01*
X180079761Y-87003521D01*
X180105297Y-86955747D01*
X180121021Y-86903910D01*
X180126331Y-86850000D01*
X180125000Y-86193750D01*
X180056250Y-86125000D01*
X179125000Y-86125000D01*
X178875000Y-86125000D01*
X177943750Y-86125000D01*
X177875000Y-86193750D01*
X177873669Y-86850000D01*
X177483833Y-86850000D01*
X177489195Y-86844638D01*
X177634200Y-86627623D01*
X177734081Y-86386488D01*
X177785000Y-86130501D01*
X177785000Y-85869499D01*
X177734081Y-85613512D01*
X177634200Y-85372377D01*
X177489195Y-85155362D01*
X177483833Y-85150000D01*
X177873669Y-85150000D01*
X177875000Y-85806250D01*
X177943750Y-85875000D01*
X178875000Y-85875000D01*
X178875000Y-84943750D01*
X179125000Y-84943750D01*
X179125000Y-85875000D01*
X180056250Y-85875000D01*
X180125000Y-85806250D01*
X180126331Y-85150000D01*
X180121021Y-85096090D01*
X180105297Y-85044253D01*
X180079761Y-84996479D01*
X180045396Y-84954604D01*
X180003521Y-84920239D01*
X179955747Y-84894703D01*
X179903910Y-84878979D01*
X179850000Y-84873669D01*
X179193750Y-84875000D01*
X179125000Y-84943750D01*
X178875000Y-84943750D01*
X178806250Y-84875000D01*
X178150000Y-84873669D01*
X178096090Y-84878979D01*
X178044253Y-84894703D01*
X177996479Y-84920239D01*
X177954604Y-84954604D01*
X177920239Y-84996479D01*
X177894703Y-85044253D01*
X177878979Y-85096090D01*
X177873669Y-85150000D01*
X177483833Y-85150000D01*
X177304638Y-84970805D01*
X177087623Y-84825800D01*
X176846488Y-84725919D01*
X176590501Y-84675000D01*
X176329499Y-84675000D01*
X176073512Y-84725919D01*
X175832377Y-84825800D01*
X175615362Y-84970805D01*
X175430805Y-85155362D01*
X175285800Y-85372377D01*
X175190000Y-85603660D01*
X175094200Y-85372377D01*
X174949195Y-85155362D01*
X174764638Y-84970805D01*
X174547623Y-84825800D01*
X174306488Y-84725919D01*
X174050501Y-84675000D01*
X173789499Y-84675000D01*
X173533512Y-84725919D01*
X173516746Y-84732864D01*
X172963658Y-84179776D01*
X172944080Y-84155920D01*
X172848911Y-84077817D01*
X172740334Y-84019781D01*
X172622521Y-83984043D01*
X172530704Y-83975000D01*
X172530694Y-83975000D01*
X172500000Y-83971977D01*
X172469306Y-83975000D01*
X170830693Y-83975000D01*
X170799999Y-83971977D01*
X170769305Y-83975000D01*
X170769296Y-83975000D01*
X170677479Y-83984043D01*
X170559666Y-84019781D01*
X170559664Y-84019782D01*
X170451087Y-84077818D01*
X170403677Y-84116727D01*
X170355920Y-84155920D01*
X170336346Y-84179771D01*
X169941118Y-84575000D01*
X168625000Y-84575000D01*
X168625000Y-83550000D01*
X182450000Y-83550000D01*
X182450001Y-107450000D01*
M02*
