G04 #@! TF.GenerationSoftware,KiCad,Pcbnew,(2017-06-16 revision 2018d4894)-master*
G04 #@! TF.CreationDate,2017-08-18T11:46:34+02:00*
G04 #@! TF.ProjectId,reference_board,7265666572656E63655F626F6172642E,rev?*
G04 #@! TF.SameCoordinates,Original
G04 #@! TF.FileFunction,Copper,L1,Top,Signal*
G04 #@! TF.FilePolarity,Positive*
%FSLAX46Y46*%
G04 Gerber Fmt 4.6, Leading zero omitted, Abs format (unit mm)*
G04 Created by KiCad (PCBNEW (2017-06-16 revision 2018d4894)-master) date Fri Aug 18 11:46:34 2017*
%MOMM*%
%LPD*%
G01*
G04 APERTURE LIST*
%ADD10C,0.100000*%
%ADD11C,1.500000*%
%ADD12R,1.250000X1.000000*%
%ADD13C,1.100000*%
%ADD14R,1.000000X1.600000*%
%ADD15R,0.600000X1.550000*%
%ADD16R,1.400000X0.300000*%
%ADD17R,1.700000X1.700000*%
%ADD18O,1.700000X1.700000*%
%ADD19C,0.800000*%
%ADD20C,0.200000*%
%ADD21C,0.250000*%
%ADD22C,0.500000*%
%ADD23C,0.300000*%
G04 APERTURE END LIST*
D10*
D11*
X186055000Y-101346000D03*
X189865000Y-101346000D03*
D12*
X191000000Y-95000000D03*
X191000000Y-93000000D03*
D13*
X150000000Y-96270000D03*
X150000000Y-93730000D03*
X151270000Y-95000000D03*
X148730000Y-95000000D03*
D14*
X189500000Y-104140000D03*
X186500000Y-104140000D03*
D11*
X181310000Y-97500000D03*
X181310000Y-93690000D03*
X173000000Y-95885000D03*
X176810000Y-95885000D03*
D15*
X160147000Y-93505000D03*
X161417000Y-93505000D03*
X162687000Y-93505000D03*
X163957000Y-93505000D03*
X163957000Y-88105000D03*
X162687000Y-88105000D03*
X161417000Y-88105000D03*
X160147000Y-88105000D03*
D16*
X184446000Y-95419000D03*
X184446000Y-95919000D03*
X184446000Y-96419000D03*
X184446000Y-96919000D03*
X184446000Y-97419000D03*
X188846000Y-97419000D03*
X188846000Y-96919000D03*
X188846000Y-96419000D03*
X188846000Y-95919000D03*
X188846000Y-95419000D03*
D17*
X179040000Y-86960000D03*
D18*
X179040000Y-89500000D03*
X176500000Y-86960000D03*
X176500000Y-89500000D03*
X173960000Y-86960000D03*
X173960000Y-89500000D03*
X171420000Y-86960000D03*
X171420000Y-89500000D03*
D12*
X182500000Y-101250000D03*
X182500000Y-103250000D03*
D19*
X181000000Y-102500000D03*
X191000000Y-91500000D03*
X184500000Y-99000000D03*
D20*
X174250000Y-105500000D02*
X181000000Y-98750000D01*
X150000000Y-96270000D02*
X150000000Y-103000000D01*
X150000000Y-103000000D02*
X152500000Y-105500000D01*
X152500000Y-105500000D02*
X174250000Y-105500000D01*
X181310000Y-97500000D02*
X181310000Y-98440000D01*
X181310000Y-98440000D02*
X181000000Y-98750000D01*
X183331000Y-96419000D02*
X182391000Y-96419000D01*
X182391000Y-96419000D02*
X181310000Y-97500000D01*
X183331000Y-96419000D02*
X183500000Y-96419000D01*
X183500000Y-96419000D02*
X184446000Y-96419000D01*
X180750000Y-99750000D02*
X174500000Y-106000000D01*
X182750000Y-99750000D02*
X180750000Y-99750000D01*
X183000000Y-99500000D02*
X182750000Y-99750000D01*
X183581000Y-96919000D02*
X183000000Y-97500000D01*
X183000000Y-97500000D02*
X183000000Y-99500000D01*
D21*
X186055000Y-102055000D02*
X186500000Y-102500000D01*
X186500000Y-102500000D02*
X186500000Y-104140000D01*
X186055000Y-101346000D02*
X186055000Y-102055000D01*
X179700000Y-95919000D02*
X179500000Y-95919000D01*
X179500000Y-95919000D02*
X176844000Y-95919000D01*
D20*
X179705000Y-96114000D02*
X179695000Y-96114000D01*
X179695000Y-96114000D02*
X179500000Y-95919000D01*
X179705000Y-96150000D02*
X179705000Y-95924000D01*
X179705000Y-99295000D02*
X179705000Y-96150000D01*
D21*
X184446000Y-95919000D02*
X179900000Y-95919000D01*
X179900000Y-95919000D02*
X179700000Y-95919000D01*
D20*
X179705000Y-96150000D02*
X179705000Y-96114000D01*
X179705000Y-96114000D02*
X179900000Y-95919000D01*
D21*
X179705000Y-95924000D02*
X179700000Y-95919000D01*
X176844000Y-95919000D02*
X176810000Y-95885000D01*
D20*
X184446000Y-96919000D02*
X183581000Y-96919000D01*
X174000000Y-105000000D02*
X179705000Y-99295000D01*
X150500000Y-102750000D02*
X152750000Y-105000000D01*
X150000000Y-95000000D02*
X151000000Y-96000000D01*
X152750000Y-105000000D02*
X174000000Y-105000000D01*
X149000000Y-96000000D02*
X150000000Y-95000000D01*
X151000000Y-96000000D02*
X151000000Y-97000000D01*
X149500000Y-97500000D02*
X149000000Y-97000000D01*
X150500000Y-97500000D02*
X150500000Y-102750000D01*
X149500000Y-103250000D02*
X149500000Y-97500000D01*
X152250000Y-106000000D02*
X149500000Y-103250000D01*
X149000000Y-97000000D02*
X149000000Y-96000000D01*
X174500000Y-106000000D02*
X152250000Y-106000000D01*
X151000000Y-97000000D02*
X150500000Y-97500000D01*
D21*
X186055000Y-96901000D02*
X186055000Y-97028000D01*
X186055000Y-97028000D02*
X186055000Y-101346000D01*
X185928000Y-96919000D02*
X185946000Y-96919000D01*
X185946000Y-96919000D02*
X186055000Y-97028000D01*
X186055000Y-96774000D02*
X186055000Y-96901000D01*
X186055000Y-96520000D02*
X186055000Y-96774000D01*
X184446000Y-96919000D02*
X185928000Y-96919000D01*
X185928000Y-96919000D02*
X186037000Y-96919000D01*
X186055000Y-96774000D02*
X186055000Y-96792000D01*
X186055000Y-96792000D02*
X185928000Y-96919000D01*
X186037000Y-96919000D02*
X186055000Y-96901000D01*
X185454000Y-95919000D02*
X186055000Y-96520000D01*
X184446000Y-95919000D02*
X185454000Y-95919000D01*
D22*
X182500000Y-103250000D02*
X181750000Y-103250000D01*
X181750000Y-103250000D02*
X181000000Y-102500000D01*
X191000000Y-91500000D02*
X191000000Y-93000000D01*
D21*
X180989000Y-84750000D02*
X184250000Y-88011000D01*
X184250000Y-88011000D02*
X190511000Y-88011000D01*
X177250000Y-84750000D02*
X180989000Y-84750000D01*
X176500000Y-85500000D02*
X177250000Y-84750000D01*
X176500000Y-86960000D02*
X176500000Y-85500000D01*
X190511000Y-88011000D02*
X192500000Y-90000000D01*
X192500000Y-90000000D02*
X192500000Y-96500000D01*
X191581000Y-97419000D02*
X188846000Y-97419000D01*
X192500000Y-96500000D02*
X191581000Y-97419000D01*
X189865000Y-102135000D02*
X189500000Y-102500000D01*
X189500000Y-102500000D02*
X189500000Y-104140000D01*
X189865000Y-101346000D02*
X189865000Y-102135000D01*
X188846000Y-98346000D02*
X189865000Y-99365000D01*
X189865000Y-99365000D02*
X189865000Y-101346000D01*
X188846000Y-97419000D02*
X188846000Y-98346000D01*
X187000000Y-97000000D02*
X187000000Y-95000000D01*
X181310000Y-93690000D02*
X185690000Y-93690000D01*
X185690000Y-93690000D02*
X187000000Y-95000000D01*
X187419000Y-97419000D02*
X187000000Y-97000000D01*
X188846000Y-97419000D02*
X187419000Y-97419000D01*
D23*
X174750000Y-91500000D02*
X187500000Y-91500000D01*
X173960000Y-90710000D02*
X174750000Y-91500000D01*
X173960000Y-89500000D02*
X173960000Y-90710000D01*
D21*
X188846000Y-96419000D02*
X190581000Y-96419000D01*
X190581000Y-96419000D02*
X191000000Y-96000000D01*
X191000000Y-96000000D02*
X191000000Y-95000000D01*
D23*
X187500000Y-91500000D02*
X191000000Y-95000000D01*
D21*
X183500000Y-101250000D02*
X184500000Y-100250000D01*
X184500000Y-100250000D02*
X184500000Y-99000000D01*
X182500000Y-101250000D02*
X183500000Y-101250000D01*
D23*
X184500000Y-99000000D02*
X184500000Y-97473000D01*
X184500000Y-97473000D02*
X184446000Y-97419000D01*
D21*
X168156802Y-104025000D02*
X168775000Y-103406802D01*
X165593198Y-104025000D02*
X168156802Y-104025000D01*
X169198198Y-89181802D02*
X171420000Y-86960000D01*
X162277000Y-95077500D02*
X162277000Y-100708802D01*
X162687000Y-93505000D02*
X162687000Y-94667500D01*
X162687000Y-94667500D02*
X162277000Y-95077500D01*
X168775000Y-89605000D02*
X169198198Y-89181802D01*
X162277000Y-100708802D02*
X165593198Y-104025000D01*
X168775000Y-103406802D02*
X168775000Y-89605000D01*
X161417000Y-94667500D02*
X161827000Y-95077500D01*
X169516396Y-89500000D02*
X171420000Y-89500000D01*
X168343198Y-104475000D02*
X169225000Y-103593198D01*
X165406802Y-104475000D02*
X168343198Y-104475000D01*
X161417000Y-93505000D02*
X161417000Y-94667500D01*
X169225000Y-89791396D02*
X169516396Y-89500000D01*
X161827000Y-95077500D02*
X161827000Y-100895198D01*
X161827000Y-100895198D02*
X165406802Y-104475000D01*
X169225000Y-103593198D02*
X169225000Y-89791396D01*
M02*
