G04 #@! TF.GenerationSoftware,KiCad,Pcbnew,5.1.6*
G04 #@! TF.CreationDate,2020-09-28T13:12:07+02:00*
G04 #@! TF.ProjectId,reference_board,72656665-7265-46e6-9365-5f626f617264,v3.2.1*
G04 #@! TF.SameCoordinates,Original*
G04 #@! TF.FileFunction,Other,Fab,Top*
%FSLAX46Y46*%
G04 Gerber Fmt 4.6, Leading zero omitted, Abs format (unit mm)*
G04 Created by KiCad (PCBNEW 5.1.6) date 2020-09-28 13:12:07*
%MOMM*%
%LPD*%
G01*
G04 APERTURE LIST*
%ADD10C,0.150000*%
%ADD11C,0.100000*%
%ADD12C,0.060000*%
%ADD13C,0.120000*%
%ADD14C,0.075000*%
G04 APERTURE END LIST*
D10*
X180335595Y-48852380D02*
X180335595Y-47852380D01*
X180668928Y-48566666D01*
X181002261Y-47852380D01*
X181002261Y-48852380D01*
X181907023Y-48852380D02*
X181907023Y-48328571D01*
X181859404Y-48233333D01*
X181764166Y-48185714D01*
X181573690Y-48185714D01*
X181478452Y-48233333D01*
X181907023Y-48804761D02*
X181811785Y-48852380D01*
X181573690Y-48852380D01*
X181478452Y-48804761D01*
X181430833Y-48709523D01*
X181430833Y-48614285D01*
X181478452Y-48519047D01*
X181573690Y-48471428D01*
X181811785Y-48471428D01*
X181907023Y-48423809D01*
X182383214Y-48185714D02*
X182383214Y-48852380D01*
X182383214Y-48280952D02*
X182430833Y-48233333D01*
X182526071Y-48185714D01*
X182668928Y-48185714D01*
X182764166Y-48233333D01*
X182811785Y-48328571D01*
X182811785Y-48852380D01*
X183716547Y-48185714D02*
X183716547Y-48852380D01*
X183287976Y-48185714D02*
X183287976Y-48709523D01*
X183335595Y-48804761D01*
X183430833Y-48852380D01*
X183573690Y-48852380D01*
X183668928Y-48804761D01*
X183716547Y-48757142D01*
X184049880Y-48185714D02*
X184430833Y-48185714D01*
X184192738Y-48852380D02*
X184192738Y-47995238D01*
X184240357Y-47900000D01*
X184335595Y-47852380D01*
X184430833Y-47852380D01*
X185192738Y-48852380D02*
X185192738Y-48328571D01*
X185145119Y-48233333D01*
X185049880Y-48185714D01*
X184859404Y-48185714D01*
X184764166Y-48233333D01*
X185192738Y-48804761D02*
X185097500Y-48852380D01*
X184859404Y-48852380D01*
X184764166Y-48804761D01*
X184716547Y-48709523D01*
X184716547Y-48614285D01*
X184764166Y-48519047D01*
X184859404Y-48471428D01*
X185097500Y-48471428D01*
X185192738Y-48423809D01*
X186097500Y-48804761D02*
X186002261Y-48852380D01*
X185811785Y-48852380D01*
X185716547Y-48804761D01*
X185668928Y-48757142D01*
X185621309Y-48661904D01*
X185621309Y-48376190D01*
X185668928Y-48280952D01*
X185716547Y-48233333D01*
X185811785Y-48185714D01*
X186002261Y-48185714D01*
X186097500Y-48233333D01*
X186383214Y-48185714D02*
X186764166Y-48185714D01*
X186526071Y-47852380D02*
X186526071Y-48709523D01*
X186573690Y-48804761D01*
X186668928Y-48852380D01*
X186764166Y-48852380D01*
X187526071Y-48185714D02*
X187526071Y-48852380D01*
X187097500Y-48185714D02*
X187097500Y-48709523D01*
X187145119Y-48804761D01*
X187240357Y-48852380D01*
X187383214Y-48852380D01*
X187478452Y-48804761D01*
X187526071Y-48757142D01*
X188002261Y-48852380D02*
X188002261Y-48185714D01*
X188002261Y-48376190D02*
X188049880Y-48280952D01*
X188097500Y-48233333D01*
X188192738Y-48185714D01*
X188287976Y-48185714D01*
X188621309Y-48852380D02*
X188621309Y-48185714D01*
X188621309Y-47852380D02*
X188573690Y-47900000D01*
X188621309Y-47947619D01*
X188668928Y-47900000D01*
X188621309Y-47852380D01*
X188621309Y-47947619D01*
X189097500Y-48185714D02*
X189097500Y-48852380D01*
X189097500Y-48280952D02*
X189145119Y-48233333D01*
X189240357Y-48185714D01*
X189383214Y-48185714D01*
X189478452Y-48233333D01*
X189526071Y-48328571D01*
X189526071Y-48852380D01*
X190430833Y-48185714D02*
X190430833Y-48995238D01*
X190383214Y-49090476D01*
X190335595Y-49138095D01*
X190240357Y-49185714D01*
X190097500Y-49185714D01*
X190002261Y-49138095D01*
X190430833Y-48804761D02*
X190335595Y-48852380D01*
X190145119Y-48852380D01*
X190049880Y-48804761D01*
X190002261Y-48757142D01*
X189954642Y-48661904D01*
X189954642Y-48376190D01*
X190002261Y-48280952D01*
X190049880Y-48233333D01*
X190145119Y-48185714D01*
X190335595Y-48185714D01*
X190430833Y-48233333D01*
X191668928Y-48852380D02*
X191668928Y-47852380D01*
X192145119Y-48185714D02*
X192145119Y-48852380D01*
X192145119Y-48280952D02*
X192192738Y-48233333D01*
X192287976Y-48185714D01*
X192430833Y-48185714D01*
X192526071Y-48233333D01*
X192573690Y-48328571D01*
X192573690Y-48852380D01*
X193002261Y-48804761D02*
X193097500Y-48852380D01*
X193287976Y-48852380D01*
X193383214Y-48804761D01*
X193430833Y-48709523D01*
X193430833Y-48661904D01*
X193383214Y-48566666D01*
X193287976Y-48519047D01*
X193145119Y-48519047D01*
X193049880Y-48471428D01*
X193002261Y-48376190D01*
X193002261Y-48328571D01*
X193049880Y-48233333D01*
X193145119Y-48185714D01*
X193287976Y-48185714D01*
X193383214Y-48233333D01*
X193716547Y-48185714D02*
X194097500Y-48185714D01*
X193859404Y-47852380D02*
X193859404Y-48709523D01*
X193907023Y-48804761D01*
X194002261Y-48852380D01*
X194097500Y-48852380D01*
X194430833Y-48852380D02*
X194430833Y-48185714D01*
X194430833Y-48376190D02*
X194478452Y-48280952D01*
X194526071Y-48233333D01*
X194621309Y-48185714D01*
X194716547Y-48185714D01*
X195478452Y-48185714D02*
X195478452Y-48852380D01*
X195049880Y-48185714D02*
X195049880Y-48709523D01*
X195097500Y-48804761D01*
X195192738Y-48852380D01*
X195335595Y-48852380D01*
X195430833Y-48804761D01*
X195478452Y-48757142D01*
X196383214Y-48804761D02*
X196287976Y-48852380D01*
X196097500Y-48852380D01*
X196002261Y-48804761D01*
X195954642Y-48757142D01*
X195907023Y-48661904D01*
X195907023Y-48376190D01*
X195954642Y-48280952D01*
X196002261Y-48233333D01*
X196097500Y-48185714D01*
X196287976Y-48185714D01*
X196383214Y-48233333D01*
X196668928Y-48185714D02*
X197049880Y-48185714D01*
X196811785Y-47852380D02*
X196811785Y-48709523D01*
X196859404Y-48804761D01*
X196954642Y-48852380D01*
X197049880Y-48852380D01*
X197383214Y-48852380D02*
X197383214Y-48185714D01*
X197383214Y-47852380D02*
X197335595Y-47900000D01*
X197383214Y-47947619D01*
X197430833Y-47900000D01*
X197383214Y-47852380D01*
X197383214Y-47947619D01*
X198002261Y-48852380D02*
X197907023Y-48804761D01*
X197859404Y-48757142D01*
X197811785Y-48661904D01*
X197811785Y-48376190D01*
X197859404Y-48280952D01*
X197907023Y-48233333D01*
X198002261Y-48185714D01*
X198145119Y-48185714D01*
X198240357Y-48233333D01*
X198287976Y-48280952D01*
X198335595Y-48376190D01*
X198335595Y-48661904D01*
X198287976Y-48757142D01*
X198240357Y-48804761D01*
X198145119Y-48852380D01*
X198002261Y-48852380D01*
X198764166Y-48185714D02*
X198764166Y-48852380D01*
X198764166Y-48280952D02*
X198811785Y-48233333D01*
X198907023Y-48185714D01*
X199049880Y-48185714D01*
X199145119Y-48233333D01*
X199192738Y-48328571D01*
X199192738Y-48852380D01*
X199668928Y-48757142D02*
X199716547Y-48804761D01*
X199668928Y-48852380D01*
X199621309Y-48804761D01*
X199668928Y-48757142D01*
X199668928Y-48852380D01*
X199668928Y-48233333D02*
X199716547Y-48280952D01*
X199668928Y-48328571D01*
X199621309Y-48280952D01*
X199668928Y-48233333D01*
X199668928Y-48328571D01*
X180335595Y-50121428D02*
X181097500Y-50121428D01*
X182335595Y-50502380D02*
X182335595Y-49502380D01*
X182668928Y-50216666D01*
X183002261Y-49502380D01*
X183002261Y-50502380D01*
X183907023Y-50502380D02*
X183907023Y-49978571D01*
X183859404Y-49883333D01*
X183764166Y-49835714D01*
X183573690Y-49835714D01*
X183478452Y-49883333D01*
X183907023Y-50454761D02*
X183811785Y-50502380D01*
X183573690Y-50502380D01*
X183478452Y-50454761D01*
X183430833Y-50359523D01*
X183430833Y-50264285D01*
X183478452Y-50169047D01*
X183573690Y-50121428D01*
X183811785Y-50121428D01*
X183907023Y-50073809D01*
X184240357Y-49835714D02*
X184621309Y-49835714D01*
X184383214Y-49502380D02*
X184383214Y-50359523D01*
X184430833Y-50454761D01*
X184526071Y-50502380D01*
X184621309Y-50502380D01*
X185335595Y-50454761D02*
X185240357Y-50502380D01*
X185049880Y-50502380D01*
X184954642Y-50454761D01*
X184907023Y-50359523D01*
X184907023Y-49978571D01*
X184954642Y-49883333D01*
X185049880Y-49835714D01*
X185240357Y-49835714D01*
X185335595Y-49883333D01*
X185383214Y-49978571D01*
X185383214Y-50073809D01*
X184907023Y-50169047D01*
X185811785Y-50502380D02*
X185811785Y-49835714D01*
X185811785Y-50026190D02*
X185859404Y-49930952D01*
X185907023Y-49883333D01*
X186002261Y-49835714D01*
X186097500Y-49835714D01*
X186430833Y-50502380D02*
X186430833Y-49835714D01*
X186430833Y-49502380D02*
X186383214Y-49550000D01*
X186430833Y-49597619D01*
X186478452Y-49550000D01*
X186430833Y-49502380D01*
X186430833Y-49597619D01*
X187335595Y-50502380D02*
X187335595Y-49978571D01*
X187287976Y-49883333D01*
X187192738Y-49835714D01*
X187002261Y-49835714D01*
X186907023Y-49883333D01*
X187335595Y-50454761D02*
X187240357Y-50502380D01*
X187002261Y-50502380D01*
X186907023Y-50454761D01*
X186859404Y-50359523D01*
X186859404Y-50264285D01*
X186907023Y-50169047D01*
X187002261Y-50121428D01*
X187240357Y-50121428D01*
X187335595Y-50073809D01*
X187954642Y-50502380D02*
X187859404Y-50454761D01*
X187811785Y-50359523D01*
X187811785Y-49502380D01*
X189430833Y-49978571D02*
X189097500Y-49978571D01*
X189097500Y-50502380D02*
X189097500Y-49502380D01*
X189573690Y-49502380D01*
X190526071Y-50502380D02*
X190192738Y-50026190D01*
X189954642Y-50502380D02*
X189954642Y-49502380D01*
X190335595Y-49502380D01*
X190430833Y-49550000D01*
X190478452Y-49597619D01*
X190526071Y-49692857D01*
X190526071Y-49835714D01*
X190478452Y-49930952D01*
X190430833Y-49978571D01*
X190335595Y-50026190D01*
X189954642Y-50026190D01*
X190954642Y-50121428D02*
X191716547Y-50121428D01*
X192621309Y-49835714D02*
X192621309Y-50502380D01*
X192383214Y-49454761D02*
X192145119Y-50169047D01*
X192764166Y-50169047D01*
X180335595Y-51771428D02*
X181097500Y-51771428D01*
X182668928Y-51628571D02*
X182335595Y-51628571D01*
X182335595Y-52152380D02*
X182335595Y-51152380D01*
X182811785Y-51152380D01*
X183192738Y-52152380D02*
X183192738Y-51485714D01*
X183192738Y-51152380D02*
X183145119Y-51200000D01*
X183192738Y-51247619D01*
X183240357Y-51200000D01*
X183192738Y-51152380D01*
X183192738Y-51247619D01*
X183668928Y-51485714D02*
X183668928Y-52152380D01*
X183668928Y-51580952D02*
X183716547Y-51533333D01*
X183811785Y-51485714D01*
X183954642Y-51485714D01*
X184049880Y-51533333D01*
X184097500Y-51628571D01*
X184097500Y-52152380D01*
X184573690Y-52152380D02*
X184573690Y-51485714D01*
X184573690Y-51152380D02*
X184526071Y-51200000D01*
X184573690Y-51247619D01*
X184621309Y-51200000D01*
X184573690Y-51152380D01*
X184573690Y-51247619D01*
X185002261Y-52104761D02*
X185097500Y-52152380D01*
X185287976Y-52152380D01*
X185383214Y-52104761D01*
X185430833Y-52009523D01*
X185430833Y-51961904D01*
X185383214Y-51866666D01*
X185287976Y-51819047D01*
X185145119Y-51819047D01*
X185049880Y-51771428D01*
X185002261Y-51676190D01*
X185002261Y-51628571D01*
X185049880Y-51533333D01*
X185145119Y-51485714D01*
X185287976Y-51485714D01*
X185383214Y-51533333D01*
X185859404Y-52152380D02*
X185859404Y-51152380D01*
X186287976Y-52152380D02*
X186287976Y-51628571D01*
X186240357Y-51533333D01*
X186145119Y-51485714D01*
X186002261Y-51485714D01*
X185907023Y-51533333D01*
X185859404Y-51580952D01*
X187145119Y-52104761D02*
X187049880Y-52152380D01*
X186859404Y-52152380D01*
X186764166Y-52104761D01*
X186716547Y-52009523D01*
X186716547Y-51628571D01*
X186764166Y-51533333D01*
X186859404Y-51485714D01*
X187049880Y-51485714D01*
X187145119Y-51533333D01*
X187192738Y-51628571D01*
X187192738Y-51723809D01*
X186716547Y-51819047D01*
X188049880Y-52152380D02*
X188049880Y-51152380D01*
X188049880Y-52104761D02*
X187954642Y-52152380D01*
X187764166Y-52152380D01*
X187668928Y-52104761D01*
X187621309Y-52057142D01*
X187573690Y-51961904D01*
X187573690Y-51676190D01*
X187621309Y-51580952D01*
X187668928Y-51533333D01*
X187764166Y-51485714D01*
X187954642Y-51485714D01*
X188049880Y-51533333D01*
X189145119Y-51485714D02*
X189526071Y-51485714D01*
X189287976Y-51152380D02*
X189287976Y-52009523D01*
X189335595Y-52104761D01*
X189430833Y-52152380D01*
X189526071Y-52152380D01*
X189859404Y-52152380D02*
X189859404Y-51152380D01*
X190287976Y-52152380D02*
X190287976Y-51628571D01*
X190240357Y-51533333D01*
X190145119Y-51485714D01*
X190002261Y-51485714D01*
X189907023Y-51533333D01*
X189859404Y-51580952D01*
X190764166Y-52152380D02*
X190764166Y-51485714D01*
X190764166Y-51152380D02*
X190716547Y-51200000D01*
X190764166Y-51247619D01*
X190811785Y-51200000D01*
X190764166Y-51152380D01*
X190764166Y-51247619D01*
X191668928Y-52104761D02*
X191573690Y-52152380D01*
X191383214Y-52152380D01*
X191287976Y-52104761D01*
X191240357Y-52057142D01*
X191192738Y-51961904D01*
X191192738Y-51676190D01*
X191240357Y-51580952D01*
X191287976Y-51533333D01*
X191383214Y-51485714D01*
X191573690Y-51485714D01*
X191668928Y-51533333D01*
X192097500Y-52152380D02*
X192097500Y-51152380D01*
X192192738Y-51771428D02*
X192478452Y-52152380D01*
X192478452Y-51485714D02*
X192097500Y-51866666D01*
X192907023Y-51485714D02*
X192907023Y-52152380D01*
X192907023Y-51580952D02*
X192954642Y-51533333D01*
X193049880Y-51485714D01*
X193192738Y-51485714D01*
X193287976Y-51533333D01*
X193335595Y-51628571D01*
X193335595Y-52152380D01*
X194192738Y-52104761D02*
X194097500Y-52152380D01*
X193907023Y-52152380D01*
X193811785Y-52104761D01*
X193764166Y-52009523D01*
X193764166Y-51628571D01*
X193811785Y-51533333D01*
X193907023Y-51485714D01*
X194097500Y-51485714D01*
X194192738Y-51533333D01*
X194240357Y-51628571D01*
X194240357Y-51723809D01*
X193764166Y-51819047D01*
X194621309Y-52104761D02*
X194716547Y-52152380D01*
X194907023Y-52152380D01*
X195002261Y-52104761D01*
X195049880Y-52009523D01*
X195049880Y-51961904D01*
X195002261Y-51866666D01*
X194907023Y-51819047D01*
X194764166Y-51819047D01*
X194668928Y-51771428D01*
X194621309Y-51676190D01*
X194621309Y-51628571D01*
X194668928Y-51533333D01*
X194764166Y-51485714D01*
X194907023Y-51485714D01*
X195002261Y-51533333D01*
X195430833Y-52104761D02*
X195526071Y-52152380D01*
X195716547Y-52152380D01*
X195811785Y-52104761D01*
X195859404Y-52009523D01*
X195859404Y-51961904D01*
X195811785Y-51866666D01*
X195716547Y-51819047D01*
X195573690Y-51819047D01*
X195478452Y-51771428D01*
X195430833Y-51676190D01*
X195430833Y-51628571D01*
X195478452Y-51533333D01*
X195573690Y-51485714D01*
X195716547Y-51485714D01*
X195811785Y-51533333D01*
X196287976Y-52057142D02*
X196335595Y-52104761D01*
X196287976Y-52152380D01*
X196240357Y-52104761D01*
X196287976Y-52057142D01*
X196287976Y-52152380D01*
X196287976Y-51533333D02*
X196335595Y-51580952D01*
X196287976Y-51628571D01*
X196240357Y-51580952D01*
X196287976Y-51533333D01*
X196287976Y-51628571D01*
X198049880Y-52152380D02*
X197478452Y-52152380D01*
X197764166Y-52152380D02*
X197764166Y-51152380D01*
X197668928Y-51295238D01*
X197573690Y-51390476D01*
X197478452Y-51438095D01*
X198478452Y-52057142D02*
X198526071Y-52104761D01*
X198478452Y-52152380D01*
X198430833Y-52104761D01*
X198478452Y-52057142D01*
X198478452Y-52152380D01*
X199430833Y-51152380D02*
X198954642Y-51152380D01*
X198907023Y-51628571D01*
X198954642Y-51580952D01*
X199049880Y-51533333D01*
X199287976Y-51533333D01*
X199383214Y-51580952D01*
X199430833Y-51628571D01*
X199478452Y-51723809D01*
X199478452Y-51961904D01*
X199430833Y-52057142D01*
X199383214Y-52104761D01*
X199287976Y-52152380D01*
X199049880Y-52152380D01*
X198954642Y-52104761D01*
X198907023Y-52057142D01*
X199811785Y-51152380D02*
X200478452Y-51152380D01*
X200049880Y-52152380D01*
X201621309Y-52152380D02*
X201621309Y-51485714D01*
X201621309Y-51580952D02*
X201668928Y-51533333D01*
X201764166Y-51485714D01*
X201907023Y-51485714D01*
X202002261Y-51533333D01*
X202049880Y-51628571D01*
X202049880Y-52152380D01*
X202049880Y-51628571D02*
X202097500Y-51533333D01*
X202192738Y-51485714D01*
X202335595Y-51485714D01*
X202430833Y-51533333D01*
X202478452Y-51628571D01*
X202478452Y-52152380D01*
X202954642Y-52152380D02*
X202954642Y-51485714D01*
X202954642Y-51580952D02*
X203002261Y-51533333D01*
X203097500Y-51485714D01*
X203240357Y-51485714D01*
X203335595Y-51533333D01*
X203383214Y-51628571D01*
X203383214Y-52152380D01*
X203383214Y-51628571D02*
X203430833Y-51533333D01*
X203526071Y-51485714D01*
X203668928Y-51485714D01*
X203764166Y-51533333D01*
X203811785Y-51628571D01*
X203811785Y-52152380D01*
X205049880Y-51580952D02*
X205811785Y-51580952D01*
X205430833Y-51961904D02*
X205430833Y-51200000D01*
X205811785Y-52152380D02*
X205049880Y-52152380D01*
X207240357Y-51152380D02*
X207335595Y-51152380D01*
X207430833Y-51200000D01*
X207478452Y-51247619D01*
X207526071Y-51342857D01*
X207573690Y-51533333D01*
X207573690Y-51771428D01*
X207526071Y-51961904D01*
X207478452Y-52057142D01*
X207430833Y-52104761D01*
X207335595Y-52152380D01*
X207240357Y-52152380D01*
X207145119Y-52104761D01*
X207097500Y-52057142D01*
X207049880Y-51961904D01*
X207002261Y-51771428D01*
X207002261Y-51533333D01*
X207049880Y-51342857D01*
X207097500Y-51247619D01*
X207145119Y-51200000D01*
X207240357Y-51152380D01*
X208002261Y-52057142D02*
X208049880Y-52104761D01*
X208002261Y-52152380D01*
X207954642Y-52104761D01*
X208002261Y-52057142D01*
X208002261Y-52152380D01*
X209002261Y-52152380D02*
X208430833Y-52152380D01*
X208716547Y-52152380D02*
X208716547Y-51152380D01*
X208621309Y-51295238D01*
X208526071Y-51390476D01*
X208430833Y-51438095D01*
X209335595Y-51152380D02*
X209954642Y-51152380D01*
X209621309Y-51533333D01*
X209764166Y-51533333D01*
X209859404Y-51580952D01*
X209907023Y-51628571D01*
X209954642Y-51723809D01*
X209954642Y-51961904D01*
X209907023Y-52057142D01*
X209859404Y-52104761D01*
X209764166Y-52152380D01*
X209478452Y-52152380D01*
X209383214Y-52104761D01*
X209335595Y-52057142D01*
X211145119Y-52152380D02*
X211145119Y-51485714D01*
X211145119Y-51580952D02*
X211192738Y-51533333D01*
X211287976Y-51485714D01*
X211430833Y-51485714D01*
X211526071Y-51533333D01*
X211573690Y-51628571D01*
X211573690Y-52152380D01*
X211573690Y-51628571D02*
X211621309Y-51533333D01*
X211716547Y-51485714D01*
X211859404Y-51485714D01*
X211954642Y-51533333D01*
X212002261Y-51628571D01*
X212002261Y-52152380D01*
X212478452Y-52152380D02*
X212478452Y-51485714D01*
X212478452Y-51580952D02*
X212526071Y-51533333D01*
X212621309Y-51485714D01*
X212764166Y-51485714D01*
X212859404Y-51533333D01*
X212907023Y-51628571D01*
X212907023Y-52152380D01*
X212907023Y-51628571D02*
X212954642Y-51533333D01*
X213049880Y-51485714D01*
X213192738Y-51485714D01*
X213287976Y-51533333D01*
X213335595Y-51628571D01*
X213335595Y-52152380D01*
X180335595Y-53421428D02*
X181097500Y-53421428D01*
X182287976Y-53754761D02*
X182430833Y-53802380D01*
X182668928Y-53802380D01*
X182764166Y-53754761D01*
X182811785Y-53707142D01*
X182859404Y-53611904D01*
X182859404Y-53516666D01*
X182811785Y-53421428D01*
X182764166Y-53373809D01*
X182668928Y-53326190D01*
X182478452Y-53278571D01*
X182383214Y-53230952D01*
X182335595Y-53183333D01*
X182287976Y-53088095D01*
X182287976Y-52992857D01*
X182335595Y-52897619D01*
X182383214Y-52850000D01*
X182478452Y-52802380D01*
X182716547Y-52802380D01*
X182859404Y-52850000D01*
X183716547Y-53135714D02*
X183716547Y-53802380D01*
X183287976Y-53135714D02*
X183287976Y-53659523D01*
X183335595Y-53754761D01*
X183430833Y-53802380D01*
X183573690Y-53802380D01*
X183668928Y-53754761D01*
X183716547Y-53707142D01*
X184192738Y-53802380D02*
X184192738Y-53135714D01*
X184192738Y-53326190D02*
X184240357Y-53230952D01*
X184287976Y-53183333D01*
X184383214Y-53135714D01*
X184478452Y-53135714D01*
X184668928Y-53135714D02*
X185049880Y-53135714D01*
X184811785Y-53802380D02*
X184811785Y-52945238D01*
X184859404Y-52850000D01*
X184954642Y-52802380D01*
X185049880Y-52802380D01*
X185811785Y-53802380D02*
X185811785Y-53278571D01*
X185764166Y-53183333D01*
X185668928Y-53135714D01*
X185478452Y-53135714D01*
X185383214Y-53183333D01*
X185811785Y-53754761D02*
X185716547Y-53802380D01*
X185478452Y-53802380D01*
X185383214Y-53754761D01*
X185335595Y-53659523D01*
X185335595Y-53564285D01*
X185383214Y-53469047D01*
X185478452Y-53421428D01*
X185716547Y-53421428D01*
X185811785Y-53373809D01*
X186716547Y-53754761D02*
X186621309Y-53802380D01*
X186430833Y-53802380D01*
X186335595Y-53754761D01*
X186287976Y-53707142D01*
X186240357Y-53611904D01*
X186240357Y-53326190D01*
X186287976Y-53230952D01*
X186335595Y-53183333D01*
X186430833Y-53135714D01*
X186621309Y-53135714D01*
X186716547Y-53183333D01*
X187526071Y-53754761D02*
X187430833Y-53802380D01*
X187240357Y-53802380D01*
X187145119Y-53754761D01*
X187097500Y-53659523D01*
X187097500Y-53278571D01*
X187145119Y-53183333D01*
X187240357Y-53135714D01*
X187430833Y-53135714D01*
X187526071Y-53183333D01*
X187573690Y-53278571D01*
X187573690Y-53373809D01*
X187097500Y-53469047D01*
X188621309Y-53135714D02*
X189002261Y-53135714D01*
X188764166Y-53802380D02*
X188764166Y-52945238D01*
X188811785Y-52850000D01*
X188907023Y-52802380D01*
X189002261Y-52802380D01*
X189335595Y-53802380D02*
X189335595Y-53135714D01*
X189335595Y-52802380D02*
X189287976Y-52850000D01*
X189335595Y-52897619D01*
X189383214Y-52850000D01*
X189335595Y-52802380D01*
X189335595Y-52897619D01*
X189811785Y-53135714D02*
X189811785Y-53802380D01*
X189811785Y-53230952D02*
X189859404Y-53183333D01*
X189954642Y-53135714D01*
X190097500Y-53135714D01*
X190192738Y-53183333D01*
X190240357Y-53278571D01*
X190240357Y-53802380D01*
X190716547Y-53802380D02*
X190716547Y-53135714D01*
X190716547Y-52802380D02*
X190668928Y-52850000D01*
X190716547Y-52897619D01*
X190764166Y-52850000D01*
X190716547Y-52802380D01*
X190716547Y-52897619D01*
X191145119Y-53754761D02*
X191240357Y-53802380D01*
X191430833Y-53802380D01*
X191526071Y-53754761D01*
X191573690Y-53659523D01*
X191573690Y-53611904D01*
X191526071Y-53516666D01*
X191430833Y-53469047D01*
X191287976Y-53469047D01*
X191192738Y-53421428D01*
X191145119Y-53326190D01*
X191145119Y-53278571D01*
X191192738Y-53183333D01*
X191287976Y-53135714D01*
X191430833Y-53135714D01*
X191526071Y-53183333D01*
X192002261Y-53802380D02*
X192002261Y-52802380D01*
X192430833Y-53802380D02*
X192430833Y-53278571D01*
X192383214Y-53183333D01*
X192287976Y-53135714D01*
X192145119Y-53135714D01*
X192049880Y-53183333D01*
X192002261Y-53230952D01*
X192907023Y-53707142D02*
X192954642Y-53754761D01*
X192907023Y-53802380D01*
X192859404Y-53754761D01*
X192907023Y-53707142D01*
X192907023Y-53802380D01*
X192907023Y-53183333D02*
X192954642Y-53230952D01*
X192907023Y-53278571D01*
X192859404Y-53230952D01*
X192907023Y-53183333D01*
X192907023Y-53278571D01*
X194145119Y-53278571D02*
X194478452Y-53278571D01*
X194621309Y-53802380D02*
X194145119Y-53802380D01*
X194145119Y-52802380D01*
X194621309Y-52802380D01*
X195049880Y-53802380D02*
X195049880Y-52802380D01*
X195621309Y-53802380D01*
X195621309Y-52802380D01*
X196097500Y-53802380D02*
X196097500Y-52802380D01*
X197097500Y-52850000D02*
X197002261Y-52802380D01*
X196859404Y-52802380D01*
X196716547Y-52850000D01*
X196621309Y-52945238D01*
X196573690Y-53040476D01*
X196526071Y-53230952D01*
X196526071Y-53373809D01*
X196573690Y-53564285D01*
X196621309Y-53659523D01*
X196716547Y-53754761D01*
X196859404Y-53802380D01*
X196954642Y-53802380D01*
X197097500Y-53754761D01*
X197145119Y-53707142D01*
X197145119Y-53373809D01*
X196954642Y-53373809D01*
X180335595Y-55071428D02*
X181097500Y-55071428D01*
X182335595Y-55452380D02*
X182335595Y-54452380D01*
X182716547Y-54452380D01*
X182811785Y-54500000D01*
X182859404Y-54547619D01*
X182907023Y-54642857D01*
X182907023Y-54785714D01*
X182859404Y-54880952D01*
X182811785Y-54928571D01*
X182716547Y-54976190D01*
X182335595Y-54976190D01*
X183907023Y-55357142D02*
X183859404Y-55404761D01*
X183716547Y-55452380D01*
X183621309Y-55452380D01*
X183478452Y-55404761D01*
X183383214Y-55309523D01*
X183335595Y-55214285D01*
X183287976Y-55023809D01*
X183287976Y-54880952D01*
X183335595Y-54690476D01*
X183383214Y-54595238D01*
X183478452Y-54500000D01*
X183621309Y-54452380D01*
X183716547Y-54452380D01*
X183859404Y-54500000D01*
X183907023Y-54547619D01*
X184668928Y-54928571D02*
X184811785Y-54976190D01*
X184859404Y-55023809D01*
X184907023Y-55119047D01*
X184907023Y-55261904D01*
X184859404Y-55357142D01*
X184811785Y-55404761D01*
X184716547Y-55452380D01*
X184335595Y-55452380D01*
X184335595Y-54452380D01*
X184668928Y-54452380D01*
X184764166Y-54500000D01*
X184811785Y-54547619D01*
X184859404Y-54642857D01*
X184859404Y-54738095D01*
X184811785Y-54833333D01*
X184764166Y-54880952D01*
X184668928Y-54928571D01*
X184335595Y-54928571D01*
X185287976Y-55404761D02*
X185383214Y-55452380D01*
X185573690Y-55452380D01*
X185668928Y-55404761D01*
X185716547Y-55309523D01*
X185716547Y-55261904D01*
X185668928Y-55166666D01*
X185573690Y-55119047D01*
X185430833Y-55119047D01*
X185335595Y-55071428D01*
X185287976Y-54976190D01*
X185287976Y-54928571D01*
X185335595Y-54833333D01*
X185430833Y-54785714D01*
X185573690Y-54785714D01*
X185668928Y-54833333D01*
X187335595Y-55452380D02*
X187335595Y-54928571D01*
X187287976Y-54833333D01*
X187192738Y-54785714D01*
X187002261Y-54785714D01*
X186907023Y-54833333D01*
X187335595Y-55404761D02*
X187240357Y-55452380D01*
X187002261Y-55452380D01*
X186907023Y-55404761D01*
X186859404Y-55309523D01*
X186859404Y-55214285D01*
X186907023Y-55119047D01*
X187002261Y-55071428D01*
X187240357Y-55071428D01*
X187335595Y-55023809D01*
X187811785Y-55452380D02*
X187811785Y-54785714D01*
X187811785Y-54976190D02*
X187859404Y-54880952D01*
X187907023Y-54833333D01*
X188002261Y-54785714D01*
X188097500Y-54785714D01*
X188811785Y-55404761D02*
X188716547Y-55452380D01*
X188526071Y-55452380D01*
X188430833Y-55404761D01*
X188383214Y-55309523D01*
X188383214Y-54928571D01*
X188430833Y-54833333D01*
X188526071Y-54785714D01*
X188716547Y-54785714D01*
X188811785Y-54833333D01*
X188859404Y-54928571D01*
X188859404Y-55023809D01*
X188383214Y-55119047D01*
X189907023Y-54785714D02*
X190287976Y-54785714D01*
X190049880Y-54452380D02*
X190049880Y-55309523D01*
X190097500Y-55404761D01*
X190192738Y-55452380D01*
X190287976Y-55452380D01*
X190764166Y-55452380D02*
X190668928Y-55404761D01*
X190621309Y-55357142D01*
X190573690Y-55261904D01*
X190573690Y-54976190D01*
X190621309Y-54880952D01*
X190668928Y-54833333D01*
X190764166Y-54785714D01*
X190907023Y-54785714D01*
X191002261Y-54833333D01*
X191049880Y-54880952D01*
X191097500Y-54976190D01*
X191097500Y-55261904D01*
X191049880Y-55357142D01*
X191002261Y-55404761D01*
X190907023Y-55452380D01*
X190764166Y-55452380D01*
X192287976Y-55452380D02*
X192287976Y-54452380D01*
X192287976Y-54833333D02*
X192383214Y-54785714D01*
X192573690Y-54785714D01*
X192668928Y-54833333D01*
X192716547Y-54880952D01*
X192764166Y-54976190D01*
X192764166Y-55261904D01*
X192716547Y-55357142D01*
X192668928Y-55404761D01*
X192573690Y-55452380D01*
X192383214Y-55452380D01*
X192287976Y-55404761D01*
X193573690Y-55404761D02*
X193478452Y-55452380D01*
X193287976Y-55452380D01*
X193192738Y-55404761D01*
X193145119Y-55309523D01*
X193145119Y-54928571D01*
X193192738Y-54833333D01*
X193287976Y-54785714D01*
X193478452Y-54785714D01*
X193573690Y-54833333D01*
X193621309Y-54928571D01*
X193621309Y-55023809D01*
X193145119Y-55119047D01*
X195383214Y-55452380D02*
X195049880Y-54976190D01*
X194811785Y-55452380D02*
X194811785Y-54452380D01*
X195192738Y-54452380D01*
X195287976Y-54500000D01*
X195335595Y-54547619D01*
X195383214Y-54642857D01*
X195383214Y-54785714D01*
X195335595Y-54880952D01*
X195287976Y-54928571D01*
X195192738Y-54976190D01*
X194811785Y-54976190D01*
X195954642Y-55452380D02*
X195859404Y-55404761D01*
X195811785Y-55357142D01*
X195764166Y-55261904D01*
X195764166Y-54976190D01*
X195811785Y-54880952D01*
X195859404Y-54833333D01*
X195954642Y-54785714D01*
X196097500Y-54785714D01*
X196192738Y-54833333D01*
X196240357Y-54880952D01*
X196287976Y-54976190D01*
X196287976Y-55261904D01*
X196240357Y-55357142D01*
X196192738Y-55404761D01*
X196097500Y-55452380D01*
X195954642Y-55452380D01*
X196716547Y-55452380D02*
X196716547Y-54452380D01*
X196716547Y-54928571D02*
X197287976Y-54928571D01*
X197287976Y-55452380D02*
X197287976Y-54452380D01*
X197716547Y-55404761D02*
X197859404Y-55452380D01*
X198097500Y-55452380D01*
X198192738Y-55404761D01*
X198240357Y-55357142D01*
X198287976Y-55261904D01*
X198287976Y-55166666D01*
X198240357Y-55071428D01*
X198192738Y-55023809D01*
X198097500Y-54976190D01*
X197907023Y-54928571D01*
X197811785Y-54880952D01*
X197764166Y-54833333D01*
X197716547Y-54738095D01*
X197716547Y-54642857D01*
X197764166Y-54547619D01*
X197811785Y-54500000D01*
X197907023Y-54452380D01*
X198145119Y-54452380D01*
X198287976Y-54500000D01*
X199907023Y-55404761D02*
X199811785Y-55452380D01*
X199621309Y-55452380D01*
X199526071Y-55404761D01*
X199478452Y-55357142D01*
X199430833Y-55261904D01*
X199430833Y-54976190D01*
X199478452Y-54880952D01*
X199526071Y-54833333D01*
X199621309Y-54785714D01*
X199811785Y-54785714D01*
X199907023Y-54833333D01*
X200478452Y-55452380D02*
X200383214Y-55404761D01*
X200335595Y-55357142D01*
X200287976Y-55261904D01*
X200287976Y-54976190D01*
X200335595Y-54880952D01*
X200383214Y-54833333D01*
X200478452Y-54785714D01*
X200621309Y-54785714D01*
X200716547Y-54833333D01*
X200764166Y-54880952D01*
X200811785Y-54976190D01*
X200811785Y-55261904D01*
X200764166Y-55357142D01*
X200716547Y-55404761D01*
X200621309Y-55452380D01*
X200478452Y-55452380D01*
X201240357Y-55452380D02*
X201240357Y-54785714D01*
X201240357Y-54880952D02*
X201287976Y-54833333D01*
X201383214Y-54785714D01*
X201526071Y-54785714D01*
X201621309Y-54833333D01*
X201668928Y-54928571D01*
X201668928Y-55452380D01*
X201668928Y-54928571D02*
X201716547Y-54833333D01*
X201811785Y-54785714D01*
X201954642Y-54785714D01*
X202049880Y-54833333D01*
X202097500Y-54928571D01*
X202097500Y-55452380D01*
X202573690Y-54785714D02*
X202573690Y-55785714D01*
X202573690Y-54833333D02*
X202668928Y-54785714D01*
X202859404Y-54785714D01*
X202954642Y-54833333D01*
X203002261Y-54880952D01*
X203049880Y-54976190D01*
X203049880Y-55261904D01*
X203002261Y-55357142D01*
X202954642Y-55404761D01*
X202859404Y-55452380D01*
X202668928Y-55452380D01*
X202573690Y-55404761D01*
X203621309Y-55452380D02*
X203526071Y-55404761D01*
X203478452Y-55309523D01*
X203478452Y-54452380D01*
X204002261Y-55452380D02*
X204002261Y-54785714D01*
X204002261Y-54452380D02*
X203954642Y-54500000D01*
X204002261Y-54547619D01*
X204049880Y-54500000D01*
X204002261Y-54452380D01*
X204002261Y-54547619D01*
X204907023Y-55452380D02*
X204907023Y-54928571D01*
X204859404Y-54833333D01*
X204764166Y-54785714D01*
X204573690Y-54785714D01*
X204478452Y-54833333D01*
X204907023Y-55404761D02*
X204811785Y-55452380D01*
X204573690Y-55452380D01*
X204478452Y-55404761D01*
X204430833Y-55309523D01*
X204430833Y-55214285D01*
X204478452Y-55119047D01*
X204573690Y-55071428D01*
X204811785Y-55071428D01*
X204907023Y-55023809D01*
X205383214Y-54785714D02*
X205383214Y-55452380D01*
X205383214Y-54880952D02*
X205430833Y-54833333D01*
X205526071Y-54785714D01*
X205668928Y-54785714D01*
X205764166Y-54833333D01*
X205811785Y-54928571D01*
X205811785Y-55452380D01*
X206145119Y-54785714D02*
X206526071Y-54785714D01*
X206287976Y-54452380D02*
X206287976Y-55309523D01*
X206335595Y-55404761D01*
X206430833Y-55452380D01*
X206526071Y-55452380D01*
X180335595Y-56721428D02*
X181097500Y-56721428D01*
X182335595Y-57102380D02*
X182335595Y-56102380D01*
X182573690Y-56102380D01*
X182716547Y-56150000D01*
X182811785Y-56245238D01*
X182859404Y-56340476D01*
X182907023Y-56530952D01*
X182907023Y-56673809D01*
X182859404Y-56864285D01*
X182811785Y-56959523D01*
X182716547Y-57054761D01*
X182573690Y-57102380D01*
X182335595Y-57102380D01*
X183478452Y-57102380D02*
X183383214Y-57054761D01*
X183335595Y-57007142D01*
X183287976Y-56911904D01*
X183287976Y-56626190D01*
X183335595Y-56530952D01*
X183383214Y-56483333D01*
X183478452Y-56435714D01*
X183621309Y-56435714D01*
X183716547Y-56483333D01*
X183764166Y-56530952D01*
X183811785Y-56626190D01*
X183811785Y-56911904D01*
X183764166Y-57007142D01*
X183716547Y-57054761D01*
X183621309Y-57102380D01*
X183478452Y-57102380D01*
X185002261Y-56435714D02*
X185002261Y-57102380D01*
X185002261Y-56530952D02*
X185049880Y-56483333D01*
X185145119Y-56435714D01*
X185287976Y-56435714D01*
X185383214Y-56483333D01*
X185430833Y-56578571D01*
X185430833Y-57102380D01*
X186049880Y-57102380D02*
X185954642Y-57054761D01*
X185907023Y-57007142D01*
X185859404Y-56911904D01*
X185859404Y-56626190D01*
X185907023Y-56530952D01*
X185954642Y-56483333D01*
X186049880Y-56435714D01*
X186192738Y-56435714D01*
X186287976Y-56483333D01*
X186335595Y-56530952D01*
X186383214Y-56626190D01*
X186383214Y-56911904D01*
X186335595Y-57007142D01*
X186287976Y-57054761D01*
X186192738Y-57102380D01*
X186049880Y-57102380D01*
X186668928Y-56435714D02*
X187049880Y-56435714D01*
X186811785Y-56102380D02*
X186811785Y-56959523D01*
X186859404Y-57054761D01*
X186954642Y-57102380D01*
X187049880Y-57102380D01*
X188526071Y-57054761D02*
X188430833Y-57102380D01*
X188240357Y-57102380D01*
X188145119Y-57054761D01*
X188097500Y-56959523D01*
X188097500Y-56578571D01*
X188145119Y-56483333D01*
X188240357Y-56435714D01*
X188430833Y-56435714D01*
X188526071Y-56483333D01*
X188573690Y-56578571D01*
X188573690Y-56673809D01*
X188097500Y-56769047D01*
X189430833Y-57102380D02*
X189430833Y-56102380D01*
X189430833Y-57054761D02*
X189335595Y-57102380D01*
X189145119Y-57102380D01*
X189049880Y-57054761D01*
X189002261Y-57007142D01*
X188954642Y-56911904D01*
X188954642Y-56626190D01*
X189002261Y-56530952D01*
X189049880Y-56483333D01*
X189145119Y-56435714D01*
X189335595Y-56435714D01*
X189430833Y-56483333D01*
X189907023Y-57102380D02*
X189907023Y-56435714D01*
X189907023Y-56102380D02*
X189859404Y-56150000D01*
X189907023Y-56197619D01*
X189954642Y-56150000D01*
X189907023Y-56102380D01*
X189907023Y-56197619D01*
X190240357Y-56435714D02*
X190621309Y-56435714D01*
X190383214Y-56102380D02*
X190383214Y-56959523D01*
X190430833Y-57054761D01*
X190526071Y-57102380D01*
X190621309Y-57102380D01*
X192145119Y-57102380D02*
X192145119Y-56578571D01*
X192097500Y-56483333D01*
X192002261Y-56435714D01*
X191811785Y-56435714D01*
X191716547Y-56483333D01*
X192145119Y-57054761D02*
X192049880Y-57102380D01*
X191811785Y-57102380D01*
X191716547Y-57054761D01*
X191668928Y-56959523D01*
X191668928Y-56864285D01*
X191716547Y-56769047D01*
X191811785Y-56721428D01*
X192049880Y-56721428D01*
X192145119Y-56673809D01*
X192621309Y-57102380D02*
X192621309Y-56435714D01*
X192621309Y-56626190D02*
X192668928Y-56530952D01*
X192716547Y-56483333D01*
X192811785Y-56435714D01*
X192907023Y-56435714D01*
X193097500Y-56435714D02*
X193478452Y-56435714D01*
X193240357Y-56102380D02*
X193240357Y-56959523D01*
X193287976Y-57054761D01*
X193383214Y-57102380D01*
X193478452Y-57102380D01*
X193716547Y-56435714D02*
X193907023Y-57102380D01*
X194097500Y-56626190D01*
X194287976Y-57102380D01*
X194478452Y-56435714D01*
X195002261Y-57102380D02*
X194907023Y-57054761D01*
X194859404Y-57007142D01*
X194811785Y-56911904D01*
X194811785Y-56626190D01*
X194859404Y-56530952D01*
X194907023Y-56483333D01*
X195002261Y-56435714D01*
X195145119Y-56435714D01*
X195240357Y-56483333D01*
X195287976Y-56530952D01*
X195335595Y-56626190D01*
X195335595Y-56911904D01*
X195287976Y-57007142D01*
X195240357Y-57054761D01*
X195145119Y-57102380D01*
X195002261Y-57102380D01*
X195764166Y-57102380D02*
X195764166Y-56435714D01*
X195764166Y-56626190D02*
X195811785Y-56530952D01*
X195859404Y-56483333D01*
X195954642Y-56435714D01*
X196049880Y-56435714D01*
X196383214Y-57102380D02*
X196383214Y-56102380D01*
X196478452Y-56721428D02*
X196764166Y-57102380D01*
X196764166Y-56435714D02*
X196383214Y-56816666D01*
X197240357Y-57054761D02*
X197240357Y-57102380D01*
X197192738Y-57197619D01*
X197145119Y-57245238D01*
X198811785Y-57054761D02*
X198716547Y-57102380D01*
X198526071Y-57102380D01*
X198430833Y-57054761D01*
X198383214Y-56959523D01*
X198383214Y-56578571D01*
X198430833Y-56483333D01*
X198526071Y-56435714D01*
X198716547Y-56435714D01*
X198811785Y-56483333D01*
X198859404Y-56578571D01*
X198859404Y-56673809D01*
X198383214Y-56769047D01*
X199287976Y-57007142D02*
X199335595Y-57054761D01*
X199287976Y-57102380D01*
X199240357Y-57054761D01*
X199287976Y-57007142D01*
X199287976Y-57102380D01*
X200192738Y-56435714D02*
X200192738Y-57245238D01*
X200145119Y-57340476D01*
X200097500Y-57388095D01*
X200002261Y-57435714D01*
X199859404Y-57435714D01*
X199764166Y-57388095D01*
X200192738Y-57054761D02*
X200097500Y-57102380D01*
X199907023Y-57102380D01*
X199811785Y-57054761D01*
X199764166Y-57007142D01*
X199716547Y-56911904D01*
X199716547Y-56626190D01*
X199764166Y-56530952D01*
X199811785Y-56483333D01*
X199907023Y-56435714D01*
X200097500Y-56435714D01*
X200192738Y-56483333D01*
X200668928Y-57007142D02*
X200716547Y-57054761D01*
X200668928Y-57102380D01*
X200621309Y-57054761D01*
X200668928Y-57007142D01*
X200668928Y-57102380D01*
X201764166Y-56435714D02*
X202145119Y-56435714D01*
X201907023Y-56102380D02*
X201907023Y-56959523D01*
X201954642Y-57054761D01*
X202049880Y-57102380D01*
X202145119Y-57102380D01*
X202621309Y-57102380D02*
X202526071Y-57054761D01*
X202478452Y-57007142D01*
X202430833Y-56911904D01*
X202430833Y-56626190D01*
X202478452Y-56530952D01*
X202526071Y-56483333D01*
X202621309Y-56435714D01*
X202764166Y-56435714D01*
X202859404Y-56483333D01*
X202907023Y-56530952D01*
X202954642Y-56626190D01*
X202954642Y-56911904D01*
X202907023Y-57007142D01*
X202859404Y-57054761D01*
X202764166Y-57102380D01*
X202621309Y-57102380D01*
X204573690Y-57102380D02*
X204573690Y-56578571D01*
X204526071Y-56483333D01*
X204430833Y-56435714D01*
X204240357Y-56435714D01*
X204145119Y-56483333D01*
X204573690Y-57054761D02*
X204478452Y-57102380D01*
X204240357Y-57102380D01*
X204145119Y-57054761D01*
X204097500Y-56959523D01*
X204097500Y-56864285D01*
X204145119Y-56769047D01*
X204240357Y-56721428D01*
X204478452Y-56721428D01*
X204573690Y-56673809D01*
X205478452Y-57102380D02*
X205478452Y-56102380D01*
X205478452Y-57054761D02*
X205383214Y-57102380D01*
X205192738Y-57102380D01*
X205097500Y-57054761D01*
X205049880Y-57007142D01*
X205002261Y-56911904D01*
X205002261Y-56626190D01*
X205049880Y-56530952D01*
X205097500Y-56483333D01*
X205192738Y-56435714D01*
X205383214Y-56435714D01*
X205478452Y-56483333D01*
X206383214Y-57102380D02*
X206383214Y-56102380D01*
X206383214Y-57054761D02*
X206287976Y-57102380D01*
X206097500Y-57102380D01*
X206002261Y-57054761D01*
X205954642Y-57007142D01*
X205907023Y-56911904D01*
X205907023Y-56626190D01*
X205954642Y-56530952D01*
X206002261Y-56483333D01*
X206097500Y-56435714D01*
X206287976Y-56435714D01*
X206383214Y-56483333D01*
X207764166Y-57102380D02*
X207668928Y-57054761D01*
X207621309Y-56959523D01*
X207621309Y-56102380D01*
X208287976Y-57102380D02*
X208192738Y-57054761D01*
X208145119Y-57007142D01*
X208097500Y-56911904D01*
X208097500Y-56626190D01*
X208145119Y-56530952D01*
X208192738Y-56483333D01*
X208287976Y-56435714D01*
X208430833Y-56435714D01*
X208526071Y-56483333D01*
X208573690Y-56530952D01*
X208621309Y-56626190D01*
X208621309Y-56911904D01*
X208573690Y-57007142D01*
X208526071Y-57054761D01*
X208430833Y-57102380D01*
X208287976Y-57102380D01*
X209478452Y-56435714D02*
X209478452Y-57245238D01*
X209430833Y-57340476D01*
X209383214Y-57388095D01*
X209287976Y-57435714D01*
X209145119Y-57435714D01*
X209049880Y-57388095D01*
X209478452Y-57054761D02*
X209383214Y-57102380D01*
X209192738Y-57102380D01*
X209097500Y-57054761D01*
X209049880Y-57007142D01*
X209002261Y-56911904D01*
X209002261Y-56626190D01*
X209049880Y-56530952D01*
X209097500Y-56483333D01*
X209192738Y-56435714D01*
X209383214Y-56435714D01*
X209478452Y-56483333D01*
X210097500Y-57102380D02*
X210002261Y-57054761D01*
X209954642Y-57007142D01*
X209907023Y-56911904D01*
X209907023Y-56626190D01*
X209954642Y-56530952D01*
X210002261Y-56483333D01*
X210097500Y-56435714D01*
X210240357Y-56435714D01*
X210335595Y-56483333D01*
X210383214Y-56530952D01*
X210430833Y-56626190D01*
X210430833Y-56911904D01*
X210383214Y-57007142D01*
X210335595Y-57054761D01*
X210240357Y-57102380D01*
X210097500Y-57102380D01*
X210811785Y-57054761D02*
X210907023Y-57102380D01*
X211097500Y-57102380D01*
X211192738Y-57054761D01*
X211240357Y-56959523D01*
X211240357Y-56911904D01*
X211192738Y-56816666D01*
X211097500Y-56769047D01*
X210954642Y-56769047D01*
X210859404Y-56721428D01*
X210811785Y-56626190D01*
X210811785Y-56578571D01*
X210859404Y-56483333D01*
X210954642Y-56435714D01*
X211097500Y-56435714D01*
X211192738Y-56483333D01*
X182764166Y-58752380D02*
X182668928Y-58704761D01*
X182621309Y-58657142D01*
X182573690Y-58561904D01*
X182573690Y-58276190D01*
X182621309Y-58180952D01*
X182668928Y-58133333D01*
X182764166Y-58085714D01*
X182907023Y-58085714D01*
X183002261Y-58133333D01*
X183049880Y-58180952D01*
X183097500Y-58276190D01*
X183097500Y-58561904D01*
X183049880Y-58657142D01*
X183002261Y-58704761D01*
X182907023Y-58752380D01*
X182764166Y-58752380D01*
X183526071Y-58752380D02*
X183526071Y-58085714D01*
X183526071Y-58276190D02*
X183573690Y-58180952D01*
X183621309Y-58133333D01*
X183716547Y-58085714D01*
X183811785Y-58085714D01*
X185049880Y-58752380D02*
X184954642Y-58704761D01*
X184907023Y-58657142D01*
X184859404Y-58561904D01*
X184859404Y-58276190D01*
X184907023Y-58180952D01*
X184954642Y-58133333D01*
X185049880Y-58085714D01*
X185192738Y-58085714D01*
X185287976Y-58133333D01*
X185335595Y-58180952D01*
X185383214Y-58276190D01*
X185383214Y-58561904D01*
X185335595Y-58657142D01*
X185287976Y-58704761D01*
X185192738Y-58752380D01*
X185049880Y-58752380D01*
X185811785Y-58752380D02*
X185811785Y-58085714D01*
X185811785Y-58276190D02*
X185859404Y-58180952D01*
X185907023Y-58133333D01*
X186002261Y-58085714D01*
X186097500Y-58085714D01*
X186859404Y-58752380D02*
X186859404Y-57752380D01*
X186859404Y-58704761D02*
X186764166Y-58752380D01*
X186573690Y-58752380D01*
X186478452Y-58704761D01*
X186430833Y-58657142D01*
X186383214Y-58561904D01*
X186383214Y-58276190D01*
X186430833Y-58180952D01*
X186478452Y-58133333D01*
X186573690Y-58085714D01*
X186764166Y-58085714D01*
X186859404Y-58133333D01*
X187716547Y-58704761D02*
X187621309Y-58752380D01*
X187430833Y-58752380D01*
X187335595Y-58704761D01*
X187287976Y-58609523D01*
X187287976Y-58228571D01*
X187335595Y-58133333D01*
X187430833Y-58085714D01*
X187621309Y-58085714D01*
X187716547Y-58133333D01*
X187764166Y-58228571D01*
X187764166Y-58323809D01*
X187287976Y-58419047D01*
X188192738Y-58752380D02*
X188192738Y-58085714D01*
X188192738Y-58276190D02*
X188240357Y-58180952D01*
X188287976Y-58133333D01*
X188383214Y-58085714D01*
X188478452Y-58085714D01*
X189573690Y-58085714D02*
X189573690Y-58752380D01*
X189573690Y-58180952D02*
X189621309Y-58133333D01*
X189716547Y-58085714D01*
X189859404Y-58085714D01*
X189954642Y-58133333D01*
X190002261Y-58228571D01*
X190002261Y-58752380D01*
X190907023Y-58085714D02*
X190907023Y-58752380D01*
X190478452Y-58085714D02*
X190478452Y-58609523D01*
X190526071Y-58704761D01*
X190621309Y-58752380D01*
X190764166Y-58752380D01*
X190859404Y-58704761D01*
X190907023Y-58657142D01*
X191383214Y-58752380D02*
X191383214Y-58085714D01*
X191383214Y-58180952D02*
X191430833Y-58133333D01*
X191526071Y-58085714D01*
X191668928Y-58085714D01*
X191764166Y-58133333D01*
X191811785Y-58228571D01*
X191811785Y-58752380D01*
X191811785Y-58228571D02*
X191859404Y-58133333D01*
X191954642Y-58085714D01*
X192097500Y-58085714D01*
X192192738Y-58133333D01*
X192240357Y-58228571D01*
X192240357Y-58752380D01*
X192716547Y-58752380D02*
X192716547Y-57752380D01*
X192716547Y-58133333D02*
X192811785Y-58085714D01*
X193002261Y-58085714D01*
X193097500Y-58133333D01*
X193145119Y-58180952D01*
X193192738Y-58276190D01*
X193192738Y-58561904D01*
X193145119Y-58657142D01*
X193097500Y-58704761D01*
X193002261Y-58752380D01*
X192811785Y-58752380D01*
X192716547Y-58704761D01*
X194002261Y-58704761D02*
X193907023Y-58752380D01*
X193716547Y-58752380D01*
X193621309Y-58704761D01*
X193573690Y-58609523D01*
X193573690Y-58228571D01*
X193621309Y-58133333D01*
X193716547Y-58085714D01*
X193907023Y-58085714D01*
X194002261Y-58133333D01*
X194049880Y-58228571D01*
X194049880Y-58323809D01*
X193573690Y-58419047D01*
X194478452Y-58752380D02*
X194478452Y-58085714D01*
X194478452Y-58276190D02*
X194526071Y-58180952D01*
X194573690Y-58133333D01*
X194668928Y-58085714D01*
X194764166Y-58085714D01*
X195049880Y-58704761D02*
X195145119Y-58752380D01*
X195335595Y-58752380D01*
X195430833Y-58704761D01*
X195478452Y-58609523D01*
X195478452Y-58561904D01*
X195430833Y-58466666D01*
X195335595Y-58419047D01*
X195192738Y-58419047D01*
X195097500Y-58371428D01*
X195049880Y-58276190D01*
X195049880Y-58228571D01*
X195097500Y-58133333D01*
X195192738Y-58085714D01*
X195335595Y-58085714D01*
X195430833Y-58133333D01*
X180335595Y-60021428D02*
X181097500Y-60021428D01*
X182907023Y-60307142D02*
X182859404Y-60354761D01*
X182716547Y-60402380D01*
X182621309Y-60402380D01*
X182478452Y-60354761D01*
X182383214Y-60259523D01*
X182335595Y-60164285D01*
X182287976Y-59973809D01*
X182287976Y-59830952D01*
X182335595Y-59640476D01*
X182383214Y-59545238D01*
X182478452Y-59450000D01*
X182621309Y-59402380D01*
X182716547Y-59402380D01*
X182859404Y-59450000D01*
X182907023Y-59497619D01*
X183478452Y-60402380D02*
X183383214Y-60354761D01*
X183335595Y-60259523D01*
X183335595Y-59402380D01*
X184240357Y-60354761D02*
X184145119Y-60402380D01*
X183954642Y-60402380D01*
X183859404Y-60354761D01*
X183811785Y-60259523D01*
X183811785Y-59878571D01*
X183859404Y-59783333D01*
X183954642Y-59735714D01*
X184145119Y-59735714D01*
X184240357Y-59783333D01*
X184287976Y-59878571D01*
X184287976Y-59973809D01*
X183811785Y-60069047D01*
X185145119Y-60402380D02*
X185145119Y-59878571D01*
X185097500Y-59783333D01*
X185002261Y-59735714D01*
X184811785Y-59735714D01*
X184716547Y-59783333D01*
X185145119Y-60354761D02*
X185049880Y-60402380D01*
X184811785Y-60402380D01*
X184716547Y-60354761D01*
X184668928Y-60259523D01*
X184668928Y-60164285D01*
X184716547Y-60069047D01*
X184811785Y-60021428D01*
X185049880Y-60021428D01*
X185145119Y-59973809D01*
X185621309Y-59735714D02*
X185621309Y-60402380D01*
X185621309Y-59830952D02*
X185668928Y-59783333D01*
X185764166Y-59735714D01*
X185907023Y-59735714D01*
X186002261Y-59783333D01*
X186049880Y-59878571D01*
X186049880Y-60402380D01*
X187145119Y-59735714D02*
X187526071Y-59735714D01*
X187287976Y-59402380D02*
X187287976Y-60259523D01*
X187335595Y-60354761D01*
X187430833Y-60402380D01*
X187526071Y-60402380D01*
X188002261Y-60402380D02*
X187907023Y-60354761D01*
X187859404Y-60307142D01*
X187811785Y-60211904D01*
X187811785Y-59926190D01*
X187859404Y-59830952D01*
X187907023Y-59783333D01*
X188002261Y-59735714D01*
X188145119Y-59735714D01*
X188240357Y-59783333D01*
X188287976Y-59830952D01*
X188335595Y-59926190D01*
X188335595Y-60211904D01*
X188287976Y-60307142D01*
X188240357Y-60354761D01*
X188145119Y-60402380D01*
X188002261Y-60402380D01*
X189526071Y-60402380D02*
X189526071Y-59735714D01*
X189526071Y-59830952D02*
X189573690Y-59783333D01*
X189668928Y-59735714D01*
X189811785Y-59735714D01*
X189907023Y-59783333D01*
X189954642Y-59878571D01*
X189954642Y-60402380D01*
X189954642Y-59878571D02*
X190002261Y-59783333D01*
X190097500Y-59735714D01*
X190240357Y-59735714D01*
X190335595Y-59783333D01*
X190383214Y-59878571D01*
X190383214Y-60402380D01*
X191240357Y-60354761D02*
X191145119Y-60402380D01*
X190954642Y-60402380D01*
X190859404Y-60354761D01*
X190811785Y-60259523D01*
X190811785Y-59878571D01*
X190859404Y-59783333D01*
X190954642Y-59735714D01*
X191145119Y-59735714D01*
X191240357Y-59783333D01*
X191287976Y-59878571D01*
X191287976Y-59973809D01*
X190811785Y-60069047D01*
X192097500Y-60354761D02*
X192002261Y-60402380D01*
X191811785Y-60402380D01*
X191716547Y-60354761D01*
X191668928Y-60259523D01*
X191668928Y-59878571D01*
X191716547Y-59783333D01*
X191811785Y-59735714D01*
X192002261Y-59735714D01*
X192097500Y-59783333D01*
X192145119Y-59878571D01*
X192145119Y-59973809D01*
X191668928Y-60069047D01*
X192430833Y-59735714D02*
X192811785Y-59735714D01*
X192573690Y-59402380D02*
X192573690Y-60259523D01*
X192621309Y-60354761D01*
X192716547Y-60402380D01*
X192811785Y-60402380D01*
X193907023Y-60402380D02*
X193907023Y-59402380D01*
X194383214Y-60402380D02*
X194383214Y-59402380D01*
X194764166Y-59402380D01*
X194859404Y-59450000D01*
X194907023Y-59497619D01*
X194954642Y-59592857D01*
X194954642Y-59735714D01*
X194907023Y-59830952D01*
X194859404Y-59878571D01*
X194764166Y-59926190D01*
X194383214Y-59926190D01*
X195954642Y-60307142D02*
X195907023Y-60354761D01*
X195764166Y-60402380D01*
X195668928Y-60402380D01*
X195526071Y-60354761D01*
X195430833Y-60259523D01*
X195383214Y-60164285D01*
X195335595Y-59973809D01*
X195335595Y-59830952D01*
X195383214Y-59640476D01*
X195430833Y-59545238D01*
X195526071Y-59450000D01*
X195668928Y-59402380D01*
X195764166Y-59402380D01*
X195907023Y-59450000D01*
X195954642Y-59497619D01*
X197430833Y-59402380D02*
X197430833Y-60116666D01*
X197383214Y-60259523D01*
X197287976Y-60354761D01*
X197145119Y-60402380D01*
X197049880Y-60402380D01*
X197907023Y-60021428D02*
X198668928Y-60021428D01*
X199097500Y-60354761D02*
X199240357Y-60402380D01*
X199478452Y-60402380D01*
X199573690Y-60354761D01*
X199621309Y-60307142D01*
X199668928Y-60211904D01*
X199668928Y-60116666D01*
X199621309Y-60021428D01*
X199573690Y-59973809D01*
X199478452Y-59926190D01*
X199287976Y-59878571D01*
X199192738Y-59830952D01*
X199145119Y-59783333D01*
X199097500Y-59688095D01*
X199097500Y-59592857D01*
X199145119Y-59497619D01*
X199192738Y-59450000D01*
X199287976Y-59402380D01*
X199526071Y-59402380D01*
X199668928Y-59450000D01*
X199954642Y-59402380D02*
X200526071Y-59402380D01*
X200240357Y-60402380D02*
X200240357Y-59402380D01*
X200859404Y-60402380D02*
X200859404Y-59402380D01*
X201097500Y-59402380D01*
X201240357Y-59450000D01*
X201335595Y-59545238D01*
X201383214Y-59640476D01*
X201430833Y-59830952D01*
X201430833Y-59973809D01*
X201383214Y-60164285D01*
X201335595Y-60259523D01*
X201240357Y-60354761D01*
X201097500Y-60402380D01*
X200859404Y-60402380D01*
X201859404Y-60021428D02*
X202621309Y-60021428D01*
X203287976Y-59402380D02*
X203383214Y-59402380D01*
X203478452Y-59450000D01*
X203526071Y-59497619D01*
X203573690Y-59592857D01*
X203621309Y-59783333D01*
X203621309Y-60021428D01*
X203573690Y-60211904D01*
X203526071Y-60307142D01*
X203478452Y-60354761D01*
X203383214Y-60402380D01*
X203287976Y-60402380D01*
X203192738Y-60354761D01*
X203145119Y-60307142D01*
X203097500Y-60211904D01*
X203049880Y-60021428D01*
X203049880Y-59783333D01*
X203097500Y-59592857D01*
X203145119Y-59497619D01*
X203192738Y-59450000D01*
X203287976Y-59402380D01*
X204240357Y-59402380D02*
X204335595Y-59402380D01*
X204430833Y-59450000D01*
X204478452Y-59497619D01*
X204526071Y-59592857D01*
X204573690Y-59783333D01*
X204573690Y-60021428D01*
X204526071Y-60211904D01*
X204478452Y-60307142D01*
X204430833Y-60354761D01*
X204335595Y-60402380D01*
X204240357Y-60402380D01*
X204145119Y-60354761D01*
X204097500Y-60307142D01*
X204049880Y-60211904D01*
X204002261Y-60021428D01*
X204002261Y-59783333D01*
X204049880Y-59592857D01*
X204097500Y-59497619D01*
X204145119Y-59450000D01*
X204240357Y-59402380D01*
X205526071Y-60402380D02*
X204954642Y-60402380D01*
X205240357Y-60402380D02*
X205240357Y-59402380D01*
X205145119Y-59545238D01*
X205049880Y-59640476D01*
X204954642Y-59688095D01*
X205954642Y-59878571D02*
X206287976Y-59878571D01*
X206430833Y-60402380D02*
X205954642Y-60402380D01*
X205954642Y-59402380D01*
X206430833Y-59402380D01*
X206907023Y-60354761D02*
X206907023Y-60402380D01*
X206859404Y-60497619D01*
X206811785Y-60545238D01*
X208668928Y-60307142D02*
X208621309Y-60354761D01*
X208478452Y-60402380D01*
X208383214Y-60402380D01*
X208240357Y-60354761D01*
X208145119Y-60259523D01*
X208097500Y-60164285D01*
X208049880Y-59973809D01*
X208049880Y-59830952D01*
X208097500Y-59640476D01*
X208145119Y-59545238D01*
X208240357Y-59450000D01*
X208383214Y-59402380D01*
X208478452Y-59402380D01*
X208621309Y-59450000D01*
X208668928Y-59497619D01*
X209240357Y-60402380D02*
X209145119Y-60354761D01*
X209097500Y-60259523D01*
X209097500Y-59402380D01*
X210049880Y-60402380D02*
X210049880Y-59878571D01*
X210002261Y-59783333D01*
X209907023Y-59735714D01*
X209716547Y-59735714D01*
X209621309Y-59783333D01*
X210049880Y-60354761D02*
X209954642Y-60402380D01*
X209716547Y-60402380D01*
X209621309Y-60354761D01*
X209573690Y-60259523D01*
X209573690Y-60164285D01*
X209621309Y-60069047D01*
X209716547Y-60021428D01*
X209954642Y-60021428D01*
X210049880Y-59973809D01*
X210478452Y-60354761D02*
X210573690Y-60402380D01*
X210764166Y-60402380D01*
X210859404Y-60354761D01*
X210907023Y-60259523D01*
X210907023Y-60211904D01*
X210859404Y-60116666D01*
X210764166Y-60069047D01*
X210621309Y-60069047D01*
X210526071Y-60021428D01*
X210478452Y-59926190D01*
X210478452Y-59878571D01*
X210526071Y-59783333D01*
X210621309Y-59735714D01*
X210764166Y-59735714D01*
X210859404Y-59783333D01*
X211287976Y-60354761D02*
X211383214Y-60402380D01*
X211573690Y-60402380D01*
X211668928Y-60354761D01*
X211716547Y-60259523D01*
X211716547Y-60211904D01*
X211668928Y-60116666D01*
X211573690Y-60069047D01*
X211430833Y-60069047D01*
X211335595Y-60021428D01*
X211287976Y-59926190D01*
X211287976Y-59878571D01*
X211335595Y-59783333D01*
X211430833Y-59735714D01*
X211573690Y-59735714D01*
X211668928Y-59783333D01*
X212811785Y-59402380D02*
X213430833Y-59402380D01*
X213097500Y-59783333D01*
X213240357Y-59783333D01*
X213335595Y-59830952D01*
X213383214Y-59878571D01*
X213430833Y-59973809D01*
X213430833Y-60211904D01*
X213383214Y-60307142D01*
X213335595Y-60354761D01*
X213240357Y-60402380D01*
X212954642Y-60402380D01*
X212859404Y-60354761D01*
X212811785Y-60307142D01*
X183049880Y-62052380D02*
X183049880Y-61528571D01*
X183002261Y-61433333D01*
X182907023Y-61385714D01*
X182716547Y-61385714D01*
X182621309Y-61433333D01*
X183049880Y-62004761D02*
X182954642Y-62052380D01*
X182716547Y-62052380D01*
X182621309Y-62004761D01*
X182573690Y-61909523D01*
X182573690Y-61814285D01*
X182621309Y-61719047D01*
X182716547Y-61671428D01*
X182954642Y-61671428D01*
X183049880Y-61623809D01*
X183383214Y-61385714D02*
X183764166Y-61385714D01*
X183526071Y-62052380D02*
X183526071Y-61195238D01*
X183573690Y-61100000D01*
X183668928Y-61052380D01*
X183764166Y-61052380D01*
X183954642Y-61385714D02*
X184335595Y-61385714D01*
X184097500Y-61052380D02*
X184097500Y-61909523D01*
X184145119Y-62004761D01*
X184240357Y-62052380D01*
X184335595Y-62052380D01*
X185049880Y-62004761D02*
X184954642Y-62052380D01*
X184764166Y-62052380D01*
X184668928Y-62004761D01*
X184621309Y-61909523D01*
X184621309Y-61528571D01*
X184668928Y-61433333D01*
X184764166Y-61385714D01*
X184954642Y-61385714D01*
X185049880Y-61433333D01*
X185097500Y-61528571D01*
X185097500Y-61623809D01*
X184621309Y-61719047D01*
X185526071Y-62052380D02*
X185526071Y-61385714D01*
X185526071Y-61576190D02*
X185573690Y-61480952D01*
X185621309Y-61433333D01*
X185716547Y-61385714D01*
X185811785Y-61385714D01*
X187335595Y-62052380D02*
X187335595Y-61528571D01*
X187287976Y-61433333D01*
X187192738Y-61385714D01*
X187002261Y-61385714D01*
X186907023Y-61433333D01*
X187335595Y-62004761D02*
X187240357Y-62052380D01*
X187002261Y-62052380D01*
X186907023Y-62004761D01*
X186859404Y-61909523D01*
X186859404Y-61814285D01*
X186907023Y-61719047D01*
X187002261Y-61671428D01*
X187240357Y-61671428D01*
X187335595Y-61623809D01*
X187764166Y-62004761D02*
X187859404Y-62052380D01*
X188049880Y-62052380D01*
X188145119Y-62004761D01*
X188192738Y-61909523D01*
X188192738Y-61861904D01*
X188145119Y-61766666D01*
X188049880Y-61719047D01*
X187907023Y-61719047D01*
X187811785Y-61671428D01*
X187764166Y-61576190D01*
X187764166Y-61528571D01*
X187811785Y-61433333D01*
X187907023Y-61385714D01*
X188049880Y-61385714D01*
X188145119Y-61433333D01*
X188573690Y-62004761D02*
X188668928Y-62052380D01*
X188859404Y-62052380D01*
X188954642Y-62004761D01*
X189002261Y-61909523D01*
X189002261Y-61861904D01*
X188954642Y-61766666D01*
X188859404Y-61719047D01*
X188716547Y-61719047D01*
X188621309Y-61671428D01*
X188573690Y-61576190D01*
X188573690Y-61528571D01*
X188621309Y-61433333D01*
X188716547Y-61385714D01*
X188859404Y-61385714D01*
X188954642Y-61433333D01*
X189811785Y-62004761D02*
X189716547Y-62052380D01*
X189526071Y-62052380D01*
X189430833Y-62004761D01*
X189383214Y-61909523D01*
X189383214Y-61528571D01*
X189430833Y-61433333D01*
X189526071Y-61385714D01*
X189716547Y-61385714D01*
X189811785Y-61433333D01*
X189859404Y-61528571D01*
X189859404Y-61623809D01*
X189383214Y-61719047D01*
X190287976Y-62052380D02*
X190287976Y-61385714D01*
X190287976Y-61480952D02*
X190335595Y-61433333D01*
X190430833Y-61385714D01*
X190573690Y-61385714D01*
X190668928Y-61433333D01*
X190716547Y-61528571D01*
X190716547Y-62052380D01*
X190716547Y-61528571D02*
X190764166Y-61433333D01*
X190859404Y-61385714D01*
X191002261Y-61385714D01*
X191097500Y-61433333D01*
X191145119Y-61528571D01*
X191145119Y-62052380D01*
X191621309Y-62052380D02*
X191621309Y-61052380D01*
X191621309Y-61433333D02*
X191716547Y-61385714D01*
X191907023Y-61385714D01*
X192002261Y-61433333D01*
X192049880Y-61480952D01*
X192097500Y-61576190D01*
X192097500Y-61861904D01*
X192049880Y-61957142D01*
X192002261Y-62004761D01*
X191907023Y-62052380D01*
X191716547Y-62052380D01*
X191621309Y-62004761D01*
X192668928Y-62052380D02*
X192573690Y-62004761D01*
X192526071Y-61909523D01*
X192526071Y-61052380D01*
X192954642Y-61385714D02*
X193192738Y-62052380D01*
X193430833Y-61385714D02*
X193192738Y-62052380D01*
X193097500Y-62290476D01*
X193049880Y-62338095D01*
X192954642Y-62385714D01*
D11*
X106549972Y-60402044D02*
G75*
G03*
X107370943Y-59580699I2420028J-1597956D01*
G01*
X106543628Y-58753384D02*
X105723384Y-59573628D01*
X107370943Y-59580699D02*
X106543628Y-58753384D01*
X105723384Y-59573628D02*
X106550699Y-60400943D01*
X114177000Y-62000000D02*
G75*
G03*
X114177000Y-62000000I-5207000J0D01*
G01*
X125325000Y-59250000D02*
X128250000Y-59250000D01*
X128250000Y-59250000D02*
X128250000Y-64150000D01*
X128250000Y-64150000D02*
X124350000Y-64150000D01*
X124350000Y-64150000D02*
X124350000Y-60225000D01*
X124350000Y-60225000D02*
X125325000Y-59250000D01*
X122400000Y-67750000D02*
X122400000Y-68250000D01*
X122000000Y-67750000D02*
X122400000Y-67150000D01*
X122800000Y-67750000D02*
X122000000Y-67750000D01*
X122400000Y-67150000D02*
X122800000Y-67750000D01*
X122400000Y-67150000D02*
X121850000Y-67150000D01*
X122400000Y-67150000D02*
X122950000Y-67150000D01*
X122400000Y-66750000D02*
X122400000Y-67150000D01*
X121500000Y-66100000D02*
X123300000Y-66100000D01*
X121500000Y-68900000D02*
X121500000Y-66100000D01*
X123300000Y-68900000D02*
X121500000Y-68900000D01*
X123300000Y-66100000D02*
X123300000Y-68900000D01*
X120800000Y-69800000D02*
X120000000Y-69800000D01*
X120000000Y-69800000D02*
X120000000Y-68200000D01*
X120000000Y-68200000D02*
X120800000Y-68200000D01*
X120800000Y-68200000D02*
X120800000Y-69800000D01*
X120200000Y-52500000D02*
X119400000Y-52500000D01*
X119400000Y-52500000D02*
X119400000Y-50900000D01*
X119400000Y-50900000D02*
X120200000Y-50900000D01*
X120200000Y-50900000D02*
X120200000Y-52500000D01*
X122700000Y-72700000D02*
X121500000Y-72700000D01*
X121500000Y-72700000D02*
X121500000Y-70700000D01*
X121500000Y-70700000D02*
X122700000Y-70700000D01*
X122700000Y-70700000D02*
X122700000Y-72700000D01*
X124155000Y-68430000D02*
X124155000Y-70970000D01*
X131645000Y-68430000D02*
X124155000Y-68430000D01*
X124155000Y-70970000D02*
X131645000Y-70970000D01*
X131645000Y-70970000D02*
X131645000Y-68430000D01*
X131005000Y-68430000D02*
X131005000Y-70970000D01*
X124795000Y-68430000D02*
X124795000Y-70970000D01*
X132400000Y-62000000D02*
X130800000Y-62000000D01*
X130800000Y-62000000D02*
X130800000Y-58800000D01*
X130800000Y-58800000D02*
X132400000Y-58800000D01*
X132400000Y-58800000D02*
X132400000Y-62000000D01*
X121500000Y-63200000D02*
X119900000Y-63200000D01*
X119900000Y-63200000D02*
X119900000Y-60000000D01*
X119900000Y-60000000D02*
X121500000Y-60000000D01*
X121500000Y-60000000D02*
X121500000Y-63200000D01*
X128600000Y-65800000D02*
X128600000Y-67400000D01*
X128600000Y-67400000D02*
X125400000Y-67400000D01*
X125400000Y-67400000D02*
X125400000Y-65800000D01*
X125400000Y-65800000D02*
X128600000Y-65800000D01*
X120800000Y-66800000D02*
X120000000Y-66800000D01*
X120000000Y-66800000D02*
X120000000Y-65200000D01*
X120000000Y-65200000D02*
X120800000Y-65200000D01*
X120800000Y-65200000D02*
X120800000Y-66800000D01*
X115675000Y-51900000D02*
X114825000Y-51900000D01*
X114325000Y-52400000D02*
X114325000Y-54100000D01*
X115675000Y-51900000D02*
X115675000Y-54100000D01*
X115675000Y-54100000D02*
X114325000Y-54100000D01*
X114825000Y-51900000D02*
X114325000Y-52400000D01*
D10*
X107279523Y-66008380D02*
X106803333Y-66008380D01*
X106803333Y-65008380D01*
X107612857Y-66008380D02*
X107612857Y-65008380D01*
X107946190Y-65722666D01*
X108279523Y-65008380D01*
X108279523Y-66008380D01*
X108660476Y-65008380D02*
X109279523Y-65008380D01*
X108946190Y-65389333D01*
X109089047Y-65389333D01*
X109184285Y-65436952D01*
X109231904Y-65484571D01*
X109279523Y-65579809D01*
X109279523Y-65817904D01*
X109231904Y-65913142D01*
X109184285Y-65960761D01*
X109089047Y-66008380D01*
X108803333Y-66008380D01*
X108708095Y-65960761D01*
X108660476Y-65913142D01*
X109755714Y-66008380D02*
X109946190Y-66008380D01*
X110041428Y-65960761D01*
X110089047Y-65913142D01*
X110184285Y-65770285D01*
X110231904Y-65579809D01*
X110231904Y-65198857D01*
X110184285Y-65103619D01*
X110136666Y-65056000D01*
X110041428Y-65008380D01*
X109850952Y-65008380D01*
X109755714Y-65056000D01*
X109708095Y-65103619D01*
X109660476Y-65198857D01*
X109660476Y-65436952D01*
X109708095Y-65532190D01*
X109755714Y-65579809D01*
X109850952Y-65627428D01*
X110041428Y-65627428D01*
X110136666Y-65579809D01*
X110184285Y-65532190D01*
X110231904Y-65436952D01*
X110708095Y-66008380D02*
X110898571Y-66008380D01*
X110993809Y-65960761D01*
X111041428Y-65913142D01*
X111136666Y-65770285D01*
X111184285Y-65579809D01*
X111184285Y-65198857D01*
X111136666Y-65103619D01*
X111089047Y-65056000D01*
X110993809Y-65008380D01*
X110803333Y-65008380D01*
X110708095Y-65056000D01*
X110660476Y-65103619D01*
X110612857Y-65198857D01*
X110612857Y-65436952D01*
X110660476Y-65532190D01*
X110708095Y-65579809D01*
X110803333Y-65627428D01*
X110993809Y-65627428D01*
X111089047Y-65579809D01*
X111136666Y-65532190D01*
X111184285Y-65436952D01*
X108188095Y-61452380D02*
X108188095Y-62261904D01*
X108235714Y-62357142D01*
X108283333Y-62404761D01*
X108378571Y-62452380D01*
X108569047Y-62452380D01*
X108664285Y-62404761D01*
X108711904Y-62357142D01*
X108759523Y-62261904D01*
X108759523Y-61452380D01*
X109188095Y-61547619D02*
X109235714Y-61500000D01*
X109330952Y-61452380D01*
X109569047Y-61452380D01*
X109664285Y-61500000D01*
X109711904Y-61547619D01*
X109759523Y-61642857D01*
X109759523Y-61738095D01*
X109711904Y-61880952D01*
X109140476Y-62452380D01*
X109759523Y-62452380D01*
X124323809Y-65652380D02*
X123847619Y-65652380D01*
X123847619Y-64652380D01*
X124514285Y-64652380D02*
X125085714Y-64652380D01*
X124800000Y-65652380D02*
X124800000Y-64652380D01*
X125942857Y-65652380D02*
X125371428Y-65652380D01*
X125657142Y-65652380D02*
X125657142Y-64652380D01*
X125561904Y-64795238D01*
X125466666Y-64890476D01*
X125371428Y-64938095D01*
X126561904Y-64652380D02*
X126657142Y-64652380D01*
X126752380Y-64700000D01*
X126800000Y-64747619D01*
X126847619Y-64842857D01*
X126895238Y-65033333D01*
X126895238Y-65271428D01*
X126847619Y-65461904D01*
X126800000Y-65557142D01*
X126752380Y-65604761D01*
X126657142Y-65652380D01*
X126561904Y-65652380D01*
X126466666Y-65604761D01*
X126419047Y-65557142D01*
X126371428Y-65461904D01*
X126323809Y-65271428D01*
X126323809Y-65033333D01*
X126371428Y-64842857D01*
X126419047Y-64747619D01*
X126466666Y-64700000D01*
X126561904Y-64652380D01*
X127514285Y-64652380D02*
X127609523Y-64652380D01*
X127704761Y-64700000D01*
X127752380Y-64747619D01*
X127800000Y-64842857D01*
X127847619Y-65033333D01*
X127847619Y-65271428D01*
X127800000Y-65461904D01*
X127752380Y-65557142D01*
X127704761Y-65604761D01*
X127609523Y-65652380D01*
X127514285Y-65652380D01*
X127419047Y-65604761D01*
X127371428Y-65557142D01*
X127323809Y-65461904D01*
X127276190Y-65271428D01*
X127276190Y-65033333D01*
X127323809Y-64842857D01*
X127371428Y-64747619D01*
X127419047Y-64700000D01*
X127514285Y-64652380D01*
X128800000Y-65652380D02*
X128228571Y-65652380D01*
X128514285Y-65652380D02*
X128514285Y-64652380D01*
X128419047Y-64795238D01*
X128323809Y-64890476D01*
X128228571Y-64938095D01*
X125538095Y-61152380D02*
X125538095Y-61961904D01*
X125585714Y-62057142D01*
X125633333Y-62104761D01*
X125728571Y-62152380D01*
X125919047Y-62152380D01*
X126014285Y-62104761D01*
X126061904Y-62057142D01*
X126109523Y-61961904D01*
X126109523Y-61152380D01*
X126490476Y-61152380D02*
X127109523Y-61152380D01*
X126776190Y-61533333D01*
X126919047Y-61533333D01*
X127014285Y-61580952D01*
X127061904Y-61628571D01*
X127109523Y-61723809D01*
X127109523Y-61961904D01*
X127061904Y-62057142D01*
X127014285Y-62104761D01*
X126919047Y-62152380D01*
X126633333Y-62152380D01*
X126538095Y-62104761D01*
X126490476Y-62057142D01*
X120228571Y-69761904D02*
X120276190Y-69619047D01*
X120323809Y-69571428D01*
X120419047Y-69523809D01*
X120561904Y-69523809D01*
X120657142Y-69571428D01*
X120704761Y-69619047D01*
X120752380Y-69714285D01*
X120752380Y-70095238D01*
X119752380Y-70095238D01*
X119752380Y-69761904D01*
X119800000Y-69666666D01*
X119847619Y-69619047D01*
X119942857Y-69571428D01*
X120038095Y-69571428D01*
X120133333Y-69619047D01*
X120180952Y-69666666D01*
X120228571Y-69761904D01*
X120228571Y-70095238D01*
X120466666Y-69142857D02*
X120466666Y-68666666D01*
X120752380Y-69238095D02*
X119752380Y-68904761D01*
X120752380Y-68571428D01*
X120704761Y-68285714D02*
X120752380Y-68142857D01*
X120752380Y-67904761D01*
X120704761Y-67809523D01*
X120657142Y-67761904D01*
X120561904Y-67714285D01*
X120466666Y-67714285D01*
X120371428Y-67761904D01*
X120323809Y-67809523D01*
X120276190Y-67904761D01*
X120228571Y-68095238D01*
X120180952Y-68190476D01*
X120133333Y-68238095D01*
X120038095Y-68285714D01*
X119942857Y-68285714D01*
X119847619Y-68238095D01*
X119800000Y-68190476D01*
X119752380Y-68095238D01*
X119752380Y-67857142D01*
X119800000Y-67714285D01*
X120752380Y-66761904D02*
X120752380Y-67333333D01*
X120752380Y-67047619D02*
X119752380Y-67047619D01*
X119895238Y-67142857D01*
X119990476Y-67238095D01*
X120038095Y-67333333D01*
X120752380Y-65809523D02*
X120752380Y-66380952D01*
X120752380Y-66095238D02*
X119752380Y-66095238D01*
X119895238Y-66190476D01*
X119990476Y-66285714D01*
X120038095Y-66380952D01*
X119752380Y-64952380D02*
X119752380Y-65142857D01*
X119800000Y-65238095D01*
X119847619Y-65285714D01*
X119990476Y-65380952D01*
X120180952Y-65428571D01*
X120561904Y-65428571D01*
X120657142Y-65380952D01*
X120704761Y-65333333D01*
X120752380Y-65238095D01*
X120752380Y-65047619D01*
X120704761Y-64952380D01*
X120657142Y-64904761D01*
X120561904Y-64857142D01*
X120323809Y-64857142D01*
X120228571Y-64904761D01*
X120180952Y-64952380D01*
X120133333Y-65047619D01*
X120133333Y-65238095D01*
X120180952Y-65333333D01*
X120228571Y-65380952D01*
X120323809Y-65428571D01*
X124852380Y-68238095D02*
X123852380Y-68238095D01*
X123852380Y-68000000D01*
X123900000Y-67857142D01*
X123995238Y-67761904D01*
X124090476Y-67714285D01*
X124280952Y-67666666D01*
X124423809Y-67666666D01*
X124614285Y-67714285D01*
X124709523Y-67761904D01*
X124804761Y-67857142D01*
X124852380Y-68000000D01*
X124852380Y-68238095D01*
X124852380Y-66714285D02*
X124852380Y-67285714D01*
X124852380Y-67000000D02*
X123852380Y-67000000D01*
X123995238Y-67095238D01*
X124090476Y-67190476D01*
X124138095Y-67285714D01*
X122282380Y-69595238D02*
X122282380Y-70166666D01*
X122282380Y-69880952D02*
X121282380Y-69880952D01*
X121425238Y-69976190D01*
X121520476Y-70071428D01*
X121568095Y-70166666D01*
X121282380Y-68976190D02*
X121282380Y-68880952D01*
X121330000Y-68785714D01*
X121377619Y-68738095D01*
X121472857Y-68690476D01*
X121663333Y-68642857D01*
X121901428Y-68642857D01*
X122091904Y-68690476D01*
X122187142Y-68738095D01*
X122234761Y-68785714D01*
X122282380Y-68880952D01*
X122282380Y-68976190D01*
X122234761Y-69071428D01*
X122187142Y-69119047D01*
X122091904Y-69166666D01*
X121901428Y-69214285D01*
X121663333Y-69214285D01*
X121472857Y-69166666D01*
X121377619Y-69119047D01*
X121330000Y-69071428D01*
X121282380Y-68976190D01*
X122282380Y-68214285D02*
X121282380Y-68214285D01*
X121901428Y-68119047D02*
X122282380Y-67833333D01*
X121615714Y-67833333D02*
X121996666Y-68214285D01*
D12*
X120580952Y-69066666D02*
X120390476Y-69200000D01*
X120580952Y-69295238D02*
X120180952Y-69295238D01*
X120180952Y-69142857D01*
X120200000Y-69104761D01*
X120219047Y-69085714D01*
X120257142Y-69066666D01*
X120314285Y-69066666D01*
X120352380Y-69085714D01*
X120371428Y-69104761D01*
X120390476Y-69142857D01*
X120390476Y-69295238D01*
X120180952Y-68933333D02*
X120180952Y-68685714D01*
X120333333Y-68819047D01*
X120333333Y-68761904D01*
X120352380Y-68723809D01*
X120371428Y-68704761D01*
X120409523Y-68685714D01*
X120504761Y-68685714D01*
X120542857Y-68704761D01*
X120561904Y-68723809D01*
X120580952Y-68761904D01*
X120580952Y-68876190D01*
X120561904Y-68914285D01*
X120542857Y-68933333D01*
D10*
X121682380Y-52819047D02*
X121682380Y-53390476D01*
X121682380Y-53104761D02*
X120682380Y-53104761D01*
X120825238Y-53200000D01*
X120920476Y-53295238D01*
X120968095Y-53390476D01*
X120682380Y-52200000D02*
X120682380Y-52104761D01*
X120730000Y-52009523D01*
X120777619Y-51961904D01*
X120872857Y-51914285D01*
X121063333Y-51866666D01*
X121301428Y-51866666D01*
X121491904Y-51914285D01*
X121587142Y-51961904D01*
X121634761Y-52009523D01*
X121682380Y-52104761D01*
X121682380Y-52200000D01*
X121634761Y-52295238D01*
X121587142Y-52342857D01*
X121491904Y-52390476D01*
X121301428Y-52438095D01*
X121063333Y-52438095D01*
X120872857Y-52390476D01*
X120777619Y-52342857D01*
X120730000Y-52295238D01*
X120682380Y-52200000D01*
X120682380Y-51247619D02*
X120682380Y-51152380D01*
X120730000Y-51057142D01*
X120777619Y-51009523D01*
X120872857Y-50961904D01*
X121063333Y-50914285D01*
X121301428Y-50914285D01*
X121491904Y-50961904D01*
X121587142Y-51009523D01*
X121634761Y-51057142D01*
X121682380Y-51152380D01*
X121682380Y-51247619D01*
X121634761Y-51342857D01*
X121587142Y-51390476D01*
X121491904Y-51438095D01*
X121301428Y-51485714D01*
X121063333Y-51485714D01*
X120872857Y-51438095D01*
X120777619Y-51390476D01*
X120730000Y-51342857D01*
X120682380Y-51247619D01*
X121015714Y-50485714D02*
X121682380Y-50485714D01*
X121110952Y-50485714D02*
X121063333Y-50438095D01*
X121015714Y-50342857D01*
X121015714Y-50200000D01*
X121063333Y-50104761D01*
X121158571Y-50057142D01*
X121682380Y-50057142D01*
D12*
X119942857Y-51766666D02*
X119961904Y-51785714D01*
X119980952Y-51842857D01*
X119980952Y-51880952D01*
X119961904Y-51938095D01*
X119923809Y-51976190D01*
X119885714Y-51995238D01*
X119809523Y-52014285D01*
X119752380Y-52014285D01*
X119676190Y-51995238D01*
X119638095Y-51976190D01*
X119600000Y-51938095D01*
X119580952Y-51880952D01*
X119580952Y-51842857D01*
X119600000Y-51785714D01*
X119619047Y-51766666D01*
X119714285Y-51423809D02*
X119980952Y-51423809D01*
X119561904Y-51519047D02*
X119847619Y-51614285D01*
X119847619Y-51366666D01*
D10*
X122982380Y-73247619D02*
X122982380Y-72580952D01*
X123982380Y-73009523D01*
X123887142Y-72200000D02*
X123934761Y-72152380D01*
X123982380Y-72200000D01*
X123934761Y-72247619D01*
X123887142Y-72200000D01*
X123982380Y-72200000D01*
X122982380Y-71247619D02*
X122982380Y-71723809D01*
X123458571Y-71771428D01*
X123410952Y-71723809D01*
X123363333Y-71628571D01*
X123363333Y-71390476D01*
X123410952Y-71295238D01*
X123458571Y-71247619D01*
X123553809Y-71200000D01*
X123791904Y-71200000D01*
X123887142Y-71247619D01*
X123934761Y-71295238D01*
X123982380Y-71390476D01*
X123982380Y-71628571D01*
X123934761Y-71723809D01*
X123887142Y-71771428D01*
X123982380Y-70771428D02*
X122982380Y-70771428D01*
X123982380Y-70200000D02*
X123410952Y-70628571D01*
X122982380Y-70200000D02*
X123553809Y-70771428D01*
D12*
X122280952Y-71766666D02*
X122090476Y-71900000D01*
X122280952Y-71995238D02*
X121880952Y-71995238D01*
X121880952Y-71842857D01*
X121900000Y-71804761D01*
X121919047Y-71785714D01*
X121957142Y-71766666D01*
X122014285Y-71766666D01*
X122052380Y-71785714D01*
X122071428Y-71804761D01*
X122090476Y-71842857D01*
X122090476Y-71995238D01*
X122280952Y-71385714D02*
X122280952Y-71614285D01*
X122280952Y-71500000D02*
X121880952Y-71500000D01*
X121938095Y-71538095D01*
X121976190Y-71576190D01*
X121995238Y-71614285D01*
D10*
X99214285Y-75952380D02*
X99214285Y-74952380D01*
X99547619Y-75666666D01*
X99880952Y-74952380D01*
X99880952Y-75952380D01*
X100500000Y-75952380D02*
X100404761Y-75904761D01*
X100357142Y-75857142D01*
X100309523Y-75761904D01*
X100309523Y-75476190D01*
X100357142Y-75380952D01*
X100404761Y-75333333D01*
X100500000Y-75285714D01*
X100642857Y-75285714D01*
X100738095Y-75333333D01*
X100785714Y-75380952D01*
X100833333Y-75476190D01*
X100833333Y-75761904D01*
X100785714Y-75857142D01*
X100738095Y-75904761D01*
X100642857Y-75952380D01*
X100500000Y-75952380D01*
X101690476Y-75285714D02*
X101690476Y-75952380D01*
X101261904Y-75285714D02*
X101261904Y-75809523D01*
X101309523Y-75904761D01*
X101404761Y-75952380D01*
X101547619Y-75952380D01*
X101642857Y-75904761D01*
X101690476Y-75857142D01*
X102166666Y-75285714D02*
X102166666Y-75952380D01*
X102166666Y-75380952D02*
X102214285Y-75333333D01*
X102309523Y-75285714D01*
X102452380Y-75285714D01*
X102547619Y-75333333D01*
X102595238Y-75428571D01*
X102595238Y-75952380D01*
X102928571Y-75285714D02*
X103309523Y-75285714D01*
X103071428Y-74952380D02*
X103071428Y-75809523D01*
X103119047Y-75904761D01*
X103214285Y-75952380D01*
X103309523Y-75952380D01*
X103642857Y-75952380D02*
X103642857Y-75285714D01*
X103642857Y-74952380D02*
X103595238Y-75000000D01*
X103642857Y-75047619D01*
X103690476Y-75000000D01*
X103642857Y-74952380D01*
X103642857Y-75047619D01*
X104119047Y-75285714D02*
X104119047Y-75952380D01*
X104119047Y-75380952D02*
X104166666Y-75333333D01*
X104261904Y-75285714D01*
X104404761Y-75285714D01*
X104500000Y-75333333D01*
X104547619Y-75428571D01*
X104547619Y-75952380D01*
X105452380Y-75285714D02*
X105452380Y-76095238D01*
X105404761Y-76190476D01*
X105357142Y-76238095D01*
X105261904Y-76285714D01*
X105119047Y-76285714D01*
X105023809Y-76238095D01*
X105452380Y-75904761D02*
X105357142Y-75952380D01*
X105166666Y-75952380D01*
X105071428Y-75904761D01*
X105023809Y-75857142D01*
X104976190Y-75761904D01*
X104976190Y-75476190D01*
X105023809Y-75380952D01*
X105071428Y-75333333D01*
X105166666Y-75285714D01*
X105357142Y-75285714D01*
X105452380Y-75333333D01*
X105928571Y-75952380D02*
X105928571Y-74952380D01*
X105928571Y-75428571D02*
X106500000Y-75428571D01*
X106500000Y-75952380D02*
X106500000Y-74952380D01*
X107119047Y-75952380D02*
X107023809Y-75904761D01*
X106976190Y-75857142D01*
X106928571Y-75761904D01*
X106928571Y-75476190D01*
X106976190Y-75380952D01*
X107023809Y-75333333D01*
X107119047Y-75285714D01*
X107261904Y-75285714D01*
X107357142Y-75333333D01*
X107404761Y-75380952D01*
X107452380Y-75476190D01*
X107452380Y-75761904D01*
X107404761Y-75857142D01*
X107357142Y-75904761D01*
X107261904Y-75952380D01*
X107119047Y-75952380D01*
X108023809Y-75952380D02*
X107928571Y-75904761D01*
X107880952Y-75809523D01*
X107880952Y-74952380D01*
X108785714Y-75904761D02*
X108690476Y-75952380D01*
X108500000Y-75952380D01*
X108404761Y-75904761D01*
X108357142Y-75809523D01*
X108357142Y-75428571D01*
X108404761Y-75333333D01*
X108500000Y-75285714D01*
X108690476Y-75285714D01*
X108785714Y-75333333D01*
X108833333Y-75428571D01*
X108833333Y-75523809D01*
X108357142Y-75619047D01*
X103538095Y-72452380D02*
X103538095Y-71452380D01*
X103538095Y-71928571D02*
X104109523Y-71928571D01*
X104109523Y-72452380D02*
X104109523Y-71452380D01*
X105109523Y-72452380D02*
X104538095Y-72452380D01*
X104823809Y-72452380D02*
X104823809Y-71452380D01*
X104728571Y-71595238D01*
X104633333Y-71690476D01*
X104538095Y-71738095D01*
X125983809Y-73052380D02*
X125412380Y-73052380D01*
X125698095Y-73052380D02*
X125698095Y-72052380D01*
X125602857Y-72195238D01*
X125507619Y-72290476D01*
X125412380Y-72338095D01*
X126317142Y-72052380D02*
X126983809Y-72052380D01*
X126555238Y-73052380D01*
X127364761Y-73052380D02*
X127364761Y-72052380D01*
X127460000Y-72671428D02*
X127745714Y-73052380D01*
X127745714Y-72385714D02*
X127364761Y-72766666D01*
X128888571Y-72004761D02*
X128031428Y-73290476D01*
X129174285Y-72147619D02*
X129221904Y-72100000D01*
X129317142Y-72052380D01*
X129555238Y-72052380D01*
X129650476Y-72100000D01*
X129698095Y-72147619D01*
X129745714Y-72242857D01*
X129745714Y-72338095D01*
X129698095Y-72480952D01*
X129126666Y-73052380D01*
X129745714Y-73052380D01*
X130364761Y-72052380D02*
X130460000Y-72052380D01*
X130555238Y-72100000D01*
X130602857Y-72147619D01*
X130650476Y-72242857D01*
X130698095Y-72433333D01*
X130698095Y-72671428D01*
X130650476Y-72861904D01*
X130602857Y-72957142D01*
X130555238Y-73004761D01*
X130460000Y-73052380D01*
X130364761Y-73052380D01*
X130269523Y-73004761D01*
X130221904Y-72957142D01*
X130174285Y-72861904D01*
X130126666Y-72671428D01*
X130126666Y-72433333D01*
X130174285Y-72242857D01*
X130221904Y-72147619D01*
X130269523Y-72100000D01*
X130364761Y-72052380D01*
X131126666Y-73052380D02*
X131126666Y-72052380D01*
X131221904Y-72671428D02*
X131507619Y-73052380D01*
X131507619Y-72385714D02*
X131126666Y-72766666D01*
X133872380Y-61519047D02*
X133872380Y-62090476D01*
X133872380Y-61804761D02*
X132872380Y-61804761D01*
X133015238Y-61900000D01*
X133110476Y-61995238D01*
X133158095Y-62090476D01*
X132872380Y-60900000D02*
X132872380Y-60804761D01*
X132920000Y-60709523D01*
X132967619Y-60661904D01*
X133062857Y-60614285D01*
X133253333Y-60566666D01*
X133491428Y-60566666D01*
X133681904Y-60614285D01*
X133777142Y-60661904D01*
X133824761Y-60709523D01*
X133872380Y-60804761D01*
X133872380Y-60900000D01*
X133824761Y-60995238D01*
X133777142Y-61042857D01*
X133681904Y-61090476D01*
X133491428Y-61138095D01*
X133253333Y-61138095D01*
X133062857Y-61090476D01*
X132967619Y-61042857D01*
X132920000Y-60995238D01*
X132872380Y-60900000D01*
X132872380Y-59947619D02*
X132872380Y-59852380D01*
X132920000Y-59757142D01*
X132967619Y-59709523D01*
X133062857Y-59661904D01*
X133253333Y-59614285D01*
X133491428Y-59614285D01*
X133681904Y-59661904D01*
X133777142Y-59709523D01*
X133824761Y-59757142D01*
X133872380Y-59852380D01*
X133872380Y-59947619D01*
X133824761Y-60042857D01*
X133777142Y-60090476D01*
X133681904Y-60138095D01*
X133491428Y-60185714D01*
X133253333Y-60185714D01*
X133062857Y-60138095D01*
X132967619Y-60090476D01*
X132920000Y-60042857D01*
X132872380Y-59947619D01*
X133205714Y-59185714D02*
X133872380Y-59185714D01*
X133300952Y-59185714D02*
X133253333Y-59138095D01*
X133205714Y-59042857D01*
X133205714Y-58900000D01*
X133253333Y-58804761D01*
X133348571Y-58757142D01*
X133872380Y-58757142D01*
D13*
X131885714Y-60533333D02*
X131923809Y-60571428D01*
X131961904Y-60685714D01*
X131961904Y-60761904D01*
X131923809Y-60876190D01*
X131847619Y-60952380D01*
X131771428Y-60990476D01*
X131619047Y-61028571D01*
X131504761Y-61028571D01*
X131352380Y-60990476D01*
X131276190Y-60952380D01*
X131200000Y-60876190D01*
X131161904Y-60761904D01*
X131161904Y-60685714D01*
X131200000Y-60571428D01*
X131238095Y-60533333D01*
X131961904Y-59771428D02*
X131961904Y-60228571D01*
X131961904Y-60000000D02*
X131161904Y-60000000D01*
X131276190Y-60076190D01*
X131352380Y-60152380D01*
X131390476Y-60228571D01*
D10*
X122972380Y-62719047D02*
X122972380Y-63290476D01*
X122972380Y-63004761D02*
X121972380Y-63004761D01*
X122115238Y-63100000D01*
X122210476Y-63195238D01*
X122258095Y-63290476D01*
X121972380Y-62100000D02*
X121972380Y-62004761D01*
X122020000Y-61909523D01*
X122067619Y-61861904D01*
X122162857Y-61814285D01*
X122353333Y-61766666D01*
X122591428Y-61766666D01*
X122781904Y-61814285D01*
X122877142Y-61861904D01*
X122924761Y-61909523D01*
X122972380Y-62004761D01*
X122972380Y-62100000D01*
X122924761Y-62195238D01*
X122877142Y-62242857D01*
X122781904Y-62290476D01*
X122591428Y-62338095D01*
X122353333Y-62338095D01*
X122162857Y-62290476D01*
X122067619Y-62242857D01*
X122020000Y-62195238D01*
X121972380Y-62100000D01*
X121972380Y-61147619D02*
X121972380Y-61052380D01*
X122020000Y-60957142D01*
X122067619Y-60909523D01*
X122162857Y-60861904D01*
X122353333Y-60814285D01*
X122591428Y-60814285D01*
X122781904Y-60861904D01*
X122877142Y-60909523D01*
X122924761Y-60957142D01*
X122972380Y-61052380D01*
X122972380Y-61147619D01*
X122924761Y-61242857D01*
X122877142Y-61290476D01*
X122781904Y-61338095D01*
X122591428Y-61385714D01*
X122353333Y-61385714D01*
X122162857Y-61338095D01*
X122067619Y-61290476D01*
X122020000Y-61242857D01*
X121972380Y-61147619D01*
X122305714Y-60385714D02*
X122972380Y-60385714D01*
X122400952Y-60385714D02*
X122353333Y-60338095D01*
X122305714Y-60242857D01*
X122305714Y-60100000D01*
X122353333Y-60004761D01*
X122448571Y-59957142D01*
X122972380Y-59957142D01*
D13*
X120985714Y-61733333D02*
X121023809Y-61771428D01*
X121061904Y-61885714D01*
X121061904Y-61961904D01*
X121023809Y-62076190D01*
X120947619Y-62152380D01*
X120871428Y-62190476D01*
X120719047Y-62228571D01*
X120604761Y-62228571D01*
X120452380Y-62190476D01*
X120376190Y-62152380D01*
X120300000Y-62076190D01*
X120261904Y-61961904D01*
X120261904Y-61885714D01*
X120300000Y-61771428D01*
X120338095Y-61733333D01*
X120338095Y-61428571D02*
X120300000Y-61390476D01*
X120261904Y-61314285D01*
X120261904Y-61123809D01*
X120300000Y-61047619D01*
X120338095Y-61009523D01*
X120414285Y-60971428D01*
X120490476Y-60971428D01*
X120604761Y-61009523D01*
X121061904Y-61466666D01*
X121061904Y-60971428D01*
D10*
X125880952Y-65232380D02*
X125309523Y-65232380D01*
X125595238Y-65232380D02*
X125595238Y-64232380D01*
X125500000Y-64375238D01*
X125404761Y-64470476D01*
X125309523Y-64518095D01*
X126500000Y-64232380D02*
X126595238Y-64232380D01*
X126690476Y-64280000D01*
X126738095Y-64327619D01*
X126785714Y-64422857D01*
X126833333Y-64613333D01*
X126833333Y-64851428D01*
X126785714Y-65041904D01*
X126738095Y-65137142D01*
X126690476Y-65184761D01*
X126595238Y-65232380D01*
X126500000Y-65232380D01*
X126404761Y-65184761D01*
X126357142Y-65137142D01*
X126309523Y-65041904D01*
X126261904Y-64851428D01*
X126261904Y-64613333D01*
X126309523Y-64422857D01*
X126357142Y-64327619D01*
X126404761Y-64280000D01*
X126500000Y-64232380D01*
X127452380Y-64232380D02*
X127547619Y-64232380D01*
X127642857Y-64280000D01*
X127690476Y-64327619D01*
X127738095Y-64422857D01*
X127785714Y-64613333D01*
X127785714Y-64851428D01*
X127738095Y-65041904D01*
X127690476Y-65137142D01*
X127642857Y-65184761D01*
X127547619Y-65232380D01*
X127452380Y-65232380D01*
X127357142Y-65184761D01*
X127309523Y-65137142D01*
X127261904Y-65041904D01*
X127214285Y-64851428D01*
X127214285Y-64613333D01*
X127261904Y-64422857D01*
X127309523Y-64327619D01*
X127357142Y-64280000D01*
X127452380Y-64232380D01*
X128214285Y-64565714D02*
X128214285Y-65232380D01*
X128214285Y-64660952D02*
X128261904Y-64613333D01*
X128357142Y-64565714D01*
X128500000Y-64565714D01*
X128595238Y-64613333D01*
X128642857Y-64708571D01*
X128642857Y-65232380D01*
D13*
X126866666Y-66885714D02*
X126828571Y-66923809D01*
X126714285Y-66961904D01*
X126638095Y-66961904D01*
X126523809Y-66923809D01*
X126447619Y-66847619D01*
X126409523Y-66771428D01*
X126371428Y-66619047D01*
X126371428Y-66504761D01*
X126409523Y-66352380D01*
X126447619Y-66276190D01*
X126523809Y-66200000D01*
X126638095Y-66161904D01*
X126714285Y-66161904D01*
X126828571Y-66200000D01*
X126866666Y-66238095D01*
X127133333Y-66161904D02*
X127628571Y-66161904D01*
X127361904Y-66466666D01*
X127476190Y-66466666D01*
X127552380Y-66504761D01*
X127590476Y-66542857D01*
X127628571Y-66619047D01*
X127628571Y-66809523D01*
X127590476Y-66885714D01*
X127552380Y-66923809D01*
X127476190Y-66961904D01*
X127247619Y-66961904D01*
X127171428Y-66923809D01*
X127133333Y-66885714D01*
D10*
X121282380Y-67214285D02*
X121282380Y-66595238D01*
X121663333Y-66928571D01*
X121663333Y-66785714D01*
X121710952Y-66690476D01*
X121758571Y-66642857D01*
X121853809Y-66595238D01*
X122091904Y-66595238D01*
X122187142Y-66642857D01*
X122234761Y-66690476D01*
X122282380Y-66785714D01*
X122282380Y-67071428D01*
X122234761Y-67166666D01*
X122187142Y-67214285D01*
X121282380Y-65976190D02*
X121282380Y-65880952D01*
X121330000Y-65785714D01*
X121377619Y-65738095D01*
X121472857Y-65690476D01*
X121663333Y-65642857D01*
X121901428Y-65642857D01*
X122091904Y-65690476D01*
X122187142Y-65738095D01*
X122234761Y-65785714D01*
X122282380Y-65880952D01*
X122282380Y-65976190D01*
X122234761Y-66071428D01*
X122187142Y-66119047D01*
X122091904Y-66166666D01*
X121901428Y-66214285D01*
X121663333Y-66214285D01*
X121472857Y-66166666D01*
X121377619Y-66119047D01*
X121330000Y-66071428D01*
X121282380Y-65976190D01*
X122282380Y-65214285D02*
X121282380Y-65214285D01*
X121901428Y-65119047D02*
X122282380Y-64833333D01*
X121615714Y-64833333D02*
X121996666Y-65214285D01*
D12*
X120580952Y-66066666D02*
X120390476Y-66200000D01*
X120580952Y-66295238D02*
X120180952Y-66295238D01*
X120180952Y-66142857D01*
X120200000Y-66104761D01*
X120219047Y-66085714D01*
X120257142Y-66066666D01*
X120314285Y-66066666D01*
X120352380Y-66085714D01*
X120371428Y-66104761D01*
X120390476Y-66142857D01*
X120390476Y-66295238D01*
X120219047Y-65914285D02*
X120200000Y-65895238D01*
X120180952Y-65857142D01*
X120180952Y-65761904D01*
X120200000Y-65723809D01*
X120219047Y-65704761D01*
X120257142Y-65685714D01*
X120295238Y-65685714D01*
X120352380Y-65704761D01*
X120580952Y-65933333D01*
X120580952Y-65685714D01*
D10*
X112214285Y-54452380D02*
X112785714Y-54452380D01*
X112500000Y-55452380D02*
X112500000Y-54452380D01*
X113119047Y-55452380D02*
X113119047Y-54452380D01*
X113452380Y-55166666D01*
X113785714Y-54452380D01*
X113785714Y-55452380D01*
X114261904Y-55452380D02*
X114261904Y-54452380D01*
X114642857Y-54452380D01*
X114738095Y-54500000D01*
X114785714Y-54547619D01*
X114833333Y-54642857D01*
X114833333Y-54785714D01*
X114785714Y-54880952D01*
X114738095Y-54928571D01*
X114642857Y-54976190D01*
X114261904Y-54976190D01*
X115214285Y-54547619D02*
X115261904Y-54500000D01*
X115357142Y-54452380D01*
X115595238Y-54452380D01*
X115690476Y-54500000D01*
X115738095Y-54547619D01*
X115785714Y-54642857D01*
X115785714Y-54738095D01*
X115738095Y-54880952D01*
X115166666Y-55452380D01*
X115785714Y-55452380D01*
X116119047Y-54452380D02*
X116738095Y-54452380D01*
X116404761Y-54833333D01*
X116547619Y-54833333D01*
X116642857Y-54880952D01*
X116690476Y-54928571D01*
X116738095Y-55023809D01*
X116738095Y-55261904D01*
X116690476Y-55357142D01*
X116642857Y-55404761D01*
X116547619Y-55452380D01*
X116261904Y-55452380D01*
X116166666Y-55404761D01*
X116119047Y-55357142D01*
X117595238Y-54452380D02*
X117404761Y-54452380D01*
X117309523Y-54500000D01*
X117261904Y-54547619D01*
X117166666Y-54690476D01*
X117119047Y-54880952D01*
X117119047Y-55261904D01*
X117166666Y-55357142D01*
X117214285Y-55404761D01*
X117309523Y-55452380D01*
X117500000Y-55452380D01*
X117595238Y-55404761D01*
X117642857Y-55357142D01*
X117690476Y-55261904D01*
X117690476Y-55023809D01*
X117642857Y-54928571D01*
X117595238Y-54880952D01*
X117500000Y-54833333D01*
X117309523Y-54833333D01*
X117214285Y-54880952D01*
X117166666Y-54928571D01*
X117119047Y-55023809D01*
D14*
X114726190Y-53380952D02*
X115130952Y-53380952D01*
X115178571Y-53357142D01*
X115202380Y-53333333D01*
X115226190Y-53285714D01*
X115226190Y-53190476D01*
X115202380Y-53142857D01*
X115178571Y-53119047D01*
X115130952Y-53095238D01*
X114726190Y-53095238D01*
X115226190Y-52595238D02*
X115226190Y-52880952D01*
X115226190Y-52738095D02*
X114726190Y-52738095D01*
X114797619Y-52785714D01*
X114845238Y-52833333D01*
X114869047Y-52880952D01*
M02*
