<?xml version="1.0" standalone="no"?>
 <!DOCTYPE svg PUBLIC "-//W3C//DTD SVG 1.1//EN" 
 "http://www.w3.org/Graphics/SVG/1.1/DTD/svg11.dtd"> 
<svg xmlns="http://www.w3.org/2000/svg" version="1.1" 
    width="29.7002cm" height="21.0007cm" viewBox="0 0 116930 82680 ">
<title>SVG Picture created as LM399-Voltage Reference.svg date 2018/01/06 05:26:19 </title>
  <desc>Picture generated by Eeschema-SVG </desc>
<g style="fill:#000000; fill-opacity:1;stroke:#000000; stroke-opacity:1;
stroke-linecap:round; stroke-linejoin:round; "
 transform="translate(0 0) scale(1 1)">
</g>
<g style="fill:#000000; fill-opacity:0.0; 
stroke:#000000; stroke-width:0; stroke-opacity:1; 
stroke-linecap:round; stroke-linejoin:round;">
</g>
<g style="fill:#840000; fill-opacity:0.0; 
stroke:#840000; stroke-width:0; stroke-opacity:1; 
stroke-linecap:round; stroke-linejoin:round;">
</g>
<g style="fill:#FFFFC2; fill-opacity:0.0; 
stroke:#FFFFC2; stroke-width:0; stroke-opacity:1; 
stroke-linecap:round; stroke-linejoin:round;">
</g>
<g style="fill:#FFFFC2; fill-opacity:0.6; 
stroke:#FFFFC2; stroke-width:0; stroke-opacity:1; 
stroke-linecap:round; stroke-linejoin:round;">
<rect x="37100" y="30500" width="6700" height="5000" rx="0" />
</g>
<g style="fill:#840000; fill-opacity:0.6; 
stroke:#840000; stroke-width:0; stroke-opacity:1; 
stroke-linecap:round; stroke-linejoin:round;">
</g>
<g style="fill:#840000; fill-opacity:0.0; 
stroke:#840000; stroke-width:60; stroke-opacity:1; 
stroke-linecap:round; stroke-linejoin:round;">
<rect x="37100" y="30500" width="6700" height="5000" rx="0" />
</g>
<g style="fill:#840000; fill-opacity:1.0; 
stroke:#840000; stroke-width:60; stroke-opacity:1; 
stroke-linecap:round; stroke-linejoin:round;">
<circle cx="38500" cy="34500" r="100" /> 
<circle cx="41500" cy="34500" r="100" /> 
</g>
<g style="fill:#840000; fill-opacity:0.0; 
stroke:#840000; stroke-width:60; stroke-opacity:1; 
stroke-linecap:round; stroke-linejoin:round;">
<polyline fill="none;"
points="38500,34500
38500,35500
" /> 
<polyline fill="none;"
points="38500,34500
39600,34500
" /> 
<polyline fill="none;"
points="40400,34500
41500,34500
" /> 
<polyline fill="none;"
points="40400,34200
40400,34800
" /> 
<polyline fill="none;"
points="41500,34500
41500,35500
" /> 
<polyline fill="none;"
points="41500,34500
41500,32900
" /> 
<polyline fill="none;"
points="41500,32100
41500,30500
" /> 
</g>
<g style="fill:#840000; fill-opacity:1.0; 
stroke:#840000; stroke-width:60; stroke-opacity:1; 
stroke-linecap:round; stroke-linejoin:round;">
<polyline style="fill-rule:evenodd;"
points="39600,34100
39600,34900
40400,34500
39600,34100
" /> 
</g>
<g style="fill:#840000; fill-opacity:0.0; 
stroke:#840000; stroke-width:60; stroke-opacity:1; 
stroke-linecap:round; stroke-linejoin:round;">
<polyline fill="none;"
points="41100,32200
41200,32100
41800,32100
41900,32000
" /> 
</g>
<g style="fill:#840000; fill-opacity:1.0; 
stroke:#840000; stroke-width:60; stroke-opacity:1; 
stroke-linecap:round; stroke-linejoin:round;">
<polyline style="fill-rule:evenodd;"
points="41900,32900
41100,32900
41500,32100
41900,32900
" /> 
</g>
<g style="fill:#840000; fill-opacity:0.0; 
stroke:#840000; stroke-width:60; stroke-opacity:1; 
stroke-linecap:round; stroke-linejoin:round;">
<polyline fill="none;"
points="38500,30500
38500,30900
38900,30900
38900,31700
38100,31700
38100,32500
38900,32500
38900,33300
38100,33300
38100,34100
38500,34100
38500,34500
" /> 
<path d="M41500 30500
L41500 28500
" />
<path d="M41370 29350
L41370 29640
" />
<path d="M41370 29500
L40870 29500
L40940 29540
L40990 29590
L41010 29640
" />
<path d="M41500 35500
L41500 37500
" />
<path d="M40920 36640
L40900 36610
L40870 36570
L40870 36450
L40900 36400
L40920 36380
L40970 36350
L41010 36350
L41090 36380
L41370 36660
L41370 36350
" />
<path d="M38500 30500
L38500 28500
" />
<path d="M37870 29660
L37870 29350
L38060 29520
L38060 29450
L38090 29400
L38110 29380
L38160 29350
L38280 29350
L38320 29380
L38350 29400
L38370 29450
L38370 29590
L38350 29640
L38320 29660
" />
<path d="M38500 35500
L38500 37500
" />
<path d="M38040 36400
L38370 36400
" />
<path d="M37850 36520
L38200 36640
L38200 36330
" />
</g>
<g style="fill:#008484; fill-opacity:0.0; 
stroke:#008484; stroke-width:60; stroke-opacity:1; 
stroke-linecap:round; stroke-linejoin:round;">
<path d="M44250 32170
L44250 32650
L44280 32710
L44310 32740
L44360 32770
L44480 32770
L44530 32740
L44560 32710
L44590 32650
L44590 32170
" />
<path d="M44850 32220
L44880 32200
L44930 32170
L45080 32170
L45130 32200
L45160 32220
L45190 32280
L45190 32340
L45160 32420
L44820 32770
L45190 32770
" />
<path d="M44530 33830
L44250 33830
L44250 33230
" />
<path d="M44730 33830
L44730 33230
L44930 33660
L45130 33230
L45130 33830
" />
<path d="M45360 33230
L45730 33230
L45530 33460
L45620 33460
L45670 33480
L45700 33510
L45730 33570
L45730 33710
L45700 33770
L45670 33800
L45620 33830
L45450 33830
L45390 33800
L45360 33770
" />
<path d="M46020 33830
L46130 33830
L46190 33800
L46220 33770
L46270 33680
L46300 33570
L46300 33340
L46270 33280
L46250 33260
L46190 33230
L46070 33230
L46020 33260
L45990 33280
L45960 33340
L45960 33480
L45990 33540
L46020 33570
L46070 33600
L46190 33600
L46250 33570
L46270 33540
L46300 33480
" />
<path d="M46590 33830
L46700 33830
L46760 33800
L46790 33770
L46850 33680
L46870 33570
L46870 33340
L46850 33280
L46820 33260
L46760 33230
L46650 33230
L46590 33260
L46560 33280
L46530 33340
L46530 33480
L46560 33540
L46590 33570
L46650 33600
L46760 33600
L46820 33570
L46850 33540
L46870 33480
" />
</g>
<g style="fill:#848400; fill-opacity:0.0; 
stroke:#848400; stroke-width:60; stroke-opacity:1; 
stroke-linecap:round; stroke-linejoin:round;">
<path d="M38170 23210
L38770 23010
L38170 22810
" />
<path d="M38540 22610
L38540 22150
" />
<path d="M38770 21870
L38170 21870
" />
<path d="M38770 21610
L38450 21610
L38400 21640
L38370 21690
L38370 21780
L38400 21840
L38420 21870
" />
<path d="M38740 21090
L38770 21150
L38770 21270
L38740 21320
L38680 21350
L38450 21350
L38400 21320
L38370 21270
L38370 21150
L38400 21090
L38450 21070
L38510 21070
L38570 21350
" />
<path d="M38770 20550
L38450 20550
L38400 20580
L38370 20640
L38370 20750
L38400 20810
" />
<path d="M38740 20550
L38770 20610
L38770 20750
L38740 20810
L38680 20840
L38620 20840
L38570 20810
L38540 20750
L38540 20610
L38510 20550
" />
<path d="M38370 20350
L38370 20120
" />
<path d="M38170 20270
L38680 20270
L38740 20240
L38770 20180
L38770 20120
" />
<path d="M38740 19690
L38770 19750
L38770 19870
L38740 19920
L38680 19950
L38450 19950
L38400 19920
L38370 19870
L38370 19750
L38400 19690
L38450 19670
L38510 19670
L38570 19950
" />
<path d="M38770 19410
L38370 19410
" />
<path d="M38480 19410
L38420 19380
L38400 19350
L38370 19290
L38370 19240
" />
<path d="M38540 19040
L38540 18580
" />
<path d="M38770 18810
L38310 18810
" />
</g>
<g style="fill:#848400; fill-opacity:0.0; 
stroke:#848400; stroke-width:100; stroke-opacity:1; 
stroke-linecap:round; stroke-linejoin:round;">
<polyline fill="none;"
points="38800,24000
38800,23400
38200,23400
38200,24000
38800,24000
" /> 
</g>
<g style="fill:#848400; fill-opacity:0.0; 
stroke:#848400; stroke-width:60; stroke-opacity:1; 
stroke-linecap:round; stroke-linejoin:round;">
<path d="M38170 44710
L38770 44510
L38170 44310
" />
<path d="M38820 44250
L38820 43800
" />
<path d="M38770 43650
L38170 43650
" />
<path d="M38770 43400
L38450 43400
L38400 43430
L38370 43480
L38370 43570
L38400 43630
L38420 43650
" />
<path d="M38740 42880
L38770 42940
L38770 43050
L38740 43110
L38680 43140
L38450 43140
L38400 43110
L38370 43050
L38370 42940
L38400 42880
L38450 42850
L38510 42850
L38570 43140
" />
<path d="M38770 42340
L38450 42340
L38400 42370
L38370 42430
L38370 42540
L38400 42600
" />
<path d="M38740 42340
L38770 42400
L38770 42540
L38740 42600
L38680 42630
L38620 42630
L38570 42600
L38540 42540
L38540 42400
L38510 42340
" />
<path d="M38370 42140
L38370 41910
" />
<path d="M38170 42050
L38680 42050
L38740 42030
L38770 41970
L38770 41910
" />
<path d="M38740 41480
L38770 41540
L38770 41650
L38740 41710
L38680 41740
L38450 41740
L38400 41710
L38370 41650
L38370 41540
L38400 41480
L38450 41450
L38510 41450
L38570 41740
" />
<path d="M38770 41200
L38370 41200
" />
<path d="M38480 41200
L38420 41170
L38400 41140
L38370 41080
L38370 41030
" />
<path d="M38540 40830
L38540 40370
" />
</g>
<g style="fill:#848400; fill-opacity:0.0; 
stroke:#848400; stroke-width:100; stroke-opacity:1; 
stroke-linecap:round; stroke-linejoin:round;">
<polyline fill="none;"
points="38800,39500
38800,40100
38200,40100
38200,39500
38800,39500
" /> 
</g>
<g style="fill:#848400; fill-opacity:0.0; 
stroke:#848400; stroke-width:60; stroke-opacity:1; 
stroke-linecap:round; stroke-linejoin:round;">
<path d="M43670 49710
L44270 49510
L43670 49310
" />
<path d="M44320 49250
L44320 48790
" />
<path d="M43870 48710
L43870 48390
L44270 48710
L44270 48390
" />
<path d="M44240 47940
L44270 47990
L44270 48110
L44240 48170
L44180 48190
L43950 48190
L43900 48170
L43870 48110
L43870 47990
L43900 47940
L43950 47910
L44010 47910
L44070 48190
" />
<path d="M43870 47650
L44270 47650
" />
<path d="M43920 47650
L43900 47620
L43870 47570
L43870 47480
L43900 47420
L43950 47390
L44270 47390
" />
<path d="M44240 46880
L44270 46940
L44270 47050
L44240 47110
L44180 47140
L43950 47140
L43900 47110
L43870 47050
L43870 46940
L43900 46880
L43950 46850
L44010 46850
L44070 47140
" />
<path d="M44270 46590
L43870 46590
" />
<path d="M43980 46590
L43920 46570
L43900 46540
L43870 46480
L43870 46420
" />
<path d="M44040 46220
L44040 45770
" />
<path d="M44270 45990
L43810 45990
" />
<path d="M44320 45620
L44320 45170
" />
<path d="M43870 45110
L43870 44880
" />
<path d="M44270 45020
L43750 45020
L43700 44990
L43670 44940
L43670 44880
" />
<path d="M44270 44590
L44240 44650
L44210 44680
L44150 44710
L43980 44710
L43920 44680
L43900 44650
L43870 44590
L43870 44510
L43900 44450
L43920 44420
L43980 44390
L44150 44390
L44210 44420
L44240 44450
L44270 44510
L44270 44590
" />
<path d="M44270 44140
L43870 44140
" />
<path d="M43980 44140
L43920 44110
L43900 44080
L43870 44020
L43870 43970
" />
<path d="M44240 43510
L44270 43570
L44270 43680
L44240 43740
L44210 43770
L44150 43790
L43980 43790
L43920 43770
L43900 43740
L43870 43680
L43870 43570
L43900 43510
" />
<path d="M44240 43020
L44270 43080
L44270 43190
L44240 43250
L44180 43280
L43950 43280
L43900 43250
L43870 43190
L43870 43080
L43900 43020
L43950 42990
L44010 42990
L44070 43280
" />
</g>
<g style="fill:#848400; fill-opacity:0.0; 
stroke:#848400; stroke-width:100; stroke-opacity:1; 
stroke-linecap:round; stroke-linejoin:round;">
<polyline fill="none;"
points="44300,50500
44300,49900
43700,49900
43700,50500
44300,50500
" /> 
</g>
<g style="fill:#848400; fill-opacity:0.0; 
stroke:#848400; stroke-width:0; stroke-opacity:1; 
stroke-linecap:round; stroke-linejoin:round;">
</g>
<g style="fill:#840000; fill-opacity:0.0; 
stroke:#840000; stroke-width:0; stroke-opacity:1; 
stroke-linecap:round; stroke-linejoin:round;">
</g>
<g style="fill:#840000; fill-opacity:0.0; 
stroke:#840000; stroke-width:100; stroke-opacity:1; 
stroke-linecap:round; stroke-linejoin:round;">
<rect x="58000" y="27600" width="2000" height="800" rx="0" />
</g>
<g style="fill:#840000; fill-opacity:0.0; 
stroke:#840000; stroke-width:60; stroke-opacity:1; 
stroke-linecap:round; stroke-linejoin:round;">
<path d="M60000 28000
L60500 28000
" />
<path d="M58000 28000
L57500 28000
" />
</g>
<g style="fill:#008484; fill-opacity:0.0; 
stroke:#008484; stroke-width:60; stroke-opacity:1; 
stroke-linecap:round; stroke-linejoin:round;">
<path d="M58910 26170
L58750 25930
" />
<path d="M58630 26170
L58630 25670
L58820 25670
L58860 25700
L58890 25720
L58910 25770
L58910 25840
L58890 25890
L58860 25910
L58820 25930
L58630 25930
" />
<path d="M59390 26170
L59100 26170
" />
<path d="M59250 26170
L59250 25670
L59200 25740
L59150 25790
L59100 25810
" />
<path d="M58220 26580
L58550 26580
L58340 27080
" />
<path d="M58750 27030
L58770 27060
L58750 27080
L58720 27060
L58750 27030
L58750 27080
" />
<path d="M59220 26580
L58980 26580
L58960 26820
L58980 26800
L59030 26770
L59150 26770
L59200 26800
L59220 26820
L59250 26870
L59250 26990
L59220 27030
L59200 27060
L59150 27080
L59030 27080
L58980 27060
L58960 27030
" />
<path d="M59460 27080
L59460 26580
" />
<path d="M59750 27080
L59530 26800
" />
<path d="M59750 26580
L59460 26870
" />
</g>
<g style="fill:#848400; fill-opacity:0.0; 
stroke:#848400; stroke-width:60; stroke-opacity:1; 
stroke-linecap:round; stroke-linejoin:round;">
<path d="M57670 30210
L58270 30010
L57670 29810
" />
<path d="M58040 29610
L58040 29150
" />
<path d="M58270 29380
L57810 29380
" />
</g>
<g style="fill:#848400; fill-opacity:0.0; 
stroke:#848400; stroke-width:100; stroke-opacity:1; 
stroke-linecap:round; stroke-linejoin:round;">
<polyline fill="none;"
points="58300,31000
58300,30400
57700,30400
57700,31000
58300,31000
" /> 
</g>
<g style="fill:#848400; fill-opacity:0.0; 
stroke:#848400; stroke-width:60; stroke-opacity:1; 
stroke-linecap:round; stroke-linejoin:round;">
<path d="M57670 52430
L58270 52230
L57670 52030
" />
<path d="M58040 51830
L58040 51370
" />
</g>
<g style="fill:#848400; fill-opacity:0.0; 
stroke:#848400; stroke-width:100; stroke-opacity:1; 
stroke-linecap:round; stroke-linejoin:round;">
<polyline fill="none;"
points="58300,50500
58300,51100
57700,51100
57700,50500
58300,50500
" /> 
</g>
<g style="fill:#848400; fill-opacity:0.0; 
stroke:#848400; stroke-width:60; stroke-opacity:1; 
stroke-linecap:round; stroke-linejoin:round;">
<path d="M76280 40170
L76480 40770
L76680 40170
" />
<path d="M76740 40820
L77200 40820
" />
<path d="M77280 40370
L77600 40370
L77280 40770
L77600 40770
" />
<path d="M78050 40740
L78000 40770
L77880 40770
L77830 40740
L77800 40680
L77800 40450
L77830 40400
L77880 40370
L78000 40370
L78050 40400
L78080 40450
L78080 40510
L77800 40570
" />
<path d="M78340 40370
L78340 40770
" />
<path d="M78340 40420
L78370 40400
L78430 40370
L78510 40370
L78570 40400
L78600 40450
L78600 40770
" />
<path d="M79110 40740
L79050 40770
L78940 40770
L78880 40740
L78850 40680
L78850 40450
L78880 40400
L78940 40370
L79050 40370
L79110 40400
L79140 40450
L79140 40510
L78850 40570
" />
<path d="M79400 40770
L79400 40370
" />
<path d="M79400 40480
L79430 40420
L79450 40400
L79510 40370
L79570 40370
" />
<path d="M79770 40540
L80230 40540
" />
</g>
<g style="fill:#848400; fill-opacity:0.0; 
stroke:#848400; stroke-width:100; stroke-opacity:1; 
stroke-linecap:round; stroke-linejoin:round;">
<polyline fill="none;"
points="76100,40500
75800,40200
75500,40200
75500,40800
75800,40800
76100,40500
" /> 
</g>
<g style="fill:#848400; fill-opacity:0.0; 
stroke:#848400; stroke-width:0; stroke-opacity:1; 
stroke-linecap:round; stroke-linejoin:round;">
</g>
<g style="fill:#840000; fill-opacity:0.0; 
stroke:#840000; stroke-width:0; stroke-opacity:1; 
stroke-linecap:round; stroke-linejoin:round;">
</g>
<g style="fill:#840000; fill-opacity:0.0; 
stroke:#840000; stroke-width:200; stroke-opacity:1; 
stroke-linecap:round; stroke-linejoin:round;">
<polyline fill="none;"
points="64700,50800
66300,50800
" /> 
<polyline fill="none;"
points="64700,50200
66300,50200
" /> 
</g>
<g style="fill:#840000; fill-opacity:0.0; 
stroke:#840000; stroke-width:60; stroke-opacity:1; 
stroke-linecap:round; stroke-linejoin:round;">
<path d="M65500 50100
L65500 49000
" />
<path d="M65500 50900
L65500 52000
" />
</g>
<g style="fill:#008484; fill-opacity:0.0; 
stroke:#008484; stroke-width:60; stroke-opacity:1; 
stroke-linecap:round; stroke-linejoin:round;">
<path d="M67080 50230
L67060 50260
L66990 50280
L66940 50280
L66870 50260
L66820 50210
L66800 50160
L66770 50070
L66770 50000
L66800 49900
L66820 49850
L66870 49810
L66940 49780
L66990 49780
L67060 49810
L67080 49830
" />
<path d="M67250 49780
L67560 49780
L67390 49970
L67460 49970
L67510 50000
L67530 50020
L67560 50070
L67560 50190
L67530 50230
L67510 50260
L67460 50280
L67320 50280
L67270 50260
L67250 50230
" />
<path d="M67060 51190
L66770 51190
" />
<path d="M66910 51190
L66910 50690
L66870 50760
L66820 50810
L66770 50830
" />
<path d="M67370 50690
L67410 50690
L67460 50720
L67480 50740
L67510 50790
L67530 50880
L67530 51000
L67510 51100
L67480 51140
L67460 51170
L67410 51190
L67370 51190
L67320 51170
L67290 51140
L67270 51100
L67250 51000
L67250 50880
L67270 50790
L67290 50740
L67320 50720
L67370 50690
" />
<path d="M67840 50690
L67890 50690
L67940 50720
L67960 50740
L67980 50790
L68010 50880
L68010 51000
L67980 51100
L67960 51140
L67940 51170
L67890 51190
L67840 51190
L67790 51170
L67770 51140
L67750 51100
L67720 51000
L67720 50880
L67750 50790
L67770 50740
L67790 50720
L67840 50690
" />
<path d="M68220 50860
L68220 51190
" />
<path d="M68220 50910
L68250 50880
L68290 50860
L68370 50860
L68410 50880
L68440 50930
L68440 51190
" />
</g>
<g style="fill:#008484; fill-opacity:0.0; 
stroke:#008484; stroke-width:0; stroke-opacity:1; 
stroke-linecap:round; stroke-linejoin:round;">
</g>
<g style="fill:#840000; fill-opacity:0.0; 
stroke:#840000; stroke-width:0; stroke-opacity:1; 
stroke-linecap:round; stroke-linejoin:round;">
</g>
<g style="fill:#840000; fill-opacity:0.0; 
stroke:#840000; stroke-width:200; stroke-opacity:1; 
stroke-linecap:round; stroke-linejoin:round;">
<polyline fill="none;"
points="61200,34800
62800,34800
" /> 
<polyline fill="none;"
points="61200,34200
62800,34200
" /> 
</g>
<g style="fill:#840000; fill-opacity:0.0; 
stroke:#840000; stroke-width:60; stroke-opacity:1; 
stroke-linecap:round; stroke-linejoin:round;">
<path d="M62000 34100
L62000 33000
" />
<path d="M62000 34900
L62000 36000
" />
</g>
<g style="fill:#008484; fill-opacity:0.0; 
stroke:#008484; stroke-width:60; stroke-opacity:1; 
stroke-linecap:round; stroke-linejoin:round;">
<path d="M63580 34230
L63560 34260
L63490 34280
L63440 34280
L63370 34260
L63320 34210
L63300 34160
L63270 34070
L63270 34000
L63300 33900
L63320 33850
L63370 33810
L63440 33780
L63490 33780
L63560 33810
L63580 33830
" />
<path d="M64060 34280
L63770 34280
" />
<path d="M63920 34280
L63920 33780
L63870 33850
L63820 33900
L63770 33920
" />
<path d="M63560 35190
L63270 35190
" />
<path d="M63410 35190
L63410 34690
L63370 34760
L63320 34810
L63270 34830
" />
<path d="M63870 34690
L63910 34690
L63960 34720
L63980 34740
L64010 34790
L64030 34880
L64030 35000
L64010 35100
L63980 35140
L63960 35170
L63910 35190
L63870 35190
L63820 35170
L63790 35140
L63770 35100
L63750 35000
L63750 34880
L63770 34790
L63790 34740
L63820 34720
L63870 34690
" />
<path d="M64340 34690
L64390 34690
L64440 34720
L64460 34740
L64480 34790
L64510 34880
L64510 35000
L64480 35100
L64460 35140
L64440 35170
L64390 35190
L64340 35190
L64290 35170
L64270 35140
L64250 35100
L64220 35000
L64220 34880
L64250 34790
L64270 34740
L64290 34720
L64340 34690
" />
<path d="M64720 34860
L64720 35190
" />
<path d="M64720 34910
L64750 34880
L64790 34860
L64870 34860
L64910 34880
L64940 34930
L64940 35190
" />
</g>
<g style="fill:#008484; fill-opacity:0.0; 
stroke:#008484; stroke-width:0; stroke-opacity:1; 
stroke-linecap:round; stroke-linejoin:round;">
</g>
<g style="fill:#840000; fill-opacity:0.0; 
stroke:#840000; stroke-width:0; stroke-opacity:1; 
stroke-linecap:round; stroke-linejoin:round;">
</g>
<g style="fill:#840000; fill-opacity:0.0; 
stroke:#840000; stroke-width:60; stroke-opacity:1; 
stroke-linecap:round; stroke-linejoin:round;">
<polyline fill="none;"
points="62000,37000
62000,37500
62500,37500
62000,38000
61500,37500
62000,37500
" /> 
</g>
<g style="fill:#008484; fill-opacity:0.0; 
stroke:#008484; stroke-width:60; stroke-opacity:1; 
stroke-linecap:round; stroke-linejoin:round;">
<path d="M61660 38500
L61620 38470
L61550 38470
L61470 38500
L61430 38540
L61400 38590
L61380 38690
L61380 38760
L61400 38850
L61430 38900
L61470 38950
L61550 38970
L61590 38970
L61660 38950
L61690 38920
L61690 38760
L61590 38760
" />
<path d="M61900 38970
L61900 38470
L62190 38970
L62190 38470
" />
<path d="M62430 38970
L62430 38470
L62550 38470
L62620 38500
L62660 38540
L62690 38590
L62710 38690
L62710 38760
L62690 38850
L62660 38900
L62620 38950
L62550 38970
L62430 38970
" />
</g>
<g style="fill:#008484; fill-opacity:0.0; 
stroke:#008484; stroke-width:0; stroke-opacity:1; 
stroke-linecap:round; stroke-linejoin:round;">
</g>
<g style="fill:#840000; fill-opacity:0.0; 
stroke:#840000; stroke-width:0; stroke-opacity:1; 
stroke-linecap:round; stroke-linejoin:round;">
</g>
<g style="fill:#840000; fill-opacity:0.0; 
stroke:#840000; stroke-width:60; stroke-opacity:1; 
stroke-linecap:round; stroke-linejoin:round;">
<polyline fill="none;"
points="62000,50000
62000,50500
62500,50500
62000,51000
61500,50500
62000,50500
" /> 
</g>
<g style="fill:#008484; fill-opacity:0.0; 
stroke:#008484; stroke-width:60; stroke-opacity:1; 
stroke-linecap:round; stroke-linejoin:round;">
<path d="M61660 51500
L61620 51470
L61550 51470
L61470 51500
L61430 51540
L61400 51590
L61380 51690
L61380 51760
L61400 51850
L61430 51900
L61470 51950
L61550 51970
L61590 51970
L61660 51950
L61690 51920
L61690 51760
L61590 51760
" />
<path d="M61900 51970
L61900 51470
L62190 51970
L62190 51470
" />
<path d="M62430 51970
L62430 51470
L62550 51470
L62620 51500
L62660 51540
L62690 51590
L62710 51690
L62710 51760
L62690 51850
L62660 51900
L62620 51950
L62550 51970
L62430 51970
" />
</g>
<g style="fill:#008484; fill-opacity:0.0; 
stroke:#008484; stroke-width:0; stroke-opacity:1; 
stroke-linecap:round; stroke-linejoin:round;">
</g>
<g style="fill:#840000; fill-opacity:0.0; 
stroke:#840000; stroke-width:0; stroke-opacity:1; 
stroke-linecap:round; stroke-linejoin:round;">
</g>
<g style="fill:#840000; fill-opacity:0.0; 
stroke:#840000; stroke-width:200; stroke-opacity:1; 
stroke-linecap:round; stroke-linejoin:round;">
<polyline fill="none;"
points="61200,47800
62800,47800
" /> 
<polyline fill="none;"
points="61200,47200
62800,47200
" /> 
</g>
<g style="fill:#840000; fill-opacity:0.0; 
stroke:#840000; stroke-width:60; stroke-opacity:1; 
stroke-linecap:round; stroke-linejoin:round;">
<path d="M62000 47100
L62000 46000
" />
<path d="M62000 47900
L62000 49000
" />
</g>
<g style="fill:#008484; fill-opacity:0.0; 
stroke:#008484; stroke-width:60; stroke-opacity:1; 
stroke-linecap:round; stroke-linejoin:round;">
<path d="M63580 47230
L63560 47260
L63490 47280
L63440 47280
L63370 47260
L63320 47210
L63300 47160
L63270 47070
L63270 47000
L63300 46900
L63320 46850
L63370 46810
L63440 46780
L63490 46780
L63560 46810
L63580 46830
" />
<path d="M63770 46830
L63800 46810
L63840 46780
L63960 46780
L64010 46810
L64030 46830
L64060 46880
L64060 46920
L64030 47000
L63750 47280
L64060 47280
" />
<path d="M63560 48190
L63270 48190
" />
<path d="M63410 48190
L63410 47690
L63370 47760
L63320 47810
L63270 47830
" />
<path d="M63870 47690
L63910 47690
L63960 47720
L63980 47740
L64010 47790
L64030 47880
L64030 48000
L64010 48100
L63980 48140
L63960 48170
L63910 48190
L63870 48190
L63820 48170
L63790 48140
L63770 48100
L63750 48000
L63750 47880
L63770 47790
L63790 47740
L63820 47720
L63870 47690
" />
<path d="M64340 47690
L64390 47690
L64440 47720
L64460 47740
L64480 47790
L64510 47880
L64510 48000
L64480 48100
L64460 48140
L64440 48170
L64390 48190
L64340 48190
L64290 48170
L64270 48140
L64250 48100
L64220 48000
L64220 47880
L64250 47790
L64270 47740
L64290 47720
L64340 47690
" />
<path d="M64720 47860
L64720 48190
" />
<path d="M64720 47910
L64750 47880
L64790 47860
L64870 47860
L64910 47880
L64940 47930
L64940 48190
" />
</g>
<g style="fill:#000084; fill-opacity:0.0; 
stroke:#000084; stroke-width:60; stroke-opacity:1; 
stroke-linecap:round; stroke-linejoin:round;">
<path d="M58760 37760
L59240 38240
" />
<path d="M59240 37760
L58760 38240
" />
<path d="M58760 42760
L59240 43240
" />
<path d="M59240 42760
L58760 43240
" />
</g>
<g style="fill:#848400; fill-opacity:0.0; 
stroke:#848400; stroke-width:60; stroke-opacity:1; 
stroke-linecap:round; stroke-linejoin:round;">
<path d="M46670 49710
L47270 49510
L46670 49310
" />
<path d="M47320 49250
L47320 48790
" />
<path d="M46870 48710
L46870 48390
L47270 48710
L47270 48390
" />
<path d="M47240 47940
L47270 47990
L47270 48110
L47240 48170
L47180 48190
L46950 48190
L46900 48170
L46870 48110
L46870 47990
L46900 47940
L46950 47910
L47010 47910
L47070 48190
" />
<path d="M46870 47650
L47270 47650
" />
<path d="M46920 47650
L46900 47620
L46870 47570
L46870 47480
L46900 47420
L46950 47390
L47270 47390
" />
<path d="M47240 46880
L47270 46940
L47270 47050
L47240 47110
L47180 47140
L46950 47140
L46900 47110
L46870 47050
L46870 46940
L46900 46880
L46950 46850
L47010 46850
L47070 47140
" />
<path d="M47270 46590
L46870 46590
" />
<path d="M46980 46590
L46920 46570
L46900 46540
L46870 46480
L46870 46420
" />
<path d="M47040 46220
L47040 45770
" />
<path d="M47270 45990
L46810 45990
" />
<path d="M47320 45620
L47320 45170
" />
<path d="M47240 45050
L47270 44990
L47270 44880
L47240 44820
L47180 44790
L47150 44790
L47100 44820
L47070 44880
L47070 44970
L47040 45020
L46980 45050
L46950 45050
L46900 45020
L46870 44970
L46870 44880
L46900 44820
" />
<path d="M47240 44310
L47270 44370
L47270 44480
L47240 44540
L47180 44570
L46950 44570
L46900 44540
L46870 44480
L46870 44370
L46900 44310
L46950 44280
L47010 44280
L47070 44570
" />
<path d="M46870 44020
L47270 44020
" />
<path d="M46920 44020
L46900 43990
L46870 43940
L46870 43850
L46900 43790
L46950 43770
L47270 43770
" />
<path d="M47240 43510
L47270 43450
L47270 43340
L47240 43280
L47180 43250
L47150 43250
L47100 43280
L47070 43340
L47070 43420
L47040 43480
L46980 43510
L46950 43510
L46900 43480
L46870 43420
L46870 43340
L46900 43280
" />
<path d="M47240 42770
L47270 42820
L47270 42940
L47240 42990
L47180 43020
L46950 43020
L46900 42990
L46870 42940
L46870 42820
L46900 42770
L46950 42740
L47010 42740
L47070 43020
" />
</g>
<g style="fill:#848400; fill-opacity:0.0; 
stroke:#848400; stroke-width:100; stroke-opacity:1; 
stroke-linecap:round; stroke-linejoin:round;">
<polyline fill="none;"
points="47000,49900
47300,50200
47300,50500
46700,50500
46700,50200
47000,49900
" /> 
</g>
<g style="fill:#848400; fill-opacity:0.0; 
stroke:#848400; stroke-width:0; stroke-opacity:1; 
stroke-linecap:round; stroke-linejoin:round;">
</g>
<g style="fill:#840000; fill-opacity:0.0; 
stroke:#840000; stroke-width:0; stroke-opacity:1; 
stroke-linecap:round; stroke-linejoin:round;">
</g>
<g style="fill:#840000; fill-opacity:1.0; 
stroke:#840000; stroke-width:60; stroke-opacity:1; 
stroke-linecap:round; stroke-linejoin:round;">
<circle cx="47000" cy="52000" r="140" /> 
</g>
<g style="fill:#840000; fill-opacity:0.0; 
stroke:#840000; stroke-width:60; stroke-opacity:1; 
stroke-linecap:round; stroke-linejoin:round;">
<circle cx="47000" cy="52000" r="300" /> 
<path d="M47000 52000
L47000 51000
" />
<path d="M46870 51350
L46870 51640
" />
<path d="M46870 51500
L46370 51500
L46440 51540
L46490 51590
L46510 51640
" />
<path d="M47000 52000
L47000 53000
" />
<path d="M46420 52640
L46400 52610
L46370 52570
L46370 52450
L46400 52400
L46420 52380
L46470 52350
L46510 52350
L46590 52380
L46870 52660
L46870 52350
" />
</g>
<g style="fill:#008484; fill-opacity:0.0; 
stroke:#008484; stroke-width:60; stroke-opacity:1; 
stroke-linecap:round; stroke-linejoin:round;">
<path d="M47970 51280
L48090 51780
L48190 51420
L48280 51780
L48400 51280
" />
<path d="M48850 51780
L48570 51780
" />
<path d="M48710 51780
L48710 51280
L48660 51350
L48620 51400
L48570 51420
" />
<path d="M48020 52690
L48020 52190
L48310 52690
L48310 52190
" />
<path d="M48540 52430
L48710 52430
" />
<path d="M48780 52690
L48540 52690
L48540 52190
L48780 52190
" />
<path d="M48930 52190
L49210 52190
" />
<path d="M49070 52690
L49070 52190
" />
<path d="M49380 52500
L49760 52500
" />
<path d="M49930 52190
L50210 52190
" />
<path d="M50070 52690
L50070 52190
" />
<path d="M50380 52690
L50380 52190
" />
<path d="M50620 52430
L50780 52430
" />
<path d="M50850 52690
L50620 52690
L50620 52190
L50850 52190
" />
</g>
<g style="fill:#008484; fill-opacity:0.0; 
stroke:#008484; stroke-width:0; stroke-opacity:1; 
stroke-linecap:round; stroke-linejoin:round;">
</g>
<g style="fill:#840000; fill-opacity:0.0; 
stroke:#840000; stroke-width:0; stroke-opacity:1; 
stroke-linecap:round; stroke-linejoin:round;">
</g>
<g style="fill:#840000; fill-opacity:1.0; 
stroke:#840000; stroke-width:60; stroke-opacity:1; 
stroke-linecap:round; stroke-linejoin:round;">
<circle cx="69000" cy="59000" r="140" /> 
</g>
<g style="fill:#840000; fill-opacity:0.0; 
stroke:#840000; stroke-width:60; stroke-opacity:1; 
stroke-linecap:round; stroke-linejoin:round;">
<circle cx="69000" cy="59000" r="300" /> 
<path d="M69000 59000
L69000 58000
" />
<path d="M68870 58350
L68870 58640
" />
<path d="M68870 58500
L68370 58500
L68440 58540
L68490 58590
L68510 58640
" />
<path d="M69000 59000
L69000 60000
" />
<path d="M68420 59640
L68400 59610
L68370 59570
L68370 59450
L68400 59400
L68420 59380
L68470 59350
L68510 59350
L68590 59380
L68870 59660
L68870 59350
" />
</g>
<g style="fill:#008484; fill-opacity:0.0; 
stroke:#008484; stroke-width:60; stroke-opacity:1; 
stroke-linecap:round; stroke-linejoin:round;">
<path d="M69970 58280
L70090 58780
L70190 58420
L70280 58780
L70400 58280
" />
<path d="M70540 58280
L70850 58280
L70690 58470
L70760 58470
L70810 58500
L70830 58520
L70850 58570
L70850 58690
L70830 58730
L70810 58760
L70760 58780
L70620 58780
L70570 58760
L70540 58730
" />
<path d="M70020 59690
L70020 59190
L70310 59690
L70310 59190
" />
<path d="M70540 59430
L70710 59430
" />
<path d="M70780 59690
L70540 59690
L70540 59190
L70780 59190
" />
<path d="M70930 59190
L71210 59190
" />
<path d="M71070 59690
L71070 59190
" />
<path d="M71380 59500
L71760 59500
" />
<path d="M71930 59190
L72210 59190
" />
<path d="M72070 59690
L72070 59190
" />
<path d="M72380 59690
L72380 59190
" />
<path d="M72620 59430
L72780 59430
" />
<path d="M72850 59690
L72620 59690
L72620 59190
L72850 59190
" />
</g>
<g style="fill:#000000; fill-opacity:0.0; 
stroke:#000000; stroke-width:60; stroke-opacity:1; 
stroke-linecap:round; stroke-linejoin:round;">
<path d="M43270 59110
L43870 58910
L43270 58710
" />
<path d="M43920 58650
L43920 58200
" />
<path d="M43470 58110
L43470 57800
L43870 58110
L43870 57800
" />
<path d="M43840 57340
L43870 57400
L43870 57510
L43840 57570
L43780 57600
L43550 57600
L43500 57570
L43470 57510
L43470 57400
L43500 57340
L43550 57310
L43610 57310
L43670 57600
" />
<path d="M43470 57050
L43870 57050
" />
<path d="M43520 57050
L43500 57030
L43470 56970
L43470 56880
L43500 56830
L43550 56800
L43870 56800
" />
<path d="M43840 56280
L43870 56340
L43870 56450
L43840 56510
L43780 56540
L43550 56540
L43500 56510
L43470 56450
L43470 56340
L43500 56280
L43550 56250
L43610 56250
L43670 56540
" />
<path d="M43870 56000
L43470 56000
" />
<path d="M43580 56000
L43520 55970
L43500 55940
L43470 55880
L43470 55830
" />
<path d="M43640 55630
L43640 55170
" />
<path d="M43870 55400
L43410 55400
" />
<path d="M68270 65110
L68870 64910
L68270 64710
" />
<path d="M68920 64650
L68920 64200
" />
<path d="M68470 64110
L68470 63800
L68870 64110
L68870 63800
" />
<path d="M68840 63340
L68870 63400
L68870 63510
L68840 63570
L68780 63600
L68550 63600
L68500 63570
L68470 63510
L68470 63400
L68500 63340
L68550 63310
L68610 63310
L68670 63600
" />
<path d="M68470 63050
L68870 63050
" />
<path d="M68520 63050
L68500 63030
L68470 62970
L68470 62880
L68500 62830
L68550 62800
L68870 62800
" />
<path d="M68840 62280
L68870 62340
L68870 62450
L68840 62510
L68780 62540
L68550 62540
L68500 62510
L68470 62450
L68470 62340
L68500 62280
L68550 62250
L68610 62250
L68670 62540
" />
<path d="M68870 62000
L68470 62000
" />
<path d="M68580 62000
L68520 61970
L68500 61940
L68470 61880
L68470 61830
" />
<path d="M68640 61630
L68640 61170
" />
<path d="M68870 61400
L68410 61400
" />
<path d="M40770 27410
L41370 27210
L40770 27010
" />
<path d="M41420 26950
L41420 26490
" />
<path d="M40970 26410
L40970 26090
L41370 26410
L41370 26090
" />
<path d="M41340 25640
L41370 25690
L41370 25810
L41340 25870
L41280 25890
L41050 25890
L41000 25870
L40970 25810
L40970 25690
L41000 25640
L41050 25610
L41110 25610
L41170 25890
" />
<path d="M40970 25350
L41370 25350
" />
<path d="M41020 25350
L41000 25320
L40970 25270
L40970 25180
L41000 25120
L41050 25090
L41370 25090
" />
<path d="M41340 24580
L41370 24640
L41370 24750
L41340 24810
L41280 24840
L41050 24840
L41000 24810
L40970 24750
L40970 24640
L41000 24580
L41050 24550
L41110 24550
L41170 24840
" />
<path d="M41370 24290
L40970 24290
" />
<path d="M41080 24290
L41020 24270
L41000 24240
L40970 24180
L40970 24120
" />
<path d="M41140 23920
L41140 23470
" />
<path d="M41370 23690
L40910 23690
" />
</g>
<g style="fill:#000000; fill-opacity:0.0; 
stroke:#000000; stroke-width:0; stroke-opacity:1; 
stroke-linecap:round; stroke-linejoin:round;">
</g>
<g style="fill:#840000; fill-opacity:0.0; 
stroke:#840000; stroke-width:0; stroke-opacity:1; 
stroke-linecap:round; stroke-linejoin:round;">
</g>
<g style="fill:#840000; fill-opacity:1.0; 
stroke:#840000; stroke-width:60; stroke-opacity:1; 
stroke-linecap:round; stroke-linejoin:round;">
<circle cx="50500" cy="35000" r="140" /> 
</g>
<g style="fill:#840000; fill-opacity:0.0; 
stroke:#840000; stroke-width:60; stroke-opacity:1; 
stroke-linecap:round; stroke-linejoin:round;">
<circle cx="50500" cy="35000" r="300" /> 
<path d="M50500 35000
L50500 34000
" />
<path d="M50370 34350
L50370 34640
" />
<path d="M50370 34500
L49870 34500
L49940 34540
L49990 34590
L50010 34640
" />
<path d="M50500 35000
L50500 36000
" />
<path d="M49920 35640
L49900 35610
L49870 35570
L49870 35450
L49900 35400
L49920 35380
L49970 35350
L50010 35350
L50090 35380
L50370 35660
L50370 35350
" />
</g>
<g style="fill:#008484; fill-opacity:0.0; 
stroke:#008484; stroke-width:60; stroke-opacity:1; 
stroke-linecap:round; stroke-linejoin:round;">
<path d="M51470 34280
L51590 34780
L51690 34420
L51780 34780
L51900 34280
" />
<path d="M52070 34330
L52090 34310
L52140 34280
L52260 34280
L52310 34310
L52330 34330
L52350 34380
L52350 34420
L52330 34500
L52040 34780
L52350 34780
" />
<path d="M51520 35690
L51520 35190
L51810 35690
L51810 35190
" />
<path d="M52040 35430
L52210 35430
" />
<path d="M52280 35690
L52040 35690
L52040 35190
L52280 35190
" />
<path d="M52430 35190
L52710 35190
" />
<path d="M52570 35690
L52570 35190
" />
<path d="M52880 35500
L53260 35500
" />
<path d="M53430 35190
L53710 35190
" />
<path d="M53570 35690
L53570 35190
" />
<path d="M53880 35690
L53880 35190
" />
<path d="M54120 35430
L54280 35430
" />
<path d="M54350 35690
L54120 35690
L54120 35190
L54350 35190
" />
</g>
<g style="fill:#008484; fill-opacity:0.0; 
stroke:#008484; stroke-width:0; stroke-opacity:1; 
stroke-linecap:round; stroke-linejoin:round;">
</g>
<g style="fill:#840000; fill-opacity:0.0; 
stroke:#840000; stroke-width:0; stroke-opacity:1; 
stroke-linecap:round; stroke-linejoin:round;">
</g>
<g style="fill:#840000; fill-opacity:0.0; 
stroke:#840000; stroke-width:100; stroke-opacity:1; 
stroke-linecap:round; stroke-linejoin:round;">
<rect x="47500" y="27600" width="2000" height="800" rx="0" />
</g>
<g style="fill:#840000; fill-opacity:0.0; 
stroke:#840000; stroke-width:60; stroke-opacity:1; 
stroke-linecap:round; stroke-linejoin:round;">
<path d="M49500 28000
L50000 28000
" />
<path d="M47500 28000
L47000 28000
" />
</g>
<g style="fill:#008484; fill-opacity:0.0; 
stroke:#008484; stroke-width:60; stroke-opacity:1; 
stroke-linecap:round; stroke-linejoin:round;">
<path d="M48410 26170
L48250 25930
" />
<path d="M48130 26170
L48130 25670
L48320 25670
L48360 25700
L48390 25720
L48410 25770
L48410 25840
L48390 25890
L48360 25910
L48320 25930
L48130 25930
" />
<path d="M48600 25720
L48630 25700
L48670 25670
L48790 25670
L48840 25700
L48860 25720
L48890 25770
L48890 25810
L48860 25890
L48580 26170
L48890 26170
" />
<path d="M47670 26630
L47700 26610
L47750 26580
L47860 26580
L47910 26610
L47940 26630
L47960 26680
L47960 26720
L47940 26800
L47650 27080
L47960 27080
" />
<path d="M48270 26580
L48320 26580
L48360 26610
L48390 26630
L48410 26680
L48440 26770
L48440 26890
L48410 26990
L48390 27030
L48360 27060
L48320 27080
L48270 27080
L48220 27060
L48200 27030
L48170 26990
L48150 26890
L48150 26770
L48170 26680
L48200 26630
L48220 26610
L48270 26580
" />
<path d="M48750 26580
L48790 26580
L48840 26610
L48860 26630
L48890 26680
L48910 26770
L48910 26890
L48890 26990
L48860 27030
L48840 27060
L48790 27080
L48750 27080
L48700 27060
L48670 27030
L48650 26990
L48630 26890
L48630 26770
L48650 26680
L48670 26630
L48700 26610
L48750 26580
" />
<path d="M49130 27080
L49130 26580
" />
<path d="M49170 26890
L49320 27080
" />
<path d="M49320 26750
L49130 26940
" />
</g>
<g style="fill:#848400; fill-opacity:0.0; 
stroke:#848400; stroke-width:60; stroke-opacity:1; 
stroke-linecap:round; stroke-linejoin:round;">
<path d="M45670 30430
L46270 30230
L45670 30030
" />
<path d="M46040 29830
L46040 29370
" />
</g>
<g style="fill:#848400; fill-opacity:0.0; 
stroke:#848400; stroke-width:100; stroke-opacity:1; 
stroke-linecap:round; stroke-linejoin:round;">
<polyline fill="none;"
points="46300,28500
46300,29100
45700,29100
45700,28500
46300,28500
" /> 
</g>
<g style="fill:#848400; fill-opacity:0.0; 
stroke:#848400; stroke-width:0; stroke-opacity:1; 
stroke-linecap:round; stroke-linejoin:round;">
</g>
<g style="fill:#008400; fill-opacity:0.0; 
stroke:#008400; stroke-width:0; stroke-opacity:1; 
stroke-linecap:round; stroke-linejoin:round;">
</g>
<g style="fill:#008400; fill-opacity:1.0; 
stroke:#008400; stroke-width:100; stroke-opacity:1; 
stroke-linecap:round; stroke-linejoin:round;">
<circle cx="50500" cy="28000" r="200" /> 
</g>
<g style="fill:#008400; fill-opacity:1.0; 
stroke:#008400; stroke-width:60; stroke-opacity:1; 
stroke-linecap:round; stroke-linejoin:round;">
</g>
<g style="fill:#008400; fill-opacity:0.0; 
stroke:#008400; stroke-width:60; stroke-opacity:1; 
stroke-linecap:round; stroke-linejoin:round;">
<path d="M46000 28000
L46000 28500
" />
<path d="M38500 28500
L38500 24000
" />
<path d="M38500 39500
L38500 37500
" />
<path d="M44000 50500
L44000 55000
" />
<path d="M69000 28000
L69000 51000
" />
<path d="M62000 40500
L75500 40500
" />
<path d="M54500 41500
L56000 41500
" />
<path d="M41500 39500
L56000 39500
" />
<path d="M50000 28000
L57500 28000
" />
<path d="M60500 28000
L69000 28000
" />
</g>
<g style="fill:#008400; fill-opacity:0.0; 
stroke:#008400; stroke-width:0; stroke-opacity:1; 
stroke-linecap:round; stroke-linejoin:round;">
</g>
<g style="fill:#008400; fill-opacity:1.0; 
stroke:#008400; stroke-width:100; stroke-opacity:1; 
stroke-linecap:round; stroke-linejoin:round;">
<circle cx="69000" cy="40500" r="200" /> 
</g>
<g style="fill:#008400; fill-opacity:1.0; 
stroke:#008400; stroke-width:60; stroke-opacity:1; 
stroke-linecap:round; stroke-linejoin:round;">
</g>
<g style="fill:#008400; fill-opacity:0.0; 
stroke:#008400; stroke-width:60; stroke-opacity:1; 
stroke-linecap:round; stroke-linejoin:round;">
<path d="M58000 43500
L58000 50500
" />
<path d="M58000 31000
L58000 37500
" />
</g>
<g style="fill:#008400; fill-opacity:0.0; 
stroke:#008400; stroke-width:0; stroke-opacity:1; 
stroke-linecap:round; stroke-linejoin:round;">
</g>
<g style="fill:#008400; fill-opacity:1.0; 
stroke:#008400; stroke-width:100; stroke-opacity:1; 
stroke-linecap:round; stroke-linejoin:round;">
<circle cx="69000" cy="48000" r="200" /> 
</g>
<g style="fill:#008400; fill-opacity:1.0; 
stroke:#008400; stroke-width:60; stroke-opacity:1; 
stroke-linecap:round; stroke-linejoin:round;">
</g>
<g style="fill:#008400; fill-opacity:0.0; 
stroke:#008400; stroke-width:60; stroke-opacity:1; 
stroke-linecap:round; stroke-linejoin:round;">
<path d="M58000 32000
L62000 32000
" />
<path d="M62000 32000
L62000 33000
" />
</g>
<g style="fill:#008400; fill-opacity:0.0; 
stroke:#008400; stroke-width:0; stroke-opacity:1; 
stroke-linecap:round; stroke-linejoin:round;">
</g>
<g style="fill:#008400; fill-opacity:1.0; 
stroke:#008400; stroke-width:100; stroke-opacity:1; 
stroke-linecap:round; stroke-linejoin:round;">
<circle cx="58000" cy="32000" r="200" /> 
</g>
<g style="fill:#008400; fill-opacity:1.0; 
stroke:#008400; stroke-width:60; stroke-opacity:1; 
stroke-linecap:round; stroke-linejoin:round;">
</g>
<g style="fill:#008400; fill-opacity:0.0; 
stroke:#008400; stroke-width:60; stroke-opacity:1; 
stroke-linecap:round; stroke-linejoin:round;">
<path d="M62000 36000
L62000 37000
" />
<path d="M62000 45000
L62000 46000
" />
<path d="M62000 49000
L62000 50000
" />
<path d="M62000 45000
L58000 45000
" />
</g>
<g style="fill:#008400; fill-opacity:0.0; 
stroke:#008400; stroke-width:0; stroke-opacity:1; 
stroke-linecap:round; stroke-linejoin:round;">
</g>
<g style="fill:#008400; fill-opacity:1.0; 
stroke:#008400; stroke-width:100; stroke-opacity:1; 
stroke-linecap:round; stroke-linejoin:round;">
<circle cx="58000" cy="45000" r="200" /> 
</g>
<g style="fill:#008400; fill-opacity:1.0; 
stroke:#008400; stroke-width:60; stroke-opacity:1; 
stroke-linecap:round; stroke-linejoin:round;">
</g>
<g style="fill:#008400; fill-opacity:0.0; 
stroke:#008400; stroke-width:60; stroke-opacity:1; 
stroke-linecap:round; stroke-linejoin:round;">
<path d="M41500 37500
L41500 39500
" />
<path d="M44000 55000
L47000 53000
" />
<path d="M47000 51000
L47000 50500
" />
<path d="M69000 60000
L69000 61000
" />
<path d="M41500 27500
L41500 28500
" />
<path d="M50500 28000
L50500 34000
" />
<path d="M50500 36000
L50500 38000
" />
<path d="M50500 38000
L41500 38000
" />
</g>
<g style="fill:#008400; fill-opacity:0.0; 
stroke:#008400; stroke-width:0; stroke-opacity:1; 
stroke-linecap:round; stroke-linejoin:round;">
</g>
<g style="fill:#008400; fill-opacity:1.0; 
stroke:#008400; stroke-width:100; stroke-opacity:1; 
stroke-linecap:round; stroke-linejoin:round;">
<circle cx="41500" cy="38000" r="200" /> 
</g>
<g style="fill:#008400; fill-opacity:1.0; 
stroke:#008400; stroke-width:60; stroke-opacity:1; 
stroke-linecap:round; stroke-linejoin:round;">
</g>
<g style="fill:#008400; fill-opacity:0.0; 
stroke:#008400; stroke-width:60; stroke-opacity:1; 
stroke-linecap:round; stroke-linejoin:round;">
<path d="M69000 48000
L65500 48000
" />
<path d="M65500 48000
L65500 49000
" />
<path d="M65500 53500
L65500 52000
" />
</g>
<g style="fill:#008400; fill-opacity:0.0; 
stroke:#008400; stroke-width:0; stroke-opacity:1; 
stroke-linecap:round; stroke-linejoin:round;">
</g>
<g style="fill:#008400; fill-opacity:1.0; 
stroke:#008400; stroke-width:100; stroke-opacity:1; 
stroke-linecap:round; stroke-linejoin:round;">
<circle cx="65500" cy="53500" r="200" /> 
</g>
<g style="fill:#008400; fill-opacity:1.0; 
stroke:#008400; stroke-width:60; stroke-opacity:1; 
stroke-linecap:round; stroke-linejoin:round;">
</g>
<g style="fill:#008400; fill-opacity:0.0; 
stroke:#008400; stroke-width:60; stroke-opacity:1; 
stroke-linecap:round; stroke-linejoin:round;">
<path d="M47000 28000
L46000 28000
" />
</g>
<g style="fill:#008400; fill-opacity:0.0; 
stroke:#008400; stroke-width:0; stroke-opacity:1; 
stroke-linecap:round; stroke-linejoin:round;">
</g>
<g style="fill:#840000; fill-opacity:0.0; 
stroke:#840000; stroke-width:0; stroke-opacity:1; 
stroke-linecap:round; stroke-linejoin:round;">
</g>
<g style="fill:#FFFFC2; fill-opacity:0.0; 
stroke:#FFFFC2; stroke-width:0; stroke-opacity:1; 
stroke-linecap:round; stroke-linejoin:round;">
</g>
<g style="fill:#FFFFC2; fill-opacity:0.6; 
stroke:#FFFFC2; stroke-width:0; stroke-opacity:1; 
stroke-linecap:round; stroke-linejoin:round;">
<rect x="68500" y="52000" width="1000" height="3000" rx="0" />
</g>
<g style="fill:#840000; fill-opacity:0.6; 
stroke:#840000; stroke-width:0; stroke-opacity:1; 
stroke-linecap:round; stroke-linejoin:round;">
</g>
<g style="fill:#840000; fill-opacity:0.0; 
stroke:#840000; stroke-width:100; stroke-opacity:1; 
stroke-linecap:round; stroke-linejoin:round;">
<rect x="68500" y="52000" width="1000" height="3000" rx="0" />
</g>
<g style="fill:#840000; fill-opacity:1.0; 
stroke:#840000; stroke-width:60; stroke-opacity:1; 
stroke-linecap:round; stroke-linejoin:round;">
<circle cx="69000" cy="53510" r="100" /> 
</g>
<g style="fill:#840000; fill-opacity:0.0; 
stroke:#840000; stroke-width:100; stroke-opacity:1; 
stroke-linecap:round; stroke-linejoin:round;">
<rect x="68800" y="52170" width="400" height="1000" rx="0" />
<rect x="68800" y="53830" width="400" height="1000" rx="0" />
</g>
<g style="fill:#840000; fill-opacity:0.0; 
stroke:#840000; stroke-width:60; stroke-opacity:1; 
stroke-linecap:round; stroke-linejoin:round;">
<polyline fill="none;"
points="69000,51500
69000,52150
" /> 
<polyline fill="none;"
points="69000,53850
69000,53150
" /> 
<polyline fill="none;"
points="69000,55500
69000,54830
" /> 
<polyline fill="none;"
points="68500,53500
69000,53500
" /> 
<path d="M69000 55000
L69000 56000
" />
<path d="M69570 55350
L69570 55640
" />
<path d="M69570 55500
L69070 55500
L69140 55540
L69190 55590
L69210 55640
" />
<path d="M68500 53500
L67500 53500
" />
<path d="M67850 53620
L67880 53600
L67920 53570
L68040 53570
L68090 53600
L68110 53620
L68140 53670
L68140 53710
L68110 53790
L67830 54070
L68140 54070
" />
<path d="M69000 52000
L69000 51000
" />
<path d="M69070 51660
L69070 51350
L69260 51520
L69260 51450
L69290 51400
L69310 51380
L69360 51350
L69480 51350
L69520 51380
L69550 51400
L69570 51450
L69570 51590
L69550 51640
L69520 51660
" />
</g>
<g style="fill:#008484; fill-opacity:0.0; 
stroke:#008484; stroke-width:60; stroke-opacity:1; 
stroke-linecap:round; stroke-linejoin:round;">
<path d="M70220 53230
L70050 52990
" />
<path d="M69930 53230
L69930 52730
L70120 52730
L70170 52760
L70200 52780
L70220 52830
L70220 52900
L70200 52950
L70170 52970
L70120 52990
L69930 52990
" />
<path d="M70430 53230
L70430 52730
L70720 53230
L70720 52730
" />
<path d="M71220 53230
L70930 53230
" />
<path d="M71080 53230
L71080 52730
L71030 52800
L70980 52850
L70930 52870
" />
<path d="M70200 54140
L69910 54140
" />
<path d="M70050 54140
L70050 53640
L70010 53710
L69960 53760
L69910 53780
" />
<path d="M70360 53640
L70700 53640
L70480 54140
" />
<path d="M70890 54140
L70890 53640
" />
<path d="M70940 53950
L71080 54140
" />
<path d="M71080 53810
L70890 54000
" />
<path d="M71650 53620
L71220 54260
" />
<path d="M71790 53690
L71820 53670
L71860 53640
L71980 53640
L72030 53670
L72050 53690
L72080 53740
L72080 53780
L72050 53860
L71770 54140
L72080 54140
" />
<path d="M72390 53640
L72440 53640
L72480 53670
L72510 53690
L72530 53740
L72550 53830
L72550 53950
L72530 54050
L72510 54090
L72480 54120
L72440 54140
L72390 54140
L72340 54120
L72320 54090
L72290 54050
L72270 53950
L72270 53830
L72290 53740
L72320 53690
L72340 53670
L72390 53640
" />
<path d="M72770 54140
L72770 53640
" />
<path d="M72820 53950
L72960 54140
" />
<path d="M72960 53810
L72770 54000
" />
</g>
<g style="fill:#008400; fill-opacity:0.0; 
stroke:#008400; stroke-width:60; stroke-opacity:1; 
stroke-linecap:round; stroke-linejoin:round;">
<path d="M54500 53500
L67500 53500
" />
<path d="M69000 58000
L69000 56000
" />
</g>
<g style="fill:#008400; fill-opacity:0.0; 
stroke:#008400; stroke-width:0; stroke-opacity:1; 
stroke-linecap:round; stroke-linejoin:round;">
</g>
<g style="fill:#840000; fill-opacity:0.0; 
stroke:#840000; stroke-width:0; stroke-opacity:1; 
stroke-linecap:round; stroke-linejoin:round;">
</g>
<g style="fill:#FFFFC2; fill-opacity:0.0; 
stroke:#FFFFC2; stroke-width:0; stroke-opacity:1; 
stroke-linecap:round; stroke-linejoin:round;">
</g>
<g style="fill:#FFFFC2; fill-opacity:0.6; 
stroke:#FFFFC2; stroke-width:0; stroke-opacity:1; 
stroke-linecap:round; stroke-linejoin:round;">
<polyline style="fill-rule:evenodd;"
points="57000,38500
61000,40500
57000,42500
57000,38500
" /> 
</g>
<g style="fill:#840000; fill-opacity:0.6; 
stroke:#840000; stroke-width:0; stroke-opacity:1; 
stroke-linecap:round; stroke-linejoin:round;">
</g>
<g style="fill:#840000; fill-opacity:0.0; 
stroke:#840000; stroke-width:100; stroke-opacity:1; 
stroke-linecap:round; stroke-linejoin:round;">
<polyline fill="none;"
points="57000,38500
61000,40500
57000,42500
57000,38500
" /> 
</g>
<g style="fill:#840000; fill-opacity:0.0; 
stroke:#840000; stroke-width:60; stroke-opacity:1; 
stroke-linecap:round; stroke-linejoin:round;">
<circle cx="59000" cy="41750" r="250" /> 
<path d="M59000 42000
L59000 43000
" />
</g>
<g style="fill:#008484; fill-opacity:0.0; 
stroke:#008484; stroke-width:60; stroke-opacity:1; 
stroke-linecap:round; stroke-linejoin:round;">
<path d="M58580 41180
L58580 40790
" />
<path d="M59200 41170
L59220 41100
L59220 40980
L59200 40930
L59170 40910
L59130 40880
L59080 40880
L59030 40910
L59010 40930
L58980 40980
L58960 41070
L58940 41120
L58910 41150
L58860 41170
L58820 41170
L58770 41150
L58750 41120
L58720 41070
L58720 40960
L58750 40880
" />
<path d="M58580 40790
L58580 40290
" />
<path d="M59220 40670
L58720 40670
L58720 40550
L58750 40480
L58790 40430
L58840 40410
L58940 40380
L59010 40380
L59100 40410
L59150 40430
L59200 40480
L59220 40550
L59220 40670
" />
</g>
<g style="fill:#840000; fill-opacity:0.0; 
stroke:#840000; stroke-width:60; stroke-opacity:1; 
stroke-linecap:round; stroke-linejoin:round;">
<path d="M58870 42100
L58870 42390
" />
<path d="M58870 42250
L58370 42250
L58440 42290
L58490 42340
L58510 42390
" />
<path d="M58000 42000
L58000 43500
" />
</g>
<g style="fill:#008484; fill-opacity:0.0; 
stroke:#008484; stroke-width:60; stroke-opacity:1; 
stroke-linecap:round; stroke-linejoin:round;">
<path d="M57720 41720
L58220 41550
L57720 41380
" />
<path d="M58030 41220
L58030 40840
" />
</g>
<g style="fill:#840000; fill-opacity:0.0; 
stroke:#840000; stroke-width:60; stroke-opacity:1; 
stroke-linecap:round; stroke-linejoin:round;">
<path d="M57540 42650
L57870 42650
" />
<path d="M57350 42770
L57700 42890
L57700 42580
" />
<path d="M58000 39000
L58000 37500
" />
</g>
<g style="fill:#008484; fill-opacity:0.0; 
stroke:#008484; stroke-width:60; stroke-opacity:1; 
stroke-linecap:round; stroke-linejoin:round;">
<path d="M57720 40230
L58220 40060
L57720 39890
" />
<path d="M58030 39730
L58030 39340
" />
<path d="M58220 39530
L57840 39530
" />
</g>
<g style="fill:#840000; fill-opacity:0.0; 
stroke:#840000; stroke-width:60; stroke-opacity:1; 
stroke-linecap:round; stroke-linejoin:round;">
<path d="M57370 38410
L57370 38080
L57870 38290
" />
<path d="M59000 39500
L59000 38000
" />
<path d="M58590 38790
L58560 38840
L58540 38860
L58490 38890
L58470 38890
L58420 38860
L58400 38840
L58370 38790
L58370 38700
L58400 38650
L58420 38630
L58470 38600
L58490 38600
L58540 38630
L58560 38650
L58590 38700
L58590 38790
L58610 38840
L58630 38860
L58680 38890
L58780 38890
L58820 38860
L58850 38840
L58870 38790
L58870 38700
L58850 38650
L58820 38630
L58780 38600
L58680 38600
L58630 38630
L58610 38650
L58590 38700
" />
<path d="M58000 42000
L58000 43500
" />
<path d="M57870 42840
L57870 42750
L57850 42700
L57820 42670
L57750 42630
L57660 42600
L57470 42600
L57420 42630
L57400 42650
L57370 42700
L57370 42790
L57400 42840
L57420 42860
L57470 42890
L57590 42890
L57630 42860
L57660 42840
L57680 42790
L57680 42700
L57660 42650
L57630 42630
L57590 42600
" />
<path d="M57000 41500
L56000 41500
" />
</g>
<g style="fill:#008484; fill-opacity:0.0; 
stroke:#008484; stroke-width:60; stroke-opacity:1; 
stroke-linecap:round; stroke-linejoin:round;">
<path d="M57340 41530
L57730 41530
" />
</g>
<g style="fill:#840000; fill-opacity:0.0; 
stroke:#840000; stroke-width:60; stroke-opacity:1; 
stroke-linecap:round; stroke-linejoin:round;">
<path d="M56350 40920
L56380 40900
L56420 40870
L56540 40870
L56590 40900
L56610 40920
L56640 40970
L56640 41010
L56610 41090
L56330 41370
L56640 41370
" />
<path d="M57000 39500
L56000 39500
" />
</g>
<g style="fill:#008484; fill-opacity:0.0; 
stroke:#008484; stroke-width:60; stroke-opacity:1; 
stroke-linecap:round; stroke-linejoin:round;">
<path d="M57340 39530
L57730 39530
" />
<path d="M57530 39720
L57530 39340
" />
</g>
<g style="fill:#840000; fill-opacity:0.0; 
stroke:#840000; stroke-width:60; stroke-opacity:1; 
stroke-linecap:round; stroke-linejoin:round;">
<path d="M56330 38870
L56640 38870
L56470 39060
L56540 39060
L56590 39090
L56610 39110
L56640 39160
L56640 39280
L56610 39320
L56590 39350
L56540 39370
L56400 39370
L56350 39350
L56330 39320
" />
<path d="M61000 40500
L62000 40500
" />
<path d="M61590 39870
L61500 39870
L61450 39900
L61420 39920
L61380 39990
L61350 40090
L61350 40280
L61380 40320
L61400 40350
L61450 40370
L61540 40370
L61590 40350
L61610 40320
L61640 40280
L61640 40160
L61610 40110
L61590 40090
L61540 40060
L61450 40060
L61400 40090
L61380 40110
L61350 40160
" />
</g>
<g style="fill:#008484; fill-opacity:0.0; 
stroke:#008484; stroke-width:60; stroke-opacity:1; 
stroke-linecap:round; stroke-linejoin:round;">
<path d="M62550 39780
L62550 40190
L62580 40230
L62600 40260
L62650 40280
L62740 40280
L62790 40260
L62820 40230
L62840 40190
L62840 39780
" />
<path d="M63030 39780
L63340 39780
L63170 39970
L63240 39970
L63290 40000
L63320 40020
L63340 40070
L63340 40190
L63320 40230
L63290 40260
L63240 40280
L63100 40280
L63050 40260
L63030 40230
" />
<path d="M62790 41190
L62550 41190
L62550 40690
" />
<path d="M62880 40690
L63170 40690
" />
<path d="M63030 41190
L63030 40690
" />
<path d="M63620 41140
L63600 41170
L63530 41190
L63480 41190
L63410 41170
L63360 41120
L63330 41070
L63310 40980
L63310 40910
L63330 40810
L63360 40760
L63410 40720
L63480 40690
L63530 40690
L63600 40720
L63620 40740
" />
<path d="M63810 40740
L63830 40720
L63880 40690
L64000 40690
L64050 40720
L64070 40740
L64100 40790
L64100 40830
L64070 40910
L63790 41190
L64100 41190
" />
<path d="M64410 40690
L64450 40690
L64500 40720
L64530 40740
L64550 40790
L64570 40880
L64570 41000
L64550 41100
L64530 41140
L64500 41170
L64450 41190
L64410 41190
L64360 41170
L64330 41140
L64310 41100
L64290 41000
L64290 40880
L64310 40790
L64330 40740
L64360 40720
L64410 40690
" />
<path d="M65030 40690
L64790 40690
L64760 40930
L64790 40910
L64830 40880
L64950 40880
L65000 40910
L65030 40930
L65050 40980
L65050 41100
L65030 41140
L65000 41170
L64950 41190
L64830 41190
L64790 41170
L64760 41140
" />
<path d="M65220 40690
L65550 40690
L65330 41190
" />
</g>
<g style="fill:#008400; fill-opacity:0.0; 
stroke:#008400; stroke-width:60; stroke-opacity:1; 
stroke-linecap:round; stroke-linejoin:round;">
<path d="M54500 41500
L54500 53500
" />
</g> 
</svg>
